<?xml version="1.0" standalone="no"?>
<!DOCTYPE svg PUBLIC "-//W3C//DTD SVG 20010904//EN"
 "http://www.w3.org/TR/2001/REC-SVG-20010904/DTD/svg10.dtd">
<svg version="1.0" xmlns="http://www.w3.org/2000/svg"
 width="269.000000pt" height="272.000000pt" viewBox="0 0 269.000000 272.000000"
 preserveAspectRatio="xMidYMid meet">
<metadata>
Created by potrace 1.13, written by Peter Selinger 2001-2015
</metadata>
<g transform="translate(0.000000,272.000000) scale(0.100000,-0.100000)"
fill="#000000" stroke="none">
<path d="M775 2704 c-218 -20 -495 -53 -531 -65 -31 -10 -93 -68 -112 -105
-13 -25 -72 -371 -102 -594 -23 -177 -35 -402 -23 -442 10 -32 1329 -1450
1376 -1478 39 -24 167 -27 207 -6 41 23 1045 967 1074 1011 22 33 26 50 26
112 0 45 -6 85 -15 102 -8 16 -314 350 -679 742 -477 511 -675 717 -698 726
-44 16 -331 14 -523 -3z m-60 -369 c151 -61 183 -271 57 -375 -115 -95 -275
-60 -344 75 -57 110 7 267 124 303 69 22 103 21 163 -3z m707 -616 c66 -15
128 -41 185 -79 24 -17 48 -30 54 -30 18 0 50 64 44 90 -5 19 7 11 50 -37 31
-34 77 -81 103 -103 34 -30 39 -36 16 -24 -32 18 -65 15 -98 -11 -19 -15 -19
-17 21 -93 42 -79 49 -100 63 -189 26 -158 -60 -321 -207 -394 -42 -21 -62
-24 -158 -24 -123 1 -183 18 -276 81 l-50 34 -24 -28 c-24 -26 -33 -78 -17
-97 4 -6 -19 18 -51 52 -32 34 -81 83 -110 109 -29 26 -41 39 -27 30 34 -22
70 -20 104 7 l29 23 -26 40 c-15 21 -39 68 -54 104 -24 57 -27 79 -28 170 0
95 3 111 28 165 76 163 244 243 429 204z"/>
<path d="M1365 1638 c-175 -23 -312 -175 -323 -358 -5 -80 13 -165 41 -205 14
-19 18 -17 83 40 116 102 464 447 464 460 0 20 -85 57 -148 64 -31 3 -84 3
-117 -1z"/>
<path d="M1602 1371 c-64 -60 -184 -177 -266 -259 l-149 -150 26 -17 c73 -47
217 -59 312 -26 160 56 257 195 258 366 0 81 -32 195 -54 195 -5 0 -62 -49
-127 -109z"/>
</g>
</svg>
