<?xml version="1.0" encoding="UTF-8" standalone="no"?>
<svg width="15px" height="14px" viewBox="0 0 15 14" version="1.1" xmlns="http://www.w3.org/2000/svg" xmlns:xlink="http://www.w3.org/1999/xlink">
    <!-- Generator: Sketch 3.8.3 (29802) - http://www.bohemiancoding.com/sketch -->
    <title>check-blue</title>
    <desc>Created with Sketch.</desc>
    <defs></defs>
    <g id="Page-1" stroke="none" stroke-width="1" fill="none" fill-rule="evenodd">
        <path d="M14.9970531,1.44 C14.9970531,2.14 14.5470531,2.51 13.9170531,3.42 L12.4970531,5.4 C10.5070531,8.07 8.63805306,10.95 6.58705306,13.63 C6.36705306,13.84 5.79705306,14 5.51705306,14 C5.16705306,14 4.77705306,13.84 4.48705306,13.63 C3.01705306,12.34 1.53705306,10.9 0.177053061,9.51 C-0.0529469388,9.24 0.00705306122,8.92 0.00705306122,8.71 C0.00705306122,7.75 0.687053061,7.27 1.53705306,7.27 C2.78705306,7.27 4.03705306,9.19 5.28705306,10.15 C7.66705306,6.89 9.94705306,3.53 12.4360531,0.27 C12.5580531,0.11 12.8370531,0.05 13.0070531,0 L13.4680531,0 C14.4270531,0 14.9970531,0.64 14.9970531,1.44" id="check-blue" fill="#005EAC"></path>
    </g>
</svg>