<?xml version="1.0" encoding="utf-8"?>
<!-- Generator: Adobe Illustrator 16.0.0, SVG Export Plug-In . SVG Version: 6.00 Build 0)  -->
<!DOCTYPE svg PUBLIC "-//W3C//DTD SVG 1.1//EN" "http://www.w3.org/Graphics/SVG/1.1/DTD/svg11.dtd">
<svg version="1.1" id="Layer_1" xmlns="http://www.w3.org/2000/svg" xmlns:xlink="http://www.w3.org/1999/xlink" x="0px" y="0px"
	 width="17.52px" height="17.5px" viewBox="0 0 17.52 17.5" enable-background="new 0 0 17.52 17.5" xml:space="preserve">
<path fill-rule="evenodd" clip-rule="evenodd" fill="#026DB7" d="M5.81,8.59c0,0.5-0.4,0.9-0.9,0.9s-0.9-0.4-0.9-0.9
	s0.4-0.91,0.9-0.91S5.81,8.09,5.81,8.59z M9.55,8.59c0,0.5-0.4,0.9-0.9,0.9s-0.9-0.4-0.9-0.9s0.4-0.91,0.9-0.91S9.55,8.09,9.55,8.59
	z M13.29,8.59c0,0.5-0.41,0.9-0.91,0.9c-0.489,0-0.899-0.4-0.899-0.9s0.41-0.91,0.899-0.91C12.879,7.68,13.29,8.09,13.29,8.59z
	 M6.31,8.59c0-0.78-0.62-1.41-1.4-1.41c-0.77,0-1.4,0.63-1.4,1.41c0,0.77,0.63,1.4,1.4,1.4C5.69,9.99,6.31,9.36,6.31,8.59z
	 M10.049,8.59c0-0.78-0.629-1.41-1.399-1.41c-0.78,0-1.4,0.63-1.4,1.41c0,0.77,0.62,1.4,1.4,1.4C9.42,9.99,10.049,9.36,10.049,8.59z
	 M13.78,8.59c0-0.78-0.619-1.41-1.4-1.41c-0.77,0-1.399,0.63-1.399,1.41c0,0.77,0.63,1.4,1.399,1.4
	C13.161,9.99,13.78,9.36,13.78,8.59z M8.82,17.061c-4.96,0-8.38-4.07-8.38-8.36c0-2.76,1.99-6.61,5.29-7.71
	C6.39,0.88,7.38,0.44,7.6,0.44h2.32c4.411,0.77,7.161,4.4,7.161,8.26C17.081,13.65,13.11,17.061,8.82,17.061z M8.82,17.5
	c4.729,0,8.7-3.85,8.7-8.8c0-3.97-2.75-7.82-7.49-8.7H7.49c-0.22,0-1.54,0.33-2.2,0.66C2.1,1.87,0,5.39,0,8.7
	C0,13.43,3.86,17.5,8.82,17.5z"/>
</svg>
