<?xml version="1.0" standalone="no"?>
<!DOCTYPE svg PUBLIC "-//W3C//DTD SVG 1.1//EN" "http://www.w3.org/Graphics/SVG/1.1/DTD/svg11.dtd" >
<svg>
<metadata>
Created by FontForge 20120731 at Wed Jul 25 17:20:30 2018
 By www-data
Copyright (c) 2008 by Dino dos Santos _DSType. All rights reserved.
</metadata>
<defs>
<font id="PreloSlab-ExBd" horiz-adv-x="594" >
  <font-face 
    font-family="Prelo Slab ExBd"
    font-weight="800"
    font-stretch="normal"
    units-per-em="1000"
    panose-1="2 0 5 3 4 0 0 2 0 4"
    ascent="750"
    descent="-250"
    x-height="500"
    cap-height="680"
    bbox="-49 -270 1076 950"
    underline-thickness="50"
    underline-position="-50"
    stemh="124"
    stemv="150"
    unicode-range="U+0020-FB06"
  />
<missing-glyph horiz-adv-x="590" 
d="M70 500h450v-500h-450v500zM287 249l-206 236v-469zM304 249l205 -231v465zM93 488l203 -229l202 229h-405zM296 240l-201 -228h401z" />
    <glyph glyph-name=".notdef" horiz-adv-x="590" 
d="M70 500h450v-500h-450v500zM287 249l-206 236v-469zM304 249l205 -231v465zM93 488l203 -229l202 229h-405zM296 240l-201 -228h401z" />
    <glyph glyph-name="space" unicode=" " horiz-adv-x="180" 
 />
    <glyph glyph-name="exclam" unicode="!" horiz-adv-x="222" 
d="M36 152h150v-152h-150v152zM36 700h150l-9 -480h-132z" />
    <glyph glyph-name="quotedbl" unicode="&#x22;" horiz-adv-x="422" 
d="M36 680h150l-17 -188h-115zM236 680h150l-17 -188h-115z" />
    <glyph glyph-name="numbersign" unicode="#" horiz-adv-x="613" 
d="M179 500h106l-10 -96h95l10 96h107l-11 -96h100l-10 -98h-100l-12 -112h100l-10 -98h-100l-10 -96h-107l11 96h-95l-11 -96h-106l11 96h-100l10 98h100l12 112h-100l10 98h100zM265 306l-12 -112h95l12 112h-95z" />
    <glyph glyph-name="dollar" unicode="$" horiz-adv-x="620" 
d="M46 207h124v-67c60 -12 105 -18 140 -18c64 0 96 25 96 65c0 55 -69 68 -151 92c-121 35 -199 101 -199 216c0 130 101 187 227 194v91h63v-91c64 -3 128 -14 209 -38v-179h-124v73c-53 10 -87 12 -121 12c-55 0 -86 -22 -86 -58c0 -45 50 -68 136 -88
c121 -28 214 -87 214 -206c0 -138 -99 -204 -228 -213v-92h-63v91c-72 2 -152 12 -237 38v178z" />
    <glyph glyph-name="percent" unicode="%" horiz-adv-x="760" 
d="M614 680l-370 -680h-98l370 680h98zM180 385c-95 0 -146 58 -146 151s51 150 146 150c96 0 147 -57 147 -150s-51 -151 -147 -151zM180 460c35 0 54 25 54 76s-19 76 -54 76s-53 -25 -53 -76s18 -76 53 -76zM580 -6c-96 0 -147 57 -147 150s51 150 147 150
c95 0 146 -57 146 -150s-51 -150 -146 -150zM580 68c34 0 53 25 53 76s-19 76 -53 76c-35 0 -54 -25 -54 -76s19 -76 54 -76z" />
    <glyph glyph-name="ampersand" unicode="&#x26;" horiz-adv-x="705" 
d="M519 519c0 -48 -23 -103 -126 -163l115 -109c21 35 35 73 39 103h142c-9 -64 -37 -139 -85 -203l75 -77l-98 -106l-83 87c-57 -38 -128 -61 -213 -61c-175 0 -249 81 -249 191c0 67 28 122 148 193c-46 57 -68 95 -68 142c0 116 103 174 209 174c121 0 194 -64 194 -171z
M295 118c41 0 79 9 111 29l-146 151c-48 -31 -66 -64 -66 -94c0 -52 43 -86 101 -86zM262 523c0 -31 16 -55 45 -87c51 33 70 60 70 88c0 46 -26 64 -56 64c-42 0 -59 -31 -59 -65z" />
    <glyph glyph-name="quotesingle" unicode="'" horiz-adv-x="222" 
d="M36 680h150l-17 -188h-115z" />
    <glyph glyph-name="parenleft" unicode="(" horiz-adv-x="330" 
d="M38 340c0 168 59 340 178 480h98c-92 -161 -126 -317 -126 -480c0 -160 34 -310 126 -480h-98c-119 140 -178 316 -178 480z" />
    <glyph glyph-name="parenright" unicode=")" horiz-adv-x="330" 
d="M292 340c0 -164 -59 -340 -178 -480h-98c92 170 126 320 126 480c0 163 -34 319 -126 480h98c119 -140 178 -312 178 -480z" />
    <glyph glyph-name="asterisk" unicode="*" horiz-adv-x="410" 
d="M174 560l-12 120h86l-12 -120l116 48l26 -84l-122 -12l81 -90l-66 -51l-67 113l-65 -113l-66 51l80 90l-121 12l24 84z" />
    <glyph glyph-name="plus" unicode="+" horiz-adv-x="500" 
d="M312 479v-152h152v-124h-152v-152h-124v152h-152v124h152v152h124z" />
    <glyph glyph-name="comma" unicode="," horiz-adv-x="222" 
d="M115 -130h-45l27 130h-61v152h150v-152z" />
    <glyph glyph-name="hyphen" unicode="-" horiz-adv-x="500" 
d="M36 327h428v-124h-428v124z" />
    <glyph glyph-name="period" unicode="." horiz-adv-x="222" 
d="M36 152h150v-152h-150v152z" />
    <glyph glyph-name="slash" unicode="/" horiz-adv-x="540" 
d="M521 680l-370 -680h-132l370 680h132z" />
    <glyph glyph-name="zero" unicode="0" horiz-adv-x="570" 
d="M285 566c-78 0 -100 -91 -100 -221s22 -231 100 -231s100 101 100 231s-22 221 -100 221zM285 -10c-209 0 -259 161 -259 355s50 345 259 345s259 -151 259 -345s-50 -355 -259 -355z" />
    <glyph glyph-name="one" unicode="1" horiz-adv-x="390" 
d="M267 124h105v-124h-360v124h105v415l-103 -2v106l183 42h70v-561z" />
    <glyph glyph-name="two" unicode="2" horiz-adv-x="530" 
d="M389 179h123v-179h-496v142c253 157 309 237 309 309c0 91 -69 102 -110 102c-24 0 -47 -2 -75 -10v-46h-124v143c86 34 146 50 234 50c157 0 234 -91 234 -208c0 -140 -101 -239 -256 -348v-2h161v47z" />
    <glyph glyph-name="three" unicode="3" horiz-adv-x="520" 
d="M15 39v143h124v-56c33 -9 66 -12 102 -12c81 0 108 45 108 82c0 59 -42 82 -119 82h-93v124h86c94 0 111 50 111 91c0 37 -29 73 -93 73c-36 0 -64 -5 -95 -14v-55h-124v144c86 38 167 49 245 49c116 0 217 -60 217 -180c0 -73 -40 -124 -114 -153v-2
c94 -25 134 -94 134 -168c0 -127 -96 -197 -255 -197c-87 0 -149 10 -234 49z" />
    <glyph glyph-name="four" unicode="4" horiz-adv-x="570" 
d="M169 307h151v219h-2c-51 -92 -89 -145 -149 -219zM320 124v60h-304v123c110 120 198 218 268 378h186v-378h84v-123h-84v-60h54v-124h-258v124h54z" />
    <glyph glyph-name="five" unicode="5" horiz-adv-x="540" 
d="M492 680v-179h-123v46h-191l-7 -135l2 -1c32 23 70 39 130 39c128 0 211 -76 211 -223c0 -157 -99 -237 -264 -237c-75 0 -139 11 -225 50v134h124v-49c31 -8 61 -11 92 -11c81 0 114 48 114 105c0 46 -23 103 -106 103c-49 0 -73 -13 -105 -39l-107 9l12 388h443z" />
    <glyph glyph-name="six" unicode="6" horiz-adv-x="550" 
d="M176 394l2 -1c33 37 83 62 136 62c129 0 210 -85 210 -235c0 -144 -99 -230 -241 -230c-182 0 -257 149 -257 310c0 307 141 390 303 390c65 0 119 -10 175 -29v-160h-124v63c-13 1 -23 2 -38 2c-77 0 -167 -49 -166 -172zM189 284c-9 -82 4 -170 87 -170
c49 0 89 36 89 106c0 47 -18 105 -91 105c-35 0 -62 -18 -85 -41z" />
    <glyph glyph-name="seven" unicode="7" horiz-adv-x="490" 
d="M17 680h457v-106c-92 -163 -181 -327 -220 -574h-168c30 173 119 387 224 545v2h-169v-46h-124v179z" />
    <glyph glyph-name="eight" unicode="8" horiz-adv-x="550" 
d="M405 359v-2c85 -43 129 -95 129 -170c0 -140 -126 -197 -263 -197c-131 0 -255 50 -255 181c0 77 45 131 127 165v2c-67 36 -107 88 -107 166c0 127 121 186 243 186c115 0 235 -59 235 -178c0 -73 -39 -116 -109 -153zM171 187c0 -42 30 -86 109 -86c73 0 99 34 99 73
c0 64 -75 85 -127 106c-43 -17 -81 -48 -81 -93zM271 579c-49 0 -85 -31 -85 -71c0 -52 56 -83 107 -96c38 14 71 45 71 87c0 47 -37 80 -93 80z" />
    <glyph glyph-name="nine" unicode="9" horiz-adv-x="550" 
d="M374 286l-2 1c-33 -37 -83 -62 -136 -62c-130 0 -210 85 -210 235c0 144 99 230 241 230c182 0 257 -149 257 -310c0 -308 -141 -390 -303 -390c-65 0 -119 10 -175 29v160h124v-63c13 -2 23 -2 38 -2c77 0 167 49 166 172zM361 396c9 81 -4 170 -87 170
c-49 0 -89 -36 -89 -106c0 -47 17 -105 91 -105c35 0 62 18 85 41z" />
    <glyph glyph-name="colon" unicode=":" horiz-adv-x="222" 
d="M36 152h150v-152h-150v152zM36 460h150v-153h-150v153z" />
    <glyph glyph-name="semicolon" unicode=";" horiz-adv-x="222" 
d="M36 460h150v-153h-150v153zM115 -130h-45l27 130h-61v152h150v-152z" />
    <glyph glyph-name="less" unicode="&#x3c;" horiz-adv-x="480" 
d="M36 294l408 205v-133l-249 -116l249 -116v-133l-408 205v88z" />
    <glyph glyph-name="equal" unicode="=" horiz-adv-x="500" 
d="M36 427h428v-124h-428v124zM36 227h428v-124h-428v124z" />
    <glyph glyph-name="greater" unicode="&#x3e;" horiz-adv-x="480" 
d="M36 499l408 -205v-88l-408 -205v133l249 116l-249 116v133z" />
    <glyph glyph-name="question" unicode="?" horiz-adv-x="480" 
d="M26 472v178c59 25 145 40 218 40c170 0 210 -107 210 -186c0 -165 -167 -175 -167 -264v-30h-132v30c0 140 108 161 136 223c5 11 8 22 7 34c-4 46 -51 52 -86 52c-16 0 -37 -3 -62 -9v-68h-124zM146 152h150v-152h-150v152z" />
    <glyph glyph-name="at" unicode="@" horiz-adv-x="810" 
d="M251 441c55 13 115 20 164 20c103 0 159 -23 159 -130v-173c91 0 123 92 123 164c0 149 -120 246 -272 246c-183 0 -311 -128 -311 -315c0 -164 119 -291 284 -291l-9 -82c-216 0 -369 160 -369 373c0 233 171 399 404 399c202 0 366 -132 366 -326
c0 -142 -82 -260 -240 -260h-93v39h-1c-32 -34 -64 -46 -112 -46c-77 0 -118 55 -118 121c0 100 94 123 164 123h67v21c0 33 -23 41 -68 41c-13 0 -27 -1 -43 -4v-36h-95v116zM457 167v68h-60c-33 0 -54 -14 -54 -45c0 -30 25 -42 50 -42c23 0 51 10 64 19z" />
    <glyph glyph-name="A" unicode="A" horiz-adv-x="700" 
d="M147 680h314l172 -556h54v-124h-283v124h56l-22 82h-183l-26 -82h58v-124h-275v124h63l137 432h-65v124zM352 539h-1l-64 -218h124z" />
    <glyph glyph-name="B" unicode="B" horiz-adv-x="630" 
d="M485 354v-2c69 -22 119 -75 119 -164c0 -118 -78 -188 -224 -188h-368v124h54v432h-54v124h348c146 0 224 -62 224 -174c0 -72 -40 -128 -99 -152zM351 287h-126v-163h129c48 0 82 25 82 82c0 55 -34 81 -85 81zM416 484c0 42 -25 72 -74 72h-117v-145h117
c49 0 74 29 74 73z" />
    <glyph glyph-name="C" unicode="C" horiz-adv-x="610" 
d="M461 199h124v-170c-96 -29 -167 -39 -250 -39c-242 0 -309 160 -309 355c0 194 67 345 309 345c83 0 154 -10 250 -39v-170h-124v74c-48 9 -79 11 -113 11c-111 0 -154 -91 -154 -221c0 -140 43 -231 154 -231c34 0 65 1 113 11v74z" />
    <glyph glyph-name="D" unicode="D" horiz-adv-x="660" 
d="M12 680h314c239 0 308 -141 308 -335s-69 -345 -308 -345h-314v124h54v432h-54v124zM225 124h101c116 0 140 91 140 221s-24 211 -140 211h-101v-432z" />
    <glyph glyph-name="E" unicode="E" horiz-adv-x="570" 
d="M12 680h532v-179h-124v55h-195v-144h269v-123h-269v-165h195v55h124v-179h-532v124h54v432h-54v124z" />
    <glyph glyph-name="F" unicode="F" horiz-adv-x="555" 
d="M12 680h522v-179h-124v55h-185v-164h259v-123h-259v-145h54v-124h-267v124h54v432h-54v124z" />
    <glyph glyph-name="G" unicode="G" horiz-adv-x="620" 
d="M194 345c0 -139 46 -223 154 -223c27 0 52 4 78 11v98h-92v124h251v-322c-92 -29 -162 -43 -250 -43c-239 0 -309 161 -309 355s67 345 309 345c83 0 154 -10 250 -39v-170h-124v74c-48 9 -79 11 -113 11c-111 0 -154 -91 -154 -221z" />
    <glyph glyph-name="H" unicode="H" horiz-adv-x="680" 
d="M401 124h54v165h-230v-165h54v-124h-267v124h54v432h-54v124h267v-124h-54v-144h230v144h-54v124h266v-124h-53v-432h53v-124h-266v124z" />
    <glyph glyph-name="I" unicode="I" horiz-adv-x="291" 
d="M12 124h54v432h-54v124h267v-124h-54v-432h54v-124h-267v124z" />
    <glyph glyph-name="J" unicode="J" horiz-adv-x="381" 
d="M102 680h267v-124h-54v-370c0 -139 -75 -196 -190 -196c-46 0 -84 4 -113 9l13 124c19 -3 36 -5 56 -5c38 0 75 11 75 68v370h-54v124z" />
    <glyph glyph-name="K" unicode="K" horiz-adv-x="680" 
d="M12 680h267v-124h-54v-194l186 194h-42v124h288v-124h-56l-170 -168l188 -264h48v-124h-297v124h48l-107 153l-86 -83v-70h54v-124h-267v124h54v432h-54v124z" />
    <glyph glyph-name="L" unicode="L" horiz-adv-x="550" 
d="M411 179h124v-179h-523v124h54v432h-54v124h267v-124h-54v-432h186v55z" />
    <glyph glyph-name="M" unicode="M" horiz-adv-x="840" 
d="M584 680h243v-124h-53v-432h53v-124h-266v124h54v272h-2l-143 -396h-101l-155 396h-2v-272h58v-124h-258v124h54v432h-54v124h248l169 -416h2z" />
    <glyph glyph-name="N" unicode="N" horiz-adv-x="690" 
d="M420 680h257v-124h-53v-556h-163l-247 393h-2v-269h58v-124h-258v124h54v432h-54v124h209l255 -415h2v291h-58v124z" />
    <glyph glyph-name="O" unicode="O" horiz-adv-x="670" 
d="M335 566c-119 0 -141 -91 -141 -221s22 -231 141 -231s141 101 141 231s-22 221 -141 221zM335 -10c-242 0 -309 161 -309 355s67 345 309 345s309 -151 309 -345s-67 -355 -309 -355z" />
    <glyph glyph-name="P" unicode="P" horiz-adv-x="620" 
d="M12 680h349c146 0 233 -80 233 -219c0 -140 -87 -219 -233 -219h-136v-118h54v-124h-267v124h54v432h-54v124zM225 556v-190h119c48 0 87 30 87 95s-39 95 -87 95h-119z" />
    <glyph glyph-name="Q" unicode="Q" horiz-adv-x="670" 
d="M26 345c0 194 67 345 309 345s309 -151 309 -345c0 -178 -76 -285 -203 -298c4 -24 132 -18 184 -13v-142c-148 -17 -270 16 -322 98c-210 14 -277 170 -277 355zM335 566c-119 0 -141 -91 -141 -221s22 -231 141 -231s141 101 141 231s-22 221 -141 221z" />
    <glyph glyph-name="R" unicode="R" horiz-adv-x="650" 
d="M12 680h349c146 0 233 -77 233 -216c0 -90 -44 -162 -119 -189l119 -151h43v-124h-276v124h32l-93 125h-75v-125h54v-124h-267v124h54v432h-54v124zM225 556v-184h117c49 0 89 27 89 92s-39 92 -87 92h-119z" />
    <glyph glyph-name="S" unicode="S" horiz-adv-x="580" 
d="M26 207h124v-67c60 -12 105 -18 140 -18c64 0 96 25 96 65c0 55 -69 68 -151 92c-121 35 -208 101 -208 216c0 140 117 195 254 195c79 0 149 -10 245 -39v-179h-124v73c-52 10 -86 12 -121 12c-55 0 -86 -22 -86 -58c0 -45 59 -68 145 -88c121 -28 214 -87 214 -206
c0 -150 -117 -215 -264 -215c-79 0 -168 10 -264 39v178z" />
    <glyph glyph-name="T" unicode="T" horiz-adv-x="580" 
d="M17 680h545v-179h-123v55h-70v-432h54v-124h-266v124h54v432h-70v-55h-124v179z" />
    <glyph glyph-name="U" unicode="U" horiz-adv-x="680" 
d="M401 680h266v-124h-53v-316c0 -179 -113 -250 -274 -250s-274 71 -274 250v316h-54v124h267v-124h-54v-316c0 -71 26 -126 116 -126c87 0 114 55 114 126v316h-54v124z" />
    <glyph glyph-name="V" unicode="V" horiz-adv-x="690" 
d="M400 680h277v-124h-52l-178 -561h-203l-184 561h-48v124h287v-124h-64l118 -398h1l110 398h-64v124z" />
    <glyph glyph-name="W" unicode="W" horiz-adv-x="980" 
d="M12 680h287v-124h-61l77 -370h1l103 494h168l111 -494h1l70 370h-62v124h260v-124h-44l-131 -561h-212l-89 394h-2l-80 -394h-212l-139 561h-46v124z" />
    <glyph glyph-name="X" unicode="X" horiz-adv-x="700" 
d="M417 680h260v-124h-45l-163 -218l163 -214h55v-124h-316v124h51l-97 140l-95 -140h51v-124h-269v124h53l167 223l-159 209h-51v124h309v-124h-47l94 -132l89 132h-50v124z" />
    <glyph glyph-name="Y" unicode="Y" horiz-adv-x="660" 
d="M409 124h54v-124h-266v124h54v81l-178 351h-61v124h296v-124h-67l101 -205h2l100 205h-65v124h268v-124h-52l-186 -351v-81z" />
    <glyph glyph-name="Z" unicode="Z" horiz-adv-x="560" 
d="M44 680h481v-115l-306 -439v-2h193v55h124v-179h-511v115l310 439v2h-168v-55h-123v179z" />
    <glyph glyph-name="bracketleft" unicode="[" horiz-adv-x="300" 
d="M195 -51h89v-89h-248v960h248v-89h-89v-782z" />
    <glyph glyph-name="backslash" unicode="\" horiz-adv-x="540" 
d="M389 0l-370 680h132l370 -680h-132z" />
    <glyph glyph-name="bracketright" unicode="]" horiz-adv-x="300" 
d="M16 -51h89v782h-89v89h248v-960h-248v89z" />
    <glyph glyph-name="asciicircum" unicode="^" horiz-adv-x="380" 
d="M190 618l-74 -108h-80l109 190h90l109 -190h-80z" />
    <glyph glyph-name="underscore" unicode="_" horiz-adv-x="500" 
d="M36 -60h428v-89h-428v89z" />
    <glyph glyph-name="grave" unicode="`" horiz-adv-x="290" 
d="M129 560l-80 140h142l53 -140h-115z" />
    <glyph glyph-name="a" unicode="a" horiz-adv-x="535" 
d="M176 339h-124v147c73 15 150 24 213 24c131 0 204 -31 204 -169v-217h53v-124h-203v50h-2c-34 -38 -78 -60 -135 -60c-81 0 -161 49 -161 152c0 124 113 163 215 163h83v27c0 45 -32 54 -89 54c-16 0 -33 -1 -54 -4v-43zM319 131v85h-64c-46 0 -84 -7 -84 -56
c0 -39 33 -55 64 -55c33 0 67 13 84 26z" />
    <glyph glyph-name="b" unicode="b" horiz-adv-x="560" 
d="M12 576v124h204v-250h2c30 35 83 60 134 60c140 0 182 -119 182 -260s-50 -260 -190 -260c-48 0 -100 21 -135 56h-2l-26 -46h-169v124h54v452h-54zM375 250c0 77 -18 136 -84 136c-36 0 -61 -15 -75 -25v-222c14 -10 39 -25 75 -25c66 0 84 58 84 136z" />
    <glyph glyph-name="c" unicode="c" horiz-adv-x="482" 
d="M467 339h-123v44c-21 3 -38 3 -54 3c-64 0 -105 -41 -105 -136s41 -136 105 -136c39 0 67 0 151 20l26 -120c-60 -15 -113 -24 -177 -24c-199 0 -264 101 -264 260s65 260 264 260c64 0 117 -9 177 -24v-147z" />
    <glyph glyph-name="d" unicode="d" horiz-adv-x="560" 
d="M290 576v124h204v-576h53v-124h-203v50h-2c-30 -35 -83 -60 -135 -60c-140 0 -181 119 -181 260s50 260 190 260c47 0 96 -21 126 -56h2v122h-54zM185 250c0 -78 18 -136 84 -136c36 0 61 15 75 25v222c-14 10 -39 25 -75 25c-66 0 -84 -59 -84 -136z" />
    <glyph glyph-name="e" unicode="e" horiz-adv-x="530" 
d="M502 216h-317c4 -62 49 -102 128 -102c40 0 88 0 155 20l18 -120c-68 -19 -130 -24 -195 -24c-196 0 -265 101 -265 260s69 260 264 260c158 0 218 -73 218 -209c0 -18 0 -43 -6 -85zM281 395c-59 0 -91 -31 -96 -86h169c1 12 2 15 2 25c0 36 -20 61 -75 61z" />
    <glyph glyph-name="f" unicode="f" horiz-adv-x="344" 
d="M22 0v124h54v270h-64v97l64 9v46c0 98 31 154 164 154c28 0 62 -4 91 -9l-13 -115c-17 3 -32 5 -43 5c-37 0 -49 -9 -49 -45v-36h98v-106h-98v-270h56v-124h-260z" />
    <glyph glyph-name="g" unicode="g" horiz-adv-x="555" 
d="M143 -54c0 -50 60 -54 115 -54c60 0 123 13 123 55c0 21 -17 37 -51 40l-165 10c-12 -15 -22 -24 -22 -51zM265 273c39 0 69 17 69 67c0 51 -30 68 -69 68c-41 0 -70 -17 -70 -68s30 -67 70 -67zM89 17v2c-64 43 -53 131 41 179v2c-50 25 -81 79 -81 140
c0 117 87 170 216 170c26 0 54 -4 74 -10h190v-89h-72v-2c13 -16 19 -38 19 -69c0 -118 -89 -169 -211 -169c-16 0 -39 3 -59 9c-21 -31 -20 -56 12 -58l160 -7c101 -4 161 -54 161 -139c0 -129 -97 -186 -304 -186c-154 0 -220 42 -220 130c0 43 22 72 74 97z" />
    <glyph glyph-name="h" unicode="h" horiz-adv-x="590" 
d="M329 0v124h45v182c0 54 -22 80 -70 80c-33 0 -65 -16 -88 -29v-233h45v-124h-249v124h54v452h-54v124h204v-263h2c41 46 93 73 156 73c100 0 150 -68 150 -169v-217h53v-124h-248z" />
    <glyph glyph-name="i" unicode="i" horiz-adv-x="282" 
d="M12 376v124h204v-376h54v-124h-258v124h54v252h-54zM66 700h150v-144h-150v144z" />
    <glyph glyph-name="j" unicode="j" horiz-adv-x="262" 
d="M12 376v124h214v-556c0 -98 -31 -154 -164 -154c-28 0 -62 4 -91 9l14 115c16 -3 31 -5 42 -5c37 0 49 9 49 46v421h-64zM76 700h150v-144h-150v144z" />
    <glyph glyph-name="k" unicode="k" horiz-adv-x="600" 
d="M12 576v124h204v-427l138 103h-37v124h260v-124h-55l-97 -72l123 -180h39v-124h-260v124h32l-61 98l-82 -63v-35h54v-124h-258v124h54v452h-54z" />
    <glyph glyph-name="l" unicode="l" horiz-adv-x="282" 
d="M12 576v124h204v-576h54v-124h-258v124h54v452h-54z" />
    <glyph glyph-name="m" unicode="m" horiz-adv-x="890" 
d="M325 0v124h45v188c-3 50 -27 74 -70 74c-32 0 -61 -16 -84 -29v-233h45v-124h-249v124h54v252h-54v124h204v-63h2c30 35 68 61 114 69c15 2 29 4 45 3c62 -1 105 -31 125 -79c54 60 109 80 172 80c100 0 150 -68 150 -169v-217h53v-124h-248v124h45v182
c0 54 -26 80 -70 80c-32 0 -62 -16 -85 -30c1 -14 1 -28 1 -43v-189h45v-124h-240z" />
    <glyph glyph-name="n" unicode="n" horiz-adv-x="590" 
d="M329 0v124h45v182c0 54 -22 80 -70 80c-33 0 -65 -16 -88 -29v-233h45v-124h-249v124h54v252h-54v124h204v-63h2c41 46 93 73 156 73c100 0 150 -68 150 -169v-217h53v-124h-248z" />
    <glyph glyph-name="o" unicode="o" horiz-adv-x="550" 
d="M275 386c-70 0 -90 -50 -90 -136s20 -136 90 -136s90 50 90 136s-20 136 -90 136zM275 -10c-181 0 -249 101 -249 260s68 260 249 260s249 -101 249 -260s-68 -260 -249 -260z" />
    <glyph glyph-name="p" unicode="p" horiz-adv-x="560" 
d="M12 376v124h204v-50h2c30 35 83 60 134 60c140 0 182 -119 182 -260s-50 -260 -190 -260c-48 0 -96 21 -126 56h-2v-122h54v-124h-258v124h54v452h-54zM375 250c0 77 -18 136 -84 136c-36 0 -61 -15 -75 -25v-222c14 -10 39 -25 75 -25c66 0 84 58 84 136z" />
    <glyph glyph-name="q" unicode="q" horiz-adv-x="530" 
d="M290 -200v124h54v126h-2c-30 -35 -83 -60 -135 -60c-140 0 -181 119 -181 260s50 260 190 260c47 0 100 -21 134 -56h2l27 50h115v-580h53v-124h-257zM185 250c0 -78 18 -136 84 -136c36 0 61 15 75 25v222c-14 10 -39 25 -75 25c-66 0 -84 -59 -84 -136z" />
    <glyph glyph-name="r" unicode="r" horiz-adv-x="400" 
d="M12 376v124h204v-80h2c28 45 86 90 166 90v-141c-64 0 -128 -11 -168 -30v-215h56v-124h-260v124h54v252h-54z" />
    <glyph glyph-name="s" unicode="s" horiz-adv-x="480" 
d="M441 339h-124v45c-33 6 -62 7 -82 7c-45 0 -63 -15 -63 -32c0 -19 17 -26 68 -38c90 -20 219 -42 219 -165c0 -115 -81 -166 -204 -166c-83 0 -174 9 -234 24v147h124v-45c37 -6 70 -7 92 -7c50 0 72 18 72 36c0 21 -29 27 -73 35c-117 20 -214 59 -214 175
c0 114 81 155 204 155c83 0 155 -9 215 -24v-147z" />
    <glyph glyph-name="t" unicode="t" horiz-adv-x="375" 
d="M76 142v252h-64v97l64 9l18 140h132v-140h118v-106h-118v-226c0 -38 20 -59 66 -59c12 0 27 2 43 5l14 -115c-29 -5 -81 -9 -109 -9c-119 0 -164 50 -164 152z" />
    <glyph glyph-name="u" unicode="u" horiz-adv-x="590" 
d="M12 376v124h204v-306c0 -54 26 -80 70 -80c33 0 65 16 88 29v233h-58v124h208v-376h53v-124h-203v62h-2c-41 -45 -93 -72 -156 -72c-100 0 -150 67 -150 169v217h-54z" />
    <glyph glyph-name="v" unicode="v" horiz-adv-x="578" 
d="M337 376v124h229v-124h-34l-151 -381h-181l-149 381h-39v124h254v-124h-48l86 -232h2l77 232h-46z" />
    <glyph glyph-name="w" unicode="w" horiz-adv-x="808" 
d="M567 376v124h229v-124h-38l-113 -381h-161l-80 250h-2l-68 -250h-161l-125 381h-36v124h254v-124h-57l59 -214h2l84 338h124l90 -347h2l43 223h-46z" />
    <glyph glyph-name="x" unicode="x" horiz-adv-x="607" 
d="M375 376v124h210v-124h-33l-137 -131l130 -121h50v-124h-291v124h35l-75 70l-71 -70h38v-124h-219v124h39l137 139l-123 113h-43v124h283v-124h-35l71 -67l67 67h-33z" />
    <glyph glyph-name="y" unicode="y" horiz-adv-x="578" 
d="M337 376v124h229v-124h-34l-161 -383c-45 -107 -113 -203 -230 -203c-27 0 -68 4 -95 9l13 120c15 -3 38 -5 49 -5c42 0 84 22 101 75l-157 387h-40v124h254v-124h-48l87 -242h2l76 242h-46z" />
    <glyph glyph-name="z" unicode="z" horiz-adv-x="470" 
d="M24 500h418v-115l-242 -268v-2h132v46h124v-161h-442v115l247 268v2h-114v-46h-123v161z" />
    <glyph glyph-name="braceleft" unicode="{" horiz-adv-x="340" 
d="M255 17c0 -94 27 -95 69 -95v-62c-121 0 -228 5 -228 146c0 61 10 130 10 189c0 64 0 99 -70 109v72c70 10 70 45 70 109c0 59 -10 128 -10 189c0 140 107 146 228 146v-63c-42 0 -69 0 -69 -95c0 -61 13 -141 13 -203c0 -79 -45 -102 -105 -118v-2
c60 -16 105 -39 105 -118c0 -62 -13 -143 -13 -204z" />
    <glyph glyph-name="bar" unicode="|" horiz-adv-x="170" 
d="M134 -100h-98v880h98v-880z" />
    <glyph glyph-name="braceright" unicode="}" horiz-adv-x="340" 
d="M85 662c0 95 -27 95 -69 95v63c120 0 228 -6 228 -146c0 -61 -10 -130 -10 -189c0 -64 0 -99 70 -109v-72c-70 -10 -70 -45 -70 -109c0 -59 10 -128 10 -189c0 -141 -108 -146 -228 -146v62c42 0 69 1 69 95c0 61 -14 142 -14 204c0 79 46 102 106 118v2
c-60 16 -106 39 -106 118c0 62 14 142 14 203z" />
    <glyph glyph-name="asciitilde" unicode="~" horiz-adv-x="460" 
d="M146 294c-19 0 -37 -7 -67 -39l-46 36c32 76 74 105 109 105c50 0 149 -40 183 -40c18 0 36 -2 65 30l37 -45c-25 -52 -53 -75 -83 -81c-7 -2 -15 -2 -22 -2c-39 2 -139 36 -176 36z" />
    <glyph glyph-name="Euro" unicode="&#x20ac;" horiz-adv-x="650" 
d="M14 301h53c-1 14 -1 29 -1 44v34h-52v71h60c24 141 105 240 301 240c83 0 154 -10 250 -39v-170h-124v74c-48 9 -79 11 -113 11c-79 0 -121 -46 -141 -116h139v-71h-151c-1 -12 -1 -23 -1 -34c0 -15 0 -30 1 -44h151v-71h-138c20 -71 63 -116 140 -116c34 0 65 1 113 11
v74h124v-170c-96 -29 -167 -39 -250 -39c-192 0 -274 100 -299 240h-62v71z" />
    <glyph glyph-name="quotesinglbase" unicode="&#x201a;" horiz-adv-x="222" 
d="M115 -130h-45l27 130h-61v152h150v-152z" />
    <glyph glyph-name="florin" unicode="&#x192;" horiz-adv-x="460" 
d="M151 -32v426h-64v97l64 9v48c0 102 45 152 164 152c28 0 62 -4 91 -9l-13 -115c-17 3 -32 5 -43 5c-38 0 -49 -21 -49 -59v-22h100v-106h-100v-427c0 -103 -31 -177 -164 -177c-28 0 -62 4 -91 9l14 115c16 -3 31 -5 42 -5c38 0 49 21 49 59z" />
    <glyph glyph-name="quotedblbase" unicode="&#x201e;" horiz-adv-x="442" 
d="M115 -130h-45l27 130h-61v152h150v-152zM335 -130h-45l27 130h-61v152h150v-152z" />
    <glyph glyph-name="ellipsis" unicode="&#x2026;" horiz-adv-x="662" 
d="M56 152h150v-152h-150v152zM256 152h150v-152h-150v152zM456 152h150v-152h-150v152z" />
    <glyph glyph-name="dagger" unicode="&#x2020;" horiz-adv-x="580" 
d="M544 359l-183 8l8 -367h-158l8 367l-183 -8v141l183 -9l-8 209h158l-8 -209l183 9v-141z" />
    <glyph glyph-name="daggerdbl" unicode="&#x2021;" horiz-adv-x="580" 
d="M219 292v115l-183 -8v141l183 -9l-8 169h158l-8 -169l183 9v-141l-183 8v-115l183 9v-141l-183 9l8 -169h-158l8 169l-183 -9v141z" />
    <glyph glyph-name="circumflex" unicode="&#x2c6;" horiz-adv-x="420" 
d="M210 615l-45 -55h-89l89 137h90l89 -137h-89z" />
    <glyph glyph-name="perthousand" unicode="&#x2030;" horiz-adv-x="1110" 
d="M614 680l-370 -680h-98l370 680h98zM180 385c-95 0 -146 58 -146 151s51 150 146 150c96 0 147 -57 147 -150s-51 -151 -147 -151zM180 460c35 0 54 25 54 76s-19 76 -54 76s-53 -25 -53 -76s18 -76 53 -76zM580 -6c-96 0 -147 57 -147 150s51 150 147 150
c95 0 146 -57 146 -150s-51 -150 -146 -150zM580 68c34 0 53 25 53 76s-19 76 -53 76c-35 0 -54 -25 -54 -76s19 -76 54 -76zM930 -6c-96 0 -147 57 -147 150s51 150 147 150c95 0 146 -57 146 -150s-51 -150 -146 -150zM930 68c34 0 53 25 53 76s-19 76 -53 76
c-35 0 -54 -25 -54 -76s19 -76 54 -76z" />
    <glyph glyph-name="Scaron" unicode="&#x160;" horiz-adv-x="580" 
d="M245 867l45 -55l45 55h89l-89 -137h-90l-89 137h89zM26 207h124v-67c60 -12 105 -18 140 -18c64 0 96 25 96 65c0 55 -69 68 -151 92c-121 35 -208 101 -208 216c0 140 117 195 254 195c79 0 149 -10 245 -39v-179h-124v73c-52 10 -86 12 -121 12c-55 0 -86 -22 -86 -58
c0 -45 59 -68 145 -88c121 -28 214 -87 214 -206c0 -150 -117 -215 -264 -215c-79 0 -168 10 -264 39v178z" />
    <glyph glyph-name="guilsinglleft" unicode="&#x2039;" horiz-adv-x="380" 
d="M36 294l308 201v-159l-149 -86l149 -86v-159l-308 201v88z" />
    <glyph glyph-name="OE" unicode="&#x152;" horiz-adv-x="989" 
d="M335 566c-119 0 -141 -91 -141 -221s22 -231 141 -231s141 101 141 232c0 130 -22 220 -141 220zM962 0h-511v26c-28 -21 -65 -36 -116 -36c-243 0 -309 160 -309 355c0 194 67 345 309 345c53 0 90 -15 118 -36v26h509v-179h-123v55h-195v-144h268v-123h-268v-165h195
v55h123v-179z" />
    <glyph glyph-name="Zcaron" unicode="&#x17d;" horiz-adv-x="560" 
d="M244 867l45 -55l45 55h89l-89 -137h-90l-89 137h89zM44 680h481v-115l-306 -439v-2h193v55h124v-179h-511v115l310 439v2h-168v-55h-123v179z" />
    <glyph glyph-name="quoteleft" unicode="&#x2018;" horiz-adv-x="222" 
d="M107 680h45l-27 -130h61v-153h-150v153z" />
    <glyph glyph-name="quoteright" unicode="&#x2019;" horiz-adv-x="222" 
d="M115 397h-45l27 130h-61v153h150v-153z" />
    <glyph glyph-name="quotedblleft" unicode="&#x201c;" horiz-adv-x="442" 
d="M327 680h45l-27 -130h61v-153h-150v153zM107 680h45l-27 -130h61v-153h-150v153z" />
    <glyph glyph-name="quotedblright" unicode="&#x201d;" horiz-adv-x="442" 
d="M115 397h-45l27 130h-61v153h150v-153zM335 397h-45l27 130h-61v153h150v-153z" />
    <glyph glyph-name="bullet" unicode="&#x2022;" horiz-adv-x="230" 
d="M36 326h150v-152h-150v152z" />
    <glyph glyph-name="endash" unicode="&#x2013;" horiz-adv-x="600" 
d="M36 327h528v-124h-528v124z" />
    <glyph glyph-name="emdash" unicode="&#x2014;" horiz-adv-x="700" 
d="M36 327h628v-124h-628v124z" />
    <glyph glyph-name="tilde" unicode="&#x2dc;" horiz-adv-x="450" 
d="M166 585c-20 0 -37 -6 -67 -38l-46 53c32 76 74 96 109 96c50 0 99 -40 133 -40c18 0 36 7 65 39l37 -63c-18 -38 -50 -83 -102 -83c-38 0 -91 36 -129 36z" />
    <glyph glyph-name="trademark" unicode="&#x2122;" horiz-adv-x="800" 
d="M9 680h311v-102h-73v23h-38v-191h34v-74h-156v74h34v191h-38v-23h-74v102zM632 680h158v-74h-33v-196h33v-74h-156v74h29v127h-1l-73 -201h-63l-76 201h-1v-127h31v-74h-145v74h33v196h-33v74h159l72 -195z" />
    <glyph glyph-name="scaron" unicode="&#x161;" horiz-adv-x="480" 
d="M441 339h-124v45c-33 6 -62 7 -82 7c-45 0 -63 -15 -63 -32c0 -19 17 -26 68 -38c90 -20 219 -42 219 -165c0 -115 -81 -166 -204 -166c-83 0 -174 9 -234 24v147h124v-45c37 -6 70 -7 92 -7c50 0 72 18 72 36c0 21 -29 27 -73 35c-117 20 -214 59 -214 175
c0 114 81 155 204 155c83 0 155 -9 215 -24v-147zM204 697l45 -55l45 55h89l-89 -137h-90l-89 137h89z" />
    <glyph glyph-name="guilsinglright" unicode="&#x203a;" horiz-adv-x="380" 
d="M36 495l308 -201v-88l-308 -201v159l149 86l-149 86v159z" />
    <glyph glyph-name="oe" unicode="&#x153;" horiz-adv-x="870" 
d="M275 386c-70 0 -90 -50 -90 -136s20 -136 90 -136s90 49 90 136c0 86 -20 136 -90 136zM529 309h165c1 12 1 15 1 25c0 36 -20 61 -74 61c-59 0 -87 -31 -92 -86zM842 216h-313c4 -62 45 -102 124 -102c40 0 88 0 155 20l18 -120c-68 -19 -130 -24 -195 -24
c-87 0 -146 23 -185 61c-37 -38 -92 -61 -171 -61c-181 0 -249 101 -249 260s68 260 249 260c79 0 134 -24 171 -62c39 39 98 62 184 62c158 0 218 -73 218 -209c0 -18 0 -43 -6 -85z" />
    <glyph glyph-name="zcaron" unicode="&#x17e;" horiz-adv-x="470" 
d="M24 500h418v-115l-242 -268v-2h132v46h124v-161h-442v115l247 268v2h-114v-46h-123v161zM207 697l45 -55l45 55h89l-89 -137h-90l-89 137h89z" />
    <glyph glyph-name="Ydieresis" unicode="&#x178;" horiz-adv-x="660" 
d="M196 837h106v-105h-106v105zM384 837h106v-105h-106v105zM409 124h54v-124h-266v124h54v81l-178 351h-61v124h296v-124h-67l101 -205h2l100 205h-65v124h268v-124h-52l-186 -351v-81z" />
    <glyph glyph-name="exclamdown" unicode="&#xa1;" horiz-adv-x="222" 
d="M186 347h-150v153h150v-153zM186 -200h-150l9 480h132z" />
    <glyph glyph-name="cent" unicode="&#xa2;" horiz-adv-x="510" 
d="M344 -100h-62v91c-152 6 -246 106 -246 259c0 152 94 253 246 259v91h62v-93c45 -3 83 -15 133 -36l-17 -115c-47 17 -82 26 -116 28v-269c34 2 69 11 116 29l17 -115c-50 -22 -88 -33 -133 -36v-93zM195 250c0 -78 35 -122 87 -133v265c-52 -10 -87 -55 -87 -132z" />
    <glyph glyph-name="sterling" unicode="&#xa3;" horiz-adv-x="580" 
d="M424 305h-208v-173h216v47h124v-179h-540v132h50v173h-50v71h50v119c0 140 108 195 245 195c81 0 151 -11 245 -41v-177h-124v71c-49 11 -86 14 -121 14c-64 0 -95 -26 -95 -73v-108h208v-71z" />
    <glyph glyph-name="currency" unicode="&#xa4;" horiz-adv-x="513" 
d="M100 249c0 45 18 85 48 114l-78 90l8 8l79 -90c27 22 62 36 100 36c37 0 72 -14 99 -36l78 90l9 -8l-78 -89c31 -29 50 -70 50 -115s-19 -86 -49 -114l76 -86l-9 -9l-77 87c-27 -22 -62 -35 -99 -35c-38 0 -73 13 -100 35l-76 -87l-9 9l76 86c-30 29 -48 69 -48 114z
M112 249c0 -79 66 -145 145 -145s146 66 146 145s-67 146 -146 146s-145 -67 -145 -146z" />
    <glyph glyph-name="yen" unicode="&#xa5;" horiz-adv-x="660" 
d="M409 124h54v-124h-266v124h54v76h-155v71h119l-151 285h-52v124h296v-124h-58l92 -187h2l91 187h-56v124h268v-124h-52l-151 -285h120v-71h-155v-76z" />
    <glyph glyph-name="brokenbar" unicode="&#xa6;" horiz-adv-x="170" 
d="M134 380h-98v400h98v-400zM134 -100h-98v400h98v-400z" />
    <glyph glyph-name="section" unicode="&#xa7;" horiz-adv-x="600" 
d="M564 355c0 -73 -30 -125 -77 -159c43 -37 68 -86 68 -151c0 -140 -116 -195 -254 -195c-98 0 -186 29 -245 67l62 124c70 -35 131 -50 183 -50c64 0 86 22 86 54c0 50 -84 69 -145 84c-121 29 -205 86 -205 206c0 72 29 124 77 159c-43 36 -68 86 -68 151
c0 140 116 195 254 195c98 0 186 -29 245 -68l-62 -123c-70 35 -131 50 -183 50c-64 0 -86 -23 -86 -54c0 -50 84 -69 145 -84c121 -29 205 -87 205 -206zM262 423c-8 -2 -16 -4 -24 -7c-22 -17 -33 -43 -33 -72c0 -41 48 -57 91 -68c18 -4 37 -9 56 -15c26 18 44 49 44 85
c0 50 -79 64 -134 77z" />
    <glyph glyph-name="dieresis" unicode="&#xa8;" horiz-adv-x="480" 
d="M93 687h106v-105h-106v105zM281 687h106v-105h-106v105z" />
    <glyph glyph-name="copyright" unicode="&#xa9;" horiz-adv-x="765" 
d="M30 340c0 195 157 350 352 350s353 -155 353 -350s-158 -350 -353 -350s-352 155 -352 350zM97 340c0 -158 127 -288 285 -288c157 0 286 130 286 288c0 157 -129 283 -286 283c-158 0 -285 -126 -285 -283zM393 438c-52 0 -87 -25 -87 -94c0 -74 35 -104 87 -104
c21 0 59 6 95 30l32 -66c-27 -20 -70 -42 -133 -42c-108 0 -177 64 -177 182c0 112 69 172 177 172c63 0 106 -22 133 -42l-32 -67c-36 24 -74 31 -95 31z" />
    <glyph glyph-name="ordfeminine" unicode="&#xaa;" horiz-adv-x="277" 
d="M92 598h-64v74c37 8 76 13 108 13c66 0 103 -16 103 -84v-106h26v-65h-105v25h-1c-16 -17 -31 -26 -51 -28c-7 -1 -14 -2 -22 -2c-39 1 -63 25 -70 56c-2 8 -3 16 -3 25c1 63 62 77 104 77h43v13c0 21 -15 24 -42 24c-8 0 -16 0 -26 -1v-21zM160 497v40h-29
c-22 0 -40 -2 -40 -27c0 -18 16 -26 30 -26c15 0 31 6 39 13z" />
    <glyph glyph-name="guillemotleft" unicode="&#xab;" horiz-adv-x="717" 
d="M71 294l281 201v-141l-122 -104l122 -104v-141l-281 201v88zM365 294l281 201v-141l-122 -104l122 -104v-141l-281 201v88z" />
    <glyph glyph-name="logicalnot" unicode="&#xac;" horiz-adv-x="590" 
d="M56 327h478v-226h-124v102h-354v124z" />
    <glyph glyph-name="uni00AD" unicode="&#xad;" horiz-adv-x="540" 
d="M56 327h428v-124h-428v124z" />
    <glyph glyph-name="registered" unicode="&#xae;" horiz-adv-x="765" 
d="M548 168h-110l-63 100h-41v-100h-89v344h145c88 0 144 -42 144 -121c0 -55 -26 -92 -66 -108zM334 433v-86h56c29 0 52 9 52 44c0 32 -23 42 -52 42h-56zM30 340c0 195 157 350 352 350s353 -155 353 -350s-158 -350 -353 -350s-352 155 -352 350zM97 340
c0 -158 127 -288 285 -288c157 0 286 130 286 288c0 157 -129 283 -286 283c-158 0 -285 -126 -285 -283z" />
    <glyph glyph-name="macron" unicode="&#xaf;" horiz-adv-x="380" 
d="M54 672h272v-106h-272v106z" />
    <glyph glyph-name="degree" unicode="&#xb0;" horiz-adv-x="260" 
d="M32 580c0 54 44 98 98 98s98 -44 98 -98s-44 -98 -98 -98s-98 44 -98 98zM87 580c0 -24 19 -43 43 -43s43 19 43 43s-19 43 -43 43s-43 -19 -43 -43z" />
    <glyph glyph-name="plusminus" unicode="&#xb1;" horiz-adv-x="500" 
d="M36 134h152v82h-152v124h152v152h124v-152h152v-124h-152v-82h152v-124h-428v124z" />
    <glyph glyph-name="twosuperior" unicode="&#xb2;" horiz-adv-x="275" 
d="M199 631h64v-91h-251v74c125 77 154 115 154 151c0 43 -34 49 -54 49c-12 0 -22 -1 -35 -5v-21h-65v72c44 18 74 25 118 25c80 0 118 -45 118 -104c0 -70 -50 -119 -125 -171v-1h76v22z" />
    <glyph glyph-name="threesuperior" unicode="&#xb3;" horiz-adv-x="271" 
d="M12 560v72h65v-27c16 -4 33 -5 49 -5c38 0 52 20 52 39c0 28 -20 39 -57 39h-47v64h43c47 0 54 24 54 44c0 19 -15 34 -45 34c-17 0 -30 -2 -46 -6v-26h-65v72c45 20 86 25 125 25c58 0 109 -30 109 -91c0 -35 -20 -60 -56 -75v-1c46 -13 66 -48 66 -84
c0 -64 -49 -99 -128 -99c-44 0 -75 5 -119 25z" />
    <glyph glyph-name="acute" unicode="&#xb4;" horiz-adv-x="290" 
d="M240 700l-79 -140h-115l52 140h142z" />
    <glyph glyph-name="mu" unicode="&#xb5;" horiz-adv-x="590" 
d="M12 376v124h204v-306c0 -54 26 -80 70 -80c33 0 65 16 88 29v233h-58v124h208v-376h53v-124h-203v62h-2c-22 -23 -49 -42 -77 -53c-28 -10 -55 -13 -79 -7v-29c0 -105 -28 -181 -158 -183c-11 0 -21 0 -33 1c-20 2 -43 4 -64 8l14 115c16 -3 31 -5 42 -5
c38 0 49 21 49 59v408h-54z" />
    <glyph glyph-name="paragraph" unicode="&#xb6;" horiz-adv-x="565" 
d="M384 1v625h-61v-331h-92c-120 0 -201 78 -201 193c0 120 81 192 201 192h298v-54h-82v-572h82v-54h-110v1h-35z" />
    <glyph glyph-name="periodcentered" unicode="&#xb7;" horiz-adv-x="222" 
d="M36 326h150v-152h-150v152z" />
    <glyph glyph-name="cedilla" unicode="&#xb8;" horiz-adv-x="294" 
d="M104 -79v79h80v-43c23 -3 66 -27 66 -79c0 -50 -47 -83 -114 -83c-24 0 -48 4 -75 12l8 55c16 -3 26 -5 41 -5c29 0 40 10 40 26c0 20 -19 33 -46 38z" />
    <glyph glyph-name="onesuperior" unicode="&#xb9;" horiz-adv-x="207" 
d="M143 605h51v-65h-181v65h52v202l-52 -1v55l93 22h37v-278z" />
    <glyph glyph-name="ordmasculine" unicode="&#xba;" horiz-adv-x="276" 
d="M138 620c-33 0 -43 -23 -43 -65s10 -65 43 -65s43 23 43 65s-10 65 -43 65zM138 425c-91 0 -126 51 -126 130s35 130 126 130s125 -51 125 -130s-34 -130 -125 -130z" />
    <glyph glyph-name="guillemotright" unicode="&#xbb;" horiz-adv-x="717" 
d="M365 495l281 -201v-88l-281 -201v141l122 104l-122 104v141zM71 495l281 -201v-88l-281 -201v141l123 104l-123 104v141z" />
    <glyph glyph-name="onequarter" unicode="&#xbc;" horiz-adv-x="800" 
d="M626 680l-370 -680h-45l370 680h45zM193 405h51v-65h-181v65h52v202l-52 -1v55l93 22h37v-278zM547 156h71v103h-1c-25 -43 -42 -68 -70 -103zM618 65v26h-151v65c55 60 98 107 133 187h96v-187h41v-65h-41v-26h26v-65h-130v65h26z" />
    <glyph glyph-name="onehalf" unicode="&#xbd;" horiz-adv-x="800" 
d="M589 680l-370 -680h-45l370 680h45zM193 405h51v-65h-181v65h52v202l-52 -1v55l93 22h37v-278zM674 91h63v-91h-250v74c125 77 154 115 154 151c0 43 -34 49 -54 49c-12 0 -22 -1 -35 -5v-21h-65v72c44 18 74 25 118 25c80 0 118 -45 118 -104c0 -70 -50 -119 -125 -171
v-1h76v22z" />
    <glyph glyph-name="threequarters" unicode="&#xbe;" horiz-adv-x="800" 
d="M636 680l-370 -680h-45l370 680h45zM62 360v72h65v-27c16 -4 33 -5 49 -5c38 0 52 20 52 39c0 28 -20 39 -57 39h-47v64h43c47 0 54 24 54 44c0 19 -15 34 -45 34c-17 0 -30 -2 -46 -6v-26h-65v72c45 20 86 25 125 25c58 0 109 -30 109 -91c0 -35 -20 -60 -56 -75v-1
c46 -13 66 -48 66 -84c0 -64 -49 -99 -128 -99c-44 0 -75 5 -119 25zM547 156h71v103h-1c-25 -43 -42 -68 -70 -103zM618 65v26h-151v65c55 60 98 107 133 187h96v-187h41v-65h-41v-26h26v-65h-130v65h26z" />
    <glyph glyph-name="questiondown" unicode="&#xbf;" horiz-adv-x="500" 
d="M464 27v-177c-59 -25 -145 -40 -218 -40c-170 0 -210 107 -210 186c0 165 166 175 166 264v30h133v-30c0 -164 -144 -167 -144 -248c0 -55 50 -61 86 -61c17 0 38 3 63 9v67h124zM344 347h-150v153h150v-153z" />
    <glyph glyph-name="Agrave" unicode="&#xc0;" horiz-adv-x="700" 
d="M270 730l-80 140h142l53 -140h-115zM147 680h314l172 -556h54v-124h-283v124h56l-22 82h-183l-26 -82h58v-124h-275v124h63l137 432h-65v124zM352 539h-1l-64 -218h124z" />
    <glyph glyph-name="Aacute" unicode="&#xc1;" horiz-adv-x="700" 
d="M507 870l-79 -140h-115l52 140h142zM147 680h314l172 -556h54v-124h-283v124h56l-22 82h-183l-26 -82h58v-124h-275v124h63l137 432h-65v124zM352 539h-1l-64 -218h124z" />
    <glyph glyph-name="Acircumflex" unicode="&#xc2;" horiz-adv-x="700" 
d="M343 785l-45 -55h-89l89 137h90l89 -137h-89zM147 680h314l172 -556h54v-124h-283v124h56l-22 82h-183l-26 -82h58v-124h-275v124h63l137 432h-65v124zM352 539h-1l-64 -218h124z" />
    <glyph glyph-name="Atilde" unicode="&#xc3;" horiz-adv-x="700" 
d="M284 755c-20 0 -37 -6 -67 -38l-46 53c32 76 74 96 109 96c50 0 99 -40 133 -40c18 0 36 7 65 39l37 -63c-18 -38 -50 -83 -102 -83c-38 0 -91 36 -129 36zM147 680h314l172 -556h54v-124h-283v124h56l-22 82h-183l-26 -82h58v-124h-275v124h63l137 432h-65v124zM352 539
h-1l-64 -218h124z" />
    <glyph glyph-name="Adieresis" unicode="&#xc4;" horiz-adv-x="700" 
d="M202 837h106v-105h-106v105zM390 837h106v-105h-106v105zM147 680h314l172 -556h54v-124h-283v124h56l-22 82h-183l-26 -82h58v-124h-275v124h63l137 432h-65v124zM352 539h-1l-64 -218h124z" />
    <glyph glyph-name="Aring" unicode="&#xc5;" horiz-adv-x="700" 
d="M245 820c0 54 44 98 98 98s98 -44 98 -98s-44 -98 -98 -98s-98 44 -98 98zM300 820c0 -24 19 -43 43 -43s43 19 43 43s-19 43 -43 43s-43 -19 -43 -43zM147 680h314l172 -556h54v-124h-283v124h56l-22 82h-183l-26 -82h58v-124h-275v124h63l137 432h-65v124zM352 539h-1
l-64 -218h124z" />
    <glyph glyph-name="AE" unicode="&#xc6;" horiz-adv-x="916" 
d="M277 556h-66v124h679v-179h-124v55h-195v-144h269v-123h-269v-165h195v55h124v-179h-478v162h-167l-70 -162h-165v124h62zM410 538l-112 -252h114v252h-2z" />
    <glyph glyph-name="Ccedilla" unicode="&#xc7;" horiz-adv-x="610" 
d="M461 199h124v-170c-77 -23 -138 -34 -201 -37v-35c23 -3 66 -27 66 -79c0 -50 -47 -83 -114 -83c-24 0 -48 4 -75 12l8 55c16 -3 26 -5 41 -5c29 0 40 10 40 26c0 20 -19 33 -46 38v70c-217 13 -278 167 -278 354c0 194 67 345 309 345c83 0 154 -10 250 -39v-170h-124
v74c-48 9 -79 11 -113 11c-111 0 -154 -91 -154 -221c0 -140 43 -231 154 -231c34 0 65 1 113 11v74z" />
    <glyph glyph-name="Egrave" unicode="&#xc8;" horiz-adv-x="570" 
d="M253 730l-80 140h142l53 -140h-115zM12 680h532v-179h-124v55h-195v-144h269v-123h-269v-165h195v55h124v-179h-532v124h54v432h-54v124z" />
    <glyph glyph-name="Eacute" unicode="&#xc9;" horiz-adv-x="570" 
d="M436 870l-79 -140h-115l52 140h142zM12 680h532v-179h-124v55h-195v-144h269v-123h-269v-165h195v55h124v-179h-532v124h54v432h-54v124z" />
    <glyph glyph-name="Ecircumflex" unicode="&#xca;" horiz-adv-x="570" 
d="M313 785l-45 -55h-89l89 137h90l89 -137h-89zM12 680h532v-179h-124v55h-195v-144h269v-123h-269v-165h195v55h124v-179h-532v124h54v432h-54v124z" />
    <glyph glyph-name="Edieresis" unicode="&#xcb;" horiz-adv-x="570" 
d="M153 837h106v-105h-106v105zM341 837h106v-105h-106v105zM12 680h532v-179h-124v55h-195v-144h269v-123h-269v-165h195v55h124v-179h-532v124h54v432h-54v124z" />
    <glyph glyph-name="Igrave" unicode="&#xcc;" horiz-adv-x="291" 
d="M88 730l-80 140h142l53 -140h-115zM12 124h54v432h-54v124h267v-124h-54v-432h54v-124h-267v124z" />
    <glyph glyph-name="Iacute" unicode="&#xcd;" horiz-adv-x="291" 
d="M282 870l-79 -140h-115l52 140h142zM12 124h54v432h-54v124h267v-124h-54v-432h54v-124h-267v124z" />
    <glyph glyph-name="Icircumflex" unicode="&#xce;" horiz-adv-x="291" 
d="M146 785l-45 -55h-89l89 137h90l89 -137h-89zM12 124h54v432h-54v124h267v-124h-54v-432h54v-124h-267v124z" />
    <glyph glyph-name="Idieresis" unicode="&#xcf;" horiz-adv-x="291" 
d="M-1 837h106v-105h-106v105zM187 837h106v-105h-106v105zM12 124h54v432h-54v124h267v-124h-54v-432h54v-124h-267v124z" />
    <glyph glyph-name="Eth" unicode="&#xd0;" horiz-adv-x="660" 
d="M12 680h314c239 0 308 -141 308 -335s-69 -345 -308 -345h-314v124h54v177h-54v88h54v167h-54v124zM225 124h101c116 0 140 91 140 221s-24 211 -140 211h-101v-167h101v-88h-101v-177z" />
    <glyph glyph-name="Ntilde" unicode="&#xd1;" horiz-adv-x="690" 
d="M295 755c-20 0 -37 -6 -67 -38l-46 53c32 76 74 96 109 96c50 0 99 -40 133 -40c18 0 36 7 65 39l37 -63c-18 -38 -50 -83 -102 -83c-38 0 -91 36 -129 36zM420 680h257v-124h-53v-556h-163l-247 393h-2v-269h58v-124h-258v124h54v432h-54v124h209l255 -415h2v291h-58
v124z" />
    <glyph glyph-name="Ograve" unicode="&#xd2;" horiz-adv-x="670" 
d="M289 730l-80 140h142l53 -140h-115zM335 566c-119 0 -141 -91 -141 -221s22 -231 141 -231s141 101 141 231s-22 221 -141 221zM335 -10c-242 0 -309 161 -309 355s67 345 309 345s309 -151 309 -345s-67 -355 -309 -355z" />
    <glyph glyph-name="Oacute" unicode="&#xd3;" horiz-adv-x="670" 
d="M477 870l-79 -140h-115l52 140h142zM335 566c-119 0 -141 -91 -141 -221s22 -231 141 -231s141 101 141 231s-22 221 -141 221zM335 -10c-242 0 -309 161 -309 355s67 345 309 345s309 -151 309 -345s-67 -355 -309 -355z" />
    <glyph glyph-name="Ocircumflex" unicode="&#xd4;" horiz-adv-x="670" 
d="M336 785l-45 -55h-89l89 137h90l89 -137h-89zM335 566c-119 0 -141 -91 -141 -221s22 -231 141 -231s141 101 141 231s-22 221 -141 221zM335 -10c-242 0 -309 161 -309 355s67 345 309 345s309 -151 309 -345s-67 -355 -309 -355z" />
    <glyph glyph-name="Otilde" unicode="&#xd5;" horiz-adv-x="670" 
d="M275 755c-20 0 -37 -6 -67 -38l-46 53c32 76 74 96 109 96c50 0 99 -40 133 -40c18 0 36 7 65 39l37 -63c-18 -38 -50 -83 -102 -83c-38 0 -91 36 -129 36zM335 566c-119 0 -141 -91 -141 -221s22 -231 141 -231s141 101 141 231s-22 221 -141 221zM335 -10
c-242 0 -309 161 -309 355s67 345 309 345s309 -151 309 -345s-67 -355 -309 -355z" />
    <glyph glyph-name="Odieresis" unicode="&#xd6;" horiz-adv-x="670" 
d="M192 837h106v-105h-106v105zM380 837h106v-105h-106v105zM335 566c-119 0 -141 -91 -141 -221s22 -231 141 -231s141 101 141 231s-22 221 -141 221zM335 -10c-242 0 -309 161 -309 355s67 345 309 345s309 -151 309 -345s-67 -355 -309 -355z" />
    <glyph glyph-name="multiply" unicode="&#xd7;" horiz-adv-x="526" 
d="M486 400l-136 -135l136 -135l-88 -88l-135 135l-135 -135l-88 88l135 135l-135 135l88 88l135 -136l135 136z" />
    <glyph glyph-name="Oslash" unicode="&#xd8;" horiz-adv-x="670" 
d="M335 -10c-89 0 -153 22 -200 58l-68 -86l-45 36l72 90c-51 65 -68 156 -68 257c0 194 67 345 309 345c85 0 148 -20 194 -52l73 92l45 -36l-75 -94c53 -63 72 -153 72 -255c0 -194 -67 -355 -309 -355zM335 122c119 0 141 93 141 223c0 44 -3 85 -14 117l-232 -294
c21 -30 54 -46 105 -46zM335 557c-119 0 -141 -82 -141 -212c0 -43 2 -83 11 -116l231 291c-21 24 -53 37 -101 37z" />
    <glyph glyph-name="Ugrave" unicode="&#xd9;" horiz-adv-x="680" 
d="M274 730l-80 140h142l53 -140h-115zM401 680h266v-124h-53v-316c0 -179 -113 -250 -274 -250s-274 71 -274 250v316h-54v124h267v-124h-54v-316c0 -71 26 -126 116 -126c87 0 114 55 114 126v316h-54v124z" />
    <glyph glyph-name="Uacute" unicode="&#xda;" horiz-adv-x="680" 
d="M483 870l-79 -140h-115l52 140h142zM401 680h266v-124h-53v-316c0 -179 -113 -250 -274 -250s-274 71 -274 250v316h-54v124h267v-124h-54v-316c0 -71 26 -126 116 -126c87 0 114 55 114 126v316h-54v124z" />
    <glyph glyph-name="Ucircumflex" unicode="&#xdb;" horiz-adv-x="680" 
d="M341 785l-45 -55h-89l89 137h90l89 -137h-89zM401 680h266v-124h-53v-316c0 -179 -113 -250 -274 -250s-274 71 -274 250v316h-54v124h267v-124h-54v-316c0 -71 26 -126 116 -126c87 0 114 55 114 126v316h-54v124z" />
    <glyph glyph-name="Udieresis" unicode="&#xdc;" horiz-adv-x="680" 
d="M192 837h106v-105h-106v105zM380 837h106v-105h-106v105zM401 680h266v-124h-53v-316c0 -179 -113 -250 -274 -250s-274 71 -274 250v316h-54v124h267v-124h-54v-316c0 -71 26 -126 116 -126c87 0 114 55 114 126v316h-54v124z" />
    <glyph glyph-name="Yacute" unicode="&#xdd;" horiz-adv-x="660" 
d="M493 870l-79 -140h-115l52 140h142zM409 124h54v-124h-266v124h54v81l-178 351h-61v124h296v-124h-67l101 -205h2l100 205h-65v124h268v-124h-52l-186 -351v-81z" />
    <glyph glyph-name="Thorn" unicode="&#xde;" horiz-adv-x="620" 
d="M225 559h136c146 0 233 -80 233 -219c0 -140 -87 -219 -233 -219h-136v-121h-213v124h54v432h-54v124h213v-121zM225 435v-190h119c48 0 87 29 87 95c0 64 -39 95 -87 95h-119z" />
    <glyph glyph-name="germandbls" unicode="&#xdf;" horiz-adv-x="645" 
d="M76 124v270h-64v97l64 9c0 158 121 200 244 200c124 0 224 -34 224 -150c0 -104 -114 -133 -114 -182c0 -25 16 -35 42 -45c125 -48 152 -107 152 -168c0 -122 -109 -165 -220 -165c-50 0 -91 8 -129 20l18 115c43 -14 74 -20 107 -20c47 0 65 24 65 49
c0 46 -66 67 -97 86c-57 33 -79 52 -79 111c0 81 81 106 81 173c0 39 -26 57 -63 57c-49 0 -81 -30 -81 -110v-471h-204v124h54z" />
    <glyph glyph-name="agrave" unicode="&#xe0;" horiz-adv-x="535" 
d="M176 339h-124v147c73 15 150 24 213 24c131 0 204 -31 204 -169v-217h53v-124h-203v50h-2c-34 -38 -78 -60 -135 -60c-81 0 -161 49 -161 152c0 124 113 163 215 163h83v27c0 45 -32 54 -89 54c-16 0 -33 -1 -54 -4v-43zM319 131v85h-64c-46 0 -84 -7 -84 -56
c0 -39 33 -55 64 -55c33 0 67 13 84 26zM214 560l-80 140h142l53 -140h-115z" />
    <glyph glyph-name="aacute" unicode="&#xe1;" horiz-adv-x="535" 
d="M176 339h-124v147c73 15 150 24 213 24c131 0 204 -31 204 -169v-217h53v-124h-203v50h-2c-34 -38 -78 -60 -135 -60c-81 0 -161 49 -161 152c0 124 113 163 215 163h83v27c0 45 -32 54 -89 54c-16 0 -33 -1 -54 -4v-43zM319 131v85h-64c-46 0 -84 -7 -84 -56
c0 -39 33 -55 64 -55c33 0 67 13 84 26zM406 700l-79 -140h-115l52 140h142z" />
    <glyph glyph-name="acircumflex" unicode="&#xe2;" horiz-adv-x="535" 
d="M176 339h-124v147c73 15 150 24 213 24c131 0 204 -31 204 -169v-217h53v-124h-203v50h-2c-34 -38 -78 -60 -135 -60c-81 0 -161 49 -161 152c0 124 113 163 215 163h83v27c0 45 -32 54 -89 54c-16 0 -33 -1 -54 -4v-43zM319 131v85h-64c-46 0 -84 -7 -84 -56
c0 -39 33 -55 64 -55c33 0 67 13 84 26zM270 615l-45 -55h-89l89 137h90l89 -137h-89z" />
    <glyph glyph-name="atilde" unicode="&#xe3;" horiz-adv-x="535" 
d="M176 339h-124v147c73 15 150 24 213 24c131 0 204 -31 204 -169v-217h53v-124h-203v50h-2c-34 -38 -78 -60 -135 -60c-81 0 -161 49 -161 152c0 124 113 163 215 163h83v27c0 45 -32 54 -89 54c-16 0 -33 -1 -54 -4v-43zM319 131v85h-64c-46 0 -84 -7 -84 -56
c0 -39 33 -55 64 -55c33 0 67 13 84 26zM207 585c-20 0 -37 -6 -67 -38l-46 53c32 76 74 96 109 96c50 0 99 -40 133 -40c18 0 36 7 65 39l37 -63c-18 -38 -50 -83 -102 -83c-38 0 -91 36 -129 36z" />
    <glyph glyph-name="adieresis" unicode="&#xe4;" horiz-adv-x="535" 
d="M176 339h-124v147c73 15 150 24 213 24c131 0 204 -31 204 -169v-217h53v-124h-203v50h-2c-34 -38 -78 -60 -135 -60c-81 0 -161 49 -161 152c0 124 113 163 215 163h83v27c0 45 -32 54 -89 54c-16 0 -33 -1 -54 -4v-43zM319 131v85h-64c-46 0 -84 -7 -84 -56
c0 -39 33 -55 64 -55c33 0 67 13 84 26zM122 687h106v-105h-106v105zM310 687h106v-105h-106v105z" />
    <glyph glyph-name="aring" unicode="&#xe5;" horiz-adv-x="535" 
d="M176 339h-124v147c73 15 150 24 213 24c131 0 204 -31 204 -169v-217h53v-124h-203v50h-2c-34 -38 -78 -60 -135 -60c-81 0 -161 49 -161 152c0 124 113 163 215 163h83v27c0 45 -32 54 -89 54c-16 0 -33 -1 -54 -4v-43zM319 131v85h-64c-46 0 -84 -7 -84 -56
c0 -39 33 -55 64 -55c33 0 67 13 84 26zM172 650c0 54 44 98 98 98s98 -44 98 -98s-44 -98 -98 -98s-98 44 -98 98zM227 650c0 -24 19 -43 43 -43s43 19 43 43s-19 43 -43 43s-43 -19 -43 -43z" />
    <glyph glyph-name="ae" unicode="&#xe6;" horiz-adv-x="822" 
d="M235 105c33 0 68 13 88 29c-3 26 -4 53 -4 82h-79c-42 0 -69 -16 -69 -56c0 -39 33 -55 64 -55zM482 309h164c2 12 2 15 2 25c0 36 -20 61 -74 61c-59 0 -87 -31 -92 -86zM794 216h-312c4 -63 45 -102 124 -102c39 0 88 0 155 20l18 -120c-68 -19 -130 -24 -195 -24
c-116 0 -184 33 -224 92c-68 -77 -126 -92 -186 -92c-100 0 -153 71 -153 157c0 128 123 158 211 158h87v19c0 52 -25 62 -89 62c-16 0 -33 -1 -54 -4v-43h-124v147c50 10 136 24 203 24c74 0 122 -11 164 -48c37 30 90 48 163 48c159 0 219 -73 219 -209
c0 -18 -1 -43 -7 -85z" />
    <glyph glyph-name="ccedilla" unicode="&#xe7;" horiz-adv-x="482" 
d="M234 -79v72c-156 17 -208 113 -208 257c0 159 65 260 264 260c64 0 117 -9 177 -24v-147h-123v44c-21 3 -38 3 -54 3c-64 0 -105 -41 -105 -136s41 -136 105 -136c39 0 67 0 151 20l26 -120c-52 -13 -99 -21 -153 -23v-34c23 -3 66 -27 66 -79c0 -50 -47 -83 -113 -83
c-24 0 -49 4 -75 12l8 55c16 -3 26 -5 41 -5c28 0 39 10 39 26c0 20 -19 33 -46 38z" />
    <glyph glyph-name="egrave" unicode="&#xe8;" horiz-adv-x="530" 
d="M502 216h-317c4 -62 49 -102 128 -102c40 0 88 0 155 20l18 -120c-68 -19 -130 -24 -195 -24c-196 0 -265 101 -265 260s69 260 264 260c158 0 218 -73 218 -209c0 -18 0 -43 -6 -85zM281 395c-59 0 -91 -31 -96 -86h169c1 12 2 15 2 25c0 36 -20 61 -75 61zM224 560
l-80 140h142l53 -140h-115z" />
    <glyph glyph-name="eacute" unicode="&#xe9;" horiz-adv-x="530" 
d="M502 216h-317c4 -62 49 -102 128 -102c40 0 88 0 155 20l18 -120c-68 -19 -130 -24 -195 -24c-196 0 -265 101 -265 260s69 260 264 260c158 0 218 -73 218 -209c0 -18 0 -43 -6 -85zM281 395c-59 0 -91 -31 -96 -86h169c1 12 2 15 2 25c0 36 -20 61 -75 61zM446 700
l-79 -140h-115l52 140h142z" />
    <glyph glyph-name="ecircumflex" unicode="&#xea;" horiz-adv-x="530" 
d="M502 216h-317c4 -62 49 -102 128 -102c40 0 88 0 155 20l18 -120c-68 -19 -130 -24 -195 -24c-196 0 -265 101 -265 260s69 260 264 260c158 0 218 -73 218 -209c0 -18 0 -43 -6 -85zM281 395c-59 0 -91 -31 -96 -86h169c1 12 2 15 2 25c0 36 -20 61 -75 61zM289 615
l-45 -55h-89l89 137h90l89 -137h-89z" />
    <glyph glyph-name="edieresis" unicode="&#xeb;" horiz-adv-x="530" 
d="M502 216h-317c4 -62 49 -102 128 -102c40 0 88 0 155 20l18 -120c-68 -19 -130 -24 -195 -24c-196 0 -265 101 -265 260s69 260 264 260c158 0 218 -73 218 -209c0 -18 0 -43 -6 -85zM281 395c-59 0 -91 -31 -96 -86h169c1 12 2 15 2 25c0 36 -20 61 -75 61zM137 687h106
v-105h-106v105zM325 687h106v-105h-106v105z" />
    <glyph glyph-name="igrave" unicode="&#xec;" horiz-adv-x="282" 
d="M12 376v124h204v-376h54v-124h-258v124h54v252h-54zM53 560l-80 140h142l53 -140h-115z" />
    <glyph glyph-name="iacute" unicode="&#xed;" horiz-adv-x="282" 
d="M12 376v124h204v-376h54v-124h-258v124h54v252h-54zM289 700l-79 -140h-115l52 140h142z" />
    <glyph glyph-name="icircumflex" unicode="&#xee;" horiz-adv-x="282" 
d="M124 615l-45 -55h-89l89 137h90l89 -137h-89zM12 376v124h204v-376h54v-124h-258v124h54v252h-54z" />
    <glyph glyph-name="idieresis" unicode="&#xef;" horiz-adv-x="282" 
d="M13 376v124h204v-376h54v-124h-258v124h54v252h-54zM-15 687h106v-105h-106v105zM173 687h106v-105h-106v105z" />
    <glyph glyph-name="eth" unicode="&#xf0;" horiz-adv-x="550" 
d="M370 656l72 72l50 -50l-64 -63c59 -59 96 -158 96 -315c0 -161 -75 -310 -257 -310c-142 0 -241 86 -241 230c0 150 80 235 210 235c53 0 103 -25 136 -62l2 1c0 49 -13 95 -41 125l-48 -49l-50 51l33 33c-19 7 -40 12 -60 12c-39 0 -81 -5 -143 -29l-18 115
c66 28 109 38 174 38c53 0 105 -10 149 -34zM361 284c-23 23 -50 41 -85 41c-74 0 -91 -58 -91 -105c0 -70 40 -106 89 -106c83 0 96 88 87 170z" />
    <glyph glyph-name="ntilde" unicode="&#xf1;" horiz-adv-x="590" 
d="M329 0v124h45v182c0 54 -22 80 -70 80c-33 0 -65 -16 -88 -29v-233h45v-124h-249v124h54v252h-54v124h204v-63h2c41 46 93 73 156 73c100 0 150 -68 150 -169v-217h53v-124h-248zM238 585c-20 0 -37 -6 -67 -38l-46 53c32 76 74 96 109 96c50 0 99 -40 133 -40
c18 0 36 7 65 39l37 -63c-18 -38 -50 -83 -102 -83c-38 0 -91 36 -129 36z" />
    <glyph glyph-name="ograve" unicode="&#xf2;" horiz-adv-x="550" 
d="M275 386c-70 0 -90 -50 -90 -136s20 -136 90 -136s90 50 90 136s-20 136 -90 136zM275 -10c-181 0 -249 101 -249 260s68 260 249 260s249 -101 249 -260s-68 -260 -249 -260zM218 560l-80 140h142l53 -140h-115z" />
    <glyph glyph-name="oacute" unicode="&#xf3;" horiz-adv-x="550" 
d="M275 386c-70 0 -90 -50 -90 -136s20 -136 90 -136s90 50 90 136s-20 136 -90 136zM275 -10c-181 0 -249 101 -249 260s68 260 249 260s249 -101 249 -260s-68 -260 -249 -260zM423 700l-79 -140h-115l52 140h142z" />
    <glyph glyph-name="ocircumflex" unicode="&#xf4;" horiz-adv-x="550" 
d="M275 386c-70 0 -90 -50 -90 -136s20 -136 90 -136s90 50 90 136s-20 136 -90 136zM275 -10c-181 0 -249 101 -249 260s68 260 249 260s249 -101 249 -260s-68 -260 -249 -260zM275 615l-45 -55h-89l89 137h90l89 -137h-89z" />
    <glyph glyph-name="otilde" unicode="&#xf5;" horiz-adv-x="550" 
d="M275 386c-70 0 -90 -50 -90 -136s20 -136 90 -136s90 50 90 136s-20 136 -90 136zM275 -10c-181 0 -249 101 -249 260s68 260 249 260s249 -101 249 -260s-68 -260 -249 -260zM216 585c-20 0 -37 -6 -67 -38l-46 53c32 76 74 96 109 96c50 0 99 -40 133 -40
c18 0 36 7 65 39l37 -63c-18 -38 -50 -83 -102 -83c-38 0 -91 36 -129 36z" />
    <glyph glyph-name="odieresis" unicode="&#xf6;" horiz-adv-x="550" 
d="M275 386c-70 0 -90 -50 -90 -136s20 -136 90 -136s90 50 90 136s-20 136 -90 136zM275 -10c-181 0 -249 101 -249 260s68 260 249 260s249 -101 249 -260s-68 -260 -249 -260zM128 687h106v-105h-106v105zM316 687h106v-105h-106v105z" />
    <glyph glyph-name="divide" unicode="&#xf7;" horiz-adv-x="500" 
d="M36 309h428v-88h-428v88zM184 165h132v-135h-132v135zM184 500h132v-135h-132v135z" />
    <glyph glyph-name="oslash" unicode="&#xf8;" horiz-adv-x="550" 
d="M275 -10c-64 0 -114 14 -152 38l-56 -66l-45 36l57 67c-37 45 -53 108 -53 185c0 159 68 260 249 260c64 0 114 -14 151 -38l57 66l44 -36l-57 -67c37 -45 54 -109 54 -185c0 -159 -68 -260 -249 -260zM275 114c70 0 90 50 90 136c0 19 -2 38 -7 54l-144 -170
c15 -13 34 -20 61 -20zM275 386c-70 0 -90 -50 -90 -136c0 -20 1 -39 6 -54l144 169c-14 13 -34 21 -60 21z" />
    <glyph glyph-name="ugrave" unicode="&#xf9;" horiz-adv-x="590" 
d="M12 376v124h204v-306c0 -54 26 -80 70 -80c33 0 65 16 88 29v233h-58v124h208v-376h53v-124h-203v62h-2c-41 -45 -93 -72 -156 -72c-100 0 -150 67 -150 169v217h-54zM223 560l-80 140h142l53 -140h-115z" />
    <glyph glyph-name="uacute" unicode="&#xfa;" horiz-adv-x="590" 
d="M12 376v124h204v-306c0 -54 26 -80 70 -80c33 0 65 16 88 29v233h-58v124h208v-376h53v-124h-203v62h-2c-41 -45 -93 -72 -156 -72c-100 0 -150 67 -150 169v217h-54zM440 700l-79 -140h-115l52 140h142z" />
    <glyph glyph-name="ucircumflex" unicode="&#xfb;" horiz-adv-x="590" 
d="M12 376v124h204v-306c0 -54 26 -80 70 -80c33 0 65 16 88 29v233h-58v124h208v-376h53v-124h-203v62h-2c-41 -45 -93 -72 -156 -72c-100 0 -150 67 -150 169v217h-54zM293 615l-45 -55h-89l89 137h90l89 -137h-89z" />
    <glyph glyph-name="udieresis" unicode="&#xfc;" horiz-adv-x="590" 
d="M12 376v124h204v-306c0 -54 26 -80 70 -80c33 0 65 16 88 29v233h-58v124h208v-376h53v-124h-203v62h-2c-41 -45 -93 -72 -156 -72c-100 0 -150 67 -150 169v217h-54zM145 687h106v-105h-106v105zM333 687h106v-105h-106v105z" />
    <glyph glyph-name="yacute" unicode="&#xfd;" horiz-adv-x="580" 
d="M337 376v124h229v-124h-34l-161 -383c-45 -107 -113 -203 -230 -203c-27 0 -68 4 -95 9l13 120c15 -3 38 -5 49 -5c42 0 84 22 101 75l-157 387h-40v124h254v-124h-48l87 -242h2l76 242h-46zM451 700l-79 -140h-115l52 140h142z" />
    <glyph glyph-name="thorn" unicode="&#xfe;" horiz-adv-x="560" 
d="M12 576v124h204v-250h2c30 35 83 60 134 60c140 0 182 -119 182 -260s-50 -260 -190 -260c-48 0 -96 21 -126 56h-2v-122h54v-124h-258v124h54v652h-54zM375 250c0 77 -18 136 -84 136c-36 0 -61 -15 -75 -25v-222c14 -10 39 -25 75 -25c66 0 84 58 84 136z" />
    <glyph glyph-name="ydieresis" unicode="&#xff;" horiz-adv-x="580" 
d="M337 376v124h229v-124h-34l-161 -383c-45 -107 -113 -203 -230 -203c-27 0 -68 4 -95 9l13 120c15 -3 38 -5 49 -5c42 0 84 22 101 75l-157 387h-40v124h254v-124h-48l87 -242h2l76 242h-46zM156 687h106v-105h-106v105zM344 687h106v-105h-106v105z" />
    <glyph glyph-name="breve" unicode="&#x2d8;" horiz-adv-x="408" 
d="M204 649c41 0 58 21 73 61h77c-10 -85 -54 -146 -150 -146s-140 61 -150 146h77c15 -40 32 -61 73 -61z" />
    <glyph glyph-name="cyrbreve" horiz-adv-x="408" 
d="M204 649c41 0 58 21 73 61h77c-10 -85 -54 -146 -150 -146s-140 61 -150 146h77c15 -40 32 -61 73 -61z" />
    <glyph glyph-name="caron" unicode="&#x2c7;" horiz-adv-x="420" 
d="M165 697l45 -55l45 55h89l-89 -137h-90l-89 137h89z" />
    <glyph glyph-name="commaaccent" unicode="&#xf6c3;" horiz-adv-x="230" 
d="M115 -265h-45l27 101h-61v124h150v-124z" />
    <glyph glyph-name="undercommaaccent" unicode="&#xf005;" horiz-adv-x="230" 
d="M115 -265h-45l27 101h-61v124h150v-124z" />
    <glyph glyph-name="dieresisacute" unicode="&#xf6d7;" horiz-adv-x="630" 
d="M411 730l-107 -170h-80l54 170h133zM56 700h133v-135h-133v135zM436 700h133v-135h-133v135z" />
    <glyph glyph-name="dieresisgrave" unicode="&#xf6d8;" horiz-adv-x="630" 
d="M324 560l-107 170h133l54 -170h-80zM436 700h133v-135h-133v135zM56 700h133v-135h-133v135z" />
    <glyph glyph-name="dotaccent" unicode="&#x2d9;" horiz-adv-x="250" 
d="M56 700h133v-135h-133v135z" />
    <glyph glyph-name="hungarumlaut" unicode="&#x2dd;" horiz-adv-x="460" 
d="M231 700l-97 -140h-80l53 140h124zM401 700l-97 -140h-80l53 140h124z" />
    <glyph glyph-name="dblgrave" unicode="&#xf6d6;" horiz-adv-x="460" 
d="M325 560l-97 140h125l52 -140h-80zM155 560l-97 140h125l52 -140h-80z" />
    <glyph glyph-name="cyrflex" horiz-adv-x="420" 
d="M210 615l-45 -55h-89l89 137h90l89 -137h-89z" />
    <glyph glyph-name="uni02C9" unicode="&#x2c9;" horiz-adv-x="440" 
d="M54 672h332v-106h-332v106z" />
    <glyph glyph-name="ogonek" unicode="&#x2db;" horiz-adv-x="314" 
d="M256 -140l5 -35c-23 -18 -66 -29 -98 -29c-64 0 -107 34 -107 81c0 44 29 88 85 123h72c-37 -30 -57 -65 -57 -96c0 -34 22 -53 59 -53c15 0 28 4 41 9z" />
    <glyph glyph-name="ring" unicode="&#x2da;" horiz-adv-x="300" 
d="M52 650c0 54 44 98 98 98s98 -44 98 -98s-44 -98 -98 -98s-98 44 -98 98zM107 650c0 -24 19 -43 43 -43s43 19 43 43s-19 43 -43 43s-43 -19 -43 -43z" />
    <glyph glyph-name="Acute" horiz-adv-x="290" 
d="M240 870l-79 -140h-115l52 140h142z" />
    <glyph glyph-name="Breve" horiz-adv-x="408" 
d="M204 819c41 0 58 21 73 61h77c-10 -85 -54 -146 -150 -146s-140 61 -150 146h77c15 -40 32 -61 73 -61z" />
    <glyph glyph-name="cyrBreve" horiz-adv-x="408" 
d="M204 819c41 0 58 21 73 61h77c-10 -85 -54 -146 -150 -146s-140 61 -150 146h77c15 -40 32 -61 73 -61z" />
    <glyph glyph-name="Caron" horiz-adv-x="420" 
d="M165 867l45 -55l45 55h89l-89 -137h-90l-89 137h89z" />
    <glyph glyph-name="Cedilla" horiz-adv-x="294" 
d="M104 -79v79h80v-43c23 -3 66 -27 66 -79c0 -50 -47 -83 -114 -83c-24 0 -48 4 -75 12l8 55c16 -3 26 -5 41 -5c29 0 40 10 40 26c0 20 -19 33 -46 38z" />
    <glyph glyph-name="Circumflex" horiz-adv-x="420" 
d="M210 785l-45 -55h-89l89 137h90l89 -137h-89z" />
    <glyph glyph-name="commaaccent.cap" horiz-adv-x="230" 
d="M115 -265h-45l27 101h-61v124h150v-124z" />
    <glyph glyph-name="Dieresis" horiz-adv-x="480" 
d="M93 837h106v-105h-106v105zM281 837h106v-105h-106v105z" />
    <glyph glyph-name="DieresisAcute" unicode="&#xf6cc;" horiz-adv-x="630" 
d="M411 900l-107 -170h-80l54 170h133zM56 870h133v-135h-133v135zM436 870h133v-135h-133v135z" />
    <glyph glyph-name="DieresisGrave" unicode="&#xf6cd;" horiz-adv-x="630" 
d="M324 730l-107 170h133l54 -170h-80zM436 870h133v-135h-133v135zM56 870h133v-135h-133v135z" />
    <glyph glyph-name="Dotaccent" horiz-adv-x="250" 
d="M56 870h133v-135h-133v135z" />
    <glyph glyph-name="Hungarumlaut" unicode="&#xf6cf;" horiz-adv-x="460" 
d="M231 870l-97 -140h-80l53 140h124zM401 870l-97 -140h-80l53 140h124z" />
    <glyph glyph-name="Grave" horiz-adv-x="290" 
d="M129 730l-80 140h142l53 -140h-115z" />
    <glyph glyph-name="dblGrave" unicode="&#xf6d3;" horiz-adv-x="460" 
d="M325 730l-97 140h125l52 -140h-80zM155 730l-97 140h125l52 -140h-80z" />
    <glyph glyph-name="cyrFlex" horiz-adv-x="420" 
d="M210 785l-45 -55h-89l89 137h90l89 -137h-89z" />
    <glyph glyph-name="Macron" unicode="&#xf6d0;" horiz-adv-x="380" 
d="M54 842h272v-106h-272v106z" />
    <glyph glyph-name="Ogonek" horiz-adv-x="314" 
d="M256 -140l5 -35c-23 -18 -66 -29 -98 -29c-64 0 -107 34 -107 81c0 44 29 88 85 123h72c-37 -30 -57 -65 -57 -96c0 -34 22 -53 59 -53c15 0 28 4 41 9z" />
    <glyph glyph-name="Ring" horiz-adv-x="300" 
d="M52 820c0 54 44 98 98 98s98 -44 98 -98s-44 -98 -98 -98s-98 44 -98 98zM107 820c0 -24 19 -43 43 -43s43 19 43 43s-19 43 -43 43s-43 -19 -43 -43z" />
    <glyph glyph-name="Tilde" horiz-adv-x="450" 
d="M166 755c-20 0 -37 -6 -67 -38l-46 53c32 76 74 96 109 96c50 0 99 -40 133 -40c18 0 36 7 65 39l37 -63c-18 -38 -50 -83 -102 -83c-38 0 -91 36 -129 36z" />
    <glyph glyph-name="Acutesmall" horiz-adv-x="290" 
d="M240 780l-79 -140h-115l52 140h142z" />
    <glyph glyph-name="Brevesmall" unicode="&#xf6f4;" horiz-adv-x="408" 
d="M204 729c41 0 58 21 73 61h77c-10 -85 -54 -146 -150 -146s-140 61 -150 146h77c15 -40 32 -61 73 -61z" />
    <glyph glyph-name="Caronsmall" unicode="&#xf6f5;" horiz-adv-x="420" 
d="M165 777l45 -55l45 55h89l-89 -137h-90l-89 137h89z" />
    <glyph glyph-name="Cedillasmall" horiz-adv-x="294" 
d="M104 -79v79h80v-43c23 -3 66 -27 66 -79c0 -50 -47 -83 -114 -83c-24 0 -48 4 -75 12l8 55c16 -3 26 -5 41 -5c29 0 40 10 40 26c0 20 -19 33 -46 38z" />
    <glyph glyph-name="Circumflexsmall" unicode="&#xf6f6;" horiz-adv-x="420" 
d="M210 695l-45 -55h-89l89 137h90l89 -137h-89z" />
    <glyph glyph-name="commaaccent.small" horiz-adv-x="230" 
d="M115 -265h-45l27 101h-61v124h150v-124z" />
    <glyph glyph-name="Dieresissmall" unicode="&#xf7a8;" horiz-adv-x="480" 
d="M93 747h106v-105h-106v105zM281 747h106v-105h-106v105z" />
    <glyph glyph-name="DieresisAcute.small" horiz-adv-x="630" 
d="M411 810l-107 -170h-80l54 170h133zM56 780h133v-135h-133v135zM436 780h133v-135h-133v135z" />
    <glyph glyph-name="DieresisGrave.small" horiz-adv-x="630" 
d="M324 640l-107 170h133l54 -170h-80zM436 780h133v-135h-133v135zM56 780h133v-135h-133v135z" />
    <glyph glyph-name="Dotaccentsmall" unicode="&#xf6f7;" horiz-adv-x="250" 
d="M56 780h133v-135h-133v135z" />
    <glyph glyph-name="Hungarumlautsmall" unicode="&#xf6f8;" horiz-adv-x="460" 
d="M231 780l-97 -140h-80l53 140h124zM401 780l-97 -140h-80l53 140h124z" />
    <glyph glyph-name="Gravesmall" unicode="&#xf760;" horiz-adv-x="290" 
d="M129 640l-80 140h142l53 -140h-115z" />
    <glyph glyph-name="dblGrave.small" horiz-adv-x="460" 
d="M325 640l-97 140h125l52 -140h-80zM155 640l-97 140h125l52 -140h-80z" />
    <glyph glyph-name="Macronsmall" unicode="&#xf7af;" horiz-adv-x="380" 
d="M54 752h272v-106h-272v106z" />
    <glyph glyph-name="Ogoneksmall" unicode="&#xf6fb;" horiz-adv-x="314" 
d="M256 -140l5 -35c-23 -18 -66 -29 -98 -29c-64 0 -107 34 -107 81c0 44 29 88 85 123h72c-37 -30 -57 -65 -57 -96c0 -34 22 -53 59 -53c15 0 28 4 41 9z" />
    <glyph glyph-name="Ringsmall" unicode="&#xf6fc;" horiz-adv-x="300" 
d="M52 730c0 54 44 98 98 98s98 -44 98 -98s-44 -98 -98 -98s-98 44 -98 98zM107 730c0 -24 19 -43 43 -43s43 19 43 43s-19 43 -43 43s-43 -19 -43 -43z" />
    <glyph glyph-name="Tildesmall" unicode="&#xf6fe;" horiz-adv-x="450" 
d="M166 665c-20 0 -37 -6 -67 -38l-46 53c32 76 74 96 109 96c50 0 99 -40 133 -40c18 0 36 7 65 39l37 -63c-18 -38 -50 -83 -102 -83c-38 0 -91 36 -129 36z" />
    <glyph glyph-name="middot" horiz-adv-x="250" 
d="M56 377h133v-135h-133v135z" />
    <glyph glyph-name="Abreve" unicode="&#x102;" horiz-adv-x="700" 
d="M343 819c41 0 58 21 73 61h77c-10 -85 -54 -146 -150 -146s-140 61 -150 146h77c15 -40 32 -61 73 -61zM147 680h314l172 -556h54v-124h-283v124h56l-22 82h-183l-26 -82h58v-124h-275v124h63l137 432h-65v124zM352 539h-1l-64 -218h124z" />
    <glyph glyph-name="Amacron" unicode="&#x100;" horiz-adv-x="700" 
d="M206 842h272v-106h-272v106zM147 680h314l172 -556h54v-124h-283v124h56l-22 82h-183l-26 -82h58v-124h-275v124h63l137 432h-65v124zM352 539h-1l-64 -218h124z" />
    <glyph glyph-name="Aogonek" unicode="&#x104;" horiz-adv-x="700" 
d="M630 -140l4 -35c-23 -18 -65 -29 -97 -29c-65 0 -108 34 -108 81c0 44 30 88 86 123h-111v124h56l-22 82h-183l-26 -82h58v-124h-275v124h63l137 432h-65v124h314l172 -556h54v-124h-101c-37 -30 -57 -65 -57 -96c0 -34 23 -53 60 -53c14 0 27 4 41 9zM352 539h-1
l-64 -218h124z" />
    <glyph glyph-name="AEacute" unicode="&#x1fc;" horiz-adv-x="916" 
d="M645 870l-79 -140h-115l52 140h142zM277 556h-66v124h679v-179h-124v55h-195v-144h269v-123h-269v-165h195v55h124v-179h-478v162h-167l-70 -162h-165v124h62zM410 538l-112 -252h114v252h-2z" />
    <glyph glyph-name="Cacute" unicode="&#x106;" horiz-adv-x="610" 
d="M485 870l-79 -140h-115l52 140h142zM461 199h124v-170c-96 -29 -167 -39 -250 -39c-242 0 -309 160 -309 355c0 194 67 345 309 345c83 0 154 -10 250 -39v-170h-124v74c-48 9 -79 11 -113 11c-111 0 -154 -91 -154 -221c0 -140 43 -231 154 -231c34 0 65 1 113 11v74z
" />
    <glyph glyph-name="Ccaron" unicode="&#x10c;" horiz-adv-x="610" 
d="M303 867l45 -55l45 55h89l-89 -137h-90l-89 137h89zM461 199h124v-170c-96 -29 -167 -39 -250 -39c-242 0 -309 160 -309 355c0 194 67 345 309 345c83 0 154 -10 250 -39v-170h-124v74c-48 9 -79 11 -113 11c-111 0 -154 -91 -154 -221c0 -140 43 -231 154 -231
c34 0 65 1 113 11v74z" />
    <glyph glyph-name="Ccircumflex" unicode="&#x108;" horiz-adv-x="610" 
d="M356 785l-45 -55h-89l89 137h90l89 -137h-89zM461 199h124v-170c-96 -29 -167 -39 -250 -39c-242 0 -309 160 -309 355c0 194 67 345 309 345c83 0 154 -10 250 -39v-170h-124v74c-48 9 -79 11 -113 11c-111 0 -154 -91 -154 -221c0 -140 43 -231 154 -231
c34 0 65 1 113 11v74z" />
    <glyph glyph-name="Cdotaccent" unicode="&#x10a;" horiz-adv-x="610" 
d="M280 870h133v-135h-133v135zM461 199h124v-170c-96 -29 -167 -39 -250 -39c-242 0 -309 160 -309 355c0 194 67 345 309 345c83 0 154 -10 250 -39v-170h-124v74c-48 9 -79 11 -113 11c-111 0 -154 -91 -154 -221c0 -140 43 -231 154 -231c34 0 65 1 113 11v74z" />
    <glyph glyph-name="Dcaron" unicode="&#x10e;" horiz-adv-x="660" 
d="M267 867l45 -55l45 55h89l-89 -137h-90l-89 137h89zM12 680h314c239 0 308 -141 308 -335s-69 -345 -308 -345h-314v124h54v432h-54v124zM225 124h101c116 0 140 91 140 221s-24 211 -140 211h-101v-432z" />
    <glyph glyph-name="Dcroat" unicode="&#x110;" horiz-adv-x="660" 
d="M12 680h314c239 0 308 -141 308 -335s-69 -345 -308 -345h-314v124h54v177h-54v88h54v167h-54v124zM225 124h101c116 0 140 91 140 221s-24 211 -140 211h-101v-167h101v-88h-101v-177z" />
    <glyph glyph-name="Ebreve" unicode="&#x114;" horiz-adv-x="570" 
d="M321 819c41 0 58 21 73 61h77c-10 -85 -54 -146 -150 -146s-140 61 -150 146h77c15 -40 32 -61 73 -61zM12 680h532v-179h-124v55h-195v-144h269v-123h-269v-165h195v55h124v-179h-532v124h54v432h-54v124z" />
    <glyph glyph-name="Ecaron" unicode="&#x11a;" horiz-adv-x="570" 
d="M260 867l45 -55l45 55h89l-89 -137h-90l-89 137h89zM12 680h532v-179h-124v55h-195v-144h269v-123h-269v-165h195v55h124v-179h-532v124h54v432h-54v124z" />
    <glyph glyph-name="Edotaccent" unicode="&#x116;" horiz-adv-x="570" 
d="M232 870h133v-135h-133v135zM12 680h532v-179h-124v55h-195v-144h269v-123h-269v-165h195v55h124v-179h-532v124h54v432h-54v124z" />
    <glyph glyph-name="Emacron" unicode="&#x112;" horiz-adv-x="570" 
d="M160 842h272v-106h-272v106zM12 680h532v-179h-124v55h-195v-144h269v-123h-269v-165h195v55h124v-179h-532v124h54v432h-54v124z" />
    <glyph glyph-name="Eogonek" unicode="&#x118;" horiz-adv-x="570" 
d="M12 680h532v-179h-124v55h-195v-144h269v-123h-269v-165h195v55h124v-179c-37 -30 -58 -65 -58 -96c0 -34 23 -53 60 -53c15 0 28 4 41 9l5 -35c-23 -18 -66 -29 -98 -29c-64 0 -108 34 -108 81c0 44 30 88 86 123h-460v124h54v432h-54v124z" />
    <glyph glyph-name="Gbreve" unicode="&#x11e;" horiz-adv-x="620" 
d="M352 819c41 0 58 21 73 61h77c-10 -85 -54 -146 -150 -146s-140 61 -150 146h77c15 -40 32 -61 73 -61zM194 345c0 -139 46 -223 154 -223c27 0 52 4 78 11v98h-92v124h251v-322c-92 -29 -162 -43 -250 -43c-239 0 -309 161 -309 355s67 345 309 345
c83 0 154 -10 250 -39v-170h-124v74c-48 9 -79 11 -113 11c-111 0 -154 -91 -154 -221z" />
    <glyph glyph-name="Gcircumflex" unicode="&#x11c;" horiz-adv-x="620" 
d="M363 785l-45 -55h-89l89 137h90l89 -137h-89zM194 345c0 -139 46 -223 154 -223c27 0 52 4 78 11v98h-92v124h251v-322c-92 -29 -162 -43 -250 -43c-239 0 -309 161 -309 355s67 345 309 345c83 0 154 -10 250 -39v-170h-124v74c-48 9 -79 11 -113 11
c-111 0 -154 -91 -154 -221z" />
    <glyph glyph-name="Gcommaaccent" unicode="&#x122;" horiz-adv-x="620" 
d="M194 345c0 -139 46 -223 154 -223c27 0 52 4 78 11v98h-92v124h251v-322c-92 -29 -162 -43 -250 -43c-239 0 -309 161 -309 355s67 345 309 345c83 0 154 -10 250 -39v-170h-124v74c-48 9 -79 11 -113 11c-111 0 -154 -91 -154 -221zM346 -265h-45l27 101h-61v124h150
v-124z" />
    <glyph glyph-name="Gdotaccent" unicode="&#x120;" horiz-adv-x="620" 
d="M282 870h133v-135h-133v135zM194 345c0 -139 46 -223 154 -223c27 0 52 4 78 11v98h-92v124h251v-322c-92 -29 -162 -43 -250 -43c-239 0 -309 161 -309 355s67 345 309 345c83 0 154 -10 250 -39v-170h-124v74c-48 9 -79 11 -113 11c-111 0 -154 -91 -154 -221z" />
    <glyph glyph-name="Hbar" unicode="&#x126;" horiz-adv-x="680" 
d="M401 124h54v165h-230v-165h54v-124h-267v124h54v338h-52v45h52v49h-54v124h267v-124h-54v-49h230v49h-54v124h266v-124h-53v-49h52v-45h-52v-338h53v-124h-266v124zM225 412h230v50h-230v-50z" />
    <glyph glyph-name="Hcircumflex" unicode="&#x124;" horiz-adv-x="680" 
d="M340 785l-45 -55h-89l89 137h90l89 -137h-89zM401 124h54v165h-230v-165h54v-124h-267v124h54v432h-54v124h267v-124h-54v-144h230v144h-54v124h266v-124h-53v-432h53v-124h-266v124z" />
    <glyph glyph-name="Ibreve" unicode="&#x12c;" horiz-adv-x="291" 
d="M145 819c41 0 58 21 73 61h77c-10 -85 -54 -146 -150 -146s-140 61 -150 146h77c15 -40 32 -61 73 -61zM12 124h54v432h-54v124h267v-124h-54v-432h54v-124h-267v124z" />
    <glyph glyph-name="Idotaccent" unicode="&#x130;" horiz-adv-x="291" 
d="M79 870h133v-135h-133v135zM12 124h54v432h-54v124h267v-124h-54v-432h54v-124h-267v124z" />
    <glyph glyph-name="Imacron" unicode="&#x12a;" horiz-adv-x="291" 
d="M10 842h272v-106h-272v106zM12 124h54v432h-54v124h267v-124h-54v-432h54v-124h-267v124z" />
    <glyph glyph-name="Iogonek" unicode="&#x12e;" horiz-adv-x="291" 
d="M231 -140l5 -35c-23 -18 -66 -29 -98 -29c-64 0 -107 34 -107 81c0 44 29 88 85 123h-104v124h54v432h-54v124h267v-124h-54v-432h54v-124h-91c-37 -30 -57 -65 -57 -96c0 -34 22 -53 59 -53c15 0 28 4 41 9z" />
    <glyph glyph-name="Itilde" unicode="&#x128;" horiz-adv-x="291" 
d="M86 755c-20 0 -37 -6 -67 -38l-46 53c32 76 74 96 109 96c50 0 99 -40 133 -40c18 0 36 7 65 39l37 -63c-18 -38 -50 -83 -102 -83c-38 0 -91 36 -129 36zM12 124h54v432h-54v124h267v-124h-54v-432h54v-124h-267v124z" />
    <glyph glyph-name="IJ" unicode="&#x132;" horiz-adv-x="670" 
d="M12 124h54v432h-54v124h267v-124h-54v-432h54v-124h-267v124zM391 680h266v-124h-53v-370c0 -139 -75 -196 -190 -196c-46 0 -84 4 -113 9l13 124c19 -3 36 -5 56 -5c37 0 75 11 75 68v370h-54v124z" />
    <glyph glyph-name="Jcircumflex" unicode="&#x134;" horiz-adv-x="381" 
d="M236 785l-45 -55h-89l89 137h90l89 -137h-89zM102 680h267v-124h-54v-370c0 -139 -75 -196 -190 -196c-46 0 -84 4 -113 9l13 124c19 -3 36 -5 56 -5c38 0 75 11 75 68v370h-54v124z" />
    <glyph glyph-name="Kcommaaccent" unicode="&#x136;" horiz-adv-x="680" 
d="M330 -258h-45l27 101h-61v124h150v-124zM12 680h267v-124h-54v-194l186 194h-42v124h288v-124h-56l-170 -168l188 -264h48v-124h-297v124h48l-107 153l-86 -83v-70h54v-124h-267v124h54v432h-54v124z" />
    <glyph glyph-name="Lacute" unicode="&#x139;" horiz-adv-x="550" 
d="M289 870l-79 -140h-115l52 140h142zM411 179h124v-179h-523v124h54v432h-54v124h267v-124h-54v-432h186v55z" />
    <glyph glyph-name="Lcaron" unicode="&#x13d;" horiz-adv-x="550" 
d="M400 455h-45l27 101h-61v124h150v-124zM411 179h124v-179h-523v124h54v432h-54v124h267v-124h-54v-432h186v55z" />
    <glyph glyph-name="Lcommaaccent" unicode="&#x13b;" horiz-adv-x="550" 
d="M291 -258h-45l27 101h-61v124h150v-124zM411 179h124v-179h-523v124h54v432h-54v124h267v-124h-54v-432h186v55z" />
    <glyph glyph-name="Ldot" unicode="&#x13f;" horiz-adv-x="550" 
d="M306 442h133v-135h-133v135zM411 179h124v-179h-523v124h54v432h-54v124h267v-124h-54v-432h186v55z" />
    <glyph glyph-name="Lslash" unicode="&#x141;" horiz-adv-x="550" 
d="M12 334l54 15v207h-54v124h267v-124h-54v-161l54 16v-72l-54 -15v-200h186v55h124v-179h-523v124h54v154l-54 -15v71z" />
    <glyph glyph-name="Nacute" unicode="&#x143;" horiz-adv-x="690" 
d="M489 870l-79 -140h-115l52 140h142zM420 680h257v-124h-53v-556h-163l-247 393h-2v-269h58v-124h-258v124h54v432h-54v124h209l255 -415h2v291h-58v124z" />
    <glyph glyph-name="Ncaron" unicode="&#x147;" horiz-adv-x="690" 
d="M307 867l45 -55l45 55h89l-89 -137h-90l-89 137h89zM420 680h257v-124h-53v-556h-163l-247 393h-2v-269h58v-124h-258v124h54v432h-54v124h209l255 -415h2v291h-58v124z" />
    <glyph glyph-name="Ncommaaccent" unicode="&#x145;" horiz-adv-x="690" 
d="M356 -265h-45l27 101h-61v124h150v-124zM420 680h257v-124h-53v-556h-163l-247 393h-2v-269h58v-124h-258v124h54v432h-54v124h209l255 -415h2v291h-58v124z" />
    <glyph glyph-name="Obreve" unicode="&#x14e;" horiz-adv-x="670" 
d="M335 819c41 0 58 21 73 61h77c-10 -85 -54 -146 -150 -146s-140 61 -150 146h77c15 -40 32 -61 73 -61zM335 566c-119 0 -141 -91 -141 -221s22 -231 141 -231s141 101 141 231s-22 221 -141 221zM335 -10c-242 0 -309 161 -309 355s67 345 309 345s309 -151 309 -345
s-67 -355 -309 -355z" />
    <glyph glyph-name="Ohungarumlaut" unicode="&#x150;" horiz-adv-x="670" 
d="M382 870l-97 -140h-80l53 140h124zM552 870l-97 -140h-80l53 140h124zM335 566c-119 0 -141 -91 -141 -221s22 -231 141 -231s141 101 141 231s-22 221 -141 221zM335 -10c-242 0 -309 161 -309 355s67 345 309 345s309 -151 309 -345s-67 -355 -309 -355z" />
    <glyph glyph-name="Omacron" unicode="&#x14c;" horiz-adv-x="670" 
d="M202 842h272v-106h-272v106zM335 566c-119 0 -141 -91 -141 -221s22 -231 141 -231s141 101 141 231s-22 221 -141 221zM335 -10c-242 0 -309 161 -309 355s67 345 309 345s309 -151 309 -345s-67 -355 -309 -355z" />
    <glyph glyph-name="Oslashacute" unicode="&#x1fe;" horiz-adv-x="670" 
d="M477 870l-79 -140h-115l52 140h142zM335 -10c-89 0 -153 22 -200 58l-68 -86l-45 36l72 90c-51 65 -68 156 -68 257c0 194 67 345 309 345c85 0 148 -20 194 -52l73 92l45 -36l-75 -94c53 -63 72 -153 72 -255c0 -194 -67 -355 -309 -355zM335 122c119 0 141 93 141 223
c0 44 -3 85 -14 117l-232 -294c21 -30 54 -46 105 -46zM335 557c-119 0 -141 -82 -141 -212c0 -43 2 -83 11 -116l231 291c-21 24 -53 37 -101 37z" />
    <glyph glyph-name="Racute" unicode="&#x154;" horiz-adv-x="650" 
d="M450 870l-79 -140h-115l52 140h142zM12 680h349c146 0 233 -77 233 -216c0 -90 -44 -162 -119 -189l119 -151h43v-124h-276v124h32l-93 125h-75v-125h54v-124h-267v124h54v432h-54v124zM225 556v-184h117c49 0 89 27 89 92s-39 92 -87 92h-119z" />
    <glyph glyph-name="Rcaron" unicode="&#x158;" horiz-adv-x="650" 
d="M268 867l45 -55l45 55h89l-89 -137h-90l-89 137h89zM12 680h349c146 0 233 -77 233 -216c0 -90 -44 -162 -119 -189l119 -151h43v-124h-276v124h32l-93 125h-75v-125h54v-124h-267v124h54v432h-54v124zM225 556v-184h117c49 0 89 27 89 92s-39 92 -87 92h-119z" />
    <glyph glyph-name="Rcommaaccent" unicode="&#x156;" horiz-adv-x="650" 
d="M329 -259h-45l27 101h-61v124h150v-124zM12 680h349c146 0 233 -77 233 -216c0 -90 -44 -162 -119 -189l119 -151h43v-124h-276v124h32l-93 125h-75v-125h54v-124h-267v124h54v432h-54v124zM225 556v-184h117c49 0 89 27 89 92s-39 92 -87 92h-119z" />
    <glyph glyph-name="Sacute" unicode="&#x15a;" horiz-adv-x="580" 
d="M433 870l-79 -140h-115l52 140h142zM26 207h124v-67c60 -12 105 -18 140 -18c64 0 96 25 96 65c0 55 -69 68 -151 92c-121 35 -208 101 -208 216c0 140 117 195 254 195c79 0 149 -10 245 -39v-179h-124v73c-52 10 -86 12 -121 12c-55 0 -86 -22 -86 -58
c0 -45 59 -68 145 -88c121 -28 214 -87 214 -206c0 -150 -117 -215 -264 -215c-79 0 -168 10 -264 39v178z" />
    <glyph glyph-name="Scedilla" unicode="&#x15e;" horiz-adv-x="580" 
d="M242 -79v71c-67 3 -139 13 -216 37v178h124v-67c60 -12 105 -18 140 -18c64 0 96 25 96 65c0 55 -69 68 -151 92c-121 35 -208 101 -208 216c0 140 117 195 254 195c79 0 149 -10 245 -39v-179h-124v73c-52 10 -86 12 -121 12c-55 0 -86 -22 -86 -58
c0 -45 59 -68 145 -88c121 -28 214 -87 214 -206c0 -139 -101 -205 -232 -213v-35c23 -3 65 -27 65 -79c0 -50 -47 -83 -113 -83c-24 0 -48 4 -75 12l8 55c16 -3 26 -5 41 -5c28 0 39 10 39 26c0 20 -18 33 -45 38z" />
    <glyph glyph-name="Scircumflex" unicode="&#x15c;" horiz-adv-x="580" 
d="M299 785l-45 -55h-89l89 137h90l89 -137h-89zM26 207h124v-67c60 -12 105 -18 140 -18c64 0 96 25 96 65c0 55 -69 68 -151 92c-121 35 -208 101 -208 216c0 140 117 195 254 195c79 0 149 -10 245 -39v-179h-124v73c-52 10 -86 12 -121 12c-55 0 -86 -22 -86 -58
c0 -45 59 -68 145 -88c121 -28 214 -87 214 -206c0 -150 -117 -215 -264 -215c-79 0 -168 10 -264 39v178z" />
    <glyph glyph-name="Scommaaccent" unicode="&#x218;" horiz-adv-x="580" 
d="M295 -265h-45l27 101h-61v124h150v-124zM26 207h124v-67c60 -12 105 -18 140 -18c64 0 96 25 96 65c0 55 -69 68 -151 92c-121 35 -208 101 -208 216c0 140 117 195 254 195c79 0 149 -10 245 -39v-179h-124v73c-52 10 -86 12 -121 12c-55 0 -86 -22 -86 -58
c0 -45 59 -68 145 -88c121 -28 214 -87 214 -206c0 -150 -117 -215 -264 -215c-79 0 -168 10 -264 39v178z" />
    <glyph glyph-name="Tbar" unicode="&#x166;" horiz-adv-x="580" 
d="M17 680h545v-179h-123v55h-70v-202h74v-88h-74v-142h54v-124h-266v124h54v142h-74v88h74v202h-70v-55h-124v179z" />
    <glyph glyph-name="Tcaron" unicode="&#x164;" horiz-adv-x="580" 
d="M247 867l45 -55l45 55h89l-89 -137h-90l-89 137h89zM17 680h545v-179h-123v55h-70v-432h54v-124h-266v124h54v432h-70v-55h-124v179z" />
    <glyph glyph-name="Tcommaaccent" unicode="&#x162;" horiz-adv-x="580" 
d="M294 -265h-45l27 101h-61v124h150v-124zM17 680h545v-179h-123v55h-70v-432h54v-124h-266v124h54v432h-70v-55h-124v179z" />
    <glyph glyph-name="uni021A" unicode="&#x21a;" horiz-adv-x="580" 
d="M293 -262h-45l27 101h-61v124h150v-124zM17 680h545v-179h-123v55h-70v-432h54v-124h-266v124h54v432h-70v-55h-124v179z" />
    <glyph glyph-name="T_h" horiz-adv-x="1060" 
d="M17 680h669v-243h2c41 46 93 73 156 73c100 0 150 -68 150 -169v-217h53v-124h-248v124h45v182c0 54 -22 80 -70 80c-33 0 -65 -16 -88 -29v-233h45v-124h-249v124h54v432h-167v-432h54v-124h-266v124h54v432h-70v-55h-124v179z" />
    <glyph glyph-name="T_h.caron" horiz-adv-x="1060" 
d="M17 680h669v-243h2c41 46 93 73 156 73c100 0 150 -68 150 -169v-217h53v-124h-248v124h45v182c0 54 -22 80 -70 80c-33 0 -65 -16 -88 -29v-233h45v-124h-249v124h54v432h-167v-432h54v-124h-266v124h54v432h-70v-55h-124v179zM244 867l45 -55l45 55h89l-89 -137h-90
l-89 137h89z" />
    <glyph glyph-name="T_h.commaaccent" horiz-adv-x="1060" 
d="M17 680h669v-243h2c41 46 93 73 156 73c100 0 150 -68 150 -169v-217h53v-124h-248v124h45v182c0 54 -22 80 -70 80c-33 0 -65 -16 -88 -29v-233h45v-124h-249v124h54v432h-167v-432h54v-124h-266v124h54v432h-70v-55h-124v179zM295 -265h-45l27 101h-61v124h150v-124z
" />
    <glyph glyph-name="Ubreve" unicode="&#x16c;" horiz-adv-x="680" 
d="M341 819c41 0 58 21 73 61h77c-10 -85 -54 -146 -150 -146s-140 61 -150 146h77c15 -40 32 -61 73 -61zM401 680h266v-124h-53v-316c0 -179 -113 -250 -274 -250s-274 71 -274 250v316h-54v124h267v-124h-54v-316c0 -71 26 -126 116 -126c87 0 114 55 114 126v316h-54
v124z" />
    <glyph glyph-name="Uhungarumlaut" unicode="&#x170;" horiz-adv-x="680" 
d="M385 870l-97 -140h-80l53 140h124zM555 870l-97 -140h-80l53 140h124zM401 680h266v-124h-53v-316c0 -179 -113 -250 -274 -250s-274 71 -274 250v316h-54v124h267v-124h-54v-316c0 -71 26 -126 116 -126c87 0 114 55 114 126v316h-54v124z" />
    <glyph glyph-name="Umacron" unicode="&#x16a;" horiz-adv-x="680" 
d="M204 842h272v-106h-272v106zM401 680h266v-124h-53v-316c0 -179 -113 -250 -274 -250s-274 71 -274 250v316h-54v124h267v-124h-54v-316c0 -71 26 -126 116 -126c87 0 114 55 114 126v316h-54v124z" />
    <glyph glyph-name="Uogonek" unicode="&#x172;" horiz-adv-x="680" 
d="M401 680h266v-124h-53v-316c0 -168 -100 -241 -246 -249c-30 -28 -46 -59 -46 -87c0 -34 22 -53 59 -53c15 0 28 4 41 9l5 -35c-23 -18 -65 -29 -97 -29c-65 0 -108 34 -108 81c0 41 25 82 74 116c-139 11 -230 85 -230 247v316h-54v124h267v-124h-54v-316
c0 -71 26 -126 116 -126c87 0 114 55 114 126v316h-54v124z" />
    <glyph glyph-name="Uring" unicode="&#x16e;" horiz-adv-x="680" 
d="M244 820c0 54 44 98 98 98s98 -44 98 -98s-44 -98 -98 -98s-98 44 -98 98zM299 820c0 -24 19 -43 43 -43s43 19 43 43s-19 43 -43 43s-43 -19 -43 -43zM401 680h266v-124h-53v-316c0 -179 -113 -250 -274 -250s-274 71 -274 250v316h-54v124h267v-124h-54v-316
c0 -71 26 -126 116 -126c87 0 114 55 114 126v316h-54v124z" />
    <glyph glyph-name="Utilde" unicode="&#x168;" horiz-adv-x="680" 
d="M281 755c-20 0 -37 -6 -67 -38l-46 53c32 76 74 96 109 96c50 0 99 -40 133 -40c18 0 36 7 65 39l37 -63c-18 -38 -50 -83 -102 -83c-38 0 -91 36 -129 36zM401 680h266v-124h-53v-316c0 -179 -113 -250 -274 -250s-274 71 -274 250v316h-54v124h267v-124h-54v-316
c0 -71 26 -126 116 -126c87 0 114 55 114 126v316h-54v124z" />
    <glyph glyph-name="Wacute" unicode="&#x1e82;" horiz-adv-x="980" 
d="M641 870l-79 -140h-115l52 140h142zM12 680h287v-124h-61l77 -370h1l103 494h168l111 -494h1l70 370h-62v124h260v-124h-44l-131 -561h-212l-89 394h-2l-80 -394h-212l-139 561h-46v124z" />
    <glyph glyph-name="Wcircumflex" unicode="&#x174;" horiz-adv-x="980" 
d="M489 785l-45 -55h-89l89 137h90l89 -137h-89zM12 680h287v-124h-61l77 -370h1l103 494h168l111 -494h1l70 370h-62v124h260v-124h-44l-131 -561h-212l-89 394h-2l-80 -394h-212l-139 561h-46v124z" />
    <glyph glyph-name="Wdieresis" unicode="&#x1e84;" horiz-adv-x="980" 
d="M355 837h106v-105h-106v105zM543 837h106v-105h-106v105zM12 680h287v-124h-61l77 -370h1l103 494h168l111 -494h1l70 370h-62v124h260v-124h-44l-131 -561h-212l-89 394h-2l-80 -394h-212l-139 561h-46v124z" />
    <glyph glyph-name="Wgrave" unicode="&#x1e80;" horiz-adv-x="980" 
d="M438 730l-80 140h142l53 -140h-115zM12 680h287v-124h-61l77 -370h1l103 494h168l111 -494h1l70 370h-62v124h260v-124h-44l-131 -561h-212l-89 394h-2l-80 -394h-212l-139 561h-46v124z" />
    <glyph glyph-name="Ycircumflex" unicode="&#x176;" horiz-adv-x="660" 
d="M344 785l-45 -55h-89l89 137h90l89 -137h-89zM409 124h54v-124h-266v124h54v81l-178 351h-61v124h296v-124h-67l101 -205h2l100 205h-65v124h268v-124h-52l-186 -351v-81z" />
    <glyph glyph-name="Ygrave" unicode="&#x1ef2;" horiz-adv-x="660" 
d="M281 730l-80 140h142l53 -140h-115zM409 124h54v-124h-266v124h54v81l-178 351h-61v124h296v-124h-67l101 -205h2l100 205h-65v124h268v-124h-52l-186 -351v-81z" />
    <glyph glyph-name="Zacute" unicode="&#x179;" horiz-adv-x="560" 
d="M421 870l-79 -140h-115l52 140h142zM44 680h481v-115l-306 -439v-2h193v55h124v-179h-511v115l310 439v2h-168v-55h-123v179z" />
    <glyph glyph-name="Zdotaccent" unicode="&#x17b;" horiz-adv-x="560" 
d="M211 870h133v-135h-133v135zM44 680h481v-115l-306 -439v-2h193v55h124v-179h-511v115l310 439v2h-168v-55h-123v179z" />
    <glyph glyph-name="Asmall" unicode="&#xf761;" horiz-adv-x="639" 
d="M127 585h299l149 -466h50v-119h-265v119h48l-16 58h-153l-18 -58h49v-119h-256v119h56l113 347h-56v119zM321 440h-2l-49 -153h95z" />
    <glyph glyph-name="Aacutesmall" unicode="&#xf7e1;" horiz-adv-x="639" 
d="M445 780l-79 -140h-115l52 140h142zM127 585h299l149 -466h50v-119h-265v119h48l-16 58h-153l-18 -58h49v-119h-256v119h56l113 347h-56v119zM321 440h-2l-49 -153h95z" />
    <glyph glyph-name="Abreve.small" unicode="&#xf66d;" horiz-adv-x="639" 
d="M320 729c41 0 58 21 73 61h77c-10 -85 -54 -146 -150 -146s-140 61 -150 146h77c15 -40 32 -61 73 -61zM127 585h299l149 -466h50v-119h-265v119h48l-16 58h-153l-18 -58h49v-119h-256v119h56l113 347h-56v119zM321 440h-2l-49 -153h95z" />
    <glyph glyph-name="Acircumflexsmall" unicode="&#xf7e2;" horiz-adv-x="639" 
d="M315 695l-45 -55h-89l89 137h90l89 -137h-89zM127 585h299l149 -466h50v-119h-265v119h48l-16 58h-153l-18 -58h49v-119h-256v119h56l113 347h-56v119zM321 440h-2l-49 -153h95z" />
    <glyph glyph-name="Adieresissmall" unicode="&#xf7e4;" horiz-adv-x="639" 
d="M174 747h106v-105h-106v105zM362 747h106v-105h-106v105zM127 585h299l149 -466h50v-119h-265v119h48l-16 58h-153l-18 -58h49v-119h-256v119h56l113 347h-56v119zM321 440h-2l-49 -153h95z" />
    <glyph glyph-name="Agravesmall" unicode="&#xf7e0;" horiz-adv-x="639" 
d="M231 640l-80 140h142l53 -140h-115zM127 585h299l149 -466h50v-119h-265v119h48l-16 58h-153l-18 -58h49v-119h-256v119h56l113 347h-56v119zM321 440h-2l-49 -153h95z" />
    <glyph glyph-name="Amacron.small" unicode="&#xf66e;" horiz-adv-x="639" 
d="M185 752h272v-106h-272v106zM127 585h299l149 -466h50v-119h-265v119h48l-16 58h-153l-18 -58h49v-119h-256v119h56l113 347h-56v119zM321 440h-2l-49 -153h95z" />
    <glyph glyph-name="Aogonek.small" horiz-adv-x="639" 
d="M569 -118l4 -33c-21 -16 -61 -25 -90 -25c-61 0 -100 31 -100 72c0 36 25 74 76 104h-99v119h48l-16 58h-153l-18 -58h49v-119h-256v119h56l113 347h-56v119h299l149 -466h50v-119h-95c-33 -26 -49 -53 -49 -79c0 -29 20 -45 53 -45c12 0 23 2 35 6zM321 440h-2l-49 -153
h95z" />
    <glyph glyph-name="Aringsmall" unicode="&#xf7e5;" horiz-adv-x="639" 
d="M223 730c0 54 44 98 98 98s98 -44 98 -98s-44 -98 -98 -98s-98 44 -98 98zM278 730c0 -24 19 -43 43 -43s43 19 43 43s-19 43 -43 43s-43 -19 -43 -43zM127 585h299l149 -466h50v-119h-265v119h48l-16 58h-153l-18 -58h49v-119h-256v119h56l113 347h-56v119zM321 440h-2
l-49 -153h95z" />
    <glyph glyph-name="Atildesmall" unicode="&#xf7e3;" horiz-adv-x="639" 
d="M260 665c-20 0 -37 -6 -67 -38l-46 53c32 76 74 96 109 96c50 0 99 -40 133 -40c18 0 36 7 65 39l37 -63c-18 -38 -50 -83 -102 -83c-38 0 -91 36 -129 36zM127 585h299l149 -466h50v-119h-265v119h48l-16 58h-153l-18 -58h49v-119h-256v119h56l113 347h-56v119zM321 440
h-2l-49 -153h95z" />
    <glyph glyph-name="AEsmall" unicode="&#xf7e6;" horiz-adv-x="833" 
d="M240 466h-58v119h626v-164h-120v45h-161v-105h236v-120h-236v-122h161v44h120v-163h-437v118h-153l-55 -118h-150v119h56zM370 448l-96 -211h97v211h-1z" />
    <glyph glyph-name="AEacute.small" unicode="&#xf670;" horiz-adv-x="833" 
d="M240 466h-58v119h626v-164h-120v45h-161v-105h236v-120h-236v-122h161v44h120v-163h-437v118h-153l-55 -118h-150v119h56zM370 448l-96 -211h97v211h-1zM597 780l-79 -140h-115l52 140h142z" />
    <glyph glyph-name="Bsmall" unicode="&#xf762;" horiz-adv-x="576" 
d="M446 305v-1c61 -20 105 -64 105 -141c0 -103 -71 -163 -205 -163h-332v119h46v347h-46v119h314c134 0 205 -52 205 -150c0 -61 -36 -108 -87 -130zM320 241h-104v-122h105c38 0 67 18 67 62c0 42 -29 60 -68 60zM370 413c0 31 -20 53 -59 53h-95v-105h95
c39 0 59 21 59 52z" />
    <glyph glyph-name="Csmall" unicode="&#xf763;" horiz-adv-x="558" 
d="M413 179h120v-154c-88 -26 -151 -35 -227 -35c-220 0 -282 139 -282 307s62 298 282 298c76 0 139 -8 227 -34v-155h-120v62c-40 6 -65 8 -94 8c-91 0 -131 -71 -131 -179c0 -117 40 -188 131 -188c29 0 54 2 94 10v60z" />
    <glyph glyph-name="Cacute.small" unicode="&#xf671;" horiz-adv-x="558" 
d="M413 179h120v-154c-88 -26 -151 -35 -227 -35c-220 0 -282 139 -282 307s62 298 282 298c76 0 139 -8 227 -34v-155h-120v62c-40 6 -65 8 -94 8c-91 0 -131 -71 -131 -179c0 -117 40 -188 131 -188c29 0 54 2 94 10v60zM466 780l-79 -140h-115l52 140h142z" />
    <glyph glyph-name="Ccaron.small" unicode="&#xf672;" horiz-adv-x="558" 
d="M413 179h120v-154c-88 -26 -151 -35 -227 -35c-220 0 -282 139 -282 307s62 298 282 298c76 0 139 -8 227 -34v-155h-120v62c-40 6 -65 8 -94 8c-91 0 -131 -71 -131 -179c0 -117 40 -188 131 -188c29 0 54 2 94 10v60zM282 777l45 -55l45 55h89l-89 -137h-90l-89 137h89
z" />
    <glyph glyph-name="Ccedillasmall" unicode="&#xf7e7;" horiz-adv-x="558" 
d="M413 179h120v-154c-74 -22 -130 -31 -190 -34v-34c23 -3 65 -27 65 -79c0 -50 -47 -83 -113 -83c-24 0 -49 4 -75 12l8 55c16 -3 26 -5 41 -5c28 0 39 10 39 26c0 20 -19 33 -45 38v72c-186 17 -239 148 -239 304c0 168 62 298 282 298c76 0 139 -8 227 -34v-155h-120v62
c-40 6 -65 8 -94 8c-91 0 -131 -71 -131 -179c0 -117 40 -188 131 -188c29 0 54 2 94 10v60z" />
    <glyph glyph-name="Ccircumflex.small" unicode="&#xf673;" horiz-adv-x="558" 
d="M413 179h120v-154c-88 -26 -151 -35 -227 -35c-220 0 -282 139 -282 307s62 298 282 298c76 0 139 -8 227 -34v-155h-120v62c-40 6 -65 8 -94 8c-91 0 -131 -71 -131 -179c0 -117 40 -188 131 -188c29 0 54 2 94 10v60zM318 695l-45 -55h-89l89 137h90l89 -137h-89z" />
    <glyph glyph-name="Cdotaccent.small" unicode="&#xf674;" horiz-adv-x="558" 
d="M413 179h120v-154c-88 -26 -151 -35 -227 -35c-220 0 -282 139 -282 307s62 298 282 298c76 0 139 -8 227 -34v-155h-120v62c-40 6 -65 8 -94 8c-91 0 -131 -71 -131 -179c0 -117 40 -188 131 -188c29 0 54 2 94 10v60zM251 780h133v-135h-133v135z" />
    <glyph glyph-name="Dsmall" unicode="&#xf764;" horiz-adv-x="603" 
d="M14 585h283c218 0 281 -120 281 -288s-63 -297 -281 -297h-283v119h46v347h-46v119zM216 119h81c98 0 118 70 118 178s-20 169 -118 169h-81v-347z" />
    <glyph glyph-name="Dcaron.small" unicode="&#xf675;" horiz-adv-x="603" 
d="M14 585h283c218 0 281 -120 281 -288s-63 -297 -281 -297h-283v119h46v347h-46v119zM216 119h81c98 0 118 70 118 178s-20 169 -118 169h-81v-347zM246 777l45 -55l45 55h89l-89 -137h-90l-89 137h89z" />
    <glyph glyph-name="Dcroat.small" horiz-adv-x="603" 
d="M14 585h283c218 0 281 -120 281 -288s-63 -297 -281 -297h-283v119h46v135h-46v86h46v126h-46v119zM216 119h81c98 0 118 70 118 178s-20 169 -118 169h-81v-126h90v-86h-90v-135z" />
    <glyph glyph-name="Esmall" unicode="&#xf765;" horiz-adv-x="522" 
d="M14 585h483v-164h-120v45h-161v-105h236v-120h-236v-122h161v45h120v-164h-483v119h46v347h-46v119z" />
    <glyph glyph-name="Eacutesmall" unicode="&#xf7e9;" horiz-adv-x="522" 
d="M14 585h483v-164h-120v45h-161v-105h236v-120h-236v-122h161v45h120v-164h-483v119h46v347h-46v119zM397 780l-79 -140h-115l52 140h142z" />
    <glyph glyph-name="Ebreve.small" unicode="&#xf677;" horiz-adv-x="522" 
d="M14 585h483v-164h-120v45h-161v-105h236v-120h-236v-122h161v45h120v-164h-483v119h46v347h-46v119zM273 729c41 0 58 21 73 61h77c-10 -85 -54 -146 -150 -146s-140 61 -150 146h77c15 -40 32 -61 73 -61z" />
    <glyph glyph-name="Ecaron.small" unicode="&#xf678;" horiz-adv-x="522" 
d="M14 585h483v-164h-120v45h-161v-105h236v-120h-236v-122h161v45h120v-164h-483v119h46v347h-46v119zM225 777l45 -55l45 55h89l-89 -137h-90l-89 137h89z" />
    <glyph glyph-name="Ecircumflexsmall" unicode="&#xf7ea;" horiz-adv-x="522" 
d="M14 585h483v-164h-120v45h-161v-105h236v-120h-236v-122h161v45h120v-164h-483v119h46v347h-46v119zM267 695l-45 -55h-89l89 137h90l89 -137h-89z" />
    <glyph glyph-name="Edieresissmall" unicode="&#xf7eb;" horiz-adv-x="522" 
d="M14 585h483v-164h-120v45h-161v-105h236v-120h-236v-122h161v45h120v-164h-483v119h46v347h-46v119zM121 747h106v-105h-106v105zM309 747h106v-105h-106v105z" />
    <glyph glyph-name="Edotaccent.small" unicode="&#xf679;" horiz-adv-x="522" 
d="M14 585h483v-164h-120v45h-161v-105h236v-120h-236v-122h161v45h120v-164h-483v119h46v347h-46v119zM196 780h133v-135h-133v135z" />
    <glyph glyph-name="Egravesmall" unicode="&#xf7e8;" horiz-adv-x="522" 
d="M14 585h483v-164h-120v45h-161v-105h236v-120h-236v-122h161v45h120v-164h-483v119h46v347h-46v119zM195 640l-80 140h142l53 -140h-115z" />
    <glyph glyph-name="Emacron.small" unicode="&#xf67a;" horiz-adv-x="522" 
d="M14 585h483v-164h-120v45h-161v-105h236v-120h-236v-122h161v45h120v-164h-483v119h46v347h-46v119zM136 752h272v-106h-272v106z" />
    <glyph glyph-name="Eogonek.small" horiz-adv-x="522" 
d="M14 585h483v-164h-120v45h-161v-105h236v-120h-236v-122h161v44h120v-163c-33 -26 -49 -53 -49 -79c0 -29 21 -45 54 -45c11 0 22 2 34 6l4 -33c-20 -16 -60 -25 -88 -25c-62 0 -101 31 -101 72c0 36 25 74 77 104h-414v119h46v347h-46v119z" />
    <glyph glyph-name="Fsmall" unicode="&#xf766;" horiz-adv-x="508" 
d="M14 585h474v-164h-120v45h-152v-122h227v-120h-227v-105h45v-119h-247v119h46v347h-46v119z" />
    <glyph glyph-name="Gsmall" unicode="&#xf767;" horiz-adv-x="567" 
d="M188 297c0 -117 41 -179 131 -179c19 0 38 3 60 10v61h-76v119h230v-283c-87 -26 -150 -35 -227 -35c-219 0 -282 139 -282 307s62 298 282 298c76 0 139 -8 227 -34v-155h-120v62c-40 6 -65 8 -94 8c-91 0 -131 -71 -131 -179z" />
    <glyph glyph-name="Gbreve.small" unicode="&#xf67d;" horiz-adv-x="567" 
d="M188 297c0 -117 41 -179 131 -179c19 0 38 3 60 10v61h-76v119h230v-283c-87 -26 -150 -35 -227 -35c-219 0 -282 139 -282 307s62 298 282 298c76 0 139 -8 227 -34v-155h-120v62c-40 6 -65 8 -94 8c-91 0 -131 -71 -131 -179zM319 729c41 0 58 21 73 61h77
c-10 -85 -54 -146 -150 -146s-140 61 -150 146h77c15 -40 32 -61 73 -61z" />
    <glyph glyph-name="Gcircumflex.small" unicode="&#xf67e;" horiz-adv-x="567" 
d="M188 297c0 -117 41 -179 131 -179c19 0 38 3 60 10v61h-76v119h230v-283c-87 -26 -150 -35 -227 -35c-219 0 -282 139 -282 307s62 298 282 298c76 0 139 -8 227 -34v-155h-120v62c-40 6 -65 8 -94 8c-91 0 -131 -71 -131 -179zM319 695l-45 -55h-89l89 137h90l89 -137
h-89z" />
    <glyph glyph-name="Gcommaaccent.small" unicode="&#xf67f;" horiz-adv-x="567" 
d="M188 297c0 -117 41 -179 131 -179c19 0 38 3 60 10v61h-76v119h230v-283c-87 -26 -150 -35 -227 -35c-219 0 -282 139 -282 307s62 298 282 298c76 0 139 -8 227 -34v-155h-120v62c-40 6 -65 8 -94 8c-91 0 -131 -71 -131 -179zM318 -265h-45l27 101h-61v124h150v-124z
" />
    <glyph glyph-name="Gdotaccent.small" unicode="&#xf680;" horiz-adv-x="567" 
d="M188 297c0 -117 41 -179 131 -179c19 0 38 3 60 10v61h-76v119h230v-283c-87 -26 -150 -35 -227 -35c-219 0 -282 139 -282 307s62 298 282 298c76 0 139 -8 227 -34v-155h-120v62c-40 6 -65 8 -94 8c-91 0 -131 -71 -131 -179zM250 780h133v-135h-133v135z" />
    <glyph glyph-name="Hsmall" unicode="&#xf768;" horiz-adv-x="621" 
d="M359 119h46v122h-189v-122h45v-119h-247v119h46v347h-46v119h247v-119h-45v-105h189v105h-46v119h248v-119h-47v-347h47v-119h-248v119z" />
    <glyph glyph-name="Hbar.small" horiz-adv-x="621" 
d="M359 119h46v122h-189v-122h45v-119h-247v119h46v273h-45v34h45v40h-46v119h247v-119h-45v-40h189v40h-46v119h248v-119h-47v-40h46v-34h-46v-273h47v-119h-248v119zM216 343h189v49h-189v-49z" />
    <glyph glyph-name="Hcircumflex.small" unicode="&#xf682;" horiz-adv-x="621" 
d="M359 119h46v122h-189v-122h45v-119h-247v119h46v347h-46v119h247v-119h-45v-105h189v105h-46v119h248v-119h-47v-347h47v-119h-248v119zM317 695l-45 -55h-89l89 137h90l89 -137h-89z" />
    <glyph glyph-name="Ismall" unicode="&#xf769;" horiz-adv-x="275" 
d="M14 119h46v347h-46v119h247v-119h-45v-347h45v-119h-247v119z" />
    <glyph glyph-name="Iacutesmall" unicode="&#xf7ed;" horiz-adv-x="275" 
d="M14 119h46v347h-46v119h247v-119h-45v-347h45v-119h-247v119zM274 780l-79 -140h-115l52 140h142z" />
    <glyph glyph-name="Ibreve.small" unicode="&#xf683;" horiz-adv-x="275" 
d="M14 119h46v347h-46v119h247v-119h-45v-347h45v-119h-247v119zM137 729c41 0 58 21 73 61h77c-10 -85 -54 -146 -150 -146s-140 61 -150 146h77c15 -40 32 -61 73 -61z" />
    <glyph glyph-name="Icircumflexsmall" unicode="&#xf7ee;" horiz-adv-x="275" 
d="M14 119h46v347h-46v119h247v-119h-45v-347h45v-119h-247v119zM137 695l-45 -55h-89l89 137h90l89 -137h-89z" />
    <glyph glyph-name="Idieresissmall" unicode="&#xf7ef;" horiz-adv-x="275" 
d="M14 119h46v347h-46v119h247v-119h-45v-347h45v-119h-247v119zM-10 747h106v-105h-106v105zM178 747h106v-105h-106v105z" />
    <glyph glyph-name="Idotaccent.small" unicode="&#xf6ad;" horiz-adv-x="275" 
d="M14 119h46v347h-46v119h247v-119h-45v-347h45v-119h-247v119zM71 780h133v-135h-133v135z" />
    <glyph glyph-name="Igravesmall" unicode="&#xf7ec;" horiz-adv-x="275" 
d="M14 119h46v347h-46v119h247v-119h-45v-347h45v-119h-247v119zM83 640l-80 140h142l53 -140h-115z" />
    <glyph glyph-name="Imacron.small" unicode="&#xf685;" horiz-adv-x="275" 
d="M14 119h46v347h-46v119h247v-119h-45v-347h45v-119h-247v119zM1 752h272v-106h-272v106z" />
    <glyph glyph-name="Iogonek.small" horiz-adv-x="275" 
d="M217 -118l5 -33c-21 -16 -61 -25 -90 -25c-61 0 -100 31 -100 72c0 36 25 74 76 104h-94v119h46v347h-46v119h247v-119h-45v-347h45v-119h-83c-32 -26 -49 -53 -49 -79c0 -29 21 -45 54 -45c11 0 22 2 34 6z" />
    <glyph glyph-name="Itilde.small" unicode="&#xf687;" horiz-adv-x="275" 
d="M14 119h46v347h-46v119h247v-119h-45v-347h45v-119h-247v119zM78 665c-20 0 -37 -6 -67 -38l-46 53c32 76 74 96 109 96c50 0 99 -40 133 -40c18 0 36 7 65 39l37 -63c-18 -38 -50 -83 -102 -83c-38 0 -91 36 -129 36z" />
    <glyph glyph-name="IJ.small" horiz-adv-x="622" 
d="M14 119h46v347h-46v119h247v-119h-45v-347h45v-119h-247v119zM362 585h247v-119h-46v-302c0 -121 -70 -174 -177 -174c-44 0 -79 4 -106 9l14 119c16 -2 31 -4 49 -4c30 0 64 5 64 50v302h-45v119z" />
    <glyph glyph-name="Jsmall" unicode="&#xf76a;" horiz-adv-x="356" 
d="M95 585h247v-119h-45v-303c0 -121 -71 -173 -178 -173c-43 0 -79 4 -105 9l13 119c17 -2 32 -4 50 -4c29 0 64 5 64 49v303h-46v119z" />
    <glyph glyph-name="Jcircumflex.small" unicode="&#xf688;" horiz-adv-x="356" 
d="M95 585h247v-119h-45v-303c0 -121 -71 -173 -178 -173c-43 0 -79 4 -105 9l13 119c17 -2 32 -4 50 -4c29 0 64 5 64 49v303h-46v119zM216 695l-45 -55h-89l89 137h90l89 -137h-89z" />
    <glyph glyph-name="Ksmall" unicode="&#xf76b;" horiz-adv-x="621" 
d="M14 585h247v-119h-45v-150l148 150h-33v119h267v-119h-48l-152 -139l169 -208h40v-119h-275v119h34l-84 107l-66 -64v-43h45v-119h-247v119h46v347h-46v119z" />
    <glyph glyph-name="Kcommaaccent.small" unicode="&#xf689;" horiz-adv-x="621" 
d="M14 585h247v-119h-45v-150l148 150h-33v119h267v-119h-48l-152 -139l169 -208h40v-119h-275v119h34l-84 107l-66 -64v-43h45v-119h-247v119h46v347h-46v119zM305 -265h-45l27 101h-61v124h150v-124z" />
    <glyph glyph-name="Lsmall" unicode="&#xf76c;" horiz-adv-x="504" 
d="M368 164h120v-164h-474v119h46v347h-46v119h247v-119h-45v-347h152v45z" />
    <glyph glyph-name="Lacute.small" unicode="&#xf68a;" horiz-adv-x="504" 
d="M368 164h120v-164h-474v119h46v347h-46v119h247v-119h-45v-347h152v45zM280 780l-79 -140h-115l52 140h142z" />
    <glyph glyph-name="Lcaron.small" unicode="&#xf68b;" horiz-adv-x="504" 
d="M368 164h120v-164h-474v119h46v347h-46v119h247v-119h-45v-347h152v45zM386 360h-45l27 101h-61v124h150v-124z" />
    <glyph glyph-name="Lcommaaccent.small" unicode="&#xf68c;" horiz-adv-x="504" 
d="M368 164h120v-164h-474v119h46v347h-46v119h247v-119h-45v-347h152v45zM274 -265h-45l27 101h-61v124h150v-124z" />
    <glyph glyph-name="Ldot.small" unicode="&#xf68d;" horiz-adv-x="504" 
d="M368 164h120v-164h-474v119h46v347h-46v119h247v-119h-45v-347h152v45zM287 399h133v-135h-133v135z" />
    <glyph glyph-name="Lslashsmall" unicode="&#xf6f9;" horiz-adv-x="504" 
d="M14 288l46 12v166h-46v119h247v-119h-45v-121l45 12v-69l-45 -12v-157h152v44h120v-163h-474v119h46v113l-46 -12v68z" />
    <glyph glyph-name="Msmall" unicode="&#xf76d;" horiz-adv-x="765" 
d="M523 585h228v-119h-47v-347h47v-119h-241v119h39v211h-1l-126 -330h-80l-137 330h-2v-211h42v-119h-231v119h46v347h-46v119h231l146 -348h2z" />
    <glyph glyph-name="Nsmall" unicode="&#xf76e;" horiz-adv-x="630" 
d="M377 585h239v-119h-47v-466h-137l-227 322l-2 -9v-194h50v-119h-239v119h46v347h-46v119h175l236 -338l2 8v211h-50v119z" />
    <glyph glyph-name="Nacute.small" unicode="&#xf68e;" horiz-adv-x="630" 
d="M377 585h239v-119h-47v-466h-137l-227 322l-2 -9v-194h50v-119h-239v119h46v347h-46v119h175l236 -338l2 8v211h-50v119zM474 780l-79 -140h-115l52 140h142z" />
    <glyph glyph-name="Ncaron.small" unicode="&#xf68f;" horiz-adv-x="630" 
d="M377 585h239v-119h-47v-466h-137l-227 322l-2 -9v-194h50v-119h-239v119h46v347h-46v119h175l236 -338l2 8v211h-50v119zM271 777l45 -55l45 55h89l-89 -137h-90l-89 137h89z" />
    <glyph glyph-name="Ncommaaccent.small" unicode="&#xf690;" horiz-adv-x="630" 
d="M377 585h239v-119h-47v-466h-137l-227 322l-2 -9v-194h50v-119h-239v119h46v347h-46v119h175l236 -338l2 8v211h-50v119zM316 -265h-45l27 101h-61v124h150v-124z" />
    <glyph glyph-name="Ntildesmall" unicode="&#xf7f1;" horiz-adv-x="630" 
d="M377 585h239v-119h-47v-466h-137l-227 322l-2 -9v-194h50v-119h-239v119h46v347h-46v119h175l236 -338l2 8v211h-50v119zM266 665c-20 0 -37 -6 -67 -38l-46 53c32 76 74 96 109 96c50 0 99 -40 133 -40c18 0 36 7 65 39l37 -63c-18 -38 -50 -83 -102 -83
c-38 0 -91 36 -129 36z" />
    <glyph glyph-name="Osmall" unicode="&#xf76f;" horiz-adv-x="612" 
d="M306 476c-100 0 -118 -71 -118 -179s18 -188 118 -188c99 0 118 80 118 188s-19 179 -118 179zM306 -10c-220 0 -282 139 -282 307s62 298 282 298c219 0 281 -130 281 -298s-62 -307 -281 -307z" />
    <glyph glyph-name="Oacutesmall" unicode="&#xf7f3;" horiz-adv-x="612" 
d="M306 476c-100 0 -118 -71 -118 -179s18 -188 118 -188c99 0 118 80 118 188s-19 179 -118 179zM306 -10c-220 0 -282 139 -282 307s62 298 282 298c219 0 281 -130 281 -298s-62 -307 -281 -307zM454 780l-79 -140h-115l52 140h142z" />
    <glyph glyph-name="Obreve.small" unicode="&#xf691;" horiz-adv-x="612" 
d="M306 476c-100 0 -118 -71 -118 -179s18 -188 118 -188c99 0 118 80 118 188s-19 179 -118 179zM306 -10c-220 0 -282 139 -282 307s62 298 282 298c219 0 281 -130 281 -298s-62 -307 -281 -307zM305 729c41 0 58 21 73 61h77c-10 -85 -54 -146 -150 -146
s-140 61 -150 146h77c15 -40 32 -61 73 -61z" />
    <glyph glyph-name="Ocircumflexsmall" unicode="&#xf7f4;" horiz-adv-x="612" 
d="M306 476c-100 0 -118 -71 -118 -179s18 -188 118 -188c99 0 118 80 118 188s-19 179 -118 179zM306 -10c-220 0 -282 139 -282 307s62 298 282 298c219 0 281 -130 281 -298s-62 -307 -281 -307zM305 695l-45 -55h-89l89 137h90l89 -137h-89z" />
    <glyph glyph-name="Odieresissmall" unicode="&#xf7f6;" horiz-adv-x="612" 
d="M306 476c-100 0 -118 -71 -118 -179s18 -188 118 -188c99 0 118 80 118 188s-19 179 -118 179zM306 -10c-220 0 -282 139 -282 307s62 298 282 298c219 0 281 -130 281 -298s-62 -307 -281 -307zM158 747h106v-105h-106v105zM346 747h106v-105h-106v105z" />
    <glyph glyph-name="Ogravesmall" unicode="&#xf7f2;" horiz-adv-x="612" 
d="M306 476c-100 0 -118 -71 -118 -179s18 -188 118 -188c99 0 118 80 118 188s-19 179 -118 179zM306 -10c-220 0 -282 139 -282 307s62 298 282 298c219 0 281 -130 281 -298s-62 -307 -281 -307zM233 640l-80 140h142l53 -140h-115z" />
    <glyph glyph-name="Ohungarumlaut.small" unicode="&#xf692;" horiz-adv-x="612" 
d="M306 476c-100 0 -118 -71 -118 -179s18 -188 118 -188c99 0 118 80 118 188s-19 179 -118 179zM306 -10c-220 0 -282 139 -282 307s62 298 282 298c219 0 281 -130 281 -298s-62 -307 -281 -307zM361 780l-97 -140h-80l53 140h124zM531 780l-97 -140h-80l53 140h124z" />
    <glyph glyph-name="Omacron.small" unicode="&#xf693;" horiz-adv-x="612" 
d="M306 476c-100 0 -118 -71 -118 -179s18 -188 118 -188c99 0 118 80 118 188s-19 179 -118 179zM306 -10c-220 0 -282 139 -282 307s62 298 282 298c219 0 281 -130 281 -298s-62 -307 -281 -307zM169 752h272v-106h-272v106z" />
    <glyph glyph-name="Otildesmall" unicode="&#xf7f5;" horiz-adv-x="612" 
d="M306 476c-100 0 -118 -71 -118 -179s18 -188 118 -188c99 0 118 80 118 188s-19 179 -118 179zM306 -10c-220 0 -282 139 -282 307s62 298 282 298c219 0 281 -130 281 -298s-62 -307 -281 -307zM246 665c-20 0 -37 -6 -67 -38l-46 53c32 76 74 96 109 96
c50 0 99 -40 133 -40c18 0 36 7 65 39l37 -63c-18 -38 -50 -83 -102 -83c-38 0 -91 36 -129 36z" />
    <glyph glyph-name="Oslashsmall" unicode="&#xf7f8;" horiz-adv-x="612" 
d="M306 -10c-79 0 -136 19 -179 48l-60 -72l-44 34l63 75c-45 56 -62 135 -62 222c0 168 62 298 282 298c75 0 132 -18 174 -43l64 77l44 -34l-67 -79c49 -54 66 -131 66 -219c0 -168 -62 -307 -281 -307zM306 118c99 0 118 71 118 179c0 33 -3 62 -10 86l-195 -230
c18 -22 45 -35 87 -35zM306 468c-100 0 -118 -63 -118 -171c0 -31 1 -60 7 -85l194 227c-17 17 -44 29 -83 29z" />
    <glyph glyph-name="Oslashacute.small" unicode="&#xf694;" horiz-adv-x="612" 
d="M467 780l-79 -140h-115l52 140h142zM306 -10c-79 0 -136 19 -179 48l-60 -72l-44 34l63 75c-45 56 -62 135 -62 222c0 168 62 298 282 298c75 0 132 -18 174 -43l64 77l44 -34l-67 -79c49 -54 66 -131 66 -219c0 -168 -62 -307 -281 -307zM306 118c99 0 118 71 118 179
c0 33 -3 62 -10 86l-195 -230c18 -22 45 -35 87 -35zM306 468c-100 0 -118 -63 -118 -171c0 -31 1 -60 7 -85l194 227c-17 17 -44 29 -83 29z" />
    <glyph glyph-name="OEsmall" unicode="&#xf6fa;" horiz-adv-x="893" 
d="M306 474c-100 0 -118 -69 -118 -177s18 -187 118 -187c99 0 118 79 118 186c0 109 -19 178 -118 178zM869 0h-418v39c-45 -34 -108 -48 -145 -48c-221 0 -282 137 -282 306c0 168 62 296 282 296c38 0 103 -12 145 -46v38h418v-164h-120v45h-162v-105h237v-120h-237v-122
h162v44h120v-163z" />
    <glyph glyph-name="Psmall" unicode="&#xf770;" horiz-adv-x="567" 
d="M14 585h315c134 0 213 -69 213 -193s-79 -193 -213 -193h-113v-80h45v-119h-247v119h46v347h-46v119zM216 466v-148h96c38 0 71 22 71 74c0 51 -33 74 -71 74h-96z" />
    <glyph glyph-name="Qsmall" unicode="&#xf771;" horiz-adv-x="612" 
d="M24 297c0 168 62 298 282 298c219 0 281 -130 281 -298c0 -152 -70 -237 -178 -250c2 -17 119 -9 160 -5v-137c-136 -15 -247 15 -293 86c-190 14 -252 147 -252 306zM306 476c-100 0 -118 -71 -118 -179s18 -187 118 -187c99 0 118 79 118 187s-19 179 -118 179z" />
    <glyph glyph-name="Rsmall" unicode="&#xf772;" 
d="M14 585h315c134 0 213 -65 213 -189c0 -77 -37 -138 -102 -163l102 -114h38v-119h-261v119h44l-76 88h-71v-88h43v-119h-245v119h46v347h-46v119zM216 466v-139h95c39 0 72 17 72 69c0 51 -33 70 -71 70h-96z" />
    <glyph glyph-name="Racute.small" unicode="&#xf695;" 
d="M415 780l-79 -140h-115l52 140h142zM14 585h315c134 0 213 -65 213 -189c0 -77 -37 -138 -102 -163l102 -114h38v-119h-261v119h44l-76 88h-71v-88h43v-119h-245v119h46v347h-46v119zM216 466v-139h95c39 0 72 17 72 69c0 51 -33 70 -71 70h-96z" />
    <glyph glyph-name="Rcaron.small" unicode="&#xf696;" 
d="M245 777l45 -55l45 55h89l-89 -137h-90l-89 137h89zM14 585h315c134 0 213 -65 213 -189c0 -77 -37 -138 -102 -163l102 -114h38v-119h-261v119h44l-76 88h-71v-88h43v-119h-245v119h46v347h-46v119zM216 466v-139h95c39 0 72 17 72 69c0 51 -33 70 -71 70h-96z" />
    <glyph glyph-name="Rcommaaccent.small" unicode="&#xf697;" 
d="M296 -265h-45l27 101h-61v124h150v-124zM14 585h315c134 0 213 -65 213 -189c0 -77 -37 -138 -102 -163l102 -114h38v-119h-261v119h44l-76 88h-71v-88h43v-119h-245v119h46v347h-46v119zM216 466v-139h95c39 0 72 17 72 69c0 51 -33 70 -71 70h-96z" />
    <glyph glyph-name="Ssmall" unicode="&#xf773;" horiz-adv-x="531" 
d="M24 188h121v-56c51 -9 90 -14 120 -14c50 0 78 15 78 45c0 40 -58 48 -133 69c-111 32 -185 91 -185 190c0 123 107 173 232 173c71 0 134 -8 223 -34v-164h-121v62c-44 6 -73 9 -102 9c-41 0 -68 -16 -68 -42c0 -31 44 -47 124 -65c112 -25 193 -77 193 -181
c0 -133 -106 -190 -241 -190c-71 0 -152 10 -241 36v162z" />
    <glyph glyph-name="Sacute.small" unicode="&#xf698;" horiz-adv-x="531" 
d="M24 188h121v-56c51 -9 90 -14 120 -14c50 0 78 15 78 45c0 40 -58 48 -133 69c-111 32 -185 91 -185 190c0 123 107 173 232 173c71 0 134 -8 223 -34v-164h-121v62c-44 6 -73 9 -102 9c-41 0 -68 -16 -68 -42c0 -31 44 -47 124 -65c112 -25 193 -77 193 -181
c0 -133 -106 -190 -241 -190c-71 0 -152 10 -241 36v162zM409 780l-79 -140h-115l52 140h142z" />
    <glyph glyph-name="Scaronsmall" unicode="&#xf6fd;" horiz-adv-x="531" 
d="M24 188h121v-56c51 -9 90 -14 120 -14c50 0 78 15 78 45c0 40 -58 48 -133 69c-111 32 -185 91 -185 190c0 123 107 173 232 173c71 0 134 -8 223 -34v-164h-121v62c-44 6 -73 9 -102 9c-41 0 -68 -16 -68 -42c0 -31 44 -47 124 -65c112 -25 193 -77 193 -181
c0 -133 -106 -190 -241 -190c-71 0 -152 10 -241 36v162zM225 777l45 -55l45 55h89l-89 -137h-90l-89 137h89z" />
    <glyph glyph-name="Scedilla.small" horiz-adv-x="531" 
d="M210 -79v72c-57 3 -119 13 -186 33v162h121v-56c51 -9 90 -14 120 -14c50 0 78 15 78 45c0 40 -58 48 -133 69c-111 32 -185 91 -185 190c0 123 107 173 232 173c71 0 134 -8 223 -34v-164h-121v62c-44 6 -73 9 -102 9c-41 0 -68 -16 -68 -42c0 -31 44 -47 124 -65
c112 -25 193 -77 193 -181c0 -125 -93 -182 -216 -189v-34c23 -3 66 -27 66 -79c0 -50 -47 -83 -114 -83c-24 0 -48 4 -75 12l9 55c16 -3 25 -5 41 -5c28 0 39 10 39 26c0 20 -19 33 -46 38z" />
    <glyph glyph-name="Scircumflex.small" unicode="&#xf69a;" horiz-adv-x="531" 
d="M24 188h121v-56c51 -9 90 -14 120 -14c50 0 78 15 78 45c0 40 -58 48 -133 69c-111 32 -185 91 -185 190c0 123 107 173 232 173c71 0 134 -8 223 -34v-164h-121v62c-44 6 -73 9 -102 9c-41 0 -68 -16 -68 -42c0 -31 44 -47 124 -65c112 -25 193 -77 193 -181
c0 -133 -106 -190 -241 -190c-71 0 -152 10 -241 36v162zM277 695l-45 -55h-89l89 137h90l89 -137h-89z" />
    <glyph glyph-name="Scommaaccent.small" unicode="&#xf69b;" horiz-adv-x="531" 
d="M24 188h121v-56c51 -9 90 -14 120 -14c50 0 78 15 78 45c0 40 -58 48 -133 69c-111 32 -185 91 -185 190c0 123 107 173 232 173c71 0 134 -8 223 -34v-164h-121v62c-44 6 -73 9 -102 9c-41 0 -68 -16 -68 -42c0 -31 44 -47 124 -65c112 -25 193 -77 193 -181
c0 -133 -106 -190 -241 -190c-71 0 -152 10 -241 36v162zM277 -265h-45l27 101h-61v124h150v-124z" />
    <glyph glyph-name="Tsmall" unicode="&#xf774;" horiz-adv-x="531" 
d="M16 585h499v-164h-121v45h-51v-347h46v-119h-247v119h46v347h-51v-45h-121v164z" />
    <glyph glyph-name="Tcaron.small" unicode="&#xf69d;" horiz-adv-x="531" 
d="M16 585h499v-164h-121v45h-51v-347h46v-119h-247v119h46v347h-51v-45h-121v164zM220 777l45 -55l45 55h89l-89 -137h-90l-89 137h89z" />
    <glyph glyph-name="Tbar.small" horiz-adv-x="531" 
d="M16 585h499v-164h-121v45h-51v-156h64v-86h-64v-105h46v-119h-247v119h46v105h-64v86h64v156h-51v-45h-121v164z" />
    <glyph glyph-name="Tcommaaccent.small" unicode="&#xf69e;" horiz-adv-x="531" 
d="M16 585h499v-164h-121v45h-51v-347h46v-119h-247v119h46v347h-51v-45h-121v164zM269 -265h-45l27 101h-61v124h150v-124z" />
    <glyph glyph-name="Usmall" unicode="&#xf775;" horiz-adv-x="621" 
d="M359 585h248v-119h-47v-260c0 -155 -105 -216 -250 -216c-144 0 -250 61 -250 216v260h-46v119h247v-119h-45v-260c0 -60 25 -97 95 -97c68 0 94 37 94 97v260h-46v119z" />
    <glyph glyph-name="Uacutesmall" unicode="&#xf7fa;" horiz-adv-x="621" 
d="M359 585h248v-119h-47v-260c0 -155 -105 -216 -250 -216c-144 0 -250 61 -250 216v260h-46v119h247v-119h-45v-260c0 -60 25 -97 95 -97c68 0 94 37 94 97v260h-46v119zM469 780l-79 -140h-115l52 140h142z" />
    <glyph glyph-name="Ubreve.small" unicode="&#xf69f;" horiz-adv-x="621" 
d="M359 585h248v-119h-47v-260c0 -155 -105 -216 -250 -216c-144 0 -250 61 -250 216v260h-46v119h247v-119h-45v-260c0 -60 25 -97 95 -97c68 0 94 37 94 97v260h-46v119zM310 729c41 0 58 21 73 61h77c-10 -85 -54 -146 -150 -146s-140 61 -150 146h77
c15 -40 32 -61 73 -61z" />
    <glyph glyph-name="Ucircumflexsmall" unicode="&#xf7fb;" horiz-adv-x="621" 
d="M359 585h248v-119h-47v-260c0 -155 -105 -216 -250 -216c-144 0 -250 61 -250 216v260h-46v119h247v-119h-45v-260c0 -60 25 -97 95 -97c68 0 94 37 94 97v260h-46v119zM310 695l-45 -55h-89l89 137h90l89 -137h-89z" />
    <glyph glyph-name="Udieresissmall" unicode="&#xf7fc;" horiz-adv-x="621" 
d="M359 585h248v-119h-47v-260c0 -155 -105 -216 -250 -216c-144 0 -250 61 -250 216v260h-46v119h247v-119h-45v-260c0 -60 25 -97 95 -97c68 0 94 37 94 97v260h-46v119zM163 747h106v-105h-106v105zM351 747h106v-105h-106v105z" />
    <glyph glyph-name="Uhungarumlaut.small" unicode="&#xf6a0;" horiz-adv-x="621" 
d="M359 585h248v-119h-47v-260c0 -155 -105 -216 -250 -216c-144 0 -250 61 -250 216v260h-46v119h247v-119h-45v-260c0 -60 25 -97 95 -97c68 0 94 37 94 97v260h-46v119zM376 780l-97 -140h-80l53 140h124zM546 780l-97 -140h-80l53 140h124z" />
    <glyph glyph-name="Ugravesmall" unicode="&#xf7f9;" horiz-adv-x="621" 
d="M359 585h248v-119h-47v-260c0 -155 -105 -216 -250 -216c-144 0 -250 61 -250 216v260h-46v119h247v-119h-45v-260c0 -60 25 -97 95 -97c68 0 94 37 94 97v260h-46v119zM250 640l-80 140h142l53 -140h-115z" />
    <glyph glyph-name="Umacron.small" unicode="&#xf6a1;" horiz-adv-x="621" 
d="M359 585h248v-119h-47v-260c0 -155 -105 -216 -250 -216c-144 0 -250 61 -250 216v260h-46v119h247v-119h-45v-260c0 -60 25 -97 95 -97c68 0 94 37 94 97v260h-46v119zM174 752h272v-106h-272v106z" />
    <glyph glyph-name="Uogonek.small" horiz-adv-x="621" 
d="M359 585h248v-119h-47v-260c0 -144 -93 -207 -223 -215c-27 -23 -38 -47 -38 -70c0 -29 20 -45 53 -45c11 0 22 2 34 6l5 -33c-21 -16 -61 -25 -90 -25c-61 0 -100 31 -100 72c0 34 21 68 66 97c-122 11 -207 75 -207 213v260h-46v119h247v-119h-45v-260
c0 -60 25 -97 95 -97c68 0 94 37 94 97v260h-46v119z" />
    <glyph glyph-name="Uring.small" unicode="&#xf6a3;" horiz-adv-x="621" 
d="M359 585h248v-119h-47v-260c0 -155 -105 -216 -250 -216c-144 0 -250 61 -250 216v260h-46v119h247v-119h-45v-260c0 -60 25 -97 95 -97c68 0 94 37 94 97v260h-46v119zM212 730c0 54 44 98 98 98s98 -44 98 -98s-44 -98 -98 -98s-98 44 -98 98zM267 730
c0 -24 19 -43 43 -43s43 19 43 43s-19 43 -43 43s-43 -19 -43 -43z" />
    <glyph glyph-name="Utilde.small" unicode="&#xf6a4;" horiz-adv-x="621" 
d="M359 585h248v-119h-47v-260c0 -155 -105 -216 -250 -216c-144 0 -250 61 -250 216v260h-46v119h247v-119h-45v-260c0 -60 25 -97 95 -97c68 0 94 37 94 97v260h-46v119zM251 665c-20 0 -37 -6 -67 -38l-46 53c32 76 74 96 109 96c50 0 99 -40 133 -40c18 0 36 7 65 39
l37 -63c-18 -38 -50 -83 -102 -83c-38 0 -91 36 -129 36z" />
    <glyph glyph-name="Vsmall" unicode="&#xf776;" horiz-adv-x="630" 
d="M359 585h257v-119h-47l-155 -470h-194l-159 470h-47v119h265v-119h-53l97 -314h1l88 314h-53v119z" />
    <glyph glyph-name="Wsmall" unicode="&#xf777;" horiz-adv-x="891" 
d="M14 585h265v-119h-56l67 -287h1l85 406h164l93 -406h1l60 287h-57v119h240v-119h-44l-108 -470h-203l-74 316h-2l-69 -316h-202l-118 470h-43v119z" />
    <glyph glyph-name="Wacute.small" unicode="&#xf6a5;" horiz-adv-x="891" 
d="M14 585h265v-119h-56l67 -287h1l85 406h164l93 -406h1l60 287h-57v119h240v-119h-44l-108 -470h-203l-74 316h-2l-69 -316h-202l-118 470h-43v119zM599 780l-79 -140h-115l52 140h142z" />
    <glyph glyph-name="Wcircumflex.small" unicode="&#xf6a6;" horiz-adv-x="891" 
d="M14 585h265v-119h-56l67 -287h1l85 406h164l93 -406h1l60 287h-57v119h240v-119h-44l-108 -470h-203l-74 316h-2l-69 -316h-202l-118 470h-43v119zM445 695l-45 -55h-89l89 137h90l89 -137h-89z" />
    <glyph glyph-name="Wdieresis.small" unicode="&#xf6a7;" horiz-adv-x="891" 
d="M14 585h265v-119h-56l67 -287h1l85 406h164l93 -406h1l60 287h-57v119h240v-119h-44l-108 -470h-203l-74 316h-2l-69 -316h-202l-118 470h-43v119zM298 747h106v-105h-106v105zM486 747h106v-105h-106v105z" />
    <glyph glyph-name="Wgrave.small" unicode="&#xf6a8;" horiz-adv-x="891" 
d="M14 585h265v-119h-56l67 -287h1l85 406h164l93 -406h1l60 287h-57v119h240v-119h-44l-108 -470h-203l-74 316h-2l-69 -316h-202l-118 470h-43v119zM380 640l-80 140h142l53 -140h-115z" />
    <glyph glyph-name="Xsmall" unicode="&#xf778;" horiz-adv-x="639" 
d="M376 585h240v-119h-43l-142 -174l140 -173h54v-119h-296v119h40l-70 98l-73 -98h37v-119h-249v119h51l143 173l-138 174h-47v119h287v-119h-39l71 -95l70 95h-36v119z" />
    <glyph glyph-name="Ysmall" unicode="&#xf779;" horiz-adv-x="603" 
d="M379 119h46v-119h-247v119h46v58l-159 289h-51v119h274v-119h-50l75 -154h2l71 154h-46v119h249v-119h-48l-162 -289v-58z" />
    <glyph glyph-name="Yacutesmall" unicode="&#xf7fd;" horiz-adv-x="603" 
d="M379 119h46v-119h-247v119h46v58l-159 289h-51v119h274v-119h-50l75 -154h2l71 154h-46v119h249v-119h-48l-162 -289v-58zM457 780l-79 -140h-115l52 140h142z" />
    <glyph glyph-name="Ycircumflex.small" unicode="&#xf6a9;" horiz-adv-x="603" 
d="M379 119h46v-119h-247v119h46v58l-159 289h-51v119h274v-119h-50l75 -154h2l71 154h-46v119h249v-119h-48l-162 -289v-58zM301 695l-45 -55h-89l89 137h90l89 -137h-89z" />
    <glyph glyph-name="Ydieresissmall" unicode="&#xf7ff;" horiz-adv-x="603" 
d="M379 119h46v-119h-247v119h46v58l-159 289h-51v119h274v-119h-50l75 -154h2l71 154h-46v119h249v-119h-48l-162 -289v-58zM154 747h106v-105h-106v105zM342 747h106v-105h-106v105z" />
    <glyph glyph-name="Ygrave.small" unicode="&#xf6aa;" horiz-adv-x="603" 
d="M379 119h46v-119h-247v119h46v58l-159 289h-51v119h274v-119h-50l75 -154h2l71 154h-46v119h249v-119h-48l-162 -289v-58zM240 640l-80 140h142l53 -140h-115z" />
    <glyph glyph-name="Zsmall" unicode="&#xf77a;" horiz-adv-x="513" 
d="M42 585h437v-111l-266 -353v-2h155v44h121v-163h-465v111l271 353v1h-133v-44h-120v164z" />
    <glyph glyph-name="Zacute.small" unicode="&#xf6ab;" horiz-adv-x="513" 
d="M42 585h437v-111l-266 -353v-2h155v44h121v-163h-465v111l271 353v1h-133v-44h-120v164zM395 780l-79 -140h-115l52 140h142z" />
    <glyph glyph-name="Zcaronsmall" unicode="&#xf6ff;" horiz-adv-x="513" 
d="M42 585h437v-111l-266 -353v-2h155v44h121v-163h-465v111l271 353v1h-133v-44h-120v164zM211 777l45 -55l45 55h89l-89 -137h-90l-89 137h89z" />
    <glyph glyph-name="Zdotaccent.small" unicode="&#xf6ac;" horiz-adv-x="513" 
d="M42 585h437v-111l-266 -353v-2h155v44h121v-163h-465v111l271 353v1h-133v-44h-120v164zM190 780h133v-135h-133v135z" />
    <glyph glyph-name="abreve" unicode="&#x103;" horiz-adv-x="535" 
d="M176 339h-124v147c73 15 150 24 213 24c131 0 204 -31 204 -169v-217h53v-124h-203v50h-2c-34 -38 -78 -60 -135 -60c-81 0 -161 49 -161 152c0 124 113 163 215 163h83v27c0 45 -32 54 -89 54c-16 0 -33 -1 -54 -4v-43zM319 131v85h-64c-46 0 -84 -7 -84 -56
c0 -39 33 -55 64 -55c33 0 67 13 84 26zM272 649c41 0 58 21 73 61h77c-10 -85 -54 -146 -150 -146s-140 61 -150 146h77c15 -40 32 -61 73 -61z" />
    <glyph glyph-name="amacron" unicode="&#x101;" horiz-adv-x="535" 
d="M176 339h-124v147c73 15 150 24 213 24c131 0 204 -31 204 -169v-217h53v-124h-203v50h-2c-34 -38 -78 -60 -135 -60c-81 0 -161 49 -161 152c0 124 113 163 215 163h83v27c0 45 -32 54 -89 54c-16 0 -33 -1 -54 -4v-43zM319 131v85h-64c-46 0 -84 -7 -84 -56
c0 -39 33 -55 64 -55c33 0 67 13 84 26zM130 672h272v-106h-272v106z" />
    <glyph glyph-name="aogonek" unicode="&#x105;" horiz-adv-x="535" 
d="M434 -140l4 -35c-23 -18 -65 -29 -97 -29c-65 0 -108 34 -108 81c0 44 29 88 86 123v50h-2c-41 -44 -82 -60 -143 -60c-100 0 -153 71 -153 157c0 127 121 158 210 158h88v27c0 45 -32 54 -89 54c-16 0 -33 -1 -54 -4v-43h-124v147c73 15 150 24 213 24
c131 0 204 -31 204 -169v-217h53v-124h-132c-37 -30 -57 -65 -57 -96c0 -34 23 -53 60 -53c14 0 27 4 41 9zM319 131v85h-79c-42 0 -69 -16 -69 -56c0 -39 33 -55 64 -55c33 0 67 13 84 26z" />
    <glyph glyph-name="aeacute" unicode="&#x1fd;" horiz-adv-x="822" 
d="M583 700l-79 -140h-115l52 140h142zM235 105c33 0 68 13 88 29c-3 26 -4 53 -4 82h-79c-42 0 -69 -16 -69 -56c0 -39 33 -55 64 -55zM482 309h164c2 12 2 15 2 25c0 36 -20 61 -74 61c-59 0 -87 -31 -92 -86zM794 216h-312c4 -63 45 -102 124 -102c39 0 88 0 155 20
l18 -120c-68 -19 -130 -24 -195 -24c-116 0 -184 33 -224 92c-68 -77 -126 -92 -186 -92c-100 0 -153 71 -153 157c0 128 123 158 211 158h87v19c0 52 -25 62 -89 62c-16 0 -33 -1 -54 -4v-43h-124v147c50 10 136 24 203 24c74 0 122 -11 164 -48c37 30 90 48 163 48
c159 0 219 -73 219 -209c0 -18 -1 -43 -7 -85z" />
    <glyph glyph-name="cacute" unicode="&#x107;" horiz-adv-x="482" 
d="M467 339h-123v44c-21 3 -38 3 -54 3c-64 0 -105 -41 -105 -136s41 -136 105 -136c39 0 67 0 151 20l26 -120c-60 -15 -113 -24 -177 -24c-199 0 -264 101 -264 260s65 260 264 260c64 0 117 -9 177 -24v-147zM424 700l-79 -140h-115l52 140h142z" />
    <glyph glyph-name="ccaron" unicode="&#x10d;" horiz-adv-x="482" 
d="M467 339h-123v44c-21 3 -38 3 -54 3c-64 0 -105 -41 -105 -136s41 -136 105 -136c39 0 67 0 151 20l26 -120c-60 -15 -113 -24 -177 -24c-199 0 -264 101 -264 260s65 260 264 260c64 0 117 -9 177 -24v-147zM244 697l45 -55l45 55h89l-89 -137h-90l-89 137h89z" />
    <glyph glyph-name="ccircumflex" unicode="&#x109;" horiz-adv-x="482" 
d="M467 339h-123v44c-21 3 -38 3 -54 3c-64 0 -105 -41 -105 -136s41 -136 105 -136c39 0 67 0 151 20l26 -120c-60 -15 -113 -24 -177 -24c-199 0 -264 101 -264 260s65 260 264 260c64 0 117 -9 177 -24v-147zM276 615l-45 -55h-89l89 137h90l89 -137h-89z" />
    <glyph glyph-name="cdotaccent" unicode="&#x10b;" horiz-adv-x="482" 
d="M467 339h-123v44c-21 3 -38 3 -54 3c-64 0 -105 -41 -105 -136s41 -136 105 -136c39 0 67 0 151 20l26 -120c-60 -15 -113 -24 -177 -24c-199 0 -264 101 -264 260s65 260 264 260c64 0 117 -9 177 -24v-147zM214 700h133v-135h-133v135z" />
    <glyph glyph-name="c_t" horiz-adv-x="865" 
d="M467 339h-123v44c-21 3 -38 3 -54 3c-64 0 -105 -41 -105 -136s41 -136 105 -136c39 0 67 0 151 20l26 -120c-60 -15 -113 -24 -177 -24c-199 0 -264 101 -264 260s65 260 264 260c64 0 117 -9 177 -24v-147zM566 142v252h-64v97l64 9l18 140h132v-140h118v-106h-118
v-226c0 -38 20 -59 66 -59c12 0 27 2 43 5l14 -115c-29 -5 -81 -9 -109 -9c-119 0 -164 50 -164 152z" />
    <glyph glyph-name="dcaron" unicode="&#x10f;" horiz-adv-x="686" 
d="M290 576v124h204v-576h53v-124h-203v50h-2c-30 -35 -83 -60 -135 -60c-140 0 -181 119 -181 260s50 260 190 260c47 0 96 -21 126 -56h2v122h-54zM185 250c0 -78 18 -136 84 -136c36 0 61 15 75 25v222c-14 10 -39 25 -75 25c-66 0 -84 -59 -84 -136zM605 475h-45l27 101
h-61v124h150v-124z" />
    <glyph glyph-name="dcroat" unicode="&#x111;" horiz-adv-x="560" 
d="M344 700h150v-66h52v-88h-52v-422h53v-124h-203v50h-2c-50 -49 -96 -60 -143 -60c-122 0 -173 121 -173 260c0 141 50 260 190 260c47 0 96 -21 126 -56h2v92h-59v88h59v66zM185 250c0 -78 18 -136 84 -136c36 0 61 15 75 25v222c-14 10 -39 25 -75 25
c-66 0 -84 -59 -84 -136z" />
    <glyph glyph-name="ebreve" unicode="&#x115;" horiz-adv-x="530" 
d="M502 216h-317c4 -62 49 -102 128 -102c40 0 88 0 155 20l18 -120c-68 -19 -130 -24 -195 -24c-196 0 -265 101 -265 260s69 260 264 260c158 0 218 -73 218 -209c0 -18 0 -43 -6 -85zM281 395c-59 0 -91 -31 -96 -86h169c1 12 2 15 2 25c0 36 -20 61 -75 61zM286 649
c41 0 58 21 73 61h77c-10 -85 -54 -146 -150 -146s-140 61 -150 146h77c15 -40 32 -61 73 -61z" />
    <glyph glyph-name="ecaron" unicode="&#x11b;" horiz-adv-x="530" 
d="M502 216h-317c4 -62 49 -102 128 -102c40 0 88 0 155 20l18 -120c-68 -19 -130 -24 -195 -24c-196 0 -265 101 -265 260s69 260 264 260c158 0 218 -73 218 -209c0 -18 0 -43 -6 -85zM281 395c-59 0 -91 -31 -96 -86h169c1 12 2 15 2 25c0 36 -20 61 -75 61zM237 697
l45 -55l45 55h89l-89 -137h-90l-89 137h89z" />
    <glyph glyph-name="edotaccent" unicode="&#x117;" horiz-adv-x="530" 
d="M502 216h-317c4 -62 49 -102 128 -102c40 0 88 0 155 20l18 -120c-68 -19 -130 -24 -195 -24c-196 0 -265 101 -265 260s69 260 264 260c158 0 218 -73 218 -209c0 -18 0 -43 -6 -85zM281 395c-59 0 -91 -31 -96 -86h169c1 12 2 15 2 25c0 36 -20 61 -75 61zM216 700h133
v-135h-133v135z" />
    <glyph glyph-name="emacron" unicode="&#x113;" horiz-adv-x="530" 
d="M502 216h-317c4 -62 49 -102 128 -102c40 0 88 0 155 20l18 -120c-68 -19 -130 -24 -195 -24c-196 0 -265 101 -265 260s69 260 264 260c158 0 218 -73 218 -209c0 -18 0 -43 -6 -85zM281 395c-59 0 -91 -31 -96 -86h169c1 12 2 15 2 25c0 36 -20 61 -75 61zM147 672h272
v-106h-272v106z" />
    <glyph glyph-name="eogonek" unicode="&#x119;" horiz-adv-x="530" 
d="M189 309h165c1 12 2 15 2 25c0 36 -20 61 -75 61c-59 0 -86 -31 -92 -86zM502 216h-313c5 -62 45 -102 124 -102c40 0 88 0 155 20l18 -120c-37 -30 -57 -65 -57 -96c0 -34 22 -53 59 -53c15 0 28 4 41 10l5 -35c-23 -18 -65 -29 -97 -29c-65 0 -108 34 -108 81
c0 36 20 73 59 103c-33 -4 -63 -5 -97 -5c-196 0 -265 101 -265 260s69 260 264 260c158 0 218 -73 218 -209c0 -18 0 -43 -6 -85z" />
    <glyph glyph-name="ff" unicode="&#xfb00;" horiz-adv-x="643" 
d="M376 124v270h-150v-270h48v-124h-252v124h54v270h-64v97l64 9v48c0 102 45 152 164 152c28 0 62 -4 91 -9l-13 -115c-17 3 -32 5 -43 5c-38 0 -49 -21 -49 -59v-22h150v48c0 102 44 152 163 152c29 0 62 -4 92 -9l-14 -115c-16 3 -32 5 -43 5c-37 0 -48 -21 -48 -59v-22
h100v-106h-100v-270h56v-124h-251v124h45z" />
    <glyph glyph-name="ffi" unicode="&#xfb03;" horiz-adv-x="891" 
d="M825 124h54v-124h-249v124h45v270h-149v-270h47v-124h-242v124h45v270h-150v-270h48v-124h-252v124h54v270h-64v97l64 9v48c0 102 45 152 164 152c28 0 62 -4 91 -9l-13 -115c-17 3 -32 5 -43 5c-38 0 -49 -21 -49 -59v-22h150v22c0 102 44 178 220 178
c54 0 158 -16 197 -31l-14 -106c-31 7 -111 18 -166 18c-77 0 -87 -30 -87 -59v-22h299v-376z" />
    <glyph glyph-name="f_f_j" horiz-adv-x="861" 
d="M675 394h-149v-270h47v-124h-242v124h45v270h-150v-270h48v-124h-252v124h54v270h-64v97l64 9v48c0 102 45 152 164 152c28 0 62 -4 91 -9l-13 -115c-17 3 -32 5 -43 5c-38 0 -49 -21 -49 -59v-22h150v22c0 102 44 178 220 178c54 0 158 -16 197 -31l-14 -106
c-31 7 -111 18 -166 18c-77 0 -87 -30 -87 -59v-22h299v-556c0 -98 -31 -154 -164 -154c-28 0 -62 4 -91 9l13 115c17 -3 32 -5 43 -5c37 0 49 9 49 46v439z" />
    <glyph glyph-name="ffl" unicode="&#xfb04;" horiz-adv-x="891" 
d="M376 394h-150v-270h48v-124h-252v124h54v270h-64v97l64 9v48c0 102 45 152 164 152c28 0 62 -4 91 -9l-13 -115c-17 3 -32 5 -43 5c-38 0 -49 -21 -49 -59v-22h150v22c0 102 44 178 220 178c44 0 89 -4 123 -13h106v-563h54v-124h-249v124h45v449c-23 6 -46 8 -62 8
c-77 0 -87 -29 -87 -59v-22h100v-106h-100v-270h47v-124h-242v124h45v270z" />
    <glyph glyph-name="fi" unicode="&#xfb01;" horiz-adv-x="592" 
d="M526 124h53v-124h-248v124h45v270h-150v-270h48v-124h-252v124h54v270h-64v97l64 9v22c0 102 45 178 220 178c55 0 159 -16 198 -31l-14 -106c-32 7 -111 18 -166 18c-78 0 -88 -30 -88 -59v-22h300v-376z" />
    <glyph glyph-name="f_j" horiz-adv-x="562" 
d="M376 394h-150v-270h48v-124h-252v124h54v270h-64v97l64 9v22c0 102 45 178 220 178c55 0 159 -16 198 -31l-14 -106c-32 7 -111 18 -166 18c-78 0 -88 -30 -88 -59v-22h300v-556c0 -98 -32 -154 -164 -154c-29 0 -62 4 -91 9l13 115c17 -3 32 -5 43 -5c37 0 49 9 49 46
v439z" />
    <glyph glyph-name="fl" unicode="&#xfb02;" horiz-adv-x="592" 
d="M526 124h53v-124h-248v124h45v449c-24 6 -47 8 -62 8c-78 0 -88 -29 -88 -59v-22h100v-106h-100v-270h48v-124h-252v124h54v270h-64v97l64 9v22c0 102 45 178 220 178c44 0 90 -4 123 -13h107v-563z" />
    <glyph glyph-name="gbreve" unicode="&#x11f;" horiz-adv-x="555" 
d="M143 -54c0 -50 60 -54 115 -54c60 0 123 13 123 55c0 21 -17 37 -51 40l-165 10c-12 -15 -22 -24 -22 -51zM265 273c39 0 69 17 69 67c0 51 -30 68 -69 68c-41 0 -70 -17 -70 -68s30 -67 70 -67zM89 17v2c-64 43 -53 131 41 179v2c-50 25 -81 79 -81 140
c0 117 87 170 216 170c26 0 54 -4 74 -10h190v-89h-72v-2c13 -16 19 -38 19 -69c0 -118 -89 -169 -211 -169c-16 0 -39 3 -59 9c-21 -31 -20 -56 12 -58l160 -7c101 -4 161 -54 161 -139c0 -129 -97 -186 -304 -186c-154 0 -220 42 -220 130c0 43 22 72 74 97zM286 649
c41 0 58 21 73 61h77c-10 -85 -54 -146 -150 -146s-140 61 -150 146h77c15 -40 32 -61 73 -61z" />
    <glyph glyph-name="gcircumflex" unicode="&#x11d;" horiz-adv-x="555" 
d="M143 -54c0 -50 60 -54 115 -54c60 0 123 13 123 55c0 21 -17 37 -51 40l-165 10c-12 -15 -22 -24 -22 -51zM265 273c39 0 69 17 69 67c0 51 -30 68 -69 68c-41 0 -70 -17 -70 -68s30 -67 70 -67zM89 17v2c-64 43 -53 131 41 179v2c-50 25 -81 79 -81 140
c0 117 87 170 216 170c26 0 54 -4 74 -10h190v-89h-72v-2c13 -16 19 -38 19 -69c0 -118 -89 -169 -211 -169c-16 0 -39 3 -59 9c-21 -31 -20 -56 12 -58l160 -7c101 -4 161 -54 161 -139c0 -129 -97 -186 -304 -186c-154 0 -220 42 -220 130c0 43 22 72 74 97zM280 615
l-45 -55h-89l89 137h90l89 -137h-89z" />
    <glyph glyph-name="gcommaaccent" unicode="&#x123;" horiz-adv-x="555" 
d="M143 -54c0 -50 60 -54 115 -54c60 0 123 13 123 55c0 21 -17 37 -51 40l-165 10c-12 -15 -22 -24 -22 -51zM265 273c39 0 69 17 69 67c0 51 -30 68 -69 68c-41 0 -70 -17 -70 -68s30 -67 70 -67zM89 17v2c-64 43 -53 131 41 179v2c-50 25 -81 79 -81 140
c0 117 87 170 216 170c26 0 54 -4 74 -10h190v-89h-72v-2c13 -16 19 -38 19 -69c0 -118 -89 -169 -211 -169c-16 0 -39 3 -59 9c-21 -31 -20 -56 12 -58l160 -7c101 -4 161 -54 161 -139c0 -129 -97 -186 -304 -186c-154 0 -220 42 -220 130c0 43 22 72 74 97zM269 850h45
l-27 -130h61v-153h-150v153z" />
    <glyph glyph-name="gdotaccent" unicode="&#x121;" horiz-adv-x="555" 
d="M143 -54c0 -50 60 -54 115 -54c60 0 123 13 123 55c0 21 -17 37 -51 40l-165 10c-12 -15 -22 -24 -22 -51zM265 273c39 0 69 17 69 67c0 51 -30 68 -69 68c-41 0 -70 -17 -70 -68s30 -67 70 -67zM89 17v2c-64 43 -53 131 41 179v2c-50 25 -81 79 -81 140
c0 117 87 170 216 170c26 0 54 -4 74 -10h190v-89h-72v-2c13 -16 19 -38 19 -69c0 -118 -89 -169 -211 -169c-16 0 -39 3 -59 9c-21 -31 -20 -56 12 -58l160 -7c101 -4 161 -54 161 -139c0 -129 -97 -186 -304 -186c-154 0 -220 42 -220 130c0 43 22 72 74 97zM202 700h133
v-135h-133v135z" />
    <glyph glyph-name="hbar" unicode="&#x127;" horiz-adv-x="590" 
d="M329 0v124h45v182c0 54 -22 80 -70 80c-33 0 -65 -16 -88 -29v-233h45v-124h-249v124h54v422h-52v88h52v66h150v-66h59v-88h-59v-109h2c32 36 72 61 118 69c14 2 29 4 43 3c97 -1 145 -69 145 -168v-217h53v-124h-248z" />
    <glyph glyph-name="hcircumflex" unicode="&#x125;" horiz-adv-x="590" 
d="M329 0v124h45v182c0 54 -22 80 -70 80c-33 0 -65 -16 -88 -29v-233h45v-124h-249v124h54v452h-54v124h204v-263h2c41 46 93 73 156 73c100 0 150 -68 150 -169v-217h53v-124h-248zM119 805l-45 -55h-89l89 137h90l89 -137h-89z" />
    <glyph glyph-name="ibreve" unicode="&#x12d;" horiz-adv-x="282" 
d="M12 376v124h204v-376h54v-124h-258v124h54v252h-54zM124 649c41 0 58 21 73 61h77c-10 -85 -54 -146 -150 -146s-140 61 -150 146h77c15 -40 32 -61 73 -61z" />
    <glyph glyph-name="imacron" unicode="&#x12b;" horiz-adv-x="282" 
d="M12 376v124h204v-376h54v-124h-258v124h54v252h-54zM-17 672h272v-106h-272v106z" />
    <glyph glyph-name="iogonek" unicode="&#x12f;" horiz-adv-x="282" 
d="M230 -140l5 -35c-23 -18 -66 -29 -98 -29c-64 0 -108 34 -108 81c0 44 30 88 86 123h-103v124h54v252h-54v124h204v-376h54v-124h-83c-37 -30 -58 -65 -58 -96c0 -34 23 -53 60 -53c15 0 28 4 41 9zM66 700h150v-144h-150v144z" />
    <glyph glyph-name="itilde" unicode="&#x129;" horiz-adv-x="282" 
d="M12 376v124h204v-376h54v-124h-258v124h54v252h-54zM64 585c-20 0 -37 -6 -67 -38l-46 53c32 76 74 96 109 96c50 0 99 -40 133 -40c18 0 36 7 65 39l37 -63c-18 -38 -50 -83 -102 -83c-38 0 -91 36 -129 36z" />
    <glyph glyph-name="ij" unicode="&#x133;" horiz-adv-x="505" 
d="M12 376v124h204v-376h54v-124h-258v124h54v252h-54zM66 700h150v-144h-150v144zM255 376v124h214v-556c0 -98 -32 -154 -164 -154c-29 0 -62 4 -91 9l13 115c17 -3 32 -5 43 -5c37 0 49 9 49 46v421h-64zM319 700h150v-144h-150v144z" />
    <glyph glyph-name="dotlessi" unicode="&#x131;" horiz-adv-x="282" 
d="M12 376v124h204v-376h54v-124h-258v124h54v252h-54z" />
    <glyph glyph-name="jcircumflex" unicode="&#x135;" horiz-adv-x="262" 
d="M12 376v124h214v-556c0 -98 -31 -154 -164 -154c-28 0 -62 4 -91 9l14 115c16 -3 31 -5 42 -5c37 0 49 9 49 46v421h-64zM129 615l-45 -55h-89l89 137h90l89 -137h-89z" />
    <glyph glyph-name="dotlessj" unicode="&#x237;" horiz-adv-x="262" 
d="M12 376v124h214v-556c0 -98 -31 -154 -164 -154c-28 0 -62 4 -91 9l14 115c16 -3 31 -5 42 -5c37 0 49 9 49 46v421h-64z" />
    <glyph glyph-name="kcommaaccent" unicode="&#x137;" horiz-adv-x="600" 
d="M12 576v124h204v-427l138 103h-37v124h260v-124h-55l-97 -72l123 -180h39v-124h-260v124h32l-61 98l-82 -63v-35h54v-124h-258v124h54v452h-54zM304 -265h-45l27 101h-61v124h150v-124z" />
    <glyph glyph-name="kgreenlandic" unicode="&#x138;" horiz-adv-x="600" 
d="M12 376v124h204v-227l138 103h-28v124h251v-124h-55l-97 -72l123 -180h39v-124h-260v124h32l-61 98l-82 -63v-35h54v-124h-258v124h54v252h-54z" />
    <glyph glyph-name="lacute" unicode="&#x13a;" horiz-adv-x="290" 
d="M12 576v124h204v-576h54v-124h-258v124h54v452h-54zM285 890l-79 -140h-115l52 140h142z" />
    <glyph glyph-name="lcaron" unicode="&#x13e;" horiz-adv-x="404" 
d="M12 576v124h204v-576h54v-124h-258v124h54v452h-54zM322 475h-45l27 101h-61v124h150v-124z" />
    <glyph glyph-name="lcommaaccent" unicode="&#x13c;" horiz-adv-x="290" 
d="M12 576v124h204v-576h54v-124h-258v124h54v452h-54zM145 -265h-45l27 101h-61v124h150v-124z" />
    <glyph glyph-name="ldot" unicode="&#x140;" horiz-adv-x="386" 
d="M12 576v124h204v-576h54v-124h-258v124h54v452h-54zM243 427h133v-135h-133v135z" />
    <glyph glyph-name="lslash" unicode="&#x142;" horiz-adv-x="290" 
d="M12 576v124h204v-288l54 16v-71l-54 -16v-217h54v-124h-258v124h54v173l-54 -16v71l54 16v208h-54z" />
    <glyph glyph-name="nacute" unicode="&#x144;" horiz-adv-x="590" 
d="M329 0v124h45v182c0 54 -22 80 -70 80c-33 0 -65 -16 -88 -29v-233h45v-124h-249v124h54v252h-54v124h204v-63h2c41 46 93 73 156 73c100 0 150 -68 150 -169v-217h53v-124h-248zM431 700l-79 -140h-115l52 140h142z" />
    <glyph glyph-name="napostrophe" unicode="&#x149;" horiz-adv-x="590" 
d="M329 0v124h45v182c0 54 -22 80 -70 80c-33 0 -65 -16 -88 -29v-233h45v-124h-249v124h54v252h-54v124h204v-63h2c41 46 93 73 156 73c100 0 150 -68 150 -169v-217h53v-124h-248zM143 556h-45l27 101h-61v124h150v-124z" />
    <glyph glyph-name="ncaron" unicode="&#x148;" horiz-adv-x="590" 
d="M329 0v124h45v182c0 54 -22 80 -70 80c-33 0 -65 -16 -88 -29v-233h45v-124h-249v124h54v252h-54v124h204v-63h2c41 46 93 73 156 73c100 0 150 -68 150 -169v-217h53v-124h-248zM252 697l45 -55l45 55h89l-89 -137h-90l-89 137h89z" />
    <glyph glyph-name="ncommaaccent" unicode="&#x146;" horiz-adv-x="590" 
d="M329 0v124h45v182c0 54 -22 80 -70 80c-33 0 -65 -16 -88 -29v-233h45v-124h-249v124h54v252h-54v124h204v-63h2c41 46 93 73 156 73c100 0 150 -68 150 -169v-217h53v-124h-248zM302 -265h-45l27 101h-61v124h150v-124z" />
    <glyph glyph-name="obreve" unicode="&#x14f;" horiz-adv-x="550" 
d="M275 386c-70 0 -90 -50 -90 -136s20 -136 90 -136s90 50 90 136s-20 136 -90 136zM275 -10c-181 0 -249 101 -249 260s68 260 249 260s249 -101 249 -260s-68 -260 -249 -260zM275 649c41 0 58 21 73 61h77c-10 -85 -54 -146 -150 -146s-140 61 -150 146h77
c15 -40 32 -61 73 -61z" />
    <glyph glyph-name="ohungarumlaut" unicode="&#x151;" horiz-adv-x="550" 
d="M275 386c-70 0 -90 -50 -90 -136s20 -136 90 -136s90 50 90 136s-20 136 -90 136zM275 -10c-181 0 -249 101 -249 260s68 260 249 260s249 -101 249 -260s-68 -260 -249 -260zM314 700l-97 -140h-80l53 140h124zM484 700l-97 -140h-80l53 140h124z" />
    <glyph glyph-name="omacron" unicode="&#x14d;" horiz-adv-x="550" 
d="M275 386c-70 0 -90 -50 -90 -136s20 -136 90 -136s90 50 90 136s-20 136 -90 136zM275 -10c-181 0 -249 101 -249 260s68 260 249 260s249 -101 249 -260s-68 -260 -249 -260zM139 672h272v-106h-272v106z" />
    <glyph glyph-name="oslashacute" unicode="&#x1ff;" horiz-adv-x="550" 
d="M421 700l-79 -140h-115l52 140h142zM275 -10c-64 0 -114 14 -152 38l-56 -66l-45 36l57 67c-37 45 -53 108 -53 185c0 159 68 260 249 260c64 0 114 -14 151 -38l57 66l44 -36l-57 -67c37 -45 54 -109 54 -185c0 -159 -68 -260 -249 -260zM275 114c70 0 90 50 90 136
c0 19 -2 38 -7 54l-144 -170c15 -13 34 -20 61 -20zM275 386c-70 0 -90 -50 -90 -136c0 -20 1 -39 6 -54l144 169c-14 13 -34 21 -60 21z" />
    <glyph glyph-name="racute" unicode="&#x155;" horiz-adv-x="400" 
d="M12 376v124h204v-80h2c28 45 86 90 166 90v-141c-64 0 -128 -11 -168 -30v-215h56v-124h-260v124h54v252h-54zM289 700l-79 -140h-115l52 140h142z" />
    <glyph glyph-name="rcaron" unicode="&#x159;" horiz-adv-x="400" 
d="M12 376v124h204v-80h2c28 45 86 90 166 90v-141c-64 0 -128 -11 -168 -30v-215h56v-124h-260v124h54v252h-54zM164 697l45 -55l45 55h89l-89 -137h-90l-89 137h89z" />
    <glyph glyph-name="rcommaaccent" unicode="&#x157;" horiz-adv-x="400" 
d="M12 376v124h204v-80h2c28 45 86 90 166 90v-141c-64 0 -128 -11 -168 -30v-215h56v-124h-260v124h54v252h-54zM145 -265h-45l27 101h-61v124h150v-124z" />
    <glyph glyph-name="sacute" unicode="&#x15b;" horiz-adv-x="480" 
d="M441 339h-124v45c-33 6 -62 7 -82 7c-45 0 -63 -15 -63 -32c0 -19 17 -26 68 -38c90 -20 219 -42 219 -165c0 -115 -81 -166 -204 -166c-83 0 -174 9 -234 24v147h124v-45c37 -6 70 -7 92 -7c50 0 72 18 72 36c0 21 -29 27 -73 35c-117 20 -214 59 -214 175
c0 114 81 155 204 155c83 0 155 -9 215 -24v-147zM386 700l-79 -140h-115l52 140h142z" />
    <glyph glyph-name="scedilla" unicode="&#x15f;" horiz-adv-x="480" 
d="M200 -79v71c-66 2 -131 10 -179 22v147h124v-45c37 -6 70 -7 92 -7c50 0 72 18 72 36c0 21 -29 27 -73 35c-117 20 -214 59 -214 175c0 114 81 155 204 155c83 0 155 -9 215 -24v-147h-124v45c-33 6 -62 7 -82 7c-45 0 -63 -15 -63 -32c0 -19 17 -26 68 -38
c90 -20 219 -42 219 -165c0 -108 -70 -158 -179 -165v-34c23 -3 66 -27 66 -79c0 -50 -47 -83 -113 -83c-24 0 -49 4 -75 12l8 55c16 -3 26 -5 41 -5c28 0 39 10 39 26c0 20 -19 33 -46 38z" />
    <glyph glyph-name="scircumflex" unicode="&#x15d;" horiz-adv-x="480" 
d="M441 339h-124v45c-33 6 -62 7 -82 7c-45 0 -63 -15 -63 -32c0 -19 17 -26 68 -38c90 -20 219 -42 219 -165c0 -115 -81 -166 -204 -166c-83 0 -174 9 -234 24v147h124v-45c37 -6 70 -7 92 -7c50 0 72 18 72 36c0 21 -29 27 -73 35c-117 20 -214 59 -214 175
c0 114 81 155 204 155c83 0 155 -9 215 -24v-147zM246 615l-45 -55h-89l89 137h90l89 -137h-89z" />
    <glyph glyph-name="scommaaccent" unicode="&#x219;" horiz-adv-x="480" 
d="M441 339h-124v45c-33 6 -62 7 -82 7c-45 0 -63 -15 -63 -32c0 -19 17 -26 68 -38c90 -20 219 -42 219 -165c0 -115 -81 -166 -204 -166c-83 0 -174 9 -234 24v147h124v-45c37 -6 70 -7 92 -7c50 0 72 18 72 36c0 21 -29 27 -73 35c-117 20 -214 59 -214 175
c0 114 81 155 204 155c83 0 155 -9 215 -24v-147zM244 -265h-45l27 101h-61v124h150v-124z" />
    <glyph glyph-name="s_p" horiz-adv-x="1025" 
d="M441 339h-124v45c-33 6 -62 7 -82 7c-45 0 -63 -15 -63 -32c0 -19 17 -26 68 -38c90 -20 219 -42 219 -165c0 -115 -81 -166 -204 -166c-83 0 -174 9 -234 24v147h124v-45c37 -6 70 -7 92 -7c50 0 72 18 72 36c0 21 -29 27 -73 35c-117 20 -214 59 -214 175
c0 114 81 155 204 155c83 0 155 -9 215 -24v-147zM477 376v124h204v-50h2c30 35 83 60 134 60c140 0 182 -119 182 -260s-50 -260 -190 -260c-48 0 -96 21 -126 56h-2v-122h54v-124h-258v124h54v452h-54zM840 250c0 77 -18 136 -84 136c-36 0 -61 -15 -75 -25v-222
c14 -10 39 -25 75 -25c66 0 84 58 84 136z" />
    <glyph glyph-name="s_t" unicode="&#xfb06;" horiz-adv-x="860" 
d="M441 339h-124v45c-33 6 -62 7 -82 7c-45 0 -63 -15 -63 -32c0 -19 17 -26 68 -38c90 -20 219 -42 219 -165c0 -115 -81 -166 -204 -166c-83 0 -174 9 -234 24v147h124v-45c37 -6 70 -7 92 -7c50 0 72 18 72 36c0 21 -29 27 -73 35c-117 20 -214 59 -214 175
c0 114 81 155 204 155c83 0 155 -9 215 -24v-147zM561 142v252h-64v97l64 9l18 140h132v-140h118v-106h-118v-226c0 -38 20 -59 66 -59c12 0 27 2 43 5l14 -115c-29 -5 -81 -9 -109 -9c-119 0 -164 50 -164 152z" />
    <glyph glyph-name="tbar" unicode="&#x167;" horiz-adv-x="375" 
d="M76 226h-60v89h60v79h-64v97l64 9l18 140h132v-140h118v-106h-118v-79h108v-89h-108v-58c0 -38 20 -59 66 -59c12 0 27 2 43 5l14 -115c-29 -5 -81 -9 -109 -9c-119 0 -164 50 -164 152v84z" />
    <glyph glyph-name="tcaron" unicode="&#x165;" horiz-adv-x="375" 
d="M76 142v252h-64v97l64 9l18 140h132v-140h118v-106h-118v-226c0 -38 20 -59 66 -59c12 0 27 2 43 5l14 -115c-29 -5 -81 -9 -109 -9c-119 0 -164 50 -164 152zM325 585h-45l27 101h-61v124h150v-124z" />
    <glyph glyph-name="tcommaaccent" unicode="&#x163;" horiz-adv-x="375" 
d="M76 142v252h-64v97l64 9l18 140h132v-140h118v-106h-118v-226c0 -38 20 -59 66 -59c12 0 27 2 43 5l14 -115c-29 -5 -81 -9 -109 -9c-119 0 -164 50 -164 152zM203 -265h-45l27 101h-61v124h150v-124z" />
    <glyph glyph-name="uni021B" unicode="&#x21b;" horiz-adv-x="375" 
d="M76 142v252h-64v97l64 9l18 140h132v-140h118v-106h-118v-226c0 -38 20 -59 66 -59c12 0 27 2 43 5l14 -115c-29 -5 -81 -9 -109 -9c-119 0 -164 50 -164 152zM214 -267h-45l27 101h-61v124h150v-124z" />
    <glyph glyph-name="ubreve" unicode="&#x16d;" horiz-adv-x="590" 
d="M12 376v124h204v-306c0 -54 26 -80 70 -80c33 0 65 16 88 29v233h-58v124h208v-376h53v-124h-203v62h-2c-41 -45 -93 -72 -156 -72c-100 0 -150 67 -150 169v217h-54zM293 649c41 0 58 21 73 61h77c-10 -85 -54 -146 -150 -146s-140 61 -150 146h77c15 -40 32 -61 73 -61
z" />
    <glyph glyph-name="uhungarumlaut" unicode="&#x171;" horiz-adv-x="590" 
d="M12 376v124h204v-306c0 -54 26 -80 70 -80c33 0 65 16 88 29v233h-58v124h208v-376h53v-124h-203v62h-2c-41 -45 -93 -72 -156 -72c-100 0 -150 67 -150 169v217h-54zM343 700l-97 -140h-80l53 140h124zM513 700l-97 -140h-80l53 140h124z" />
    <glyph glyph-name="umacron" unicode="&#x16b;" horiz-adv-x="590" 
d="M12 376v124h204v-306c0 -54 26 -80 70 -80c33 0 65 16 88 29v233h-58v124h208v-376h53v-124h-203v62h-2c-41 -45 -93 -72 -156 -72c-100 0 -150 67 -150 169v217h-54zM149 672h272v-106h-272v106z" />
    <glyph glyph-name="uogonek" unicode="&#x173;" horiz-adv-x="590" 
d="M524 124h53v-124h-132c-37 -30 -57 -65 -57 -96c0 -34 23 -53 60 -53c14 0 27 4 41 9l4 -35c-23 -18 -65 -29 -97 -29c-65 0 -108 34 -108 81c0 44 29 88 86 123v62h-2c-41 -45 -93 -72 -156 -72c-100 0 -150 67 -150 169v217h-54v124h204v-306c0 -54 26 -80 70 -80
c33 0 65 16 88 29v233h-58v124h208v-376z" />
    <glyph glyph-name="uring" unicode="&#x16f;" horiz-adv-x="590" 
d="M12 376v124h204v-306c0 -54 26 -80 70 -80c33 0 65 16 88 29v233h-58v124h208v-376h53v-124h-203v62h-2c-41 -45 -93 -72 -156 -72c-100 0 -150 67 -150 169v217h-54zM197 650c0 54 44 98 98 98s98 -44 98 -98s-44 -98 -98 -98s-98 44 -98 98zM252 650
c0 -24 19 -43 43 -43s43 19 43 43s-19 43 -43 43s-43 -19 -43 -43z" />
    <glyph glyph-name="utilde" unicode="&#x169;" horiz-adv-x="590" 
d="M12 376v124h204v-306c0 -54 26 -80 70 -80c33 0 65 16 88 29v233h-58v124h208v-376h53v-124h-203v62h-2c-41 -45 -93 -72 -156 -72c-100 0 -150 67 -150 169v217h-54zM234 585c-20 0 -37 -6 -67 -38l-46 53c32 76 74 96 109 96c50 0 99 -40 133 -40c18 0 36 7 65 39
l37 -63c-18 -38 -50 -83 -102 -83c-38 0 -91 36 -129 36z" />
    <glyph glyph-name="wacute" unicode="&#x1e83;" horiz-adv-x="810" 
d="M567 376v124h229v-124h-38l-113 -381h-161l-80 250h-2l-68 -250h-161l-125 381h-36v124h254v-124h-57l59 -214h2l84 338h124l90 -347h2l43 223h-46zM563 698l-79 -140h-115l52 140h142z" />
    <glyph glyph-name="wcircumflex" unicode="&#x175;" horiz-adv-x="810" 
d="M567 376v124h229v-124h-38l-113 -381h-161l-80 250h-2l-68 -250h-161l-125 381h-36v124h254v-124h-57l59 -214h2l84 338h124l90 -347h2l43 223h-46zM414 615l-45 -55h-89l89 137h90l89 -137h-89z" />
    <glyph glyph-name="wdieresis" unicode="&#x1e85;" horiz-adv-x="810" 
d="M567 376v124h229v-124h-38l-113 -381h-161l-80 250h-2l-68 -250h-161l-125 381h-36v124h254v-124h-57l59 -214h2l84 338h124l90 -347h2l43 223h-46zM267 687h106v-105h-106v105zM455 687h106v-105h-106v105z" />
    <glyph glyph-name="wgrave" unicode="&#x1e81;" horiz-adv-x="810" 
d="M567 376v124h229v-124h-38l-113 -381h-161l-80 250h-2l-68 -250h-161l-125 381h-36v124h254v-124h-57l59 -214h2l84 338h124l90 -347h2l43 223h-46zM344 560l-80 140h142l53 -140h-115z" />
    <glyph glyph-name="ycircumflex" unicode="&#x177;" horiz-adv-x="580" 
d="M337 376v124h229v-124h-34l-161 -383c-45 -107 -113 -203 -230 -203c-27 0 -68 4 -95 9l13 120c15 -3 38 -5 49 -5c42 0 84 22 101 75l-157 387h-40v124h254v-124h-48l87 -242h2l76 242h-46zM304 615l-45 -55h-89l89 137h90l89 -137h-89z" />
    <glyph glyph-name="ygrave" unicode="&#x1ef3;" horiz-adv-x="580" 
d="M337 376v124h229v-124h-34l-161 -383c-45 -107 -113 -203 -230 -203c-27 0 -68 4 -95 9l13 120c15 -3 38 -5 49 -5c42 0 84 22 101 75l-157 387h-40v124h254v-124h-48l87 -242h2l76 242h-46zM232 560l-80 140h142l53 -140h-115z" />
    <glyph glyph-name="zacute" unicode="&#x17a;" horiz-adv-x="470" 
d="M24 500h418v-115l-242 -268v-2h132v46h124v-161h-442v115l247 268v2h-114v-46h-123v161zM371 700l-79 -140h-115l52 140h142z" />
    <glyph glyph-name="zdotaccent" unicode="&#x17c;" horiz-adv-x="470" 
d="M24 500h418v-115l-242 -268v-2h132v46h124v-161h-442v115l247 268v2h-114v-46h-123v161zM173 700h133v-135h-133v135z" />
    <glyph glyph-name="asuperior" unicode="&#xf6e9;" horiz-adv-x="277" 
d="M92 598h-64v74c37 8 76 13 108 13c66 0 103 -16 103 -84v-106h26v-65h-105v25h-1c-16 -17 -31 -26 -51 -28c-7 -1 -14 -2 -22 -2c-39 1 -63 25 -70 56c-2 8 -3 16 -3 25c1 63 62 77 104 77h43v13c0 21 -15 24 -42 24c-8 0 -16 0 -26 -1v-21zM160 497v40h-29
c-22 0 -40 -2 -40 -27c0 -18 16 -26 30 -26c15 0 31 6 39 13z" />
    <glyph glyph-name="bsuperior" unicode="&#xf6ea;" horiz-adv-x="287" 
d="M12 715v65h104v-125h1c15 18 41 30 66 30c70 0 91 -59 91 -130s-25 -130 -95 -130c-23 0 -49 10 -66 27h-1l-14 -22h-86v65h26v220h-26zM192 555c0 38 -9 65 -40 65c-17 0 -30 -7 -36 -12v-106c6 -5 19 -12 36 -12c31 0 40 27 40 65z" />
    <glyph glyph-name="dsuperior" unicode="&#xf6eb;" horiz-adv-x="287" 
d="M143 715v65h105v-285h26v-65h-104v25h-1c-15 -17 -41 -30 -66 -30c-70 0 -91 59 -91 130s25 130 95 130c23 0 47 -10 62 -27h1v57h-27zM95 555c0 -38 8 -65 40 -65c17 0 29 7 35 12v106c-6 5 -18 12 -35 12c-32 0 -40 -27 -40 -65z" />
    <glyph glyph-name="esuperior" unicode="&#xf6ec;" horiz-adv-x="268" 
d="M252 537h-155c3 -29 23 -47 60 -47c20 0 44 0 78 10l9 -62c-35 -11 -66 -13 -98 -13c-99 0 -134 51 -134 130s35 130 133 130c109 0 117 -69 107 -148zM141 625c-27 0 -40 -14 -44 -40h78c3 23 -2 40 -34 40z" />
    <glyph glyph-name="h.superior" horiz-adv-x="307" 
d="M170 430v65h21v87c0 26 -11 38 -34 38c-15 0 -30 -7 -41 -13v-112h22v-65h-126v65h26v220h-26v65h104v-131h1c20 23 46 36 77 36c50 0 75 -34 75 -84v-106h26v-65h-125z" />
    <glyph glyph-name="isuperior" unicode="&#xf6ed;" horiz-adv-x="156" 
d="M12 615v65h104v-185h27v-65h-131v65h26v120h-26zM38 780h78v-73h-78v73z" />
    <glyph glyph-name="lsuperior" unicode="&#xf6ee;" horiz-adv-x="156" 
d="M12 715v65h104v-285h27v-65h-131v65h26v220h-26z" />
    <glyph glyph-name="msuperior" unicode="&#xf6ef;" horiz-adv-x="457" 
d="M168 430v65h21v91c-1 23 -13 34 -33 34c-14 0 -29 -7 -40 -13v-112h22v-65h-126v65h26v120h-26v65h104v-31h1c15 17 34 30 56 33c7 2 14 3 22 3c31 -1 53 -16 64 -40c27 30 54 40 85 40c50 0 75 -34 75 -84v-106h26v-65h-125v65h21v87c0 26 -13 38 -34 38
c-14 0 -29 -7 -39 -13v-21v-91h22v-65h-122z" />
    <glyph glyph-name="nsuperior" unicode="&#x207f;" horiz-adv-x="307" 
d="M170 430v65h21v87c0 26 -11 38 -34 38c-15 0 -30 -7 -41 -13v-112h22v-65h-126v65h26v120h-26v65h104v-31h1c20 23 46 36 77 36c50 0 75 -34 75 -84v-106h26v-65h-125z" />
    <glyph glyph-name="osuperior" unicode="&#xf6f0;" horiz-adv-x="276" 
d="M138 620c-33 0 -43 -23 -43 -65s10 -65 43 -65s43 23 43 65s-10 65 -43 65zM138 425c-91 0 -126 51 -126 130s35 130 126 130s125 -51 125 -130s-34 -130 -125 -130z" />
    <glyph glyph-name="rsuperior" unicode="&#xf6f1;" horiz-adv-x="212" 
d="M12 615v65h104v-40h1c13 23 42 45 82 45v-74c-31 0 -63 -4 -83 -13v-103h27v-65h-131v65h26v120h-26z" />
    <glyph glyph-name="ssuperior" unicode="&#xf6f2;" horiz-adv-x="246" 
d="M224 598h-64v22c-16 2 -29 3 -39 3c-20 0 -29 -6 -29 -14c0 -9 8 -11 31 -17c45 -10 111 -21 111 -83c0 -59 -42 -84 -103 -84c-42 0 -89 5 -119 13v74h65v-22c18 -2 34 -3 44 -3c23 0 34 7 34 16c0 10 -14 12 -34 15c-59 10 -108 30 -108 88s41 79 103 79
c42 0 78 -5 108 -13v-74z" />
    <glyph glyph-name="tsuperior" unicode="&#xf6f3;" horiz-adv-x="194" 
d="M43 501v124h-31v50l31 5l9 70h69v-70h58v-55h-58v-110c0 -19 10 -28 32 -28c6 0 14 1 22 3l7 -60c-15 -3 -42 -5 -56 -5c-60 0 -83 25 -83 76z" />
    <glyph glyph-name="Ethsmall" horiz-adv-x="603" 
d="M14 585h283c218 0 281 -120 281 -288s-63 -297 -281 -297h-283v119h46v135h-46v86h46v126h-46v119zM216 119h81c98 0 118 70 118 178s-20 169 -118 169h-81v-126h90v-86h-90v-135z" />
    <glyph glyph-name="Thornsmall" horiz-adv-x="566" 
d="M225 514h82c147 0 233 -80 233 -218c0 -140 -86 -219 -233 -219h-82v-77h-213v124h54v337h-54v124h213v-71zM225 391v-190h65c49 0 87 29 87 95c0 64 -38 95 -87 95h-65z" />
    <glyph glyph-name="Eng" unicode="&#x14a;" horiz-adv-x="690" 
d="M624 556v-571c0 -118 -47 -176 -133 -191c-16 -2 -34 -4 -52 -4c-54 0 -91 4 -118 9l13 133c19 -3 36 -5 56 -5c37 0 75 10 75 67l-25 43l-226 343h-2v-256h58v-124h-258v124h54v432h-54v124h213l251 -397h2v273h-58v124h257v-124h-53z" />
    <glyph glyph-name="Eng.small" horiz-adv-x="630" 
d="M569 -28v-9c0 -121 -71 -173 -177 -173c-43 0 -79 4 -105 9l12 119c17 -2 33 -4 50 -4c30 0 66 5 66 49v37l-210 313h-2v-194h50v-119h-239v119h46v347h-46v119h193l218 -330h2v211h-50v119h239v-119h-47v-494z" />
    <glyph glyph-name="eng" unicode="&#x14b;" horiz-adv-x="560" 
d="M374 -33v339c0 54 -22 80 -70 80c-33 0 -65 -16 -88 -29v-233h45v-124h-249v124h54v252h-54v124h204v-63h2c41 46 93 73 156 73c100 0 150 -68 150 -169v-374c0 -103 -32 -177 -164 -177c-29 0 -62 4 -91 9l13 115c17 -3 32 -5 43 -5c37 0 49 20 49 58z" />
    <glyph glyph-name="longs" unicode="&#x17f;" horiz-adv-x="326" 
d="M76 -32v580c0 102 45 152 164 152c28 0 62 -4 91 -9l-13 -115c-17 3 -32 5 -43 5c-38 0 -49 -21 -49 -59v-555c0 -103 -31 -177 -164 -177c-28 0 -62 4 -91 9l14 115c16 -3 31 -5 42 -5c38 0 49 21 49 59z" />
    <glyph glyph-name="longs_h" horiz-adv-x="900" 
d="M376 115v458c-24 6 -47 8 -62 8c-78 0 -88 -29 -88 -59v-555c0 -103 -31 -177 -164 -177c-28 0 -62 4 -91 9l14 115c16 -3 31 -5 42 -5c38 0 49 21 49 59v554c0 102 45 178 220 178c44 0 90 -4 123 -13h107v-258h2c40 45 93 72 155 72c100 0 150 -67 150 -169v-217h54
v-124h-249v124h45v182c0 54 -21 80 -70 80c-33 0 -65 -16 -87 -29v-233h45v-124h-249v124h54z" />
    <glyph glyph-name="longs_l" horiz-adv-x="600" 
d="M226 522v-555c0 -103 -31 -177 -164 -177c-28 0 -62 4 -91 9l14 115c16 -3 31 -5 42 -5c38 0 49 21 49 59v554c0 102 45 178 220 178c44 0 90 -4 123 -13h107v-563h53v-124h-248v124h45v449c-24 6 -47 8 -62 8c-78 0 -88 -29 -88 -59z" />
    <glyph glyph-name="longs_t" unicode="&#xfb05;" horiz-adv-x="664" 
d="M76 -32v580c0 102 45 152 164 152c28 0 62 -4 91 -9l-13 -115c-17 3 -32 5 -43 5c-38 0 -49 -21 -49 -59v-555c0 -103 -31 -177 -164 -177c-28 0 -62 4 -91 9l14 115c16 -3 31 -5 42 -5c38 0 49 21 49 59zM365 142v252h-64v97l64 9l18 140h132v-140h117v-106h-117v-226
c0 -38 20 -59 66 -59c11 0 26 2 43 5l13 -115c-29 -5 -80 -9 -108 -9c-120 0 -164 50 -164 152z" />
    <glyph glyph-name="longs_i" horiz-adv-x="595" 
d="M76 -32v580c0 102 45 152 164 152c28 0 62 -4 91 -9l-13 -115c-17 3 -32 5 -43 5c-38 0 -49 -21 -49 -59v-555c0 -103 -31 -177 -164 -177c-28 0 -62 4 -91 9l14 115c16 -3 31 -5 42 -5c38 0 49 21 49 59zM311 376v124h204v-376h54v-124h-258v124h54v252h-54z" />
    <glyph glyph-name="longs_longs" horiz-adv-x="606" 
d="M76 -32v580c0 102 45 152 164 152c28 0 62 -4 91 -9l-13 -115c-17 3 -32 5 -43 5c-38 0 -49 -21 -49 -59v-555c0 -103 -31 -177 -164 -177c-28 0 -62 4 -91 9l14 115c16 -3 31 -5 42 -5c38 0 49 21 49 59zM356 -32v580c0 102 45 152 164 152c28 0 62 -4 91 -9l-13 -115
c-17 3 -32 5 -43 5c-38 0 -49 -21 -49 -59v-555c0 -103 -31 -177 -164 -177c-28 0 -62 4 -91 9l14 115c16 -3 31 -5 42 -5c38 0 49 21 49 59z" />
    <glyph glyph-name="zero.slash" horiz-adv-x="590" 
d="M295 -10c-192 0 -259 161 -259 355s67 345 259 345s259 -151 259 -345s-67 -355 -259 -355zM295 114c78 0 100 101 100 231c0 27 -2 52 -6 75l-178 -226c15 -50 40 -80 84 -80zM295 566c-78 0 -100 -91 -100 -221c0 -25 1 -50 5 -72l176 224c-15 43 -40 69 -81 69z" />
    <glyph glyph-name="franc" unicode="&#x20a3;" horiz-adv-x="650" 
d="M14 301h53c-1 14 -1 29 -1 44v34h-52v71h60c24 141 105 240 301 240c83 0 154 -10 250 -39v-170h-124v74c-48 9 -79 11 -113 11c-79 0 -121 -46 -141 -116h139v-71h-151c-1 -12 -1 -23 -1 -34c0 -15 0 -30 1 -44h151v-71h-138c20 -71 63 -116 140 -116c34 0 65 1 113 11
v74h124v-170c-96 -29 -167 -39 -250 -39c-192 0 -274 100 -299 240h-62v71z" />
    <glyph glyph-name="lira" unicode="&#x20a4;" horiz-adv-x="650" 
d="M14 301h53c-1 14 -1 29 -1 44v34h-52v71h60c24 141 105 240 301 240c83 0 154 -10 250 -39v-170h-124v74c-48 9 -79 11 -113 11c-79 0 -121 -46 -141 -116h139v-71h-151c-1 -12 -1 -23 -1 -34c0 -15 0 -30 1 -44h151v-71h-138c20 -71 63 -116 140 -116c34 0 65 1 113 11
v74h124v-170c-96 -29 -167 -39 -250 -39c-192 0 -274 100 -299 240h-62v71z" />
    <glyph glyph-name="peseta" unicode="&#x20a7;" horiz-adv-x="650" 
d="M14 301h53c-1 14 -1 29 -1 44v34h-52v71h60c24 141 105 240 301 240c83 0 154 -10 250 -39v-170h-124v74c-48 9 -79 11 -113 11c-79 0 -121 -46 -141 -116h139v-71h-151c-1 -12 -1 -23 -1 -34c0 -15 0 -30 1 -44h151v-71h-138c20 -71 63 -116 140 -116c34 0 65 1 113 11
v74h124v-170c-96 -29 -167 -39 -250 -39c-192 0 -274 100 -299 240h-62v71z" />
    <glyph glyph-name="colonmonetary" unicode="&#x20a1;" horiz-adv-x="610" 
d="M461 199h124v-170c-46 -14 -87 -24 -125 -30v-99h-63v92c-20 -1 -41 -2 -62 -2c-5 0 -14 0 -25 1v-91h-63v99c-171 34 -221 176 -221 346c0 167 50 303 221 337v98h63v-92c7 1 16 2 25 2c21 0 42 -1 62 -2v92h63v-99c38 -7 79 -16 125 -30v-170h-124v74
c-48 9 -79 11 -113 11c-111 0 -154 -91 -154 -221c0 -140 43 -231 154 -231c34 0 65 1 113 11v74z" />
    <glyph glyph-name="rupiah" unicode="&#xf6dd;" horiz-adv-x="595" 
d="M42 500h299c-11 39 -44 56 -82 56h-217v124h510v-71h-90c24 -29 40 -65 45 -109h45v-71h-45c-10 -86 -61 -187 -231 -187h-39l220 -118h78v-124h-157l-336 181v185h217c38 0 70 21 82 63h-299v71z" />
    <glyph glyph-name="zero.fitted" 
d="M297 566c-85 0 -108 -91 -108 -221s23 -231 108 -231s108 101 108 231s-23 221 -108 221zM297 -10c-217 0 -268 161 -268 355s51 345 268 345c216 0 267 -151 267 -345s-51 -355 -267 -355z" />
    <glyph glyph-name="one.fitted" 
d="M373 124h162v-124h-477v124h164v415l-153 -2v106l232 42h72v-561z" />
    <glyph glyph-name="two.fitted" 
d="M428 179h124v-179h-513v142c267 157 324 237 324 309c0 91 -73 102 -117 102c-26 0 -51 -2 -82 -10v-46h-125v143c89 34 151 50 242 50c163 0 242 -91 242 -208c0 -140 -105 -239 -270 -348v-2h175v47z" />
    <glyph glyph-name="three.fitted" 
d="M43 39v143h125v-56c35 -9 71 -12 109 -12c89 0 117 45 117 82c0 59 -45 82 -128 82h-96v124h89c99 0 119 50 119 91c0 37 -30 73 -101 73c-39 0 -68 -5 -102 -14v-55h-124v144c88 38 171 49 252 49c122 0 225 -60 225 -180c0 -73 -43 -124 -119 -153v-2
c97 -25 140 -94 140 -168c0 -127 -99 -197 -264 -197c-90 0 -155 10 -242 49z" />
    <glyph glyph-name="four.fitted" 
d="M172 307h164v219h-2c-55 -92 -96 -145 -162 -219zM336 124v60h-318v123c115 120 209 218 282 378h187v-378h88v-123h-88v-60h56v-124h-264v124h57z" />
    <glyph glyph-name="five.fitted" 
d="M526 680v-179h-124v46h-203l-8 -135l2 -1c34 23 74 39 137 39c133 0 219 -76 219 -223c0 -157 -103 -237 -273 -237c-79 0 -145 11 -233 50v134h125v-49c34 -8 65 -11 99 -11c86 0 123 48 123 105c0 46 -25 103 -114 103c-52 0 -79 -13 -112 -39l-108 9l13 388h457z" />
    <glyph glyph-name="six.fitted" 
d="M190 394l2 -1c35 37 87 62 144 62c135 0 218 -85 218 -235c0 -144 -102 -230 -249 -230c-189 0 -266 149 -266 310c0 307 146 390 314 390c68 0 123 -10 180 -29v-160h-124v63c-15 1 -26 2 -42 2c-87 0 -178 -49 -177 -172zM203 284c-9 -82 6 -170 94 -170
c54 0 98 36 98 106c0 47 -20 105 -99 105c-39 0 -68 -18 -93 -41z" />
    <glyph glyph-name="seven.fitted" 
d="M42 680h511v-106c-96 -163 -190 -327 -232 -574h-168c32 173 127 387 236 545v2h-223v-46h-124v179z" />
    <glyph glyph-name="eight.fitted" 
d="M428 359v-2c89 -43 136 -95 136 -170c0 -140 -128 -197 -272 -197c-136 0 -263 50 -263 181c0 77 49 131 135 165v2c-71 36 -114 88 -114 166c0 127 124 186 251 186c120 0 242 -59 242 -178c0 -73 -41 -116 -115 -153zM185 187c0 -42 32 -86 117 -86c79 0 107 34 107 73
c0 64 -79 85 -135 106c-47 -17 -89 -48 -89 -93zM292 579c-51 0 -91 -31 -91 -71c0 -52 58 -83 114 -96c42 14 78 45 78 87c0 47 -41 80 -101 80z" />
    <glyph glyph-name="nine.fitted" 
d="M403 286l-2 1c-34 -37 -86 -62 -144 -62c-134 0 -218 85 -218 235c0 144 102 230 250 230c189 0 265 -149 265 -310c0 -308 -145 -390 -314 -390c-67 0 -122 10 -180 29v160h125v-63c15 -2 26 -2 42 -2c86 0 178 49 176 172zM390 396c9 81 -5 170 -94 170
c-53 0 -97 -36 -97 -106c0 -47 19 -105 99 -105c39 0 68 18 92 41z" />
    <glyph glyph-name="zerooldstyle" horiz-adv-x="570" 
d="M285 386c-53 0 -100 -37 -100 -136s47 -136 100 -136c52 0 100 37 100 136s-48 136 -100 136zM285 -10c-158 0 -259 92 -259 260c0 167 101 260 259 260c157 0 259 -93 259 -260c0 -168 -102 -260 -259 -260z" />
    <glyph glyph-name="oneoldstyle" horiz-adv-x="390" 
d="M267 124h105v-124h-360v124h105v235l-103 -2v106l183 42h70v-381z" />
    <glyph glyph-name="twooldstyle" horiz-adv-x="530" 
d="M389 161h123v-161h-496v142c189 65 319 107 319 172c0 46 -41 59 -85 59c-25 0 -69 -5 -100 -14v-42h-124v152c47 17 141 41 242 41c162 0 226 -72 226 -156c0 -140 -140 -185 -266 -228v-2h161v37z" />
    <glyph glyph-name="threeoldstyle" horiz-adv-x="520" 
d="M15 -141v143h124v-56c33 -9 66 -12 102 -12c81 0 108 45 108 82c0 59 -42 82 -119 82h-93v124h86c94 0 111 50 111 91c0 37 -29 73 -93 73c-36 0 -64 -5 -95 -14v-55h-124v144c86 38 167 49 245 49c116 0 217 -60 217 -180c0 -73 -40 -124 -114 -153v-2
c94 -25 134 -94 134 -168c0 -127 -96 -197 -255 -197c-87 0 -149 10 -234 49z" />
    <glyph glyph-name="fouroldstyle" horiz-adv-x="570" 
d="M169 124h151v222h-2c-51 -92 -89 -149 -149 -222zM320 -56v56h-304v124c110 120 198 221 268 381h186v-381h84v-124h-84v-56h54v-124h-258v124h54z" />
    <glyph glyph-name="fiveoldstyle" horiz-adv-x="540" 
d="M492 500v-179h-123v46h-191l-7 -135l2 -1c32 23 70 39 130 39c128 0 211 -76 211 -223c0 -157 -99 -237 -264 -237c-75 0 -139 11 -225 50v134h124v-49c31 -8 61 -11 92 -11c81 0 114 48 114 105c0 46 -23 103 -106 103c-49 0 -73 -13 -105 -39l-107 9l12 388h443z" />
    <glyph glyph-name="sixoldstyle" horiz-adv-x="550" 
d="M176 394l2 -1c33 37 83 62 136 62c129 0 210 -85 210 -235c0 -144 -99 -230 -241 -230c-182 0 -257 149 -257 310c0 307 141 390 303 390c65 0 119 -10 175 -29v-160h-124v63c-13 1 -23 2 -38 2c-77 0 -167 -49 -166 -172zM189 284c-9 -82 4 -170 87 -170
c49 0 89 36 89 106c0 47 -18 105 -91 105c-35 0 -62 -18 -85 -41z" />
    <glyph glyph-name="sevenoldstyle" horiz-adv-x="490" 
d="M17 500h457v-106c-92 -163 -181 -327 -220 -574h-168c30 173 119 387 224 545v2h-169v-46h-124v179z" />
    <glyph glyph-name="eightoldstyle" horiz-adv-x="550" 
d="M405 359v-2c85 -43 129 -95 129 -170c0 -140 -126 -197 -263 -197c-131 0 -255 50 -255 181c0 77 45 131 127 165v2c-67 36 -107 88 -107 166c0 127 121 186 243 186c115 0 235 -59 235 -178c0 -73 -39 -116 -109 -153zM171 187c0 -42 30 -86 109 -86c73 0 99 34 99 73
c0 64 -75 85 -127 106c-43 -17 -81 -48 -81 -93zM271 579c-49 0 -85 -31 -85 -71c0 -52 56 -83 107 -96c38 14 71 45 71 87c0 47 -37 80 -93 80z" />
    <glyph glyph-name="nineoldstyle" horiz-adv-x="550" 
d="M374 106l-2 1c-33 -37 -83 -62 -136 -62c-130 0 -210 85 -210 235c0 144 99 230 241 230c182 0 257 -149 257 -310c0 -308 -141 -390 -303 -390c-65 0 -119 10 -175 29v160h124v-63c13 -2 23 -2 38 -2c77 0 167 49 166 172zM361 216c9 81 -4 170 -87 170
c-49 0 -89 -36 -89 -106c0 -47 17 -105 91 -105c35 0 62 18 85 41z" />
    <glyph glyph-name="centoldstyle" unicode="&#xf7a2;" horiz-adv-x="510" 
d="M335 -130h-80v100h80v-100zM335 530h-80v100h80v-100zM354 339v44c-18 2 -34 3 -54 3c-64 0 -105 -44 -105 -136c0 -95 44 -136 105 -136c40 0 67 0 151 22l26 -120c-59 -16 -112 -26 -177 -26c-197 0 -264 101 -264 260c0 157 66 260 264 260c65 0 120 -10 177 -24v-147
h-123z" />
    <glyph glyph-name="dollaroldstyle" unicode="&#xf724;" horiz-adv-x="510" 
d="M295 -130h-80v100h80v-100zM295 530h-80v100h80v-100zM443 339h-124v45c-33 6 -62 7 -82 7c-45 0 -63 -15 -63 -32c0 -19 17 -26 68 -38c90 -20 219 -42 219 -165c0 -115 -81 -166 -204 -166c-83 0 -174 9 -234 24v147h124v-45c37 -6 70 -7 92 -7c50 0 72 18 72 36
c0 21 -29 27 -74 35c-116 20 -213 59 -213 175c0 114 81 155 204 155c83 0 155 -9 215 -24v-147z" />
    <glyph glyph-name="zero.taboldstyle" 
d="M297 386c-53 0 -100 -37 -100 -136s47 -136 100 -136c52 0 100 37 100 136s-48 136 -100 136zM297 -10c-158 0 -259 92 -259 260c0 167 101 260 259 260c157 0 259 -93 259 -260c0 -168 -102 -260 -259 -260z" />
    <glyph glyph-name="one.taboldstyle" 
d="M373 124h162v-124h-477v124h164v235l-153 -2v106l232 42h72v-381z" />
    <glyph glyph-name="two.taboldstyle" 
d="M421 161h123v-161h-495v142c189 65 318 107 318 172c0 46 -41 59 -85 59c-25 0 -70 -5 -100 -14v-42h-124v152c47 17 141 41 242 41c162 0 226 -72 226 -156c0 -140 -139 -185 -265 -228v-2h160v37z" />
    <glyph glyph-name="three.taboldstyle" 
d="M43 -141v143h125v-56c35 -9 71 -12 109 -12c89 0 117 45 117 82c0 59 -45 82 -128 82h-96v124h89c99 0 119 50 119 91c0 37 -30 73 -101 73c-39 0 -68 -5 -102 -14v-55h-124v144c88 38 171 49 252 49c122 0 225 -60 225 -180c0 -73 -43 -124 -119 -153v-2
c97 -25 140 -94 140 -168c0 -127 -99 -197 -264 -197c-90 0 -155 10 -242 49z" />
    <glyph glyph-name="four.taboldstyle" 
d="M172 124h164v222h-2c-55 -92 -96 -149 -162 -222zM336 -56v56h-318v124c115 120 209 221 282 381h187v-381h88v-124h-88v-56h56v-124h-264v124h57z" />
    <glyph glyph-name="five.taboldstyle" 
d="M526 500v-179h-124v46h-203l-8 -135l2 -1c34 23 74 39 137 39c133 0 219 -76 219 -223c0 -157 -103 -237 -273 -237c-79 0 -145 11 -233 50v134h125v-49c34 -8 65 -11 99 -11c86 0 123 48 123 105c0 46 -25 103 -114 103c-52 0 -79 -13 -112 -39l-108 9l13 388h457z" />
    <glyph glyph-name="six.taboldstyle" 
d="M190 394l2 -1c35 37 87 62 144 62c135 0 218 -85 218 -235c0 -144 -102 -230 -249 -230c-189 0 -266 149 -266 310c0 307 146 390 314 390c68 0 123 -10 180 -29v-160h-124v63c-15 1 -26 2 -42 2c-87 0 -178 -49 -177 -172zM203 284c-9 -82 6 -170 94 -170
c54 0 98 36 98 106c0 47 -20 105 -99 105c-39 0 -68 -18 -93 -41z" />
    <glyph glyph-name="seven.taboldstyle" 
d="M42 500h511v-106c-96 -163 -190 -327 -232 -574h-168c32 173 127 387 236 545v2h-223v-46h-124v179z" />
    <glyph glyph-name="eight.taboldstyle" 
d="M428 359v-2c89 -43 136 -95 136 -170c0 -140 -128 -197 -272 -197c-136 0 -263 50 -263 181c0 77 49 131 135 165v2c-71 36 -114 88 -114 166c0 127 124 186 251 186c120 0 242 -59 242 -178c0 -73 -41 -116 -115 -153zM185 187c0 -42 32 -86 117 -86c79 0 107 34 107 73
c0 64 -79 85 -135 106c-47 -17 -89 -48 -89 -93zM292 579c-51 0 -91 -31 -91 -71c0 -52 58 -83 114 -96c42 14 78 45 78 87c0 47 -41 80 -101 80z" />
    <glyph glyph-name="nine.taboldstyle" 
d="M403 106l-2 1c-34 -37 -86 -62 -144 -62c-134 0 -218 85 -218 235c0 144 102 230 250 230c189 0 265 -149 265 -310c0 -308 -145 -390 -314 -390c-67 0 -122 10 -180 29v160h125v-63c15 -2 26 -2 42 -2c86 0 178 49 176 172zM390 216c9 81 -5 170 -94 170
c-53 0 -97 -36 -97 -106c0 -47 19 -105 99 -105c39 0 68 18 92 41z" />
    <glyph glyph-name="currency.taboldstyle" horiz-adv-x="513" 
d="M100 249c0 45 18 85 48 114l-78 90l8 8l79 -90c27 22 62 36 100 36c37 0 72 -14 99 -36l78 90l9 -8l-78 -89c31 -29 50 -70 50 -115s-19 -86 -49 -114l76 -86l-9 -9l-77 87c-27 -22 -62 -35 -99 -35c-38 0 -73 13 -100 35l-76 -87l-9 9l76 86c-30 29 -48 69 -48 114z
M112 249c0 -79 66 -145 145 -145s146 66 146 145s-67 146 -146 146s-145 -67 -145 -146z" />
    <glyph glyph-name="cent.taboldstyle" 
d="M375 -130h-80v100h80v-100zM375 530h-80v100h80v-100zM394 339v44c-18 2 -34 3 -54 3c-64 0 -105 -44 -105 -136c0 -95 44 -136 105 -136c40 0 67 0 151 22l26 -120c-59 -16 -112 -26 -177 -26c-197 0 -264 101 -264 260c0 157 66 260 264 260c65 0 120 -10 177 -24v-147
h-123z" />
    <glyph glyph-name="dollar.taboldstyle" 
d="M350 -130h-80v100h80v-100zM350 530h-80v100h80v-100zM498 339h-124v45c-33 6 -62 7 -82 7c-45 0 -63 -15 -63 -32c0 -19 17 -26 68 -38c90 -20 219 -42 219 -165c0 -115 -81 -166 -204 -166c-83 0 -174 9 -234 24v147h124v-45c37 -6 70 -7 92 -7c50 0 72 18 72 36
c0 21 -29 27 -74 35c-116 20 -213 59 -213 175c0 114 81 155 204 155c83 0 155 -9 215 -24v-147z" />
    <glyph glyph-name="Euro.taboldstyle" 
d="M260 227h109v-45h-99c15 -41 47 -68 95 -68c40 0 67 0 151 22l26 -120c-59 -16 -112 -26 -177 -26c-168 0 -241 73 -259 192h-55v45h50c-1 11 -1 32 0 45h-50v45h55c16 111 85 193 259 193c65 0 118 -10 177 -26v-145h-123v42c-17 3 -33 5 -54 5c-50 0 -80 -31 -95 -69
h99v-45h-109c-1 -13 -1 -34 0 -45z" />
    <glyph glyph-name="franc.taboldstyle" 
d="M260 227h109v-45h-99c15 -41 47 -68 95 -68c40 0 67 0 151 22l26 -120c-59 -16 -112 -26 -177 -26c-168 0 -241 73 -259 192h-55v45h50c-1 11 -1 32 0 45h-50v45h55c16 111 85 193 259 193c65 0 118 -10 177 -26v-145h-123v42c-17 3 -33 5 -54 5c-50 0 -80 -31 -95 -69
h99v-45h-109c-1 -13 -1 -34 0 -45z" />
    <glyph glyph-name="sterling.taboldstyle" 
d="M425 132v47h124v-179h-507v132h50v74h-50v89h50v36c0 129 106 179 242 179c97 0 168 -20 217 -35v-145h-124v42c-34 8 -64 14 -102 14c-63 0 -83 -31 -83 -60v-31h118v-89h-118v-74h183z" />
    <glyph glyph-name="yen.taboldstyle" horiz-adv-x="600" 
d="M376 124h55v-124h-260v124h55v51h-109v71h69l-98 130h-47v124h192l71 -178h2l74 178h179v-124h-55l-98 -130h70v-71h-100v-51z" />
    <glyph glyph-name="lira.taboldstyle" 
d="M260 227h109v-45h-99c15 -41 47 -68 95 -68c40 0 67 0 151 22l26 -120c-59 -16 -112 -26 -177 -26c-168 0 -241 73 -259 192h-55v45h50c-1 11 -1 32 0 45h-50v45h55c16 111 85 193 259 193c65 0 118 -10 177 -26v-145h-123v42c-17 3 -33 5 -54 5c-50 0 -80 -31 -95 -69
h99v-45h-109c-1 -13 -1 -34 0 -45z" />
    <glyph glyph-name="peseta.taboldstyle" 
d="M260 227h109v-45h-99c15 -41 47 -68 95 -68c40 0 67 0 151 22l26 -120c-59 -16 -112 -26 -177 -26c-168 0 -241 73 -259 192h-55v45h50c-1 11 -1 32 0 45h-50v45h55c16 111 85 193 259 193c65 0 118 -10 177 -26v-145h-123v42c-17 3 -33 5 -54 5c-50 0 -80 -31 -95 -69
h99v-45h-109c-1 -13 -1 -34 0 -45z" />
    <glyph glyph-name="colonmonetary.taboldstyle" 
d="M409 -130h-63v100h63v-100zM409 530h-63v100h63v-100zM394 339v44c-18 2 -34 3 -54 3c-64 0 -105 -44 -105 -136c0 -95 44 -136 105 -136c40 0 67 0 151 22l26 -120c-59 -16 -112 -26 -177 -26c-197 0 -264 101 -264 260c0 157 66 260 264 260c65 0 120 -10 177 -24v-147
h-123zM291 -130h-62v100h62v-100zM291 530h-62v100h62v-100z" />
    <glyph glyph-name="florin.taboldstyle" horiz-adv-x="600" 
d="M221 -32v226h-64v97l64 9v58c0 102 45 152 164 152c28 0 62 -4 91 -9l-13 -115c-17 3 -32 5 -43 5c-38 0 -49 -21 -49 -59v-32h100v-106h-100v-227c0 -103 -31 -177 -164 -177c-28 0 -62 4 -91 9l14 115c16 -3 31 -5 42 -5c38 0 49 21 49 59z" />
    <glyph glyph-name="numbersign.taboldstyle" horiz-adv-x="600" 
d="M172 500h106l-10 -96h95l10 96h107l-11 -96h100l-10 -98h-100l-12 -112h100l-10 -98h-100l-10 -96h-107l11 96h-95l-11 -96h-106l11 96h-100l10 98h100l12 112h-100l10 98h100zM258 306l-12 -112h95l12 112h-95z" />
    <glyph glyph-name="zerosuperior" unicode="&#x2070;" horiz-adv-x="286" 
d="M143 820c-37 0 -48 -44 -48 -107c0 -65 11 -113 48 -113s48 48 48 113c0 63 -11 107 -48 107zM143 535c-106 0 -131 80 -131 178c0 96 25 172 131 172c105 0 130 -76 130 -172c0 -98 -25 -178 -130 -178z" />
    <glyph glyph-name="foursuperior" unicode="&#x2074;" horiz-adv-x="296" 
d="M92 696h71v103h-1c-24 -43 -41 -68 -70 -103zM163 605v26h-151v65c55 60 98 107 134 187h96v-187h41v-65h-41v-26h26v-65h-131v65h26z" />
    <glyph glyph-name="fivesuperior" unicode="&#x2075;" horiz-adv-x="271" 
d="M248 880v-91h-64v22h-92l-3 -63h1c15 10 34 17 63 17c64 0 106 -37 106 -111c0 -79 -50 -119 -133 -119c-37 0 -70 6 -114 25v68h65v-24c15 -3 29 -4 45 -4c38 0 54 23 54 49c0 23 -11 50 -51 50c-24 0 -35 -6 -51 -18l-55 5l5 194h224z" />
    <glyph glyph-name="sixsuperior" unicode="&#x2076;" horiz-adv-x="276" 
d="M90 739l1 -1c16 18 42 30 67 30c65 0 105 -43 105 -118c0 -72 -49 -115 -121 -115c-91 0 -130 74 -130 155c0 154 72 195 153 195c32 0 60 -5 88 -15v-81h-65v31h-17c-35 0 -81 -19 -81 -81zM97 681c-4 -39 1 -81 41 -81c23 0 43 17 43 50c0 23 -9 50 -44 50
c-16 0 -28 -8 -40 -19z" />
    <glyph glyph-name="sevensuperior" unicode="&#x2077;" horiz-adv-x="255" 
d="M12 880h231v-55c-46 -82 -89 -161 -109 -285h-87c15 86 58 191 110 270v1h-81v-22h-64v91z" />
    <glyph glyph-name="eightsuperior" unicode="&#x2078;" horiz-adv-x="286" 
d="M211 720v-1c41 -23 62 -48 62 -85c0 -71 -64 -99 -132 -99c-66 0 -129 24 -129 91c0 37 21 65 62 81v1c-33 19 -52 45 -52 83c0 65 62 94 123 94c57 0 118 -29 118 -90c0 -35 -18 -57 -52 -75zM93 634c0 -20 14 -41 53 -41c34 0 47 16 47 34c0 31 -37 41 -62 51
c-20 -8 -38 -23 -38 -44zM141 827c-24 0 -41 -16 -41 -33c0 -26 28 -41 52 -47c18 7 33 22 33 42c0 21 -16 38 -44 38z" />
    <glyph glyph-name="ninesuperior" unicode="&#x2079;" horiz-adv-x="276" 
d="M185 681l-1 1c-16 -18 -41 -29 -67 -29c-64 0 -105 42 -105 117c0 72 50 115 122 115c91 0 129 -74 129 -155c0 -154 -71 -195 -152 -195c-33 0 -60 5 -88 14v82h64v-31h17c35 0 82 19 81 81zM178 739c5 39 -1 81 -40 81c-24 0 -43 -17 -43 -50c0 -23 9 -50 43 -50
c17 0 29 8 40 19z" />
    <glyph glyph-name="parenleftsuperior" unicode="&#x207d;" horiz-adv-x="165" 
d="M12 710c0 85 30 170 89 240h51c-45 -81 -62 -158 -62 -240c0 -80 17 -155 62 -240h-51c-59 70 -89 158 -89 240z" />
    <glyph glyph-name="parenrightsuperior" unicode="&#x207e;" horiz-adv-x="165" 
d="M152 710c0 -82 -29 -170 -89 -240h-51c46 85 62 160 62 240c0 82 -16 159 -62 240h51c60 -70 89 -155 89 -240z" />
    <glyph glyph-name="hyphensuperior" horiz-adv-x="241" 
d="M12 705h216v-65h-216v65z" />
    <glyph glyph-name="commasuperior" horiz-adv-x="103" 
d="M54 475h-23l14 65h-32v77h78v-77z" />
    <glyph glyph-name="periodsuperior" horiz-adv-x="103" 
d="M12 617h78v-77h-78v77z" />
    <glyph glyph-name="centsuperior" horiz-adv-x="306" 
d="M229 641h65v-87c-42 -12 -75 -17 -109 -19v-45h-33v46c-110 6 -140 83 -140 177c0 92 30 165 140 171v46h33v-45c34 -2 67 -8 109 -19v-87h-65v36c-23 4 -38 5 -55 5c-52 0 -74 -44 -74 -107c0 -70 22 -113 74 -113c17 0 32 0 55 5v36z" />
    <glyph glyph-name="dollarsuperior" horiz-adv-x="291" 
d="M12 646h65v-33c29 -6 52 -9 68 -9c30 0 46 11 46 30c0 25 -33 32 -75 44c-61 17 -99 51 -99 108c0 66 51 94 114 98v46h33v-46c32 -1 64 -7 105 -18v-92h-65v36c-25 5 -42 6 -59 6c-25 0 -40 -10 -40 -27c0 -21 23 -32 66 -42c61 -14 107 -44 107 -104
c0 -69 -49 -103 -114 -107v-46h-33v46c-36 1 -76 6 -119 18v92z" />
    <glyph glyph-name="zeroinferior" unicode="&#x2080;" horiz-adv-x="286" 
d="M143 80c-37 0 -48 -44 -48 -107c0 -65 11 -113 48 -113s48 48 48 113c0 63 -11 107 -48 107zM143 -205c-106 0 -131 80 -131 178c0 96 25 172 131 172c105 0 130 -76 130 -172c0 -98 -25 -178 -130 -178z" />
    <glyph glyph-name="oneinferior" unicode="&#x2081;" horiz-adv-x="207" 
d="M143 -135h51v-65h-181v65h52v202l-52 -1v55l93 22h37v-278z" />
    <glyph glyph-name="twoinferior" unicode="&#x2082;" horiz-adv-x="275" 
d="M199 -109h64v-91h-251v74c125 77 154 115 154 151c0 43 -34 49 -54 49c-12 0 -22 -1 -35 -5v-21h-65v72c44 18 74 25 118 25c80 0 118 -45 118 -104c0 -70 -50 -119 -125 -171v-1h76v22z" />
    <glyph glyph-name="threeinferior" unicode="&#x2083;" horiz-adv-x="271" 
d="M12 -180v72h65v-27c16 -4 33 -5 49 -5c38 0 52 20 52 39c0 28 -20 39 -57 39h-47v64h43c47 0 54 24 54 44c0 19 -15 34 -45 34c-17 0 -30 -2 -46 -6v-26h-65v72c45 20 86 25 125 25c58 0 109 -30 109 -91c0 -35 -20 -60 -56 -75v-1c46 -13 66 -48 66 -84
c0 -64 -49 -99 -128 -99c-44 0 -75 5 -119 25z" />
    <glyph glyph-name="fourinferior" unicode="&#x2084;" horiz-adv-x="296" 
d="M92 -44h71v103h-1c-24 -43 -41 -68 -70 -103zM163 -135v26h-151v65c55 60 98 107 134 187h96v-187h41v-65h-41v-26h26v-65h-131v65h26z" />
    <glyph glyph-name="fiveinferior" unicode="&#x2085;" horiz-adv-x="271" 
d="M248 140v-91h-64v22h-92l-3 -63h1c15 10 34 17 63 17c64 0 106 -37 106 -111c0 -79 -50 -119 -133 -119c-37 0 -70 6 -114 25v68h65v-24c15 -3 29 -4 45 -4c38 0 54 23 54 49c0 23 -11 50 -51 50c-24 0 -35 -6 -51 -18l-55 5l5 194h224z" />
    <glyph glyph-name="sixinferior" unicode="&#x2086;" horiz-adv-x="276" 
d="M90 -1l1 -1c16 18 42 30 67 30c65 0 105 -43 105 -118c0 -72 -49 -115 -121 -115c-91 0 -130 74 -130 155c0 154 72 195 153 195c32 0 60 -5 88 -15v-81h-65v31h-17c-35 0 -81 -19 -81 -81zM97 -59c-4 -39 1 -81 41 -81c23 0 43 17 43 50c0 23 -9 50 -44 50
c-16 0 -28 -8 -40 -19z" />
    <glyph glyph-name="seveninferior" unicode="&#x2087;" horiz-adv-x="255" 
d="M12 140h231v-55c-46 -82 -89 -161 -109 -285h-87c15 86 58 191 110 270v1h-81v-22h-64v91z" />
    <glyph glyph-name="eightinferior" unicode="&#x2088;" horiz-adv-x="286" 
d="M211 -20v-1c41 -23 62 -48 62 -85c0 -71 -64 -99 -132 -99c-66 0 -129 24 -129 91c0 37 21 65 62 81v1c-33 19 -52 45 -52 83c0 65 62 94 123 94c57 0 118 -29 118 -90c0 -35 -18 -57 -52 -75zM93 -106c0 -20 14 -41 53 -41c34 0 47 16 47 34c0 31 -37 41 -62 51
c-20 -8 -38 -23 -38 -44zM141 87c-24 0 -41 -16 -41 -33c0 -26 28 -41 52 -47c18 7 33 22 33 42c0 21 -16 38 -44 38z" />
    <glyph glyph-name="nineinferior" unicode="&#x2089;" horiz-adv-x="276" 
d="M185 -59l-1 1c-16 -18 -41 -29 -67 -29c-64 0 -105 42 -105 117c0 72 50 115 122 115c91 0 129 -74 129 -155c0 -154 -71 -195 -152 -195c-33 0 -60 5 -88 14v82h64v-31h17c35 0 82 19 81 81zM178 -1c5 39 -1 81 -40 81c-24 0 -43 -17 -43 -50c0 -23 9 -50 43 -50
c17 0 29 8 40 19z" />
    <glyph glyph-name="parenleftinferior" unicode="&#x208d;" horiz-adv-x="165" 
d="M12 -30c0 85 30 170 89 240h51c-45 -81 -62 -158 -62 -240c0 -80 17 -155 62 -240h-51c-59 70 -89 158 -89 240z" />
    <glyph glyph-name="parenrightinferior" unicode="&#x208e;" horiz-adv-x="165" 
d="M152 -30c0 -82 -29 -170 -89 -240h-51c46 85 62 160 62 240c0 82 -16 159 -62 240h51c60 -70 89 -155 89 -240z" />
    <glyph glyph-name="hypheninferior" horiz-adv-x="241" 
d="M12 -35h216v-65h-216v65z" />
    <glyph glyph-name="commainferior" horiz-adv-x="103" 
d="M54 -265h-23l14 65h-32v77h78v-77z" />
    <glyph glyph-name="periodinferior" horiz-adv-x="103" 
d="M12 -123h78v-77h-78v77z" />
    <glyph glyph-name="centinferior" horiz-adv-x="306" 
d="M229 -99h65v-87c-42 -12 -75 -17 -109 -19v-45h-33v46c-110 6 -140 83 -140 177c0 92 30 165 140 171v46h33v-45c34 -2 67 -8 109 -19v-87h-65v36c-23 4 -38 5 -55 5c-52 0 -74 -44 -74 -107c0 -70 22 -113 74 -113c17 0 32 0 55 5v36z" />
    <glyph glyph-name="dollarinferior" horiz-adv-x="291" 
d="M12 -94h65v-33c29 -6 52 -9 68 -9c30 0 46 11 46 30c0 25 -33 32 -75 44c-61 17 -99 51 -99 108c0 66 51 94 114 98v46h33v-46c32 -1 64 -7 105 -18v-92h-65v36c-25 5 -42 6 -59 6c-25 0 -40 -10 -40 -27c0 -21 23 -32 66 -42c61 -14 107 -44 107 -104
c0 -69 -49 -103 -114 -107v-46h-33v46c-36 1 -76 6 -119 18v92z" />
    <glyph glyph-name="zero.denominator" horiz-adv-x="286" 
d="M143 280c-37 0 -48 -44 -48 -107c0 -65 11 -113 48 -113s48 48 48 113c0 63 -11 107 -48 107zM143 -5c-106 0 -131 80 -131 178c0 96 25 172 131 172c105 0 130 -76 130 -172c0 -98 -25 -178 -130 -178z" />
    <glyph glyph-name="one.denominator" horiz-adv-x="207" 
d="M143 65h51v-65h-181v65h52v202l-52 -1v55l93 22h37v-278z" />
    <glyph glyph-name="two.denominator" horiz-adv-x="275" 
d="M199 91h64v-91h-251v74c125 77 154 115 154 151c0 43 -34 49 -54 49c-12 0 -22 -1 -35 -5v-21h-65v72c44 18 74 25 118 25c80 0 118 -45 118 -104c0 -70 -50 -119 -125 -171v-1h76v22z" />
    <glyph glyph-name="three.denominator" horiz-adv-x="271" 
d="M12 20v72h65v-27c16 -4 33 -5 49 -5c38 0 52 20 52 39c0 28 -20 39 -57 39h-47v64h43c47 0 54 24 54 44c0 19 -15 34 -45 34c-17 0 -30 -2 -46 -6v-26h-65v72c45 20 86 25 125 25c58 0 109 -30 109 -91c0 -35 -20 -60 -56 -75v-1c46 -13 66 -48 66 -84
c0 -64 -49 -99 -128 -99c-44 0 -75 5 -119 25z" />
    <glyph glyph-name="four.denominator" horiz-adv-x="296" 
d="M92 156h71v103h-1c-24 -43 -41 -68 -70 -103zM163 65v26h-151v65c55 60 98 107 134 187h96v-187h41v-65h-41v-26h26v-65h-131v65h26z" />
    <glyph glyph-name="five.denominator" horiz-adv-x="271" 
d="M248 340v-91h-64v22h-92l-3 -63h1c15 10 34 17 63 17c64 0 106 -37 106 -111c0 -79 -50 -119 -133 -119c-37 0 -70 6 -114 25v68h65v-24c15 -3 29 -4 45 -4c38 0 54 23 54 49c0 23 -11 50 -51 50c-24 0 -35 -6 -51 -18l-55 5l5 194h224z" />
    <glyph glyph-name="six.denominator" horiz-adv-x="276" 
d="M90 199l1 -1c16 18 42 30 67 30c65 0 105 -43 105 -118c0 -72 -49 -115 -121 -115c-91 0 -130 74 -130 155c0 154 72 195 153 195c32 0 60 -5 88 -15v-81h-65v31h-17c-35 0 -81 -19 -81 -81zM97 141c-4 -39 1 -81 41 -81c23 0 43 17 43 50c0 23 -9 50 -44 50
c-16 0 -28 -8 -40 -19z" />
    <glyph glyph-name="seven.denominator" horiz-adv-x="255" 
d="M12 340h231v-55c-46 -82 -89 -161 -109 -285h-87c15 86 58 191 110 270v1h-81v-22h-64v91z" />
    <glyph glyph-name="eight.denominator" horiz-adv-x="286" 
d="M211 180v-1c41 -23 62 -48 62 -85c0 -71 -64 -99 -132 -99c-66 0 -129 24 -129 91c0 37 21 65 62 81v1c-33 19 -52 45 -52 83c0 65 62 94 123 94c57 0 118 -29 118 -90c0 -35 -18 -57 -52 -75zM93 94c0 -20 14 -41 53 -41c34 0 47 16 47 34c0 31 -37 41 -62 51
c-20 -8 -38 -23 -38 -44zM141 287c-24 0 -41 -16 -41 -33c0 -26 28 -41 52 -47c18 7 33 22 33 42c0 21 -16 38 -44 38z" />
    <glyph glyph-name="nine.denominator" horiz-adv-x="276" 
d="M185 141l-1 1c-16 -18 -41 -29 -67 -29c-64 0 -105 42 -105 117c0 72 50 115 122 115c91 0 129 -74 129 -155c0 -154 -71 -195 -152 -195c-33 0 -60 5 -88 14v82h64v-31h17c35 0 82 19 81 81zM178 199c5 39 -1 81 -40 81c-24 0 -43 -17 -43 -50c0 -23 9 -50 43 -50
c17 0 29 8 40 19z" />
    <glyph glyph-name="parenleft.denominator" horiz-adv-x="165" 
d="M12 170c0 85 30 170 89 240h51c-45 -81 -62 -158 -62 -240c0 -80 17 -155 62 -240h-51c-59 70 -89 158 -89 240z" />
    <glyph glyph-name="parenright.denominator" horiz-adv-x="165" 
d="M152 170c0 -82 -29 -170 -89 -240h-51c46 85 62 160 62 240c0 82 -16 159 -62 240h51c60 -70 89 -155 89 -240z" />
    <glyph glyph-name="cent.denominator" horiz-adv-x="306" 
d="M229 101h65v-87c-42 -12 -75 -17 -109 -19v-45h-33v46c-110 6 -140 83 -140 177c0 92 30 165 140 171v46h33v-45c34 -2 67 -8 109 -19v-87h-65v36c-23 4 -38 5 -55 5c-52 0 -74 -44 -74 -107c0 -70 22 -113 74 -113c17 0 32 0 55 5v36z" />
    <glyph glyph-name="dollar.denominator" horiz-adv-x="291" 
d="M12 106h65v-33c29 -6 52 -9 68 -9c30 0 46 11 46 30c0 25 -33 32 -75 44c-61 17 -99 51 -99 108c0 66 51 94 114 98v46h33v-46c32 -1 64 -7 105 -18v-92h-65v36c-25 5 -42 6 -59 6c-25 0 -40 -10 -40 -27c0 -21 23 -32 66 -42c61 -14 107 -44 107 -104
c0 -69 -49 -103 -114 -107v-46h-33v46c-36 1 -76 6 -119 18v92z" />
    <glyph glyph-name="hyphen.denominator" horiz-adv-x="241" 
d="M12 165h216v-65h-216v65z" />
    <glyph glyph-name="comma.denominator" horiz-adv-x="103" 
d="M54 -65h-23l14 65h-32v77h78v-77z" />
    <glyph glyph-name="period.denominator" horiz-adv-x="103" 
d="M12 77h78v-77h-78v77z" />
    <glyph glyph-name="zero.numerator" horiz-adv-x="286" 
d="M143 620c-37 0 -48 -44 -48 -107c0 -65 11 -113 48 -113s48 48 48 113c0 63 -11 107 -48 107zM143 335c-106 0 -131 80 -131 178c0 96 25 172 131 172c105 0 130 -76 130 -172c0 -98 -25 -178 -130 -178z" />
    <glyph glyph-name="one.numerator" horiz-adv-x="207" 
d="M143 405h51v-65h-181v65h52v202l-52 -1v55l93 22h37v-278z" />
    <glyph glyph-name="two.numerator" horiz-adv-x="275" 
d="M199 431h64v-91h-251v74c125 77 154 115 154 151c0 43 -34 49 -54 49c-12 0 -22 -1 -35 -5v-21h-65v72c44 18 74 25 118 25c80 0 118 -45 118 -104c0 -70 -50 -119 -125 -171v-1h76v22z" />
    <glyph glyph-name="three.numerator" horiz-adv-x="271" 
d="M12 360v72h65v-27c16 -4 33 -5 49 -5c38 0 52 20 52 39c0 28 -20 39 -57 39h-47v64h43c47 0 54 24 54 44c0 19 -15 34 -45 34c-17 0 -30 -2 -46 -6v-26h-65v72c45 20 86 25 125 25c58 0 109 -30 109 -91c0 -35 -20 -60 -56 -75v-1c46 -13 66 -48 66 -84
c0 -64 -49 -99 -128 -99c-44 0 -75 5 -119 25z" />
    <glyph glyph-name="four.numerator" horiz-adv-x="296" 
d="M92 496h71v103h-1c-24 -43 -41 -68 -70 -103zM163 405v26h-151v65c55 60 98 107 134 187h96v-187h41v-65h-41v-26h26v-65h-131v65h26z" />
    <glyph glyph-name="five.numerator" horiz-adv-x="271" 
d="M248 680v-91h-64v22h-92l-3 -63h1c15 10 34 17 63 17c64 0 106 -37 106 -111c0 -79 -50 -119 -133 -119c-37 0 -70 6 -114 25v68h65v-24c15 -3 29 -4 45 -4c38 0 54 23 54 49c0 23 -11 50 -51 50c-24 0 -35 -6 -51 -18l-55 5l5 194h224z" />
    <glyph glyph-name="six.numerator" horiz-adv-x="276" 
d="M90 539l1 -1c16 18 42 30 67 30c65 0 105 -43 105 -118c0 -72 -49 -115 -121 -115c-91 0 -130 74 -130 155c0 154 72 195 153 195c32 0 60 -5 88 -15v-81h-65v31h-17c-35 0 -81 -19 -81 -81zM97 481c-4 -39 1 -81 41 -81c23 0 43 17 43 50c0 23 -9 50 -44 50
c-16 0 -28 -8 -40 -19z" />
    <glyph glyph-name="seven.numerator" horiz-adv-x="255" 
d="M12 680h231v-55c-46 -82 -89 -161 -109 -285h-87c15 86 58 191 110 270v1h-81v-22h-64v91z" />
    <glyph glyph-name="eight.numerator" horiz-adv-x="286" 
d="M211 520v-1c41 -23 62 -48 62 -85c0 -71 -64 -99 -132 -99c-66 0 -129 24 -129 91c0 37 21 65 62 81v1c-33 19 -52 45 -52 83c0 65 62 94 123 94c57 0 118 -29 118 -90c0 -35 -18 -57 -52 -75zM93 434c0 -20 14 -41 53 -41c34 0 47 16 47 34c0 31 -37 41 -62 51
c-20 -8 -38 -23 -38 -44zM141 627c-24 0 -41 -16 -41 -33c0 -26 28 -41 52 -47c18 7 33 22 33 42c0 21 -16 38 -44 38z" />
    <glyph glyph-name="nine.numerator" horiz-adv-x="276" 
d="M185 481l-1 1c-16 -18 -41 -29 -67 -29c-64 0 -105 42 -105 117c0 72 50 115 122 115c91 0 129 -74 129 -155c0 -154 -71 -195 -152 -195c-33 0 -60 5 -88 14v82h64v-31h17c35 0 82 19 81 81zM178 539c5 39 -1 81 -40 81c-24 0 -43 -17 -43 -50c0 -23 9 -50 43 -50
c17 0 29 8 40 19z" />
    <glyph glyph-name="parenleft.numerator" horiz-adv-x="165" 
d="M12 510c0 85 30 170 89 240h51c-45 -81 -62 -158 -62 -240c0 -80 17 -155 62 -240h-51c-59 70 -89 158 -89 240z" />
    <glyph glyph-name="parenright.numerator" horiz-adv-x="165" 
d="M152 510c0 -82 -29 -170 -89 -240h-51c46 85 62 160 62 240c0 82 -16 159 -62 240h51c60 -70 89 -155 89 -240z" />
    <glyph glyph-name="cent.numerator" horiz-adv-x="306" 
d="M229 441h65v-87c-42 -12 -75 -17 -109 -19v-45h-33v46c-110 6 -140 83 -140 177c0 92 30 165 140 171v46h33v-45c34 -2 67 -8 109 -19v-87h-65v36c-23 4 -38 5 -55 5c-52 0 -74 -44 -74 -107c0 -70 22 -113 74 -113c17 0 32 0 55 5v36z" />
    <glyph glyph-name="dollar.numerator" horiz-adv-x="291" 
d="M12 446h65v-33c29 -6 52 -9 68 -9c30 0 46 11 46 30c0 25 -33 32 -75 44c-61 17 -99 51 -99 108c0 66 51 94 114 98v46h33v-46c32 -1 64 -7 105 -18v-92h-65v36c-25 5 -42 6 -59 6c-25 0 -40 -10 -40 -27c0 -21 23 -32 66 -42c61 -14 107 -44 107 -104
c0 -69 -49 -103 -114 -107v-46h-33v46c-36 1 -76 6 -119 18v92z" />
    <glyph glyph-name="hyphen.numerator" horiz-adv-x="241" 
d="M12 505h216v-65h-216v65z" />
    <glyph glyph-name="comma.numerator" horiz-adv-x="103" 
d="M54 275h-23l14 65h-32v77h78v-77z" />
    <glyph glyph-name="period.numerator" horiz-adv-x="103" 
d="M12 417h78v-77h-78v77z" />
    <glyph glyph-name="onethird" unicode="&#x2153;" horiz-adv-x="800" 
d="M594 680l-370 -680h-45l370 680h45zM193 405h51v-65h-181v65h52v202l-52 -1v55l93 22h37v-278zM491 20v72h65v-27c16 -4 32 -5 49 -5c38 0 52 20 52 39c0 28 -21 39 -57 39h-47v64h43c46 0 54 24 54 44c0 19 -16 34 -45 34c-17 0 -30 -2 -46 -6v-26h-65v72
c44 20 85 25 125 25c57 0 108 -30 108 -91c0 -35 -19 -60 -55 -75v-1c46 -13 65 -48 65 -84c0 -64 -48 -99 -128 -99c-44 0 -75 5 -118 25z" />
    <glyph glyph-name="oneeighth" unicode="&#x215b;" horiz-adv-x="800" 
d="M594 680l-370 -680h-45l370 680h45zM193 405h51v-65h-181v65h52v202l-52 -1v55l93 22h37v-278zM675 180v-1c42 -23 62 -48 62 -85c0 -71 -63 -99 -132 -99c-65 0 -128 24 -128 91c0 37 21 65 61 81v1c-32 19 -51 45 -51 83c0 65 61 94 122 94c57 0 118 -29 118 -90
c0 -35 -18 -57 -52 -75zM557 94c0 -20 15 -41 53 -41c34 0 47 16 47 34c0 31 -37 41 -62 51c-20 -8 -38 -23 -38 -44zM605 287c-24 0 -40 -16 -40 -33c0 -26 27 -41 51 -47c18 7 33 22 33 42c0 21 -16 38 -44 38z" />
    <glyph glyph-name="twothirds" unicode="&#x2154;" horiz-adv-x="800" 
d="M614 680l-370 -680h-45l370 680h45zM491 20v72h65v-27c16 -4 32 -5 49 -5c38 0 52 20 52 39c0 28 -21 39 -57 39h-47v64h43c46 0 54 24 54 44c0 19 -16 34 -45 34c-17 0 -30 -2 -46 -6v-26h-65v72c44 20 85 25 125 25c57 0 108 -30 108 -91c0 -35 -19 -60 -55 -75v-1
c46 -13 65 -48 65 -84c0 -64 -48 -99 -128 -99c-44 0 -75 5 -118 25zM249 431h64v-91h-251v74c125 77 154 115 154 151c0 43 -34 49 -54 49c-12 0 -22 -1 -35 -5v-21h-65v72c44 18 74 25 118 25c80 0 118 -45 118 -104c0 -70 -50 -119 -125 -171v-1h76v22z" />
    <glyph glyph-name="threeeighths" unicode="&#x215c;" horiz-adv-x="800" 
d="M604 680l-370 -680h-45l370 680h45zM675 180v-1c42 -23 62 -48 62 -85c0 -71 -63 -99 -132 -99c-65 0 -128 24 -128 91c0 37 21 65 61 81v1c-32 19 -51 45 -51 83c0 65 61 94 122 94c57 0 118 -29 118 -90c0 -35 -18 -57 -52 -75zM557 94c0 -20 15 -41 53 -41
c34 0 47 16 47 34c0 31 -37 41 -62 51c-20 -8 -38 -23 -38 -44zM605 287c-24 0 -40 -16 -40 -33c0 -26 27 -41 51 -47c18 7 33 22 33 42c0 21 -16 38 -44 38zM62 360v72h65v-27c16 -4 33 -5 49 -5c38 0 52 20 52 39c0 28 -20 39 -57 39h-47v64h43c47 0 54 24 54 44
c0 19 -15 34 -45 34c-17 0 -30 -2 -46 -6v-26h-65v72c45 20 86 25 125 25c58 0 109 -30 109 -91c0 -35 -20 -60 -56 -75v-1c46 -13 66 -48 66 -84c0 -64 -49 -99 -128 -99c-44 0 -75 5 -119 25z" />
    <glyph glyph-name="fiveeighths" unicode="&#x215d;" horiz-adv-x="800" 
d="M604 680l-370 -680h-45l370 680h45zM675 180v-1c42 -23 62 -48 62 -85c0 -71 -63 -99 -132 -99c-65 0 -128 24 -128 91c0 37 21 65 61 81v1c-32 19 -51 45 -51 83c0 65 61 94 122 94c57 0 118 -29 118 -90c0 -35 -18 -57 -52 -75zM557 94c0 -20 15 -41 53 -41
c34 0 47 16 47 34c0 31 -37 41 -62 51c-20 -8 -38 -23 -38 -44zM605 287c-24 0 -40 -16 -40 -33c0 -26 27 -41 51 -47c18 7 33 22 33 42c0 21 -16 38 -44 38zM298 680v-91h-64v22h-92l-3 -63h1c15 10 34 17 63 17c64 0 106 -37 106 -111c0 -79 -50 -119 -133 -119
c-37 0 -70 6 -114 25v68h65v-24c15 -3 29 -4 45 -4c38 0 54 23 54 49c0 23 -11 50 -51 50c-24 0 -35 -6 -51 -18l-55 5l5 194h224z" />
    <glyph glyph-name="seveneighths" unicode="&#x215e;" horiz-adv-x="800" 
d="M563 680l-370 -680h-45l370 680h45zM675 180v-1c42 -23 62 -48 62 -85c0 -71 -63 -99 -132 -99c-65 0 -128 24 -128 91c0 37 21 65 61 81v1c-32 19 -51 45 -51 83c0 65 61 94 122 94c57 0 118 -29 118 -90c0 -35 -18 -57 -52 -75zM557 94c0 -20 15 -41 53 -41
c34 0 47 16 47 34c0 31 -37 41 -62 51c-20 -8 -38 -23 -38 -44zM605 287c-24 0 -40 -16 -40 -33c0 -26 27 -41 51 -47c18 7 33 22 33 42c0 21 -16 38 -44 38zM62 680h231v-55c-46 -82 -89 -161 -109 -285h-87c15 86 58 191 110 270v1h-81v-22h-64v91z" />
    <glyph glyph-name="exclamsmall" unicode="&#xf721;" horiz-adv-x="222" 
d="M36 152h150v-152h-150v152zM36 600h150l-9 -380h-132z" />
    <glyph glyph-name="exclamdownsmall" unicode="&#xf7a1;" horiz-adv-x="222" 
d="M186 447h-150v153h150v-153zM186 0h-150l9 380h132z" />
    <glyph glyph-name="exclamdbl" unicode="&#x203c;" horiz-adv-x="422" 
d="M36 152h150v-152h-150v152zM36 700h150l-9 -480h-132zM236 152h150v-152h-150v152zM236 700h150l-9 -480h-132z" />
    <glyph glyph-name="ampersandsmall" unicode="&#xf726;" horiz-adv-x="905" 
d="M596 142v74h-397c11 -64 49 -102 124 -102c41 0 88 10 147 30l17 -115c-66 -28 -120 -39 -186 -39c-162 0 -265 101 -265 260s103 260 264 260c151 0 208 -93 216 -201h80l18 191h132v-191h118v-93h-118v-48c0 -38 20 -59 66 -59c12 0 27 2 43 5l14 -115
c-29 -5 -81 -9 -109 -9c-119 0 -164 50 -164 152zM291 395c-47 0 -86 -31 -92 -86h165c7 48 -15 86 -73 86z" />
    <glyph glyph-name="fraction" unicode="&#x2044;" horiz-adv-x="540" 
d="M521 680l-370 -680h-132l370 680h132z" />
    <glyph glyph-name="uni2215" unicode="&#x2215;" horiz-adv-x="540" 
d="M521 680l-370 -680h-132l370 680h132z" />
    <glyph glyph-name="uni2219" unicode="&#x2219;" horiz-adv-x="222" 
d="M36 326h150v-152h-150v152z" />
    <glyph glyph-name="at.cap" horiz-adv-x="810" 
d="M574 411v-173c91 0 123 92 123 164c0 149 -120 246 -272 246c-183 0 -311 -128 -311 -315c0 -164 119 -291 284 -291l-9 -82c-216 0 -369 160 -369 373c0 233 171 399 404 399c202 0 366 -132 366 -326c0 -142 -82 -260 -240 -260h-93v39h-1c-32 -34 -64 -46 -112 -46
c-77 0 -118 55 -118 121c0 100 94 123 164 123h67v14c0 39 -18 48 -68 48c-9 0 -18 -1 -28 -2c-3 -40 -68 -26 -110 -28v106c55 13 115 20 164 20c101 0 159 -22 159 -130zM457 247v68h-49c-36 0 -65 -7 -65 -45c0 -30 25 -42 50 -42c23 0 51 10 64 19z" />
    <glyph glyph-name="parenleft.cap" horiz-adv-x="330" 
d="M38 340c0 168 59 340 178 480h98c-92 -161 -126 -317 -126 -480c0 -160 34 -310 126 -480h-98c-119 140 -178 316 -178 480z" />
    <glyph glyph-name="parenright.cap" horiz-adv-x="330" 
d="M292 340c0 -164 -59 -340 -178 -480h-98c92 170 126 320 126 480c0 163 -34 319 -126 480h98c119 -140 178 -312 178 -480z" />
    <glyph glyph-name="bracketleft.cap" horiz-adv-x="300" 
d="M195 -51h89v-89h-248v960h248v-89h-89v-782z" />
    <glyph glyph-name="bracketright.cap" horiz-adv-x="300" 
d="M16 -51h89v782h-89v89h248v-960h-248v89z" />
    <glyph glyph-name="braceleft.cap" horiz-adv-x="340" 
d="M255 17c0 -94 27 -95 69 -95v-62c-121 0 -228 5 -228 146c0 61 10 130 10 189c0 64 0 99 -70 109v72c70 10 70 45 70 109c0 59 -10 128 -10 189c0 140 107 146 228 146v-63c-42 0 -69 0 -69 -95c0 -61 13 -141 13 -203c0 -79 -45 -102 -105 -118v-2
c60 -16 105 -39 105 -118c0 -62 -13 -143 -13 -204z" />
    <glyph glyph-name="braceright.cap" horiz-adv-x="340" 
d="M85 662c0 95 -27 95 -69 95v63c120 0 228 -6 228 -146c0 -61 -10 -130 -10 -189c0 -64 0 -99 70 -109v-72c-70 -10 -70 -45 -70 -109c0 -59 10 -128 10 -189c0 -141 -108 -146 -228 -146v62c42 0 69 1 69 95c0 61 -14 142 -14 204c0 79 46 102 106 118v2
c-60 16 -106 39 -106 118c0 62 14 142 14 203z" />
    <glyph glyph-name="exclamdown.cap" horiz-adv-x="222" 
d="M186 527h-150v153h150v-153zM186 0h-150l9 470h132z" />
    <glyph glyph-name="questiondown.cap" horiz-adv-x="480" 
d="M454 209v-179c-60 -25 -144 -40 -218 -40c-168 0 -210 105 -210 186c0 165 166 175 166 264v30h133v-30c0 -164 -144 -166 -144 -248c0 -52 46 -61 85 -61c22 0 45 5 64 9v69h124zM334 680v-153h-150v153h150z" />
    <glyph glyph-name="guillemotleft.cap" horiz-adv-x="730" 
d="M36 354l308 201v-159l-149 -86l149 -86v-159l-308 201v88zM386 354l308 201v-159l-149 -86l149 -86v-159l-308 201v88z" />
    <glyph glyph-name="guillemotright.cap" horiz-adv-x="730" 
d="M36 555l308 -201v-88l-308 -201v159l149 86l-149 86v159zM386 555l308 -201v-88l-308 -201v159l149 86l-149 86v159z" />
    <glyph glyph-name="guilsinglleft.cap" horiz-adv-x="380" 
d="M36 354l308 201v-159l-149 -86l149 -86v-159l-308 201v88z" />
    <glyph glyph-name="guilsinglright.cap" horiz-adv-x="380" 
d="M36 555l308 -201v-88l-308 -201v159l149 86l-149 86v159z" />
    <glyph glyph-name="hyphen.cap" horiz-adv-x="500" 
d="M36 387h428v-124h-428v124z" />
    <glyph glyph-name="endash.cap" horiz-adv-x="600" 
d="M36 387h528v-124h-528v124z" />
    <glyph glyph-name="emdash.cap" horiz-adv-x="700" 
d="M36 387h628v-124h-628v124z" />
    <glyph glyph-name="periodcentered.cap" horiz-adv-x="222" 
d="M36 326h150v-152h-150v152z" />
    <glyph glyph-name="lessequal" unicode="&#x2264;" horiz-adv-x="480" 
d="M36 344l408 161v-106l-249 -90l249 -90v-107l-408 161v71zM36 95h408v-89h-408v89z" />
    <glyph glyph-name="approxequal" unicode="&#x2248;" horiz-adv-x="500" 
d="M166 334c-19 0 -37 -7 -67 -39l-46 36c32 76 74 105 109 105c50 0 149 -40 183 -40c18 0 36 -2 65 30l37 -45c-25 -52 -53 -75 -83 -81c-7 -2 -15 -2 -22 -2c-39 2 -139 36 -176 36zM166 134c-19 0 -37 -7 -67 -39l-46 36c32 76 74 105 109 105c50 0 149 -40 183 -40
c18 0 36 -2 65 30l37 -45c-25 -52 -53 -75 -83 -81c-7 -2 -15 -2 -22 -2c-39 2 -139 36 -176 36z" />
    <glyph glyph-name="notequal" unicode="&#x2260;" horiz-adv-x="500" 
d="M36 227h161l42 76h-203v124h270l98 178h62l-97 -178h95v-124h-162l-42 -76h204v-124h-271l-97 -178h-62l96 178h-94v124z" />
    <glyph glyph-name="estimated" unicode="&#x212e;" horiz-adv-x="736" 
d="M706 349h-528v-235c54 -52 118 -78 190 -78c108 0 193 53 252 157l46 -26c-43 -61 -87 -106 -130 -134c-45 -29 -100 -43 -168 -43c-101 0 -183 34 -244 103c-63 67 -94 152 -94 256c0 106 31 191 94 259s144 102 244 102c91 0 169 -31 234 -91c64 -61 100 -150 104 -270
zM178 397h380v189c-54 51 -118 77 -191 77c-75 0 -137 -26 -189 -77v-189z" />
    <glyph glyph-name="partialdiff" unicode="&#x2202;" horiz-adv-x="573" 
d="M398 393l3 1c18 123 -65 172 -142 172c-39 0 -81 -5 -147 -29l-1 115c69 28 114 38 179 38c162 0 290 -83 248 -390c-23 -161 -119 -310 -301 -310c-142 0 -228 86 -208 230c21 150 113 235 243 235c53 0 99 -25 126 -62zM372 284c-20 23 -43 41 -79 41
c-73 0 -99 -58 -105 -105c-10 -70 25 -106 74 -106c83 0 108 88 110 170z" />
    <glyph glyph-name="greaterequal" unicode="&#x2265;" horiz-adv-x="480" 
d="M36 505l408 -161v-71l-408 -161v107l249 90l-249 90v106zM36 95h408v-89h-408v89z" />
    <glyph glyph-name="questionsmall" unicode="&#xf73f;" horiz-adv-x="480" 
d="M150 467v-41h-124v127c53 28 145 57 218 57c168 0 210 -84 210 -156c0 -167 -167 -133 -167 -223v-21h-132v30c0 164 144 117 144 192c0 35 -42 45 -86 45c-28 0 -55 -8 -63 -10zM146 0v152h150v-152h-150z" />
    <glyph glyph-name="questiondownsmall" unicode="&#xf7bf;" horiz-adv-x="480" 
d="M330 133v41h124v-127c-53 -28 -145 -57 -218 -57c-168 0 -210 84 -210 156c0 167 166 133 166 223v21h133v-30c0 -165 -144 -117 -144 -192c0 -35 42 -46 86 -46c28 0 55 9 63 11zM334 600v-153h-150v153h150z" />
    <glyph glyph-name="percent.oldstyle" horiz-adv-x="760" 
d="M614 580l-370 -580h-98l370 580h98zM180 285c-95 0 -146 58 -146 151s51 150 146 150c96 0 147 -57 147 -150s-51 -151 -147 -151zM180 360c35 0 54 25 54 76s-19 76 -54 76s-53 -25 -53 -76s18 -76 53 -76zM580 -6c-96 0 -147 57 -147 150s51 150 147 150
c95 0 146 -57 146 -150s-51 -150 -146 -150zM580 68c34 0 53 25 53 76s-19 76 -53 76c-35 0 -54 -25 -54 -76s19 -76 54 -76z" />
    <glyph glyph-name="perthousand.oldstyle" horiz-adv-x="1110" 
d="M614 580l-370 -580h-98l370 580h98zM180 285c-95 0 -146 58 -146 151s51 150 146 150c96 0 147 -57 147 -150s-51 -151 -147 -151zM180 360c35 0 54 25 54 76s-19 76 -54 76s-53 -25 -53 -76s18 -76 53 -76zM580 -6c-96 0 -147 57 -147 150s51 150 147 150
c95 0 146 -57 146 -150s-51 -150 -146 -150zM580 68c34 0 53 25 53 76s-19 76 -53 76c-35 0 -54 -25 -54 -76s19 -76 54 -76zM930 -6c-96 0 -147 57 -147 150s51 150 147 150s146 -57 146 -150s-50 -150 -146 -150zM930 68c35 0 54 25 54 76s-19 76 -54 76s-54 -25 -54 -76
s19 -76 54 -76z" />
    <glyph glyph-name="figuredash" unicode="&#x2012;" horiz-adv-x="600" 
d="M36 327h528v-124h-528v124z" />
    <glyph glyph-name="threequartersemdash" unicode="&#xf6de;" horiz-adv-x="700" 
d="M36 327h628v-124h-628v124z" />
    <glyph glyph-name="minus" unicode="&#x2212;" horiz-adv-x="500" 
d="M36 327h428v-124h-428v124z" />
    <glyph glyph-name="overscore" horiz-adv-x="400" 
d="M34 672h332v-106h-332v106z" />
    <glyph glyph-name="uni03BC" unicode="&#x3bc;" horiz-adv-x="590" 
d="M12 376v124h204v-306c0 -54 26 -80 70 -80c33 0 65 16 88 29v233h-58v124h208v-376h53v-124h-203v62h-2c-22 -23 -49 -42 -77 -53c-28 -10 -55 -13 -79 -7v-29c0 -105 -28 -181 -158 -183c-11 0 -21 0 -33 1c-20 2 -43 4 -64 8l14 115c16 -3 31 -5 42 -5
c38 0 49 21 49 59v408h-54z" />
    <glyph glyph-name="onedotenleader" unicode="&#x2024;" horiz-adv-x="222" 
d="M36 152h150v-152h-150v152z" />
    <glyph glyph-name="twodotenleader" unicode="&#x2025;" horiz-adv-x="422" 
d="M36 152h150v-152h-150v152zM236 152h150v-152h-150v152z" />
    <glyph glyph-name="afii61352" unicode="&#x2116;" horiz-adv-x="1044" 
d="M867 350c-109 0 -167 65 -167 170s58 170 167 170s167 -65 167 -170s-58 -170 -167 -170zM700 315h334v-89h-334v89zM867 432c41 0 63 29 63 88s-22 88 -63 88s-63 -29 -63 -88s22 -88 63 -88zM420 680h257v-124h-53v-556h-168l-242 380h-2v-256h58v-124h-258v124h54v432
h-54v124h213l251 -397h2v273h-58v124z" />
    <glyph glyph-name="product" unicode="&#x220f;" horiz-adv-x="680" 
d="M401 124h54v432h-230v-432h54v-124h-267v124h54v432h-54v124h655v-124h-53v-432h53v-124h-266v124z" />
    <glyph glyph-name="summation" unicode="&#x2211;" horiz-adv-x="520" 
d="M495 179v-179h-480v115l149 225l-149 225v115h480v-179h-124v55h-158v-2l150 -214l-149 -214v-2h157v55h124z" />
    <glyph glyph-name="radical" unicode="&#x221a;" horiz-adv-x="800" 
d="M56 301v89h299l67 -231h2l162 541h159l-234 -705h-184l-109 306h-162z" />
    <glyph glyph-name="infinity" unicode="&#x221e;" horiz-adv-x="679" 
d="M180 184c46 0 85 37 103 64c-19 27 -64 62 -101 62c-45 0 -64 -30 -64 -62s16 -64 62 -64zM335 189c-26 -38 -86 -88 -167 -88c-88 0 -144 62 -144 149c0 85 56 149 156 149c79 0 123 -38 166 -86c32 41 80 86 165 86c88 0 144 -62 144 -149c0 -80 -58 -149 -155 -149
c-57 0 -108 16 -165 88zM499 315c-43 0 -80 -31 -103 -65c18 -29 64 -61 103 -61c42 0 62 30 62 62c0 31 -16 64 -62 64z" />
    <glyph glyph-name="integral" unicode="&#x222b;" horiz-adv-x="360" 
d="M105 -32v581c0 103 44 152 164 152c28 0 62 -4 91 -9l-13 -115c-17 3 -32 5 -43 5c-38 0 -49 -21 -49 -59v-556c0 -103 -31 -177 -164 -177c-28 0 -62 4 -91 9l13 115c17 -3 32 -5 43 -5c38 0 49 21 49 59z" />
    <glyph glyph-name="lozenge" unicode="&#x25ca;" horiz-adv-x="472" 
d="M229 -30l-199 374l199 374h14l199 -374l-199 -374h-14zM151 344l85 -158l85 158l-85 158z" />
    <glyph glyph-name="uni037E" unicode="&#x37e;" horiz-adv-x="222" 
d="M36 326h150v-152h-150v152z" />
    <glyph glyph-name="litre" unicode="&#x2113;" horiz-adv-x="449" 
d="M42 156l-12 11l94 99v243c0 67 13 118 40 151c27 32 60 50 100 50c59 0 96 -39 96 -99c0 -34 -10 -71 -31 -112c-20 -41 -63 -100 -129 -176v-168c0 -51 8 -86 23 -106s35 -29 60 -29c22 0 44 9 64 29c21 19 39 53 54 103h18c-14 -55 -36 -97 -68 -127
c-24 -23 -54 -35 -89 -35c-58 0 -107 35 -127 90c-7 21 -11 56 -11 107v52zM200 543v-193c89 103 134 183 134 242c0 57 -30 89 -67 89c-19 0 -35 -9 -48 -28s-19 -55 -19 -110z" />
    <glyph glyph-name="tonos" unicode="&#x384;" horiz-adv-x="290" 
d="M231 680l-97 -140h-80l53 140h124z" />
    <glyph glyph-name="dieresistonos" unicode="&#x385;" horiz-adv-x="625" 
d="M411 730l-107 -170h-80l54 170h133zM56 700h133v-135h-133v135zM436 700h133v-135h-133v135z" />
    <glyph glyph-name="anoteleia" unicode="&#x387;" horiz-adv-x="480" 
d="M56 700h133v-135h-133v135zM291 700h133v-135h-133v135z" />
    <glyph glyph-name="Delta" unicode="&#x2206;" horiz-adv-x="628" 
d="M294 710l284 -710h-528zM265 479l-142 -417h302z" />
    <glyph glyph-name="Omega" unicode="&#x2126;" horiz-adv-x="670" 
d="M335 690c204 0 309 -131 309 -300c0 -102 -51 -213 -171 -252v-32h171v-106h-277v201c67 17 109 65 109 189c0 105 -42 167 -141 167s-141 -62 -141 -167c0 -124 42 -172 109 -189v-201h-277v106h171v32c-120 39 -171 150 -171 252c0 169 105 300 309 300z" />
    <glyph glyph-name="pi" unicode="&#x3c0;" horiz-adv-x="590" 
d="M329 124h45v252h-158v-252h45v-124h-249v124h54v252h-54v124h565v-124h-53v-252h53v-124h-248v124z" />
    <glyph glyph-name="ampersand.alt" horiz-adv-x="840" 
d="M531 197h-244c-40 0 -75 -11 -75 -41c0 -31 28 -42 79 -42c38 0 83 5 148 30l18 -115c-70 -29 -132 -39 -197 -39c-138 0 -224 50 -224 140c0 75 52 110 126 123v2c-61 15 -106 55 -106 125c0 100 89 130 214 130c65 0 133 -13 187 -39l-17 -115c-65 25 -111 30 -148 30
c-43 0 -77 -7 -77 -41c0 -20 18 -41 72 -41h244l18 196h132v-196h118v-93h-118v-43c0 -38 20 -59 66 -59c12 0 27 2 43 5l14 -115c-29 -5 -81 -9 -109 -9c-119 0 -164 50 -164 152v55z" />
    <glyph glyph-name="sigma" unicode="&#x3c3;" horiz-adv-x="513" 
d="M100 249c0 45 18 85 48 114l-78 90l8 8l79 -90c27 22 62 36 100 36c37 0 72 -14 99 -36l78 90l9 -8l-78 -89c31 -29 50 -70 50 -115s-19 -86 -49 -114l76 -86l-9 -9l-77 87c-27 -22 -62 -35 -99 -35c-38 0 -73 13 -100 35l-76 -87l-9 9l76 86c-30 29 -48 69 -48 114z
M112 249c0 -79 66 -145 145 -145s146 66 146 145s-67 146 -146 146s-145 -67 -145 -146z" />
    <glyph glyph-name="uni03C2" unicode="&#x3c2;" horiz-adv-x="513" 
d="M100 249c0 45 18 85 48 114l-78 90l8 8l79 -90c27 22 62 36 100 36c37 0 72 -14 99 -36l78 90l9 -8l-78 -89c31 -29 50 -70 50 -115s-19 -86 -49 -114l76 -86l-9 -9l-77 87c-27 -22 -62 -35 -99 -35c-38 0 -73 13 -100 35l-76 -87l-9 9l76 86c-30 29 -48 69 -48 114z
M112 249c0 -79 66 -145 145 -145s146 66 146 145s-67 146 -146 146s-145 -67 -145 -146z" />
  </font>
</defs>
</svg>
