<?xml version="1.0" standalone="no"?>
<!DOCTYPE svg PUBLIC "-//W3C//DTD SVG 1.1//EN" "http://www.w3.org/Graphics/SVG/1.1/DTD/svg11.dtd" >
<svg>
<metadata>
Created by FontForge 20120731 at Wed Jul 25 17:17:58 2018
 By www-data
Copyright (c) 2008 by Dino dos Santos _DSType. All rights reserved.
</metadata>
<defs>
<font id="Prelo-Exbd" horiz-adv-x="600" >
  <font-face 
    font-family="Prelo Exbd"
    font-weight="800"
    font-stretch="normal"
    units-per-em="1000"
    panose-1="2 0 5 6 4 0 0 2 0 4"
    ascent="750"
    descent="-250"
    x-height="500"
    cap-height="680"
    bbox="-69 -290 1116 950"
    underline-thickness="50"
    underline-position="-50"
    stemh="124"
    stemv="150"
    unicode-range="U+0020-FB06"
  />
<missing-glyph horiz-adv-x="590" 
d="M70 500h450v-500h-450v500zM287 249l-206 236v-469zM304 249l205 -231v465zM93 488l203 -229l202 229h-405zM296 240l-201 -228h401z" />
    <glyph glyph-name="T_h" unicode="Th" horiz-adv-x="1030" 
d="M686 357v-357h-150v539h-177v-539h-158v539h-175v141h660v-243h2c41 46 93 73 156 73c100 0 150 -68 150 -169v-341h-150v306c0 54 -22 80 -70 80c-33 0 -65 -16 -88 -29z" />
    <glyph glyph-name="T_h.caron" unicode="&#x164;h" horiz-adv-x="1030" 
d="M686 357v-357h-150v539h-177v-539h-158v539h-175v141h660v-243h2c41 46 93 73 156 73c100 0 150 -68 150 -169v-341h-150v306c0 54 -22 80 -70 80c-33 0 -65 -16 -88 -29zM243 850l39 -60l39 60h115l-101 -140h-106l-101 140h115z" />
    <glyph glyph-name="T_h.commaaccent" unicode="&#x162;h" horiz-adv-x="1030" 
d="M686 357v-357h-150v539h-177v-539h-158v539h-175v141h660v-243h2c41 46 93 73 156 73c100 0 150 -68 150 -169v-341h-150v306c0 54 -22 80 -70 80c-33 0 -65 -16 -88 -29zM277 -216h-45l27 81h-44v95h133v-95z" />
    <glyph glyph-name="ff" unicode="ff" horiz-adv-x="640" 
d="M371 500v48c0 102 45 152 164 152c28 0 62 -4 91 -9l-13 -115c-17 3 -32 5 -43 5c-38 0 -49 -21 -49 -59v-22h100v-106h-100v-394h-150v394h-145v-394h-150v394h-64v97l64 9v48c0 102 45 152 164 152c28 0 62 -4 91 -9l-13 -115c-17 3 -32 5 -43 5c-38 0 -49 -21 -49 -59
v-22h145z" />
    <glyph glyph-name="ffi" unicode="ffi" horiz-adv-x="852" 
d="M371 394h-145v-394h-150v394h-64v97l64 9v48c0 102 45 152 164 152c28 0 62 -4 91 -9l-13 -115c-17 3 -32 5 -43 5c-38 0 -49 -21 -49 -59v-22h145v22c0 102 45 178 220 178c55 0 159 -16 198 -31l-14 -106c-32 7 -111 18 -166 18c-86 0 -88 -30 -88 -59v-22h295v-500
h-150v394h-145v-394h-150v394z" />
    <glyph glyph-name="f_f_j" unicode="ffj" horiz-adv-x="852" 
d="M666 -45v439h-145v-394h-150v394h-145v-394h-150v394h-64v97l64 9v48c0 102 45 152 164 152c28 0 62 -4 91 -9l-13 -115c-17 3 -32 5 -43 5c-38 0 -49 -21 -49 -59v-22h145v22c0 102 45 178 220 178c55 0 159 -16 198 -31l-14 -106c-32 7 -111 18 -166 18
c-86 0 -88 -30 -88 -59v-22h295v-556c0 -98 -31 -154 -164 -154c-28 0 -62 4 -91 9l14 115c16 -3 31 -5 42 -5c36 0 49 8 49 46z" />
    <glyph glyph-name="ffl" unicode="ffl" horiz-adv-x="852" 
d="M371 394h-145v-394h-150v394h-64v97l64 9v48c0 102 45 152 164 152c28 0 62 -4 91 -9l-13 -115c-17 3 -32 5 -43 5c-38 0 -49 -21 -49 -59v-22h145v22c0 102 45 178 220 178c44 0 85 -4 119 -13h106v-687h-150v573c-23 6 -42 8 -57 8c-86 0 -88 -29 -88 -59v-22h100v-106
h-100v-394h-150v394z" />
    <glyph glyph-name="fi" unicode="fi" horiz-adv-x="557" 
d="M76 500v22c0 102 45 178 220 178c55 0 159 -16 198 -31l-14 -106c-32 7 -111 18 -166 18c-86 0 -88 -30 -88 -59v-22h295v-500h-150v394h-145v-394h-150v394h-64v97z" />
    <glyph glyph-name="f_j" unicode="fj" horiz-adv-x="557" 
d="M371 -45v439h-145v-394h-150v394h-64v97l64 9v22c0 102 45 178 220 178c55 0 159 -16 198 -31l-14 -106c-32 7 -111 18 -166 18c-86 0 -88 -30 -88 -59v-22h295v-556c0 -98 -31 -154 -164 -154c-28 0 -62 4 -91 9l14 115c16 -3 31 -5 42 -5c36 0 49 8 49 46z" />
    <glyph glyph-name="fl" unicode="fl" horiz-adv-x="557" 
d="M226 394v-394h-150v394h-64v97l64 9v22c0 102 45 178 220 178c44 0 85 -4 119 -13h106v-687h-150v573c-23 6 -42 8 -57 8c-86 0 -88 -29 -88 -59v-22h100v-106h-100z" />
    <glyph glyph-name=".notdef" horiz-adv-x="590" 
d="M70 500h450v-500h-450v500zM287 249l-206 236v-469zM304 249l205 -231v465zM93 488l203 -229l202 229h-405zM296 240l-201 -228h401z" />
    <glyph glyph-name="space" unicode=" " horiz-adv-x="180" 
 />
    <glyph glyph-name="exclam" unicode="!" horiz-adv-x="222" 
d="M36 152h150v-152h-150v152zM36 680h150l-9 -461h-132z" />
    <glyph glyph-name="quotedbl" unicode="&#x22;" horiz-adv-x="422" 
d="M36 680h150l-17 -161h-115zM236 680h150l-17 -161h-115z" />
    <glyph glyph-name="numbersign" unicode="#" horiz-adv-x="612" 
d="M179 500h106l-11 -96h95l11 96h106l-11 -96h100l-9 -98h-100l-13 -112h100l-9 -98h-100l-11 -96h-106l10 96h-95l-10 -96h-106l10 96h-100l10 98h100l12 112h-100l10 98h100zM264 306l-12 -112h95l12 112h-95z" />
    <glyph glyph-name="dollar" unicode="$" 
d="M336 -100h-63v91c-94 3 -159 14 -237 38l27 132c82 -20 172 -30 237 -30c64 0 96 23 96 63c0 54 -96 68 -152 85c-120 36 -198 101 -198 216c0 130 101 187 227 194v91h63v-91c84 -5 117 -12 209 -38l-35 -132c-99 24 -158 30 -210 30c-64 0 -86 -27 -86 -58
c0 -50 84 -65 145 -80c121 -29 205 -87 205 -206c0 -135 -99 -206 -228 -213v-92z" />
    <glyph glyph-name="percent" unicode="%" horiz-adv-x="760" 
d="M614 680l-370 -680h-98l370 680h98zM180 388c-95 0 -146 58 -146 150c0 93 51 151 146 151c96 0 147 -58 147 -151c0 -92 -51 -150 -147 -150zM180 463c35 0 54 24 54 75s-19 76 -54 76s-53 -25 -53 -76s18 -75 53 -75zM580 -9c-96 0 -147 58 -147 151
c0 92 51 150 147 150c95 0 146 -58 146 -150c0 -93 -51 -151 -146 -151zM580 66c34 0 53 25 53 76s-19 75 -53 75c-35 0 -54 -24 -54 -75s19 -76 54 -76z" />
    <glyph glyph-name="ampersand" unicode="&#x26;" horiz-adv-x="705" 
d="M519 519c0 -48 -23 -103 -126 -163l115 -109c21 35 35 73 39 103h142c-9 -64 -37 -139 -85 -203l75 -77l-98 -106l-83 87c-57 -38 -128 -61 -213 -61c-175 0 -249 81 -249 191c0 67 28 122 148 193c-46 57 -68 95 -68 142c0 116 103 174 209 174c121 0 194 -64 194 -171z
M295 118c41 0 79 9 111 29l-146 151c-48 -31 -66 -64 -66 -94c0 -52 43 -86 101 -86zM262 523c0 -31 16 -55 45 -87c51 33 70 60 70 88c0 46 -26 64 -56 64c-42 0 -59 -31 -59 -65z" />
    <glyph glyph-name="quotesingle" unicode="'" horiz-adv-x="222" 
d="M36 680h150l-17 -161h-115z" />
    <glyph glyph-name="parenleft" unicode="(" horiz-adv-x="330" 
d="M38 340c0 168 59 340 178 480h98c-92 -161 -126 -317 -126 -480c0 -160 34 -310 126 -480h-98c-119 140 -178 316 -178 480z" />
    <glyph glyph-name="parenright" unicode=")" horiz-adv-x="330" 
d="M292 340c0 -164 -59 -340 -178 -480h-98c92 170 126 320 126 480c0 163 -34 319 -126 480h98c119 -140 178 -312 178 -480z" />
    <glyph glyph-name="asterisk" unicode="*" horiz-adv-x="412" 
d="M175 560l-12 120h85l-11 -120l116 48l26 -84l-122 -12l81 -90l-67 -51l-66 113l-65 -113l-67 51l81 90l-122 12l25 84z" />
    <glyph glyph-name="plus" unicode="+" horiz-adv-x="500" 
d="M312 479v-152h152v-124h-152v-152h-124v152h-152v124h152v152h124z" />
    <glyph glyph-name="comma" unicode="," horiz-adv-x="222" 
d="M115 -130h-45l27 130h-61v152h150v-152z" />
    <glyph glyph-name="hyphen" unicode="-" horiz-adv-x="500" 
d="M36 327h428v-124h-428v124z" />
    <glyph glyph-name="period" unicode="." horiz-adv-x="222" 
d="M36 152h150v-152h-150v152z" />
    <glyph glyph-name="slash" unicode="/" horiz-adv-x="540" 
d="M521 680l-370 -680h-132l370 680h132z" />
    <glyph glyph-name="zero" unicode="0" horiz-adv-x="590" 
d="M295 566c-78 0 -100 -91 -100 -221s22 -231 100 -231s100 101 100 231s-22 221 -100 221zM295 -10c-209 0 -259 161 -259 355s50 345 259 345s259 -151 259 -345s-50 -355 -259 -355z" />
    <glyph glyph-name="one" unicode="1" horiz-adv-x="385" 
d="M181 509l-130 -53l-37 124c78 27 159 64 207 105h110v-685h-150v509z" />
    <glyph glyph-name="two" unicode="2" horiz-adv-x="550" 
d="M235 553c-42 0 -84 -6 -155 -32l-44 119c86 34 146 50 234 50c157 0 234 -91 234 -208c0 -140 -101 -239 -256 -348v-2h266v-132h-478v142c253 157 309 237 309 309c0 91 -69 102 -110 102z" />
    <glyph glyph-name="three" unicode="3" horiz-adv-x="570" 
d="M400 357v-2c94 -25 134 -94 134 -168c0 -127 -96 -197 -255 -197c-87 0 -158 10 -243 49l45 115c67 -30 128 -40 190 -40c81 0 108 45 108 82c0 59 -42 82 -119 82h-93v124h86c94 0 111 50 111 91c0 37 -29 73 -93 73c-61 0 -108 -11 -177 -40l-44 115
c86 38 169 49 247 49c116 0 217 -60 217 -180c0 -73 -40 -124 -114 -153z" />
    <glyph glyph-name="four" unicode="4" horiz-adv-x="590" 
d="M179 272h151v214h-2c-51 -92 -89 -140 -149 -214zM294 680h186v-408h84v-123h-84v-149h-150v149h-304v123c110 120 198 248 268 408z" />
    <glyph glyph-name="five" unicode="5" horiz-adv-x="570" 
d="M270 -10c-80 0 -148 11 -234 50l44 115c71 -31 121 -41 181 -41c81 0 114 48 114 105c0 46 -21 103 -98 103c-34 0 -69 -12 -96 -39l-106 9l11 388h408v-133h-278l-7 -135l2 -1c31 23 78 39 121 39c119 0 202 -76 202 -223c0 -157 -99 -237 -264 -237z" />
    <glyph glyph-name="six" unicode="6" horiz-adv-x="570" 
d="M186 394l2 -1c33 37 83 62 136 62c129 0 210 -85 210 -235c0 -144 -99 -230 -241 -230c-182 0 -257 149 -257 310c0 307 141 390 303 390c65 0 118 -10 174 -29l-18 -115c-62 15 -104 20 -143 20c-77 0 -167 -49 -166 -172zM199 284c-9 -82 4 -170 87 -170
c49 0 89 36 89 106c0 47 -18 105 -91 105c-35 0 -62 -18 -85 -41z" />
    <glyph glyph-name="seven" unicode="7" horiz-adv-x="500" 
d="M310 545v2h-284v133h448v-106c-92 -163 -181 -327 -220 -574h-168c30 173 119 387 224 545z" />
    <glyph glyph-name="eight" unicode="8" horiz-adv-x="590" 
d="M425 359v-2c85 -43 129 -95 129 -170c0 -140 -126 -197 -263 -197c-131 0 -255 50 -255 181c0 77 45 131 127 165v2c-67 36 -107 88 -107 166c0 127 121 186 243 186c115 0 235 -59 235 -178c0 -73 -39 -116 -109 -153zM191 187c0 -42 30 -86 109 -86c73 0 99 34 99 73
c0 64 -75 85 -127 106c-43 -17 -81 -48 -81 -93zM291 579c-49 0 -85 -31 -85 -71c0 -52 56 -83 107 -96c38 14 71 45 71 87c0 47 -37 80 -93 80z" />
    <glyph glyph-name="nine" unicode="9" horiz-adv-x="570" 
d="M384 286l-2 1c-33 -37 -83 -62 -136 -62c-130 0 -210 85 -210 235c0 144 99 230 241 230c182 0 257 -149 257 -310c0 -308 -141 -390 -303 -390c-65 0 -118 10 -174 29l18 115c62 -15 104 -20 143 -20c77 0 167 49 166 172zM371 396c9 81 -4 170 -87 170
c-49 0 -89 -36 -89 -106c0 -47 17 -105 91 -105c35 0 62 18 85 41z" />
    <glyph glyph-name="colon" unicode=":" horiz-adv-x="222" 
d="M36 152h150v-152h-150v152zM36 460h150v-153h-150v153z" />
    <glyph glyph-name="semicolon" unicode=";" horiz-adv-x="222" 
d="M115 -130h-45l27 130h-61v152h150v-152zM36 460h150v-153h-150v153z" />
    <glyph glyph-name="less" unicode="&#x3c;" horiz-adv-x="380" 
d="M36 294l308 161v-133l-149 -72l149 -72v-133l-308 161v88z" />
    <glyph glyph-name="equal" unicode="=" horiz-adv-x="500" 
d="M36 427h428v-124h-428v124zM36 227h428v-124h-428v124z" />
    <glyph glyph-name="greater" unicode="&#x3e;" horiz-adv-x="380" 
d="M344 206l-308 -170v133l149 81l-149 81v133l308 -170v-88z" />
    <glyph glyph-name="question" unicode="?" horiz-adv-x="480" 
d="M244 690c170 0 210 -107 210 -186c0 -165 -167 -175 -167 -264v-30h-132v30c0 164 144 166 144 248c0 55 -51 61 -87 61c-33 0 -89 -10 -143 -27l-43 128c59 25 145 40 218 40zM146 152h150v-152h-150v152z" />
    <glyph glyph-name="at" unicode="@" horiz-adv-x="830" 
d="M585 331v-179c91 0 122 98 122 170c0 149 -120 246 -272 246c-183 0 -311 -128 -311 -315c0 -164 119 -291 284 -291l-9 -82c-216 0 -369 160 -369 373c0 233 171 399 404 399c202 0 366 -132 366 -326c0 -142 -82 -260 -240 -260h-93v39h-1c-31 -34 -63 -46 -111 -46
c-77 0 -119 55 -119 121c0 100 94 123 164 123h67v21c0 33 -18 48 -63 48c-30 0 -77 -8 -129 -23l-21 79c59 19 114 33 180 33c91 0 151 -30 151 -130zM467 167v68h-62c-31 0 -51 -14 -51 -45c0 -30 23 -42 47 -42c26 0 54 10 66 19z" />
    <glyph glyph-name="A" unicode="A" horiz-adv-x="650" 
d="M457 0l-40 144h-192l-41 -144h-168l212 685h195l211 -685h-177zM322 487h-2l-63 -210h128z" />
    <glyph glyph-name="B" unicode="B" horiz-adv-x="610" 
d="M465 354v-2c69 -22 119 -75 119 -164c0 -118 -78 -188 -224 -188h-314v680h294c146 0 224 -62 224 -174c0 -72 -40 -128 -99 -152zM331 279h-126v-138h129c48 0 82 12 82 69c0 56 -34 69 -85 69zM396 479c0 43 -25 60 -74 60h-117v-119h117c49 0 74 16 74 59z" />
    <glyph glyph-name="C" unicode="C" horiz-adv-x="620" 
d="M36 345c0 194 67 345 309 345c83 0 154 -10 250 -39l-35 -132c-109 25 -151 30 -202 30c-111 0 -154 -74 -154 -204c0 -140 43 -214 154 -214c51 0 93 5 202 30l35 -132c-96 -29 -167 -39 -250 -39c-242 0 -309 160 -309 355z" />
    <glyph glyph-name="D" unicode="D" horiz-adv-x="650" 
d="M306 0h-260v680h260c239 0 308 -141 308 -335s-69 -345 -308 -345zM205 141h101c116 0 140 74 140 204s-24 194 -140 194h-101v-398z" />
    <glyph glyph-name="E" unicode="E" horiz-adv-x="560" 
d="M519 680v-141h-314v-118h269v-141h-269v-139h319v-141h-478v680h473z" />
    <glyph glyph-name="F" unicode="F" horiz-adv-x="535" 
d="M509 680v-141h-304v-138h259v-141h-259v-260h-159v680h463z" />
    <glyph glyph-name="G" unicode="G" horiz-adv-x="640" 
d="M345 -10c-242 0 -309 160 -309 355c0 194 67 345 309 345c83 0 152 -10 249 -39l-36 -132c-108 25 -149 30 -200 30c-111 0 -154 -74 -154 -204c0 -140 43 -214 154 -214c27 0 51 4 77 11v89h-93v141h252v-339c-92 -29 -161 -43 -249 -43z" />
    <glyph glyph-name="H" unicode="H" horiz-adv-x="640" 
d="M205 0h-159v680h159v-259h230v259h159v-680h-159v280h-230v-280z" />
    <glyph glyph-name="I" unicode="I" horiz-adv-x="251" 
d="M205 0h-159v680h159v-680z" />
    <glyph glyph-name="J" unicode="J" horiz-adv-x="361" 
d="M315 680v-494c0 -139 -75 -196 -190 -196c-46 0 -84 4 -113 9l13 133c19 -3 36 -5 56 -5c38 0 75 11 75 68v485h159z" />
    <glyph glyph-name="K" unicode="K" horiz-adv-x="641" 
d="M205 680v-287l228 287h189l-232 -289l234 -391h-199l-151 264l-69 -88v-176h-159v680h159z" />
    <glyph glyph-name="L" unicode="L" horiz-adv-x="540" 
d="M46 680h159v-539h309v-141h-468v680z" />
    <glyph glyph-name="M" unicode="M" horiz-adv-x="800" 
d="M257 680l147 -416h2l136 416h212v-680h-159v396h-2l-140 -396h-115l-135 396h-2v-396h-155v680h211z" />
    <glyph glyph-name="N" unicode="N" horiz-adv-x="650" 
d="M201 0h-155v680h159l242 -389h2v389h155v-680h-159l-242 371h-2v-371z" />
    <glyph glyph-name="O" unicode="O" horiz-adv-x="690" 
d="M345 557c-119 0 -141 -82 -141 -212s22 -223 141 -223s141 93 141 223s-22 212 -141 212zM345 -10c-242 0 -309 161 -309 355s67 345 309 345s309 -151 309 -345s-67 -355 -309 -355z" />
    <glyph glyph-name="P" unicode="P" 
d="M341 225h-136v-225h-159v680h295c146 0 233 -89 233 -228c0 -140 -87 -227 -233 -227zM205 539v-173h119c48 0 87 21 87 86s-39 87 -87 87h-119z" />
    <glyph glyph-name="Q" unicode="Q" horiz-adv-x="690" 
d="M36 345c0 194 67 345 309 345s309 -151 309 -345c0 -178 -76 -285 -203 -298c3 -15 56 -18 87 -18c32 0 66 2 97 5v-142c-39 -4 -74 -5 -108 -3c-98 6 -176 41 -214 101c-210 14 -277 170 -277 355zM345 557c-119 0 -141 -82 -141 -212s22 -223 141 -223s141 93 141 223
s-22 212 -141 212z" />
    <glyph glyph-name="R" unicode="R" horiz-adv-x="615" 
d="M598 0h-185l-133 231h-75v-231h-159v680h295c146 0 233 -86 233 -224c0 -91 -39 -168 -128 -199zM205 539v-167h117c49 0 89 18 89 84c0 64 -39 83 -87 83h-119z" />
    <glyph glyph-name="S" unicode="S" 
d="M300 -10c-79 0 -168 10 -264 39l27 132c108 -25 186 -30 237 -30c55 0 96 21 96 61c0 54 -69 63 -151 87c-121 35 -199 101 -199 216c0 140 116 195 254 195c79 0 149 -10 245 -39l-35 -132c-109 25 -159 30 -210 30c-55 0 -86 -23 -86 -58c0 -46 58 -60 145 -80
c121 -28 205 -87 205 -206c0 -150 -117 -215 -264 -215z" />
    <glyph glyph-name="T" unicode="T" horiz-adv-x="560" 
d="M534 539h-175v-539h-158v539h-175v141h508v-141z" />
    <glyph glyph-name="U" unicode="U" horiz-adv-x="640" 
d="M321 122c87 0 114 47 114 118v440h159v-440c0 -179 -113 -250 -274 -250s-274 71 -274 250v440h159v-440c0 -71 26 -118 116 -118z" />
    <glyph glyph-name="V" unicode="V" horiz-adv-x="650" 
d="M329 193h1l136 487h168l-211 -685h-195l-212 685h177z" />
    <glyph glyph-name="W" unicode="W" horiz-adv-x="940" 
d="M471 424h-2l-89 -429h-203l-161 685h177l93 -486h1l95 486h185l98 -486h1l90 486h168l-161 -685h-203z" />
    <glyph glyph-name="X" unicode="X" horiz-adv-x="650" 
d="M443 0l-130 221h-2l-118 -221h-176l198 351l-190 329h185l112 -199h2l107 199h185l-190 -329l207 -351h-190z" />
    <glyph glyph-name="Y" unicode="Y" horiz-adv-x="620" 
d="M313 399h2l117 281h172l-215 -440v-240h-158v240l-215 440h181z" />
    <glyph glyph-name="Z" unicode="Z" horiz-adv-x="560" 
d="M246 143v-2h289v-141h-510v115l284 422v2h-264v141h480v-115z" />
    <glyph glyph-name="bracketleft" unicode="[" horiz-adv-x="300" 
d="M195 -51h89v-89h-248v960h248v-89h-89v-782z" />
    <glyph glyph-name="backslash" unicode="\" horiz-adv-x="540" 
d="M389 0l-370 680h132l370 -680h-132z" />
    <glyph glyph-name="bracketright" unicode="]" horiz-adv-x="300" 
d="M16 -51h89v782h-89v89h248v-960h-248v89z" />
    <glyph glyph-name="asciicircum" unicode="^" horiz-adv-x="380" 
d="M190 618l-74 -108h-80l109 190h90l109 -190h-80z" />
    <glyph glyph-name="underscore" unicode="_" horiz-adv-x="500" 
d="M36 -60h428v-89h-428v89z" />
    <glyph glyph-name="grave" unicode="`" horiz-adv-x="281" 
d="M131 560l-96 140h159l52 -140h-115z" />
    <glyph glyph-name="a" unicode="a" horiz-adv-x="505" 
d="M230 386c-40 0 -85 -4 -156 -19l-22 119c73 15 150 24 213 24c131 0 204 -31 204 -169v-341h-150v50h-2c-41 -44 -82 -60 -143 -60c-100 0 -153 71 -153 157c0 127 121 158 210 158h88v27c0 45 -32 54 -89 54zM319 131v85h-79c-42 0 -69 -16 -69 -56c0 -39 33 -55 64 -55
c33 0 67 13 84 26z" />
    <glyph glyph-name="b" unicode="b" horiz-adv-x="530" 
d="M186 700v-250h2c30 35 83 60 134 60c140 0 182 -119 182 -260s-50 -260 -190 -260c-48 0 -100 21 -135 56h-2l-26 -50h-115v704h150zM345 250c0 77 -18 136 -84 136c-36 0 -61 -15 -75 -25v-222c14 -10 39 -25 75 -25c66 0 84 58 84 136z" />
    <glyph glyph-name="c" unicode="c" horiz-adv-x="480" 
d="M26 250c0 159 65 260 264 260c64 0 117 -9 177 -24l-26 -120c-84 20 -112 20 -151 20c-64 0 -105 -41 -105 -136s41 -136 105 -136c39 0 67 0 151 20l26 -120c-60 -15 -113 -24 -177 -24c-199 0 -264 101 -264 260z" />
    <glyph glyph-name="d" unicode="d" horiz-adv-x="530" 
d="M344 0v50h-2c-30 -35 -83 -60 -135 -60c-140 0 -181 119 -181 260s50 260 190 260c47 0 96 -21 126 -56h2v246h150v-700h-150zM185 250c0 -78 18 -136 84 -136c36 0 61 15 75 25v222c-14 10 -39 25 -75 25c-66 0 -84 -59 -84 -136z" />
    <glyph glyph-name="e" unicode="e" horiz-adv-x="530" 
d="M502 216h-313c5 -62 45 -102 124 -102c40 0 88 0 155 20l18 -120c-68 -19 -130 -24 -195 -24c-196 0 -265 101 -265 260s69 260 264 260c149 0 220 -66 219 -209c0 -21 -1 -44 -7 -85zM281 395c-59 0 -86 -31 -92 -86h165c2 10 2 18 2 24c-1 41 -24 62 -75 62z" />
    <glyph glyph-name="f" unicode="f" horiz-adv-x="345" 
d="M226 536v-36h98v-106h-98v-394h-150v394h-64v97l64 9v46c0 98 31 154 164 154c28 0 62 -4 91 -9l-13 -115c-17 3 -32 5 -43 5c-37 0 -49 -9 -49 -45z" />
    <glyph glyph-name="g" unicode="g" horiz-adv-x="555" 
d="M139 -54c0 -50 64 -59 119 -59c60 0 123 18 123 60c0 20 -16 37 -50 40l-170 10c-12 -15 -22 -24 -22 -51zM265 269c44 0 74 21 74 71c0 51 -30 72 -74 72c-46 0 -74 -21 -74 -72s30 -71 74 -71zM89 17v2c-26 18 -40 43 -40 70c-1 38 25 81 81 109v2
c-50 25 -81 79 -81 140c0 117 87 170 216 170c26 0 54 -4 73 -10h191v-89h-73c10 -17 20 -39 20 -71c0 -118 -89 -169 -211 -169c-32 0 -53 7 -59 9c-5 -6 -8 -13 -11 -19c-7 -19 -7 -41 23 -43l165 -12c101 -8 157 -45 157 -130c0 -134 -98 -186 -305 -186
c-154 0 -220 42 -220 130c0 43 22 72 74 97z" />
    <glyph glyph-name="h" unicode="h" horiz-adv-x="530" 
d="M186 357v-357h-150v700h150v-263h2c41 46 93 73 156 73c100 0 150 -68 150 -169v-341h-150v306c0 54 -22 80 -70 80c-33 0 -65 -16 -88 -29z" />
    <glyph glyph-name="i" unicode="i" horiz-adv-x="222" 
d="M36 500h150v-500h-150v500zM36 680h150v-144h-150v144z" />
    <glyph glyph-name="j" unicode="j" horiz-adv-x="262" 
d="M226 500v-556c0 -98 -31 -154 -164 -154c-28 0 -62 4 -91 9l14 115c16 -3 31 -5 42 -5c36 0 49 8 49 46v545h150zM76 680h150v-144h-150v144z" />
    <glyph glyph-name="k" unicode="k" horiz-adv-x="555" 
d="M186 700v-360l161 160h182l-179 -184l189 -316h-177l-116 231l-60 -58v-173h-150v700h150z" />
    <glyph glyph-name="l" unicode="l" horiz-adv-x="222" 
d="M36 0v700h150v-700h-150z" />
    <glyph glyph-name="m" unicode="m" horiz-adv-x="830" 
d="M186 357v-357h-150v500h150v-63h2c39 45 89 73 152 73c67 0 111 -30 132 -80c54 60 109 80 172 80c100 0 150 -68 150 -169v-341h-150v306c0 54 -26 80 -70 80c-32 0 -62 -16 -85 -30c1 -16 1 -36 1 -57v-299h-150v312c-3 50 -27 74 -70 74c-32 0 -61 -16 -84 -29z" />
    <glyph glyph-name="n" unicode="n" horiz-adv-x="530" 
d="M186 357v-357h-150v500h150v-63h2c41 46 93 73 156 73c100 0 150 -68 150 -169v-341h-150v306c0 54 -22 80 -70 80c-33 0 -65 -16 -88 -29z" />
    <glyph glyph-name="o" unicode="o" horiz-adv-x="550" 
d="M275 386c-70 0 -90 -50 -90 -136s20 -136 90 -136s90 50 90 136s-20 136 -90 136zM275 -10c-181 0 -249 101 -249 260s68 260 249 260s249 -101 249 -260s-68 -260 -249 -260z" />
    <glyph glyph-name="p" unicode="p" horiz-adv-x="530" 
d="M186 500v-50h2c30 35 83 60 134 60c140 0 182 -119 182 -260s-50 -260 -190 -260c-48 0 -96 21 -126 56h-2v-246h-150v700h150zM345 250c0 77 -18 136 -84 136c-36 0 -61 -15 -75 -25v-222c14 -10 39 -25 75 -25c66 0 84 58 84 136z" />
    <glyph glyph-name="q" unicode="q" horiz-adv-x="530" 
d="M344 -200v250h-2c-30 -35 -83 -60 -135 -60c-140 0 -181 119 -181 260s50 260 190 260c47 0 100 -21 134 -56h2l27 50h115v-704h-150zM185 250c0 -78 18 -136 84 -136c36 0 61 15 75 25v222c-14 10 -39 25 -75 25c-66 0 -84 -59 -84 -136z" />
    <glyph glyph-name="r" unicode="r" horiz-adv-x="370" 
d="M186 339v-339h-150v500h150v-80h2c28 45 86 90 166 90v-141c-64 0 -128 -11 -168 -30z" />
    <glyph glyph-name="s" unicode="s" horiz-adv-x="480" 
d="M459 156c0 -115 -81 -166 -204 -166c-83 0 -174 9 -234 24l27 120c84 -20 151 -25 189 -25c50 0 72 18 72 36c0 21 -29 27 -73 35c-117 20 -205 59 -205 175c0 114 81 155 204 155c83 0 155 -9 215 -24l-27 -120c-83 20 -141 25 -179 25c-45 0 -63 -15 -63 -32
c0 -19 16 -26 68 -38c90 -20 210 -42 210 -165z" />
    <glyph glyph-name="t" unicode="t" horiz-adv-x="375" 
d="M76 142v252h-64v97l64 9l18 140h132v-140h118v-106h-118v-226c0 -38 20 -59 66 -59c12 0 27 2 43 5l14 -115c-29 -5 -81 -9 -109 -9c-119 0 -164 50 -164 152z" />
    <glyph glyph-name="u" unicode="u" horiz-adv-x="530" 
d="M344 143v357h150v-500h-150v62h-2c-41 -45 -93 -72 -156 -72c-100 0 -150 67 -150 169v341h150v-306c0 -54 26 -80 70 -80c33 0 65 16 88 29z" />
    <glyph glyph-name="v" unicode="v" horiz-adv-x="560" 
d="M371 -5h-184l-170 505h168l97 -341h2l99 341h159z" />
    <glyph glyph-name="w" unicode="w" horiz-adv-x="790" 
d="M395 270h-2l-65 -275h-167l-144 505h168l75 -341h2l64 341h146l70 -341h2l70 341h158l-142 -505h-168z" />
    <glyph glyph-name="x" unicode="x" horiz-adv-x="545" 
d="M352 0l-90 150h-2l-85 -150h-159l168 260l-153 240h172l78 -132h2l75 132h155l-155 -236l171 -264h-177z" />
    <glyph glyph-name="y" unicode="y" horiz-adv-x="560" 
d="M197 -6l-180 506h168l99 -342h2l97 342h159l-170 -511c-50 -150 -116 -199 -235 -199c-28 0 -69 4 -97 9l13 124c16 -3 39 -5 49 -5c40 0 79 24 95 76z" />
    <glyph glyph-name="z" unicode="z" horiz-adv-x="470" 
d="M442 500v-106l-233 -277v-2h247v-115h-442v106l238 277v2h-223v115h413z" />
    <glyph glyph-name="braceleft" unicode="{" horiz-adv-x="340" 
d="M255 17c0 -94 27 -95 69 -95v-62c-121 0 -228 5 -228 146c0 61 10 130 10 189c0 64 0 99 -70 109v72c70 10 70 45 70 109c0 59 -10 128 -10 189c0 140 107 146 228 146v-63c-42 0 -69 0 -69 -95c0 -61 13 -141 13 -203c0 -79 -45 -102 -105 -118v-2
c60 -16 105 -39 105 -118c0 -62 -13 -143 -13 -204z" />
    <glyph glyph-name="bar" unicode="|" horiz-adv-x="190" 
d="M144 -100h-98v880h98v-880z" />
    <glyph glyph-name="braceright" unicode="}" horiz-adv-x="340" 
d="M85 662c0 95 -27 95 -69 95v63c120 0 228 -6 228 -146c0 -61 -10 -130 -10 -189c0 -64 0 -99 70 -109v-72c-70 -10 -70 -45 -70 -109c0 -59 10 -128 10 -189c0 -141 -108 -146 -228 -146v62c42 0 69 1 69 95c0 61 -14 142 -14 204c0 79 46 102 106 118v2
c-60 16 -106 39 -106 118c0 62 14 142 14 203z" />
    <glyph glyph-name="asciitilde" unicode="~" horiz-adv-x="459" 
d="M145 294c-19 0 -37 -7 -66 -39l-47 36c33 76 75 105 110 105c49 0 148 -40 182 -40c18 0 37 -2 65 30l38 -45c-31 -64 -66 -83 -103 -83c-38 0 -141 36 -179 36z" />
    <glyph glyph-name="Euro" unicode="&#x20ac;" horiz-adv-x="700" 
d="M295 454h165l-9 -88h-178c-1 -7 -1 -14 -1 -21c0 -11 1 -21 2 -31h186l-9 -88h-154c26 -58 73 -95 143 -95c39 0 103 13 172 63l53 -119c-43 -34 -126 -85 -251 -85c-161 0 -259 99 -295 236h-84v88h70v52h-70v88h83c32 138 131 236 296 236c125 0 208 -51 251 -85
l-53 -119c-69 50 -133 63 -172 63c-73 0 -121 -36 -145 -95z" />
    <glyph glyph-name="quotesinglbase" unicode="&#x201a;" horiz-adv-x="222" 
d="M115 -183h-45l27 130h-61v153h150v-153z" />
    <glyph glyph-name="florin" unicode="&#x192;" horiz-adv-x="345" 
d="M76 -32v426h-64v97l64 9v48c0 102 45 152 164 152c28 0 62 -4 91 -9l-13 -115c-17 3 -32 5 -43 5c-38 0 -49 -21 -49 -59v-22h100v-106h-100v-427c0 -103 -31 -177 -164 -177c-28 0 -62 4 -91 9l14 115c16 -3 31 -5 42 -5c38 0 49 21 49 59z" />
    <glyph glyph-name="quotedblbase" unicode="&#x201e;" horiz-adv-x="442" 
d="M115 -183h-45l27 130h-61v153h150v-153zM335 -183h-45l27 130h-61v153h150v-153z" />
    <glyph glyph-name="ellipsis" unicode="&#x2026;" horiz-adv-x="622" 
d="M36 152h150v-152h-150v152zM436 152h150v-152h-150v152zM236 152h150v-152h-150v152z" />
    <glyph glyph-name="dagger" unicode="&#x2020;" horiz-adv-x="580" 
d="M544 359l-183 8l8 -367h-158l8 367l-183 -8v141l183 -9l-8 209h158l-8 -209l183 9v-141z" />
    <glyph glyph-name="daggerdbl" unicode="&#x2021;" horiz-adv-x="580" 
d="M219 292v115l-183 -8v141l183 -9l-8 169h158l-8 -169l183 9v-141l-183 8v-115l183 9v-141l-183 9l8 -169h-158l8 169l-183 -9v141z" />
    <glyph glyph-name="circumflex" unicode="&#x2c6;" horiz-adv-x="412" 
d="M206 620l-39 -60h-115l101 140h106l101 -140h-115z" />
    <glyph glyph-name="perthousand" unicode="&#x2030;" horiz-adv-x="1095" 
d="M614 680l-370 -680h-98l370 680h98zM180 388c-95 0 -146 58 -146 150c0 93 51 151 146 151c96 0 147 -58 147 -151c0 -92 -51 -150 -147 -150zM180 463c35 0 54 24 54 75s-19 76 -54 76s-53 -25 -53 -76s18 -75 53 -75zM580 -9c-96 0 -147 58 -147 151
c0 92 51 150 147 150c95 0 146 -58 146 -150c0 -93 -51 -151 -146 -151zM580 66c34 0 53 25 53 76s-19 75 -53 75c-35 0 -54 -24 -54 -75s19 -76 54 -76zM915 -9c-96 0 -147 58 -147 151c0 92 51 150 147 150c95 0 146 -58 146 -150c0 -93 -51 -151 -146 -151zM915 66
c34 0 53 25 53 76s-19 75 -53 75c-35 0 -54 -24 -54 -75s19 -76 54 -76z" />
    <glyph glyph-name="Scaron" unicode="&#x160;" 
d="M300 -10c-79 0 -168 10 -264 39l27 132c108 -25 186 -30 237 -30c55 0 96 21 96 61c0 54 -69 63 -151 87c-121 35 -199 101 -199 216c0 140 116 195 254 195c79 0 149 -10 245 -39l-35 -132c-109 25 -159 30 -210 30c-55 0 -86 -23 -86 -58c0 -46 58 -60 145 -80
c121 -28 205 -87 205 -206c0 -150 -117 -215 -264 -215zM261 850l39 -60l39 60h115l-101 -140h-106l-101 140h115z" />
    <glyph glyph-name="guilsinglleft" unicode="&#x2039;" horiz-adv-x="380" 
d="M36 294l308 170v-133l-149 -81l149 -81v-133l-308 170v88z" />
    <glyph glyph-name="OE" unicode="&#x152;" horiz-adv-x="996" 
d="M954 680v-141h-313v-118h268v-141h-268v-139h318v-141h-473v43h-1c-34 -44 -92 -53 -140 -53c-262 0 -309 189 -309 355c0 194 67 345 309 345c64 0 108 -20 140 -53h1v43h468zM345 557c-119 0 -141 -82 -141 -212s22 -223 141 -223s141 93 141 224
c0 130 -22 211 -141 211z" />
    <glyph glyph-name="Zcaron" unicode="&#x17d;" horiz-adv-x="560" 
d="M246 143v-2h289v-141h-510v115l284 422v2h-264v141h480v-115zM241 850l39 -60l39 60h115l-101 -140h-106l-101 140h115z" />
    <glyph glyph-name="quoteleft" unicode="&#x2018;" horiz-adv-x="222" 
d="M107 680h45l-27 -130h61v-153h-150v153z" />
    <glyph glyph-name="quoteright" unicode="&#x2019;" horiz-adv-x="222" 
d="M115 397h-45l27 130h-61v153h150v-153z" />
    <glyph glyph-name="quotedblleft" unicode="&#x201c;" horiz-adv-x="442" 
d="M327 680h45l-27 -130h61v-153h-150v153c22 44 47 87 71 130zM107 680h45l-27 -130h61v-153h-150v153z" />
    <glyph glyph-name="quotedblright" unicode="&#x201d;" horiz-adv-x="442" 
d="M115 397h-45l27 130h-61v153h150v-153zM335 397h-45l27 130h-61v153h150v-153z" />
    <glyph glyph-name="bullet" unicode="&#x2022;" horiz-adv-x="262" 
d="M56 326h150v-152h-150v152z" />
    <glyph glyph-name="endash" unicode="&#x2013;" horiz-adv-x="699" 
d="M36 327h626v-124h-626v124z" />
    <glyph glyph-name="emdash" unicode="&#x2014;" horiz-adv-x="760" 
d="M36 327h688v-124h-688v124z" />
    <glyph glyph-name="tilde" unicode="&#x2dc;" horiz-adv-x="449" 
d="M165 585c-20 0 -37 -6 -66 -38l-47 53c33 76 75 96 110 96c49 0 98 -40 132 -40c18 0 37 7 65 39l38 -63c-31 -64 -66 -83 -103 -83c-38 0 -91 36 -129 36z" />
    <glyph glyph-name="trademark" unicode="&#x2122;" horiz-adv-x="797" 
d="M498 680l75 -196h1l65 196h126v-344h-89v200h-2l-73 -200h-69l-74 200h-1v-200h-84v344h125zM311 601h-95v-265h-88v265h-96v79h279v-79z" />
    <glyph glyph-name="scaron" unicode="&#x161;" horiz-adv-x="480" 
d="M459 156c0 -115 -81 -166 -204 -166c-83 0 -174 9 -234 24l27 120c84 -20 151 -25 189 -25c50 0 72 18 72 36c0 21 -29 27 -73 35c-117 20 -205 59 -205 175c0 114 81 155 204 155c83 0 155 -9 215 -24l-27 -120c-83 20 -141 25 -179 25c-45 0 -63 -15 -63 -32
c0 -19 16 -26 68 -38c90 -20 210 -42 210 -165zM210 700l39 -60l39 60h115l-101 -140h-106l-101 140h115z" />
    <glyph glyph-name="guilsinglright" unicode="&#x203a;" horiz-adv-x="380" 
d="M344 206l-308 -170v133l149 81l-149 81v133l308 -170v-88z" />
    <glyph glyph-name="oe" unicode="&#x153;" horiz-adv-x="870" 
d="M842 216h-313c4 -62 45 -102 124 -102c40 0 88 0 155 20l18 -120c-68 -19 -130 -24 -195 -24c-87 0 -146 23 -185 61c-37 -38 -92 -61 -171 -61c-181 0 -249 101 -249 260s68 260 249 260c79 0 134 -24 171 -62c39 39 98 62 184 62c173 0 219 -93 219 -202
c0 -30 -3 -61 -7 -92zM275 386c-70 0 -90 -50 -90 -136s20 -136 90 -136s90 49 90 136c0 86 -20 136 -90 136zM621 395c-59 0 -87 -31 -92 -86h165c1 10 2 17 2 26c0 34 -21 60 -75 60z" />
    <glyph glyph-name="zcaron" unicode="&#x17e;" horiz-adv-x="470" 
d="M442 500v-106l-233 -277v-2h247v-115h-442v106l238 277v2h-223v115h413zM196 700l39 -60l39 60h115l-101 -140h-106l-101 140h115z" />
    <glyph glyph-name="Ydieresis" unicode="&#x178;" horiz-adv-x="620" 
d="M313 399h2l117 281h172l-215 -440v-240h-158v240l-215 440h181zM152 857h123v-135h-123v135zM344 857h124v-135h-124v135z" />
    <glyph glyph-name="exclamdown" unicode="&#xa1;" horiz-adv-x="222" 
d="M186 347h-150v153h150v-153zM186 -180h-150l9 461h132z" />
    <glyph glyph-name="cent" unicode="&#xa2;" horiz-adv-x="511" 
d="M343 -100h-62v91c-152 6 -246 106 -246 259c0 152 94 253 246 259v91h62v-93c44 -3 83 -15 133 -36l-18 -115c-47 17 -81 26 -115 28v-269c34 2 68 11 115 29l18 -115c-50 -22 -89 -33 -133 -36v-93zM194 250c0 -78 34 -122 87 -133v265c-53 -10 -87 -55 -87 -132z" />
    <glyph glyph-name="sterling" unicode="&#xa3;" horiz-adv-x="619" 
d="M442 287h-207v-155h327v-132h-527v132h50v155h-50v115h50v93c0 140 107 195 245 195c98 0 195 -29 254 -68l-62 -123c-70 35 -132 50 -183 50c-64 0 -104 -26 -104 -74v-73h207v-115z" />
    <glyph glyph-name="currency" unicode="&#xa4;" horiz-adv-x="513" 
d="M100 249c0 45 18 85 48 114l-78 90l8 8l79 -90c27 22 62 36 100 36c37 0 72 -14 99 -36l78 90l9 -8l-78 -89c31 -29 50 -70 50 -115s-19 -86 -49 -114l76 -86l-9 -9l-77 87c-27 -22 -62 -35 -99 -35c-38 0 -73 13 -100 35l-76 -87l-9 9l76 86c-30 29 -48 69 -48 114z
M112 249c0 -79 66 -145 145 -145s146 66 146 145s-67 146 -146 146s-145 -67 -145 -146z" />
    <glyph glyph-name="yen" unicode="&#xa5;" horiz-adv-x="657" 
d="M431 289h131v-89h-154v-200h-159v200h-154v89h131l-191 391h181l116 -281h2l116 281h172z" />
    <glyph glyph-name="brokenbar" unicode="&#xa6;" horiz-adv-x="170" 
d="M134 -100h-98v400h98v-400zM134 380h-98v400h98v-400z" />
    <glyph glyph-name="section" unicode="&#xa7;" horiz-adv-x="598" 
d="M562 342h-167c0 54 -69 63 -151 87c-122 35 -199 101 -199 216c0 140 116 195 254 195c78 0 148 -10 245 -39l-36 -132c-108 25 -158 30 -209 30c-55 0 -87 -23 -87 -58c0 -46 59 -60 145 -80c122 -28 212 -88 205 -219zM45 345h167c0 -46 59 -64 145 -84
c122 -28 205 -87 205 -206c0 -150 -116 -215 -263 -215c-79 0 -168 10 -264 39l27 132c108 -25 185 -30 237 -30c55 0 96 21 96 61c0 54 -69 63 -151 87c-122 35 -199 101 -199 216z" />
    <glyph glyph-name="dieresis" unicode="&#xa8;" horiz-adv-x="464" 
d="M74 697h123v-135h-123v135zM266 697h124v-135h-124v135z" />
    <glyph glyph-name="copyright" unicode="&#xa9;" horiz-adv-x="765" 
d="M30 340c0 195 157 350 352 350s353 -155 353 -350s-158 -350 -353 -350s-352 155 -352 350zM97 340c0 -158 127 -288 285 -288c157 0 286 130 286 288c0 157 -129 283 -286 283c-158 0 -285 -126 -285 -283zM393 438c-52 0 -87 -25 -87 -94c0 -74 35 -104 87 -104
c21 0 59 6 95 30l32 -66c-27 -20 -70 -42 -133 -42c-108 0 -177 64 -177 182c0 112 69 172 177 172c63 0 106 -22 133 -42l-32 -67c-36 24 -74 31 -95 31z" />
    <glyph glyph-name="ordfeminine" unicode="&#xaa;" horiz-adv-x="291" 
d="M138 623c-20 0 -42 -2 -77 -10l-12 60c37 7 76 12 107 12c66 0 101 -16 101 -84v-171h-75v25c-21 -22 -41 -30 -72 -30c-50 0 -76 36 -76 78c0 64 60 79 105 79h43v14c0 23 -15 27 -44 27zM182 495v43h-39c-20 0 -34 -8 -34 -28s16 -28 32 -28c17 0 33 7 41 13z" />
    <glyph glyph-name="guillemotleft" unicode="&#xab;" horiz-adv-x="714" 
d="M36 294l308 170v-133l-149 -81l149 -81v-133l-308 170v88zM370 294l307 170v-133l-148 -81l148 -81v-133l-307 170v88z" />
    <glyph glyph-name="logicalnot" unicode="&#xac;" horiz-adv-x="590" 
d="M56 327h478v-226h-124v102h-354v124z" />
    <glyph glyph-name="uni00AD" unicode="&#xad;" horiz-adv-x="500" 
d="M36 327h428v-124h-428v124z" />
    <glyph glyph-name="registered" unicode="&#xae;" horiz-adv-x="765" 
d="M548 168h-110l-63 100h-41v-100h-89v344h145c88 0 144 -42 144 -121c0 -55 -26 -92 -66 -108zM334 433v-86h56c29 0 52 9 52 44c0 32 -23 42 -52 42h-56zM30 340c0 195 157 350 352 350s353 -155 353 -350s-158 -350 -353 -350s-352 155 -352 350zM97 340
c0 -158 127 -288 285 -288c157 0 286 130 286 288c0 157 -129 283 -286 283c-158 0 -285 -126 -285 -283z" />
    <glyph glyph-name="macron" unicode="&#xaf;" horiz-adv-x="437" 
d="M52 674h333v-98h-333v98z" />
    <glyph glyph-name="degree" unicode="&#xb0;" horiz-adv-x="260" 
d="M32 582c0 54 44 98 98 98s98 -44 98 -98c0 -53 -44 -97 -98 -97s-98 44 -98 97zM87 582c0 -24 19 -43 43 -43s43 19 43 43c0 25 -19 43 -43 43s-43 -18 -43 -43z" />
    <glyph glyph-name="plusminus" unicode="&#xb1;" horiz-adv-x="500" 
d="M36 134h152v82h-152v124h152v143h124v-143h152v-124h-152v-82h152v-124h-428v124z" />
    <glyph glyph-name="twosuperior" unicode="&#xb2;" horiz-adv-x="307" 
d="M133 806c-21 0 -44 -7 -77 -23l-22 58c38 22 77 34 121 34c74 0 113 -45 113 -104c0 -70 -51 -119 -128 -173v-1h133v-67h-239v71c126 79 154 119 154 155c0 45 -34 50 -55 50z" />
    <glyph glyph-name="threesuperior" unicode="&#xb3;" horiz-adv-x="317" 
d="M216 704c47 -14 67 -49 67 -85c0 -64 -48 -99 -128 -99c-43 0 -84 10 -121 33l22 58c32 -15 61 -29 98 -29s51 22 51 40c0 31 -19 42 -59 42h-46v62h42c47 0 55 25 55 45s-14 37 -39 37c-37 0 -63 -15 -95 -29l-22 57c38 22 80 34 123 34c59 0 109 -30 109 -90
c0 -36 -20 -62 -57 -76z" />
    <glyph glyph-name="acute" unicode="&#xb4;" horiz-adv-x="281" 
d="M246 700l-96 -140h-115l52 140h159z" />
    <glyph glyph-name="mu" unicode="&#xb5;" horiz-adv-x="530" 
d="M186 500v-308c1 -53 26 -78 70 -78c33 0 65 16 88 29v357h150v-500h-150v62h-2c-28 -29 -58 -50 -94 -61c-20 -4 -45 -5 -62 1v-35c0 -121 -56 -177 -172 -177c-29 0 -54 4 -83 9l14 115c16 -3 31 -5 42 -5c35 0 49 19 49 59v532h150z" />
    <glyph glyph-name="paragraph" unicode="&#xb6;" horiz-adv-x="564" 
d="M531 626h-82v-626h-62v626h-62v-331h-92c-120 0 -201 78 -201 193c0 120 81 192 201 192h298v-54z" />
    <glyph glyph-name="periodcentered" unicode="&#xb7;" horiz-adv-x="262" 
d="M56 326h150v-152h-150v152z" />
    <glyph glyph-name="cedilla" unicode="&#xb8;" horiz-adv-x="293" 
d="M104 -79v79h54v-51c32 -5 83 -19 83 -74c0 -49 -38 -80 -105 -80c-24 0 -57 4 -84 12l9 47c16 -4 30 -5 45 -5c28 0 44 14 44 34s-19 33 -46 38z" />
    <glyph glyph-name="onesuperior" unicode="&#xb9;" horiz-adv-x="297" 
d="M25 592h92v197l-64 -26l-19 58c39 13 79 31 104 52h55v-281h92v-62h-260v62z" />
    <glyph glyph-name="ordmasculine" unicode="&#xba;" horiz-adv-x="316" 
d="M159 623c-36 0 -46 -25 -46 -68s10 -68 46 -68c34 0 44 25 44 68s-10 68 -44 68zM159 425c-91 0 -125 51 -125 130s34 130 125 130c89 0 123 -51 123 -130s-34 -130 -123 -130z" />
    <glyph glyph-name="guillemotright" unicode="&#xbb;" horiz-adv-x="714" 
d="M370 464l307 -170v-88l-307 -170v133l149 81l-149 81v133zM36 464l308 -170v-88l-308 -170v133l149 81l-149 81v133z" />
    <glyph glyph-name="onequarter" unicode="&#xbc;" horiz-adv-x="800" 
d="M650 680l-370 -680h-45l370 680h45zM25 392h92v197c-21 -9 -42 -18 -64 -26l-19 58c39 13 80 31 104 52h55v-281h92v-62h-260v62zM583 136h75v106c-28 -45 -45 -69 -75 -106zM640 340h93v-204h42v-62h-42v-74h-75v74h-152v62c55 60 99 124 134 204z" />
    <glyph glyph-name="onehalf" unicode="&#xbd;" horiz-adv-x="800" 
d="M630 680l-370 -680h-45l370 680h45zM25 392h92v197c-21 -9 -42 -18 -64 -26l-19 58c39 13 80 31 104 52h55v-281h92v-62h-260v62zM635 276c-21 0 -43 -7 -77 -23l-22 58c38 22 77 34 121 34c74 0 113 -45 113 -104c0 -70 -50 -119 -128 -173v-1h133v-67h-239v71
c126 79 154 119 154 155c0 45 -34 50 -55 50z" />
    <glyph glyph-name="threequarters" unicode="&#xbe;" horiz-adv-x="800" 
d="M650 680l-370 -680h-45l370 680h45zM583 136h75v106c-28 -45 -45 -69 -75 -106zM640 340h93v-204h42v-62h-42v-74h-75v74h-152v62c55 60 99 124 134 204zM208 504c46 -14 66 -49 66 -85c0 -64 -48 -99 -127 -99c-44 0 -85 10 -122 33l22 58c32 -15 61 -29 98 -29
s52 22 52 40c0 31 -20 42 -60 42h-46v62h42c47 0 56 25 56 45s-15 37 -40 37c-36 0 -63 -15 -94 -29l-23 57c38 22 80 34 124 34c58 0 108 -30 108 -90c0 -36 -19 -62 -56 -76z" />
    <glyph glyph-name="questiondown" unicode="&#xbf;" horiz-adv-x="480" 
d="M236 -190c-170 0 -210 107 -210 186c0 165 166 175 166 264v30h133v-30c0 -164 -144 -167 -144 -248c0 -55 50 -61 86 -61c33 0 90 10 144 27l43 -128c-59 -25 -145 -40 -218 -40zM334 347h-150v153h150v-153z" />
    <glyph glyph-name="Agrave" unicode="&#xc0;" horiz-adv-x="650" 
d="M457 0l-40 144h-192l-41 -144h-168l212 685h195l211 -685h-177zM322 487h-2l-63 -210h128zM258 710l-96 140h159l52 -140h-115z" />
    <glyph glyph-name="Aacute" unicode="&#xc1;" horiz-adv-x="650" 
d="M457 0l-40 144h-192l-41 -144h-168l212 685h195l211 -685h-177zM322 487h-2l-63 -210h128zM485 850l-96 -140h-115l52 140h159z" />
    <glyph glyph-name="Acircumflex" unicode="&#xc2;" horiz-adv-x="650" 
d="M457 0l-40 144h-192l-41 -144h-168l212 685h195l211 -685h-177zM322 487h-2l-63 -210h128zM325 770l-39 -60h-115l101 140h106l101 -140h-115z" />
    <glyph glyph-name="Atilde" unicode="&#xc3;" horiz-adv-x="650" 
d="M457 0l-40 144h-192l-41 -144h-168l212 685h195l211 -685h-177zM322 487h-2l-63 -210h128zM265 745c-20 0 -37 -6 -66 -38l-47 53c33 76 75 96 110 96c49 0 98 -40 132 -40c18 0 37 7 65 39l38 -63c-31 -64 -66 -83 -103 -83c-38 0 -91 36 -129 36z" />
    <glyph glyph-name="Adieresis" unicode="&#xc4;" horiz-adv-x="650" 
d="M457 0l-40 144h-192l-41 -144h-168l212 685h195l211 -685h-177zM322 487h-2l-63 -210h128zM167 857h123v-135h-123v135zM359 857h124v-135h-124v135z" />
    <glyph glyph-name="Aring" unicode="&#xc5;" horiz-adv-x="650" 
d="M457 0l-40 144h-192l-41 -144h-168l212 685h195l211 -685h-177zM322 487h-2l-63 -210h128zM243 790c0 46 37 79 83 79s81 -33 81 -79s-35 -79 -81 -79s-83 33 -83 79zM290 790c0 -22 16 -38 36 -38s35 16 35 38s-15 38 -35 38s-36 -16 -36 -38z" />
    <glyph glyph-name="AE" unicode="&#xc6;" horiz-adv-x="926" 
d="M412 162h-167l-71 -162h-158l317 680h552v-141h-314v-118h269v-141h-269v-139h319v-141h-478v162zM410 538l-112 -252h114v252h-2z" />
    <glyph glyph-name="Ccedilla" unicode="&#xc7;" horiz-adv-x="620" 
d="M36 345c0 194 67 345 309 345c83 0 154 -10 250 -39l-35 -132c-109 25 -151 30 -202 30c-111 0 -154 -74 -154 -204c0 -140 43 -214 154 -214c51 0 93 5 202 30l35 -132c-89 -27 -157 -37 -232 -39v-41c31 -5 83 -19 83 -74c0 -49 -39 -80 -105 -80c-24 0 -57 4 -84 12
l8 47c16 -4 31 -5 46 -5c28 0 43 14 43 34s-18 33 -45 38v71c-213 14 -273 168 -273 353z" />
    <glyph glyph-name="Egrave" unicode="&#xc8;" horiz-adv-x="560" 
d="M519 680v-141h-314v-118h269v-141h-269v-139h319v-141h-478v680h473zM244 710l-96 140h159l52 -140h-115z" />
    <glyph glyph-name="Eacute" unicode="&#xc9;" horiz-adv-x="560" 
d="M519 680v-141h-314v-118h269v-141h-269v-139h319v-141h-478v680h473zM423 850l-96 -140h-115l52 140h159z" />
    <glyph glyph-name="Ecircumflex" unicode="&#xca;" horiz-adv-x="560" 
d="M519 680v-141h-314v-118h269v-141h-269v-139h319v-141h-478v680h473zM285 770l-39 -60h-115l101 140h106l101 -140h-115z" />
    <glyph glyph-name="Edieresis" unicode="&#xcb;" horiz-adv-x="560" 
d="M519 680v-141h-314v-118h269v-141h-269v-139h319v-141h-478v680h473zM131 857h123v-135h-123v135zM323 857h124v-135h-124v135z" />
    <glyph glyph-name="Igrave" unicode="&#xcc;" horiz-adv-x="251" 
d="M205 0h-159v680h159v-680zM73 710l-96 140h159l52 -140h-115z" />
    <glyph glyph-name="Iacute" unicode="&#xcd;" horiz-adv-x="251" 
d="M205 0h-159v680h159v-680zM278 850l-96 -140h-115l52 140h159z" />
    <glyph glyph-name="Icircumflex" unicode="&#xce;" horiz-adv-x="251" 
d="M204 0h-159v680h159v-680zM125 770l-39 -60h-115l101 140h106l101 -140h-115z" />
    <glyph glyph-name="Idieresis" unicode="&#xcf;" horiz-adv-x="251" 
d="M206 0h-159v680h159v-680zM-32 857h123v-135h-123v135zM160 857h124v-135h-124v135z" />
    <glyph glyph-name="Eth" unicode="&#xd0;" horiz-adv-x="667" 
d="M323 0h-259v301h-68v88h68v291h259c239 0 308 -141 308 -335s-69 -345 -308 -345zM222 141h101c117 0 141 74 141 204s-24 194 -141 194h-101v-150h105v-88h-105v-160z" />
    <glyph glyph-name="Ntilde" unicode="&#xd1;" horiz-adv-x="650" 
d="M201 0h-155v680h159l242 -389h2v389h155v-680h-159l-242 371h-2v-371zM265 745c-20 0 -37 -6 -66 -38l-47 53c33 76 75 96 110 96c49 0 98 -40 132 -40c18 0 37 7 65 39l38 -63c-31 -64 -66 -83 -103 -83c-38 0 -91 36 -129 36z" />
    <glyph glyph-name="Ograve" unicode="&#xd2;" horiz-adv-x="690" 
d="M345 557c-119 0 -141 -82 -141 -212s22 -223 141 -223s141 93 141 223s-22 212 -141 212zM345 -10c-242 0 -309 161 -309 355s67 345 309 345s309 -151 309 -345s-67 -355 -309 -355zM293 710l-96 140h159l52 -140h-115z" />
    <glyph glyph-name="Oacute" unicode="&#xd3;" horiz-adv-x="690" 
d="M345 557c-119 0 -141 -82 -141 -212s22 -223 141 -223s141 93 141 223s-22 212 -141 212zM345 -10c-242 0 -309 161 -309 355s67 345 309 345s309 -151 309 -345s-67 -355 -309 -355zM495 850l-96 -140h-115l52 140h159z" />
    <glyph glyph-name="Ocircumflex" unicode="&#xd4;" horiz-adv-x="690" 
d="M345 557c-119 0 -141 -82 -141 -212s22 -223 141 -223s141 93 141 223s-22 212 -141 212zM345 -10c-242 0 -309 161 -309 355s67 345 309 345s309 -151 309 -345s-67 -355 -309 -355zM345 770l-39 -60h-115l101 140h106l101 -140h-115z" />
    <glyph glyph-name="Otilde" unicode="&#xd5;" horiz-adv-x="690" 
d="M345 557c-119 0 -141 -82 -141 -212s22 -223 141 -223s141 93 141 223s-22 212 -141 212zM345 -10c-242 0 -309 161 -309 355s67 345 309 345s309 -151 309 -345s-67 -355 -309 -355zM285 745c-20 0 -37 -6 -66 -38l-47 53c33 76 75 96 110 96c49 0 98 -40 132 -40
c18 0 37 7 65 39l38 -63c-31 -64 -66 -83 -103 -83c-38 0 -91 36 -129 36z" />
    <glyph glyph-name="Odieresis" unicode="&#xd6;" horiz-adv-x="690" 
d="M345 557c-119 0 -141 -82 -141 -212s22 -223 141 -223s141 93 141 223s-22 212 -141 212zM345 -10c-242 0 -309 161 -309 355s67 345 309 345s309 -151 309 -345s-67 -355 -309 -355zM187 857h123v-135h-123v135zM379 857h124v-135h-124v135z" />
    <glyph glyph-name="multiply" unicode="&#xd7;" horiz-adv-x="518" 
d="M482 400l-135 -135l135 -135l-88 -88l-135 135l-135 -135l-88 88l136 135l-136 135l88 88l135 -136l135 136z" />
    <glyph glyph-name="Oslash" unicode="&#xd8;" horiz-adv-x="690" 
d="M345 -10c-89 0 -153 22 -200 58l-68 -86l-45 36l72 90c-51 65 -68 156 -68 257c0 194 67 345 309 345c85 0 148 -20 194 -52l73 92l45 -36l-75 -94c53 -63 72 -153 72 -255c0 -194 -67 -355 -309 -355zM345 122c119 0 141 93 141 223c0 44 -3 85 -14 117l-232 -294
c21 -30 54 -46 105 -46zM345 557c-119 0 -141 -82 -141 -212c0 -43 2 -83 11 -116l231 291c-21 24 -53 37 -101 37z" />
    <glyph glyph-name="Ugrave" unicode="&#xd9;" horiz-adv-x="640" 
d="M321 122c87 0 114 47 114 118v440h159v-440c0 -179 -113 -250 -274 -250s-274 71 -274 250v440h159v-440c0 -71 26 -118 116 -118zM264 710l-96 140h159l52 -140h-115z" />
    <glyph glyph-name="Uacute" unicode="&#xda;" horiz-adv-x="640" 
d="M321 122c87 0 114 47 114 118v440h159v-440c0 -179 -113 -250 -274 -250s-274 71 -274 250v440h159v-440c0 -71 26 -118 116 -118zM471 850l-96 -140h-115l52 140h159z" />
    <glyph glyph-name="Ucircumflex" unicode="&#xdb;" horiz-adv-x="640" 
d="M321 122c87 0 114 47 114 118v440h159v-440c0 -179 -113 -250 -274 -250s-274 71 -274 250v440h159v-440c0 -71 26 -118 116 -118zM320 770l-39 -60h-115l101 140h106l101 -140h-115z" />
    <glyph glyph-name="Udieresis" unicode="&#xdc;" horiz-adv-x="640" 
d="M321 122c87 0 114 47 114 118v440h159v-440c0 -179 -113 -250 -274 -250s-274 71 -274 250v440h159v-440c0 -71 26 -118 116 -118zM162 857h123v-135h-123v135zM354 857h124v-135h-124v135z" />
    <glyph glyph-name="Yacute" unicode="&#xdd;" horiz-adv-x="620" 
d="M313 399h2l117 281h172l-215 -440v-240h-158v240l-215 440h181zM472 850l-96 -140h-115l52 140h159z" />
    <glyph glyph-name="Thorn" unicode="&#xde;" 
d="M332 117h-127v-117h-159v680h159v-108h127c147 0 242 -88 242 -227c0 -140 -95 -228 -242 -228zM205 431v-172h110c49 0 96 20 96 86c0 64 -47 86 -96 86h-110z" />
    <glyph glyph-name="germandbls" unicode="&#xdf;" horiz-adv-x="645" 
d="M320 700c124 0 224 -34 224 -150c0 -104 -114 -133 -114 -182c0 -25 16 -35 42 -45c124 -47 152 -107 152 -168c0 -122 -109 -165 -220 -165c-50 0 -91 8 -129 20l18 115c43 -14 74 -20 107 -20c47 0 65 24 65 49c0 45 -66 67 -97 86c-57 33 -79 52 -79 111
c0 81 81 106 81 173c0 39 -26 57 -63 57c-49 0 -81 -30 -81 -110v-471h-150v394h-64v97l64 9c0 158 121 200 244 200z" />
    <glyph glyph-name="agrave" unicode="&#xe0;" horiz-adv-x="505" 
d="M230 386c-40 0 -85 -4 -156 -19l-22 119c73 15 150 24 213 24c131 0 204 -31 204 -169v-341h-150v50h-2c-41 -44 -82 -60 -143 -60c-100 0 -153 71 -153 157c0 127 121 158 210 158h88v27c0 45 -32 54 -89 54zM319 131v85h-79c-42 0 -69 -16 -69 -56c0 -39 33 -55 64 -55
c33 0 67 13 84 26zM212 560l-96 140h159l52 -140h-115z" />
    <glyph glyph-name="aacute" unicode="&#xe1;" horiz-adv-x="505" 
d="M230 386c-40 0 -85 -4 -156 -19l-22 119c73 15 150 24 213 24c131 0 204 -31 204 -169v-341h-150v50h-2c-41 -44 -82 -60 -143 -60c-100 0 -153 71 -153 157c0 127 121 158 210 158h88v27c0 45 -32 54 -89 54zM319 131v85h-79c-42 0 -69 -16 -69 -56c0 -39 33 -55 64 -55
c33 0 67 13 84 26zM406 700l-96 -140h-115l52 140h159z" />
    <glyph glyph-name="acircumflex" unicode="&#xe2;" horiz-adv-x="505" 
d="M230 386c-40 0 -85 -4 -156 -19l-22 119c73 15 150 24 213 24c131 0 204 -31 204 -169v-341h-150v50h-2c-41 -44 -82 -60 -143 -60c-100 0 -153 71 -153 157c0 127 121 158 210 158h88v27c0 45 -32 54 -89 54zM319 131v85h-79c-42 0 -69 -16 -69 -56c0 -39 33 -55 64 -55
c33 0 67 13 84 26zM262 620l-39 -60h-115l101 140h106l101 -140h-115z" />
    <glyph glyph-name="atilde" unicode="&#xe3;" horiz-adv-x="505" 
d="M230 386c-40 0 -85 -4 -156 -19l-22 119c73 15 150 24 213 24c131 0 204 -31 204 -169v-341h-150v50h-2c-41 -44 -82 -60 -143 -60c-100 0 -153 71 -153 157c0 127 121 158 210 158h88v27c0 45 -32 54 -89 54zM319 131v85h-79c-42 0 -69 -16 -69 -56c0 -39 33 -55 64 -55
c33 0 67 13 84 26zM210 585c-20 0 -37 -6 -66 -38l-47 53c33 76 75 96 110 96c49 0 98 -40 132 -40c18 0 37 7 65 39l38 -63c-31 -64 -66 -83 -103 -83c-38 0 -91 36 -129 36z" />
    <glyph glyph-name="adieresis" unicode="&#xe4;" horiz-adv-x="505" 
d="M230 386c-40 0 -85 -4 -156 -19l-22 119c73 15 150 24 213 24c131 0 204 -31 204 -169v-341h-150v50h-2c-41 -44 -82 -60 -143 -60c-100 0 -153 71 -153 157c0 127 121 158 210 158h88v27c0 45 -32 54 -89 54zM319 131v85h-79c-42 0 -69 -16 -69 -56c0 -39 33 -55 64 -55
c33 0 67 13 84 26zM104 697h123v-135h-123v135zM296 697h124v-135h-124v135z" />
    <glyph glyph-name="aring" unicode="&#xe5;" horiz-adv-x="505" 
d="M230 386c-40 0 -85 -4 -156 -19l-22 119c73 15 150 24 213 24c131 0 204 -31 204 -169v-341h-150v50h-2c-41 -44 -82 -60 -143 -60c-100 0 -153 71 -153 157c0 127 121 158 210 158h88v27c0 45 -32 54 -89 54zM319 131v85h-79c-42 0 -69 -16 -69 -56c0 -39 33 -55 64 -55
c33 0 67 13 84 26zM173 620c0 46 37 79 83 79s81 -33 81 -79s-35 -79 -81 -79s-83 33 -83 79zM220 620c0 -22 16 -38 36 -38s35 16 35 38s-15 38 -35 38s-36 -16 -36 -38z" />
    <glyph glyph-name="ae" unicode="&#xe6;" horiz-adv-x="822" 
d="M794 216h-312c4 -63 45 -102 124 -102c39 0 88 0 155 20l18 -120c-68 -19 -130 -24 -195 -24c-115 0 -184 33 -224 92c-68 -77 -126 -92 -186 -92c-96 0 -153 65 -153 157c0 133 129 158 210 158h88v27c0 45 -32 54 -89 54c-40 0 -85 -4 -156 -19l-22 119
c60 12 155 24 213 24c63 0 107 -7 154 -48c37 30 90 48 163 48c176 0 220 -93 220 -206c0 -28 -4 -59 -8 -88zM235 105c33 0 68 13 88 29c-4 28 -4 57 -4 82h-79c-42 0 -69 -16 -69 -56c0 -39 33 -55 64 -55zM574 395c-59 0 -87 -31 -92 -86h164c2 7 2 15 2 22
c0 36 -16 64 -74 64z" />
    <glyph glyph-name="ccedilla" unicode="&#xe7;" horiz-adv-x="480" 
d="M26 250c0 159 65 260 264 260c64 0 117 -9 177 -24l-26 -120c-84 20 -112 20 -151 20c-64 0 -105 -41 -105 -136s41 -136 105 -136c39 0 67 0 151 20l26 -120c-58 -15 -109 -23 -170 -24v-41c32 -5 83 -19 83 -74c0 -49 -38 -80 -105 -80c-24 0 -57 4 -83 12l8 47
c16 -4 30 -5 45 -5c28 0 44 14 44 34s-19 33 -46 38v72c-162 13 -217 111 -217 257z" />
    <glyph glyph-name="egrave" unicode="&#xe8;" horiz-adv-x="530" 
d="M502 216h-313c5 -62 45 -102 124 -102c40 0 88 0 155 20l18 -120c-68 -19 -130 -24 -195 -24c-196 0 -265 101 -265 260s69 260 264 260c149 0 220 -66 219 -209c0 -21 -1 -44 -7 -85zM281 395c-59 0 -86 -31 -92 -86h165c2 10 2 18 2 24c-1 41 -24 62 -75 62zM232 560
l-96 140h159l52 -140h-115z" />
    <glyph glyph-name="eacute" unicode="&#xe9;" horiz-adv-x="530" 
d="M502 216h-313c5 -62 45 -102 124 -102c40 0 88 0 155 20l18 -120c-68 -19 -130 -24 -195 -24c-196 0 -265 101 -265 260s69 260 264 260c149 0 220 -66 219 -209c0 -21 -1 -44 -7 -85zM281 395c-59 0 -86 -31 -92 -86h165c2 10 2 18 2 24c-1 41 -24 62 -75 62zM452 700
l-96 -140h-115l52 140h159z" />
    <glyph glyph-name="ecircumflex" unicode="&#xea;" horiz-adv-x="530" 
d="M502 216h-313c5 -62 45 -102 124 -102c40 0 88 0 155 20l18 -120c-68 -19 -130 -24 -195 -24c-196 0 -265 101 -265 260s69 260 264 260c149 0 220 -66 219 -209c0 -21 -1 -44 -7 -85zM281 395c-59 0 -86 -31 -92 -86h165c2 10 2 18 2 24c-1 41 -24 62 -75 62zM265 620
l-39 -60h-115l101 140h106l101 -140h-115z" />
    <glyph glyph-name="edieresis" unicode="&#xeb;" horiz-adv-x="530" 
d="M502 216h-313c5 -62 45 -102 124 -102c40 0 88 0 155 20l18 -120c-68 -19 -130 -24 -195 -24c-196 0 -265 101 -265 260s69 260 264 260c149 0 220 -66 219 -209c0 -21 -1 -44 -7 -85zM281 395c-59 0 -86 -31 -92 -86h165c2 10 2 18 2 24c-1 41 -24 62 -75 62zM107 697
h123v-135h-123v135zM299 697h124v-135h-124v135z" />
    <glyph glyph-name="igrave" unicode="&#xec;" horiz-adv-x="222" 
d="M59 560l-96 140h159l52 -140h-115zM36 500h150v-500h-150v500z" />
    <glyph glyph-name="iacute" unicode="&#xed;" horiz-adv-x="222" 
d="M267 700l-96 -140h-115l52 140h159zM36 500h150v-500h-150v500z" />
    <glyph glyph-name="icircumflex" unicode="&#xee;" horiz-adv-x="222" 
d="M36 500h150v-500h-150v500zM111 620l-39 -60h-115l101 140h106l101 -140h-115z" />
    <glyph glyph-name="idieresis" unicode="&#xef;" horiz-adv-x="222" 
d="M-47 697h123v-135h-123v135zM145 697h124v-135h-124v135zM36 500h150v-500h-150v500z" />
    <glyph glyph-name="eth" unicode="&#xf0;" horiz-adv-x="550" 
d="M370 656l72 72l50 -50l-64 -63c59 -59 96 -158 96 -315c0 -161 -75 -310 -257 -310c-142 0 -241 86 -241 230c0 150 80 235 210 235c53 0 103 -25 136 -62l2 1c0 49 -13 95 -41 125l-48 -49l-50 51l33 33c-19 7 -40 12 -60 12c-39 0 -81 -5 -143 -29l-18 115
c66 28 109 38 174 38c53 0 105 -10 149 -34zM361 284c-23 23 -50 41 -85 41c-74 0 -91 -58 -91 -105c0 -70 40 -106 89 -106c83 0 96 88 87 170z" />
    <glyph glyph-name="ntilde" unicode="&#xf1;" horiz-adv-x="530" 
d="M186 357v-357h-150v500h150v-63h2c41 46 93 73 156 73c100 0 150 -68 150 -169v-341h-150v306c0 54 -22 80 -70 80c-33 0 -65 -16 -88 -29zM205 585c-20 0 -37 -6 -66 -38l-47 53c33 76 75 96 110 96c49 0 98 -40 132 -40c18 0 37 7 65 39l38 -63
c-31 -64 -66 -83 -103 -83c-38 0 -91 36 -129 36z" />
    <glyph glyph-name="ograve" unicode="&#xf2;" horiz-adv-x="550" 
d="M275 386c-70 0 -90 -50 -90 -136s20 -136 90 -136s90 50 90 136s-20 136 -90 136zM275 -10c-181 0 -249 101 -249 260s68 260 249 260s249 -101 249 -260s-68 -260 -249 -260zM226 560l-96 140h159l52 -140h-115z" />
    <glyph glyph-name="oacute" unicode="&#xf3;" horiz-adv-x="550" 
d="M275 386c-70 0 -90 -50 -90 -136s20 -136 90 -136s90 50 90 136s-20 136 -90 136zM275 -10c-181 0 -249 101 -249 260s68 260 249 260s249 -101 249 -260s-68 -260 -249 -260zM429 700l-96 -140h-115l52 140h159z" />
    <glyph glyph-name="ocircumflex" unicode="&#xf4;" horiz-adv-x="550" 
d="M275 386c-70 0 -90 -50 -90 -136s20 -136 90 -136s90 50 90 136s-20 136 -90 136zM275 -10c-181 0 -249 101 -249 260s68 260 249 260s249 -101 249 -260s-68 -260 -249 -260zM275 620l-39 -60h-115l101 140h106l101 -140h-115z" />
    <glyph glyph-name="otilde" unicode="&#xf5;" horiz-adv-x="550" 
d="M275 386c-70 0 -90 -50 -90 -136s20 -136 90 -136s90 50 90 136s-20 136 -90 136zM275 -10c-181 0 -249 101 -249 260s68 260 249 260s249 -101 249 -260s-68 -260 -249 -260zM217 585c-20 0 -37 -6 -66 -38l-47 53c33 76 75 96 110 96c49 0 98 -40 132 -40
c18 0 37 7 65 39l38 -63c-31 -64 -66 -83 -103 -83c-38 0 -91 36 -129 36z" />
    <glyph glyph-name="odieresis" unicode="&#xf6;" horiz-adv-x="550" 
d="M275 386c-70 0 -90 -50 -90 -136s20 -136 90 -136s90 50 90 136s-20 136 -90 136zM275 -10c-181 0 -249 101 -249 260s68 260 249 260s249 -101 249 -260s-68 -260 -249 -260zM113 697h123v-135h-123v135zM305 697h124v-135h-124v135z" />
    <glyph glyph-name="divide" unicode="&#xf7;" horiz-adv-x="500" 
d="M184 165h132v-135h-132v135zM184 500h132v-135h-132v135zM36 327h428v-124h-428v124z" />
    <glyph glyph-name="oslash" unicode="&#xf8;" horiz-adv-x="550" 
d="M275 -10c-64 0 -114 14 -152 38l-56 -66l-45 36l57 67c-37 45 -53 108 -53 185c0 159 68 260 249 260c64 0 114 -14 151 -38l57 66l44 -36l-57 -67c37 -45 54 -109 54 -185c0 -159 -68 -260 -249 -260zM275 114c70 0 90 50 90 136c0 19 -2 38 -7 54l-144 -170
c15 -13 34 -20 61 -20zM275 386c-70 0 -90 -50 -90 -136c0 -20 1 -39 6 -54l144 169c-14 13 -34 21 -60 21z" />
    <glyph glyph-name="ugrave" unicode="&#xf9;" horiz-adv-x="530" 
d="M344 143v357h150v-500h-150v62h-2c-41 -45 -93 -72 -156 -72c-100 0 -150 67 -150 169v341h150v-306c0 -54 26 -80 70 -80c33 0 65 16 88 29zM201 560l-96 140h159l52 -140h-115z" />
    <glyph glyph-name="uacute" unicode="&#xfa;" horiz-adv-x="530" 
d="M344 143v357h150v-500h-150v62h-2c-41 -45 -93 -72 -156 -72c-100 0 -150 67 -150 169v341h150v-306c0 -54 26 -80 70 -80c33 0 65 16 88 29zM419 700l-96 -140h-115l52 140h159z" />
    <glyph glyph-name="ucircumflex" unicode="&#xfb;" horiz-adv-x="530" 
d="M344 143v357h150v-500h-150v62h-2c-41 -45 -93 -72 -156 -72c-100 0 -150 67 -150 169v341h150v-306c0 -54 26 -80 70 -80c33 0 65 16 88 29zM265 620l-39 -60h-115l101 140h106l101 -140h-115z" />
    <glyph glyph-name="udieresis" unicode="&#xfc;" horiz-adv-x="530" 
d="M344 143v357h150v-500h-150v62h-2c-41 -45 -93 -72 -156 -72c-100 0 -150 67 -150 169v341h150v-306c0 -54 26 -80 70 -80c33 0 65 16 88 29zM107 697h123v-135h-123v135zM299 697h124v-135h-124v135z" />
    <glyph glyph-name="yacute" unicode="&#xfd;" horiz-adv-x="560" 
d="M197 -6l-180 506h168l99 -342h2l97 342h159l-170 -511c-50 -150 -116 -199 -235 -199c-28 0 -69 4 -97 9l13 124c16 -3 39 -5 49 -5c40 0 79 24 95 76zM440 700l-96 -140h-115l52 140h159z" />
    <glyph glyph-name="thorn" unicode="&#xfe;" horiz-adv-x="530" 
d="M186 700v-250h2c30 35 83 60 134 60c140 0 182 -119 182 -260s-50 -260 -190 -260c-48 0 -96 21 -126 56h-2v-246h-150v900h150zM345 250c0 77 -18 136 -84 136c-36 0 -61 -15 -75 -25v-222c14 -10 39 -25 75 -25c66 0 84 58 84 136z" />
    <glyph glyph-name="ydieresis" unicode="&#xff;" horiz-adv-x="560" 
d="M197 -6l-180 506h168l99 -342h2l97 342h159l-170 -511c-50 -150 -116 -199 -235 -199c-28 0 -69 4 -97 9l13 124c16 -3 39 -5 49 -5c40 0 79 24 95 76zM122 697h123v-135h-123v135zM314 697h124v-135h-124v135z" />
    <glyph glyph-name="breve" unicode="&#x2d8;" horiz-adv-x="406" 
d="M203 646c41 0 75 21 90 61h60c-10 -85 -54 -146 -150 -146c-97 0 -140 61 -151 146h60c15 -40 50 -61 91 -61z" />
    <glyph glyph-name="cyrbreve" horiz-adv-x="406" 
d="M203 646c41 0 75 21 90 61h60c-10 -85 -54 -146 -150 -146c-97 0 -140 61 -151 146h60c15 -40 50 -61 91 -61z" />
    <glyph glyph-name="caron" unicode="&#x2c7;" horiz-adv-x="412" 
d="M167 700l39 -60l39 60h115l-101 -140h-106l-101 140h115z" />
    <glyph glyph-name="commaaccent" unicode="&#xf6c3;" horiz-adv-x="238" 
d="M123 736h45l-27 -81h44v-95h-133v95z" />
    <glyph glyph-name="undercommaaccent" horiz-adv-x="238" 
d="M115 -216h-45l27 81h-44v95h133v-95z" />
    <glyph glyph-name="dieresisacute" horiz-adv-x="560" 
d="M52 680h124v-118h-124v118zM384 680h123v-118h-123v118zM374 700l-97 -138h-80l53 138h124z" />
    <glyph glyph-name="dieresisgrave" horiz-adv-x="560" 
d="M384 680h123v-118h-123v118zM52 680h124v-118h-124v118zM282 562l-96 138h124l52 -138h-80z" />
    <glyph glyph-name="dotaccent" unicode="&#x2d9;" horiz-adv-x="237" 
d="M52 680h133v-118h-133v118z" />
    <glyph glyph-name="hungarumlaut" unicode="&#x2dd;" horiz-adv-x="381" 
d="M202 680l-70 -120h-80l53 120h97zM329 680l-70 -120h-80l52 120h98z" />
    <glyph glyph-name="dblgrave" horiz-adv-x="381" 
d="M249 560l-70 120h97l53 -120h-80zM122 560l-70 120h98l52 -120h-80z" />
    <glyph glyph-name="cyrflex" horiz-adv-x="412" 
d="M206 620l-39 -60h-115l101 140h106l101 -140h-115z" />
    <glyph glyph-name="uni02C9" unicode="&#x2c9;" horiz-adv-x="437" 
d="M52 674h333v-98h-333v98z" />
    <glyph glyph-name="ogonek" unicode="&#x2db;" horiz-adv-x="310" 
d="M253 -140l5 -35c-23 -18 -66 -29 -98 -29c-64 0 -108 34 -108 81c0 44 30 88 86 123h72c-37 -30 -57 -65 -57 -96c0 -34 22 -53 59 -53c15 0 28 4 41 9z" />
    <glyph glyph-name="ring" unicode="&#x2da;" horiz-adv-x="269" 
d="M52 620c0 46 37 79 83 79s81 -33 81 -79s-35 -79 -81 -79s-83 33 -83 79zM99 620c0 -22 16 -38 36 -38s35 16 35 38s-15 38 -35 38s-36 -16 -36 -38z" />
    <glyph glyph-name="Acute" horiz-adv-x="281" 
d="M246 850l-96 -140h-115l52 140h159z" />
    <glyph glyph-name="Breve" horiz-adv-x="406" 
d="M203 816c41 0 75 21 90 61h60c-10 -85 -54 -146 -150 -146c-97 0 -140 61 -151 146h60c15 -40 50 -61 91 -61z" />
    <glyph glyph-name="cyrBreve" horiz-adv-x="406" 
d="M203 816c41 0 75 21 90 61h60c-10 -85 -54 -146 -150 -146c-97 0 -140 61 -151 146h60c15 -40 50 -61 91 -61z" />
    <glyph glyph-name="Caron" horiz-adv-x="412" 
d="M167 850l39 -60l39 60h115l-101 -140h-106l-101 140h115z" />
    <glyph glyph-name="Cedilla" horiz-adv-x="293" 
d="M104 -79v79h54v-51c32 -5 83 -19 83 -74c0 -49 -38 -80 -105 -80c-24 0 -57 4 -84 12l9 47c16 -4 30 -5 45 -5c28 0 44 14 44 34s-19 33 -46 38z" />
    <glyph glyph-name="Circumflex" horiz-adv-x="412" 
d="M206 770l-39 -60h-115l101 140h106l101 -140h-115z" />
    <glyph glyph-name="commaaccent.cap" horiz-adv-x="238" 
d="M115 -216h-45l27 81h-44v95h133v-95z" />
    <glyph glyph-name="Dieresis" horiz-adv-x="464" 
d="M74 857h123v-135h-123v135zM266 857h124v-135h-124v135z" />
    <glyph glyph-name="DieresisAcute" horiz-adv-x="560" 
d="M52 850h124v-118h-124v118zM384 850h123v-118h-123v118zM374 870l-97 -138h-80l53 138h124z" />
    <glyph glyph-name="DieresisGrave" horiz-adv-x="560" 
d="M384 850h123v-118h-123v118zM52 850h124v-118h-124v118zM282 732l-96 138h124l52 -138h-80z" />
    <glyph glyph-name="Dotaccent" horiz-adv-x="237" 
d="M52 850h133v-118h-133v118z" />
    <glyph glyph-name="Hungarumlaut" horiz-adv-x="381" 
d="M202 850l-70 -120h-80l53 120h97zM329 850l-70 -120h-80l52 120h98z" />
    <glyph glyph-name="Grave" horiz-adv-x="281" 
d="M131 710l-96 140h159l52 -140h-115z" />
    <glyph glyph-name="dblGrave" horiz-adv-x="381" 
d="M249 730l-70 120h97l53 -120h-80zM122 730l-70 120h98l52 -120h-80z" />
    <glyph glyph-name="cyrFlex" horiz-adv-x="412" 
d="M206 770l-39 -60h-115l101 140h106l101 -140h-115z" />
    <glyph glyph-name="Macron" horiz-adv-x="437" 
d="M52 844h333v-98h-333v98z" />
    <glyph glyph-name="Ogonek" horiz-adv-x="310" 
d="M253 -140l5 -35c-23 -18 -66 -29 -98 -29c-64 0 -108 34 -108 81c0 44 30 88 86 123h72c-37 -30 -57 -65 -57 -96c0 -34 22 -53 59 -53c15 0 28 4 41 9z" />
    <glyph glyph-name="Ring" horiz-adv-x="269" 
d="M52 790c0 46 37 79 83 79s81 -33 81 -79s-35 -79 -81 -79s-83 33 -83 79zM99 790c0 -22 16 -38 36 -38s35 16 35 38s-15 38 -35 38s-36 -16 -36 -38z" />
    <glyph glyph-name="Tilde" horiz-adv-x="449" 
d="M165 745c-20 0 -37 -6 -66 -38l-47 53c33 76 75 96 110 96c49 0 98 -40 132 -40c18 0 37 7 65 39l38 -63c-31 -64 -66 -83 -103 -83c-38 0 -91 36 -129 36z" />
    <glyph glyph-name="Acutesmall" horiz-adv-x="281" 
d="M229 750l-97 -120h-80l53 120h124z" />
    <glyph glyph-name="Brevesmall" horiz-adv-x="406" 
d="M203 716c41 0 75 21 90 61h60c-10 -85 -54 -146 -150 -146c-97 0 -140 61 -151 146h60c15 -40 50 -61 91 -61z" />
    <glyph glyph-name="Caronsmall" horiz-adv-x="412" 
d="M132 750l74 -58l74 58h80l-109 -120h-89l-110 120h80z" />
    <glyph glyph-name="Cedillasmall" horiz-adv-x="293" 
d="M104 -79v79h54v-51c32 -5 83 -19 83 -74c0 -49 -38 -80 -105 -80c-24 0 -57 4 -84 12l9 47c16 -4 30 -5 45 -5c28 0 44 14 44 34s-19 33 -46 38z" />
    <glyph glyph-name="Circumflexsmall" horiz-adv-x="412" 
d="M206 687l-74 -57h-80l110 120h89l109 -120h-80z" />
    <glyph glyph-name="commaaccent.small" horiz-adv-x="238" 
d="M115 -216h-45l27 81h-44v95h133v-95z" />
    <glyph glyph-name="Dieresissmall" horiz-adv-x="464" 
d="M52 750h124v-118h-124v118zM287 750h124v-118h-124v118z" />
    <glyph glyph-name="DieresisAcute.small" horiz-adv-x="560" 
d="M52 750h124v-118h-124v118zM384 750h123v-118h-123v118zM374 770l-97 -138h-80l53 138h124z" />
    <glyph glyph-name="DieresisGrave.small" horiz-adv-x="560" 
d="M384 750h123v-118h-123v118zM52 750h124v-118h-124v118zM282 632l-96 138h124l52 -138h-80z" />
    <glyph glyph-name="Dotaccentsmall" horiz-adv-x="237" 
d="M52 750h133v-118h-133v118z" />
    <glyph glyph-name="Hungarumlautsmall" horiz-adv-x="381" 
d="M202 750l-70 -120h-80l53 120h97zM329 750l-70 -120h-80l52 120h98z" />
    <glyph glyph-name="Gravesmall" horiz-adv-x="281" 
d="M149 630l-97 120h124l53 -120h-80z" />
    <glyph glyph-name="dblGrave.small" horiz-adv-x="381" 
d="M249 630l-70 120h97l53 -120h-80zM122 630l-70 120h98l52 -120h-80z" />
    <glyph glyph-name="Macronsmall" horiz-adv-x="437" 
d="M52 735h333v-89h-333v89z" />
    <glyph glyph-name="Ogoneksmall" horiz-adv-x="310" 
d="M253 -140l5 -35c-23 -18 -66 -29 -98 -29c-64 0 -108 34 -108 81c0 44 30 88 86 123h72c-37 -30 -57 -65 -57 -96c0 -34 22 -53 59 -53c15 0 28 4 41 9z" />
    <glyph glyph-name="Ringsmall" horiz-adv-x="269" 
d="M52 690c0 46 37 79 83 79s81 -33 81 -79s-35 -79 -81 -79s-83 33 -83 79zM99 690c0 -22 16 -38 36 -38s35 16 35 38s-15 38 -35 38s-36 -16 -36 -38z" />
    <glyph glyph-name="Tildesmall" horiz-adv-x="449" 
d="M165 655c-20 0 -37 -6 -66 -38l-47 35c33 76 75 96 110 96c49 0 98 -39 132 -39c18 0 37 7 65 38l38 -45c-31 -64 -66 -83 -103 -83c-38 0 -91 36 -129 36z" />
    <glyph glyph-name="middot" horiz-adv-x="245" 
d="M56 377h133v-135h-133v135z" />
    <glyph glyph-name="Abreve" unicode="&#x102;" horiz-adv-x="650" 
d="M457 0l-40 144h-192l-41 -144h-168l212 685h195l211 -685h-177zM322 487h-2l-63 -210h128zM325 816c41 0 75 21 90 61h60c-10 -85 -54 -146 -150 -146c-97 0 -140 61 -151 146h60c15 -40 50 -61 91 -61z" />
    <glyph glyph-name="Amacron" unicode="&#x100;" horiz-adv-x="650" 
d="M457 0l-40 144h-192l-41 -144h-168l212 685h195l211 -685h-177zM322 487h-2l-63 -210h128zM158 844h333v-98h-333v98z" />
    <glyph glyph-name="Aogonek" unicode="&#x104;" horiz-adv-x="650" 
d="M515 0h-58l-40 144h-192l-41 -144h-168l212 685h195l211 -685c-79 -4 -105 -56 -105 -96c0 -34 23 -53 60 -53c14 0 27 4 41 9l4 -35c-23 -18 -65 -29 -97 -29c-65 0 -108 34 -108 81c0 44 30 88 86 123zM322 487h-1l-64 -210h128z" />
    <glyph glyph-name="AEacute" unicode="&#x1fc;" horiz-adv-x="926" 
d="M412 162h-167l-71 -162h-158l317 680h552v-141h-314v-118h269v-141h-269v-139h319v-141h-478v162zM410 538l-112 -252h114v252h-2zM644 850l-96 -140h-115l52 140h159z" />
    <glyph glyph-name="Cacute" unicode="&#x106;" horiz-adv-x="620" 
d="M36 345c0 194 67 345 309 345c83 0 154 -10 250 -39l-35 -132c-109 25 -151 30 -202 30c-111 0 -154 -74 -154 -204c0 -140 43 -214 154 -214c51 0 93 5 202 30l35 -132c-96 -29 -167 -39 -250 -39c-242 0 -309 160 -309 355zM503 850l-96 -140h-115l52 140h159z" />
    <glyph glyph-name="Ccaron" unicode="&#x10c;" horiz-adv-x="620" 
d="M36 345c0 194 67 345 309 345c83 0 154 -10 250 -39l-35 -132c-109 25 -151 30 -202 30c-111 0 -154 -74 -154 -204c0 -140 43 -214 154 -214c51 0 93 5 202 30l35 -132c-96 -29 -167 -39 -250 -39c-242 0 -309 160 -309 355zM319 850l39 -60l39 60h115l-101 -140h-106
l-101 140h115z" />
    <glyph glyph-name="Ccircumflex" unicode="&#x108;" horiz-adv-x="620" 
d="M36 345c0 194 67 345 309 345c83 0 154 -10 250 -39l-35 -132c-109 25 -151 30 -202 30c-111 0 -154 -74 -154 -204c0 -140 43 -214 154 -214c51 0 93 5 202 30l35 -132c-96 -29 -167 -39 -250 -39c-242 0 -309 160 -309 355zM363 770l-39 -60h-115l101 140h106l101 -140
h-115z" />
    <glyph glyph-name="Cdotaccent" unicode="&#x10a;" horiz-adv-x="620" 
d="M36 345c0 194 67 345 309 345c83 0 154 -10 250 -39l-35 -132c-109 25 -151 30 -202 30c-111 0 -154 -74 -154 -204c0 -140 43 -214 154 -214c51 0 93 5 202 30l35 -132c-96 -29 -167 -39 -250 -39c-242 0 -309 160 -309 355zM291 850h133v-118h-133v118z" />
    <glyph glyph-name="Dcaron" unicode="&#x10e;" horiz-adv-x="650" 
d="M306 0h-260v680h260c239 0 308 -141 308 -335s-69 -345 -308 -345zM205 141h101c116 0 140 74 140 204s-24 194 -140 194h-101v-398zM259 850l39 -60l39 60h115l-101 -140h-106l-101 140h115z" />
    <glyph glyph-name="Dcroat" unicode="&#x110;" horiz-adv-x="667" 
d="M323 0h-259v301h-68v88h68v291h259c239 0 308 -141 308 -335s-69 -345 -308 -345zM222 141h101c117 0 141 74 141 204s-24 194 -141 194h-101v-150h105v-88h-105v-160z" />
    <glyph glyph-name="Ebreve" unicode="&#x114;" horiz-adv-x="560" 
d="M519 680v-141h-314v-118h269v-141h-269v-139h319v-141h-478v680h473zM290 816c41 0 75 21 90 61h60c-10 -85 -54 -146 -150 -146c-97 0 -140 61 -151 146h60c15 -40 50 -61 91 -61z" />
    <glyph glyph-name="Ecaron" unicode="&#x11a;" horiz-adv-x="560" 
d="M519 680v-141h-314v-118h269v-141h-269v-139h319v-141h-478v680h473zM248 850l39 -60l39 60h115l-101 -140h-106l-101 140h115z" />
    <glyph glyph-name="Edotaccent" unicode="&#x116;" horiz-adv-x="560" 
d="M519 680v-141h-314v-118h269v-141h-269v-139h319v-141h-478v680h473zM215 850h133v-118h-133v118z" />
    <glyph glyph-name="Emacron" unicode="&#x112;" horiz-adv-x="560" 
d="M519 680v-141h-314v-118h269v-141h-269v-139h319v-141h-478v680h473zM121 844h333v-98h-333v98z" />
    <glyph glyph-name="Eogonek" unicode="&#x118;" horiz-adv-x="560" 
d="M567 -140l5 -35c-23 -18 -66 -29 -98 -29c-64 0 -108 34 -108 81c0 44 30 88 86 123h-406v680h473v-141h-314v-118h269v-141h-269v-139h319v-141c-37 -30 -58 -65 -58 -96c0 -34 23 -53 60 -53c15 0 28 4 41 9z" />
    <glyph glyph-name="Gbreve" unicode="&#x11e;" horiz-adv-x="640" 
d="M345 -10c-242 0 -309 160 -309 355c0 194 67 345 309 345c83 0 152 -10 249 -39l-36 -132c-108 25 -149 30 -200 30c-111 0 -154 -74 -154 -204c0 -140 43 -214 154 -214c27 0 51 4 77 11v89h-93v141h252v-339c-92 -29 -161 -43 -249 -43zM352 816c41 0 75 21 90 61h60
c-10 -85 -54 -146 -150 -146c-97 0 -140 61 -151 146h60c15 -40 50 -61 91 -61z" />
    <glyph glyph-name="Gcircumflex" unicode="&#x11c;" horiz-adv-x="640" 
d="M345 -10c-242 0 -309 160 -309 355c0 194 67 345 309 345c83 0 152 -10 249 -39l-36 -132c-108 25 -149 30 -200 30c-111 0 -154 -74 -154 -204c0 -140 43 -214 154 -214c27 0 51 4 77 11v89h-93v141h252v-339c-92 -29 -161 -43 -249 -43zM353 770l-39 -60h-115l101 140
h106l101 -140h-115z" />
    <glyph glyph-name="Gcommaaccent" unicode="&#x122;" horiz-adv-x="640" 
d="M345 -10c-242 0 -309 160 -309 355c0 194 67 345 309 345c83 0 152 -10 249 -39l-36 -132c-108 25 -149 30 -200 30c-111 0 -154 -74 -154 -204c0 -140 43 -214 154 -214c27 0 51 4 77 11v89h-93v141h252v-339c-92 -29 -161 -43 -249 -43zM357 -216h-45l27 81h-44v95h133
v-95z" />
    <glyph glyph-name="Gdotaccent" unicode="&#x120;" horiz-adv-x="640" 
d="M345 -10c-242 0 -309 160 -309 355c0 194 67 345 309 345c83 0 152 -10 249 -39l-36 -132c-108 25 -149 30 -200 30c-111 0 -154 -74 -154 -204c0 -140 43 -214 154 -214c27 0 51 4 77 11v89h-93v141h252v-339c-92 -29 -161 -43 -249 -43zM272 850h133v-118h-133v118z
" />
    <glyph glyph-name="Hbar" unicode="&#x126;" horiz-adv-x="640" 
d="M-24 594h70v86h159v-86h230v86h159v-86h70v-88h-70v-506h-159v280h-230v-280h-159v506h-70v88zM205 421h230v85h-230v-85z" />
    <glyph glyph-name="Hcircumflex" unicode="&#x124;" horiz-adv-x="640" 
d="M205 0h-159v680h159v-259h230v259h159v-680h-159v280h-230v-280zM320 770l-39 -60h-115l101 140h106l101 -140h-115z" />
    <glyph glyph-name="Ibreve" unicode="&#x12c;" horiz-adv-x="251" 
d="M207 0h-159v680h159v-680zM126 816c41 0 75 21 90 61h60c-10 -85 -54 -146 -150 -146c-97 0 -140 61 -151 146h60c15 -40 50 -61 91 -61z" />
    <glyph glyph-name="Idotaccent" unicode="&#x130;" horiz-adv-x="251" 
d="M205 0h-159v680h159v-680zM59 850h133v-118h-133v118z" />
    <glyph glyph-name="Imacron" unicode="&#x12a;" horiz-adv-x="251" 
d="M201 0h-159v680h159v-680zM-41 844h333v-98h-333v98z" />
    <glyph glyph-name="Iogonek" unicode="&#x12e;" horiz-adv-x="251" 
d="M95 0h-49v680h159v-680c-71 -5 -96 -60 -96 -96c0 -34 23 -53 60 -53c14 0 27 4 41 9l4 -35c-23 -18 -65 -29 -97 -29c-65 0 -108 34 -108 81c0 45 30 89 86 123z" />
    <glyph glyph-name="Itilde" unicode="&#x128;" horiz-adv-x="251" 
d="M204 0h-159v680h159v-680zM66 745c-20 0 -37 -6 -66 -38l-47 53c33 76 75 96 110 96c49 0 98 -40 132 -40c18 0 37 7 65 39l38 -63c-31 -64 -66 -83 -103 -83c-38 0 -91 36 -129 36z" />
    <glyph glyph-name="IJ" unicode="&#x132;" horiz-adv-x="612" 
d="M205 0h-159v680h159v-680zM566 680v-494c0 -139 -75 -196 -190 -196c-46 0 -84 4 -113 9l13 133c20 -3 37 -5 56 -5c38 0 75 11 75 68v485h159z" />
    <glyph glyph-name="Jcircumflex" unicode="&#x134;" horiz-adv-x="361" 
d="M315 680v-494c0 -139 -75 -196 -190 -196c-46 0 -84 4 -113 9l13 133c19 -3 36 -5 56 -5c38 0 75 11 75 68v485h159zM236 770l-39 -60h-115l101 140h106l101 -140h-115z" />
    <glyph glyph-name="Kcommaaccent" unicode="&#x136;" horiz-adv-x="641" 
d="M205 680v-287l228 287h189l-232 -289l234 -391h-199l-151 264l-69 -88v-176h-159v680h159zM311 -209h-45l27 81h-44v95h133v-95z" />
    <glyph glyph-name="Lacute" unicode="&#x139;" horiz-adv-x="540" 
d="M46 680h159v-539h309v-141h-468v680zM277 850l-96 -140h-115l52 140h159z" />
    <glyph glyph-name="Lcaron" unicode="&#x13d;" horiz-adv-x="540" 
d="M46 680h159v-539h309v-141h-468v680zM350 504h-45l27 81h-44v95h133v-95z" />
    <glyph glyph-name="Lcommaaccent" unicode="&#x13b;" horiz-adv-x="540" 
d="M46 680h159v-539h309v-141h-468v680zM273 -208h-45l27 81h-44v95h133v-95z" />
    <glyph glyph-name="Ldot" unicode="&#x13f;" horiz-adv-x="540" 
d="M46 680h159v-539h309v-141h-468v680zM287 447h133v-135h-133v135z" />
    <glyph glyph-name="Lslash" unicode="&#x141;" horiz-adv-x="550" 
d="M317 378l-102 -24v-213h309v-141h-468v318l-70 -16v89l70 16v273h159v-237l102 24v-89z" />
    <glyph glyph-name="Nacute" unicode="&#x143;" horiz-adv-x="650" 
d="M201 0h-155v680h159l242 -389h2v389h155v-680h-159l-242 371h-2v-371zM478 850l-96 -140h-115l52 140h159z" />
    <glyph glyph-name="Ncaron" unicode="&#x147;" horiz-adv-x="650" 
d="M201 0h-155v680h159l242 -389h2v389h155v-680h-159l-242 371h-2v-371zM286 850l39 -60l39 60h115l-101 -140h-106l-101 140h115z" />
    <glyph glyph-name="Ncommaaccent" unicode="&#x145;" horiz-adv-x="650" 
d="M201 0h-155v680h159l242 -389h2v389h155v-680h-159l-242 371h-2v-371zM321 -216h-45l27 81h-44v95h133v-95z" />
    <glyph glyph-name="Obreve" unicode="&#x14e;" horiz-adv-x="690" 
d="M345 557c-119 0 -141 -82 -141 -212s22 -223 141 -223s141 93 141 223s-22 212 -141 212zM345 -10c-242 0 -309 161 -309 355s67 345 309 345s309 -151 309 -345s-67 -355 -309 -355zM345 816c41 0 75 21 90 61h60c-10 -85 -54 -146 -150 -146c-97 0 -140 61 -151 146h60
c15 -40 50 -61 91 -61z" />
    <glyph glyph-name="Ohungarumlaut" unicode="&#x150;" horiz-adv-x="690" 
d="M345 557c-119 0 -141 -82 -141 -212s22 -223 141 -223s141 93 141 223s-22 212 -141 212zM345 -10c-242 0 -309 161 -309 355s67 345 309 345s309 -151 309 -345s-67 -355 -309 -355zM389 850l-70 -120h-80l53 120h97zM516 850l-70 -120h-80l52 120h98z" />
    <glyph glyph-name="Omacron" unicode="&#x14c;" horiz-adv-x="690" 
d="M345 557c-119 0 -141 -82 -141 -212s22 -223 141 -223s141 93 141 223s-22 212 -141 212zM345 -10c-242 0 -309 161 -309 355s67 345 309 345s309 -151 309 -345s-67 -355 -309 -355zM178 844h333v-98h-333v98z" />
    <glyph glyph-name="Oslashacute" unicode="&#x1fe;" horiz-adv-x="690" 
d="M493 850l-96 -140h-115l52 140h159zM345 -10c-89 0 -153 22 -200 58l-68 -86l-45 36l72 90c-51 65 -68 156 -68 257c0 194 67 345 309 345c85 0 148 -20 194 -52l73 92l45 -36l-75 -94c53 -63 72 -153 72 -255c0 -194 -67 -355 -309 -355zM345 122c119 0 141 93 141 223
c0 44 -3 85 -14 117l-232 -294c21 -30 54 -46 105 -46zM345 557c-119 0 -141 -82 -141 -212c0 -43 2 -83 11 -116l231 291c-21 24 -53 37 -101 37z" />
    <glyph glyph-name="Racute" unicode="&#x154;" horiz-adv-x="615" 
d="M598 0h-185l-133 231h-75v-231h-159v680h295c146 0 233 -86 233 -224c0 -91 -39 -168 -128 -199zM205 539v-167h117c49 0 89 18 89 84c0 64 -39 83 -87 83h-119zM432 850l-96 -140h-115l52 140h159z" />
    <glyph glyph-name="Rcaron" unicode="&#x158;" horiz-adv-x="615" 
d="M598 0h-185l-133 231h-75v-231h-159v680h295c146 0 233 -86 233 -224c0 -91 -39 -168 -128 -199zM205 539v-167h117c49 0 89 18 89 84c0 64 -39 83 -87 83h-119zM253 850l39 -60l39 60h115l-101 -140h-106l-101 140h115z" />
    <glyph glyph-name="Rcommaaccent" unicode="&#x156;" horiz-adv-x="615" 
d="M598 0h-185l-133 231h-75v-231h-159v680h295c146 0 233 -86 233 -224c0 -91 -39 -168 -128 -199zM205 539v-167h117c49 0 89 18 89 84c0 64 -39 83 -87 83h-119zM312 -210h-45l27 81h-44v95h133v-95z" />
    <glyph glyph-name="Sacute" unicode="&#x15a;" 
d="M300 -10c-79 0 -168 10 -264 39l27 132c108 -25 186 -30 237 -30c55 0 96 21 96 61c0 54 -69 63 -151 87c-121 35 -199 101 -199 216c0 140 116 195 254 195c79 0 149 -10 245 -39l-35 -132c-109 25 -159 30 -210 30c-55 0 -86 -23 -86 -58c0 -46 58 -60 145 -80
c121 -28 205 -87 205 -206c0 -150 -117 -215 -264 -215zM466 850l-96 -140h-115l52 140h159z" />
    <glyph glyph-name="Scedilla" unicode="&#x15e;" 
d="M564 205c0 -146 -109 -210 -250 -215v-41c31 -5 83 -19 83 -74c0 -49 -39 -80 -105 -80c-24 0 -57 4 -84 12l9 47c16 -4 30 -5 45 -5c28 0 43 14 43 34s-18 33 -45 38v70c-69 3 -144 13 -224 38l27 132c108 -25 186 -30 237 -30c55 0 96 21 96 61c0 54 -69 63 -151 87
c-121 35 -199 101 -199 216c0 140 116 195 254 195c79 0 149 -10 245 -39l-35 -132c-109 25 -159 30 -210 30c-55 0 -86 -23 -86 -58c0 -46 58 -60 145 -80c121 -28 205 -87 205 -206z" />
    <glyph glyph-name="Scircumflex" unicode="&#x15c;" 
d="M300 -10c-79 0 -168 10 -264 39l27 132c108 -25 186 -30 237 -30c55 0 96 21 96 61c0 54 -69 63 -151 87c-121 35 -199 101 -199 216c0 140 116 195 254 195c79 0 149 -10 245 -39l-35 -132c-109 25 -159 30 -210 30c-55 0 -86 -23 -86 -58c0 -46 58 -60 145 -80
c121 -28 205 -87 205 -206c0 -150 -117 -215 -264 -215zM310 770l-39 -60h-115l101 140h106l101 -140h-115z" />
    <glyph glyph-name="Scommaaccent" unicode="&#x218;" 
d="M300 -10c-79 0 -168 10 -264 39l27 132c108 -25 186 -30 237 -30c55 0 96 21 96 61c0 54 -69 63 -151 87c-121 35 -199 101 -199 216c0 140 116 195 254 195c79 0 149 -10 245 -39l-35 -132c-109 25 -159 30 -210 30c-55 0 -86 -23 -86 -58c0 -46 58 -60 145 -80
c121 -28 205 -87 205 -206c0 -150 -117 -215 -264 -215zM296 -216h-45l27 81h-44v95h133v-95z" />
    <glyph glyph-name="Tbar" unicode="&#x166;" horiz-adv-x="560" 
d="M127 314h74v225h-175v141h508v-141h-175v-225h74v-88h-74v-226h-158v226h-74v88z" />
    <glyph glyph-name="Tcaron" unicode="&#x164;" horiz-adv-x="560" 
d="M534 539h-175v-539h-158v539h-175v141h508v-141zM241 850l39 -60l39 60h115l-101 -140h-106l-101 140h115z" />
    <glyph glyph-name="Tcommaaccent" unicode="&#x162;" horiz-adv-x="560" 
d="M534 539h-175v-539h-158v539h-175v141h508v-141zM276 -216h-45l27 81h-44v95h133v-95z" />
    <glyph glyph-name="uni021A" unicode="&#x21a;" horiz-adv-x="560" 
d="M534 539h-175v-539h-158v539h-175v141h508v-141zM276 -216h-45l27 81h-44v95h133v-95z" />
    <glyph glyph-name="Ubreve" unicode="&#x16c;" horiz-adv-x="640" 
d="M321 122c87 0 114 47 114 118v440h159v-440c0 -179 -113 -250 -274 -250s-274 71 -274 250v440h159v-440c0 -71 26 -118 116 -118zM320 816c41 0 75 21 90 61h60c-10 -85 -54 -146 -150 -146c-97 0 -140 61 -151 146h60c15 -40 50 -61 91 -61z" />
    <glyph glyph-name="Uhungarumlaut" unicode="&#x170;" horiz-adv-x="640" 
d="M321 122c87 0 114 47 114 118v440h159v-440c0 -179 -113 -250 -274 -250s-274 71 -274 250v440h159v-440c0 -71 26 -118 116 -118zM353 850l-70 -120h-80l53 120h97zM480 850l-70 -120h-80l52 120h98z" />
    <glyph glyph-name="Umacron" unicode="&#x16a;" horiz-adv-x="640" 
d="M321 122c87 0 114 47 114 118v440h159v-440c0 -179 -113 -250 -274 -250s-274 71 -274 250v440h159v-440c0 -71 26 -118 116 -118zM153 844h333v-98h-333v98z" />
    <glyph glyph-name="Uogonek" unicode="&#x172;" horiz-adv-x="640" 
d="M321 122c87 0 114 47 114 118v440h159v-440c0 -168 -99 -241 -246 -249c-30 -28 -46 -59 -46 -87c0 -34 23 -53 60 -53c15 0 28 4 41 9l5 -35c-23 -18 -66 -29 -98 -29c-64 0 -108 34 -108 81c0 41 26 82 74 116c-138 11 -230 85 -230 247v440h159v-440
c0 -71 26 -118 116 -118z" />
    <glyph glyph-name="Uring" unicode="&#x16e;" horiz-adv-x="640" 
d="M321 122c87 0 114 47 114 118v440h159v-440c0 -179 -113 -250 -274 -250s-274 71 -274 250v440h159v-440c0 -71 26 -118 116 -118zM238 790c0 46 37 79 83 79s81 -33 81 -79s-35 -79 -81 -79s-83 33 -83 79zM285 790c0 -22 16 -38 36 -38s35 16 35 38s-15 38 -35 38
s-36 -16 -36 -38z" />
    <glyph glyph-name="Utilde" unicode="&#x168;" horiz-adv-x="640" 
d="M321 122c87 0 114 47 114 118v440h159v-440c0 -179 -113 -250 -274 -250s-274 71 -274 250v440h159v-440c0 -71 26 -118 116 -118zM260 745c-20 0 -37 -6 -66 -38l-47 53c33 76 75 96 110 96c49 0 98 -40 132 -40c18 0 37 7 65 39l38 -63c-31 -64 -66 -83 -103 -83
c-38 0 -91 36 -129 36z" />
    <glyph glyph-name="Wacute" unicode="&#x1e82;" horiz-adv-x="940" 
d="M471 424h-2l-89 -429h-203l-161 685h177l93 -486h1l95 486h185l98 -486h1l90 486h168l-161 -685h-203zM628 850l-96 -140h-115l52 140h159z" />
    <glyph glyph-name="Wcircumflex" unicode="&#x174;" horiz-adv-x="940" 
d="M471 424h-2l-89 -429h-203l-161 685h177l93 -486h1l95 486h185l98 -486h1l90 486h168l-161 -685h-203zM470 770l-39 -60h-115l101 140h106l101 -140h-115z" />
    <glyph glyph-name="Wdieresis" unicode="&#x1e84;" horiz-adv-x="940" 
d="M471 424h-2l-89 -429h-203l-161 685h177l93 -486h1l95 486h185l98 -486h1l90 486h168l-161 -685h-203zM312 857h123v-135h-123v135zM504 857h124v-135h-124v135z" />
    <glyph glyph-name="Wgrave" unicode="&#x1e80;" horiz-adv-x="940" 
d="M471 424h-2l-89 -429h-203l-161 685h177l93 -486h1l95 486h185l98 -486h1l90 486h168l-161 -685h-203zM426 710l-96 140h159l52 -140h-115z" />
    <glyph glyph-name="Ycircumflex" unicode="&#x176;" horiz-adv-x="620" 
d="M313 399h2l117 281h172l-215 -440v-240h-158v240l-215 440h181zM310 770l-39 -60h-115l101 140h106l101 -140h-115z" />
    <glyph glyph-name="Ygrave" unicode="&#x1ef2;" horiz-adv-x="620" 
d="M313 399h2l117 281h172l-215 -440v-240h-158v240l-215 440h181zM259 710l-96 140h159l52 -140h-115z" />
    <glyph glyph-name="Zacute" unicode="&#x179;" horiz-adv-x="560" 
d="M246 143v-2h289v-141h-510v115l284 422v2h-264v141h480v-115zM430 850l-96 -140h-115l52 140h159z" />
    <glyph glyph-name="Zdotaccent" unicode="&#x17b;" horiz-adv-x="560" 
d="M246 143v-2h289v-141h-510v115l284 422v2h-264v141h480v-115zM213 850h133v-118h-133v118z" />
    <glyph glyph-name="Asmall" unicode="&#xf761;" horiz-adv-x="610" 
d="M417 0l-31 99h-170l-32 -99h-168l201 585h177l200 -585h-177zM354 222l-52 165h-1l-53 -165h106z" />
    <glyph glyph-name="Aacutesmall" unicode="&#xf7e1;" horiz-adv-x="610" 
d="M417 0l-31 99h-170l-32 -99h-168l201 585h177l200 -585h-177zM354 222l-52 165h-1l-53 -165h106zM439 750l-97 -120h-80l53 120h124z" />
    <glyph glyph-name="Abreve.small" unicode="&#xf66d;" horiz-adv-x="610" 
d="M417 0l-31 99h-170l-32 -99h-168l201 585h177l200 -585h-177zM354 222l-52 165h-1l-53 -165h106zM305 716c41 0 75 21 90 61h60c-10 -85 -54 -146 -150 -146c-97 0 -140 61 -151 146h60c15 -40 50 -61 91 -61z" />
    <glyph glyph-name="Acircumflexsmall" unicode="&#xf7e2;" horiz-adv-x="610" 
d="M417 0l-31 99h-170l-32 -99h-168l201 585h177l200 -585h-177zM354 222l-52 165h-1l-53 -165h106zM305 687l-74 -57h-80l110 120h89l109 -120h-80z" />
    <glyph glyph-name="Adieresissmall" unicode="&#xf7e4;" horiz-adv-x="610" 
d="M417 0l-31 99h-170l-32 -99h-168l201 585h177l200 -585h-177zM354 222l-52 165h-1l-53 -165h106zM125 750h124v-118h-124v118zM360 750h124v-118h-124v118z" />
    <glyph glyph-name="Agravesmall" unicode="&#xf7e0;" horiz-adv-x="610" 
d="M417 0l-31 99h-170l-32 -99h-168l201 585h177l200 -585h-177zM354 222l-52 165h-1l-53 -165h106zM261 630l-97 120h124l53 -120h-80z" />
    <glyph glyph-name="Amacron.small" unicode="&#xf66e;" horiz-adv-x="610" 
d="M417 0l-31 99h-170l-32 -99h-168l201 585h177l200 -585h-177zM354 222l-52 165h-1l-53 -165h106zM138 735h333v-89h-333v89z" />
    <glyph glyph-name="Aogonek.small" horiz-adv-x="610" 
d="M480 0h-63l-31 99h-170l-32 -99h-168l201 585h177l200 -585c-74 -4 -100 -58 -100 -96c0 -34 23 -53 60 -53c15 0 28 4 41 9l5 -35c-23 -18 -66 -29 -98 -29c-64 0 -108 34 -108 81c0 44 30 88 86 123zM302 387h-1l-53 -165h106z" />
    <glyph glyph-name="Aringsmall" unicode="&#xf7e5;" horiz-adv-x="610" 
d="M417 0l-31 99h-170l-32 -99h-168l201 585h177l200 -585h-177zM354 222l-52 165h-1l-53 -165h106zM223 690c0 46 37 79 83 79s81 -33 81 -79s-35 -79 -81 -79s-83 33 -83 79zM270 690c0 -22 16 -38 36 -38s35 16 35 38s-15 38 -35 38s-36 -16 -36 -38z" />
    <glyph glyph-name="Atildesmall" unicode="&#xf7e3;" horiz-adv-x="610" 
d="M417 0l-31 99h-170l-32 -99h-168l201 585h177l200 -585h-177zM354 222l-52 165h-1l-53 -165h106zM245 655c-20 0 -37 -6 -66 -38l-47 35c33 76 75 96 110 96c49 0 98 -39 132 -39c18 0 37 7 65 38l38 -45c-31 -64 -66 -83 -103 -83c-38 0 -91 36 -129 36z" />
    <glyph glyph-name="AEsmall" unicode="&#xf7e6;" horiz-adv-x="886" 
d="M174 0h-158l316 580h513v-133h-283v-86h238v-132h-238v-97h288v-132h-438v154h-155zM319 278h93v169h-2z" />
    <glyph glyph-name="AEacute.small" unicode="&#xf670;" horiz-adv-x="886" 
d="M174 0h-158l316 580h513v-133h-283v-86h238v-132h-238v-97h288v-132h-438v154h-155zM319 278h93v169h-2zM636 750l-97 -120h-80l53 120h124z" />
    <glyph glyph-name="Bsmall" unicode="&#xf762;" horiz-adv-x="570" 
d="M425 304v-2c60 -13 119 -59 119 -143c0 -109 -70 -159 -208 -159h-290v580h289c120 0 189 -51 189 -149c0 -72 -46 -112 -99 -127zM307 237h-111v-105h114c49 0 75 14 75 53c0 38 -26 52 -78 52zM365 401c0 36 -25 46 -74 46h-95v-95h94c47 0 75 9 75 49z" />
    <glyph glyph-name="Csmall" unicode="&#xf763;" horiz-adv-x="581" 
d="M36 291c0 193 86 299 299 299c101 0 177 -21 221 -39l-35 -124c-64 21 -130 30 -182 30c-95 0 -144 -45 -144 -166c0 -123 49 -169 144 -169c52 0 118 10 182 30l35 -123c-44 -18 -120 -39 -221 -39c-213 0 -299 106 -299 301z" />
    <glyph glyph-name="Cacute.small" unicode="&#xf671;" horiz-adv-x="581" 
d="M36 291c0 193 86 299 299 299c101 0 177 -21 221 -39l-35 -124c-64 21 -130 30 -182 30c-95 0 -144 -45 -144 -166c0 -123 49 -169 144 -169c52 0 118 10 182 30l35 -123c-44 -18 -120 -39 -221 -39c-213 0 -299 106 -299 301zM467 750l-97 -120h-80l53 120h124z" />
    <glyph glyph-name="Ccaron.small" unicode="&#xf672;" horiz-adv-x="581" 
d="M36 291c0 193 86 299 299 299c101 0 177 -21 221 -39l-35 -124c-64 21 -130 30 -182 30c-95 0 -144 -45 -144 -166c0 -123 49 -169 144 -169c52 0 118 10 182 30l35 -123c-44 -18 -120 -39 -221 -39c-213 0 -299 106 -299 301zM254 750l74 -58l74 58h80l-109 -120h-89
l-110 120h80z" />
    <glyph glyph-name="Ccedillasmall" unicode="&#xf7e7;" horiz-adv-x="581" 
d="M301 -79v71c-188 10 -265 114 -265 299c0 193 86 299 299 299c101 0 177 -21 221 -39l-35 -124c-64 21 -130 30 -182 30c-95 0 -144 -45 -144 -166c0 -123 49 -169 144 -169c52 0 118 10 182 30l35 -123c-41 -17 -111 -36 -201 -39v-41c32 -5 83 -19 83 -74
c0 -49 -38 -80 -105 -80c-24 0 -57 4 -84 12l9 47c16 -4 30 -5 45 -5c28 0 44 14 44 34s-19 33 -46 38z" />
    <glyph glyph-name="Ccircumflex.small" unicode="&#xf673;" horiz-adv-x="581" 
d="M36 291c0 193 86 299 299 299c101 0 177 -21 221 -39l-35 -124c-64 21 -130 30 -182 30c-95 0 -144 -45 -144 -166c0 -123 49 -169 144 -169c52 0 118 10 182 30l35 -123c-44 -18 -120 -39 -221 -39c-213 0 -299 106 -299 301zM327 687l-74 -57h-80l110 120h89l109 -120
h-80z" />
    <glyph glyph-name="Cdotaccent.small" unicode="&#xf674;" horiz-adv-x="581" 
d="M36 291c0 193 86 299 299 299c101 0 177 -21 221 -39l-35 -124c-64 21 -130 30 -182 30c-95 0 -144 -45 -144 -166c0 -123 49 -169 144 -169c52 0 118 10 182 30l35 -123c-44 -18 -120 -39 -221 -39c-213 0 -299 106 -299 301zM264 750h133v-118h-133v118z" />
    <glyph glyph-name="Dsmall" unicode="&#xf764;" horiz-adv-x="610" 
d="M296 0h-250v580h250c190 0 278 -100 278 -285c0 -186 -88 -295 -278 -295zM196 132h91c95 0 128 50 128 163c0 112 -33 152 -128 152h-91v-315z" />
    <glyph glyph-name="Dcaron.small" unicode="&#xf675;" horiz-adv-x="610" 
d="M296 0h-250v580h250c190 0 278 -100 278 -285c0 -186 -88 -295 -278 -295zM196 132h91c95 0 128 50 128 163c0 112 -33 152 -128 152h-91v-315zM198 750l74 -58l74 58h80l-109 -120h-89l-110 120h80z" />
    <glyph glyph-name="Dcroat.small" horiz-adv-x="610" 
d="M214 132h73c95 0 128 50 128 163c0 112 -33 152 -128 152h-73v-108h107v-88h-107v-119zM296 0h-232v251h-70v88h70v241h232c190 0 278 -100 278 -285c0 -186 -88 -295 -278 -295z" />
    <glyph glyph-name="Esmall" unicode="&#xf765;" horiz-adv-x="520" 
d="M479 580v-133h-283v-86h238v-132h-238v-97h288v-132h-438v580h433z" />
    <glyph glyph-name="Eacutesmall" unicode="&#xf7e9;" horiz-adv-x="520" 
d="M479 580v-133h-283v-86h238v-132h-238v-97h288v-132h-438v580h433zM401 750l-97 -120h-80l53 120h124z" />
    <glyph glyph-name="Ebreve.small" unicode="&#xf677;" horiz-adv-x="520" 
d="M479 580v-133h-283v-86h238v-132h-238v-97h288v-132h-438v580h433zM259 716c41 0 75 21 90 61h60c-10 -85 -54 -146 -150 -146c-97 0 -140 61 -151 146h60c15 -40 50 -61 91 -61z" />
    <glyph glyph-name="Ecaron.small" unicode="&#xf678;" horiz-adv-x="520" 
d="M479 580v-133h-283v-86h238v-132h-238v-97h288v-132h-438v580h433zM187 750l74 -58l74 58h80l-109 -120h-89l-110 120h80z" />
    <glyph glyph-name="Ecircumflexsmall" unicode="&#xf7ea;" horiz-adv-x="520" 
d="M479 580v-133h-283v-86h238v-132h-238v-97h288v-132h-438v580h433zM262 687l-74 -57h-80l110 120h89l109 -120h-80z" />
    <glyph glyph-name="Edieresissmall" unicode="&#xf7eb;" horiz-adv-x="520" 
d="M479 580v-133h-283v-86h238v-132h-238v-97h288v-132h-438v580h433zM83 750h124v-118h-124v118zM318 750h124v-118h-124v118z" />
    <glyph glyph-name="Edotaccent.small" unicode="&#xf679;" horiz-adv-x="520" 
d="M479 580v-133h-283v-86h238v-132h-238v-97h288v-132h-438v580h433zM197 750h133v-118h-133v118z" />
    <glyph glyph-name="Egravesmall" unicode="&#xf7e8;" horiz-adv-x="520" 
d="M479 580v-133h-283v-86h238v-132h-238v-97h288v-132h-438v580h433zM231 630l-97 120h124l53 -120h-80z" />
    <glyph glyph-name="Emacron.small" unicode="&#xf67a;" horiz-adv-x="520" 
d="M479 580v-133h-283v-86h238v-132h-238v-97h288v-132h-438v580h433zM95 735h333v-89h-333v89z" />
    <glyph glyph-name="Eogonek.small" horiz-adv-x="520" 
d="M527 -140l5 -35c-23 -18 -66 -29 -98 -29c-64 0 -108 34 -108 81c0 44 30 88 86 123h-366v580h433v-133h-283v-86h238v-132h-238v-97h288v-132c-37 -30 -58 -65 -58 -96c0 -34 23 -53 60 -53c15 0 28 4 41 9z" />
    <glyph glyph-name="Fsmall" unicode="&#xf766;" horiz-adv-x="495" 
d="M469 580v-133h-273v-106h228v-132h-228v-209h-150v580h423z" />
    <glyph glyph-name="Gsmall" unicode="&#xf767;" horiz-adv-x="602" 
d="M339 122c21 0 40 1 66 6v89h-73v107h223v-295c-43 -18 -119 -39 -220 -39c-213 0 -299 106 -299 301c0 193 86 299 299 299c101 0 177 -21 221 -39l-35 -124c-64 21 -130 30 -182 30c-95 0 -144 -45 -144 -166c0 -123 49 -169 144 -169z" />
    <glyph glyph-name="Gbreve.small" unicode="&#xf67d;" horiz-adv-x="602" 
d="M339 122c21 0 40 1 66 6v89h-73v107h223v-295c-43 -18 -119 -39 -220 -39c-213 0 -299 106 -299 301c0 193 86 299 299 299c101 0 177 -21 221 -39l-35 -124c-64 21 -130 30 -182 30c-95 0 -144 -45 -144 -166c0 -123 49 -169 144 -169zM329 716c41 0 75 21 90 61h60
c-10 -85 -54 -146 -150 -146c-97 0 -140 61 -151 146h60c15 -40 50 -61 91 -61z" />
    <glyph glyph-name="Gcircumflex.small" unicode="&#xf67e;" horiz-adv-x="602" 
d="M339 122c21 0 40 1 66 6v89h-73v107h223v-295c-43 -18 -119 -39 -220 -39c-213 0 -299 106 -299 301c0 193 86 299 299 299c101 0 177 -21 221 -39l-35 -124c-64 21 -130 30 -182 30c-95 0 -144 -45 -144 -166c0 -123 49 -169 144 -169zM329 687l-74 -57h-80l110 120h89
l109 -120h-80z" />
    <glyph glyph-name="Gcommaaccent.small" unicode="&#xf67f;" horiz-adv-x="602" 
d="M339 122c21 0 40 1 66 6v89h-73v107h223v-295c-43 -18 -119 -39 -220 -39c-213 0 -299 106 -299 301c0 193 86 299 299 299c101 0 177 -21 221 -39l-35 -124c-64 21 -130 30 -182 30c-95 0 -144 -45 -144 -166c0 -123 49 -169 144 -169zM328 -216h-45l27 81h-44v95h133
v-95z" />
    <glyph glyph-name="Gdotaccent.small" unicode="&#xf680;" horiz-adv-x="602" 
d="M339 122c21 0 40 1 66 6v89h-73v107h223v-295c-43 -18 -119 -39 -220 -39c-213 0 -299 106 -299 301c0 193 86 299 299 299c101 0 177 -21 221 -39l-35 -124c-64 21 -130 30 -182 30c-95 0 -144 -45 -144 -166c0 -123 49 -169 144 -169zM263 750h133v-118h-133v118z" />
    <glyph glyph-name="Hsmall" unicode="&#xf768;" 
d="M196 0h-150v580h150v-219h208v219h150v-580h-150v229h-208v-229z" />
    <glyph glyph-name="Hbar.small" horiz-adv-x="620" 
d="M-14 514h70v66h150v-66h208v66h150v-66h70v-88h-70v-426h-150v229h-208v-229h-150v426h-70v88zM206 361h208v65h-208v-65z" />
    <glyph glyph-name="Hcircumflex.small" unicode="&#xf682;" 
d="M196 0h-150v580h150v-219h208v219h150v-580h-150v229h-208v-229zM300 687l-74 -57h-80l110 120h89l109 -120h-80z" />
    <glyph glyph-name="Ismall" unicode="&#xf769;" horiz-adv-x="242" 
d="M196 0h-150v580h150v-580z" />
    <glyph glyph-name="Iacutesmall" unicode="&#xf7ed;" horiz-adv-x="242" 
d="M196 0h-150v580h150v-580zM259 750l-97 -120h-80l53 120h124z" />
    <glyph glyph-name="Ibreve.small" unicode="&#xf683;" horiz-adv-x="242" 
d="M196 0h-150v580h150v-580zM121 716c41 0 75 21 90 61h60c-10 -85 -54 -146 -150 -146c-97 0 -140 61 -151 146h60c15 -40 50 -61 91 -61z" />
    <glyph glyph-name="Icircumflexsmall" unicode="&#xf7ee;" horiz-adv-x="242" 
d="M196 0h-150v580h150v-580zM121 687l-74 -57h-80l110 120h89l109 -120h-80z" />
    <glyph glyph-name="Idieresissmall" unicode="&#xf7ef;" horiz-adv-x="242" 
d="M196 0h-150v580h150v-580zM-59 750h124v-118h-124v118zM176 750h124v-118h-124v118z" />
    <glyph glyph-name="Idotaccent.small" unicode="&#xf6ad;" horiz-adv-x="242" 
d="M196 0h-150v580h150v-580zM54 750h133v-118h-133v118z" />
    <glyph glyph-name="Igravesmall" unicode="&#xf7ec;" horiz-adv-x="242" 
d="M196 0h-150v580h150v-580zM80 630l-97 120h124l53 -120h-80z" />
    <glyph glyph-name="Imacron.small" unicode="&#xf685;" horiz-adv-x="242" 
d="M196 0h-150v580h150v-580zM-46 735h333v-89h-333v89z" />
    <glyph glyph-name="Iogonek.small" horiz-adv-x="242" 
d="M196 580v-580c-66 -4 -90 -63 -90 -96c0 -34 22 -53 59 -53c15 0 28 4 41 9l5 -35c-23 -18 -66 -29 -98 -29c-64 0 -107 34 -107 81c0 45 29 89 86 123l-46 18v562h150z" />
    <glyph glyph-name="Itilde.small" unicode="&#xf687;" horiz-adv-x="242" 
d="M196 0h-150v580h150v-580zM62 655c-20 0 -37 -6 -66 -38l-47 35c33 76 75 96 110 96c49 0 98 -39 132 -39c18 0 37 7 65 38l38 -45c-31 -64 -66 -83 -103 -83c-38 0 -91 36 -129 36z" />
    <glyph glyph-name="IJ.small" horiz-adv-x="595" 
d="M196 0h-150v580h150v-580zM557 580v-394c0 -139 -75 -196 -190 -196c-46 0 -84 4 -113 9l13 133c19 -3 36 -5 56 -5c38 0 75 11 75 68v385h159z" />
    <glyph glyph-name="Jsmall" unicode="&#xf76a;" horiz-adv-x="352" 
d="M315 580v-394c0 -139 -75 -196 -190 -196c-46 0 -84 4 -113 9l13 133c19 -3 36 -5 56 -5c38 0 75 11 75 68v385h159z" />
    <glyph glyph-name="Jcircumflex.small" unicode="&#xf688;" horiz-adv-x="352" 
d="M315 580v-394c0 -139 -75 -196 -190 -196c-46 0 -84 4 -113 9l13 133c19 -3 36 -5 56 -5c38 0 75 11 75 68v385h159zM236 687l-74 -57h-80l110 120h89l109 -120h-80z" />
    <glyph glyph-name="Ksmall" unicode="&#xf76b;" horiz-adv-x="601" 
d="M196 580v-219l201 219h185l-219 -248l221 -332h-190l-138 223l-60 -71v-152h-150v580h150z" />
    <glyph glyph-name="Kcommaaccent.small" unicode="&#xf689;" horiz-adv-x="601" 
d="M196 580v-219l201 219h185l-219 -248l221 -332h-190l-138 223l-60 -71v-152h-150v580h150zM285 -216h-45l27 81h-44v95h133v-95z" />
    <glyph glyph-name="Lsmall" unicode="&#xf76c;" horiz-adv-x="500" 
d="M46 580h150v-448h278v-132h-428v580z" />
    <glyph glyph-name="Lacute.small" unicode="&#xf68a;" horiz-adv-x="500" 
d="M46 580h150v-448h278v-132h-428v580zM261 750l-97 -120h-80l53 120h124z" />
    <glyph glyph-name="Lcaron.small" unicode="&#xf68b;" horiz-adv-x="500" 
d="M46 580h150v-448h278v-132h-428v580zM330 404h-45l27 81h-44v95h133v-95z" />
    <glyph glyph-name="Lcommaaccent.small" unicode="&#xf68c;" horiz-adv-x="500" 
d="M46 580h150v-448h278v-132h-428v580zM254 -216h-45l27 81h-44v95h133v-95z" />
    <glyph glyph-name="Ldot.small" unicode="&#xf68d;" horiz-adv-x="500" 
d="M46 580h150v-448h278v-132h-428v580zM263 370h133v-118h-133v118z" />
    <glyph glyph-name="Lslashsmall" unicode="&#xf6f9;" horiz-adv-x="500" 
d="M299 298l-103 -24v-142h278v-132h-428v238l-70 -16v89l70 16v253h150v-217l103 24v-89z" />
    <glyph glyph-name="Msmall" unicode="&#xf76d;" horiz-adv-x="760" 
d="M257 580l127 -333h2l116 333h212v-580h-150v340h-2l-129 -340h-115l-124 340h-2v-340h-146v580h211z" />
    <glyph glyph-name="Nsmall" unicode="&#xf76e;" horiz-adv-x="610" 
d="M192 0h-146v580h159l211 -337h2v337h146v-580h-159l-211 337h-2v-337z" />
    <glyph glyph-name="Nacute.small" unicode="&#xf68e;" horiz-adv-x="610" 
d="M192 0h-146v580h159l211 -337h2v337h146v-580h-159l-211 337h-2v-337zM445 750l-97 -120h-80l53 120h124z" />
    <glyph glyph-name="Ncaron.small" unicode="&#xf68f;" horiz-adv-x="610" 
d="M192 0h-146v580h159l211 -337h2v337h146v-580h-159l-211 337h-2v-337zM231 750l74 -58l74 58h80l-109 -120h-89l-110 120h80z" />
    <glyph glyph-name="Ncommaaccent.small" unicode="&#xf690;" horiz-adv-x="610" 
d="M192 0h-146v580h159l211 -337h2v337h146v-580h-159l-211 337h-2v-337zM301 -216h-45l27 81h-44v95h133v-95z" />
    <glyph glyph-name="Ntildesmall" unicode="&#xf7f1;" horiz-adv-x="610" 
d="M192 0h-146v580h159l211 -337h2v337h146v-580h-159l-211 337h-2v-337zM245 655c-20 0 -37 -6 -66 -38l-47 35c33 76 75 96 110 96c49 0 98 -39 132 -39c18 0 37 7 65 38l38 -45c-31 -64 -66 -83 -103 -83c-38 0 -91 36 -129 36z" />
    <glyph glyph-name="Osmall" unicode="&#xf76f;" horiz-adv-x="650" 
d="M325 466c-108 0 -130 -69 -130 -171c0 -103 22 -181 130 -181s130 78 130 181c0 102 -22 171 -130 171zM325 -10c-203 0 -289 111 -289 305c0 193 86 295 289 295s289 -102 289 -295c0 -194 -86 -305 -289 -305z" />
    <glyph glyph-name="Oacutesmall" unicode="&#xf7f3;" horiz-adv-x="650" 
d="M325 466c-108 0 -130 -69 -130 -171c0 -103 22 -181 130 -181s130 78 130 181c0 102 -22 171 -130 171zM325 -10c-203 0 -289 111 -289 305c0 193 86 295 289 295s289 -102 289 -295c0 -194 -86 -305 -289 -305zM455 750l-97 -120h-80l53 120h124z" />
    <glyph glyph-name="Obreve.small" unicode="&#xf691;" horiz-adv-x="650" 
d="M325 466c-108 0 -130 -69 -130 -171c0 -103 22 -181 130 -181s130 78 130 181c0 102 -22 171 -130 171zM325 -10c-203 0 -289 111 -289 305c0 193 86 295 289 295s289 -102 289 -295c0 -194 -86 -305 -289 -305zM325 716c41 0 75 21 90 61h60c-10 -85 -54 -146 -150 -146
c-97 0 -140 61 -151 146h60c15 -40 50 -61 91 -61z" />
    <glyph glyph-name="Ocircumflexsmall" unicode="&#xf7f4;" horiz-adv-x="650" 
d="M325 466c-108 0 -130 -69 -130 -171c0 -103 22 -181 130 -181s130 78 130 181c0 102 -22 171 -130 171zM325 -10c-203 0 -289 111 -289 305c0 193 86 295 289 295s289 -102 289 -295c0 -194 -86 -305 -289 -305zM325 687l-74 -57h-80l110 120h89l109 -120h-80z" />
    <glyph glyph-name="Odieresissmall" unicode="&#xf7f6;" horiz-adv-x="650" 
d="M325 466c-108 0 -130 -69 -130 -171c0 -103 22 -181 130 -181s130 78 130 181c0 102 -22 171 -130 171zM325 -10c-203 0 -289 111 -289 305c0 193 86 295 289 295s289 -102 289 -295c0 -194 -86 -305 -289 -305zM145 750h124v-118h-124v118zM380 750h124v-118h-124v118z
" />
    <glyph glyph-name="Ogravesmall" unicode="&#xf7f2;" horiz-adv-x="650" 
d="M325 466c-108 0 -130 -69 -130 -171c0 -103 22 -181 130 -181s130 78 130 181c0 102 -22 171 -130 171zM325 -10c-203 0 -289 111 -289 305c0 193 86 295 289 295s289 -102 289 -295c0 -194 -86 -305 -289 -305zM280 630l-97 120h124l53 -120h-80z" />
    <glyph glyph-name="Ohungarumlaut.small" unicode="&#xf692;" horiz-adv-x="650" 
d="M325 466c-108 0 -130 -69 -130 -171c0 -103 22 -181 130 -181s130 78 130 181c0 102 -22 171 -130 171zM325 -10c-203 0 -289 111 -289 305c0 193 86 295 289 295s289 -102 289 -295c0 -194 -86 -305 -289 -305zM347 750l-70 -120h-80l53 120h97zM474 750l-70 -120h-80
l52 120h98z" />
    <glyph glyph-name="Omacron.small" unicode="&#xf693;" horiz-adv-x="650" 
d="M325 466c-108 0 -130 -69 -130 -171c0 -103 22 -181 130 -181s130 78 130 181c0 102 -22 171 -130 171zM325 -10c-203 0 -289 111 -289 305c0 193 86 295 289 295s289 -102 289 -295c0 -194 -86 -305 -289 -305zM158 735h333v-89h-333v89z" />
    <glyph glyph-name="Otildesmall" unicode="&#xf7f5;" horiz-adv-x="650" 
d="M325 466c-108 0 -130 -69 -130 -171c0 -103 22 -181 130 -181s130 78 130 181c0 102 -22 171 -130 171zM325 -10c-203 0 -289 111 -289 305c0 193 86 295 289 295s289 -102 289 -295c0 -194 -86 -305 -289 -305zM265 655c-20 0 -37 -6 -66 -38l-47 35c33 76 75 96 110 96
c49 0 98 -39 132 -39c18 0 37 7 65 38l38 -45c-31 -64 -66 -83 -103 -83c-38 0 -91 36 -129 36z" />
    <glyph glyph-name="Oslashsmall" unicode="&#xf7f8;" horiz-adv-x="650" 
d="M325 -10c-72 0 -129 14 -172 41l-56 -69l-45 36l55 68c-49 52 -71 129 -71 229c0 193 86 295 289 295c72 0 129 -14 173 -40l55 68l44 -36l-53 -66c48 -50 70 -124 70 -221c0 -194 -86 -305 -289 -305zM325 466c-108 0 -130 -69 -130 -171c0 -39 3 -74 14 -103l201 249
c-19 16 -46 25 -85 25zM325 114c108 0 130 78 130 181c0 36 -3 68 -13 94l-201 -249c19 -17 46 -26 84 -26z" />
    <glyph glyph-name="Oslashacute.small" unicode="&#xf694;" horiz-adv-x="650" 
d="M466 750l-97 -120h-80l53 120h124zM325 -10c-72 0 -129 14 -172 41l-56 -69l-45 36l55 68c-49 52 -71 129 -71 229c0 193 86 295 289 295c72 0 129 -14 173 -40l55 68l44 -36l-53 -66c48 -50 70 -124 70 -221c0 -194 -86 -305 -289 -305zM325 466
c-108 0 -130 -69 -130 -171c0 -39 3 -74 14 -103l201 249c-19 16 -46 25 -85 25zM325 114c108 0 130 78 130 181c0 36 -3 68 -13 94l-201 -249c19 -17 46 -26 84 -26z" />
    <glyph glyph-name="OEsmall" unicode="&#xf6fa;" horiz-adv-x="937" 
d="M896 580v-133h-282v-86h237v-132h-237v-97h287v-132h-427v40c-38 -37 -99 -50 -149 -50c-203 0 -289 111 -289 305c0 193 86 295 289 295c50 0 114 -12 153 -49v39h418zM325 466c-108 0 -130 -69 -130 -171c0 -103 22 -181 130 -181s130 78 130 181
c0 102 -22 171 -130 171z" />
    <glyph glyph-name="Psmall" unicode="&#xf770;" horiz-adv-x="560" 
d="M301 169h-105v-169h-150v580h255c146 0 233 -67 233 -206c0 -140 -87 -205 -233 -205zM196 447v-146h96c49 0 87 16 87 73c0 56 -38 73 -87 73h-96z" />
    <glyph glyph-name="Qsmall" unicode="&#xf771;" horiz-adv-x="650" 
d="M325 114c107 0 130 77 130 181c0 102 -22 171 -130 171s-130 -69 -130 -171c0 -103 22 -181 130 -181zM295 -8c-185 11 -259 119 -259 303c0 193 86 295 289 295s289 -102 289 -295c0 -178 -86 -252 -201 -266c5 -23 130 -18 182 -13v-124c-148 -17 -249 18 -300 100z
" />
    <glyph glyph-name="Rsmall" unicode="&#xf772;" horiz-adv-x="575" 
d="M558 0h-186l-106 169h-70v-169h-150v580h255c146 0 233 -71 233 -206c0 -90 -43 -153 -111 -179zM196 447v-146h104c50 0 79 16 79 73c0 56 -29 73 -78 73h-105z" />
    <glyph glyph-name="Racute.small" unicode="&#xf695;" horiz-adv-x="575" 
d="M558 0h-186l-106 169h-70v-169h-150v580h255c146 0 233 -71 233 -206c0 -90 -43 -153 -111 -179zM196 447v-146h104c50 0 79 16 79 73c0 56 -29 73 -78 73h-105zM394 750l-97 -120h-80l53 120h124z" />
    <glyph glyph-name="Rcaron.small" unicode="&#xf696;" horiz-adv-x="575" 
d="M558 0h-186l-106 169h-70v-169h-150v580h255c146 0 233 -71 233 -206c0 -90 -43 -153 -111 -179zM196 447v-146h104c50 0 79 16 79 73c0 56 -29 73 -78 73h-105zM198 750l74 -58l74 58h80l-109 -120h-89l-110 120h80z" />
    <glyph glyph-name="Rcommaaccent.small" unicode="&#xf697;" horiz-adv-x="575" 
d="M558 0h-186l-106 169h-70v-169h-150v580h255c146 0 233 -71 233 -206c0 -90 -43 -153 -111 -179zM196 447v-146h104c50 0 79 16 79 73c0 56 -29 73 -78 73h-105zM287 -216h-45l27 81h-44v95h133v-95z" />
    <glyph glyph-name="Ssmall" unicode="&#xf773;" horiz-adv-x="570" 
d="M242 225c-124 22 -186 74 -186 181c0 131 89 184 224 184c79 0 147 -10 244 -39l-36 -124c-107 25 -152 30 -204 30c-57 0 -69 -16 -69 -38c0 -42 64 -47 129 -58c124 -20 190 -80 190 -185c0 -131 -108 -186 -244 -186c-79 0 -158 10 -254 39l36 123
c107 -25 175 -30 222 -30c62 0 81 22 81 45c0 40 -42 43 -133 58z" />
    <glyph glyph-name="Sacute.small" unicode="&#xf698;" horiz-adv-x="570" 
d="M242 225c-124 22 -186 74 -186 181c0 131 89 184 224 184c79 0 147 -10 244 -39l-36 -124c-107 25 -152 30 -204 30c-57 0 -69 -16 -69 -38c0 -42 64 -47 129 -58c124 -20 190 -80 190 -185c0 -131 -108 -186 -244 -186c-79 0 -158 10 -254 39l36 123
c107 -25 175 -30 222 -30c62 0 81 22 81 45c0 40 -42 43 -133 58zM421 750l-97 -120h-80l53 120h124z" />
    <glyph glyph-name="Scaronsmall" unicode="&#xf6fd;" horiz-adv-x="570" 
d="M246 780l39 -60l39 60h115l-101 -140h-106l-101 140h115zM242 225c-124 22 -186 74 -186 181c0 131 89 184 224 184c79 0 147 -10 244 -39l-36 -124c-107 25 -152 30 -204 30c-57 0 -69 -16 -69 -38c0 -42 64 -47 129 -58c124 -20 190 -80 190 -185
c0 -131 -108 -186 -244 -186c-79 0 -158 10 -254 39l36 123c107 -25 175 -30 222 -30c62 0 81 22 81 45c0 40 -42 43 -133 58z" />
    <glyph glyph-name="Scedilla.small" horiz-adv-x="570" 
d="M242 225c-124 22 -186 74 -186 181c0 131 89 184 224 184c79 0 147 -10 244 -39l-36 -124c-107 25 -152 30 -204 30c-57 0 -69 -16 -69 -38c0 -42 64 -47 129 -58c124 -20 190 -80 190 -185c0 -127 -101 -182 -230 -185v-42c32 -5 83 -19 83 -74c0 -49 -38 -80 -104 -80
c-24 0 -57 4 -84 12l8 47c16 -4 30 -5 45 -5c29 0 44 14 44 34s-19 33 -46 38v70c-66 3 -135 13 -214 38l36 123c107 -25 175 -30 222 -30c62 0 81 22 81 45c0 40 -42 43 -133 58z" />
    <glyph glyph-name="Scircumflex.small" unicode="&#xf69a;" horiz-adv-x="570" 
d="M242 225c-124 22 -186 74 -186 181c0 131 89 184 224 184c79 0 147 -10 244 -39l-36 -124c-107 25 -152 30 -204 30c-57 0 -69 -16 -69 -38c0 -42 64 -47 129 -58c124 -20 190 -80 190 -185c0 -131 -108 -186 -244 -186c-79 0 -158 10 -254 39l36 123
c107 -25 175 -30 222 -30c62 0 81 22 81 45c0 40 -42 43 -133 58zM285 687l-74 -57h-80l110 120h89l109 -120h-80z" />
    <glyph glyph-name="Scommaaccent.small" unicode="&#xf69b;" horiz-adv-x="570" 
d="M242 225c-124 22 -186 74 -186 181c0 131 89 184 224 184c79 0 147 -10 244 -39l-36 -124c-107 25 -152 30 -204 30c-57 0 -69 -16 -69 -38c0 -42 64 -47 129 -58c124 -20 190 -80 190 -185c0 -131 -108 -186 -244 -186c-79 0 -158 10 -254 39l36 123
c107 -25 175 -30 222 -30c62 0 81 22 81 45c0 40 -42 43 -133 58zM281 -216h-45l27 81h-44v95h133v-95z" />
    <glyph glyph-name="Tsmall" unicode="&#xf774;" horiz-adv-x="520" 
d="M494 447h-159v-447h-150v447h-159v133h468v-133z" />
    <glyph glyph-name="Tcaron.small" unicode="&#xf69d;" horiz-adv-x="520" 
d="M494 447h-159v-447h-150v447h-159v133h468v-133zM186 750l74 -58l74 58h80l-109 -120h-89l-110 120h80z" />
    <glyph glyph-name="Tbar.small" horiz-adv-x="520" 
d="M111 274h74v173h-159v133h468v-133h-159v-173h74v-88h-74v-186h-150v186h-74v88z" />
    <glyph glyph-name="Tcommaaccent.small" unicode="&#xf69e;" horiz-adv-x="520" 
d="M494 447h-159v-447h-150v447h-159v133h468v-133zM255 -216h-45l27 81h-44v95h133v-95z" />
    <glyph glyph-name="Usmall" unicode="&#xf775;" 
d="M46 237v343h150v-341c0 -73 10 -125 105 -125c92 0 103 52 103 125v341h150v-341c0 -179 -88 -249 -254 -249s-254 69 -254 247z" />
    <glyph glyph-name="Uacutesmall" unicode="&#xf7fa;" 
d="M46 237v343h150v-341c0 -73 10 -125 105 -125c92 0 103 52 103 125v341h150v-341c0 -179 -88 -249 -254 -249s-254 69 -254 247zM438 750l-97 -120h-80l53 120h124z" />
    <glyph glyph-name="Ubreve.small" unicode="&#xf69f;" 
d="M46 237v343h150v-341c0 -73 10 -125 105 -125c92 0 103 52 103 125v341h150v-341c0 -179 -88 -249 -254 -249s-254 69 -254 247zM300 716c41 0 75 21 90 61h60c-10 -85 -54 -146 -150 -146c-97 0 -140 61 -151 146h60c15 -40 50 -61 91 -61z" />
    <glyph glyph-name="Ucircumflexsmall" unicode="&#xf7fb;" 
d="M46 237v343h150v-341c0 -73 10 -125 105 -125c92 0 103 52 103 125v341h150v-341c0 -179 -88 -249 -254 -249s-254 69 -254 247zM300 687l-74 -57h-80l110 120h89l109 -120h-80z" />
    <glyph glyph-name="Udieresissmall" unicode="&#xf7fc;" 
d="M46 237v343h150v-341c0 -73 10 -125 105 -125c92 0 103 52 103 125v341h150v-341c0 -179 -88 -249 -254 -249s-254 69 -254 247zM120 750h124v-118h-124v118zM355 750h124v-118h-124v118z" />
    <glyph glyph-name="Uhungarumlaut.small" unicode="&#xf6a0;" 
d="M46 237v343h150v-341c0 -73 10 -125 105 -125c92 0 103 52 103 125v341h150v-341c0 -179 -88 -249 -254 -249s-254 69 -254 247zM327 750l-70 -120h-80l53 120h97zM454 750l-70 -120h-80l52 120h98z" />
    <glyph glyph-name="Ugravesmall" unicode="&#xf7f9;" 
d="M46 237v343h150v-341c0 -73 10 -125 105 -125c92 0 103 52 103 125v341h150v-341c0 -179 -88 -249 -254 -249s-254 69 -254 247zM250 630l-97 120h124l53 -120h-80z" />
    <glyph glyph-name="Umacron.small" unicode="&#xf6a1;" 
d="M46 237v343h150v-341c0 -73 10 -125 105 -125c92 0 103 52 103 125v341h150v-341c0 -179 -88 -249 -254 -249s-254 69 -254 247zM133 735h333v-89h-333v89z" />
    <glyph glyph-name="Uogonek.small" 
d="M46 237v343h150v-341c0 -73 10 -125 105 -125c92 0 103 52 103 125v341h150v-341c0 -168 -78 -240 -225 -248c-31 -28 -46 -59 -46 -87c0 -34 22 -53 59 -53c15 0 28 4 41 9l5 -35c-23 -18 -66 -29 -98 -29c-64 0 -108 34 -108 81c0 41 26 82 73 115
c-137 11 -209 83 -209 245z" />
    <glyph glyph-name="Uring.small" unicode="&#xf6a3;" 
d="M46 237v343h150v-341c0 -73 10 -125 105 -125c92 0 103 52 103 125v341h150v-341c0 -179 -88 -249 -254 -249s-254 69 -254 247zM218 690c0 46 37 79 83 79s81 -33 81 -79s-35 -79 -81 -79s-83 33 -83 79zM265 690c0 -22 16 -38 36 -38s35 16 35 38s-15 38 -35 38
s-36 -16 -36 -38z" />
    <glyph glyph-name="Utilde.small" unicode="&#xf6a4;" 
d="M46 237v343h150v-341c0 -73 10 -125 105 -125c92 0 103 52 103 125v341h150v-341c0 -179 -88 -249 -254 -249s-254 69 -254 247zM240 655c-20 0 -37 -6 -66 -38l-47 35c33 76 75 96 110 96c49 0 98 -39 132 -39c18 0 37 7 65 38l38 -45c-31 -64 -66 -83 -103 -83
c-38 0 -91 36 -129 36z" />
    <glyph glyph-name="Vsmall" unicode="&#xf776;" horiz-adv-x="610" 
d="M309 193h1l116 387h168l-200 -585h-177l-201 585h177z" />
    <glyph glyph-name="Wsmall" unicode="&#xf777;" horiz-adv-x="900" 
d="M441 325h-2l-77 -330h-185l-161 585h177l93 -387h1l75 387h168l91 -387h1l94 387h168l-161 -585h-203z" />
    <glyph glyph-name="Wacute.small" unicode="&#xf6a5;" horiz-adv-x="900" 
d="M441 325h-2l-77 -330h-185l-161 585h177l93 -387h1l75 387h168l91 -387h1l94 387h168l-161 -585h-203zM591 750l-97 -120h-80l53 120h124z" />
    <glyph glyph-name="Wcircumflex.small" unicode="&#xf6a6;" horiz-adv-x="900" 
d="M441 325h-2l-77 -330h-185l-161 585h177l93 -387h1l75 387h168l91 -387h1l94 387h168l-161 -585h-203zM450 687l-74 -57h-80l110 120h89l109 -120h-80z" />
    <glyph glyph-name="Wdieresis.small" unicode="&#xf6a7;" horiz-adv-x="900" 
d="M441 325h-2l-77 -330h-185l-161 585h177l93 -387h1l75 387h168l91 -387h1l94 387h168l-161 -585h-203zM270 750h124v-118h-124v118zM505 750h124v-118h-124v118z" />
    <glyph glyph-name="Wgrave.small" unicode="&#xf6a8;" horiz-adv-x="900" 
d="M441 325h-2l-77 -330h-185l-161 585h177l93 -387h1l75 387h168l91 -387h1l94 387h168l-161 -585h-203zM402 630l-97 120h124l53 -120h-80z" />
    <glyph glyph-name="Xsmall" unicode="&#xf778;" horiz-adv-x="612" 
d="M402 580h177l-189 -279l206 -301h-190l-113 173l-108 -173h-168l188 292l-180 288h177l102 -151z" />
    <glyph glyph-name="Ysmall" unicode="&#xf779;" horiz-adv-x="580" 
d="M293 357h2l97 223h172l-199 -400v-180h-150v180l-199 400h181z" />
    <glyph glyph-name="Yacutesmall" unicode="&#xf7fd;" horiz-adv-x="580" 
d="M293 357h2l97 223h172l-199 -400v-180h-150v180l-199 400h181zM428 750l-97 -120h-80l53 120h124z" />
    <glyph glyph-name="Ycircumflex.small" unicode="&#xf6a9;" horiz-adv-x="580" 
d="M293 357h2l97 223h172l-199 -400v-180h-150v180l-199 400h181zM290 687l-74 -57h-80l110 120h89l109 -120h-80z" />
    <glyph glyph-name="Ydieresissmall" unicode="&#xf7ff;" horiz-adv-x="580" 
d="M293 357h2l97 223h172l-199 -400v-180h-150v180l-199 400h181zM110 750h124v-118h-124v118zM345 750h124v-118h-124v118z" />
    <glyph glyph-name="Ygrave.small" unicode="&#xf6aa;" horiz-adv-x="580" 
d="M293 357h2l97 223h172l-199 -400v-180h-150v180l-199 400h181zM256 630l-97 120h124l53 -120h-80z" />
    <glyph glyph-name="Zsmall" unicode="&#xf77a;" horiz-adv-x="520" 
d="M232 134v-2h263v-132h-470v115l257 330v2h-237v133h440v-115z" />
    <glyph glyph-name="Zacute.small" unicode="&#xf6ab;" horiz-adv-x="520" 
d="M232 134v-2h263v-132h-470v115l257 330v2h-237v133h440v-115zM386 750l-97 -120h-80l53 120h124z" />
    <glyph glyph-name="Zcaronsmall" unicode="&#xf6ff;" horiz-adv-x="520" 
d="M221 780l39 -60l39 60h115l-101 -140h-106l-101 140h115zM232 134v-2h263v-132h-470v115l257 330v2h-237v133h440v-115z" />
    <glyph glyph-name="Zdotaccent.small" unicode="&#xf6ac;" horiz-adv-x="520" 
d="M232 134v-2h263v-132h-470v115l257 330v2h-237v133h440v-115zM193 750h133v-118h-133v118z" />
    <glyph glyph-name="abreve" unicode="&#x103;" horiz-adv-x="505" 
d="M230 386c-40 0 -85 -4 -156 -19l-22 119c73 15 150 24 213 24c131 0 204 -31 204 -169v-341h-150v50h-2c-41 -44 -82 -60 -143 -60c-100 0 -153 71 -153 157c0 127 121 158 210 158h88v27c0 45 -32 54 -89 54zM319 131v85h-79c-42 0 -69 -16 -69 -56c0 -39 33 -55 64 -55
c33 0 67 13 84 26zM272 646c41 0 75 21 90 61h60c-10 -85 -54 -146 -150 -146c-97 0 -140 61 -151 146h60c15 -40 50 -61 91 -61z" />
    <glyph glyph-name="amacron" unicode="&#x101;" horiz-adv-x="505" 
d="M230 386c-40 0 -85 -4 -156 -19l-22 119c73 15 150 24 213 24c131 0 204 -31 204 -169v-341h-150v50h-2c-41 -44 -82 -60 -143 -60c-100 0 -153 71 -153 157c0 127 121 158 210 158h88v27c0 45 -32 54 -89 54zM319 131v85h-79c-42 0 -69 -16 -69 -56c0 -39 33 -55 64 -55
c33 0 67 13 84 26zM99 674h333v-98h-333v98z" />
    <glyph glyph-name="aogonek" unicode="&#x105;" horiz-adv-x="505" 
d="M355 0h-36v50h-2c-41 -44 -82 -60 -143 -60c-100 0 -153 71 -153 157c0 127 121 158 210 158h88v27c0 45 -32 54 -89 54c-40 0 -85 -4 -156 -19l-22 119c73 15 150 24 213 24c131 0 204 -31 204 -169v-341c-74 -4 -100 -58 -100 -96c0 -34 23 -53 60 -53c15 0 28 4 41 9
l5 -35c-23 -18 -66 -29 -98 -29c-49 0 -108 23 -108 81c0 44 30 88 86 123zM319 131v85h-79c-42 0 -69 -16 -69 -56c0 -39 33 -55 64 -55c33 0 67 13 84 26z" />
    <glyph glyph-name="aeacute" unicode="&#x1fd;" horiz-adv-x="822" 
d="M794 216h-312c4 -63 45 -102 124 -102c39 0 88 0 155 20l18 -120c-68 -19 -130 -24 -195 -24c-115 0 -184 33 -224 92c-68 -77 -126 -92 -186 -92c-96 0 -153 65 -153 157c0 133 129 158 210 158h88v27c0 45 -32 54 -89 54c-40 0 -85 -4 -156 -19l-22 119
c60 12 155 24 213 24c63 0 107 -7 154 -48c37 30 90 48 163 48c176 0 220 -93 220 -206c0 -28 -4 -59 -8 -88zM235 105c33 0 68 13 88 29c-4 28 -4 57 -4 82h-79c-42 0 -69 -16 -69 -56c0 -39 33 -55 64 -55zM574 395c-59 0 -87 -31 -92 -86h164c2 7 2 15 2 22
c0 36 -16 64 -74 64zM579 700l-96 -140h-115l52 140h159z" />
    <glyph glyph-name="cacute" unicode="&#x107;" horiz-adv-x="480" 
d="M26 250c0 159 65 260 264 260c64 0 117 -9 177 -24l-26 -120c-84 20 -112 20 -151 20c-64 0 -105 -41 -105 -136s41 -136 105 -136c39 0 67 0 151 20l26 -120c-60 -15 -113 -24 -177 -24c-199 0 -264 101 -264 260zM430 700l-96 -140h-115l52 140h159z" />
    <glyph glyph-name="ccaron" unicode="&#x10d;" horiz-adv-x="480" 
d="M26 250c0 159 65 260 264 260c64 0 117 -9 177 -24l-26 -120c-84 20 -112 20 -151 20c-64 0 -105 -41 -105 -136s41 -136 105 -136c39 0 67 0 151 20l26 -120c-60 -15 -113 -24 -177 -24c-199 0 -264 101 -264 260zM250 700l39 -60l39 60h115l-101 -140h-106l-101 140
h115z" />
    <glyph glyph-name="ccircumflex" unicode="&#x109;" horiz-adv-x="480" 
d="M26 250c0 159 65 260 264 260c64 0 117 -9 177 -24l-26 -120c-84 20 -112 20 -151 20c-64 0 -105 -41 -105 -136s41 -136 105 -136c39 0 67 0 151 20l26 -120c-60 -15 -113 -24 -177 -24c-199 0 -264 101 -264 260zM276 620l-39 -60h-115l101 140h106l101 -140h-115z" />
    <glyph glyph-name="cdotaccent" unicode="&#x10b;" horiz-adv-x="480" 
d="M26 250c0 159 65 260 264 260c64 0 117 -9 177 -24l-26 -120c-84 20 -112 20 -151 20c-64 0 -105 -41 -105 -136s41 -136 105 -136c39 0 67 0 151 20l26 -120c-60 -15 -113 -24 -177 -24c-199 0 -264 101 -264 260zM216 680h133v-118h-133v118z" />
    <glyph glyph-name="c_t" horiz-adv-x="855" 
d="M556 142v252h-64v97l64 9l18 140h132v-140h118v-106h-118v-226c0 -38 20 -59 66 -59c12 0 27 2 43 5l14 -115c-29 -5 -81 -9 -109 -9c-119 0 -164 50 -164 152zM26 250c0 159 65 260 264 260c64 0 117 -9 177 -24l-26 -120c-84 20 -112 20 -151 20
c-64 0 -105 -41 -105 -136s41 -136 105 -136c39 0 67 0 151 20l26 -120c-60 -15 -113 -24 -177 -24c-199 0 -264 101 -264 260z" />
    <glyph glyph-name="dcaron" unicode="&#x10f;" horiz-adv-x="679" 
d="M344 0v50h-2c-30 -35 -83 -60 -135 -60c-140 0 -181 119 -181 260s50 260 190 260c47 0 96 -21 126 -56h2v246h150v-700h-150zM185 250c0 -78 18 -136 84 -136c36 0 61 15 75 25v222c-14 10 -39 25 -75 25c-66 0 -84 -59 -84 -136zM599 524h-45l27 81h-44v95h133v-95z
" />
    <glyph glyph-name="dcroat" unicode="&#x111;" horiz-adv-x="530" 
d="M344 0v50h-2c-30 -35 -83 -60 -135 -60c-140 0 -181 119 -181 260s50 260 190 260c47 0 96 -21 126 -56h2v92h-103v88h103v66h150v-66h70v-88h-70v-546h-150zM185 250c0 -78 18 -136 84 -136c36 0 61 15 75 25v222c-14 10 -39 25 -75 25c-66 0 -84 -59 -84 -136z" />
    <glyph glyph-name="ebreve" unicode="&#x115;" horiz-adv-x="530" 
d="M502 216h-313c5 -62 45 -102 124 -102c40 0 88 0 155 20l18 -120c-68 -19 -130 -24 -195 -24c-196 0 -265 101 -265 260s69 260 264 260c149 0 220 -66 219 -209c0 -21 -1 -44 -7 -85zM281 395c-59 0 -86 -31 -92 -86h165c2 10 2 18 2 24c-1 41 -24 62 -75 62zM287 646
c41 0 75 21 90 61h60c-10 -85 -54 -146 -150 -146c-97 0 -140 61 -151 146h60c15 -40 50 -61 91 -61z" />
    <glyph glyph-name="ecaron" unicode="&#x11b;" horiz-adv-x="530" 
d="M502 216h-313c5 -62 45 -102 124 -102c40 0 88 0 155 20l18 -120c-68 -19 -130 -24 -195 -24c-196 0 -265 101 -265 260s69 260 264 260c149 0 220 -66 219 -209c0 -21 -1 -44 -7 -85zM281 395c-59 0 -86 -31 -92 -86h165c2 10 2 18 2 24c-1 41 -24 62 -75 62zM244 700
l39 -60l39 60h115l-101 -140h-106l-101 140h115z" />
    <glyph glyph-name="edotaccent" unicode="&#x117;" horiz-adv-x="530" 
d="M502 216h-313c5 -62 45 -102 124 -102c40 0 88 0 155 20l18 -120c-68 -19 -130 -24 -195 -24c-196 0 -265 101 -265 260s69 260 264 260c149 0 220 -66 219 -209c0 -21 -1 -44 -7 -85zM281 395c-59 0 -86 -31 -92 -86h165c2 10 2 18 2 24c-1 41 -24 62 -75 62zM218 680
h133v-118h-133v118z" />
    <glyph glyph-name="emacron" unicode="&#x113;" horiz-adv-x="530" 
d="M502 216h-313c5 -62 45 -102 124 -102c40 0 88 0 155 20l18 -120c-68 -19 -130 -24 -195 -24c-196 0 -265 101 -265 260s69 260 264 260c149 0 220 -66 219 -209c0 -21 -1 -44 -7 -85zM281 395c-59 0 -86 -31 -92 -86h165c2 10 2 18 2 24c-1 41 -24 62 -75 62zM116 674
h333v-98h-333v98z" />
    <glyph glyph-name="eogonek" unicode="&#x119;" horiz-adv-x="530" 
d="M189 309h165c2 10 2 18 2 24c-1 41 -24 62 -75 62c-59 0 -86 -31 -92 -86zM502 216h-313c5 -62 45 -102 124 -102c40 0 88 0 155 20l18 -120c-37 -30 -57 -65 -57 -96c0 -34 22 -53 59 -53c15 0 28 4 41 10l5 -35c-23 -18 -65 -29 -97 -29c-65 0 -108 34 -108 81
c0 41 27 77 64 104c-38 -5 -61 -6 -102 -6c-196 0 -265 101 -265 260s69 260 264 260c149 0 220 -66 219 -209c0 -21 -1 -44 -7 -85z" />
    <glyph glyph-name="gbreve" unicode="&#x11f;" horiz-adv-x="555" 
d="M139 -54c0 -50 64 -59 119 -59c60 0 123 18 123 60c0 20 -16 37 -50 40l-170 10c-12 -15 -22 -24 -22 -51zM265 269c44 0 74 21 74 71c0 51 -30 72 -74 72c-46 0 -74 -21 -74 -72s30 -71 74 -71zM89 17v2c-26 18 -40 43 -40 70c-1 38 25 81 81 109v2
c-50 25 -81 79 -81 140c0 117 87 170 216 170c26 0 54 -4 73 -10h191v-89h-73c10 -17 20 -39 20 -71c0 -118 -89 -169 -211 -169c-32 0 -53 7 -59 9c-5 -6 -8 -13 -11 -19c-7 -19 -7 -41 23 -43l165 -12c101 -8 157 -45 157 -130c0 -134 -98 -186 -305 -186
c-154 0 -220 42 -220 130c0 43 22 72 74 97zM271 646c41 0 75 21 90 61h60c-10 -85 -54 -146 -150 -146c-97 0 -140 61 -151 146h60c15 -40 50 -61 91 -61z" />
    <glyph glyph-name="gcircumflex" unicode="&#x11d;" horiz-adv-x="555" 
d="M139 -54c0 -50 64 -59 119 -59c60 0 123 18 123 60c0 20 -16 37 -50 40l-170 10c-12 -15 -22 -24 -22 -51zM265 269c44 0 74 21 74 71c0 51 -30 72 -74 72c-46 0 -74 -21 -74 -72s30 -71 74 -71zM89 17v2c-26 18 -40 43 -40 70c-1 38 25 81 81 109v2
c-50 25 -81 79 -81 140c0 117 87 170 216 170c26 0 54 -4 73 -10h191v-89h-73c10 -17 20 -39 20 -71c0 -118 -89 -169 -211 -169c-32 0 -53 7 -59 9c-5 -6 -8 -13 -11 -19c-7 -19 -7 -41 23 -43l165 -12c101 -8 157 -45 157 -130c0 -134 -98 -186 -305 -186
c-154 0 -220 42 -220 130c0 43 22 72 74 97zM278 620l-39 -60h-115l101 140h106l101 -140h-115z" />
    <glyph glyph-name="gcommaaccent" unicode="&#x123;" horiz-adv-x="555" 
d="M139 -54c0 -50 64 -59 119 -59c60 0 123 18 123 60c0 20 -16 37 -50 40l-170 10c-12 -15 -22 -24 -22 -51zM265 269c44 0 74 21 74 71c0 51 -30 72 -74 72c-46 0 -74 -21 -74 -72s30 -71 74 -71zM89 17v2c-26 18 -40 43 -40 70c-1 38 25 81 81 109v2
c-50 25 -81 79 -81 140c0 117 87 170 216 170c26 0 54 -4 73 -10h191v-89h-73c10 -17 20 -39 20 -71c0 -118 -89 -169 -211 -169c-32 0 -53 7 -59 9c-5 -6 -8 -13 -11 -19c-7 -19 -7 -41 23 -43l165 -12c101 -8 157 -45 157 -130c0 -134 -98 -186 -305 -186
c-154 0 -220 42 -220 130c0 43 22 72 74 97zM287 746h45l-27 -81h44v-95h-133v95z" />
    <glyph glyph-name="gdotaccent" unicode="&#x121;" horiz-adv-x="555" 
d="M139 -54c0 -50 64 -59 119 -59c60 0 123 18 123 60c0 20 -16 37 -50 40l-170 10c-12 -15 -22 -24 -22 -51zM265 269c44 0 74 21 74 71c0 51 -30 72 -74 72c-46 0 -74 -21 -74 -72s30 -71 74 -71zM89 17v2c-26 18 -40 43 -40 70c-1 38 25 81 81 109v2
c-50 25 -81 79 -81 140c0 117 87 170 216 170c26 0 54 -4 73 -10h191v-89h-73c10 -17 20 -39 20 -71c0 -118 -89 -169 -211 -169c-32 0 -53 7 -59 9c-5 -6 -8 -13 -11 -19c-7 -19 -7 -41 23 -43l165 -12c101 -8 157 -45 157 -130c0 -134 -98 -186 -305 -186
c-154 0 -220 42 -220 130c0 43 22 72 74 97zM203 680h133v-118h-133v118z" />
    <glyph glyph-name="hbar" unicode="&#x127;" horiz-adv-x="530" 
d="M186 546v-109h2c41 46 93 73 156 73c100 0 150 -68 150 -169v-341h-150v306c0 54 -22 80 -70 80c-33 0 -65 -16 -88 -29v-357h-150v546h-70v88h70v66h150v-66h103v-88h-103z" />
    <glyph glyph-name="hcircumflex" unicode="&#x125;" horiz-adv-x="530" 
d="M186 357v-357h-150v700h150v-263h2c41 46 93 73 156 73c100 0 150 -68 150 -169v-341h-150v306c0 54 -22 80 -70 80c-33 0 -65 -16 -88 -29zM111 810l-39 -60h-115l101 140h106l101 -140h-115z" />
    <glyph glyph-name="ibreve" unicode="&#x12d;" horiz-adv-x="222" 
d="M111 646c41 0 75 21 90 61h60c-10 -85 -54 -146 -150 -146c-97 0 -140 61 -151 146h60c15 -40 50 -61 91 -61zM36 500h150v-500h-150v500z" />
    <glyph glyph-name="imacron" unicode="&#x12b;" horiz-adv-x="222" 
d="M-56 674h333v-98h-333v98zM36 500h150v-500h-150v500z" />
    <glyph glyph-name="iogonek" unicode="&#x12f;" horiz-adv-x="222" 
d="M186 500v-500c-62 -4 -87 -64 -87 -96c0 -34 23 -53 60 -53c15 0 28 4 41 9l5 -35c-23 -18 -66 -29 -98 -29c-63 0 -108 35 -108 81c0 45 30 89 86 123l-49 8v492h150zM36 700h150v-144h-150v144z" />
    <glyph glyph-name="itilde" unicode="&#x129;" horiz-adv-x="222" 
d="M52 585c-20 0 -37 -6 -66 -38l-47 53c33 76 75 96 110 96c49 0 98 -40 132 -40c18 0 37 7 65 39l38 -63c-31 -64 -66 -83 -103 -83c-38 0 -91 36 -129 36zM36 500h150v-500h-150v500z" />
    <glyph glyph-name="ij" unicode="&#x133;" horiz-adv-x="446" 
d="M36 500h150v-500h-150v500zM36 680h150v-144h-150v144zM409 500v-556c0 -98 -31 -154 -163 -154c-29 0 -62 4 -92 9l14 115c16 -3 32 -5 43 -5c35 0 48 8 48 46v545h150zM259 680h150v-144h-150v144z" />
    <glyph glyph-name="dotlessi" unicode="&#x131;" horiz-adv-x="222" 
d="M36 500h150v-500h-150v500z" />
    <glyph glyph-name="jcircumflex" unicode="&#x135;" horiz-adv-x="262" 
d="M226 500v-556c0 -98 -31 -154 -164 -154c-28 0 -62 4 -91 9l14 115c16 -3 31 -5 42 -5c36 0 49 8 49 46v545h150zM151 620l-39 -60h-115l101 140h106l101 -140h-115z" />
    <glyph glyph-name="dotlessj" unicode="&#x237;" horiz-adv-x="262" 
d="M226 500v-556c0 -98 -31 -154 -164 -154c-28 0 -62 4 -91 9l14 115c16 -3 31 -5 42 -5c36 0 49 8 49 46v545h150z" />
    <glyph glyph-name="kcommaaccent" unicode="&#x137;" horiz-adv-x="555" 
d="M186 700v-360l161 160h182l-179 -184l189 -316h-177l-116 231l-60 -58v-173h-150v700h150zM267 -216h-45l27 81h-44v95h133v-95z" />
    <glyph glyph-name="kgreenlandic" unicode="&#x138;" horiz-adv-x="555" 
d="M186 500v-160l161 160h182l-179 -184l189 -316h-177l-116 231l-60 -58v-173h-150v500h150z" />
    <glyph glyph-name="lacute" unicode="&#x13a;" horiz-adv-x="222" 
d="M36 0v700h150v-700h-150zM267 890l-96 -140h-115l52 140h159z" />
    <glyph glyph-name="lcaron" unicode="&#x13e;" horiz-adv-x="371" 
d="M36 0v700h150v-700h-150zM290 524h-45l27 81h-44v95h133v-95z" />
    <glyph glyph-name="lcommaaccent" unicode="&#x13c;" horiz-adv-x="222" 
d="M36 0v700h150v-700h-150zM108 -216h-45l27 81h-44v95h133v-95z" />
    <glyph glyph-name="ldot" unicode="&#x140;" horiz-adv-x="380" 
d="M36 0v700h150v-700h-150zM237 427h133v-135h-133v135z" />
    <glyph glyph-name="lslash" unicode="&#x142;" horiz-adv-x="262" 
d="M282 358l-76 -19v-339h-150v300l-76 -19v88l76 20v311h150v-273l76 20v-89z" />
    <glyph glyph-name="nacute" unicode="&#x144;" horiz-adv-x="530" 
d="M186 357v-357h-150v500h150v-63h2c41 46 93 73 156 73c100 0 150 -68 150 -169v-341h-150v306c0 54 -22 80 -70 80c-33 0 -65 -16 -88 -29zM410 700l-96 -140h-115l52 140h159z" />
    <glyph glyph-name="napostrophe" unicode="&#x149;" horiz-adv-x="530" 
d="M186 357v-357h-150v500h150v-63h2c41 46 93 73 156 73c100 0 150 -68 150 -169v-341h-150v306c0 54 -22 80 -70 80c-33 0 -65 -16 -88 -29zM101 524h-45l27 81h-44v95h133v-95z" />
    <glyph glyph-name="ncaron" unicode="&#x148;" horiz-adv-x="530" 
d="M186 357v-357h-150v500h150v-63h2c41 46 93 73 156 73c100 0 150 -68 150 -169v-341h-150v306c0 54 -22 80 -70 80c-33 0 -65 -16 -88 -29zM226 700l39 -60l39 60h115l-101 -140h-106l-101 140h115z" />
    <glyph glyph-name="ncommaaccent" unicode="&#x146;" horiz-adv-x="530" 
d="M186 357v-357h-150v500h150v-63h2c41 46 93 73 156 73c100 0 150 -68 150 -169v-341h-150v306c0 54 -22 80 -70 80c-33 0 -65 -16 -88 -29zM269 736h45l-27 -81h44v-95h-133v95z" />
    <glyph glyph-name="obreve" unicode="&#x14f;" horiz-adv-x="550" 
d="M275 386c-70 0 -90 -50 -90 -136s20 -136 90 -136s90 50 90 136s-20 136 -90 136zM275 -10c-181 0 -249 101 -249 260s68 260 249 260s249 -101 249 -260s-68 -260 -249 -260zM275 646c41 0 75 21 90 61h60c-10 -85 -54 -146 -150 -146c-97 0 -140 61 -151 146h60
c15 -40 50 -61 91 -61z" />
    <glyph glyph-name="ohungarumlaut" unicode="&#x151;" horiz-adv-x="550" 
d="M275 386c-70 0 -90 -50 -90 -136s20 -136 90 -136s90 50 90 136s-20 136 -90 136zM275 -10c-181 0 -249 101 -249 260s68 260 249 260s249 -101 249 -260s-68 -260 -249 -260zM317 680l-70 -120h-80l53 120h97zM444 680l-70 -120h-80l52 120h98z" />
    <glyph glyph-name="omacron" unicode="&#x14d;" horiz-adv-x="550" 
d="M275 386c-70 0 -90 -50 -90 -136s20 -136 90 -136s90 50 90 136s-20 136 -90 136zM275 -10c-181 0 -249 101 -249 260s68 260 249 260s249 -101 249 -260s-68 -260 -249 -260zM108 674h333v-98h-333v98z" />
    <glyph glyph-name="oslashacute" unicode="&#x1ff;" horiz-adv-x="550" 
d="M427 700l-96 -140h-115l52 140h159zM275 -10c-64 0 -114 14 -152 38l-56 -66l-45 36l57 67c-37 45 -53 108 -53 185c0 159 68 260 249 260c64 0 114 -14 151 -38l57 66l44 -36l-57 -67c37 -45 54 -109 54 -185c0 -159 -68 -260 -249 -260zM275 114c70 0 90 50 90 136
c0 19 -2 38 -7 54l-144 -170c15 -13 34 -20 61 -20zM275 386c-70 0 -90 -50 -90 -136c0 -20 1 -39 6 -54l144 169c-14 13 -34 21 -60 21z" />
    <glyph glyph-name="racute" unicode="&#x155;" horiz-adv-x="370" 
d="M186 339v-339h-150v500h150v-80h2c28 45 86 90 166 90v-141c-64 0 -128 -11 -168 -30zM349 700l-96 -140h-115l52 140h159z" />
    <glyph glyph-name="rcaron" unicode="&#x159;" horiz-adv-x="370" 
d="M186 339v-339h-150v500h150v-80h2c28 45 86 90 166 90v-141c-64 0 -128 -11 -168 -30zM155 700l39 -60l39 60h115l-101 -140h-106l-101 140h115z" />
    <glyph glyph-name="rcommaaccent" unicode="&#x157;" horiz-adv-x="370" 
d="M186 339v-339h-150v500h150v-80h2c28 45 86 90 166 90v-141c-64 0 -128 -11 -168 -30zM107 -216h-45l27 81h-44v95h133v-95z" />
    <glyph glyph-name="sacute" unicode="&#x15b;" horiz-adv-x="480" 
d="M459 156c0 -115 -81 -166 -204 -166c-83 0 -174 9 -234 24l27 120c84 -20 151 -25 189 -25c50 0 72 18 72 36c0 21 -29 27 -73 35c-117 20 -205 59 -205 175c0 114 81 155 204 155c83 0 155 -9 215 -24l-27 -120c-83 20 -141 25 -179 25c-45 0 -63 -15 -63 -32
c0 -19 16 -26 68 -38c90 -20 210 -42 210 -165zM404 700l-96 -140h-115l52 140h159z" />
    <glyph glyph-name="scedilla" unicode="&#x15f;" horiz-adv-x="480" 
d="M459 156c0 -113 -77 -163 -196 -166v-41c32 -5 83 -19 83 -74c0 -49 -38 -80 -105 -80c-24 0 -57 4 -84 12l9 47c16 -4 30 -5 45 -5c28 0 44 14 44 34s-19 33 -46 38v70c-69 3 -139 11 -188 23l27 120c84 -20 151 -25 189 -25c50 0 72 18 72 36c0 21 -29 27 -73 35
c-117 20 -205 59 -205 175c0 114 81 155 204 155c83 0 155 -9 215 -24l-27 -120c-83 20 -141 25 -179 25c-45 0 -63 -15 -63 -32c0 -19 16 -26 68 -38c90 -20 210 -42 210 -165z" />
    <glyph glyph-name="scircumflex" unicode="&#x15d;" horiz-adv-x="480" 
d="M459 156c0 -115 -81 -166 -204 -166c-83 0 -174 9 -234 24l27 120c84 -20 151 -25 189 -25c50 0 72 18 72 36c0 21 -29 27 -73 35c-117 20 -205 59 -205 175c0 114 81 155 204 155c83 0 155 -9 215 -24l-27 -120c-83 20 -141 25 -179 25c-45 0 -63 -15 -63 -32
c0 -19 16 -26 68 -38c90 -20 210 -42 210 -165zM247 620l-39 -60h-115l101 140h106l101 -140h-115z" />
    <glyph glyph-name="scommaaccent" unicode="&#x219;" horiz-adv-x="480" 
d="M459 156c0 -115 -81 -166 -204 -166c-83 0 -174 9 -234 24l27 120c84 -20 151 -25 189 -25c50 0 72 18 72 36c0 21 -29 27 -73 35c-117 20 -205 59 -205 175c0 114 81 155 204 155c83 0 155 -9 215 -24l-27 -120c-83 20 -141 25 -179 25c-45 0 -63 -15 -63 -32
c0 -19 16 -26 68 -38c90 -20 210 -42 210 -165zM236 -216h-45l27 81h-44v95h133v-95z" />
    <glyph glyph-name="s_p" horiz-adv-x="1025" 
d="M459 156c0 -115 -81 -166 -204 -166c-83 0 -174 9 -234 24l27 120c84 -20 151 -25 189 -25c50 0 72 18 72 36c0 21 -29 27 -73 35c-117 20 -205 59 -205 175c0 114 81 155 204 155c83 0 155 -9 215 -24l-27 -120c-83 20 -141 25 -179 25c-45 0 -63 -15 -63 -32
c0 -19 16 -26 68 -38c90 -20 210 -42 210 -165zM681 500v-50h2c30 35 83 60 134 60c140 0 182 -119 182 -260s-50 -260 -190 -260c-48 0 -96 21 -126 56h-2v-246h-150v700h150zM840 250c0 77 -18 136 -84 136c-36 0 -61 -15 -75 -25v-222c14 -10 39 -25 75 -25
c66 0 84 58 84 136z" />
    <glyph glyph-name="s_t" unicode="&#xfb06;" horiz-adv-x="860" 
d="M459 156c0 -115 -81 -166 -204 -166c-83 0 -174 9 -234 24l27 120c84 -20 151 -25 189 -25c50 0 72 18 72 36c0 21 -29 27 -73 35c-117 20 -205 59 -205 175c0 114 81 155 204 155c83 0 155 -9 215 -24l-27 -120c-83 20 -141 25 -179 25c-45 0 -63 -15 -63 -32
c0 -19 16 -26 68 -38c90 -20 210 -42 210 -165zM561 142v252h-64v97l64 9l18 140h132v-140h118v-106h-118v-226c0 -38 20 -59 66 -59c12 0 27 2 43 5l14 -115c-29 -5 -81 -9 -109 -9c-119 0 -164 50 -164 152z" />
    <glyph glyph-name="tbar" unicode="&#x167;" horiz-adv-x="375" 
d="M76 226h-60v89h60v79h-64v97l64 9l18 140h132v-140h118v-106h-118v-79h108v-89h-108v-58c0 -38 20 -59 66 -59c12 0 27 2 43 5l14 -115c-29 -5 -81 -9 -109 -9c-119 0 -164 50 -164 152v84z" />
    <glyph glyph-name="tcaron" unicode="&#x165;" horiz-adv-x="375" 
d="M76 142v252h-64v97l64 9l18 140h132v-140h118v-106h-118v-226c0 -38 20 -59 66 -59c12 0 27 2 43 5l14 -115c-29 -5 -81 -9 -109 -9c-119 0 -164 50 -164 152zM334 524h-45l27 81h-44v95h133v-95z" />
    <glyph glyph-name="tcommaaccent" unicode="&#x163;" horiz-adv-x="375" 
d="M76 142v252h-64v97l64 9l18 140h132v-140h118v-106h-118v-226c0 -38 20 -59 66 -59c12 0 27 2 43 5l14 -115c-29 -5 -81 -9 -109 -9c-119 0 -164 50 -164 152zM198 -216h-45l27 81h-44v95h133v-95z" />
    <glyph glyph-name="uni021B" unicode="&#x21b;" horiz-adv-x="375" 
d="M76 142v252h-64v97l64 9l18 140h132v-140h118v-106h-118v-226c0 -38 20 -59 66 -59c12 0 27 2 43 5l14 -115c-29 -5 -81 -9 -109 -9c-119 0 -164 50 -164 152zM209 -218h-45l27 81h-44v95h133v-95z" />
    <glyph glyph-name="ubreve" unicode="&#x16d;" horiz-adv-x="530" 
d="M344 143v357h150v-500h-150v62h-2c-41 -45 -93 -72 -156 -72c-100 0 -150 67 -150 169v341h150v-306c0 -54 26 -80 70 -80c33 0 65 16 88 29zM265 646c41 0 75 21 90 61h60c-10 -85 -54 -146 -150 -146c-97 0 -140 61 -151 146h60c15 -40 50 -61 91 -61z" />
    <glyph glyph-name="uhungarumlaut" unicode="&#x171;" horiz-adv-x="530" 
d="M344 143v357h150v-500h-150v62h-2c-41 -45 -93 -72 -156 -72c-100 0 -150 67 -150 169v341h150v-306c0 -54 26 -80 70 -80c33 0 65 16 88 29zM311 680l-70 -120h-80l53 120h97zM438 680l-70 -120h-80l52 120h98z" />
    <glyph glyph-name="umacron" unicode="&#x16b;" horiz-adv-x="530" 
d="M344 143v357h150v-500h-150v62h-2c-41 -45 -93 -72 -156 -72c-100 0 -150 67 -150 169v341h150v-306c0 -54 26 -80 70 -80c33 0 65 16 88 29zM98 674h333v-98h-333v98z" />
    <glyph glyph-name="uogonek" unicode="&#x173;" horiz-adv-x="530" 
d="M495 -140l5 -35c-23 -18 -66 -29 -98 -29c-49 0 -108 23 -108 81c0 44 30 88 86 123h-36v62h-2c-41 -45 -93 -72 -156 -72c-100 0 -150 67 -150 169v341h150v-306c0 -54 26 -80 70 -80c33 0 65 16 88 29v357h150v-500c-74 -4 -100 -58 -100 -96c0 -34 23 -53 60 -53
c15 0 28 4 41 9z" />
    <glyph glyph-name="uring" unicode="&#x16f;" horiz-adv-x="530" 
d="M344 143v357h150v-500h-150v62h-2c-41 -45 -93 -72 -156 -72c-100 0 -150 67 -150 169v341h150v-306c0 -54 26 -80 70 -80c33 0 65 16 88 29zM183 620c0 46 37 79 83 79s81 -33 81 -79s-35 -79 -81 -79s-83 33 -83 79zM230 620c0 -22 16 -38 36 -38s35 16 35 38
s-15 38 -35 38s-36 -16 -36 -38z" />
    <glyph glyph-name="utilde" unicode="&#x169;" horiz-adv-x="530" 
d="M344 143v357h150v-500h-150v62h-2c-41 -45 -93 -72 -156 -72c-100 0 -150 67 -150 169v341h150v-306c0 -54 26 -80 70 -80c33 0 65 16 88 29zM205 585c-20 0 -37 -6 -66 -38l-47 53c33 76 75 96 110 96c49 0 98 -40 132 -40c18 0 37 7 65 39l38 -63
c-31 -64 -66 -83 -103 -83c-38 0 -91 36 -129 36z" />
    <glyph glyph-name="wacute" unicode="&#x1e83;" horiz-adv-x="790" 
d="M395 270h-2l-65 -275h-167l-144 505h168l75 -341h2l64 341h146l70 -341h2l70 341h158l-142 -505h-168zM552 698l-96 -140h-115l52 140h159z" />
    <glyph glyph-name="wcircumflex" unicode="&#x175;" horiz-adv-x="790" 
d="M395 270h-2l-65 -275h-167l-144 505h168l75 -341h2l64 341h146l70 -341h2l70 341h158l-142 -505h-168zM395 620l-39 -60h-115l101 140h106l101 -140h-115z" />
    <glyph glyph-name="wdieresis" unicode="&#x1e85;" horiz-adv-x="790" 
d="M395 270h-2l-65 -275h-167l-144 505h168l75 -341h2l64 341h146l70 -341h2l70 341h158l-142 -505h-168zM237 697h123v-135h-123v135zM429 697h124v-135h-124v135z" />
    <glyph glyph-name="wgrave" unicode="&#x1e81;" horiz-adv-x="790" 
d="M395 270h-2l-65 -275h-167l-144 505h168l75 -341h2l64 341h146l70 -341h2l70 341h158l-142 -505h-168zM334 560l-96 140h159l52 -140h-115z" />
    <glyph glyph-name="ycircumflex" unicode="&#x177;" horiz-adv-x="560" 
d="M197 -6l-180 506h168l99 -342h2l97 342h159l-170 -511c-50 -150 -116 -199 -235 -199c-28 0 -69 4 -97 9l13 124c16 -3 39 -5 49 -5c40 0 79 24 95 76zM280 620l-39 -60h-115l101 140h106l101 -140h-115z" />
    <glyph glyph-name="ygrave" unicode="&#x1ef3;" horiz-adv-x="560" 
d="M197 -6l-180 506h168l99 -342h2l97 342h159l-170 -511c-50 -150 -116 -199 -235 -199c-28 0 -69 4 -97 9l13 124c16 -3 39 -5 49 -5c40 0 79 24 95 76zM221 560l-96 140h159l52 -140h-115z" />
    <glyph glyph-name="zacute" unicode="&#x17a;" horiz-adv-x="470" 
d="M442 500v-106l-233 -277v-2h247v-115h-442v106l238 277v2h-223v115h413zM381 700l-96 -140h-115l52 140h159z" />
    <glyph glyph-name="zdotaccent" unicode="&#x17c;" horiz-adv-x="470" 
d="M442 500v-106l-233 -277v-2h247v-115h-442v106l238 277v2h-223v115h413zM168 680h133v-118h-133v118z" />
    <glyph glyph-name="asuperior" unicode="&#xf6e9;" horiz-adv-x="291" 
d="M138 623c-20 0 -42 -2 -77 -10l-12 60c37 7 76 12 107 12c66 0 101 -16 101 -84v-171h-75v25c-21 -22 -41 -30 -72 -30c-50 0 -76 36 -76 78c0 64 60 79 105 79h43v14c0 23 -15 27 -44 27zM182 495v43h-39c-20 0 -34 -8 -34 -28s16 -28 32 -28c17 0 33 7 41 13z" />
    <glyph glyph-name="bsuperior" unicode="&#xf6ea;" horiz-adv-x="301" 
d="M109 780v-125h1c15 18 41 30 67 30c70 0 90 -59 90 -130s-25 -130 -95 -130c-23 0 -49 10 -67 28h-1l-13 -25h-57v352h75zM188 555c0 39 -9 68 -42 68c-18 0 -30 -8 -37 -13v-110c7 -5 19 -13 37 -13c33 0 42 29 42 68z" />
    <glyph glyph-name="dsuperior" horiz-adv-x="301" 
d="M192 655v125h75v-352h-75v25h-1c-17 -18 -39 -28 -62 -28c-70 0 -95 59 -95 130s20 130 90 130c26 0 52 -12 67 -30h1zM113 555c0 -39 9 -68 42 -68c18 0 30 8 37 13v110c-7 5 -19 13 -37 13c-33 0 -42 -29 -42 -68z" />
    <glyph glyph-name="esuperior" unicode="&#xf6ec;" horiz-adv-x="310" 
d="M272 538h-156c1 -31 22 -51 62 -51c19 0 43 0 77 10c2 -20 6 -40 9 -59c-34 -10 -65 -13 -98 -13c-98 0 -132 51 -132 130s34 130 132 130c73 0 100 -34 107 -77c3 -21 2 -45 -1 -70zM161 627c-29 0 -43 -15 -45 -42h82c1 6 1 11 1 16c-1 16 -12 26 -38 26z" />
    <glyph glyph-name="h.superior" horiz-adv-x="296" 
d="M109 608v-178h-75v350h75v-131h1c20 23 46 36 77 36c50 0 75 -34 75 -84v-171h-75v153c0 27 -10 40 -35 40c-16 0 -32 -8 -43 -15z" />
    <glyph glyph-name="isuperior" unicode="&#xf6ed;" horiz-adv-x="142" 
d="M34 780h75v-72h-75v72zM34 680h75v-250h-75v250z" />
    <glyph glyph-name="lsuperior" unicode="&#xf6ee;" horiz-adv-x="142" 
d="M34 430v350h75v-350h-75z" />
    <glyph glyph-name="msuperior" unicode="&#xf6ef;" horiz-adv-x="446" 
d="M109 608v-178h-75v250h75v-31h1c19 22 44 36 76 36c33 0 56 -15 66 -40c26 30 54 40 85 40c50 0 75 -34 75 -84v-171h-75v153c0 27 -12 40 -35 40c-15 0 -30 -8 -42 -15c0 -9 1 -21 1 -34v-144h-75v157c-1 24 -14 36 -35 36c-16 0 -31 -8 -42 -15z" />
    <glyph glyph-name="nsuperior" unicode="&#x207f;" horiz-adv-x="296" 
d="M109 608v-178h-75v250h75v-31h1c20 23 46 36 77 36c50 0 75 -34 75 -84v-171h-75v153c0 27 -10 40 -35 40c-16 0 -32 -8 -43 -15z" />
    <glyph glyph-name="osuperior" unicode="&#xf6f0;" horiz-adv-x="316" 
d="M159 623c-36 0 -46 -25 -46 -68s10 -68 46 -68c34 0 44 25 44 68s-10 68 -44 68zM159 425c-91 0 -125 51 -125 130s34 130 125 130c89 0 123 -51 123 -130s-34 -130 -123 -130z" />
    <glyph glyph-name="rsuperior" unicode="&#xf6f1;" horiz-adv-x="226" 
d="M109 600v-170h-75v250h75v-40h1c14 23 42 45 82 45v-71c-31 0 -63 -5 -83 -14z" />
    <glyph glyph-name="ssuperior" unicode="&#xf6f2;" horiz-adv-x="286" 
d="M252 508c0 -58 -39 -83 -101 -83c-42 0 -87 5 -117 13l13 59c42 -10 75 -12 95 -12c25 0 35 8 35 18c0 11 -14 14 -36 17c-58 10 -102 29 -102 87c0 57 40 78 102 78c42 0 77 -5 107 -12l-13 -60c-42 10 -71 13 -90 13c-23 0 -31 -8 -31 -16c0 -10 8 -13 34 -19
c45 -11 104 -22 104 -83z" />
    <glyph glyph-name="tsuperior" unicode="&#xf6f3;" horiz-adv-x="236" 
d="M66 501v126h-32v48l32 5l8 70h67v-70h58v-53h-58v-112c0 -20 10 -30 33 -30c5 0 13 1 21 2l7 -57c-14 -3 -40 -5 -55 -5c-59 0 -81 25 -81 76z" />
    <glyph glyph-name="Ethsmall" horiz-adv-x="610" 
d="M214 132h73c95 0 128 50 128 163c0 112 -33 152 -128 152h-73v-108h107v-88h-107v-119zM296 0h-232v251h-70v88h70v241h232c190 0 278 -100 278 -285c0 -186 -88 -295 -278 -295z" />
    <glyph glyph-name="Thornsmall" horiz-adv-x="560" 
d="M292 84h-96v-84h-150v580h150v-84h96c147 0 242 -67 242 -206c0 -140 -95 -206 -242 -206zM196 363v-146h96c49 0 87 16 87 73c0 56 -38 73 -87 73h-96z" />
    <glyph glyph-name="Eng" unicode="&#x14a;" horiz-adv-x="650" 
d="M454 -48v48l-251 371h-2v-371h-155v680h159l242 -389h2v389h155v-738c0 -99 -32 -155 -164 -155c-29 0 -62 4 -91 10l13 115c17 -3 32 -5 43 -5c35 0 49 7 49 45z" />
    <glyph glyph-name="Eng.small" horiz-adv-x="610" 
d="M414 -45v45l-220 337h-2v-337h-146v580h159l211 -337h2v337h146v-636c0 -98 -32 -154 -164 -154c-29 0 -62 4 -91 9l13 115c17 -3 32 -5 43 -5c35 0 49 8 49 46z" />
    <glyph glyph-name="eng" unicode="&#x14b;" horiz-adv-x="530" 
d="M344 -45v351c0 54 -22 80 -70 80c-33 0 -65 -16 -88 -29v-357h-150v500h150v-63h2c41 46 93 73 156 73c100 0 150 -68 150 -169v-397c0 -98 -32 -154 -164 -154c-29 0 -62 4 -91 9l13 115c17 -3 32 -5 43 -5c35 0 49 8 49 46z" />
    <glyph glyph-name="longs" unicode="&#x17f;" horiz-adv-x="345" 
d="M76 -45v593c0 102 45 152 164 152c28 0 62 -4 91 -9l-13 -115c-17 3 -32 5 -43 5c-38 0 -49 -21 -49 -59v-578c0 -98 -30 -154 -164 -154c-28 0 -62 4 -91 9l14 115c16 -3 31 -5 42 -5c38 0 49 10 49 46z" />
    <glyph glyph-name="longs_h" horiz-adv-x="865" 
d="M521 687v-250h2c41 46 93 73 156 73c100 0 150 -68 150 -169v-341h-150v306c0 54 -22 80 -70 80c-33 0 -65 -16 -88 -29v-357h-150v573c-23 6 -42 8 -57 8c-86 0 -88 -38 -88 -68v-569c0 -98 -30 -154 -164 -154c-28 0 -62 4 -91 9l14 115c16 -3 31 -5 42 -5
c38 0 49 10 49 46v558c0 102 45 187 220 187c44 0 85 -4 119 -13h106z" />
    <glyph glyph-name="longs_l" horiz-adv-x="557" 
d="M76 -45v558c0 102 45 187 220 187c44 0 85 -4 119 -13h106v-687h-150v573c-23 6 -42 8 -57 8c-86 0 -88 -38 -88 -68v-569c0 -98 -30 -154 -164 -154c-28 0 -62 4 -91 9l14 115c16 -3 31 -5 42 -5c38 0 49 10 49 46z" />
    <glyph glyph-name="longs_t" unicode="&#xfb05;" horiz-adv-x="637" 
d="M76 -45v593c0 102 45 152 164 152c28 0 62 -4 91 -9l-13 -115c-17 3 -32 5 -43 5c-38 0 -49 -21 -49 -59v-578c0 -98 -30 -154 -164 -154c-28 0 -62 4 -91 9l14 115c16 -3 31 -5 42 -5c38 0 49 10 49 46zM339 142v252h-64v97l64 9l17 140h133v-140h117v-106h-117v-226
c0 -38 20 -59 66 -59c11 0 26 2 43 5l13 -115c-29 -5 -80 -9 -109 -9c-119 0 -163 50 -163 152z" />
    <glyph glyph-name="longs_i" horiz-adv-x="525" 
d="M76 -45v593c0 102 45 152 164 152c28 0 62 -4 91 -9l-13 -115c-17 3 -32 5 -43 5c-38 0 -49 -21 -49 -59v-578c0 -98 -30 -154 -164 -154c-28 0 -62 4 -91 9l14 115c16 -3 31 -5 42 -5c38 0 49 10 49 46zM339 500h150v-500h-150v500z" />
    <glyph glyph-name="longs_longs" horiz-adv-x="630" 
d="M76 -45v593c0 102 45 152 164 152c28 0 62 -4 91 -9l-13 -115c-17 3 -32 5 -43 5c-38 0 -49 -21 -49 -59v-578c0 -98 -30 -154 -164 -154c-28 0 -62 4 -91 9l14 115c16 -3 31 -5 42 -5c38 0 49 10 49 46zM361 -45v593c0 102 45 152 164 152c28 0 62 -4 91 -9l-13 -115
c-17 3 -32 5 -43 5c-38 0 -49 -21 -49 -59v-578c0 -98 -30 -154 -164 -154c-28 0 -62 4 -91 9l14 115c16 -3 31 -5 42 -5c38 0 49 10 49 46z" />
    <glyph glyph-name="zero.slash" horiz-adv-x="590" 
d="M295 -10c-192 0 -259 134 -259 355c0 220 67 345 259 345s259 -125 259 -345c0 -221 -67 -355 -259 -355zM295 114c78 0 100 101 100 231c0 27 -2 52 -6 75l-178 -226c15 -50 40 -80 84 -80zM295 566c-78 0 -100 -91 -100 -221c0 -25 1 -50 5 -72l176 224
c-15 43 -40 69 -81 69z" />
    <glyph glyph-name="franc" unicode="&#x20a3;" horiz-adv-x="700" 
d="M295 454h165l-9 -88h-178c-1 -7 -1 -14 -1 -21c0 -11 1 -21 2 -31h186l-9 -88h-154c26 -58 73 -95 143 -95c39 0 103 13 172 63l53 -119c-43 -34 -126 -85 -251 -85c-161 0 -259 99 -295 236h-84v88h70v52h-70v88h83c32 138 131 236 296 236c125 0 208 -51 251 -85
l-53 -119c-69 50 -133 63 -172 63c-73 0 -121 -36 -145 -95z" />
    <glyph glyph-name="lira" unicode="&#x20a4;" horiz-adv-x="700" 
d="M295 454h165l-9 -88h-178c-1 -7 -1 -14 -1 -21c0 -11 1 -21 2 -31h186l-9 -88h-154c26 -58 73 -95 143 -95c39 0 103 13 172 63l53 -119c-43 -34 -126 -85 -251 -85c-161 0 -259 99 -295 236h-84v88h70v52h-70v88h83c32 138 131 236 296 236c125 0 208 -51 251 -85
l-53 -119c-69 50 -133 63 -172 63c-73 0 -121 -36 -145 -95z" />
    <glyph glyph-name="peseta" unicode="&#x20a7;" horiz-adv-x="700" 
d="M295 454h165l-9 -88h-178c-1 -7 -1 -14 -1 -21c0 -11 1 -21 2 -31h186l-9 -88h-154c26 -58 73 -95 143 -95c39 0 103 13 172 63l53 -119c-43 -34 -126 -85 -251 -85c-161 0 -259 99 -295 236h-84v88h70v52h-70v88h83c32 138 131 236 296 236c125 0 208 -51 251 -85
l-53 -119c-69 50 -133 63 -172 63c-73 0 -121 -36 -145 -95z" />
    <glyph glyph-name="colonmonetary" unicode="&#x20a1;" horiz-adv-x="630" 
d="M441 -100h-62v90h-34c-20 0 -37 1 -54 3v-93h-62v105c-154 48 -193 186 -193 340c0 152 39 283 193 330v105h62v-93c17 2 34 3 54 3h34v90h62v-96c44 -4 109 -18 154 -33l-35 -132c-74 17 -142 30 -198 30c-110 0 -158 -65 -158 -204c0 -143 45 -214 158 -214
c57 0 125 13 198 30l35 -132c-50 -14 -91 -26 -154 -33v-96z" />
    <glyph glyph-name="rupiah" unicode="&#xf6dd;" horiz-adv-x="1142" 
d="M205 539v-167h117c49 0 89 18 89 84c0 64 -39 83 -87 83h-119zM648 0h-235l-133 231h-75v-231h-159v680h295c146 0 233 -86 233 -224c0 -91 -39 -168 -128 -199l90 -151h112v394h150v-50h2c30 35 83 60 134 60c140 0 182 -119 182 -260s-50 -260 -190 -260
c-48 0 -96 21 -126 56h-2v-246h-150v200zM957 250c0 77 -18 136 -84 136c-36 0 -62 -15 -75 -25v-222c13 -10 39 -25 75 -25c66 0 84 58 84 136z" />
    <glyph glyph-name="zero.fitted" 
d="M300 566c-78 0 -100 -91 -100 -221s22 -231 100 -231s100 101 100 231s-22 221 -100 221zM300 -10c-209 0 -259 161 -259 355s50 345 259 345s259 -151 259 -345s-50 -355 -259 -355z" />
    <glyph glyph-name="one.fitted" 
d="M39 124h187v385l-130 -53l-37 124c78 27 159 64 207 105h110v-561h185v-124h-522v124z" />
    <glyph glyph-name="two.fitted" 
d="M260 553c-42 0 -84 -6 -155 -32l-44 119c86 34 146 50 234 50c157 0 234 -91 234 -208c0 -140 -101 -239 -256 -348v-2h266v-132h-478v142c253 157 309 237 309 309c0 91 -69 102 -110 102z" />
    <glyph glyph-name="three.fitted" 
d="M415 357v-2c94 -25 134 -94 134 -168c0 -127 -96 -197 -255 -197c-87 0 -158 10 -243 49l45 115c67 -30 128 -40 190 -40c81 0 108 45 108 82c0 59 -42 82 -119 82h-93v124h86c94 0 111 50 111 91c0 37 -29 73 -93 73c-61 0 -108 -11 -177 -40l-44 115
c86 38 169 49 247 49c116 0 217 -60 217 -180c0 -73 -40 -124 -114 -153z" />
    <glyph glyph-name="four.fitted" 
d="M184 272h151v214h-2c-51 -92 -89 -140 -149 -214zM299 680h186v-408h84v-123h-84v-149h-150v149h-304v123c110 120 198 248 268 408z" />
    <glyph glyph-name="five.fitted" 
d="M285 -10c-80 0 -148 11 -234 50l44 115c71 -31 121 -41 181 -41c81 0 114 48 114 105c0 46 -21 103 -98 103c-34 0 -69 -12 -96 -39l-106 9l11 388h408v-133h-278l-7 -135l2 -1c31 23 78 39 121 39c119 0 202 -76 202 -223c0 -157 -99 -237 -264 -237z" />
    <glyph glyph-name="six.fitted" 
d="M201 394l2 -1c33 37 83 62 136 62c129 0 210 -85 210 -235c0 -144 -99 -230 -241 -230c-182 0 -257 149 -257 310c0 307 141 390 303 390c65 0 118 -10 174 -29l-18 -115c-62 15 -104 20 -143 20c-77 0 -167 -49 -166 -172zM214 284c-9 -82 4 -170 87 -170
c49 0 89 36 89 106c0 47 -18 105 -91 105c-35 0 -62 -18 -85 -41z" />
    <glyph glyph-name="seven.fitted" 
d="M360 545v2h-284v133h448v-106c-92 -163 -181 -327 -220 -574h-168c30 173 119 387 224 545z" />
    <glyph glyph-name="eight.fitted" 
d="M430 359v-2c85 -43 129 -95 129 -170c0 -140 -126 -197 -263 -197c-131 0 -255 50 -255 181c0 77 45 131 127 165v2c-67 36 -107 88 -107 166c0 127 121 186 243 186c115 0 235 -59 235 -178c0 -73 -39 -116 -109 -153zM196 187c0 -42 30 -86 109 -86c73 0 99 34 99 73
c0 64 -75 85 -127 106c-43 -17 -81 -48 -81 -93zM296 579c-49 0 -85 -31 -85 -71c0 -52 56 -83 107 -96c38 14 71 45 71 87c0 47 -37 80 -93 80z" />
    <glyph glyph-name="nine.fitted" 
d="M399 286l-2 1c-33 -37 -83 -62 -136 -62c-130 0 -210 85 -210 235c0 144 99 230 241 230c182 0 257 -149 257 -310c0 -308 -141 -390 -303 -390c-65 0 -118 10 -174 29l18 115c62 -15 104 -20 143 -20c77 0 167 49 166 172zM386 396c9 81 -4 170 -87 170
c-49 0 -89 -36 -89 -106c0 -47 17 -105 91 -105c35 0 62 18 85 41z" />
    <glyph glyph-name="zerooldstyle" unicode="&#xf730;" horiz-adv-x="590" 
d="M295 386c-60 0 -100 -50 -100 -136s40 -136 100 -136s100 50 100 136s-40 136 -100 136zM295 -10c-162 0 -259 101 -259 260s97 260 259 260s259 -101 259 -260s-97 -260 -259 -260z" />
    <glyph glyph-name="oneoldstyle" horiz-adv-x="385" 
d="M181 329l-130 -53l-37 124c78 27 159 64 207 105h110v-505h-150v329z" />
    <glyph glyph-name="twooldstyle" unicode="&#xf732;" horiz-adv-x="590" 
d="M281 373c-42 0 -124 -12 -189 -32l-36 128c86 30 172 41 251 41c137 0 217 -61 217 -161c0 -143 -154 -188 -256 -223v-2l266 8v-132h-478v142c196 74 309 108 309 172c0 47 -43 59 -84 59z" />
    <glyph glyph-name="threeoldstyle" horiz-adv-x="570" 
d="M400 177v-2c94 -25 134 -94 134 -168c0 -127 -96 -197 -255 -197c-87 0 -158 10 -243 49l45 115c67 -30 128 -40 190 -40c81 0 108 45 108 82c0 59 -42 82 -119 82h-93v124h86c94 0 111 50 111 91c0 37 -29 73 -93 73c-61 0 -108 -11 -177 -40l-44 115
c86 38 169 49 247 49c116 0 217 -60 217 -180c0 -73 -40 -124 -114 -153z" />
    <glyph glyph-name="fouroldstyle" 
d="M294 505h186v-381h84v-124h-84v-170h-150v170h-304v124c110 120 198 221 268 381zM179 124h151v217h-2c-51 -91 -89 -144 -149 -217z" />
    <glyph glyph-name="fiveoldstyle" horiz-adv-x="570" 
d="M270 -190c-80 0 -148 11 -234 50l44 115c71 -31 121 -41 181 -41c81 0 114 48 114 105c0 46 -21 103 -98 103c-34 0 -69 -12 -96 -39l-106 9l11 388h408v-133h-278l-7 -135l2 -1c31 23 78 39 121 39c119 0 202 -76 202 -223c0 -157 -99 -237 -264 -237z" />
    <glyph glyph-name="sixoldstyle" horiz-adv-x="570" 
d="M186 394l2 -1c33 37 83 62 136 62c129 0 210 -85 210 -235c0 -144 -99 -230 -241 -230c-182 0 -257 149 -257 310c0 307 141 390 303 390c65 0 118 -10 174 -29l-18 -115c-62 15 -104 20 -143 20c-77 0 -167 -49 -166 -172zM199 284c-9 -82 4 -170 87 -170
c49 0 89 36 89 106c0 47 -18 105 -91 105c-35 0 -62 -18 -85 -41z" />
    <glyph glyph-name="sevenoldstyle" horiz-adv-x="500" 
d="M310 365v2h-284v133h448v-106c-92 -163 -181 -327 -220 -574h-168c30 173 119 387 224 545z" />
    <glyph glyph-name="eightoldstyle" horiz-adv-x="590" 
d="M425 359v-2c85 -43 129 -95 129 -170c0 -140 -126 -197 -263 -197c-131 0 -255 50 -255 181c0 77 45 131 127 165v2c-67 36 -107 88 -107 166c0 127 121 186 243 186c115 0 235 -59 235 -178c0 -73 -39 -116 -109 -153zM191 187c0 -42 30 -86 109 -86c73 0 99 34 99 73
c0 64 -75 85 -127 106c-43 -17 -81 -48 -81 -93zM291 579c-49 0 -85 -31 -85 -71c0 -52 56 -83 107 -96c38 14 71 45 71 87c0 47 -37 80 -93 80z" />
    <glyph glyph-name="nineoldstyle" horiz-adv-x="570" 
d="M384 106l-2 1c-33 -37 -83 -62 -136 -62c-130 0 -210 85 -210 235c0 144 99 230 241 230c182 0 257 -149 257 -310c0 -308 -141 -390 -303 -390c-65 0 -118 10 -174 29l18 115c62 -15 104 -20 143 -20c77 0 167 49 166 172zM371 216c9 81 -4 170 -87 170
c-49 0 -89 -36 -89 -106c0 -47 17 -105 91 -105c35 0 62 18 85 41z" />
    <glyph glyph-name="centoldstyle" unicode="&#xf7a2;" horiz-adv-x="514" 
d="M313 386c-66 0 -118 -41 -118 -136s52 -136 118 -136c41 0 83 6 147 30l17 -115c-67 -29 -111 -39 -177 -39c-162 0 -264 101 -264 260s102 260 264 260c66 0 110 -11 177 -39l-17 -115c-64 24 -106 30 -147 30zM335 -130h-80v100h80v-100zM335 530h-80v100h80v-100z" />
    <glyph glyph-name="dollaroldstyle" unicode="&#xf724;" horiz-adv-x="510" 
d="M251 180c-117 20 -205 59 -205 175c0 114 100 155 204 155c83 0 164 -18 215 -43l-27 -111c-75 25 -129 35 -179 35c-44 0 -63 -15 -63 -32c0 -19 16 -26 68 -38c90 -20 210 -43 210 -167c0 -113 -100 -164 -204 -164c-83 0 -183 18 -234 43l27 111
c70 -25 139 -35 189 -35c49 0 72 17 72 35c0 21 -29 28 -73 36zM295 -130h-80v100h80v-100zM295 530h-80v100h80v-100z" />
    <glyph glyph-name="zero.taboldstyle" 
d="M300 386c-60 0 -100 -50 -100 -136s40 -136 100 -136s100 50 100 136s-40 136 -100 136zM300 -10c-162 0 -259 101 -259 260s97 260 259 260s259 -101 259 -260s-97 -260 -259 -260z" />
    <glyph glyph-name="one.taboldstyle" 
d="M39 124h187v205l-130 -53l-37 124c78 27 159 64 207 105h110v-381h185v-124h-522v124z" />
    <glyph glyph-name="two.taboldstyle" 
d="M286 373c-42 0 -124 -12 -189 -32l-36 128c86 30 172 41 251 41c137 0 217 -61 217 -161c0 -143 -154 -188 -256 -223v-2l266 8v-132h-478v142c196 74 309 108 309 172c0 47 -43 59 -84 59z" />
    <glyph glyph-name="three.taboldstyle" 
d="M415 177v-2c94 -25 134 -94 134 -168c0 -127 -96 -197 -255 -197c-87 0 -158 10 -243 49l45 115c67 -30 128 -40 190 -40c81 0 108 45 108 82c0 59 -42 82 -119 82h-93v124h86c94 0 111 50 111 91c0 37 -29 73 -93 73c-61 0 -108 -11 -177 -40l-44 115
c86 38 169 49 247 49c116 0 217 -60 217 -180c0 -73 -40 -124 -114 -153z" />
    <glyph glyph-name="four.taboldstyle" 
d="M299 505h186v-381h84v-124h-84v-170h-150v170h-304v124c110 120 198 221 268 381zM184 124h151v217h-2c-51 -91 -89 -144 -149 -217z" />
    <glyph glyph-name="five.taboldstyle" 
d="M285 -190c-80 0 -148 11 -234 50l44 115c71 -31 121 -41 181 -41c81 0 114 48 114 105c0 46 -21 103 -98 103c-34 0 -69 -12 -96 -39l-106 9l11 388h408v-133h-278l-7 -135l2 -1c31 23 78 39 121 39c119 0 202 -76 202 -223c0 -157 -99 -237 -264 -237z" />
    <glyph glyph-name="six.taboldstyle" 
d="M201 394l2 -1c33 37 83 62 136 62c129 0 210 -85 210 -235c0 -144 -99 -230 -241 -230c-182 0 -257 149 -257 310c0 307 141 390 303 390c65 0 118 -10 174 -29l-18 -115c-62 15 -104 20 -143 20c-77 0 -167 -49 -166 -172zM214 284c-9 -82 4 -170 87 -170
c49 0 89 36 89 106c0 47 -18 105 -91 105c-35 0 -62 -18 -85 -41z" />
    <glyph glyph-name="seven.taboldstyle" 
d="M360 365v2h-284v133h448v-106c-92 -163 -181 -327 -220 -574h-168c30 173 119 387 224 545z" />
    <glyph glyph-name="eight.taboldstyle" 
d="M430 359v-2c85 -43 129 -95 129 -170c0 -140 -126 -197 -263 -197c-131 0 -255 50 -255 181c0 77 45 131 127 165v2c-67 36 -107 88 -107 166c0 127 121 186 243 186c115 0 235 -59 235 -178c0 -73 -39 -116 -109 -153zM196 187c0 -42 30 -86 109 -86c73 0 99 34 99 73
c0 64 -75 85 -127 106c-43 -17 -81 -48 -81 -93zM296 579c-49 0 -85 -31 -85 -71c0 -52 56 -83 107 -96c38 14 71 45 71 87c0 47 -37 80 -93 80z" />
    <glyph glyph-name="nine.taboldstyle" 
d="M399 106l-2 1c-33 -37 -83 -62 -136 -62c-130 0 -210 85 -210 235c0 144 99 230 241 230c182 0 257 -149 257 -310c0 -308 -141 -390 -303 -390c-65 0 -118 10 -174 29l18 115c62 -15 104 -20 143 -20c77 0 167 49 166 172zM386 216c9 81 -4 170 -87 170
c-49 0 -89 -36 -89 -106c0 -47 17 -105 91 -105c35 0 62 18 85 41z" />
    <glyph glyph-name="currency.taboldstyle" horiz-adv-x="513" 
d="M100 249c0 45 18 85 48 114l-78 90l8 8l79 -90c27 22 62 36 100 36c37 0 72 -14 99 -36l78 90l9 -8l-78 -89c31 -29 50 -70 50 -115s-19 -86 -49 -114l76 -86l-9 -9l-77 87c-27 -22 -62 -35 -99 -35c-38 0 -73 13 -100 35l-76 -87l-9 9l76 86c-30 29 -48 69 -48 114z
M112 249c0 -79 66 -145 145 -145s146 66 146 145s-67 146 -146 146s-145 -67 -145 -146z" />
    <glyph glyph-name="cent.taboldstyle" 
d="M356 386c-65 0 -118 -41 -118 -136s53 -136 118 -136c41 0 83 6 147 30l18 -115c-68 -29 -112 -39 -178 -39c-162 0 -264 101 -264 260s102 260 264 260c66 0 110 -11 178 -39l-18 -115c-64 24 -106 30 -147 30zM378 -130h-80v100h80v-100zM378 530h-80v100h80v-100z" />
    <glyph glyph-name="dollar.taboldstyle" 
d="M296 180c-117 20 -205 59 -205 175c0 114 100 155 204 155c83 0 164 -18 215 -43l-27 -111c-75 25 -129 35 -179 35c-44 0 -63 -15 -63 -32c0 -19 16 -26 68 -38c90 -20 210 -43 210 -167c0 -113 -100 -164 -204 -164c-83 0 -183 18 -234 43l27 111
c70 -25 139 -35 189 -35c49 0 72 17 72 35c0 21 -29 28 -73 36zM340 -130h-80v100h80v-100zM340 530h-80v100h80v-100z" />
    <glyph glyph-name="Euro.taboldstyle" 
d="M54 317h57c25 119 119 193 257 193c66 0 110 -11 178 -39l-18 -115c-64 24 -106 30 -147 30c-47 0 -87 -23 -105 -69h96v-45h-108c-1 -7 -1 -14 -1 -22s0 -16 1 -23h108v-45h-96c18 -46 58 -68 105 -68c41 0 83 6 147 30l18 -115c-68 -29 -112 -39 -178 -39
c-138 0 -232 73 -257 192h-57v45h51c-1 8 -1 13 -1 25c0 7 0 15 1 20h-51v45z" />
    <glyph glyph-name="franc.taboldstyle" 
d="M54 317h57c25 119 119 193 257 193c66 0 110 -11 178 -39l-18 -115c-64 24 -106 30 -147 30c-47 0 -87 -23 -105 -69h96v-45h-108c-1 -7 -1 -14 -1 -22s0 -16 1 -23h108v-45h-96c18 -46 58 -68 105 -68c41 0 83 6 147 30l18 -115c-68 -29 -112 -39 -178 -39
c-138 0 -232 73 -257 192h-57v45h51c-1 8 -1 13 -1 25c0 7 0 15 1 20h-51v45z" />
    <glyph glyph-name="sterling.taboldstyle" 
d="M359 206h-118v-74h298v-132h-498v132h50v74h-50v89h50v36c0 131 108 179 241 179c99 0 172 -29 227 -63l-45 -111c-69 33 -134 50 -190 50c-69 0 -83 -35 -83 -60v-31h118v-89z" />
    <glyph glyph-name="yen.taboldstyle" 
d="M396 220h88v-71h-109v-149h-150v149h-109v71h87l-157 280h181l76 -178h2l77 178h172z" />
    <glyph glyph-name="lira.taboldstyle" 
d="M54 317h57c25 119 119 193 257 193c66 0 110 -11 178 -39l-18 -115c-64 24 -106 30 -147 30c-47 0 -87 -23 -105 -69h96v-45h-108c-1 -7 -1 -14 -1 -22s0 -16 1 -23h108v-45h-96c18 -46 58 -68 105 -68c41 0 83 6 147 30l18 -115c-68 -29 -112 -39 -178 -39
c-138 0 -232 73 -257 192h-57v45h51c-1 8 -1 13 -1 25c0 7 0 15 1 20h-51v45z" />
    <glyph glyph-name="peseta.taboldstyle" 
d="M54 317h57c25 119 119 193 257 193c66 0 110 -11 178 -39l-18 -115c-64 24 -106 30 -147 30c-47 0 -87 -23 -105 -69h96v-45h-108c-1 -7 -1 -14 -1 -22s0 -16 1 -23h108v-45h-96c18 -46 58 -68 105 -68c41 0 83 6 147 30l18 -115c-68 -29 -112 -39 -178 -39
c-138 0 -232 73 -257 192h-57v45h51c-1 8 -1 13 -1 25c0 7 0 15 1 20h-51v45z" />
    <glyph glyph-name="colonmonetary.taboldstyle" 
d="M356 386c-65 0 -118 -41 -118 -136s53 -136 118 -136c41 0 83 6 147 30l18 -115c-68 -29 -112 -39 -178 -39c-162 0 -264 101 -264 260s102 260 264 260c66 0 110 -11 178 -39l-18 -115c-64 24 -106 30 -147 30zM311 -130h-80v100h80v-100zM311 530h-80v100h80v-100z
M428 -130h-80v100h80v-100zM428 530h-80v100h80v-100z" />
    <glyph glyph-name="florin.taboldstyle" 
d="M225 -32v426h-64v97l64 9v48c0 102 44 152 164 152c28 0 62 -4 91 -9l-13 -115c-17 3 -32 5 -43 5c-38 0 -49 -21 -49 -59v-22h100v-106h-100v-427c0 -103 -31 -177 -164 -177c-28 0 -62 4 -91 9l13 115c17 -3 32 -5 43 -5c38 0 49 21 49 59z" />
    <glyph glyph-name="numbersign.taboldstyle" 
d="M172 500h106l-10 -96h95l10 96h107l-11 -96h100l-10 -98h-100l-12 -112h100l-10 -98h-100l-10 -96h-107l11 96h-95l-11 -96h-106l11 96h-100l10 98h100l12 112h-100l10 98h100zM258 306l-12 -112h95l12 112h-95z" />
    <glyph glyph-name="zerosuperior" unicode="&#x2070;" horiz-adv-x="327" 
d="M164 808c-39 0 -50 -46 -50 -110c0 -65 11 -116 50 -116c38 0 49 51 49 116c0 64 -11 110 -49 110zM164 520c-97 0 -130 80 -130 178c0 96 33 172 130 172c95 0 129 -76 129 -172c0 -98 -34 -178 -129 -178z" />
    <glyph glyph-name="foursuperior" unicode="&#x2074;" horiz-adv-x="337" 
d="M111 666h75v106c-28 -45 -45 -69 -75 -106zM168 870h93v-204h42v-62h-42v-74h-75v74h-152v62c55 60 98 124 134 204z" />
    <glyph glyph-name="fivesuperior" unicode="&#x2075;" horiz-adv-x="317" 
d="M154 520c-44 0 -82 13 -120 34l22 58c33 -16 59 -30 95 -30c27 0 52 18 52 52c0 23 -11 52 -48 52c-18 0 -35 -6 -48 -20l-54 5l6 194h204v-67h-139l-3 -66l1 -1c16 12 39 20 60 20c60 0 101 -39 101 -112c0 -72 -51 -119 -129 -119z" />
    <glyph glyph-name="sixsuperior" unicode="&#x2076;" horiz-adv-x="317" 
d="M109 722h1c16 18 41 30 68 30c64 0 105 -42 105 -117c0 -72 -50 -115 -121 -115c-91 0 -128 74 -128 155c0 154 70 195 151 195c33 0 54 -5 87 -19l-9 -58c-31 12 -52 15 -71 15c-38 0 -83 -25 -83 -86zM115 667c-4 -41 2 -85 43 -85c25 0 45 18 45 53c0 23 -9 52 -45 52
c-18 0 -31 -9 -43 -20z" />
    <glyph glyph-name="sevensuperior" unicode="&#x2077;" horiz-adv-x="312" 
d="M196 802v1h-162v67h244v-54c-46 -82 -94 -162 -114 -286h-80c15 86 59 193 112 272z" />
    <glyph glyph-name="eightsuperior" unicode="&#x2078;" horiz-adv-x="327" 
d="M229 705c40 -24 64 -49 64 -87c0 -69 -63 -98 -132 -98c-65 0 -127 25 -127 91c0 38 22 65 63 82c-34 19 -53 45 -53 84c0 64 60 93 121 93c58 0 118 -29 118 -89c0 -36 -20 -58 -54 -76zM112 618c0 -27 23 -42 54 -42c35 0 49 15 50 36c0 26 -25 39 -64 53
c-28 -11 -40 -30 -40 -47zM163 815c-22 0 -44 -13 -44 -36c0 -21 17 -38 54 -47c22 9 34 26 34 43c0 24 -19 40 -44 40z" />
    <glyph glyph-name="ninesuperior" unicode="&#x2079;" horiz-adv-x="317" 
d="M207 668h-1c-16 -18 -41 -30 -68 -30c-64 0 -104 42 -104 117c0 72 49 115 121 115c91 0 128 -74 128 -155c0 -154 -71 -195 -151 -195c-33 0 -54 5 -87 19l9 58c30 -12 52 -15 71 -15c38 0 83 25 82 86zM201 723c5 41 -2 85 -43 85c-24 0 -44 -18 -44 -53
c0 -23 9 -52 45 -52c18 0 31 9 42 20z" />
    <glyph glyph-name="parenleftsuperior" unicode="&#x207d;" horiz-adv-x="206" 
d="M34 690c0 85 29 170 89 240h49c-45 -81 -63 -158 -63 -240c0 -80 18 -155 63 -240h-49c-60 70 -89 158 -89 240z" />
    <glyph glyph-name="parenrightsuperior" unicode="&#x207e;" horiz-adv-x="206" 
d="M172 690c0 -82 -30 -170 -89 -240h-49c46 85 62 160 62 240c0 82 -16 159 -62 240h49c59 -70 89 -155 89 -240z" />
    <glyph glyph-name="hyphensuperior" horiz-adv-x="282" 
d="M34 741h214v-62h-214v62z" />
    <glyph glyph-name="commasuperior" horiz-adv-x="165" 
d="M96 465h-62c19 39 22 98 22 141h76c0 -43 -3 -102 -36 -141z" />
    <glyph glyph-name="periodsuperior" horiz-adv-x="143" 
d="M34 606h75v-76h-75v76z" />
    <glyph glyph-name="centsuperior" horiz-adv-x="348" 
d="M202 799c-54 0 -84 -37 -84 -101c0 -65 30 -107 84 -107c19 0 51 7 85 32l27 -60c-21 -18 -63 -43 -125 -43c-103 0 -155 80 -155 178c0 96 52 172 155 172c62 0 104 -26 125 -42l-27 -61c-34 25 -66 32 -85 32zM207 440h-40v60h40v-60zM207 890h-40v60h40v-60z" />
    <glyph glyph-name="dollarsuperior" horiz-adv-x="337" 
d="M192 440h-41v60h41v-60zM192 890h-41v60h41v-60zM143 664c-61 17 -99 51 -99 108c0 71 58 98 127 98c49 0 93 -14 122 -34l-31 -62c-35 18 -65 25 -91 25c-29 0 -43 -9 -43 -27c0 -24 42 -33 73 -41c60 -15 102 -44 102 -103c0 -75 -63 -108 -137 -108
c-49 0 -103 17 -132 43l35 58c26 -16 70 -30 102 -30c29 0 47 11 47 32c0 28 -47 33 -75 41z" />
    <glyph glyph-name="zeroinferior" unicode="&#x2080;" horiz-adv-x="327" 
d="M164 78c-39 0 -50 -46 -50 -110c0 -65 11 -116 50 -116c38 0 49 51 49 116c0 64 -11 110 -49 110zM164 -210c-97 0 -130 80 -130 178c0 96 33 172 130 172c95 0 129 -76 129 -172c0 -98 -34 -178 -129 -178z" />
    <glyph glyph-name="oneinferior" unicode="&#x2081;" horiz-adv-x="297" 
d="M25 -138h92v197l-64 -26l-19 58c39 13 79 31 104 52h55v-281h92v-62h-260v62z" />
    <glyph glyph-name="twoinferior" unicode="&#x2082;" horiz-adv-x="307" 
d="M133 76c-21 0 -44 -7 -77 -23l-22 58c38 22 77 34 121 34c74 0 113 -45 113 -104c0 -70 -51 -119 -128 -173v-1h133v-67h-239v71c126 79 154 119 154 155c0 45 -34 50 -55 50z" />
    <glyph glyph-name="threeinferior" unicode="&#x2083;" horiz-adv-x="317" 
d="M216 -26c47 -14 67 -49 67 -85c0 -64 -48 -99 -128 -99c-43 0 -84 10 -121 33l22 58c32 -15 61 -29 98 -29s51 22 51 40c0 31 -19 42 -59 42h-46v62h42c47 0 55 25 55 45s-14 37 -39 37c-37 0 -63 -15 -95 -29l-22 57c38 22 80 34 123 34c59 0 109 -30 109 -90
c0 -36 -20 -62 -57 -76z" />
    <glyph glyph-name="fourinferior" unicode="&#x2084;" horiz-adv-x="337" 
d="M111 -64h75v106c-28 -45 -45 -69 -75 -106zM168 140h93v-204h42v-62h-42v-74h-75v74h-152v62c55 60 98 124 134 204z" />
    <glyph glyph-name="fiveinferior" unicode="&#x2085;" horiz-adv-x="317" 
d="M154 -210c-44 0 -82 13 -120 34l22 58c33 -16 59 -30 95 -30c27 0 52 18 52 52c0 23 -11 52 -48 52c-18 0 -35 -6 -48 -20l-54 5l6 194h204v-67h-139l-3 -66l1 -1c16 12 39 20 60 20c60 0 101 -39 101 -112c0 -72 -51 -119 -129 -119z" />
    <glyph glyph-name="sixinferior" unicode="&#x2086;" horiz-adv-x="317" 
d="M109 -8h1c16 18 41 30 68 30c64 0 105 -42 105 -117c0 -72 -50 -115 -121 -115c-91 0 -128 74 -128 155c0 154 70 195 151 195c33 0 54 -5 87 -19l-9 -58c-31 12 -52 15 -71 15c-38 0 -83 -25 -83 -86zM115 -63c-4 -41 2 -85 43 -85c25 0 45 18 45 53c0 23 -9 52 -45 52
c-18 0 -31 -9 -43 -20z" />
    <glyph glyph-name="seveninferior" unicode="&#x2087;" horiz-adv-x="312" 
d="M196 72v1h-162v67h244v-54c-46 -82 -94 -162 -114 -286h-80c15 86 59 193 112 272z" />
    <glyph glyph-name="eightinferior" unicode="&#x2088;" horiz-adv-x="327" 
d="M229 -25c40 -24 64 -49 64 -87c0 -69 -63 -98 -132 -98c-65 0 -127 25 -127 91c0 38 22 65 63 82c-34 19 -53 45 -53 84c0 64 60 93 121 93c58 0 118 -29 118 -89c0 -36 -20 -58 -54 -76zM112 -112c0 -27 23 -42 54 -42c35 0 49 15 50 36c0 26 -25 39 -64 53
c-28 -11 -40 -30 -40 -47zM163 85c-22 0 -44 -13 -44 -36c0 -21 17 -38 54 -47c22 9 34 26 34 43c0 24 -19 40 -44 40z" />
    <glyph glyph-name="nineinferior" unicode="&#x2089;" horiz-adv-x="317" 
d="M207 -62h-1c-16 -18 -41 -30 -68 -30c-64 0 -104 42 -104 117c0 72 49 115 121 115c91 0 128 -74 128 -155c0 -154 -71 -195 -151 -195c-33 0 -54 5 -87 19l9 58c30 -12 52 -15 71 -15c38 0 83 25 82 86zM201 -7c5 41 -2 85 -43 85c-24 0 -44 -18 -44 -53
c0 -23 9 -52 45 -52c18 0 31 9 42 20z" />
    <glyph glyph-name="parenleftinferior" unicode="&#x208d;" horiz-adv-x="206" 
d="M34 -40c0 85 29 170 89 240h49c-45 -81 -63 -158 -63 -240c0 -80 18 -155 63 -240h-49c-60 70 -89 158 -89 240z" />
    <glyph glyph-name="parenrightinferior" unicode="&#x208e;" horiz-adv-x="206" 
d="M172 -40c0 -82 -30 -170 -89 -240h-49c46 85 62 160 62 240c0 82 -16 159 -62 240h49c59 -70 89 -155 89 -240z" />
    <glyph glyph-name="hypheninferior" horiz-adv-x="282" 
d="M34 11h214v-62h-214v62z" />
    <glyph glyph-name="commainferior" horiz-adv-x="165" 
d="M96 -265h-62c19 39 22 98 22 141h76c0 -43 -3 -102 -36 -141z" />
    <glyph glyph-name="periodinferior" horiz-adv-x="143" 
d="M34 -124h75v-76h-75v76z" />
    <glyph glyph-name="centinferior" horiz-adv-x="348" 
d="M202 69c-54 0 -84 -37 -84 -101c0 -65 30 -107 84 -107c19 0 51 7 85 32l27 -60c-21 -18 -63 -43 -125 -43c-103 0 -155 80 -155 178c0 96 52 172 155 172c62 0 104 -26 125 -42l-27 -61c-34 25 -66 32 -85 32zM207 -290h-40v60h40v-60zM207 160h-40v60h40v-60z" />
    <glyph glyph-name="dollarinferior" horiz-adv-x="337" 
d="M192 -290h-41v60h41v-60zM192 160h-41v60h41v-60zM143 -66c-61 17 -99 51 -99 108c0 71 58 98 127 98c49 0 93 -14 122 -34l-31 -62c-35 18 -65 25 -91 25c-29 0 -43 -9 -43 -27c0 -24 42 -33 73 -41c60 -15 102 -44 102 -103c0 -75 -63 -108 -137 -108
c-49 0 -103 17 -132 43l35 58c26 -16 70 -30 102 -30c29 0 47 11 47 32c0 28 -47 33 -75 41z" />
    <glyph glyph-name="zero.denominator" horiz-adv-x="327" 
d="M164 278c-39 0 -50 -46 -50 -110c0 -65 11 -116 50 -116c38 0 49 51 49 116c0 64 -11 110 -49 110zM164 -10c-97 0 -130 80 -130 178c0 96 33 172 130 172c95 0 129 -76 129 -172c0 -98 -34 -178 -129 -178z" />
    <glyph glyph-name="one.denominator" horiz-adv-x="297" 
d="M25 62h92v197l-64 -26l-19 58c39 13 79 31 104 52h55v-281h92v-62h-260v62z" />
    <glyph glyph-name="two.denominator" horiz-adv-x="307" 
d="M133 276c-21 0 -44 -7 -77 -23l-22 58c38 22 77 34 121 34c74 0 113 -45 113 -104c0 -70 -51 -119 -128 -173v-1h133v-67h-239v71c126 79 154 119 154 155c0 45 -34 50 -55 50z" />
    <glyph glyph-name="three.denominator" horiz-adv-x="317" 
d="M216 174c47 -14 67 -49 67 -85c0 -64 -48 -99 -128 -99c-43 0 -84 10 -121 33l22 58c32 -15 61 -29 98 -29s51 22 51 40c0 31 -19 42 -59 42h-46v62h42c47 0 55 25 55 45s-14 37 -39 37c-37 0 -63 -15 -95 -29l-22 57c38 22 80 34 123 34c59 0 109 -30 109 -90
c0 -36 -20 -62 -57 -76z" />
    <glyph glyph-name="four.denominator" horiz-adv-x="337" 
d="M111 136h75v106c-28 -45 -45 -69 -75 -106zM168 340h93v-204h42v-62h-42v-74h-75v74h-152v62c55 60 98 124 134 204z" />
    <glyph glyph-name="five.denominator" horiz-adv-x="317" 
d="M154 -10c-44 0 -82 13 -120 34l22 58c33 -16 59 -30 95 -30c27 0 52 18 52 52c0 23 -11 52 -48 52c-18 0 -35 -6 -48 -20l-54 5l6 194h204v-67h-139l-3 -66l1 -1c16 12 39 20 60 20c60 0 101 -39 101 -112c0 -72 -51 -119 -129 -119z" />
    <glyph glyph-name="six.denominator" horiz-adv-x="317" 
d="M109 192h1c16 18 41 30 68 30c64 0 105 -42 105 -117c0 -72 -50 -115 -121 -115c-91 0 -128 74 -128 155c0 154 70 195 151 195c33 0 54 -5 87 -19l-9 -58c-31 12 -52 15 -71 15c-38 0 -83 -25 -83 -86zM115 137c-4 -41 2 -85 43 -85c25 0 45 18 45 53c0 23 -9 52 -45 52
c-18 0 -31 -9 -43 -20z" />
    <glyph glyph-name="seven.denominator" horiz-adv-x="312" 
d="M196 272v1h-162v67h244v-54c-46 -82 -94 -162 -114 -286h-80c15 86 59 193 112 272z" />
    <glyph glyph-name="eight.denominator" horiz-adv-x="327" 
d="M229 175c40 -24 64 -49 64 -87c0 -69 -63 -98 -132 -98c-65 0 -127 25 -127 91c0 38 22 65 63 82c-34 19 -53 45 -53 84c0 64 60 93 121 93c58 0 118 -29 118 -89c0 -36 -20 -58 -54 -76zM112 88c0 -27 23 -42 54 -42c35 0 49 15 50 36c0 26 -25 39 -64 53
c-28 -11 -40 -30 -40 -47zM163 285c-22 0 -44 -13 -44 -36c0 -21 17 -38 54 -47c22 9 34 26 34 43c0 24 -19 40 -44 40z" />
    <glyph glyph-name="nine.denominator" horiz-adv-x="317" 
d="M207 138h-1c-16 -18 -41 -30 -68 -30c-64 0 -104 42 -104 117c0 72 49 115 121 115c91 0 128 -74 128 -155c0 -154 -71 -195 -151 -195c-33 0 -54 5 -87 19l9 58c30 -12 52 -15 71 -15c38 0 83 25 82 86zM201 193c5 41 -2 85 -43 85c-24 0 -44 -18 -44 -53
c0 -23 9 -52 45 -52c18 0 31 9 42 20z" />
    <glyph glyph-name="parenleft.denominator" horiz-adv-x="206" 
d="M34 160c0 85 29 170 89 240h49c-45 -81 -63 -158 -63 -240c0 -80 18 -155 63 -240h-49c-60 70 -89 158 -89 240z" />
    <glyph glyph-name="parenright.denominator" horiz-adv-x="206" 
d="M172 160c0 -82 -30 -170 -89 -240h-49c46 85 62 160 62 240c0 82 -16 159 -62 240h49c59 -70 89 -155 89 -240z" />
    <glyph glyph-name="cent.denominator" horiz-adv-x="348" 
d="M202 269c-54 0 -84 -37 -84 -101c0 -65 30 -107 84 -107c19 0 51 7 85 32l27 -60c-21 -18 -63 -43 -125 -43c-103 0 -155 80 -155 178c0 96 52 172 155 172c62 0 104 -26 125 -42l-27 -61c-34 25 -66 32 -85 32zM207 -90h-40v60h40v-60zM207 360h-40v60h40v-60z" />
    <glyph glyph-name="dollar.denominator" horiz-adv-x="337" 
d="M192 -90h-41v60h41v-60zM192 360h-41v60h41v-60zM143 134c-61 17 -99 51 -99 108c0 71 58 98 127 98c49 0 93 -14 122 -34l-31 -62c-35 18 -65 25 -91 25c-29 0 -43 -9 -43 -27c0 -24 42 -33 73 -41c60 -15 102 -44 102 -103c0 -75 -63 -108 -137 -108
c-49 0 -103 17 -132 43l35 58c26 -16 70 -30 102 -30c29 0 47 11 47 32c0 28 -47 33 -75 41z" />
    <glyph glyph-name="hyphen.denominator" horiz-adv-x="282" 
d="M34 211h214v-62h-214v62z" />
    <glyph glyph-name="comma.denominator" horiz-adv-x="165" 
d="M96 -65h-62c19 39 22 98 22 141h76c0 -43 -3 -102 -36 -141z" />
    <glyph glyph-name="period.denominator" horiz-adv-x="143" 
d="M34 76h75v-76h-75v76z" />
    <glyph glyph-name="zero.numerator" horiz-adv-x="327" 
d="M164 608c-39 0 -50 -46 -50 -110c0 -65 11 -116 50 -116c38 0 49 51 49 116c0 64 -11 110 -49 110zM164 320c-97 0 -130 80 -130 178c0 96 33 172 130 172c95 0 129 -76 129 -172c0 -98 -34 -178 -129 -178z" />
    <glyph glyph-name="one.numerator" horiz-adv-x="297" 
d="M25 392h92v197l-64 -26l-19 58c39 13 79 31 104 52h55v-281h92v-62h-260v62z" />
    <glyph glyph-name="two.numerator" horiz-adv-x="307" 
d="M133 606c-21 0 -44 -7 -77 -23l-22 58c38 22 77 34 121 34c74 0 113 -45 113 -104c0 -70 -51 -119 -128 -173v-1h133v-67h-239v71c126 79 154 119 154 155c0 45 -34 50 -55 50z" />
    <glyph glyph-name="three.numerator" horiz-adv-x="317" 
d="M216 504c47 -14 67 -49 67 -85c0 -64 -48 -99 -128 -99c-43 0 -84 10 -121 33l22 58c32 -15 61 -29 98 -29s51 22 51 40c0 31 -19 42 -59 42h-46v62h42c47 0 55 25 55 45s-14 37 -39 37c-37 0 -63 -15 -95 -29l-22 57c38 22 80 34 123 34c59 0 109 -30 109 -90
c0 -36 -20 -62 -57 -76z" />
    <glyph glyph-name="four.numerator" horiz-adv-x="337" 
d="M111 466h75v106c-28 -45 -45 -69 -75 -106zM168 670h93v-204h42v-62h-42v-74h-75v74h-152v62c55 60 98 124 134 204z" />
    <glyph glyph-name="five.numerator" horiz-adv-x="317" 
d="M154 320c-44 0 -82 13 -120 34l22 58c33 -16 59 -30 95 -30c27 0 52 18 52 52c0 23 -11 52 -48 52c-18 0 -35 -6 -48 -20l-54 5l6 194h204v-67h-139l-3 -66l1 -1c16 12 39 20 60 20c60 0 101 -39 101 -112c0 -72 -51 -119 -129 -119z" />
    <glyph glyph-name="six.numerator" horiz-adv-x="317" 
d="M109 522h1c16 18 41 30 68 30c64 0 105 -42 105 -117c0 -72 -50 -115 -121 -115c-91 0 -128 74 -128 155c0 154 70 195 151 195c33 0 54 -5 87 -19l-9 -58c-31 12 -52 15 -71 15c-38 0 -83 -25 -83 -86zM115 467c-4 -41 2 -85 43 -85c25 0 45 18 45 53c0 23 -9 52 -45 52
c-18 0 -31 -9 -43 -20z" />
    <glyph glyph-name="seven.numerator" horiz-adv-x="312" 
d="M196 602v1h-162v67h244v-54c-46 -82 -94 -162 -114 -286h-80c15 86 59 193 112 272z" />
    <glyph glyph-name="eight.numerator" horiz-adv-x="327" 
d="M229 505c40 -24 64 -49 64 -87c0 -69 -63 -98 -132 -98c-65 0 -127 25 -127 91c0 38 22 65 63 82c-34 19 -53 45 -53 84c0 64 60 93 121 93c58 0 118 -29 118 -89c0 -36 -20 -58 -54 -76zM112 418c0 -27 23 -42 54 -42c35 0 49 15 50 36c0 26 -25 39 -64 53
c-28 -11 -40 -30 -40 -47zM163 615c-22 0 -44 -13 -44 -36c0 -21 17 -38 54 -47c22 9 34 26 34 43c0 24 -19 40 -44 40z" />
    <glyph glyph-name="nine.numerator" horiz-adv-x="317" 
d="M207 468h-1c-16 -18 -41 -30 -68 -30c-64 0 -104 42 -104 117c0 72 49 115 121 115c91 0 128 -74 128 -155c0 -154 -71 -195 -151 -195c-33 0 -54 5 -87 19l9 58c30 -12 52 -15 71 -15c38 0 83 25 82 86zM201 523c5 41 -2 85 -43 85c-24 0 -44 -18 -44 -53
c0 -23 9 -52 45 -52c18 0 31 9 42 20z" />
    <glyph glyph-name="parenleft.numerator" horiz-adv-x="206" 
d="M34 490c0 85 29 170 89 240h49c-45 -81 -63 -158 -63 -240c0 -80 18 -155 63 -240h-49c-60 70 -89 158 -89 240z" />
    <glyph glyph-name="parenright.numerator" horiz-adv-x="206" 
d="M172 490c0 -82 -30 -170 -89 -240h-49c46 85 62 160 62 240c0 82 -16 159 -62 240h49c59 -70 89 -155 89 -240z" />
    <glyph glyph-name="cent.numerator" horiz-adv-x="348" 
d="M202 599c-54 0 -84 -37 -84 -101c0 -65 30 -107 84 -107c19 0 51 7 85 32l27 -60c-21 -18 -63 -43 -125 -43c-103 0 -155 80 -155 178c0 96 52 172 155 172c62 0 104 -26 125 -42l-27 -61c-34 25 -66 32 -85 32zM207 240h-40v60h40v-60zM207 690h-40v60h40v-60z" />
    <glyph glyph-name="dollar.numerator" horiz-adv-x="337" 
d="M192 240h-41v60h41v-60zM192 690h-41v60h41v-60zM143 464c-61 17 -99 51 -99 108c0 71 58 98 127 98c49 0 93 -14 122 -34l-31 -62c-35 18 -65 25 -91 25c-29 0 -43 -9 -43 -27c0 -24 42 -33 73 -41c60 -15 102 -44 102 -103c0 -75 -63 -108 -137 -108
c-49 0 -103 17 -132 43l35 58c26 -16 70 -30 102 -30c29 0 47 11 47 32c0 28 -47 33 -75 41z" />
    <glyph glyph-name="hyphen.numerator" horiz-adv-x="282" 
d="M34 541h214v-62h-214v62z" />
    <glyph glyph-name="comma.numerator" horiz-adv-x="165" 
d="M96 265h-62c19 39 22 98 22 141h76c0 -43 -3 -102 -36 -141z" />
    <glyph glyph-name="period.numerator" horiz-adv-x="143" 
d="M34 406h75v-76h-75v76z" />
    <glyph glyph-name="onethird" unicode="&#x2153;" horiz-adv-x="800" 
d="M623 680l-370 -680h-45l370 680h45zM25 392h92v197c-21 -9 -42 -18 -64 -26l-19 58c39 13 80 31 104 52h55v-281h92v-62h-260v62zM708 174c47 -14 67 -49 67 -85c0 -64 -48 -99 -127 -99c-44 0 -85 10 -122 33l22 58c32 -15 61 -29 98 -29s52 22 52 40
c0 31 -20 42 -60 42h-46v62h42c47 0 55 25 55 45s-14 37 -39 37c-36 0 -63 -15 -94 -29l-23 57c38 22 80 34 123 34c59 0 109 -30 109 -90c0 -36 -20 -62 -57 -76z" />
    <glyph glyph-name="oneeighth" unicode="&#x215b;" horiz-adv-x="800" 
d="M623 680l-370 -680h-45l370 680h45zM25 392h92v197c-21 -9 -42 -18 -64 -26l-19 58c39 13 80 31 104 52h55v-281h92v-62h-260v62zM711 175c40 -24 64 -49 64 -87c0 -69 -63 -98 -132 -98c-65 0 -127 25 -127 91c0 38 23 65 63 82c-33 19 -53 45 -53 84c0 64 60 93 122 93
c57 0 117 -29 117 -89c0 -36 -20 -58 -54 -76zM594 88c0 -27 23 -42 54 -42c35 0 49 15 50 36c1 26 -25 39 -64 53c-28 -11 -40 -30 -40 -47zM645 285c-22 0 -44 -13 -44 -36c0 -21 18 -38 54 -47c23 9 34 26 34 43c0 24 -19 40 -44 40z" />
    <glyph glyph-name="twothirds" unicode="&#x2154;" horiz-adv-x="800" 
d="M623 680l-370 -680h-45l370 680h45zM708 174c47 -14 67 -49 67 -85c0 -64 -48 -99 -127 -99c-44 0 -85 10 -122 33l22 58c32 -15 61 -29 98 -29s52 22 52 40c0 31 -20 42 -60 42h-46v62h42c47 0 55 25 55 45s-14 37 -39 37c-36 0 -63 -15 -94 -29l-23 57
c38 22 80 34 123 34c59 0 109 -30 109 -90c0 -36 -20 -62 -57 -76zM124 606c-21 0 -43 -7 -77 -23l-22 58c39 22 77 34 121 34c75 0 113 -45 113 -104c0 -70 -50 -119 -127 -173v-1h132v-67h-239v71c126 79 154 119 154 155c0 45 -34 50 -55 50z" />
    <glyph glyph-name="threeeighths" unicode="&#x215c;" horiz-adv-x="800" 
d="M614 680l-370 -680h-45l370 680h45zM711 175c40 -24 64 -49 64 -87c0 -69 -63 -98 -132 -98c-65 0 -127 25 -127 91c0 38 23 65 63 82c-33 19 -53 45 -53 84c0 64 60 93 122 93c57 0 117 -29 117 -89c0 -36 -20 -58 -54 -76zM594 88c0 -27 23 -42 54 -42
c35 0 49 15 50 36c1 26 -25 39 -64 53c-28 -11 -40 -30 -40 -47zM645 285c-22 0 -44 -13 -44 -36c0 -21 18 -38 54 -47c23 9 34 26 34 43c0 24 -19 40 -44 40zM208 504c46 -14 66 -49 66 -85c0 -64 -48 -99 -127 -99c-44 0 -85 10 -122 33l22 58c32 -15 61 -29 98 -29
s52 22 52 40c0 31 -20 42 -60 42h-46v62h42c47 0 56 25 56 45s-15 37 -40 37c-36 0 -63 -15 -94 -29l-23 57c38 22 80 34 124 34c58 0 108 -30 108 -90c0 -36 -19 -62 -56 -76z" />
    <glyph glyph-name="fiveeighths" unicode="&#x215d;" horiz-adv-x="800" 
d="M614 680l-370 -680h-45l370 680h45zM711 175c40 -24 64 -49 64 -87c0 -69 -63 -98 -132 -98c-65 0 -127 25 -127 91c0 38 23 65 63 82c-33 19 -53 45 -53 84c0 64 60 93 122 93c57 0 117 -29 117 -89c0 -36 -20 -58 -54 -76zM594 88c0 -27 23 -42 54 -42
c35 0 49 15 50 36c1 26 -25 39 -64 53c-28 -11 -40 -30 -40 -47zM645 285c-22 0 -44 -13 -44 -36c0 -21 18 -38 54 -47c23 9 34 26 34 43c0 24 -19 40 -44 40zM146 320c-45 0 -82 13 -121 34l22 58c34 -16 59 -30 95 -30c27 0 52 18 52 52c0 23 -10 52 -48 52
c-17 0 -35 -6 -48 -20l-54 5l6 194h204v-67h-138l-4 -66l1 -1c16 12 39 20 60 20c60 0 101 -39 101 -112c0 -72 -50 -119 -128 -119z" />
    <glyph glyph-name="seveneighths" unicode="&#x215e;" horiz-adv-x="800" 
d="M564 680l-370 -680h-45l370 680h45zM711 175c40 -24 64 -49 64 -87c0 -69 -63 -98 -132 -98c-65 0 -127 25 -127 91c0 38 23 65 63 82c-33 19 -53 45 -53 84c0 64 60 93 122 93c57 0 117 -29 117 -89c0 -36 -20 -58 -54 -76zM594 88c0 -27 23 -42 54 -42
c35 0 49 15 50 36c1 26 -25 39 -64 53c-28 -11 -40 -30 -40 -47zM645 285c-22 0 -44 -13 -44 -36c0 -21 18 -38 54 -47c23 9 34 26 34 43c0 24 -19 40 -44 40zM187 602v1h-162v67h244v-54c-46 -82 -94 -162 -114 -286h-80c15 86 59 193 112 272z" />
    <glyph glyph-name="exclamsmall" horiz-adv-x="222" 
d="M36 152h150v-152h-150v152zM36 580h150l-9 -361h-132z" />
    <glyph glyph-name="exclamdownsmall" horiz-adv-x="222" 
d="M186 427h-150v153h150v-153zM186 0h-150l9 361h132z" />
    <glyph glyph-name="exclamdbl" unicode="&#x203c;" horiz-adv-x="410" 
d="M36 152h150v-152h-150v152zM36 680h150l-9 -461h-132zM224 152h150v-152h-150v152zM224 680h150l-9 -461h-133z" />
    <glyph glyph-name="ampersandsmall" unicode="&#xf726;" horiz-adv-x="905" 
d="M596 142v74h-397c11 -64 49 -102 124 -102c41 0 88 10 147 30l17 -115c-66 -28 -120 -39 -186 -39c-162 0 -265 101 -265 260s103 260 264 260c151 0 208 -93 216 -201h80l18 191h132v-191h118v-93h-118v-31c0 -49 9 -76 66 -76c12 0 27 2 43 5l14 -115
c-29 -5 -81 -9 -109 -9c-119 0 -164 50 -164 152zM291 395c-47 0 -86 -31 -92 -86h165c7 48 -15 86 -73 86z" />
    <glyph glyph-name="fraction" unicode="&#x2044;" horiz-adv-x="540" 
d="M521 680l-370 -680h-132l370 680h132z" />
    <glyph glyph-name="uni2215" unicode="&#x2215;" horiz-adv-x="540" 
d="M521 680l-370 -680h-132l370 680h132z" />
    <glyph glyph-name="uni2219" unicode="&#x2219;" horiz-adv-x="262" 
d="M56 326h150v-152h-150v152z" />
    <glyph glyph-name="at.cap" horiz-adv-x="830" 
d="M585 411v-179c91 0 122 98 122 170c0 149 -120 246 -272 246c-183 0 -311 -128 -311 -315c0 -164 119 -291 284 -291l-9 -82c-216 0 -369 160 -369 373c0 233 171 399 404 399c202 0 366 -132 366 -326c0 -142 -82 -260 -240 -260h-93v39h-1c-31 -34 -63 -46 -111 -46
c-77 0 -119 55 -119 121c0 100 94 123 164 123h67v21c0 33 -18 48 -63 48c-30 0 -77 -8 -129 -23l-21 79c59 19 114 33 180 33c91 0 151 -30 151 -130zM467 247v68h-62c-31 0 -51 -14 -51 -45c0 -30 23 -42 47 -42c26 0 54 10 66 19z" />
    <glyph glyph-name="parenleft.cap" horiz-adv-x="330" 
d="M38 340c0 168 59 340 178 480h98c-92 -161 -126 -317 -126 -480c0 -160 34 -310 126 -480h-98c-119 140 -178 316 -178 480z" />
    <glyph glyph-name="parenright.cap" horiz-adv-x="330" 
d="M292 340c0 -164 -59 -340 -178 -480h-98c92 170 126 320 126 480c0 163 -34 319 -126 480h98c119 -140 178 -312 178 -480z" />
    <glyph glyph-name="bracketleft.cap" horiz-adv-x="300" 
d="M195 -51h89v-89h-248v960h248v-89h-89v-782z" />
    <glyph glyph-name="bracketright.cap" horiz-adv-x="300" 
d="M16 -51h89v782h-89v89h248v-960h-248v89z" />
    <glyph glyph-name="braceleft.cap" horiz-adv-x="340" 
d="M255 17c0 -94 27 -95 69 -95v-62c-121 0 -228 5 -228 146c0 61 10 130 10 189c0 64 0 99 -70 109v72c70 10 70 45 70 109c0 59 -10 128 -10 189c0 140 107 146 228 146v-63c-42 0 -69 0 -69 -95c0 -61 13 -141 13 -203c0 -79 -45 -102 -105 -118v-2
c60 -16 105 -39 105 -118c0 -62 -13 -143 -13 -204z" />
    <glyph glyph-name="braceright.cap" horiz-adv-x="340" 
d="M85 662c0 95 -27 95 -69 95v63c120 0 228 -6 228 -146c0 -61 -10 -130 -10 -189c0 -64 0 -99 70 -109v-72c-70 -10 -70 -45 -70 -109c0 -59 10 -128 10 -189c0 -141 -108 -146 -228 -146v62c42 0 69 1 69 95c0 61 -14 142 -14 204c0 79 46 102 106 118v2
c-60 16 -106 39 -106 118c0 62 14 142 14 203z" />
    <glyph glyph-name="exclamdown.cap" horiz-adv-x="222" 
d="M36 152h150v-152h-150v152zM36 680h150l-9 -461h-132z" />
    <glyph glyph-name="questiondown.cap" horiz-adv-x="480" 
d="M236 -10c-170 0 -210 107 -210 186c0 165 166 175 166 264v30h133v-30c0 -164 -144 -167 -144 -248c0 -55 50 -61 86 -61c33 0 90 10 144 27l43 -128c-59 -25 -145 -40 -218 -40zM334 527h-150v153h150v-153z" />
    <glyph glyph-name="guillemotleft.cap" horiz-adv-x="714" 
d="M36 334l308 170v-133l-149 -81l149 -81v-133l-308 170v88zM370 334l307 170v-133l-148 -81l148 -81v-133l-307 170v88z" />
    <glyph glyph-name="guillemotright.cap" horiz-adv-x="714" 
d="M370 504l307 -170v-88l-307 -170v133l149 81l-149 81v133zM36 504l308 -170v-88l-308 -170v133l149 81l-149 81v133z" />
    <glyph glyph-name="guilsinglleft.cap" horiz-adv-x="380" 
d="M36 334l308 170v-133l-149 -81l149 -81v-133l-308 170v88z" />
    <glyph glyph-name="guilsinglright.cap" horiz-adv-x="380" 
d="M344 246l-308 -170v133l149 81l-149 81v133l308 -170v-88z" />
    <glyph glyph-name="hyphen.cap" horiz-adv-x="500" 
d="M36 367h428v-124h-428v124z" />
    <glyph glyph-name="endash.cap" horiz-adv-x="699" 
d="M36 367h626v-124h-626v124z" />
    <glyph glyph-name="emdash.cap" horiz-adv-x="760" 
d="M36 367h688v-124h-688v124z" />
    <glyph glyph-name="periodcentered.cap" horiz-adv-x="245" 
d="M56 377h133v-135h-133v135z" />
    <glyph glyph-name="lessequal" unicode="&#x2264;" horiz-adv-x="480" 
d="M71 336l338 151v-106l-179 -81l179 -81v-107l-338 152v72zM36 95h408v-89h-408v89z" />
    <glyph glyph-name="approxequal" unicode="&#x2248;" horiz-adv-x="467" 
d="M149 334c-19 0 -37 -7 -67 -39l-46 36c32 76 74 105 109 105c50 0 149 -40 183 -40c18 0 36 -2 65 30l38 -45c-32 -64 -66 -83 -103 -83c-38 0 -141 36 -179 36zM149 134c-19 0 -37 -7 -67 -39l-46 36c32 76 74 105 109 105c50 0 149 -40 183 -40c18 0 36 -2 65 30
l38 -45c-32 -64 -66 -83 -103 -83c-38 0 -141 36 -179 36z" />
    <glyph glyph-name="notequal" unicode="&#x2260;" horiz-adv-x="500" 
d="M36 227h161l42 76h-203v124h270l98 178h62l-97 -178h95v-124h-162l-42 -76h204v-124h-271l-97 -178h-62l96 178h-94v124z" />
    <glyph glyph-name="estimated" unicode="&#x212e;" horiz-adv-x="736" 
d="M706 349h-528v-235c54 -52 118 -78 190 -78c108 0 193 53 252 157l46 -26c-86 -123 -163 -177 -298 -177c-203 0 -338 157 -338 359c0 210 139 361 338 361c179 0 329 -123 338 -361zM178 397h380v189c-54 51 -118 77 -191 77c-75 0 -137 -26 -189 -77v-189z" />
    <glyph glyph-name="partialdiff" unicode="&#x2202;" horiz-adv-x="573" 
d="M399 393c1 0 1 1 2 1c18 123 -65 172 -142 172c-38 0 -81 -5 -146 -29l-2 115c69 28 114 38 179 38c162 0 291 -83 248 -390c-23 -161 -119 -310 -301 -310c-142 0 -228 86 -208 230c21 150 114 235 243 235c53 0 99 -25 127 -62zM372 284c-20 23 -43 41 -79 41
c-74 0 -99 -58 -105 -105c-10 -70 24 -106 74 -106c83 0 108 88 110 170z" />
    <glyph glyph-name="greaterequal" unicode="&#x2265;" horiz-adv-x="480" 
d="M71 487l338 -151v-72l-338 -152v107l179 81l-179 81v106zM36 95h408v-89h-408v89z" />
    <glyph glyph-name="questionsmall" unicode="&#xf73f;" horiz-adv-x="480" 
d="M244 610c167 0 210 -83 210 -156c0 -167 -167 -134 -167 -223v-21h-132v30c0 164 144 117 144 192c0 41 -52 45 -87 45c-33 0 -95 -12 -152 -35l-34 111c53 28 145 57 218 57zM146 152h150v-152h-150v152z" />
    <glyph glyph-name="questiondownsmall" horiz-adv-x="480" 
d="M236 0c-167 0 -210 83 -210 156c0 167 166 133 166 223v21h133v-30c0 -164 -144 -117 -144 -192c0 -41 52 -46 86 -46c33 0 95 13 153 36l34 -111c-53 -28 -145 -57 -218 -57zM334 457h-150v153h150v-153z" />
    <glyph glyph-name="percent.oldstyle" horiz-adv-x="760" 
d="M614 580l-370 -580h-98l370 580h98zM180 288c-95 0 -146 58 -146 150c0 93 51 151 146 151c96 0 147 -58 147 -151c0 -92 -51 -150 -147 -150zM180 363c35 0 54 24 54 75s-19 76 -54 76s-53 -25 -53 -76s18 -75 53 -75zM580 -9c-96 0 -147 58 -147 151
c0 92 51 150 147 150c95 0 146 -58 146 -150c0 -93 -51 -151 -146 -151zM580 66c34 0 53 25 53 76s-19 75 -53 75c-35 0 -54 -24 -54 -75s19 -76 54 -76z" />
    <glyph glyph-name="perthousand.oldstyle" horiz-adv-x="1095" 
d="M580 -9c-96 0 -147 58 -147 151c0 92 51 150 147 150c95 0 146 -58 146 -150c0 -93 -51 -151 -146 -151zM580 66c34 0 53 25 53 76s-19 75 -53 75c-35 0 -54 -24 -54 -75s19 -76 54 -76zM915 -9c-96 0 -147 58 -147 151c0 92 51 150 147 150c95 0 146 -58 146 -150
c0 -93 -51 -151 -146 -151zM915 66c34 0 53 25 53 76s-19 75 -53 75c-35 0 -54 -24 -54 -75s19 -76 54 -76zM614 580l-370 -580h-98l370 580h98zM180 288c-95 0 -146 58 -146 150c0 93 51 151 146 151c96 0 147 -58 147 -151c0 -92 -51 -150 -147 -150zM180 363
c35 0 54 24 54 75s-19 76 -54 76s-53 -25 -53 -76s18 -75 53 -75z" />
    <glyph glyph-name="figuredash" unicode="&#x2012;" horiz-adv-x="699" 
d="M36 327h626v-124h-626v124z" />
    <glyph glyph-name="threequartersemdash" horiz-adv-x="760" 
d="M36 327h688v-124h-688v124z" />
    <glyph glyph-name="minus" unicode="&#x2212;" horiz-adv-x="500" 
d="M36 327h428v-124h-428v124z" />
    <glyph glyph-name="overscore" horiz-adv-x="437" 
d="M52 665h333v-89h-333v89z" />
    <glyph glyph-name="uni03BC" unicode="&#x3bc;" horiz-adv-x="530" 
d="M186 500v-308c1 -53 26 -78 70 -78c33 0 65 16 88 29v357h150v-500h-150v62h-2c-28 -29 -58 -50 -94 -61c-20 -4 -45 -5 -62 1v-35c0 -121 -56 -177 -172 -177c-29 0 -54 4 -83 9l14 115c16 -3 31 -5 42 -5c35 0 49 19 49 59v532h150z" />
    <glyph glyph-name="onedotenleader" unicode="&#x2024;" horiz-adv-x="222" 
d="M36 152h150v-152h-150v152z" />
    <glyph glyph-name="twodotenleader" unicode="&#x2025;" horiz-adv-x="410" 
d="M36 152h150v-152h-150v152zM224 152h150v-152h-150v152z" />
    <glyph glyph-name="afii61352" unicode="&#x2116;" horiz-adv-x="1050" 
d="M837 350c-109 0 -167 65 -167 170s58 170 167 170s167 -65 167 -170s-58 -170 -167 -170zM670 320h334v-89h-334v89zM837 432c41 0 63 29 63 88s-22 88 -63 88s-63 -29 -63 -88s22 -88 63 -88zM201 0h-155v680h159l242 -389h2v389h155v-680h-159l-242 371h-2v-371z" />
    <glyph glyph-name="product" unicode="&#x220f;" horiz-adv-x="650" 
d="M196 0h-150v700h558v-700h-150v567h-258v-567z" />
    <glyph glyph-name="summation" unicode="&#x2211;" horiz-adv-x="550" 
d="M251 537l132 -197l-132 -197v-2h264v-141h-480v115l149 225l-149 225v115h480v-141h-264v-2z" />
    <glyph glyph-name="radical" unicode="&#x221a;" horiz-adv-x="801" 
d="M56 301v89h299l67 -231h2l162 541h159l-234 -705h-184l-109 306h-162z" />
    <glyph glyph-name="infinity" unicode="&#x221e;" horiz-adv-x="673" 
d="M176 310c-30 0 -61 -17 -61 -62c0 -30 18 -64 62 -64s85 36 103 64c-15 23 -60 62 -104 62zM332 189c-26 -38 -85 -88 -167 -88c-88 0 -144 62 -144 149c0 85 56 149 156 149c79 0 123 -37 166 -86c32 41 80 86 165 86c88 0 144 -62 144 -149c0 -80 -58 -149 -155 -149
c-57 0 -107 16 -165 88zM496 315c-46 0 -85 -37 -103 -65c19 -28 64 -61 101 -61c45 0 64 30 64 62s-16 64 -62 64z" />
    <glyph glyph-name="integral" unicode="&#x222b;" horiz-adv-x="345" 
d="M76 -45v593c0 102 45 152 164 152c28 0 62 -4 91 -9l-13 -115c-17 3 -32 5 -43 5c-38 0 -49 -21 -49 -59v-578c0 -98 -30 -154 -164 -154c-28 0 -62 4 -91 9l14 115c16 -3 31 -5 42 -5c38 0 49 10 49 46z" />
    <glyph glyph-name="lozenge" unicode="&#x25ca;" horiz-adv-x="472" 
d="M229 -30l-199 374l199 374h14l199 -374l-199 -374h-14zM151 344l85 -158l85 158l-85 158z" />
    <glyph glyph-name="uni037E" unicode="&#x37e;" horiz-adv-x="262" 
d="M56 326h150v-152h-150v152z" />
    <glyph glyph-name="litre" unicode="&#x2113;" horiz-adv-x="449" 
d="M42 156l-12 11l94 99v243c0 67 13 118 40 151c27 32 60 50 100 50c59 0 96 -39 96 -99c0 -34 -10 -71 -31 -112c-20 -41 -63 -100 -129 -176v-168c0 -51 8 -86 23 -106s35 -29 60 -29c22 0 44 9 64 29c21 19 39 53 54 103h18c-14 -55 -36 -97 -68 -127
c-24 -23 -54 -35 -89 -35c-58 0 -107 35 -127 90c-7 21 -11 56 -11 107v52zM200 543v-193c89 103 134 183 134 242c0 57 -30 89 -67 89c-19 0 -35 -9 -48 -28s-19 -55 -19 -110z" />
    <glyph glyph-name="tonos" unicode="&#x384;" horiz-adv-x="281" 
d="M229 680l-97 -120h-80l53 120h124z" />
    <glyph glyph-name="dieresistonos" unicode="&#x385;" horiz-adv-x="560" 
d="M52 680h124v-118h-124v118zM384 680h123v-118h-123v118zM374 700l-97 -138h-80l53 138h124z" />
    <glyph glyph-name="anoteleia" unicode="&#x387;" horiz-adv-x="464" 
d="M52 680h124v-118h-124v118zM287 680h124v-118h-124v118z" />
    <glyph glyph-name="Delta" unicode="&#x2206;" horiz-adv-x="628" 
d="M294 710l284 -710h-528zM265 479l-142 -417h302z" />
    <glyph glyph-name="Omega" unicode="&#x2126;" horiz-adv-x="670" 
d="M335 690c204 0 309 -131 309 -300c0 -102 -51 -213 -171 -252v-32h171v-106h-277v201c67 17 109 65 109 189c0 105 -42 167 -141 167s-141 -62 -141 -167c0 -124 42 -172 109 -189v-201h-277v106h171v32c-120 39 -171 150 -171 252c0 169 105 300 309 300z" />
    <glyph glyph-name="pi" unicode="&#x3c0;" horiz-adv-x="530" 
d="M186 0h-150v500h458v-500h-150v367h-158v-367z" />
    <glyph glyph-name="ampersand.alt" horiz-adv-x="840" 
d="M531 197h-244c-40 0 -75 -11 -75 -41c0 -31 28 -42 79 -42c38 0 83 5 148 30l18 -115c-70 -29 -132 -39 -197 -39c-138 0 -224 50 -224 140c0 75 52 110 126 123v2c-61 15 -106 55 -106 125c0 100 89 130 214 130c65 0 133 -13 187 -39l-17 -115c-65 25 -111 30 -148 30
c-43 0 -77 -7 -77 -41c0 -20 18 -41 72 -41h244l18 196h132v-196h118v-93h-118v-43c0 -38 20 -59 66 -59c12 0 27 2 43 5l14 -115c-29 -5 -81 -9 -109 -9c-119 0 -164 50 -164 152v55z" />
    <glyph glyph-name="sigma" unicode="&#x3c3;" horiz-adv-x="513" 
d="M100 249c0 45 18 85 48 114l-78 90l8 8l79 -90c27 22 62 36 100 36c37 0 72 -14 99 -36l78 90l9 -8l-78 -89c31 -29 50 -70 50 -115s-19 -86 -49 -114l76 -86l-9 -9l-77 87c-27 -22 -62 -35 -99 -35c-38 0 -73 13 -100 35l-76 -87l-9 9l76 86c-30 29 -48 69 -48 114z
M112 249c0 -79 66 -145 145 -145s146 66 146 145s-67 146 -146 146s-145 -67 -145 -146z" />
    <glyph glyph-name="uni03C2" unicode="&#x3c2;" horiz-adv-x="513" 
d="M100 249c0 45 18 85 48 114l-78 90l8 8l79 -90c27 22 62 36 100 36c37 0 72 -14 99 -36l78 90l9 -8l-78 -89c31 -29 50 -70 50 -115s-19 -86 -49 -114l76 -86l-9 -9l-77 87c-27 -22 -62 -35 -99 -35c-38 0 -73 13 -100 35l-76 -87l-9 9l76 86c-30 29 -48 69 -48 114z
M112 249c0 -79 66 -145 145 -145s146 66 146 145s-67 146 -146 146s-145 -67 -145 -146z" />
    </font>
</defs>
</svg>
