<?xml version="1.0" encoding="UTF-8" standalone="no"?>
<svg width="48px" height="60px" viewBox="0 0 48 60" version="1.1" xmlns="http://www.w3.org/2000/svg" xmlns:xlink="http://www.w3.org/1999/xlink">
    <!-- Generator: Sketch 3.8.3 (29802) - http://www.bohemiancoding.com/sketch -->
    <title>icon-vehicular</title>
    <desc>Created with Sketch.</desc>
    <defs></defs>
    <g id="Page-1" stroke="none" stroke-width="1" fill="none" fill-rule="evenodd">
        <g id="icon-vehicular" fill="#FFBF00">
            <g id="Page-1">
                <g>
                    <path d="M22.861295,14.676 C22.861295,15.0267692 22.1689873,18.6544615 22.1689873,19.1713846 C22.1689873,19.5129231 23.3782181,20.0298462 23.8942181,20.8975385 C24.5865258,21.756 24.7628334,22.9643077 24.9382181,24.0083077 C29.9505258,25.3846154 36.7074488,22.9643077 41.2019104,31.0883077 L45.7074488,31.0883077 C47.4326796,31.7723077 47.2665258,32.9806154 47.2665258,34.0236923 C47.2665258,35.5744615 47.4326796,36.4421538 44.497295,37.3015385 C45.7074488,41.1036923 46.2243719,43.5221538 46.2243719,46.4584615 C46.2243719,49.0412308 45.3557565,51.4615385 45.3557565,52.5027692 L45.3557565,56.6483077 C45.3557565,59.4083077 42.7628334,59.0676923 41.3782181,59.0676923 C38.2665258,59.0676923 37.7403719,59.2338462 37.9166796,54.396 L29.4326796,54.9138462 L17.6634488,54.7467692 C13.3351411,54.5713846 11.4326796,54.396 9.53206422,54.2307692 C9.18129503,59.2338462 9.00591042,59.0676923 5.71975657,59.0676923 C4.15975657,59.0676923 1.91667965,59.2338462 1.91667965,56.8135385 L1.91667965,52.1538462 C1.56591042,51.2944615 1.04806426,49.2175385 1.04806426,48.876 L1.04806426,44.2144615 C1.21514118,42.1375385 1.91667965,39.2021538 2.9505258,37.3015385 C0.00591041528,36.6092308 0.00591041528,35.7498462 0.00591041528,34.0236923 C0.00591041528,33.6729231 -0.1694742,31.0883077 1.3905258,31.0883077 L6.0705258,31.0883077 C10.9166796,22.7990769 18.0059104,25.0412308 24.0705258,24.0083077 C23.3782181,22.7990769 23.5536027,21.5898462 22.1689873,20.3815385 C21.9936027,21.4144615 21.817295,22.4483077 21.6428334,23.6566154 L20.2582181,23.6566154 C17.6634488,23.1406154 14.2019104,24.0083077 12.1249873,22.272 C7.45514118,18.6544615 4.85206426,12.9498462 1.21514118,8.11292308 L11.7751411,0 C14.8942181,3.27507692 22.861295,13.8175385 22.861295,14.676 L22.861295,14.676 L22.861295,14.676 Z M21.6428334,14.8513846 C21.6428334,15.3683077 21.301295,17.6123077 21.1249873,18.8206154 C20.2582181,18.6544615 18.8736027,17.4452308 18.5320642,17.4452308 C17.3136027,17.4452308 16.621295,18.4790769 16.621295,19.5129231 C16.621295,20.5467692 17.6634488,21.4144615 18.5320642,21.4144615 C19.2243719,21.4144615 20.2582181,20.7221538 20.4326796,20.0298462 C21.1249873,21.0738462 20.6089873,21.2390769 20.6089873,21.9313846 C20.6089873,22.1067692 20.6089873,22.272 20.7843719,22.4483077 L19.9166796,22.4483077 C17.4889873,22.1067692 14.3782181,22.7990769 12.6428334,21.2390769 C8.48898734,17.9621538 5.89421811,12.6092308 2.60898734,8.28830769 L11.6089873,1.38461538 C14.0274488,4.48523077 21.6428334,14.1590769 21.6428334,14.8513846 L21.6428334,14.8513846 L21.6428334,14.8513846 Z M18.0059104,19.3375385 C18.0059104,19.1713846 18.0059104,18.9969231 18.181295,18.9969231 C18.181295,18.9969231 18.0059104,19.1713846 18.0059104,19.3375385 L18.0059104,19.3375385 L18.0059104,19.3375385 Z M32.3782181,27.1098462 C33.9382181,27.2852308 36.7074488,27.9775385 38.0920642,30.7366154 C36.3557565,26.7692308 26.8397565,26.7692308 23.5536027,26.7692308 C18.5320642,26.7692308 18.181295,26.2513846 11.7751411,28.3190769 C10.9166796,28.4944615 10.0480642,29.7036923 9.53206422,30.396 C8.66344888,31.4289231 7.62129503,32.9806154 6.92898734,34.1898462 C7.27883349,33.3313846 7.79667965,32.4646154 8.31360272,31.6061538 C11.2582181,26.0769231 16.621295,27.2852308 20.4326796,26.4175385 L23.2019104,26.4175385 C23.5536027,26.4175385 29.2582181,26.5929231 32.3782181,27.1098462 L32.3782181,27.1098462 L32.3782181,27.1098462 Z M34.6305258,29.3621538 C37.3997565,30.7366154 39.4766796,35.2338462 40.5096027,37.1252308 L23.2019104,36.6092308 L12.4674488,37.1252308 L6.76283349,37.1252308 C7.79667965,34.8821538 9.35575652,31.6061538 11.7751411,29.7036923 C12.9936027,28.6698462 15.0705258,28.4944615 16.7966796,28.3190769 C18.8736027,28.1538462 22.6859104,27.9775385 23.0274488,27.9775385 C26.4889873,27.9775385 31.861295,28.1538462 34.6305258,29.3621538 L34.6305258,29.3621538 L34.6305258,29.3621538 Z M38.6089873,31.4289231 C38.4326796,31.2544615 38.2665258,31.0883077 38.2665258,30.9138462 C38.4326796,31.0883077 38.6089873,31.2544615 38.6089873,31.4289231 L38.6089873,31.4289231 L38.6089873,31.4289231 Z M39.9936027,33.5058462 C39.6511411,32.9806154 39.1249873,32.2984615 38.7843719,31.6061538 C39.1249873,32.1212308 39.6511411,32.8135385 39.9936027,33.5058462 L39.9936027,33.5058462 L39.9936027,33.5058462 Z M5.37821811,33.6729231 C5.89421811,33.6729231 6.41206426,34.1898462 6.76283349,34.3652308 C6.23667965,35.3990769 5.20191042,37.3015385 5.20191042,37.6513846 C5.20191042,38.1683077 5.54437195,38.3344615 5.71975657,38.5098462 L11.4326796,38.5098462 C13.6859104,38.3344615 17.4889873,37.9938462 18.0059104,37.9938462 L28.0480642,37.9938462 L38.2665258,38.5098462 C39.6511411,38.1683077 42.0705258,39.3784615 42.0705258,37.3015385 C42.9382181,39.0267692 44.1474488,43.8636923 44.1474488,46.4584615 C44.1474488,47.6667692 43.1126796,52.1538462 43.1126796,52.3283077 L43.1126796,56.2984615 L39.9936027,56.2984615 L39.9936027,51.9775385 L24.4120642,52.8461538 L17.4889873,52.6698462 L7.27883349,51.9775385 L7.27883349,56.2984615 L4.15975657,56.2984615 L4.15975657,52.1538462 C3.64283349,50.6021538 3.12498734,48.1836923 3.12498734,46.2821538 C3.12498734,42.6544615 4.15975657,39.3784615 5.89421811,35.9169231 C5.02744888,34.8821538 3.46744888,35.0575385 2.25821811,35.0575385 L2.25821811,33.6729231 L5.37821811,33.6729231 L5.37821811,33.6729231 Z M45.0151411,33.6729231 L45.0151411,35.0575385 C43.9711411,35.2338462 41.3782181,35.3990769 41.3782181,35.7498462 C41.3782181,36.2667692 41.8942181,36.7836923 41.8942181,37.1252308 C41.5536027,36.2667692 41.0357565,35.3990769 40.5096027,34.5415385 C40.6859104,34.1898462 41.2019104,33.8492308 41.7280642,33.6729231 L45.0151411,33.6729231 L45.0151411,33.6729231 Z M11.6089873,43.3467692 C11.6089873,45.5898462 9.53206422,47.1507692 7.79667965,47.1507692 C5.37821811,47.1507692 4.33514118,45.0738462 4.33514118,43.3467692 C4.33514118,41.2698462 5.89421811,39.7190769 7.97114118,39.7190769 C10.0480642,39.7190769 11.6089873,41.6206154 11.6089873,43.3467692 L11.6089873,43.3467692 L11.6089873,43.3467692 Z M43.1126796,43.3467692 C43.1126796,45.5898462 41.0357565,47.1507692 39.301295,47.1507692 C36.8736027,47.1507692 35.8397565,45.0738462 35.8397565,43.3467692 C35.8397565,40.9283077 37.3997565,39.8944615 39.301295,39.8944615 C41.5536027,39.8944615 43.1126796,41.4452308 43.1126796,43.3467692 L43.1126796,43.3467692 L43.1126796,43.3467692 Z M10.3905258,43.3467692 C10.3905258,45.0738462 8.83975657,45.9406154 7.79667965,45.9406154 C5.89421811,45.9406154 5.37821811,44.3815385 5.37821811,43.3467692 C5.37821811,41.796 6.23667965,40.9283077 7.79667965,40.9283077 C9.69821806,40.9283077 10.3905258,42.3129231 10.3905258,43.3467692 L10.3905258,43.3467692 L10.3905258,43.3467692 Z M41.8942181,43.3467692 C41.8942181,45.0738462 40.3434488,45.9406154 39.301295,45.9406154 C37.3997565,45.9406154 36.8736027,44.3815385 36.8736027,43.3467692 C36.8736027,41.796 37.7403719,40.9283077 39.301295,40.9283077 C41.2019104,40.9283077 41.8942181,42.3129231 41.8942181,43.3467692 L41.8942181,43.3467692 L41.8942181,43.3467692 Z" id="icon-vehicular"></path>
                </g>
            </g>
        </g>
    </g>
</svg>