<?xml version="1.0" encoding="utf-8"?>
<!-- Generator: Adobe Illustrator 21.1.0, SVG Export Plug-In . SVG Version: 6.00 Build 0)  -->
<svg version="1.1" id="Layer_1" xmlns="http://www.w3.org/2000/svg" xmlns:xlink="http://www.w3.org/1999/xlink" x="0px" y="0px"
	 viewBox="0 0 262.7 240" style="enable-background:new 0 0 262.7 240;" xml:space="preserve">
<style type="text/css">
	.st0{fill:#EAD33F;}
</style>
<g>
	<polygon class="st0" points="157.6,72.7 144.4,72.7 144.4,59.1 130.8,59.1 130.8,45.9 157.6,45.9 	"/>
	<polygon class="st0" points="158.6,158.1 104.7,158.1 104.7,45.9 118.7,45.9 118.7,144.1 144.6,144.1 144.6,85.6 158.6,85.6 	"/>
	<path class="st0" d="M131.6,217.8c-15.8,0-28.7-12.9-28.7-28.7s12.9-28.7,28.7-28.7c15.8,0,28.7,12.9,28.7,28.7
		S147.5,217.8,131.6,217.8 M131.6,172.1c-9.4,0-17,7.6-17,17c0,9.4,7.6,17,17,17c9.4,0,17-7.6,17-17
		C148.6,179.7,141,172.1,131.6,172.1"/>
	<path class="st0" d="M213.1,237.8h-163c-17,0-32.8-9.1-41.3-23.9c-8.5-14.7-8.5-33,0-47.7L90.3,25.2c8.5-14.7,24.3-23.9,41.3-23.9
		c17,0,32.8,9.1,41.3,23.9l79.9,138.5c5.2,7.8,8,17,8,26.5C260.8,216.4,239.4,237.8,213.1,237.8 M131.6,16
		c-11.8,0-22.7,6.3-28.6,16.5L21.6,173.6c-5.9,10.2-5.9,22.8,0,33c5.9,10.2,16.8,16.5,28.6,16.5H213c18.3,0,33.1-14.8,33.1-33
		c0-6.6-1.9-13-5.6-18.4l-0.3-0.5l-80-138.7C154.3,22.3,143.3,16,131.6,16"/>
</g>
</svg>
