<?xml version="1.0" encoding="UTF-8" standalone="no"?>
<svg width="60px" height="60px" viewBox="0 0 60 60" version="1.1" xmlns="http://www.w3.org/2000/svg" xmlns:xlink="http://www.w3.org/1999/xlink">
    <!-- Generator: Sketch 3.8.3 (29802) - http://www.bohemiancoding.com/sketch -->
    <title>icon-credito</title>
    <desc>Created with Sketch.</desc>
    <defs>
        <polygon id="path-1" points="0.000333333333 60 60 60 60 0.000666666667 0.000333333333 0.000666666667"></polygon>
    </defs>
    <g id="Page-1" stroke="none" stroke-width="1" fill="none" fill-rule="evenodd">
        <g id="icon-credito">
            <g id="Page-1">
                <g>
                    <g id="icon-credito">
                        <g id="Group">
                            <g id="Page-1">
                                <g id="mask-2" fill="#FFFFFF">
                                    <polygon id="path-1" points="0.000333333333 60 60 60 60 0.000666666667 0.000333333333 0.000666666667"></polygon>
                                </g>
                                <g id="Fill-1-Clipped">
                                    <mask id="mask-2" fill="white">
                                        <use xlink:href="#path-1"></use>
                                    </mask>
                                    <g id="path-1"></g>
                                    <path d="M41.617,4.349 C43.617,3.184 47.3003333,0.667333333 49.967,0.667333333 C51.6503333,0.667333333 52.9836667,1.849 52.9836667,3.51566667 C52.9836667,6.699 47.967,11.734 44.7836667,14.749 C45.6336667,15.0823333 47.467,14.4173333 47.467,16.084 C47.467,18.099 44.617,17.099 43.9503333,17.434 C48.1336667,23.134 57.5003333,34.8673333 57.5003333,41.5656667 C57.5003333,42.0673333 57.167,44.4173333 57.167,44.749 C57.167,44.749 60.0003333,47.6006667 60.0003333,48.7656667 C60.0003333,50.1173333 53.9836667,52.1156667 53.1503333,52.634 C48.967,54.4656667 43.9503333,56.8156667 39.9503333,58.3173333 C38.6003333,58.6673333 34.9336667,60.0006667 33.4336667,60.0006667 C33.1003333,60.0006667 30.5836667,59.5006667 29.417,59.0006667 C23.2336667,56.9823333 10.867,52.799 10.5336667,52.799 C10.0336667,52.799 9.867,54.134 9.20033333,54.9673333 L0.667,54.9673333 L0.000333333333,54.3006667 L0.000333333333,30.834 C0.333666667,29.834 1.00033333,30.0006667 1.33366667,30.0006667 C4.18366667,30.0006667 13.7003333,31.3323333 14.5336667,33.0173333 C14.867,33.5156667 14.867,34.534 14.7003333,35.2006667 C15.217,35.3673333 15.8836667,35.534 16.3836667,35.534 C19.0503333,29.5006667 23.7336667,23.4673333 28.5836667,17.434 C27.7503333,17.099 25.067,18.099 25.067,16.084 C25.067,14.4173333 26.7336667,15.0823333 27.7503333,14.749 C24.9003333,11.9006667 19.5503333,6.86733333 19.5503333,3.51566667 C19.5503333,1.51733333 21.2336667,0.667333333 22.567,0.667333333 C24.7336667,0.667333333 28.7503333,2.68233333 30.7503333,4.349 C32.7503333,2.184 33.9336667,0.000666666667 36.267,0.000666666667 C38.267,0.000666666667 39.4503333,1.68233333 41.617,4.349 L41.617,4.349 L41.617,4.349 Z M41.2836667,7.36733333 C42.2836667,7.36733333 47.467,3.184 49.6336667,3.184 L50.3003333,3.184 C50.3003333,3.349 50.467,3.184 50.467,3.51566667 C50.467,6.36733333 42.7836667,12.9006667 40.9503333,14.749 L31.5836667,14.749 C27.917,11.399 22.9003333,7.034 22.067,3.51566667 L22.2336667,3.184 C22.9003333,3.184 23.7336667,3.349 24.567,3.684 C25.067,3.85066667 30.417,7.36733333 31.2503333,7.36733333 C32.5836667,7.36733333 35.1003333,2.35066667 36.267,2.35066667 C37.4336667,2.35066667 39.7836667,7.36733333 41.2836667,7.36733333 L41.2836667,7.36733333 L41.2836667,7.36733333 Z M40.7836667,17.6006667 C43.4503333,20.784 54.9836667,35.8656667 54.9836667,41.5656667 C54.9836667,41.9006667 54.817,43.0656667 54.817,43.9156667 C54.1503333,43.7506667 52.9836667,43.584 52.4836667,43.584 C52.1503333,43.584 46.1336667,44.9173333 42.617,45.7506667 C42.2836667,44.749 41.9503333,43.4006667 41.2836667,42.5673333 C39.9503333,40.5656667 37.267,40.049 35.4336667,39.5506667 C34.4336667,39.2156667 33.1003333,39.5506667 32.2503333,39.2156667 C31.7503333,39.2156667 31.5836667,38.7173333 31.2503333,38.7173333 C27.2503333,37.7173333 23.067,36.8673333 19.0503333,36.034 C21.7336667,30.0006667 26.7336667,23.6323333 31.7503333,17.6006667 L40.7836667,17.6006667 L40.7836667,17.6006667 Z M3.35033333,32.6823333 C4.517,32.8506667 12.2003333,33.349 12.2003333,34.8673333 C12.2003333,37.884 7.68366667,52.1156667 7.68366667,52.4506667 L2.50033333,52.4506667 L2.50033333,32.6823333 L3.35033333,32.6823333 L3.35033333,32.6823333 Z M14.867,37.884 C22.2336667,39.5506667 29.5836667,41.234 36.767,42.734 C38.1003333,42.9006667 40.117,44.9173333 39.9503333,46.4156667 C38.6003333,46.7673333 37.267,47.099 35.9336667,47.2656667 L23.7336667,44.9173333 C22.567,45.0823333 22.4003333,45.7506667 22.4003333,46.2506667 C22.4003333,46.7673333 22.7336667,47.434 23.2336667,47.434 C24.9003333,47.9323333 26.9003333,48.2673333 28.7503333,48.6006667 C31.0836667,49.1006667 33.6003333,49.6156667 36.1003333,49.9506667 L52.4836667,46.2506667 C53.817,46.084 55.6503333,46.7673333 56.817,48.099 C55.317,48.7656667 38.1003333,57.484 33.4336667,57.484 C31.917,57.484 15.3836667,51.784 11.2003333,50.1173333 L14.367,37.884 L14.867,37.884 L14.867,37.884 Z" id="Fill-1" fill="#FFBF00" mask="url(#mask-2)"></path>
                                </g>
                            </g>
                            <path d="M26.6666667,38.5215012 L27.4815785,37.1934965 C27.5486498,37.0995968 27.637518,37.0191125 27.7481855,36.9520412 C27.8588532,36.8849698 27.9745493,36.8514348 28.0952777,36.8514348 C28.269663,36.8514348 28.455783,36.9218585 28.6536432,37.0627082 C28.8515035,37.2035578 29.0879262,37.3594963 29.3629183,37.530528 C29.6379107,37.7015598 29.9598478,37.8574982 30.3287398,37.9983478 C30.6976318,38.1391975 31.1402957,38.2096213 31.6567445,38.2096213 C32.4481855,38.2096213 33.0602017,38.0218245 33.4928113,37.6462253 C33.9254212,37.2706263 34.1417227,36.7340642 34.1417227,36.0365228 C34.1417227,35.6475095 34.0427942,35.3289257 33.8449338,35.080762 C33.6470735,34.8325983 33.3871763,34.6246805 33.0652342,34.4570023 C32.743292,34.2893242 32.3760823,34.1467998 31.963594,34.029425 C31.5511057,33.9120503 31.1319165,33.7846168 30.706014,33.6471207 C30.2801113,33.5096247 29.8609222,33.3453025 29.4484338,33.1541493 C29.0359455,32.9629962 28.6687358,32.7114827 28.3467937,32.3996013 C28.0248515,32.0877198 27.766631,31.700389 27.5721243,31.2375973 C27.3776177,30.7748055 27.2803658,30.2047082 27.2803658,29.5272883 C27.2803658,28.984011 27.3876782,28.4541558 27.6023063,27.9377072 C27.8169343,27.4212583 28.1304878,26.9651805 28.5429762,26.56946 C28.9554645,26.1737395 29.4635218,25.8551557 30.0671632,25.6136992 C30.6708047,25.3722425 31.364982,25.251516 32.1497158,25.251516 C33.0283495,25.251516 33.838223,25.38901 34.5793607,25.6640023 C35.3204982,25.9389945 35.9526355,26.3246485 36.4757913,26.820976 L35.7816072,28.1288593 C35.7011217,28.276416 35.6139303,28.3820517 35.5200305,28.4457695 C35.4261307,28.5094872 35.3121113,28.5413455 35.1779687,28.5413455 C35.030412,28.5413455 34.8727968,28.4876893 34.7051187,28.3803753 C34.5374405,28.2730612 34.3379063,28.1540115 34.1065105,28.0232225 C33.8751147,27.8924335 33.6018033,27.7733838 33.2865683,27.6660698 C32.9713333,27.5587558 32.6024468,27.5050995 32.1798978,27.5050995 C31.7975915,27.5050995 31.4622402,27.5520487 31.1738337,27.6459485 C30.8854272,27.7398483 30.6422975,27.8689585 30.4444373,28.0332832 C30.246577,28.1976078 30.1006992,28.3954652 30.0067993,28.626861 C29.9128997,28.8582568 29.8659505,29.1114472 29.8659505,29.3864393 C29.8659505,29.73521 29.9632023,30.0252888 30.157709,30.2566848 C30.3522157,30.4880807 30.6104362,30.6876147 30.9323783,30.8552928 C31.2543205,31.0229712 31.6215302,31.1705257 32.0340185,31.2979612 C32.4465068,31.4253965 32.8690495,31.5628905 33.3016592,31.7104473 C33.734269,31.8580042 34.1568117,32.0307102 34.5693,32.2285703 C34.9817883,32.4264307 35.348998,32.6745907 35.6709402,32.9730578 C35.9928822,33.271525 36.2527795,33.6370578 36.4506398,34.0696677 C36.6485,34.5022773 36.7474287,35.0271022 36.7474287,35.6441578 C36.7474287,36.3148707 36.6317325,36.9453312 36.4003365,37.5355583 C36.1689407,38.1257855 35.8319127,38.6388732 35.3892422,39.0748363 C34.9465718,39.5107997 34.4049793,39.852858 33.7644487,40.1010217 C33.123918,40.3491855 32.3945288,40.4732655 31.5762593,40.4732655 C31.1000533,40.4732655 30.6322382,40.427993 30.1728,40.3374468 C29.7133617,40.2469005 29.2723747,40.1161135 28.8498257,39.9450818 C28.4272767,39.77405 28.0298853,39.567809 27.6576398,39.3263523 C27.2853942,39.0848958 26.9550732,38.8166147 26.6666667,38.5215012 L26.6666667,38.5215012 L26.6666667,38.5215012 Z M38.0854938,41.2881773 L44.101757,25.895397 C44.2090712,25.6069905 44.3767468,25.3856587 44.6047892,25.2313947 C44.8328313,25.0771308 45.097759,25 45.3995797,25 L46.4961895,25 L40.520169,40.3424772 C40.4061478,40.6577122 40.2200278,40.8941348 39.9618033,41.0517523 C39.703579,41.2093698 39.4403282,41.2881773 39.1720432,41.2881773 L38.0854938,41.2881773 L38.0854938,41.2881773 Z" id="S/" fill="#FFBF00"></path>
                        </g>
                    </g>
                </g>
            </g>
        </g>
    </g>
</svg>