<?xml version="1.0" encoding="UTF-8" standalone="no"?>
<svg width="192px" height="32px" viewBox="0 0 192 32" version="1.1" xmlns="http://www.w3.org/2000/svg" xmlns:xlink="http://www.w3.org/1999/xlink">
    <!-- Generator: Sketch 3.8.3 (29802) - http://www.bohemiancoding.com/sketch -->
    <title>Group</title>
    <desc>Created with Sketch.</desc>
    <defs></defs>
    <g id="Page-1" stroke="none" stroke-width="1" fill="none" fill-rule="evenodd">
        <g id="Group">
            <polygon id="Fill-108" fill="#005FAB" points="61.189 31.93 84.609 31.93 84.609 0.501 61.189 0.501"></polygon>
            <path d="M92.7305,25.3398 C92.7305,25.6598 92.8495,25.8198 93.2595,25.9198 L93.2595,26.2108 L89.9495,26.2108 L89.9495,25.9198 C90.3595,25.8008 90.5095,25.6598 90.5095,25.3398 L90.5095,15.6508 C90.5095,15.3298 90.3595,15.1798 89.9495,15.0698 L89.9495,14.7798 L97.4595,14.7798 C97.7995,14.7798 97.9595,14.6408 98.0805,14.2498 L98.3705,14.2498 L98.3705,17.1408 L98.0805,17.1408 C97.9595,16.7498 97.8305,16.6108 97.4595,16.6108 L92.7305,16.6108 L92.7305,19.4498 L95.5705,19.4498 C95.9005,19.4498 96.0805,19.3108 96.1795,18.9098 L96.4695,18.9098 L96.4695,21.7398 L96.1795,21.7398 C96.0805,21.3298 95.9005,21.1998 95.5705,21.1998 L92.7305,21.1998 L92.7305,25.3398 Z" id="Fill-110" fill="#005FAB"></path>
            <path d="M103.2305,25.3398 C103.2305,25.6598 103.3705,25.8198 103.7795,25.9198 L103.7795,26.2108 L100.4805,26.2108 L100.4805,25.9198 C100.8795,25.8008 101.0195,25.6598 101.0195,25.3398 L101.0195,15.6508 C101.0195,15.3298 100.8795,15.1798 100.4805,15.0698 L100.4805,14.7798 L103.7795,14.7798 L103.7795,15.0698 C103.3905,15.1598 103.2305,15.3298 103.2305,15.6508 L103.2305,25.3398 Z" id="Fill-111" fill="#005FAB"></path>
            <path d="M108.9004,25.3398 C108.9004,25.6598 109.0404,25.8008 109.4394,25.9198 L109.4394,26.2108 L106.3494,26.2108 L106.3494,25.9198 C106.7594,25.8008 106.8794,25.6598 106.8794,25.3398 L106.8794,15.6508 C106.8794,15.3298 106.7594,15.1798 106.3494,15.0698 L106.3494,14.7798 L110.2594,14.7798 L110.2594,15.0698 C109.9694,15.1208 109.8204,15.2308 109.8204,15.4008 C109.8204,15.4998 109.9104,15.7398 110.0804,15.9898 L113.7594,22.1998 L113.7594,15.6508 C113.7594,15.3298 113.6204,15.1798 113.2194,15.0698 L113.2194,14.7798 L116.3204,14.7798 L116.3204,15.0698 C115.9004,15.1798 115.7694,15.3298 115.7694,15.6508 L115.7694,25.3398 C115.7694,25.6598 115.9004,25.8008 116.3204,25.9198 L116.3204,26.2108 L112.7694,26.2108 L112.7694,25.9198 C113.0804,25.8808 113.2504,25.7908 113.2504,25.6108 C113.2504,25.5298 113.1894,25.3608 113.0604,25.1508 L108.9004,18.1408 L108.9004,25.3398 Z" id="Fill-112" fill="#005FAB"></path>
            <path d="M124.2793,21.6406 L121.5093,21.6406 L122.9103,17.4996 L124.2793,21.6406 Z M124.7503,23.3206 L125.3003,24.9106 C125.4293,25.2496 125.4493,25.4106 125.4493,25.5096 C125.4493,25.7306 125.3803,25.8006 124.9903,25.9196 L124.9903,26.2106 L128.4803,26.2106 L128.4803,25.9196 C128.0293,25.8206 127.8703,25.6506 127.6303,24.9406 L124.5803,15.9996 C124.4693,15.6906 124.4203,15.5206 124.4203,15.4106 C124.4203,15.2306 124.5403,15.1406 124.9203,15.0706 L124.9203,14.7806 L121.1603,14.7806 L121.1603,15.0706 C121.5093,15.1406 121.6703,15.2406 121.6403,15.4106 C121.6403,15.5406 121.5903,15.7206 121.4903,15.9996 L118.3593,24.9406 C118.0903,25.7206 118.0093,25.8206 117.5503,25.9196 L117.5503,26.2106 L120.7303,26.2106 L120.7303,25.9196 C120.3403,25.8006 120.2593,25.7306 120.2593,25.5096 C120.2593,25.4106 120.2793,25.2496 120.4203,24.9106 L120.9603,23.3206 L124.7503,23.3206 Z" id="Fill-113" fill="#005FAB"></path>
            <path d="M132.3301,25.3398 C132.3301,25.6598 132.4701,25.8008 132.8911,25.9198 L132.8911,26.2108 L129.7901,26.2108 L129.7901,25.9198 C130.1891,25.8008 130.3401,25.6598 130.3401,25.3398 L130.3401,15.6508 C130.3401,15.3298 130.1891,15.1798 129.7901,15.0698 L129.7901,14.7798 L133.7201,14.7798 L133.7201,15.0698 C133.4101,15.1208 133.2691,15.2308 133.2691,15.4008 C133.2691,15.4998 133.3591,15.7398 133.5191,15.9898 L137.2101,22.1998 L137.2101,15.6508 C137.2101,15.3298 137.0701,15.1798 136.6601,15.0698 L136.6601,14.7798 L139.7601,14.7798 L139.7601,15.0698 C139.3591,15.1798 139.2101,15.3298 139.2101,15.6508 L139.2101,25.3398 C139.2101,25.6598 139.3591,25.8008 139.7601,25.9198 L139.7601,26.2108 L136.2101,26.2108 L136.2101,25.9198 C136.5191,25.8808 136.6991,25.7908 136.6991,25.6108 C136.6991,25.5298 136.6411,25.3608 136.5101,25.1508 L132.3301,18.1408 L132.3301,25.3398 Z" id="Fill-114" fill="#005FAB"></path>
            <path d="M151.3594,25.0703 L151.1504,25.2203 C150.9394,25.0903 150.7794,25.0413 150.6504,25.0413 C150.4694,25.0703 150.4004,25.0903 149.7794,25.5093 C148.8594,26.1213 147.9004,26.4203 146.7304,26.4203 C143.5194,26.4203 141.3904,24.0703 141.3904,20.4903 C141.3904,16.9203 143.5004,14.5803 146.7304,14.5803 C148.0494,14.5803 148.8494,14.8303 150.0194,15.6403 C150.3304,15.8503 150.5004,15.9203 150.6504,15.9293 C150.7594,15.9293 150.9294,15.8813 151.1504,15.7593 L151.3594,15.9293 L149.2304,18.4703 L149.0094,18.3103 C149.0704,18.1313 149.0894,18.0303 149.0894,17.8813 C149.0894,17.1313 148.0094,16.4613 146.7694,16.4613 C144.9104,16.4613 143.6704,18.0603 143.6704,20.4903 C143.6704,22.9403 144.9104,24.5303 146.7694,24.5303 C148.0094,24.5303 149.0894,23.8713 149.0894,23.1103 C149.0894,22.9503 149.0704,22.8713 149.0094,22.6793 L149.2304,22.5303 L151.3594,25.0703 Z" id="Fill-115" fill="#005FAB"></path>
            <path d="M156.0801,25.3398 C156.0801,25.6598 156.2201,25.8198 156.6201,25.9198 L156.6201,26.2108 L153.3201,26.2108 L153.3201,25.9198 C153.7201,25.8008 153.8701,25.6598 153.8701,25.3398 L153.8701,15.6508 C153.8701,15.3298 153.7201,15.1798 153.3201,15.0698 L153.3201,14.7798 L156.6201,14.7798 L156.6201,15.0698 C156.2401,15.1598 156.0801,15.3298 156.0801,15.6508 L156.0801,25.3398 Z" id="Fill-116" fill="#005FAB"></path>
            <path d="M161.8398,24.3809 L166.9298,24.3809 C167.2788,24.3809 167.4298,24.2399 167.5498,23.8509 L167.8398,23.8509 L167.8398,26.7399 L167.5498,26.7399 C167.4488,26.3509 167.2998,26.2109 166.9298,26.2109 L159.0798,26.2109 L159.0798,25.9199 C159.4808,25.8009 159.6198,25.6599 159.6198,25.3399 L159.6198,15.6599 C159.6198,15.3299 159.4808,15.1799 159.0798,15.0699 L159.0798,14.7799 L166.7498,14.7799 C167.0898,14.7799 167.2598,14.6409 167.3598,14.2499 L167.6508,14.2499 L167.6508,17.1409 L167.3598,17.1409 C167.2398,16.7499 167.0998,16.6099 166.7498,16.6099 L161.8398,16.6099 L161.8398,19.4499 L164.6898,19.4499 C165.0288,19.4499 165.1898,19.3109 165.3108,18.9099 L165.5898,18.9099 L165.5898,21.7399 L165.3108,21.7399 C165.1898,21.3299 165.0398,21.1999 164.6898,21.1999 L161.8398,21.1999 L161.8398,24.3809 Z" id="Fill-117" fill="#005FAB"></path>
            <path d="M172.75,19.7002 L172.75,16.6102 L175.33,16.6102 C176.63,16.6102 177.22,17.0902 177.22,18.1402 C177.22,19.2002 176.63,19.7002 175.33,19.7002 L172.75,19.7002 Z M172.75,21.5302 L174.71,21.5302 L176.63,25.1602 C176.73,25.3902 176.779,25.5512 176.779,25.6502 C176.779,25.8402 176.66,25.9002 176.311,25.9402 L176.311,26.2112 L180.029,26.2112 L180.029,25.9402 C179.52,25.8202 179.17,25.4902 178.84,24.8712 L176.939,21.2912 C178.561,20.8712 179.42,19.7702 179.42,18.1402 C179.42,17.2302 179.07,16.3502 178.48,15.7402 C177.779,15.0302 176.92,14.7802 175.25,14.7802 L169.99,14.7802 L169.99,15.0702 C170.4,15.1792 170.55,15.3302 170.55,15.6602 L170.55,25.3402 C170.55,25.6602 170.4,25.8012 169.99,25.9402 L169.99,26.2112 L173.3,26.2112 L173.3,25.9402 C172.9,25.8202 172.75,25.6602 172.75,25.3402 L172.75,21.5302 Z" id="Fill-118" fill="#005FAB"></path>
            <path d="M186.2695,16.4609 C188.1095,16.4609 189.2795,18.0299 189.2795,20.4899 C189.2795,22.9499 188.1095,24.5299 186.2695,24.5299 C184.4395,24.5299 183.2695,22.9399 183.2695,20.4899 C183.2695,18.0299 184.4395,16.4609 186.2695,16.4609 M186.2695,14.5799 C183.0705,14.5799 180.9905,16.9199 180.9905,20.4899 C180.9905,24.0699 183.0705,26.4199 186.2695,26.4199 C189.4695,26.4199 191.5705,24.0699 191.5705,20.4899 C191.5705,16.9199 189.4695,14.5799 186.2695,14.5799" id="Fill-119" fill="#005FAB"></path>
            <path d="M3.6406,19.25 L3.6406,16.61 L6.0196,16.61 C7.4496,16.61 8.0196,16.99 8.0196,17.93 C8.0196,18.871 7.4396,19.25 6.0196,19.25 L3.6406,19.25 Z M0.8696,14.78 L0.8696,15.07 C1.2796,15.18 1.4196,15.33 1.4196,15.66 L1.4196,25.34 C1.4196,25.66 1.2796,25.801 0.8696,25.92 L0.8696,26.211 L6.6606,26.211 C9.3206,26.211 10.7096,25.08 10.7096,22.92 C10.7096,21.42 9.9296,20.42 8.4806,20.061 C9.7096,19.45 10.1606,18.82 10.1606,17.66 C10.1606,16.82 9.8696,16.07 9.3206,15.59 C8.6606,15.01 7.9006,14.78 6.4006,14.78 L0.8696,14.78 Z M3.6406,24.381 L3.6406,21 L6.2406,21 C7.7196,21 8.4196,21.53 8.4196,22.7 C8.4196,23.851 7.7196,24.381 6.2406,24.381 L3.6406,24.381 Z" id="Fill-120" fill="#005FAB"></path>
            <path d="M18.0195,21.6406 L15.2405,21.6406 L16.6505,17.4996 L18.0195,21.6406 Z M18.4995,23.3206 L19.0405,24.9106 C19.1605,25.2496 19.1995,25.4106 19.1995,25.5096 C19.1995,25.7306 19.1095,25.8006 18.7195,25.9196 L18.7195,26.2106 L22.2305,26.2106 L22.2305,25.9196 C21.7595,25.8206 21.6095,25.6506 21.3795,24.9406 L18.3205,15.9996 C18.2195,15.6906 18.1605,15.5206 18.1605,15.4106 C18.1605,15.2306 18.2905,15.1406 18.6505,15.0706 L18.6505,14.7806 L14.9005,14.7806 L14.9005,15.0706 C15.2595,15.1406 15.4005,15.2406 15.3905,15.4106 C15.3905,15.5406 15.3305,15.7206 15.2305,15.9996 L12.0995,24.9406 C11.8305,25.7206 11.7405,25.8206 11.2905,25.9196 L11.2905,26.2106 L14.4695,26.2106 L14.4695,25.9196 C14.0805,25.8006 13.9905,25.7306 13.9905,25.5096 C13.9905,25.4106 14.0405,25.2496 14.1505,24.9106 L14.6995,23.3206 L18.4995,23.3206 Z" id="Fill-121" fill="#005FAB"></path>
            <path d="M26.1602,25.3398 C26.1602,25.6598 26.2902,25.8008 26.6992,25.9198 L26.6992,26.2108 L23.5992,26.2108 L23.5992,25.9198 C24.0002,25.8008 24.1402,25.6598 24.1402,25.3398 L24.1402,15.6508 C24.1402,15.3298 24.0002,15.1798 23.5992,15.0698 L23.5992,14.7798 L27.5192,14.7798 L27.5192,15.0698 C27.2202,15.1208 27.0902,15.2308 27.0902,15.4008 C27.0902,15.4998 27.1702,15.7398 27.3302,15.9898 L31.0102,22.1998 L31.0102,15.6508 C31.0102,15.3298 30.8802,15.1798 30.4702,15.0698 L30.4702,14.7798 L33.5702,14.7798 L33.5702,15.0698 C33.1602,15.1798 33.0292,15.3298 33.0292,15.6508 L33.0292,25.3398 C33.0292,25.6598 33.1602,25.8008 33.5702,25.9198 L33.5702,26.2108 L30.0192,26.2108 L30.0192,25.9198 C30.3302,25.8808 30.5192,25.7908 30.5192,25.6108 C30.5192,25.5298 30.4392,25.3608 30.3102,25.1508 L26.1602,18.1408 L26.1602,25.3398 Z" id="Fill-122" fill="#005FAB"></path>
            <path d="M45.1699,25.0703 L44.9599,25.2203 C44.7499,25.0903 44.5899,25.0413 44.4599,25.0413 C44.2789,25.0703 44.2099,25.0903 43.5899,25.5093 C42.6699,26.1213 41.7309,26.4203 40.5399,26.4203 C37.3299,26.4203 35.2099,24.0703 35.2099,20.4903 C35.2099,16.9203 37.3199,14.5803 40.5399,14.5803 C41.8589,14.5803 42.6499,14.8303 43.8399,15.6403 C44.1299,15.8503 44.3109,15.9203 44.4599,15.9293 C44.5699,15.9293 44.7309,15.8813 44.9599,15.7593 L45.1699,15.9293 L43.0399,18.4703 L42.8199,18.3103 C42.8909,18.1313 42.9099,18.0303 42.9099,17.8813 C42.9099,17.1313 41.8109,16.4613 40.5799,16.4613 C38.7199,16.4613 37.4899,18.0603 37.4899,20.4903 C37.4899,22.9403 38.7199,24.5303 40.5799,24.5303 C41.8109,24.5303 42.9099,23.8713 42.9099,23.1103 C42.9099,22.9503 42.8909,22.8713 42.8199,22.6793 L43.0399,22.5303 L45.1699,25.0703 Z" id="Fill-123" fill="#005FAB"></path>
            <path d="M51.3398,16.4609 C53.1698,16.4609 54.3498,18.0299 54.3498,20.4899 C54.3498,22.9499 53.1698,24.5299 51.3398,24.5299 C49.5198,24.5299 48.3298,22.9399 48.3298,20.4899 C48.3298,18.0299 49.5198,16.4609 51.3398,16.4609 M51.3398,14.5799 C48.1408,14.5799 46.0608,16.9199 46.0608,20.4899 C46.0608,24.0699 48.1408,26.4199 51.3398,26.4199 C54.5398,26.4199 56.6298,24.0699 56.6298,20.4899 C56.6298,16.9199 54.5398,14.5799 51.3398,14.5799" id="Fill-124" fill="#005FAB"></path>
            <path d="M71.8701,25.791 C71.9701,24.02 71.9901,21.58 71.9901,20.131 C71.9901,18.68 71.9701,16.18 71.8701,14.42 C69.4601,14.95 67.6601,17.301 67.6601,20.101 C67.6601,22.91 69.4601,25.25 71.8701,25.791 M73.9601,26.43 C74.0101,27.041 74.0601,27.45 74.1891,27.641 C74.5001,28.15 75.4101,28.09 75.4101,28.09 L75.4101,28.32 C74.2901,28.381 73.9201,28.19 72.9001,28.211 C71.8701,28.19 71.5101,28.381 70.3801,28.32 L70.3801,28.09 C70.3801,28.09 71.3001,28.15 71.6091,27.641 C71.7201,27.45 71.7791,27.041 71.8201,26.43 C68.3301,25.971 65.6601,23.301 65.6601,20.08 C65.6601,16.86 68.3301,14.2 71.8201,13.74 C71.7791,13.17 71.7201,12.791 71.6091,12.61 C71.3001,12.101 70.3801,12.16 70.3801,12.16 L70.3801,11.92 C71.5101,11.871 71.8701,12.061 72.9001,12.03 C73.9201,12.061 74.2901,11.871 75.4101,11.92 L75.4101,12.16 C75.4101,12.16 74.5001,12.101 74.1891,12.61 C74.0701,12.791 74.0191,13.17 73.9701,13.74 C77.4601,14.2 80.1301,16.86 80.1301,20.08 C80.1301,23.301 77.4601,25.98 73.9601,26.43 M73.8101,20.131 C73.8101,21.58 73.8301,24.02 73.9201,25.791 C76.3301,25.25 78.1411,22.92 78.1411,20.101 C78.1411,17.301 76.3301,14.95 73.9201,14.42 C73.8301,16.18 73.8101,18.68 73.8101,20.131" id="Fill-125" fill="#FFDF00"></path>
        </g>
    </g>
</svg>