<svg width="681" height="80" xmlns="http://www.w3.org/2000/svg">
 <!-- Generator: Sketch 3.8.3 (29802) - http://www.bohemiancoding.com/sketch -->
 <title>Group</title>
 <desc>Created with Sketch.</desc>

 <g>
  <title>background</title>
  <rect fill="none" id="canvas_background" height="82" width="683" y="-1" x="-1"/>
 </g>
 <g>
  <title>Layer 1</title>
  <path id="svg_1" d="m3.500015,38c0,-20.648401 17.351598,-38 38.000001,-38l593.999924,0c20.648438,0 38,17.351599 38,38l0,4c0,20.648403 -17.351563,38 -38,38l-593.999924,0c-20.648403,0 -38.000001,-17.351597 -38.000001,-38l0,-4z" stroke-linecap="null" stroke-linejoin="null" stroke-width="0" fill="#FFDF00"/>
  <g fill-rule="evenodd" fill="none" id="Page-1">
   <g id="Group">
    <polygon points="527.3193359375,55.42900085449219 550.7393798828125,55.42900085449219 550.7393798828125,24 527.3193359375,24 " fill="#005FAB" id="Fill-108"/>
    <path fill="#005FAB" id="Fill-110" d="m558.86084,48.838799c0,0.32 0.119019,0.480003 0.529053,0.580002l0,0.291l-3.310059,0l0,-0.291c0.410034,-0.119003 0.560059,-0.260002 0.560059,-0.580002l0,-9.688995c0,-0.320999 -0.150024,-0.471001 -0.560059,-0.581001l0,-0.290001l7.51001,0c0.340088,0 0.5,-0.139 0.621094,-0.529999l0.289917,0l0,2.890999l-0.289917,0c-0.121094,-0.390999 -0.25,-0.529999 -0.621094,-0.529999l-4.729004,0l0,2.838997l2.840088,0c0.329956,0 0.51001,-0.139 0.609009,-0.540001l0.289917,0l0,2.830002l-0.289917,0c-0.098999,-0.409996 -0.279053,-0.540001 -0.609009,-0.540001l-2.840088,0l0,4.139999z"/>
    <path fill="#005FAB" id="Fill-111" d="m569.36084,48.838799c0,0.32 0.140015,0.480003 0.549072,0.580002l0,0.291l-3.299072,0l0,-0.291c0.399048,-0.119003 0.539063,-0.260002 0.539063,-0.580002l0,-9.688995c0,-0.320999 -0.140015,-0.471001 -0.539063,-0.581001l0,-0.290001l3.299072,0l0,0.290001c-0.389038,0.089996 -0.549072,0.260002 -0.549072,0.581001l0,9.688995z"/>
    <path fill="#005FAB" id="Fill-112" d="m575.030762,48.838799c0,0.32 0.140015,0.460999 0.539063,0.580002l0,0.291l-3.090088,0l0,-0.291c0.410034,-0.119003 0.530029,-0.260002 0.530029,-0.580002l0,-9.688995c0,-0.320999 -0.119995,-0.471001 -0.530029,-0.581001l0,-0.290001l3.910034,0l0,0.290001c-0.290039,0.051003 -0.438965,0.160995 -0.438965,0.331001c0,0.098999 0.089966,0.338997 0.26001,0.588997l3.678955,6.209999l0,-6.548996c0,-0.320999 -0.139038,-0.471001 -0.540039,-0.581001l0,-0.290001l3.101074,0l0,0.290001c-0.420044,0.110001 -0.551025,0.260002 -0.551025,0.581001l0,9.688995c0,0.32 0.130981,0.460999 0.551025,0.580002l0,0.291l-3.551025,0l0,-0.291c0.311035,-0.039001 0.480957,-0.128998 0.480957,-0.308998c0,-0.081001 -0.060913,-0.25 -0.189941,-0.459999l-4.160034,-7.010002l0,7.198997z"/>
    <path fill="#005FAB" id="Fill-113" d="m590.409668,45.139603l-2.77002,0l1.401001,-4.140999l1.369019,4.140999zm0.471069,1.68l0.549927,1.589996c0.129028,0.339005 0.149048,0.5 0.149048,0.598999c0,0.221001 -0.06897,0.291 -0.458984,0.410004l0,0.291l3.48999,0l0,-0.291c-0.45105,-0.098999 -0.609985,-0.268997 -0.849976,-0.979004l-3.050049,-8.940994c-0.110962,-0.309006 -0.160034,-0.479004 -0.160034,-0.589005c0,-0.18 0.119995,-0.269997 0.5,-0.339996l0,-0.290001l-3.76001,0l0,0.290001c0.348999,0.07 0.51001,0.169998 0.47998,0.339996c0,0.130005 -0.049927,0.309998 -0.149902,0.589005l-3.130981,8.940994c-0.269043,0.779999 -0.350098,0.880005 -0.809082,0.979004l0,0.291l3.180054,0l0,-0.291c-0.390015,-0.119003 -0.471069,-0.189003 -0.471069,-0.410004c0,-0.098999 0.02002,-0.259995 0.161011,-0.598999l0.540039,-1.589996l3.790039,0z"/>
    <path fill="#005FAB" id="Fill-114" d="m598.460449,48.838799c0,0.32 0.140015,0.460999 0.561035,0.580002l0,0.291l-3.100952,0l0,-0.291c0.398926,-0.119003 0.549927,-0.260002 0.549927,-0.580002l0,-9.688995c0,-0.320999 -0.151001,-0.471001 -0.549927,-0.581001l0,-0.290001l3.929932,0l0,0.290001c-0.309937,0.051003 -0.450928,0.160995 -0.450928,0.331001c0,0.098999 0.089966,0.338997 0.25,0.588997l3.690918,6.209999l0,-6.548996c0,-0.320999 -0.140015,-0.471001 -0.549927,-0.581001l0,-0.290001l3.099976,0l0,0.290001c-0.401001,0.110001 -0.550049,0.260002 -0.550049,0.581001l0,9.688995c0,0.32 0.149048,0.460999 0.550049,0.580002l0,0.291l-3.550049,0l0,-0.291c0.309082,-0.039001 0.489014,-0.128998 0.489014,-0.308998c0,-0.081001 -0.057983,-0.25 -0.188965,-0.459999l-4.180054,-7.010002l0,7.198997z"/>
    <path fill="#005FAB" id="Fill-115" d="m617.489746,48.569298l-0.208984,0.150002c-0.210938,-0.129997 -0.370972,-0.179001 -0.5,-0.179001c-0.180908,0.028999 -0.25,0.049004 -0.870972,0.468002c-0.920044,0.612 -1.879028,0.911003 -3.04895,0.911003c-3.21106,0 -5.340088,-2.350006 -5.340088,-5.930008c0,-3.569992 2.109985,-5.909996 5.340088,-5.909996c1.31897,0 2.118896,0.25 3.28894,1.059998c0.311035,0.209999 0.480957,0.280006 0.630981,0.289001c0.109009,0 0.279053,-0.047997 0.5,-0.169998l0.208984,0.169998l-2.128906,2.541l-0.221069,-0.159996c0.061035,-0.179001 0.080078,-0.279999 0.080078,-0.429001c0,-0.75 -1.080078,-1.419998 -2.320068,-1.419998c-1.859009,0 -3.098999,1.598999 -3.098999,4.028992c0,2.450005 1.23999,4.040009 3.098999,4.040009c1.23999,0 2.320068,-0.659004 2.320068,-1.420006c0,-0.159996 -0.019043,-0.238998 -0.080078,-0.431l0.221069,-0.148994l2.128906,2.539993z"/>
    <path fill="#005FAB" id="Fill-116" d="m622.210449,48.838799c0,0.32 0.140015,0.480003 0.540039,0.580002l0,0.291l-3.300049,0l0,-0.291c0.400024,-0.119003 0.550049,-0.260002 0.550049,-0.580002l0,-9.688995c0,-0.320999 -0.150024,-0.471001 -0.550049,-0.581001l0,-0.290001l3.300049,0l0,0.290001c-0.380005,0.089996 -0.540039,0.260002 -0.540039,0.581001l0,9.688995z"/>
    <path fill="#005FAB" id="Fill-117" d="m627.970215,47.879898l5.089966,0c0.348999,0 0.5,-0.140999 0.619995,-0.529999l0.290039,0l0,2.889l-0.290039,0c-0.100952,-0.389 -0.25,-0.528999 -0.619995,-0.528999l-7.849976,0l0,-0.291c0.401001,-0.118996 0.540039,-0.260002 0.540039,-0.580002l0,-9.68c0,-0.329994 -0.139038,-0.479996 -0.540039,-0.589996l0,-0.290001l7.670044,0c0.339966,0 0.509888,-0.139 0.609985,-0.529999l0.291016,0l0,2.890999l-0.291016,0c-0.119995,-0.390999 -0.26001,-0.530998 -0.609985,-0.530998l-4.910034,0l0,2.839996l2.849976,0c0.338989,0 0.5,-0.139 0.620972,-0.540001l0.279053,0l0,2.830002l-0.279053,0c-0.120972,-0.409996 -0.270996,-0.540001 -0.620972,-0.540001l-2.849976,0l0,3.181z"/>
    <path fill="#005FAB" id="Fill-118" d="m638.880371,43.199196l0,-3.089996l2.580078,0c1.299927,0 1.889893,0.480003 1.889893,1.529999c0,1.059998 -0.589966,1.559998 -1.889893,1.559998l-2.580078,0zm0,1.830002l1.960083,0l1.919922,3.630005c0.099976,0.229996 0.149048,0.390999 0.149048,0.489998c0,0.190002 -0.119019,0.25 -0.468018,0.290001l0,0.270996l3.718018,0l0,-0.270996c-0.509033,-0.120003 -0.859009,-0.449997 -1.189087,-1.069l-1.901001,-3.580002c1.62207,-0.419998 2.481079,-1.520996 2.481079,-3.151001c0,-0.909996 -0.349976,-1.789993 -0.940063,-2.399994c-0.700928,-0.710007 -1.559937,-0.960007 -3.22998,-0.960007l-5.26001,0l0,0.290001c0.410034,0.109001 0.560059,0.260002 0.560059,0.590004l0,9.68c0,0.32 -0.150024,0.460999 -0.560059,0.599998l0,0.270996l3.310059,0l0,-0.270996c-0.400024,-0.120003 -0.550049,-0.279999 -0.550049,-0.599998l0,-3.810005z"/>
    <path fill="#005FAB" id="Fill-119" d="m652.399902,39.9599c1.839966,0 3.01001,1.569 3.01001,4.028999c0,2.459999 -1.170044,4.040001 -3.01001,4.040001c-1.829956,0 -3,-1.590004 -3,-4.040001c0,-2.459999 1.170044,-4.028999 3,-4.028999m0,-1.880997c-3.198975,0 -5.279053,2.339996 -5.279053,5.909996c0,3.580002 2.080078,5.93 5.279053,5.93c3.199951,0 5.301025,-2.349998 5.301025,-5.93c0,-3.57 -2.101074,-5.909996 -5.301025,-5.909996"/>
    <path fill="#005FAB" id="Fill-120" d="m469.770996,42.749001l0,-2.639999l2.378998,0c1.429993,0 2,0.379997 2,1.32c0,0.941002 -0.579987,1.32 -2,1.32l-2.378998,0zm-2.770996,-4.470001l0,0.290001c0.410004,0.110001 0.550018,0.260002 0.550018,0.590004l0,9.679993c0,0.320007 -0.140015,0.461006 -0.550018,0.580002l0,0.291l5.790985,0c2.660034,0 4.049011,-1.130997 4.049011,-3.291c0,-1.5 -0.779999,-2.5 -2.229004,-2.858994c1.229004,-0.611008 1.679993,-1.241005 1.679993,-2.401001c0,-0.840004 -0.290985,-1.590004 -0.839966,-2.070007c-0.660034,-0.579994 -1.420013,-0.809998 -2.920013,-0.809998l-5.531006,0zm2.770996,9.600998l0,-3.380997l2.600006,0c1.479004,0 2.179016,0.529999 2.179016,1.699997c0,1.151001 -0.700012,1.681 -2.179016,1.681l-2.600006,0z"/>
    <path fill="#005FAB" id="Fill-121" d="m484.149902,45.139603l-2.779022,0l1.410034,-4.140999l1.368988,4.140999zm0.480011,1.68l0.540985,1.589996c0.119995,0.339005 0.158997,0.5 0.158997,0.598999c0,0.221001 -0.089996,0.291 -0.480011,0.410004l0,0.291l3.511017,0l0,-0.291c-0.470978,-0.098999 -0.621002,-0.268997 -0.850983,-0.979004l-3.059021,-8.940994c-0.101013,-0.309006 -0.160004,-0.479004 -0.160004,-0.589005c0,-0.18 0.130005,-0.269997 0.490021,-0.339996l0,-0.290001l-3.75,0l0,0.290001c0.359009,0.07 0.5,0.169998 0.48999,0.339996c0,0.130005 -0.059998,0.309998 -0.160004,0.589005l-3.131012,8.940994c-0.268982,0.779999 -0.359009,0.880005 -0.80899,0.979004l0,0.291l3.178986,0l0,-0.291c-0.388977,-0.119003 -0.479004,-0.189003 -0.479004,-0.410004c0,-0.098999 0.050018,-0.259995 0.160034,-0.598999l0.548981,-1.589996l3.800018,0z"/>
    <path fill="#005FAB" id="Fill-122" d="m492.290619,48.838799c0,0.32 0.129974,0.460999 0.539001,0.580002l0,0.291l-3.100037,0l0,-0.291c0.401001,-0.119003 0.541016,-0.260002 0.541016,-0.580002l0,-9.688995c0,-0.320999 -0.140015,-0.471001 -0.541016,-0.581001l0,-0.290001l3.920013,0l0,0.290001c-0.298981,0.051003 -0.428986,0.160995 -0.428986,0.331001c0,0.098999 0.079987,0.338997 0.23999,0.588997l3.679993,6.209999l0,-6.548996c0,-0.320999 -0.130005,-0.471001 -0.539978,-0.581001l0,-0.290001l3.099976,0l0,0.290001c-0.409973,0.110001 -0.540985,0.260002 -0.540985,0.581001l0,9.688995c0,0.32 0.131012,0.460999 0.540985,0.580002l0,0.291l-3.550995,0l0,-0.291c0.311005,-0.039001 0.5,-0.128998 0.5,-0.308998c0,-0.081001 -0.079987,-0.25 -0.209015,-0.459999l-4.149963,-7.010002l0,7.198997z"/>
    <path fill="#005FAB" id="Fill-123" d="m511.300293,48.569298l-0.209961,0.150002c-0.210083,-0.129997 -0.369995,-0.179001 -0.5,-0.179001c-0.18103,0.028999 -0.25,0.049004 -0.869995,0.468002c-0.920013,0.612 -1.859039,0.911003 -3.050018,0.911003c-3.210022,0 -5.330017,-2.350006 -5.330017,-5.930008c0,-3.569992 2.109985,-5.909996 5.330017,-5.909996c1.31897,0 2.109985,0.25 3.300018,1.059998c0.289917,0.209999 0.470947,0.280006 0.619995,0.289001c0.109985,0 0.270996,-0.047997 0.5,-0.169998l0.209961,0.169998l-2.130005,2.541l-0.220001,-0.159996c0.070953,-0.179001 0.089996,-0.279999 0.089996,-0.429001c0,-0.75 -1.098969,-1.419998 -2.329987,-1.419998c-1.859985,0 -3.089996,1.598999 -3.089996,4.028992c0,2.450005 1.230011,4.040009 3.089996,4.040009c1.231018,0 2.329987,-0.659004 2.329987,-1.420006c0,-0.159996 -0.019043,-0.238998 -0.089996,-0.431l0.220001,-0.148994l2.130005,2.539993z"/>
    <path fill="#005FAB" id="Fill-124" d="m517.470215,39.9599c1.829956,0 3.01001,1.569 3.01001,4.028999c0,2.459999 -1.180054,4.040001 -3.01001,4.040001c-1.820068,0 -3.01001,-1.590004 -3.01001,-4.040001c0,-2.459999 1.189941,-4.028999 3.01001,-4.028999m0,-1.880997c-3.198975,0 -5.279053,2.339996 -5.279053,5.909996c0,3.580002 2.080078,5.93 5.279053,5.93c3.199951,0 5.289917,-2.349998 5.289917,-5.93c0,-3.57 -2.089966,-5.909996 -5.289917,-5.909996"/>
    <path fill="#FFDF00" id="Fill-125" d="m538.000488,49.290001c0.099976,-1.770996 0.119995,-4.210999 0.119995,-5.660004c0,-1.450996 -0.02002,-3.950996 -0.119995,-5.710999c-2.410034,0.529999 -4.209961,2.881004 -4.209961,5.681c0,2.809006 1.799927,5.149002 4.209961,5.690002m2.089966,0.639c0.050049,0.611 0.099976,1.019997 0.229004,1.210999c0.311035,0.509003 1.221069,0.448997 1.221069,0.448997l0,0.230003c-1.119995,0.060997 -1.48999,-0.129997 -2.51001,-0.109001c-1.030029,-0.020996 -1.390015,0.169998 -2.52002,0.109001l0,-0.230003c0,0 0.920044,0.060005 1.229004,-0.448997c0.110962,-0.191002 0.170044,-0.599998 0.210938,-1.210999c-3.48999,-0.459 -6.159912,-3.128998 -6.159912,-6.349998c0,-3.220001 2.669922,-5.880005 6.159912,-6.340004c-0.040894,-0.57 -0.099976,-0.948997 -0.210938,-1.129997c-0.30896,-0.509003 -1.229004,-0.449997 -1.229004,-0.449997l0,-0.240005c1.130005,-0.048996 1.48999,0.140999 2.52002,0.110001c1.02002,0.030998 1.390015,-0.158997 2.51001,-0.110001l0,0.240005c0,0 -0.910034,-0.059006 -1.221069,0.449997c-0.119019,0.181 -0.169922,0.559998 -0.218994,1.129997c3.48999,0.459999 6.160034,3.120003 6.160034,6.340004c0,3.221001 -2.670044,5.899994 -6.170044,6.349998m-0.150024,-6.299004c0,1.449005 0.02002,3.889008 0.110107,5.660004c2.409912,-0.541 4.220947,-2.871002 4.220947,-5.690002c0,-2.799995 -1.811035,-5.151001 -4.220947,-5.681c-0.090088,1.760002 -0.110107,4.260002 -0.110107,5.710999"/>
   </g>
  </g>
  <text xml:space="preserve" text-anchor="start" font-family="'Times New Roman', Times, serif" font-size="24" id="svg_2" y="49.449997" x="36" stroke-width="0" fill="#005FAB">Comprobante de operación</text>
 </g>
</svg>