<?xml version="1.0" standalone="no"?><!-- Generator: Adobe Fireworks CS6, Export SVG Extension by Aaron Beall (http://fireworks.abeall.com) . Version: 0.6.1  --><!DOCTYPE svg PUBLIC "-//W3C//DTD SVG 1.1//EN" "http://www.w3.org/Graphics/SVG/1.1/DTD/svg11.dtd"><svg id="Untitled-P%E1gina%201" viewBox="0 0 17 19" style="background-color:#ffffff00" version="1.1"	xmlns="http://www.w3.org/2000/svg" xmlns:xlink="http://www.w3.org/1999/xlink" xml:space="preserve"	x="0px" y="0px" width="17px" height="19px">	<g id="Capa%201">		<path d="M 9.7082 2.8986 C 10.1591 2.9963 10.5905 3.1464 11 3.345 C 11.0074 3.0161 11.0401 2.6954 11.095 2.38 C 10.6636 2.259 10.2187 2.1655 9.7605 2.1059 C 9.8117 1.4508 9.8744 1.0092 10.0092 0.7982 C 10.3801 0.2064 11.46 0.2805 11.46 0.2805 L 11.46 0.0118 C 10.1288 -0.0522 9.7029 0.1659 8.4959 0.1323 C 7.2912 0.1659 6.8655 -0.0522 5.5376 0.0118 L 5.5376 0.2805 C 5.5376 0.2805 6.6193 0.2064 6.9896 0.7982 C 7.1194 1.0092 7.1839 1.4508 7.2363 2.1097 C 3.1387 2.6432 0 5.7264 0 9.4533 C 0 13.1827 3.1425 16.2671 7.2414 16.7987 C 7.189 17.5077 7.1257 17.9759 6.9896 18.2002 C 6.6193 18.7907 5.5376 18.7199 5.5376 18.7199 L 5.5376 18.9884 C 6.8655 19.0518 7.2912 18.8325 8.4959 18.8649 C 9.7029 18.8325 10.1288 19.0518 11.46 18.9884 L 11.46 18.7199 C 11.46 18.7199 10.3801 18.7907 10.0092 18.2002 C 9.8667 17.9759 9.804 17.5077 9.7516 16.7987 C 13.6591 16.2996 16.7004 13.4708 16.98 9.98 C 16.1518 9.9143 15.3667 9.6921 14.655 9.345 L 14.6567 9.4742 C 14.6567 12.7296 12.5257 15.439 9.7042 16.0529 C 9.5853 14.0146 9.5533 11.183 9.5533 9.5128 C 9.5533 7.823 9.5853 4.9388 9.7082 2.8986 ZM 7.2869 16.0492 C 4.4666 15.4365 2.3439 12.7258 2.3439 9.4742 C 2.3439 6.2244 4.4666 3.51 7.2855 2.8986 C 7.4051 4.9388 7.4364 7.823 7.4364 9.5128 C 7.4364 11.183 7.4077 14.0146 7.2869 16.0492 Z" fill="#58afff"/>	</g></svg>