<?xml version="1.0" standalone="no"?>
<!DOCTYPE svg PUBLIC "-//W3C//DTD SVG 1.1//EN" "http://www.w3.org/Graphics/SVG/1.1/DTD/svg11.dtd" >
<svg xmlns="http://www.w3.org/2000/svg">
<metadata>Generated by IcoMoon</metadata>
<defs>
<font id="icomoon" horiz-adv-x="1024">
<font-face units-per-em="1024" ascent="960" descent="-64" />
<missing-glyph horiz-adv-x="1024" />
<glyph unicode="&#x20;" horiz-adv-x="512" d="" />
<glyph unicode="&#xe900;" glyph-name="android" horiz-adv-x="819" d="M634.941 670.438l89.666 182.394-17.23 8.47-87.014-177.002c-56.037 50.034-129.904 80.499-210.762 80.499-79.992 0-153.141-29.814-208.955-78.898l-88.872 175.501-17.13-8.674 91.395-180.486c-57.565-57.39-93.238-136.728-93.238-224.243v-102.4c0-60.71 145.077-112 316.8-112s316.8 51.29 316.8 112v102.4c0 86.605-34.946 165.194-91.459 222.438zM409.6 745.6c164.098 0 297.6-133.502 297.6-297.6 0-20.037-32-43.534-83.51-61.326-58.766-20.296-134.798-31.474-214.090-31.474s-155.323 11.178-214.090 31.474c-51.51 17.792-83.51 41.29-83.51 61.326 0 164.098 133.502 297.6 297.6 297.6zM623.69 284.274c-58.766-20.296-134.798-31.474-214.090-31.474s-155.323 11.178-214.090 31.474c-51.51 17.792-83.51 41.29-83.51 61.326v64.73c44.862-42.838 163.045-74.33 297.6-74.33s252.738 31.491 297.6 74.33v-64.73c0-20.037-32-43.534-83.51-61.326zM253.974 522.458c6.678 0 12.11 5.432 12.11 12.109s-5.434 12.11-12.11 12.11c-6.677 0-12.109-5.434-12.109-12.11s5.432-12.109 12.109-12.109zM565.226 522.458c6.678 0 12.109 5.432 12.109 12.109s-5.432 12.11-12.109 12.11-12.11-5.434-12.11-12.11 5.432-12.109 12.11-12.109z" />
<glyph unicode="&#xe901;" glyph-name="apple" horiz-adv-x="859" d="M604.077 960v-38.076c-1.922-14.029-7.687-26.049-9.609-40.078-11.528-68.139-113.357-156.302-172.921-158.304-5.764 0-9.606-4.007-15.37-4.007h-5.764c0 4.007-1.919 8.014-1.919 14.022 0 100.2 71.089 206.399 199.819 226.443h5.764zM429.234 681.459c73.008 0 119.124 44.085 197.9 44.085 53.796 0 140.258-36.071 186.368-98.188-84.539-60.119-111.438-130.259-111.438-202.399 0-76.149 38.43-170.337 140.258-214.416-17.296-70.147-126.811-274.541-234.404-274.541-63.405 0-115.279 42.083-178.685 42.083-67.247 0-117.202-42.083-178.685-42.083-46.11 0-80.695 26.049-128.727 78.154-48.039 56.109-74.937 114.222-97.99 168.326-11.528 28.061-40.349 152.299-40.349 194.382v64.126c1.922 18.032 3.845 40.081 7.683 58.117 3.845 22.042 13.451 46.090 21.137 68.132 32.659 102.195 146.022 158.307 220.956 158.307 78.772 0 126.808-44.085 195.974-44.085z" />
<glyph unicode="&#xe902;" glyph-name="arrow-right" horiz-adv-x="576" d="M576 448l-506.483-512-69.517 70.278 436.966 441.722-436.966 441.722 69.517 70.278 506.483-512z" />
<glyph unicode="&#xe903;" glyph-name="banca" horiz-adv-x="1252" d="M1201.183 945.445h-1154.688c-19.371 3.891-42.621-27.247-46.495-38.923v-751.209c0-7.782 23.25-31.138 38.747-38.921h480.475c-7.751-58.385-11.625-101.2-15.499-140.12-15.499 3.891-58.123 0-58.123-27.247 0-7.785 11.625-23.356 19.374-27.247h317.733c15.499 0 23.25 23.353 23.25 27.247 0 38.921-58.123 27.247-58.123 27.247-3.874 42.815-7.748 81.735-15.499 140.12h476.601c11.622 0 34.87 23.35 42.621 42.812v747.318c0 19.462-42.621 38.923-50.372 38.923zM1201.183 902.628v-743.424h-1150.811v743.424h1150.811zM910.222 704.111c2.913 1.493-288.256 100.489-288.959 99.445l-279.93-86.471v-25.941h559.858c4.517 4.324 6.201 11.52 9.031 12.968zM770.256 725.732h-293.47l144.478 43.236 148.992-43.236zM630.292 647.908h-22.574c-13.545-77.824-45.15-34.588-45.15-103.765 0-86.471 94.814-34.591 94.814-95.118 0-4.326-13.545-30.265-36.119-30.265-22.576 0-40.636 30.265-31.605 51.88h-27.090v-47.556c0-8.647 27.090-25.938 36.119-34.588 4.517-12.971-4.514-38.912 27.090-43.236 9.031 12.968 9.031 34.588 18.059 43.236 4.514 8.65 22.576 17.294 27.090 21.618 9.031 12.971 18.059 30.262 18.059 38.912 0 90.795-99.328 38.912-99.328 95.118 0 17.294 13.545 30.265 31.605 30.265 36.119 0 18.059-34.588 45.15-34.588 13.545 0 18.059 8.647 18.059 17.297 0 12.968-36.122 38.912-45.15 51.88 0 12.974 0 25.938-9.031 38.912zM368.424 634.934h-22.576v-285.352h22.576v285.352zM508.388 626.293l-9.031 8.641h-22.571v-285.352h22.571c4.517 4.324 4.517 8.644 9.031 12.974v263.737zM774.77 621.969c-4.514 4.324-4.514 8.641-9.025 12.965h-22.576v-285.352h22.576c4.511 4.324 4.511 12.974 9.025 21.618v250.769zM901.191 358.226v276.708h-27.088v-285.352h22.574l4.514 8.644zM905.708 293.376h-559.861l-4.514-30.265h559.858c4.517 4.324 9.031 4.324 9.031 17.291 0 8.65-4.514 8.65-4.514 12.974z" />
<glyph unicode="&#xe904;" glyph-name="borrar" horiz-adv-x="819" d="M798.306 810.306c-14.246 14.248-32.392 21.694-52.906 21.694h-476.6c-38.885 0-69.947-15.043-92.33-45.506l-176.47-235.995 177.222-235.186c11.046-14.168 23.078-25.122 36.784-32.667 16.206-8.925 34.642-13.846 54.794-13.846h476.8c41.906 0 73.6 35.611 73.6 78.4v409.6c0 20.514-6.646 39.259-20.894 53.506zM661.507 428.309c2.445-2.416 3.795-5.699 3.795-9.136 0-3.442-1.35-6.725-3.795-9.131l-34.917-35.048c-2.52-2.538-5.8-3.794-9.106-3.794-3.314 0-6.621 1.256-9.112 3.794l-121.968 122.338-121.968-122.338c-2.493-2.538-5.8-3.794-9.112-3.794-3.306 0-6.587 1.256-9.107 3.794l-34.918 35.048c-2.443 2.406-3.797 5.69-3.797 9.131 0 3.437 1.354 6.72 3.797 9.136l122.458 122.091-122.781 122.075c-5.034 5.045-5.034 13.237 0 18.283l34.891 35.070c2.426 2.418 5.683 3.771 9.114 3.771 3.443 0 6.702-1.355 9.106-3.771l122.317-120.853 122.315 120.853c2.406 2.418 5.666 3.771 9.109 3.771 3.429 0 6.686-1.355 9.112-3.771l34.891-35.070c5.034-5.045 5.034-13.237 0-18.283l-122.784-122.075 122.461-122.091z" />
<glyph unicode="&#xe905;" glyph-name="call" horiz-adv-x="1071" d="M905.337 618.664h102.437c13.205 0 62.771-35.924 62.771-64.67v-208.393c-26.424-79.048-82.609-68.264-118.947-68.264-26.433 0-46.262 0-69.39 10.78-13.214 3.579-42.952 35.924-42.952 53.89v233.546c-26.442 204.8-165.218 301.815-303.984 301.815-112.342 0-224.68-50.306-287.469-222.767-6.591-17.967-13.205-53.904-13.205-64.67v-348.532c-6.609-50.297 79.299-143.709 125.561-140.125h9.905c0 32.344 29.738 86.235 62.781 86.235h188.332c69.39-17.953 66.085-82.632 66.085-125.757 0-10.775-3.3-53.886-9.914-79.043-3.309-10.78-33.043-46.708-52.866-46.708h-191.637c-26.442 3.584-72.685 57.493-59.48 86.239-56.162 3.579-115.633 21.551-168.499 93.407-33.047 46.718-46.262 93.417-46.262 140.125 0 7.187 6.605 21.565 0 21.565h-89.218c-19.819 3.593-69.385 35.924-69.385 68.264v204.8c0 17.967 33.038 68.264 59.466 68.264h102.442c3.3 3.593 3.3 7.187 3.3 10.785 39.657 222.762 221.375 330.552 370.064 330.552 151.99 0 330.408-107.79 370.064-341.336zM155.294 536.022v-172.46h-79.299v172.46h79.299zM994.551 536.022v-172.46h-79.299v172.46h79.299zM479.106 471.352c0-39.517-26.442-57.484-52.866-57.484-36.347 0-52.876 32.326-52.876 57.484 0 32.335 26.438 57.484 52.876 57.484 29.733 0 52.866-25.149 52.866-57.484zM707.091 471.352c0-43.11-26.438-57.484-52.871-57.484-36.338 0-52.862 32.326-52.862 57.484 0 32.335 26.438 57.484 52.862 57.484 33.043 0 52.871-25.149 52.871-57.484zM607.958 104.876v-86.244h-158.59v86.244h158.59z" />
<glyph unicode="&#xe906;" glyph-name="cerdo" horiz-adv-x="1331" d="M386.56 960c22.188-5.594 44.372-11.187 61.015-22.372 22.185-11.187 55.465-61.522 72.105-61.522 11.095 0 83.2 11.187 94.295 11.187 16.637 0 88.745-5.594 127.572-11.187 110.932-16.778 305.065-111.859 371.628-262.866 22.185-5.594 44.372 0 66.557-5.594 16.643 0 44.375-27.965 61.015-27.965 11.092 0 38.828 11.185 72.105 16.778l5.548-50.335h-33.28c5.548-22.372 11.092-39.153 11.092-55.931 0-39.15-27.732-55.928-61.012-55.928-49.92 0-61.012 39.15-61.012 67.116 0 16.778 5.545 27.965 16.637 44.744-11.092 11.185-33.277 16.778-44.372 16.778-11.092 0-16.64-5.594-16.64-11.185 0-16.781 16.64-83.894 16.64-95.081 0-106.266-55.465-229.309-171.945-324.39v-123.044c-27.732-83.894-77.655-72.709-127.575-72.709s-110.932-11.185-122.025 89.487h-171.948c-27.735-100.672-72.108-89.487-133.12-89.487-16.64 0-44.372 0-61.015 5.594-22.185 5.594-61.012 44.744-61.012 55.931v111.859c-44.372 39.15-88.745 95.078-133.12 128.635-27.732 16.781-61.012 0-94.292 5.594-5.548 0-83.2 39.15-83.2 67.116v285.238c33.28 83.894 122.025 72.709 183.040 78.3 22.185 44.746 99.84 106.268 149.76 134.231v151.009h66.56zM469.76 797.806c49.92 5.594 138.665 16.778 149.76 16.778 171.948 0 454.828-106.266 454.828-357.947 0-100.672-49.923-190.159-171.948-290.831v-151.009c-16.64-11.185-44.375-11.185-55.468-11.185-83.2 0-44.372 33.556-61.012 111.857-88.745-22.372-99.84-22.372-166.4-22.372-11.095 0-88.745 5.594-133.12 16.781-22.188-22.372-11.092-61.524-16.64-95.081-11.092-11.185-38.828-11.185-49.92-11.185s-49.92 0-55.465 16.776v134.231c-49.923 27.965-133.123 100.675-160.855 156.603h-127.572c-5.548 5.591-16.64 16.778-22.188 22.372v234.9c5.548 11.187 11.092 27.965 27.732 27.965h122.028c27.732 67.116 138.668 139.822 188.588 173.381v111.859c33.28 0 55.468-55.928 77.652-83.894zM702.72 764.247c72.105-11.185 171.948-39.15 244.055-117.45l-33.283-33.556c-88.745 83.894-183.040 106.266-282.88 106.266v44.741h72.108zM408.748 613.24c0-27.965-27.735-50.337-49.923-50.337-33.277 0-44.372 16.778-44.372 44.744 0 22.372 0 50.335 44.372 50.335 27.735 0 49.923-27.963 49.923-44.741zM1246.292 490.194l-22.185 5.594v16.778h16.64c0-5.594 5.545-16.778 5.545-22.372z" />
<glyph unicode="&#xe907;" glyph-name="check" horiz-adv-x="1408" d="M1410.547 884.058c0-75.085-145.114-175.181-217.677-266.957-104.819-116.787-233.818-241.933-338.624-358.733-16.115-8.333-257.997-300.326-322.483-300.326-64.512 0-443.443 417.126-467.622 450.496-40.32 66.739-64.499 75.085-64.499 116.8 0 66.739 48.371 100.109 96.742 100.109 72.563 0 137.062-108.454 225.741-200.23 64.512-58.394 137.075-141.811 209.638-216.896 233.805 241.933 475.661 508.89 725.594 759.155 8.077 16.691 32.256 16.691 56.448 16.691 40.307 0 96.742-50.048 96.742-100.109z" />
<glyph unicode="&#xe908;" glyph-name="clave-ojo" horiz-adv-x="1449" d="M1448.993 553.103c-0.029 0.609-0.087 1.188-0.13 1.782-0.029 0.304-0.043 0.609-0.072 0.898-0.043 0.435-0.116 0.869-0.174 1.29-0.058 0.507-0.116 1.014-0.203 1.507-0.014 0.058-0.029 0.13-0.029 0.188-1.782 11.201-7.057 21.707-15.143 29.793-46.225 54.789-101.217 103.55-157.137 148.080-120.432 95.957-258.165 176.235-410.201 208.549-87.871 18.664-176.293 19.461-264.628 3.666-80.351-14.375-157.789-44.254-230.271-81.293-113.447-57.963-217.055-137.879-307.332-227.474-16.708-16.577-33.328-33.502-48.515-51.514-20.229-23.968-20.229-52.355 0-76.322 46.225-54.789 101.217-103.536 157.137-148.080 120.446-95.957 258.18-176.221 410.216-208.535 87.871-18.678 176.308-19.475 264.643-3.681 80.336 14.375 157.774 44.254 230.271 81.293 113.447 57.977 217.055 137.879 307.332 227.474 16.708 16.592 33.328 33.502 48.515 51.514 8.086 8.1 13.36 18.592 15.143 29.807 0 0.058 0.014 0.13 0.029 0.188 0.087 0.507 0.145 1 0.203 1.507 0.058 0.42 0.13 0.855 0.174 1.29 0.029 0.304 0.043 0.594 0.072 0.898 0.043 0.58 0.101 1.159 0.13 1.768 0.043 0.898 0.072 1.797 0.072 2.71s-0.058 1.797-0.101 2.695zM724.533 271.593c-153.992 0-278.815 124.822-278.815 278.815 0 153.978 124.822 278.815 278.815 278.815s278.815-124.822 278.815-278.815c0-153.992-124.822-278.815-278.815-278.815zM816.824 550.407c0-50.971-41.32-92.291-92.291-92.291s-92.291 41.32-92.291 92.291c0 50.971 41.32 92.291 92.291 92.291s92.291-41.32 92.291-92.291z" />
<glyph unicode="&#xe909;" glyph-name="clave-ojo2" horiz-adv-x="1877" d="M1390.618 851.2l-214.912-121.6c-88.499 76.8-158.029 89.6-240.196 89.6-63.215 0-63.215 6.4-139.059-25.6-158.037-57.6-252.843-268.8-227.567-390.4-107.452-64-328.687-192-341.333-192-18.953 0-145.374 115.2-208.589 179.2-18.961 19.2-18.961 44.8-18.961 64 0 96 335.010 320 353.98 326.4 214.903 128 366.618 179.2 581.53 179.2 151.697 0 303.411-25.6 455.108-108.8zM1826.765 908.8c0-64-278.118-185.6-297.088-198.4-372.941-204.8-1371.657-768-1422.217-768-56.892 0-50.577 32-50.577 57.6 0 12.8 0 19.2 0 25.6 82.176 70.4 202.274 121.6 290.773 172.8 366.618 204.8 1365.333 761.6 1415.893 761.6 44.254 0 63.215-32 63.215-51.2zM1049.284 659.2l-341.333-185.6c25.284 172.8 126.421 211.2 227.558 211.2 44.237 0 56.883 6.4 113.775-25.6zM1852.049 512c18.961-12.8 25.284-44.8 25.284-57.6 0-57.6-63.206-102.4-126.413-160-189.636-153.6-398.234-275.2-575.215-320-75.853-19.2-221.235-38.4-240.196-38.4-132.745 0-322.372 51.2-442.47 115.2 63.215 38.4 189.628 121.6 208.589 121.6 12.646 0 37.922-32 56.892-38.4 63.206-38.4 113.775-51.2 176.99-51.2 195.951 0 366.618 153.6 366.618 384 0 6.4 0 19.2 0 32 113.775 64 328.687 185.6 347.657 185.6 37.922 0 195.942-160 202.266-172.8zM1169.382 403.2c-37.922-121.6-145.382-192-227.558-192-18.961 0-69.53 12.8-107.452 25.6 107.452 64 221.235 128 335.010 185.6v-19.2z" />
<glyph unicode="&#xe90a;" glyph-name="config" horiz-adv-x="819" d="M447.889 181.776h-76.587c-19.972 0-36.823 14.303-40.075 33.997l-12.861 77.988c-8.708 3.121-17.302 6.685-25.706 10.691l-64.283-46.064c-15.77-11.297-38.658-9.388-52.363 4.26l-54.157 54.157c-14.139 14.164-15.925 36.192-4.268 52.412l46.064 64.225c-4.006 8.43-7.578 17.023-10.691 25.747l-77.971 12.845c-19.735 3.277-34.030 20.161-34.030 40.075v76.554c0 20.013 14.311 36.88 34.030 40.108l77.963 12.845c3.105 8.692 6.676 17.285 10.674 25.698l-46.072 64.258c-11.608 16.261-9.814 38.289 4.276 52.396l54.141 54.133c13.697 13.713 36.643 15.614 52.412 4.293l64.25-46.064c8.413 4.006 17.023 7.569 25.723 10.674l12.853 78.012c3.244 19.694 20.095 33.997 40.075 33.997h76.571c19.972 0 36.815-14.303 40.083-33.997l12.845-78.012c8.716-3.105 17.293-6.668 25.731-10.674l64.258 46.064c15.794 11.321 38.74 9.421 52.429-4.309l54.108-54.1c14.115-14.098 15.917-36.127 4.284-52.38l-46.096-64.299c4.030-8.446 7.602-17.039 10.691-25.698l77.996-12.861c19.718-3.203 34.054-20.046 34.054-40.051v-76.554c0-20.029-14.352-36.88-34.062-40.083l-77.971-12.878c-3.088-8.675-6.652-17.277-10.691-25.715l46.113-64.258c11.649-16.253 9.822-38.273-4.284-52.396l-54.141-54.108c-7.668-7.684-17.891-11.919-28.77-11.919v0c-8.511 0-16.687 2.621-23.634 7.586l-64.291 46.096c-8.413-4.014-16.99-7.586-25.682-10.691l-12.878-77.996c-3.244-19.702-20.095-34.005-40.059-34.005zM290.931 345.395c3.031 0 6.078-0.705 8.864-2.195 13.148-6.963 26.919-12.689 40.96-16.99 6.865-2.13 11.936-7.938 13.107-15.008l14.721-89.26c0.221-1.343 1.36-2.318 2.728-2.318h76.587c1.343 0 2.515 0.958 2.72 2.302l14.754 89.276c1.155 7.070 6.242 12.878 13.091 15.008 13.951 4.284 27.746 10.019 40.96 17.007 6.316 3.391 14.017 2.834 19.874-1.343l73.564-52.748c2.13-0.5 2.9-0.369 3.572 0.319l54.174 54.125c0.942 0.958 1.057 2.499 0.287 3.613l-52.765 73.507c-4.194 5.857-4.719 13.55-1.343 19.89 7.021 13.279 12.755 27.058 17.007 40.96 2.097 6.881 7.889 11.952 14.991 13.124l89.276 14.737c1.376 0.221 2.351 1.376 2.351 2.753v76.554c0 1.376-0.991 2.515-2.335 2.72l-89.276 14.721c-7.102 1.171-12.911 6.25-15.008 13.124-4.26 13.877-9.97 27.664-17.007 40.944-3.375 6.332-2.851 14.049 1.327 19.882l52.748 73.572c0.786 1.090 0.672 2.646-0.27 3.58l-54.141 54.125c-0.688 0.68-1.425 0.811-1.95 0.811l-75.203-53.248c-5.874-4.17-13.566-4.694-19.907-1.327-13.165 6.988-26.927 12.689-40.911 16.966-6.881 2.081-11.985 7.905-13.14 15.016l-14.721 89.293c-0.205 1.335-1.376 2.31-2.736 2.31h-76.571c-1.368 0-2.507-0.975-2.728-2.327l-14.721-89.301c-1.171-7.094-6.267-12.919-13.14-15-13.992-4.293-27.754-9.978-40.911-16.966-6.349-3.367-14.057-2.843-19.89 1.327l-73.572 52.74c-2.154 0.573-2.908 0.401-3.58-0.295l-54.141-54.125c-0.967-0.958-1.081-2.49-0.279-3.637l52.724-73.523c4.17-5.833 4.702-13.55 1.343-19.882-6.98-13.148-12.681-26.927-16.99-40.96-2.114-6.857-7.93-11.936-15.016-13.107l-89.276-14.705c-1.36-0.221-2.327-1.384-2.327-2.769v-76.554c0-1.36 0.999-2.548 2.376-2.769l89.219-14.688c7.086-1.171 12.911-6.242 15.016-13.124 4.301-14.017 10.011-27.812 16.99-40.944 3.367-6.332 2.851-14.049-1.343-19.907l-52.74-73.556c-0.795-1.090-0.655-2.638 0.295-3.588l54.141-54.141c0.696-0.688 1.532-0.786 1.966-0.786l75.186 53.232c3.269 2.367 7.135 3.555 11.018 3.555zM409.584 417.116c-73.507 0-133.292 59.81-133.292 133.292 0 73.49 59.785 133.284 133.292 133.284s133.3-59.793 133.3-133.284c0-73.482-59.793-133.292-133.3-133.292zM409.584 645.853c-52.634 0-95.453-42.82-95.453-95.437s42.828-95.453 95.453-95.453c52.642 0 95.461 42.836 95.461 95.453-0.008 52.617-42.82 95.437-95.461 95.437z" />
<glyph unicode="&#xe90b;" glyph-name="credito" horiz-adv-x="989" d="M228.894 925.128c0-28.533-22.254-41.214-38.151-41.214-22.253 0-34.968 22.193-34.968 38.043 0 25.362 12.715 38.043 34.968 38.043s38.151-19.022 38.151-34.872zM540.442 906.106c31.79-3.171 82.654-22.193 117.624-38.045 28.612-12.68 136.7-91.938 136.7-136.321 0-9.511-3.18-15.851-9.537-22.191-108.088-57.067-222.535-114.13-336.983-171.195l114.448-234.602c-3.18-22.191-22.253-28.533-31.792-28.533-9.537 0-19.073 3.171-22.253 9.511-41.327 76.087-76.297 152.173-114.446 228.26l-327.443-161.684c-41.329 9.511-50.866 85.598-50.866 91.939v98.278c63.582 272.644 225.714 370.923 425.995 370.923 6.358 0 66.761 0 98.553-6.34zM718.468 744.422l-642.172-317.029 3.18 3.171c0 12.682 0 25.362-3.18 98.278 54.044 240.942 200.282 323.369 368.772 323.369 69.939 0 209.819-22.191 273.399-107.788zM317.906 189.622c31.792 0 54.044 53.896 117.626 53.896 60.402 0 82.656-53.896 114.446-53.896 31.792 0 54.044 53.896 117.626 53.896 60.402 0 82.656-53.896 114.446-53.896 28.612 0 63.582 53.896 117.626 53.896 22.253 0 89.014-15.853 89.014-53.896 0-22.193-25.432-31.703-31.792-31.703-15.895 0-34.97 28.533-57.222 28.533-38.149 0-47.685-57.063-114.446-57.063-69.939 0-73.119 57.063-117.626 57.063-34.97 0-57.224-57.063-114.446-57.063-73.119 0-79.477 57.063-117.626 57.063-34.97 0-57.222-57.063-117.626-57.063-66.76 0-76.297 57.063-114.446 57.063-34.97 0-54.044-57.063-117.624-57.063-22.254 0-85.836 25.362-85.836 60.234 0 22.193 15.895 28.533 28.612 28.533 19.075 0 34.97-28.533 57.224-28.533 31.79 0 54.044 53.896 114.446 53.896 57.222 0 92.192-53.896 117.624-53.896zM317.906-3.766c38.149 0 57.224 53.896 117.626 53.896 57.224 0 76.299-53.896 117.626-53.896 31.79 0 57.222 53.896 114.446 53.896 73.119 0 76.299-57.065 117.626-57.065 31.792 0 41.327 57.065 114.446 57.065 15.895 0 89.014-12.68 89.014-53.896 0-19.020-15.895-31.702-31.792-31.702-6.358 0-47.685 28.533-57.222 28.533-41.327 0-47.685-57.065-114.446-57.065-69.939 0-76.297 57.065-117.626 57.065-41.327 0-47.687-57.065-117.626-57.065s-76.297 57.065-117.624 57.065c-34.97 0-44.509-57.065-114.448-57.065s-76.297 57.065-117.624 57.065c-34.971 0-44.507-57.065-114.446-57.065-22.254 0-85.836 22.193-85.836 60.234 0 15.853 15.895 28.534 28.612 28.534 12.715 0 31.79-28.534 57.224-28.534 44.505 0 47.685 53.896 117.624 53.896 57.224 0 79.477-53.896 114.446-53.896z" />
<glyph unicode="&#xe90c;" glyph-name="cruz" d="M903.485 908.8l-390.943-390.943-372.541 372.531-69.304-69.304 372.531-372.541-392.028-392.038 69.315-69.304 392.028 392.028 373.617-373.617 69.304 69.304-373.617 373.627 390.953 390.953-69.315 69.304z" />
<glyph unicode="&#xe90d;" glyph-name="dinero" horiz-adv-x="1306" d="M1301.082 675.807c-18.068-4.511-40.655-13.532-63.245-27.067 22.589-18.045 45.176-31.578 67.763-49.62-18.068-9.021-40.66-18.045-63.247-27.067 18.074-18.043 40.66-31.578 63.247-49.62-18.068-9.021-40.66-18.045-63.247-27.067 18.074-18.043 40.66-31.575 63.247-49.62-18.068-9.024-40.66-18.045-63.247-31.578 18.074-13.532 40.66-31.578 63.247-45.11-18.068-9.021-40.66-18.045-63.247-31.578 18.074-13.532 40.66-31.578 58.729-45.11-94.868-40.599-198.776-81.198-302.682-126.308 0-9.024 0-22.556-4.518-31.578-94.868-40.599-198.776-76.687-298.163-112.776-4.518 9.021-4.518 22.556-9.037 27.067l-280.095-112.776-406.587 365.391c18.068 4.511 40.66 13.535 58.732 22.556-18.071 18.043-40.663 36.088-58.732 54.131 18.068 9.024 40.66 13.535 58.732 22.556-18.071 18.043-40.663 40.599-58.732 54.131 18.068 9.024 40.66 13.535 58.732 22.556-18.071 18.043-40.663 40.599-58.732 54.131 18.068 9.021 40.66 13.535 58.732 22.556-13.558 13.532-36.145 36.088-58.732 54.131 13.553 9.021 36.14 13.532 58.732 22.554-13.558 13.535-36.145 36.091-58.732 54.134l334.305 108.265-13.553 13.532 293.647 99.241c13.553-9.021 22.587-18.043 31.626-18.043l243.948 72.177 411.108-284.193zM1219.763 684.828l-225.882-90.22-13.55 13.532 203.295 81.198-302.687 221.038-189.74-63.153-9.037 9.021 198.776 63.155 338.824-234.573zM948.705 572.052v-415.014l-203.292-76.685v428.544l-347.86 284.196 207.811 67.666c112.942-90.222 230.4-189.463 343.342-288.707zM1102.305 702.871l-158.118-63.153c-27.105 9.021-36.14 45.11-49.692 67.663-31.626 67.666-94.868 90.222-153.6 94.733 0 4.511-4.521 9.021-9.034 13.532 45.176 13.535 94.871 31.578 140.045 45.112l230.4-157.888zM379.482 752.494l-262.021-85.709 307.2-275.172 262.021 103.752c0-4.511 0-13.532-4.518-13.532-85.832-40.599-180.703-81.198-275.576-117.286l-334.305 306.749 298.166 90.22 9.034-9.021zM447.247 639.718c31.621-85.709 171.671-58.644 212.326-112.776l-230.4-85.709-230.4 202.995 216.852 72.177c27.105-4.513 22.587-49.62 31.621-76.687zM1224.282 608.141l-221.363-85.709v31.578l189.742 76.685c13.553-9.021 22.587-13.532 31.621-22.554zM402.068 314.926l284.613 117.284v-31.575l-275.576-112.776-338.824 306.749c4.518 0 13.555 4.511 13.555 4.511l316.232-284.193zM1224.282 531.453l-221.363-90.22c0 9.021 0 22.556 4.518 36.088 63.245 22.554 176.189 72.177 185.224 72.177 13.553 0 22.587-9.024 31.621-18.045zM406.587 238.239l280.095 117.286c18.071-45.112-45.176-45.112-76.8-63.155-63.245-31.578-131.013-54.131-194.255-81.198l-343.345 306.749c4.518 0 13.555 4.511 13.555 4.511l320.75-284.193zM1224.282 454.766l-221.363-90.22c0 9.021 0 22.556 4.518 36.088 58.726 22.554 171.668 72.177 185.224 72.177 9.034 0 22.587-13.532 31.621-18.045zM406.587 161.549l280.095 112.778v-31.578l-271.055-108.265-343.345 306.749c4.518 0 9.037 0 13.555 4.511l320.75-284.196zM1224.282 378.079l-221.363-90.22c0 9.021-9.037 31.578 4.518 36.088 58.726 31.578 176.189 72.177 185.224 72.177 13.553 0 22.587-13.535 31.621-18.045zM94.868 364.547l311.718-279.683 280.095 112.776v-31.578l-271.055-108.265-338.826 306.749h18.068zM1224.282 301.391l-221.363-90.22v31.578l189.742 76.687c13.553-9.024 22.587-13.535 31.621-18.045zM406.587 8.177l280.095 112.776v-31.578l-271.055-108.265-343.345 302.239c4.518 0 13.555 4.511 13.555 4.511l320.75-279.683z" />
<glyph unicode="&#xe90e;" horiz-adv-x="947" d="M472.184 925.773c14.118 0 47.959-8.53 59.323-17.073 8.415 6.188 17.815 13.668 28.285 22.707-25.283 23.311-60.38 28.593-87.608 28.593-14.136 0-62.2-8.556-76.337-22.82-135.724-122.65-265.784-259.569-395.848-390.774v-598.999c2.829-5.701 8.481-8.553 11.31-11.407h924.58c5.655 2.854 8.481 8.556 11.31 11.407v598.999c0 5.125-93.376 96.269-194.998 195.5l6.986-54.226 148.426-146.98-370.399-262.418c-39.583 17.114-39.583 14.262-67.855 14.262-25.449 0-31.104 2.852-59.377-11.407l-370.399 256.714c121.58 122.65 245.988 251.005 376.051 370.806 8.481 8.556 42.412 17.116 56.548 17.116zM373.225 261.169l-339.295-270.976v507.722l339.295-236.746zM913.27-9.807l-342.124 265.27 342.124 242.452v-507.722zM520.253 246.907c118.753-85.571 237.507-182.551 356.26-276.68h-811.482c110.272 91.279 234.678 202.516 350.605 273.828 28.275 19.968 28.275 11.407 53.724 11.407 8.479 0 33.928 2.857 50.893-8.556z" />
<glyph unicode="&#xe90f;" horiz-adv-x="947" d="M654.72 953.132c27.29-87.263 52.698-177.938 63.736-277.906 11.039-104.233-60.613-194.25-127.109-225.142-22.113-10.278-48.868-17.564-76.623-15.058-8.143-0.364-21.555 3.648-25.677 1.731-2.749-1.277-5.1-10.918-5.96-16.443-7.805-31.007-12.987-64.259-13.297-93.604-13.658-2.885-29.299-4.972-44.925-7.066 4.974 26.307 9.559 53.955 14.909 78.815 47.759 222.047 109.276 296.448 115.988 306.939 0 0 1.364 0.643-1.267 2.77-49.019-36.349-107.971-85.092-141.289-226.204-22.858 18.161-29.248 28.024-40.351 53.192-14.756 33.457-20.598 72.645-16.957 116.175 7.631 96.85 71.711 143.882 124.846 179.1 21.184 15.058 46.344 28.682 69.545 43.044 34.115 19.556 71.404 53.942 101.888 85.1l2.542-5.443z" />
<glyph unicode="&#xe910;" glyph-name="exportar" horiz-adv-x="819" d="M614.4 140.8h-409.6c-47.053 0-85.333 38.281-85.333 85.333v648.533c0 47.053 38.281 85.333 85.333 85.333h314.274l180.659-180.659v-553.207c0-47.053-38.281-85.333-85.333-85.333zM204.8 925.867c-28.237 0-51.2-22.963-51.2-51.2v-648.533c0-28.237 22.963-51.2 51.2-51.2h409.6c28.237 0 51.2 22.963 51.2 51.2v539.059l-160.674 160.674h-300.126zM682.667 755.2h-102.4c-47.053 0-85.333 38.281-85.333 85.333v102.4c0 9.421 7.646 17.067 17.067 17.067s17.067-7.646 17.067-17.067v-102.4c0-28.237 22.963-51.2 51.2-51.2h102.4c9.421 0 17.067-7.646 17.067-17.067s-7.646-17.067-17.067-17.067zM409.6 448c-9.421 0-17.067 7.646-17.067 17.067v221.867c0 9.421 7.646 17.067 17.067 17.067s17.067-7.646 17.067-17.067v-221.867c0-9.421-7.646-17.067-17.067-17.067zM409.6 415.326l-88.866 88.875c-6.665 6.665-6.665 17.468 0 24.132 6.656 6.665 17.476 6.665 24.132 0l64.734-64.725 64.734 64.725c6.656 6.665 17.476 6.665 24.132 0 6.665-6.665 6.665-17.468 0-24.132l-88.866-88.875zM503.467 345.6h-187.733c-9.421 0-17.067 7.646-17.067 17.067s7.646 17.067 17.067 17.067h187.733c9.421 0 17.067-7.646 17.067-17.067s-7.646-17.067-17.067-17.067z" />
<glyph unicode="&#xe911;" glyph-name="facebook" d="M663.697 721.064v-96.705h-76.533c-11.099 0-22.181-17.786-22.181-27.787v-65.59h106.482l-25.512-77.801h-80.97v-265.671h-120.906v265.671h-67.658v77.801h68.77v110.054c1.106 4.446 2.219 11.108 2.219 14.447 5.547 37.794 54.352 64.472 85.404 65.582h130.884zM0 448c0-282.778 229.811-512 513.297-512s513.297 229.222 513.297 512c0 282.778-229.811 512-513.297 512s-513.297-229.222-513.297-512z" />
<glyph unicode="&#xe912;" glyph-name="hints1" horiz-adv-x="1307" d="M59.667 565.305c-9.233 42.505-22.005 114.738-38.298 216.713l-15.275 104.093c-1.976 14.009-3.519 25.382-4.379 33.91-0.806 3.684-0.991 7.031-0.736 10.077l-0.904 4.074c-0.185 0.961-0.026 2.421 0.532 4.477-0.187 0.961 0.061 1.967 0.824 3.076 1.989 4.32 4.63 8.035 7.909 11.199 3.168 3.192 7.207 5.192 11.872 6.279 1.834 0.423 3.553 0.58 5.028 0.436 1.525-0.168 3.203-0.039 5.085 0.362 3.020-0.294 6.595-0.919 10.741-1.976l32.26-5.9 98.949-21.5c116.483-25.408 182.381-39.348 197.628-41.814 7.175-1.285 12.608-4.667 16.247-10.188 3.599-5.432 4.924-11.449 3.856-17.968-1.002-6.527-4.344-11.656-9.87-15.323-5.56-3.695-11.427-5.181-17.467-4.591-26.55 4.706-93.923 18.791-202.111 42.202l-58.865 13.066c69.826-99.777 148.765-196.266 236.832-289.52 88.018-93.234 182.518-181.366 283.583-264.51 101.091-83.064 209.253-156.097 324.577-219.031 115.411-63.041 229.369-109.52 341.962-139.661 6.246-1.538 11.013-5.316 14.279-11.351 3.253-6.048 4.133-12.177 2.527-18.351-1.667-6.17-5.51-10.926-11.665-14.203-6.201-3.257-12.325-4.185-18.608-2.678-116.684 31.123-234.489 79.297-353.236 144.367-118.756 65.12-230.224 140.558-334.303 226.382-104.091 85.759-200.926 176.575-290.507 272.445-89.576 95.757-169.98 194.379-241.141 295.744 3.606-25.376 7.839-53.987 12.831-85.796 16.018-101.023 28.611-172.346 37.594-213.881 1.425-6.523 0.277-12.523-3.34-18.212-3.719-5.708-8.863-9.255-15.384-10.665-6.558-1.436-12.674-0.44-18.382 3.137-5.643 3.573-9.253 8.645-10.643 15.079v0z" />
<glyph unicode="&#xe913;" glyph-name="hints2" horiz-adv-x="1307" d="M59.667 330.695c-9.233-42.505-22.005-114.738-38.298-216.713l-15.275-104.093c-1.976-14.009-3.519-25.382-4.379-33.91-0.806-3.684-0.991-7.031-0.736-10.077l-0.904-4.074c-0.185-0.961-0.026-2.421 0.532-4.477-0.187-0.961 0.061-1.967 0.824-3.076 1.989-4.32 4.63-8.035 7.909-11.199 3.168-3.192 7.207-5.192 11.872-6.279 1.834-0.423 3.553-0.58 5.028-0.436 1.525 0.168 3.203 0.039 5.085-0.362 3.020 0.294 6.595 0.919 10.741 1.976l32.26 5.9 98.949 21.5c116.483 25.408 182.381 39.348 197.628 41.814 7.175 1.285 12.608 4.667 16.247 10.188 3.599 5.432 4.924 11.449 3.856 17.968-1.002 6.527-4.344 11.656-9.87 15.323-5.56 3.695-11.427 5.181-17.467 4.591-26.55-4.706-93.923-18.791-202.111-42.202l-58.865-13.066c69.826 99.777 148.765 196.266 236.832 289.52 88.018 93.234 182.518 181.366 283.583 264.508 101.091 83.066 209.253 156.099 324.577 219.034 115.411 63.041 229.369 109.52 341.962 139.661 6.246 1.536 11.013 5.316 14.279 11.351 3.253 6.048 4.133 12.177 2.527 18.351-1.667 6.17-5.51 10.926-11.665 14.203-6.201 3.257-12.325 4.185-18.608 2.678-116.684-31.123-234.489-79.297-353.236-144.367-118.756-65.12-230.224-140.558-334.303-226.382-104.091-85.761-200.926-176.575-290.507-272.445-89.576-95.757-169.98-194.379-241.141-295.744 3.606 25.376 7.839 53.987 12.831 85.796 16.018 101.023 28.611 172.346 37.594 213.881 1.425 6.523 0.277 12.523-3.34 18.212-3.719 5.708-8.863 9.255-15.384 10.665-6.558 1.436-12.674 0.44-18.382-3.137-5.643-3.573-9.253-8.643-10.643-15.079v0z" />
<glyph unicode="&#xe914;" glyph-name="icon1" d="M545.462 251.308c1.438-19.163 3.184-31.739 7.089-37.804 9.756-15.756 38.521-13.959 38.521-13.959v-7.229c-35.333-1.713-46.946 4.138-79.095 3.305-32.363 0.833-43.66-5.018-79.197-3.305v7.229c0 0 28.965-1.797 38.777 13.959 3.542 6.065 5.288 18.641 6.516 37.804-109.601 14.373-193.629 97.494-193.629 197.897 0 100.431 84.029 183.543 193.583 197.874-1.182 17.678-3.030 29.533-6.47 35.328-9.812 15.988-38.777 13.861-38.777 13.861v7.457c35.537 1.592 46.834-4.361 79.197-3.3 32.149-1.061 43.762 4.892 79.095 3.3v-7.457c0 0-28.765 2.127-38.521-13.861-3.7-5.795-5.343-17.65-6.777-35.328 109.703-14.215 193.783-97.443 193.783-197.874 0-100.403-84.080-183.785-194.095-197.897zM560.97 951.445c-14.834 5.702-41.551 8.555-50.455 8.555-50.455 0-71.233-25.67-127.628-59.899-38.586-22.817-86.077-11.408-121.693-14.262-20.778 0-41.556-8.555-59.364-19.963-23.743-11.408-47.49-48.496-50.455-68.459-29.682-156.881-151.375-96.987-151.375-225.336 0-39.931 26.712-74.161 26.712-122.657 0-42.78-26.712-79.867-26.712-122.652 0-31.376 2.97-71.308 53.425-96.977 35.621-19.963 83.107-65.601 89.046-99.831 8.904-37.083 44.521-108.395 100.915-114.102 44.521-5.702 97.946 5.706 139.501-17.115 26.712-14.262 50.46-39.931 80.142-51.34 11.869-5.702 41.551-11.408 47.486-11.408 50.455 0 71.233 28.523 130.597 62.748 47.49 31.376 100.915 5.706 151.375 19.968 32.652 8.555 74.203 54.193 77.172 79.867 29.677 159.735 154.34 99.835 154.34 228.189 0 39.931-26.712 74.161-26.712 122.652 0 42.794 26.712 79.872 26.712 122.657 0 31.372-8.904 74.156-53.425 96.977-56.394 28.523-97.95 91.276-100.915 128.358-2.97 37.078-53.43 82.721-89.046 85.574-47.49 5.702-100.915-5.706-139.501 17.11-29.682 14.262-53.425 37.083-80.142 51.344zM479.614 271.374c3.291 55.012 3.91 131.193 3.91 176.296 0 45.47-0.773 123.206-4.012 178.223-75.599-16.64-132.25-89.721-132.25-177.203 0-87.645 56.65-160.642 132.352-177.315zM540.635 447.67c0-45.103 0.517-121.283 3.491-176.398 75.706 16.719 132.669 89.567 132.669 177.417 0 87.482-56.962 160.563-132.669 177.203-2.974-55.017-3.491-132.752-3.491-178.223z" />
<glyph unicode="&#xe915;" glyph-name="icon3" horiz-adv-x="2530" d="M822.513 188.241c53.507 82.98 82.022 173.701 79.294 273.059-2.464 89.522-31.732 170.948-78.529 246.338-8.879 3.692-12.926 12.174-18.354 19.209-126.681 164.177-342.763 220.401-533.853 138.866-183.941-78.481-295.659-276.462-266.451-479.19 25.172-174.731 120.778-298.641 283.040-362.171 161.039-63.042 312.001-35.081 448.464 72.692 33.316 26.317 57.699 60.711 86.389 91.196zM575.199 452.042c11.975-5.373 22.124-9.415 31.816-14.372 83.191-42.544 91.1-153.546 14.95-208.547-28.262-20.402-60.29-31.792-94.419-33.322-79.456-3.566-158.913-3.668-238.255 4.765-16.342 1.735-21.811 6.415-21.745 23.329 0.572 149.817 0.319 299.64 0.337 449.464 0 10.987-2.018 22.642 15.011 23.257 85.281 3.114 170.737 14.637 255.753-0.078 88.425-15.312 133.957-85.167 110.411-165.701-11.131-38.039-37.557-62.283-73.861-78.794zM447.193 600.618c-59.904 0-59.916 0-59.898-57.934 0-12.029-0.090-24.052 0.102-36.075 0.102-5.813-0.5-14.39 7.060-14.131 41.942 1.434 85.661-11.806 125.061 12.059 18.691 11.324 24.968 30.449 22.528 52.067-2.452 21.661-15.998 32.81-35.683 39.279-20.456 6.728-41.249 3.614-59.169 4.734zM454.716 401.251c-67.494 1.434-67.494 1.434-67.421-67.891 0-8.035 0.072-16.071 0.139-24.112 0.054-6.999 3.096-11.631 10.397-11.782 39.508-0.831 79.3-9.758 118.374 2.741 26.618 8.505 41.797 26.214 39.647 55.965-2.144 29.768-22.118 41.46-47.61 44.646-17.595 2.211-35.665 0.434-53.525 0.434zM849.101 164.774c115.652-93.473 266.559-109.176 397.246-38.942 137.993 74.162 213.347 228.448 183.35 388.867-26.389 141.173-110.827 237.911-245.989 280.63-123.904 39.165-237.158 16.468-334.938-64.831 1.253-0.819 2.614-1.548 4.084-2.156 50.489-81.348 82.065-169.207 84.721-265.806 2.946-107.213-27.817-205.095-85.546-294.623l-2.927-3.138zM1019.338 364.532l0.036 2.855v8.824l0.036 2.927v4.469l0.036 4.62 0.036 7.541 0.193 25.871c0.090 20.088 0.018 40.183-0.699 60.235-0.904 25.431 9.595 30.726 32.449 27.564 64.193-8.903 77.691-22.618 78.631-88.395 0.843-59.169-0.41-118.38 0.693-177.55 0.367-20.052-6.825-25.233-25.823-25.57-85.6-1.536-85.588-2.084-85.588 83.396v63.211zM1141.549 610.455c0.41-37.828-27.756-66.458-65.416-66.476-37.653-0.030-68.138 29.015-68.349 65.102-0.205 36.28 29.841 66 66.976 66.247 38.9 0.265 66.373-26.425 66.789-64.873zM2024.502-64c277.841 0.271 505.013 229.834 505.38 510.705 0.361 282.305-227.009 512.831-506.29 513.295-278.667 0.464-506.862-230.382-506.808-512.687 0.066-282.263 227.774-511.59 507.717-511.313zM1695.045 437.001l0.084 5.138v93.22c-0.006 26.612-0.072 53.2-0.301 79.812-0.108 13.577 1.626 22.365 17.733 24.456 83.805 10.872 169.689 33.918 251.675 12.559 70.764-18.426 134.849 2.271 201.806 5.373 37.177 1.723 73.734 0.801 109.309-9.83 60.567-18.089 98.28-65.922 99.822-131.608 2.048-86.534 0.476-173.128 1.078-259.692 0.102-13.993-3.644-19.727-18.342-19.263-29.829 0.934-59.747 1.132-89.558-0.054-16.89-0.675-19.468 7.090-19.336 21.582 0.536 61.398 0.247 122.808 0.205 184.206-0.030 79.107-21.823 100.087-100.43 96.75-3.97-0.169-7.945-0.572-11.915-0.62-28.467-0.265-40.568-7.879-38.37-43.213 4.867-78.203 1.012-156.937 2.078-235.448 0.265-19.203-6.349-24.1-24.022-23.269-26.811 1.265-53.796 1.518-80.577-0.066-19.492-1.163-25.751 4.945-25.389 25.088 1.169 65.403 0.669 130.855 0.355 196.277-0.289 59.79-22.245 81.45-81.607 81.601-67.349 0.187-67.331 0.187-67.349-66.421 0-70.463-0.681-140.945 0.452-211.384 0.313-19.962-5.716-26.769-25.154-25.004-33.31 3-76.999-13.999-97.093 7.096-16.155 16.95-4.753 61.018-5.084 93.051-0.337 33.226-0.072 66.446-0.072 99.665z" />
<glyph unicode="&#xe916;" glyph-name="icon4" horiz-adv-x="597" d="M544.168 945.778h-497.257c-25.017-3.055-40.653-21.396-46.911-42.795v-938.411c0-18.341 28.146-36.679 43.785-42.795h506.638c15.636 0 40.653 33.624 46.911 45.85v935.356c0 24.454-40.656 42.795-53.166 42.795zM537.913 909.096c9.381 0 18.765-6.113 21.894-12.225v-94.76h-522.28v94.76c3.129 6.113 12.513 12.225 18.765 12.225h481.621zM559.807 762.374v-657.192h-522.28v657.192h522.28zM559.807 65.445v-94.76c-3.129-3.058-6.258-9.17-12.513-12.225h-497.254c-3.129 3.055-9.384 6.113-12.513 12.225v94.76h522.28zM222.046 857.131c0 6.116-6.255 15.286-18.765 15.286s-15.636-9.17-15.636-15.286c0-6.11 0-18.338 15.636-18.338 6.255 0 18.765 6.113 18.765 18.338zM400.304 872.417h-128.222c-6.255-6.116-9.381-6.116-9.381-15.286 0-6.11 3.126-12.225 9.381-18.338h128.222c6.258 6.113 9.384 9.17 9.384 15.283 0 9.17-3.126 12.225-9.384 18.341zM485.333 576h-39.999l-103.558-284.444h40.001l103.555 284.444zM250.667 359.111c-7.555-7.111-17.778-10.667-31.11-10.667-12.444 0-23.111 3.999-31.556 12.444s-12.444 22.667-12.444 42.223h-42.667v-0.89c-0.89-25.776 5.777-45.332 19.999-58.667 13.778-13.332 31.556-21.333 53.333-23.555v-35.112h28.444v35.112c21.777 1.778 39.111 8.889 51.556 20.89 12.444 11.554 19.112 27.554 19.112 47.553 0 19.556-6.224 35.556-18.668 47.113-12.444 11.554-31.11 21.333-56.442 30.222-16.89 5.777-28.444 12.001-34.668 18.665-6.667 6.667-9.776 15.556-9.776 26.223 0 11.11 3.109 19.999 9.333 26.667 6.221 6.667 15.11 10.223 27.554 10.223 11.557 0 20.89-5.333 27.557-15.113 6.667-10.22 10.223-23.999 10.223-40.889h43.998c0 24.001-6.221 43.113-17.778 57.335-11.554 14.222-27.554 23.111-48 26.667v39.999h-28.888v-39.555c-21.333-2.222-37.777-9.333-49.778-20.89-12.444-11.554-18.222-26.667-18.222-44.444 0-19.112 6.221-34.222 19.112-45.332 12.444-11.113 31.553-20.446 57.333-28.001 15.556-6.224 26.667-13.335 33.334-20.446 6.665-7.555 10.22-16.887 10.22-27.998 0-12.444-3.999-22.667-11.11-29.778zM334.632 13.48c0 15.283-15.639 33.624-37.527 33.624-15.639 0-34.404-12.228-34.404-33.624 0-15.286 12.51-36.682 34.404-36.682 15.636 0 37.527 15.286 37.527 36.682z" />
<glyph unicode="&#xe917;" glyph-name="icon5" horiz-adv-x="882" d="M758.645 901.276c0-40.374 29.852-62.396 63.434-62.396 41.042 0 59.699 29.363 59.699 62.396s-18.657 58.724-59.699 58.724c-41.045 0-63.434-25.691-63.434-58.724zM560.887 901.276c0-40.374 29.85-62.396 63.431-62.396 44.777 0 59.702 29.363 59.702 62.396 0 36.702-22.389 58.724-59.702 58.724-41.045 0-63.431-25.691-63.431-58.724zM363.13 901.276c0-40.374 33.579-62.396 63.431-62.396 44.774 0 63.431 29.363 63.431 62.396 0 40.371-26.118 58.724-63.431 58.724s-63.431-25.691-63.431-58.724zM758.645 706.753c0-40.374 29.852-62.396 63.434-62.396 41.042 0 59.699 29.363 59.699 62.396 0 36.702-22.386 58.724-59.699 58.724-41.045 0-63.434-25.691-63.434-58.724zM560.887 706.753c0-40.374 41.042-62.396 63.431-62.396 41.045 0 59.702 29.363 59.702 62.396 0 40.371-18.657 58.724-59.702 58.724-44.774 0-63.431-25.691-63.431-58.724zM363.13 706.753c0-40.374 37.311-62.396 67.16-62.396 37.313 0 59.702 29.363 59.702 62.396 0 40.371-26.118 58.724-63.431 58.724-41.045 0-63.431-25.691-63.431-58.724zM370.591 534.252c-14.925-80.745-22.389-168.832-33.582-253.249-67.163-22.022-156.715-40.371-227.607-69.734-26.121-14.68-70.895-22.022-93.284-55.054-22.389-25.691-14.925-91.756-14.925-102.767 0-7.339 7.464-77.073 14.925-117.447h600.735c22.389 22.022 126.865 128.458 126.865 143.141 0 33.030-78.356 40.371-78.356 40.371-59.702 0-100.745-44.043-167.908-91.756l-7.464 502.824c-7.461 29.363-37.313 44.043-59.702 44.043-22.386 0-55.967-7.342-59.699-40.371zM758.645 512.23c0-33.033 29.852-62.396 63.434-62.396 41.042 0 59.699 29.363 59.699 62.396 0 40.371-18.657 58.724-59.699 58.724-41.045 0-63.434-29.363-63.434-58.724zM560.887 512.23c0-33.033 29.85-62.396 63.431-62.396 41.045 0 59.702 29.363 59.702 62.396 0 40.371-18.657 58.724-59.702 58.724-33.582 0-63.431-18.352-63.431-58.724zM560.887 317.707c0-33.033 29.85-62.396 63.431-62.396 41.045 0 59.702 29.363 59.702 62.396 0 36.702-18.657 62.393-59.702 62.393-33.582 0-63.431-25.691-63.431-62.393z" />
<glyph unicode="&#xe918;" glyph-name="icono2" horiz-adv-x="597" d="M558.39 945.778h-497.257c-25.017-3.055-40.656-21.396-46.911-42.795v-938.411c0-18.341 28.146-36.679 43.782-42.795h506.641c15.636 0 40.656 33.624 46.911 45.85v935.356c0 24.454-40.656 42.795-53.166 42.795zM552.135 909.096c9.381 0 18.765-6.113 21.891-12.225v-94.76h-522.274v94.76c3.126 6.113 12.51 12.225 18.765 12.225h481.618zM574.026 762.374v-657.192h-522.274v657.192h522.274zM574.026 65.445v-94.76c-3.126-3.058-6.252-9.17-12.51-12.225h-497.254c-3.129 3.055-9.384 6.113-12.51 12.225v94.76h522.274zM286.578 296.402c-61.511 12.962-107.54 69.743-107.54 137.907 0 68.045 46.029 124.885 107.455 137.825 2.631-42.783 3.257-103.245 3.257-138.613 0-35.083-0.501-94.33-3.172-137.119zM340.076 280.792c89.387 10.98 157.702 75.83 157.702 153.924 0 78.111-68.315 142.839-157.449 153.899 1.166 13.75 2.5 22.972 5.507 27.477 7.927 12.439 31.297 10.783 31.297 10.783v5.803c-28.709 1.232-38.141-3.402-64.265-2.571-26.291-0.831-35.47 3.803-64.347 2.571v-5.803c0 0 23.535 1.655 31.505-10.783 2.793-4.506 4.298-13.727 5.257-27.477-89.011-11.139-157.284-75.787-157.284-153.899 0-78.094 68.272-142.74 157.323-153.924-0.998-14.899-2.418-24.687-5.296-29.4-7.97-12.254-31.505-10.86-31.505-10.86v-5.618c28.877-1.337 38.056 3.214 64.347 2.569 26.123 0.646 35.556-3.905 64.265-2.569v5.618c0 0-23.37-1.394-31.297 10.86-3.172 4.713-4.594 14.501-5.76 29.4zM336.156 433.522c0 35.368 0.415 95.829 2.836 138.613 61.511-12.939 107.793-69.78 107.793-137.825 0-68.326-46.282-124.982-107.793-137.987-2.421 42.869-2.836 102.116-2.836 137.199zM236.268 857.131c0 6.116-6.255 15.286-18.765 15.286s-15.636-9.17-15.636-15.286c0-6.11 0-18.338 15.636-18.338 6.255 0 18.765 6.113 18.765 18.338zM414.529 872.417h-128.225c-6.255-6.116-9.381-6.116-9.381-15.286 0-6.11 3.126-12.225 9.381-18.338h128.225c6.255 6.113 9.381 9.17 9.381 15.283 0 9.17-3.126 12.225-9.381 18.341zM348.854 13.48c0 15.283-15.636 33.624-37.53 33.624-15.636 0-34.401-12.228-34.401-33.624 0-15.286 12.51-36.682 34.401-36.682 15.639 0 37.53 15.286 37.53 36.682z" />
<glyph unicode="&#xe919;" glyph-name="left" horiz-adv-x="576" d="M0 448l506.483 512 69.517-70.278-436.966-441.722 436.966-441.722-69.517-70.278-506.483 512z" />
<glyph unicode="&#xe91a;" glyph-name="libro" horiz-adv-x="819" d="M696.32 160.264h-597.516v688.316l431.661 95.035v-84.623h165.855v-698.728zM142.696 204.157h509.739v610.943h-165.863v73.9l-343.884-75.694v-609.149zM124.355 160.567l-7.201 43.295 369.418 61.579v571.605h43.893v-608.797zM508.527 751.677h104.882v-29.278h-104.882v29.278zM508.527 693.146h104.882v-29.262h-104.882v29.262zM508.527 630.952h104.882v-29.262h-104.882v29.262zM508.527 567.939h104.882v-29.27h-104.882v29.27zM508.527 502.952h104.882v-29.262h-104.882v29.262zM508.527 444.412h104.882v-29.262h-104.882v29.262zM508.527 382.226h104.882v-29.262h-104.882v29.262zM508.527 319.214h104.882v-29.254h-104.882v29.254zM197.149 681.775l0.049 28.721 208.527 40.911 0.074-29z" />
<glyph unicode="&#xe91b;" glyph-name="login" horiz-adv-x="819" d="M486.468 140.8h-273.067c-94.106 0-170.667 76.561-170.667 170.667v256c0 9.387 7.68 17.067 17.067 17.067h563.2c9.387 0 17.067-7.68 17.067-17.067s-7.68-17.067-17.067-17.067h-546.133v-238.933c0-75.298 61.235-136.533 136.533-136.533h273.067c75.264 0 136.533 61.235 136.533 136.533v102.4c0 9.387 7.68 17.067 17.067 17.067s17.067-7.68 17.067-17.067v-102.4c0-94.106-76.595-170.667-170.667-170.667zM605.935 567.467c-9.387 0-17.067 7.68-17.067 17.067v136.533c0 118.682-93.252 204.8-221.867 204.8h-34.133c-128.614 0-221.867-86.118-221.867-204.8v-136.533c0-9.387-7.68-17.067-17.067-17.067s-17.067 7.68-17.067 17.067v136.533c0 136.192 110.080 238.933 256 238.933h34.133c145.954 0 256-102.741 256-238.933v-136.533c0-9.387-7.68-17.067-17.067-17.067zM349.901 263.031c-4.369 0-8.738 1.673-12.083 4.983l-100.284 99.669c-6.622 6.588-6.622 17.476-0.068 24.132s17.442 6.656 24.132 0.068l89.805-89.19 397.79 297.745c7.543 5.632 18.193 4.096 23.859-3.482 5.666-7.612 4.13-18.193-3.482-23.859l-409.6-306.551c-2.901-2.389-6.519-3.516-10.069-3.516z" />
<glyph unicode="&#xe91c;" glyph-name="logo-footer" horiz-adv-x="1010" d="M504.897 960c-51.486 0-102.972-7.858-152.114-23.583-5.308-1.707-8.917-6.692-8.917-12.332v-81.776l-56.923 57.729c-2.455 2.49-5.707 3.789-9.017 3.789-1.998 0-4.025-0.471-5.887-1.462-45.988-24.292-87.734-55.314-124.204-92.282-36.348-36.868-66.923-79.232-90.9-125.872-2.573-5.012-1.633-11.14 2.294-15.122l56.903-57.718h-80.59c-5.559 0-10.487-3.655-12.159-9.037-15.516-49.847-23.384-101.756-23.384-154.278 0-52.513 7.868-104.408 23.371-154.273 1.67-5.369 6.599-9.033 12.16-9.033h80.602l-56.903-57.717c-3.927-3.989-4.867-10.112-2.294-15.115 48.195-93.834 122.577-169.289 215.104-218.175 1.862-0.991 3.888-1.468 5.899-1.468 3.31 0 6.562 1.304 9.004 3.802l56.923 57.717v-81.765c0-5.646 3.598-10.625 8.917-12.331 49.105-15.731 100.275-23.697 152.102-23.697s102.997 7.966 152.114 23.697c5.319 1.705 8.919 6.684 8.919 12.331v81.765l56.897-57.717c2.462-2.497 5.713-3.789 9.017-3.789 2.004 0 4.032 0.464 5.888 1.455 92.545 48.886 166.932 124.328 215.122 218.175 2.573 5.003 1.646 11.126-2.288 15.115l-56.899 57.717h80.61c5.554 0 10.463 3.651 12.159 9.033 15.498 49.815 23.353 101.71 23.353 154.273 0 52.567-7.855 104.464-23.353 154.278-1.695 5.382-6.605 9.037-12.159 9.037h-80.61l56.899 57.705c3.934 3.995 4.861 10.111 2.288 15.122-48.191 93.845-122.577 169.289-215.122 218.167-1.856 0.991-3.871 1.462-5.875 1.462-3.304 0-6.568-1.311-9.030-3.789l-56.897-57.711v81.758c0 5.641-3.624 10.625-8.919 12.332-49.131 15.726-100.609 23.583-152.102 23.583v0zM356.625 798.158c1.644 0 3.302 0.326 4.873 0.991 4.763 2.007 7.866 6.717 7.866 11.948v103.404c43.922 13.103 89.737 19.644 135.534 19.644 45.804 0 91.62-6.541 135.516-19.644v-103.391c0-5.22 3.103-9.93 7.879-11.937 1.57-0.664 3.228-0.984 4.874-0.984 3.301 0 6.581 1.31 9.017 3.787l72 73.003c81.338-44.971 147.314-111.902 191.656-194.382l-71.987-73.015c-3.635-3.701-4.736-9.259-2.756-14.087 1.977-4.831 6.629-7.979 11.787-7.979h101.945c12.901-44.521 19.457-90.716 19.457-137.462 0-46.741-6.556-92.942-19.457-137.451h-101.945c-5.158 0-9.81-3.149-11.787-7.979-1.98-4.841-0.879-10.399 2.756-14.087l71.987-73.008c-44.342-82.493-110.318-149.417-191.656-194.402l-72 73.008c-2.436 2.483-5.703 3.776-9.017 3.776-1.646 0-3.292-0.326-4.874-0.978-4.776-2.007-7.879-6.699-7.879-11.931v-103.391c-43.873-13.12-89.688-19.669-135.516-19.669-45.808 0-91.637 6.549-135.534 19.669v103.404c0 5.232-3.103 9.936-7.866 11.944-1.583 0.664-3.228 0.99-4.891 0.99-3.302-0.013-6.568-1.304-9.006-3.8l-72.020-73.021c-81.313 44.998-147.301 111.909-191.643 194.402l71.98 73.008c3.649 3.688 4.752 9.246 2.77 14.087-1.974 4.83-6.623 7.979-11.775 7.979h-101.945c-12.928 44.571-19.472 90.748-19.472 137.451 0 46.709 6.544 92.897 19.483 137.462h101.934c5.151 0 9.801 3.147 11.775 7.979 1.981 4.828 0.879 10.386-2.77 14.087l-71.98 73.015c22.066 41.027 49.599 78.409 82.024 111.295 32.351 32.798 69.193 60.72 109.619 83.088l72.020-73.014c2.438-2.497 5.714-3.807 9.024-3.807v0zM168.306 462.178c0-12.011-7.99-23.909-33.89-23.909-25.914 0-33.923 11.898-33.923 23.909v49.471c0 12.023 8.009 23.903 33.923 23.903 25.9 0 33.89-11.88 33.89-23.903v-6.424c0-2.941-0.957-4.203-3.86-4.203h-14.187c-2.9 0-4.001 1.262-4.001 4.203v2.378c0 6.423-4.813 9.062-11.578 9.062-6.764 0-11.422-2.64-11.422-9.062v-41.365c0-6.448 4.658-9.108 11.422-9.108 6.766 0 11.578 2.66 11.578 9.108v4.471c0 2.943 1.101 4.177 4.001 4.177h14.187c2.903 0 3.86-1.234 3.86-4.177v-8.53zM179.964 511.654c0 12.005 9.24 23.89 35.147 23.89 25.9 0 35.275-11.886 35.275-23.89v-49.469c0-12.036-9.375-23.916-35.275-23.916-25.907 0-35.147 11.88-35.147 23.916v49.469zM227.645 507.59c0 6.436-5.774 9.094-12.534 9.094-6.767 0-12.4-2.658-12.4-9.094v-41.36c0-6.423 5.633-9.082 12.4-9.082 6.76 0 12.534 2.66 12.534 9.082v41.36zM353.138 443.587c0-2.934-0.954-4.188-3.854-4.188h-14.201c-2.9 0-3.986 1.254-3.986 4.188v44.302c-0.137-0.421-2.748-10.199-4.423-14.67l-6.049-15.238c-1.095-2.796-2.608-4.196-5.375-4.196h-12.004c-2.752 0-4.107 1.681-5.22 4.196l-7.589 17.758c-1.522 3.631-3.308 10.607-3.575 11.729v-43.881c0-2.934-0.957-4.188-3.858-4.188h-13.501c-2.9 0-4.018 1.254-4.018 4.188v86.639c0 2.943 1.118 4.215 4.018 4.215h13.501c2.079 0 2.901-0.846 3.57-2.258l18.751-42.752c1.936-4.753 3.723-10.48 3.988-11.045 0 0.27 1.405 4.611 4.015 10.776l18.034 43.315c0.556 1.399 1.675 1.964 3.722 1.964h14.201c2.9 0 3.854-1.273 3.854-4.215v-86.639zM392.371 471.687v-28.093c0-2.954-0.984-4.196-3.858-4.196h-14.888c-2.898 0-4.012 1.242-4.012 4.196v86.632c0 2.943 1.114 4.203 4.012 4.203h29.767c25.902 0 34.998-11.886 34.998-23.896v-14.948c0-12.036-9.097-23.898-34.998-23.898h-11.021zM392.371 515.556v-25.008h11.021c6.741 0 12.543 2.647 12.543 9.082v6.844c0 6.423-5.801 9.082-12.543 9.082h-11.021zM504.762 477.972l13.52-34.378c0.951-2.516-0.829-4.196-3.884-4.196h-14.868c-2.623 0-3.167 2.233-3.988 4.196l-12.134 30.872h-10.335v-30.872c0-2.954-0.964-4.196-3.851-4.196h-14.894c-2.9 0-3.989 1.242-3.989 4.196v86.632c0 2.943 1.089 4.203 3.989 4.203h29.778c25.902 0 34.98-11.886 34.98-23.896v-12.15c0-7.979-3.977-15.945-14.323-20.41v0zM473.072 515.556v-22.211h11.034c6.747 0 12.524 2.648 12.524 9.082v4.046c0 6.423-5.777 9.082-12.524 9.082h-11.034zM532.147 511.654c0 12.005 9.216 23.89 35.129 23.89 25.926 0 35.301-11.886 35.301-23.89v-49.469c0-12.036-9.375-23.916-35.301-23.916-25.913 0-35.129 11.88-35.129 23.916v49.469zM579.806 507.59c0 6.436-5.776 9.094-12.53 9.094-6.741 0-12.393-2.658-12.393-9.094v-41.36c0-6.423 5.652-9.082 12.393-9.082 6.754 0 12.53 2.66 12.53 9.082v41.36zM705.303 443.587c0-2.934-0.954-4.188-3.849-4.188h-14.175c-2.906 0-4.019 1.254-4.019 4.188v44.302c-0.137-0.421-2.746-10.199-4.415-14.67l-6.049-15.238c-1.101-2.796-2.611-4.196-5.382-4.196h-11.985c-2.77 0-4.119 1.681-5.221 4.196l-7.606 17.758c-1.496 3.631-3.302 10.607-3.574 11.729v-43.881c0-2.934-0.966-4.188-3.836-4.188h-13.531c-2.894 0-4.008 1.254-4.008 4.188v86.639c0 2.943 1.114 4.215 4.008 4.215h13.531c2.054 0 2.87-0.846 3.577-2.258l18.712-42.752c1.943-4.753 3.723-10.48 3.996-11.045 0 0.27 1.384 4.611 4.008 10.776l18.071 43.315c0.556 1.399 1.646 1.964 3.722 1.964h14.175c2.894 0 3.849-1.273 3.849-4.215v-86.639zM744.536 443.587c0-2.934-0.99-4.188-3.858-4.188h-14.881c-2.907 0-4.021 1.254-4.021 4.188v86.639c0 2.943 1.114 4.215 4.021 4.215h14.881c2.869 0 3.858-1.273 3.858-4.215v-86.639zM804.045 508.574c0 6.436-4.405 8.812-10.762 8.812-6.333 0-10.886-2.377-10.886-8.812v-1.398c0-3.765 2.894-5.451 4.442-6.003l23.118-7.966c10.214-3.493 17.227-10.762 17.227-21.119v-9.916c0-12.011-8.385-23.903-34.297-23.903-25.902 0-34.596 11.893-34.596 23.903v9.364c0 2.93 1.087 4.19 4.006 4.19h14.323c2.894 0 3.847-1.26 3.847-4.19v-6.278c0-6.448 5.355-8.814 12.146-8.814 6.741 0 12.245 2.365 12.245 8.814v2.783c0 5.026-6.593 7.415-11.837 9.365l-19.84 7.539c-7.026 2.66-12.814 10.5-12.814 18.591v8.104c0 12.023 7.175 23.91 32.654 23.91 25.492 0 33.199-11.887 33.199-23.91v-5.163c0-2.941-1.114-4.19-3.996-4.19h-14.323c-2.894 0-3.857 1.249-3.857 4.19v2.095zM838.862 511.654c0 12.005 9.239 23.89 35.14 23.89 25.913 0 35.277-11.886 35.277-23.89v-49.469c0-12.036-9.364-23.916-35.277-23.916-25.902 0-35.14 11.88-35.14 23.916v49.469zM886.544 507.59c0 6.436-5.801 9.094-12.541 9.094-6.754 0-12.406-2.658-12.406-9.094v-41.36c0-6.423 5.652-9.082 12.406-9.082 6.74 0 12.541 2.66 12.541 9.082v41.36zM287.854 343.118h20.352v27.146c0 2.384 0.873 3.412 3.247 3.412h12.142c2.368 0 3.142-1.028 3.142-3.412v-70.7c0-2.384-0.774-3.412-3.142-3.412h-12.142c-2.374 0-3.247 1.028-3.247 3.412v28.163h-20.352v-28.163c0-2.384-0.786-3.412-3.142-3.412h-12.147c-2.368 0-3.265 1.028-3.265 3.412v70.7c0 2.384 0.897 3.412 3.265 3.412h12.147c2.355 0 3.142-1.028 3.142-3.412v-27.146zM369.434 313.601v3.763h-10.359c-3.248 0-3.804-1.832-3.804-3.538v-1.492c0-2.621 2.116-2.947 3.804-2.947 3.822 0 7.774 2.382 10.359 4.214v0zM339.53 336.846c0 10.826 7.293 17.212 23.824 17.212 16.97 0 23.723-6.386 23.723-17.212v-37.282c0-2.384-0.914-3.412-3.258-3.412h-10.358c-2.468 0-2.913 1.028-3.241 3.412l-0.229 1.718c-3.265-2.746-8.424-6.046-15.747-6.046-11.348 0-16.525 7.061-16.525 14.602v4.905c0 7.74 6.31 14.69 17.985 14.69h13.73v6.283c0 3.538-1.684 5.244-6.407 5.244-4.726 0-6.741-1.141-6.741-4.679v-0.791c0-2.408-0.91-3.324-3.265-3.324h-10.224c-2.368 0-3.265 0.916-3.265 3.324v1.355zM431.222 333.66c0 2.27-0.105 4.791-4.373 4.791-4.378 0-8.892-2.974-11.13-4.679v-18.24c2.239-1.707 6.753-4.679 11.13-4.679 4.268 0 4.373 2.509 4.373 4.793v18.014zM400.986 296.152c-2.368 0-3.241 1.028-3.241 3.412v72.846c0 2.408 0.873 3.438 3.241 3.438h11.578c2.357 0 3.154-1.030 3.154-3.438v-24.274c3.153 2.51 8.434 5.922 16.859 5.922 11.348 0 16.63-6.711 16.63-17.55v-23.71c0-10.826-5.282-17.562-16.63-17.562-8.882 0-14.164 3.763-17.304 6.272l-0.23-1.944c-0.229-2.384-0.897-3.412-3.265-3.412h-10.792zM477.285 299.564c0-2.384-0.786-3.412-3.143-3.412h-11.575c-2.371 0-3.268 1.028-3.268 3.412v72.858c0 2.396 0.897 3.426 3.268 3.426h11.575c2.357 0 3.143-1.030 3.143-3.426v-72.858zM504.929 332.167h13.599v3.311c0 3.426-2.121 5.131-6.859 5.131-4.723 0-6.74-1.705-6.74-5.131v-3.311zM535.289 323.624c0-2.169-0.902-3.085-3.044-3.085h-27.317v-6.825c0-3.436 2.017-5.030 6.74-5.030 4.739 0 6.859 1.594 6.859 5.030v0.112c0 2.385 0.892 3.3 3.255 3.3h9.682c2.34 0 3.254-0.914 3.254-3.3v-0.802c0-10.839-6.073-17.788-23.051-17.788-16.974 0-24.266 6.949-24.266 17.788v23.258c0 10.826 7.292 17.776 24.266 17.776 16.978 0 23.62-6.95 23.62-17.776v-12.658zM559.087 353.153c2.351 0 3.031-0.914 3.254-3.311l0.122-1.944c3.018 2.634 7.98 6.172 16.859 6.172 6.741 0 11.787-2.974 14.386-7.528 2.809 2.496 8.188 7.528 18.442 7.528 10.23 0 16.513-6.625 16.513-15.858v-38.636c0-2.408-0.89-3.425-3.265-3.425h-11.344c-2.362 0-3.376 1.017-3.376 3.425v33.958c0 3.536-0.668 4.917-4.267 4.917-4.379 0-8.548-2.748-10.563-4.567v-34.308c0-2.408-0.916-3.425-3.265-3.425h-11.355c-2.364 0-3.365 1.017-3.365 3.425v33.958c0 3.536-0.681 4.917-4.279 4.917-4.379 0-8.548-2.748-10.563-4.567v-34.308c0-2.408-0.792-3.425-3.142-3.425h-11.577c-2.377 0-3.267 1.017-3.267 3.425v50.266c0 2.396 0.89 3.311 3.267 3.311h10.785zM671.67 334.801c0 3.765-3.153 5.006-7.743 5.006-4.614 0-7.757-1.242-7.757-5.006v-20.183c0-3.877 3.143-5.131 7.757-5.131 4.59 0 7.743 1.254 7.743 5.131v20.183zM638.188 336.282c0 10.826 8.755 17.776 25.739 17.776 16.97 0 25.727-6.95 25.727-17.776v-23.258c0-10.839-8.757-17.788-25.727-17.788-16.984 0-25.739 6.949-25.739 17.788v23.258zM727.64 337.874c0 3.086-3.044 3.651-6.184 3.651-3.154 0-6.087-0.565-6.087-3.651v-0.565c0-1.705 1.25-2.621 2.364-3.085l15.745-5.709c7.521-2.722 11.244-6.824 11.244-12.305v-5.47c0-7.526-6.518-15.505-23.724-15.505s-23.489 7.979-23.489 15.505v2.395c0 2.172 0.779 3.075 3.044 3.075h10.328c2.237 0 3.029-0.903 3.029-3.075v-1.593c0-3.085 3.723-3.649 7.088-3.649 3.376 0 7.196 0.565 7.196 3.649v1.030c0 1.466-0.913 2.17-4.378 3.524l-15.844 6.16c-4.181 1.606-8.906 6.837-8.906 12.432v3.186c0 7.528 5.406 16.183 22.487 16.183s22.487-8.656 22.487-16.183v-1.593c0-2.283-0.779-3.186-3.142-3.186h-10.23c-2.251 0-3.029 0.903-3.029 3.186v1.593zM249.354 245.184c2.369 0 3.044-0.916 3.267-3.3l0.105-1.944c3.035 2.621 7.989 6.16 16.882 6.16 6.736 0 11.794-2.961 14.386-7.526 2.789 2.507 8.193 7.526 18.429 7.526 10.223 0 16.532-6.612 16.532-15.845v-38.649c0-2.395-0.903-3.425-3.273-3.425h-11.346c-2.371 0-3.365 1.030-3.365 3.425v33.971c0 3.537-0.687 4.904-4.287 4.904-4.392 0-8.548-2.746-10.563-4.565v-34.31c0-2.395-0.896-3.425-3.267-3.425h-11.346c-2.358 0-3.371 1.030-3.371 3.425v33.971c0 3.537-0.668 4.904-4.268 4.904-4.385 0-8.548-2.746-10.564-4.565v-34.31c0-2.395-0.784-3.425-3.154-3.425h-11.588c-2.345 0-3.24 1.030-3.24 3.425v50.278c0 2.384 0.895 3.3 3.24 3.3h10.792zM359.94 205.631v3.763h-10.365c-3.241 0-3.799-1.83-3.799-3.537v-1.493c0-2.621 2.115-2.96 3.799-2.96 3.827 0 7.78 2.396 10.365 4.227v0zM360.366 253.965c-0.654-1.030-2.010-2.283-4.365-2.283h-8.88c-2.030 0-2.827 0.914-1.801 3.312l4.484 10.486c0.914 2.045 2.268 3.412 4.625 3.412h12.029c2.357 0 3.018-1.479 1.688-3.412l-7.781-11.516zM330.031 228.875c0 10.826 7.299 17.225 23.828 17.225 16.973 0 23.707-6.399 23.707-17.225v-37.269c0-2.395-0.896-3.425-3.243-3.425h-10.357c-2.475 0-2.914 1.030-3.243 3.425l-0.229 1.707c-3.27-2.735-8.422-6.047-15.745-6.047-11.348 0-16.53 7.076-16.53 14.602v4.905c0 7.74 6.308 14.689 17.985 14.689h13.736v6.285c0 3.538-1.69 5.244-6.414 5.244-4.726 0-6.734-1.141-6.734-4.679v-0.789c0-2.409-0.916-3.324-3.273-3.324h-10.216c-2.368 0-3.273 0.914-3.273 3.324v1.354zM416.114 229.904c0 3.086-3.038 3.651-6.178 3.651-3.156 0-6.067-0.565-6.067-3.651v-0.563c0-1.707 1.225-2.623 2.357-3.086l15.727-5.683c7.539-2.748 11.248-6.849 11.248-12.318v-5.483c0-7.526-6.525-15.505-23.723-15.505-17.212 0-23.495 7.979-23.495 15.505v2.396c0 2.17 0.785 3.086 3.042 3.086h10.33c2.244 0 3.055-0.916 3.055-3.086v-1.593c0-3.073 3.698-3.651 7.068-3.651s7.194 0.577 7.194 3.651v1.028c0 1.479-0.91 2.17-4.379 3.524l-15.845 6.16c-4.181 1.606-8.882 6.849-8.882 12.432v3.186c0 7.528 5.38 16.196 22.47 16.196 17.098 0 22.481-8.668 22.481-16.196v-1.593c0-2.27-0.786-3.199-3.143-3.199h-10.229c-2.246 0-3.031 0.929-3.031 3.199v1.593zM489.697 229.904c0 3.086-3.012 3.651-6.167 3.651-3.166 0-6.079-0.565-6.079-3.651v-0.563c0-1.707 1.225-2.623 2.357-3.086l15.753-5.683c7.525-2.748 11.237-6.849 11.237-12.318v-5.483c0-7.526-6.537-15.505-23.724-15.505-17.2 0-23.484 7.979-23.484 15.505v2.396c0 2.17 0.774 3.086 3.014 3.086h10.34c2.264 0 3.051-0.916 3.051-3.086v-1.593c0-3.073 3.709-3.651 7.080-3.651 3.382 0 7.205 0.577 7.205 3.651v1.028c0 1.479-0.91 2.17-4.405 3.524l-15.844 6.16c-4.157 1.606-8.88 6.849-8.88 12.432v3.186c0 7.528 5.404 16.196 22.48 16.196 17.088 0 22.5-8.668 22.5-16.196v-1.593c0-2.27-0.816-3.199-3.16-3.199h-10.229c-2.246 0-3.044 0.929-3.044 3.199v1.593zM533.198 191.593c0-2.382-0.804-3.412-3.166-3.412h-11.578c-2.357 0-3.246 1.030-3.246 3.412v50.166c0 2.395 0.889 3.412 3.246 3.412h11.578c2.362 0 3.166-1.017 3.166-3.412v-50.166zM533.198 254.994c0-2.409-0.804-3.312-3.166-3.312h-11.578c-2.357 0-3.246 0.903-3.246 3.312v9.445c0 2.409 0.889 3.438 3.246 3.438h11.578c2.362 0 3.166-1.028 3.166-3.438v-9.445zM558.455 245.184c2.364 0 3.045-0.916 3.265-3.3l0.1-1.944c3.042 2.621 7.99 6.16 16.883 6.16 6.741 0 11.787-2.961 14.387-7.526 2.795 2.507 8.199 7.526 18.428 7.526s16.538-6.612 16.538-15.845v-38.649c0-2.395-0.902-3.425-3.264-3.425h-11.355c-2.364 0-3.366 1.030-3.366 3.425v33.971c0 3.537-0.691 4.904-4.278 4.904-4.403 0-8.56-2.746-10.576-4.565v-34.31c0-2.395-0.89-3.425-3.265-3.425h-11.342c-2.362 0-3.378 1.030-3.378 3.425v33.971c0 3.537-0.667 4.904-4.267 4.904-4.379 0-8.548-2.746-10.563-4.565v-34.31c0-2.395-0.779-3.425-3.154-3.425h-11.588c-2.34 0-3.243 1.030-3.243 3.425v50.278c0 2.384 0.903 3.3 3.243 3.3h10.796zM672.178 225.69c0 2.283-0.1 4.791-4.368 4.791-4.403 0-8.892-2.96-11.145-4.666v-18.251c2.253-1.707 6.741-4.668 11.145-4.668 4.268 0 4.368 2.497 4.368 4.793v18.001zM652.733 245.184c2.375 0 3.044-1.030 3.253-3.425l0.222-1.931c3.169 2.395 8.449 6.272 17.33 6.272 11.342 0 16.624-6.724 16.624-17.55v-23.723c0-10.826-5.282-17.549-16.624-17.549-8.447 0-13.729 3.412-16.872 5.808v-24.174c0-2.384-0.791-3.412-3.142-3.412h-11.575c-2.364 0-3.267 1.028-3.267 3.412v72.846c0 2.395 0.903 3.425 3.267 3.425h10.785zM718.252 191.606c0-2.395-0.792-3.425-3.154-3.425h-11.59c-2.35 0-3.253 1.030-3.253 3.425v72.846c0 2.396 0.903 3.425 3.253 3.425h11.59c2.362 0 3.154-1.028 3.154-3.425v-72.846zM745.872 224.209h13.606v3.3c0 3.425-2.128 5.131-6.841 5.131-4.726 0-6.766-1.707-6.766-5.131v-3.3zM776.226 215.653c0-2.169-0.892-3.085-3.031-3.085h-27.324v-6.825c0-3.423 2.039-5.029 6.766-5.029 4.713 0 6.841 1.606 6.841 5.029v0.114c0 2.384 0.903 3.3 3.265 3.3h9.66c2.375 0 3.265-0.916 3.265-3.3v-0.804c0-10.839-6.073-17.788-23.031-17.788-16.97 0-24.293 6.949-24.293 17.788v23.258c0 10.826 7.323 17.789 24.293 17.789 16.959 0 23.589-6.963 23.589-17.789v-12.658z" />
<glyph unicode="&#xe91d;" glyph-name="mail-enviar" horiz-adv-x="819" d="M773.325 728.986c0 0 0 0.819 0 0.819 0 0.819 0 0.819 0 1.638 0 0 0 0.819 0 0.819 0 0.819 0 1.638-0.819 1.638 0 0 0 0 0 0.819s-0.819 1.638-0.819 1.638c0 0 0 0 0 0s0 0 0 0.819-0.819 0.819-1.638 1.638c0 0-0.819 0.819-0.819 0.819-0.819 0-0.819 0.819-1.638 0.819 0 0-0.819 0-0.819 0.819-0.819 0-0.819 0.819-1.638 0.819 0 0-0.819 0-0.819 0-0.819 0-0.819 0-1.638 0 0 0-0.819 0-0.819 0s-0.819 0-0.819 0h-445.645c0 0-0.819 0-0.819 0-0.819 0-0.819 0-1.638 0 0 0-0.819 0-0.819 0-0.819 0-0.819 0-1.638-0.819 0 0-0.819 0-0.819 0-0.819 0-0.819-0.819-1.638-0.819 0 0-0.819 0-0.819-0.819-0.819 0-0.819-0.819-1.638-0.819 0 0-0.819-0.819-0.819-0.819s-0.819-0.819-0.819-0.819c0 0 0 0 0 0 0-0.819-0.819-0.819-0.819-1.638 0 0 0-0.819-0.819-0.819 0-0.819 0-0.819-0.819-1.638 0 0 0-0.819 0-0.819 0-0.819 0-0.819 0-1.638s0-0.819 0-1.638c0 0 0 0 0-0.819v-339.968c0-7.373 5.734-13.926 13.926-13.926h444.006c7.373 0 13.926 5.734 13.926 13.926v340.787c0-0.819 0 0 0 0zM530.842 580.71l-175.309 134.349h362.086l-186.778-134.349zM329.318 402.125v299.008l193.331-147.456c0 0 0 0 0.819 0 0.819-0.819 1.638-0.819 2.458-1.638 0 0 0.819 0 0.819 0 1.638 0 2.458-0.819 4.096-0.819s2.458 0 3.277 0.819c0 0 0.819 0 0.819 0 0.819 0 1.638 0.819 2.458 1.638 0 0 0 0 0.819 0l207.258 149.094v-299.827h-416.154zM248.218 565.146h-212.992c-8.192 0-14.746-6.554-14.746-14.746s6.554-14.746 14.746-14.746h212.992c8.192 0 14.746 6.554 14.746 14.746s-6.554 14.746-14.746 14.746zM248.218 660.992h-135.168c-8.192 0-14.746-6.554-14.746-14.746s6.554-14.746 14.746-14.746h135.168c8.192 0 14.746 6.554 14.746 14.746s-6.554 14.746-14.746 14.746zM248.218 472.576h-135.168c-8.192 0-14.746-6.554-14.746-14.746s6.554-14.746 14.746-14.746h135.168c8.192 0 14.746 6.554 14.746 14.746 0 9.011-6.554 14.746-14.746 14.746z" />
<glyph unicode="&#xe91e;" glyph-name="mapa" horiz-adv-x="819" d="M593.92 529.92l-180.224-245.76-180.224 245.76h0.819c-21.299 32.768-33.587 72.090-33.587 114.688 0 117.965 95.027 212.992 212.992 212.992s212.992-95.027 212.992-212.992c0-42.598-12.288-81.92-32.768-114.688v0zM413.696 726.528c-45.056 0-81.92-36.864-81.92-81.92s36.864-81.92 81.92-81.92 81.92 36.864 81.92 81.92-36.864 81.92-81.92 81.92zM382.566 300.544l12.288-16.384c-95.027-0.819-169.574-8.192-169.574-16.384 0-9.011 84.378-16.384 188.416-16.384s188.416 7.373 188.416 16.384c0 8.192-74.547 15.565-169.574 16.384l12.288 16.384c103.219-2.458 181.862-15.565 181.862-32.768 0-18.022-95.027-32.768-212.992-32.768s-212.992 14.746-212.992 32.768c0 16.384 79.462 30.31 181.862 32.768z" />
<glyph unicode="&#xe91f;" glyph-name="mas" d="M467.809 960v-469.709h-467.809v-83.274h467.809v-471.017h87.029v471.017h469.163v83.274h-469.163v469.709h-87.029z" />
<glyph unicode="&#xe920;" glyph-name="mensaje" horiz-adv-x="819" d="M113.613 618.317h384v-51.2h-384v51.2zM113.613 532.966h384v-51.2h-384v51.2zM113.613 447.642h384v-51.2h-384v51.2zM51.2 280.269h286.438l193.101-139.469v139.469h28.442c28.16 0 51.2 23.040 51.2 51.2v127.232l129.203-93.338v139.469h28.416c28.16 0 51.2 23.040 51.2 51.2v352.768c0 28.16-23.040 51.2-51.2 51.2h-507.955c-28.16 0-51.2-23.040-51.2-51.2v-173.389h-157.645c-28.16 0-51.2-23.040-51.2-51.2v-352.742c0-28.16 23.040-51.2 51.2-51.2zM260.045 908.8h507.955v-352.742h-79.642v-90.522l-78.003 56.346v162.355c0 28.16-23.040 51.2-51.2 51.2h-299.11v173.363zM51.2 684.237h507.955v-352.742h-79.642v-90.522l-125.312 90.547h-303.002v352.717z" />
<glyph unicode="&#xe921;" glyph-name="off" horiz-adv-x="935" d="M584.922 844.163c0-78.772-73.688-115.837-124.354-115.837-78.296 0-110.534 60.233-110.534 115.837 0 69.498 32.238 115.837 115.138 115.837 64.481 0 119.75-46.338 119.75-115.837zM773.761 765.391c110.534-97.302 161.195-250.208 161.195-356.775 0-259.473-225.681-472.616-469.784-472.616-147.38 0-363.845 92.668-437.537 296.541-9.212 32.439-27.635 92.672-27.635 101.937v148.271c0 13.904 27.635 166.805 82.904 166.805 18.423 0 32.238-23.165 32.238-32.434 0-37.064-50.666-88.033-50.666-208.504 0-227.039 184.231-403.118 396.092-403.118 216.469 0 405.299 189.979 405.299 403.118 0 74.133-36.842 189.97-96.715 254.842-27.635 37.064-82.904 74.133-115.142 101.933-9.212 4.635-9.212 13.904-9.212 23.169 0 18.539 4.604 32.434 27.635 32.434 36.842 0 69.084-32.434 101.327-55.603zM216.469 797.825c110.534-111.202 230.28-227.039 331.607-352.14 27.635-27.804 23.031-37.069 23.031-60.238 0-60.233-41.454-106.567-101.323-106.567-27.639 0-50.666 0-73.697 27.799-55.265 74.138-92.111 162.17-138.169 236.308-4.604 9.265-110.539 185.34-110.539 213.143 0 32.43 18.423 41.695 46.058 41.695 9.216 0 13.82 9.274 23.031 0z" />
<glyph unicode="&#xe922;" glyph-name="ojo" horiz-adv-x="1159" d="M670.167 561.891c-1.514 0-2.89 0.688-4.128 1.789-48.714 48.714-127.428 48.714-176.142 0-2.339-2.339-5.917-2.339-8.257 0s-2.339 5.917 0 8.257c53.118 53.118 139.263 53.118 192.381 0 2.339-2.339 2.339-5.917 0-8.257-1.101-1.101-2.477-1.789-3.853-1.789zM659.984 542.487l-7.844 7.844c-9.633 9.633-20.779 17.064-33.027 22.293-5.092 2.064-10.321 3.991-15.688 5.229-8.257 2.064-16.926 3.165-25.596 3.165-8.807 0-17.477-1.101-25.871-3.303-5.367-1.376-10.596-3.165-15.688-5.367-12.11-5.229-23.119-12.66-32.751-22.155l-7.844-7.844c-2.339-2.339-2.339-5.917 0-8.257l7.844-7.844c19.816-19.816 46.375-30.825 74.172-30.825s54.356 11.009 74.172 30.825l7.844 7.844c2.615 2.615 2.615 6.193 0.275 8.394zM577.83 567.808c4.954 0 8.945-4.128 8.945-8.945 0-4.954-4.128-8.945-8.945-8.945-4.954 0-8.945 4.128-8.945 8.945-0.138 4.816 3.991 8.945 8.945 8.945zM559.665 567.945c-1.514-2.752-2.064-5.917-2.064-9.22 0-11.284 9.22-20.504 20.504-20.504s20.504 9.22 20.504 20.504c0 3.303-0.826 6.33-2.339 9.22 4.541-0.826 8.945-2.064 13.486-3.716 0.275-1.789 0.55-3.578 0.55-5.504 0-17.752-14.449-32.063-32.063-32.063s-32.063 14.449-32.063 32.063c0 1.789 0.138 3.578 0.55 5.367 3.716 1.789 8.257 2.89 12.935 3.853zM644.021 534.781c-17.477-17.752-41.146-27.385-66.053-27.385s-48.439 9.77-66.053 27.385l-3.716 3.716 3.716 3.716c6.743 6.743 14.036 12.247 22.293 16.513 0 0 0 0 0-0.138 0-24.082 19.678-43.76 43.76-43.76s43.76 19.678 43.76 43.76v0.138c8.257-4.266 15.688-9.77 22.431-16.651l3.716-3.716-3.853-3.578z" />
<glyph unicode="&#xe923;" glyph-name="porcentaje" horiz-adv-x="819" d="M623.889 536.269c-107.725 0-195.362-88.491-195.362-197.291s87.654-197.308 195.362-197.308c107.691 0 195.311 88.508 195.311 197.308s-87.637 197.291-195.311 197.291zM623.889 190.839c-80.623 0-146.21 66.475-146.21 148.156s65.604 148.139 146.21 148.139c80.606 0 146.159-66.458 146.159-148.139s-65.57-148.156-146.159-148.156zM195.345 564.531c107.725 0 195.345 88.508 195.345 197.308 0 108.783-87.62 197.291-195.345 197.291-107.708-0.017-195.345-88.508-195.345-197.291 0-108.8 87.637-197.308 195.345-197.308zM195.345 909.961c80.606 0 146.193-66.458 146.193-148.139s-65.587-148.156-146.193-148.156-146.193 66.492-146.193 148.173 65.587 148.122 146.193 148.122zM794.556 940.681c-9.66 9.54-25.225 9.421-34.748-0.239l-735.403-745.523c-9.523-9.66-9.421-25.242 0.239-34.765 4.779-4.727 11.025-7.083 17.254-7.083 6.349 0 12.698 2.458 17.493 7.322l735.403 745.523c9.523 9.66 9.421 25.242-0.239 34.765z" />
<glyph unicode="&#xe924;" glyph-name="pregunta" horiz-adv-x="819" d="M409.6 246.477c167.936 0 303.923 136.806 303.923 303.923s-135.987 303.923-303.923 303.923-303.923-135.987-303.923-303.923 135.987-303.923 303.923-303.923zM409.6 821.555c149.914 0 271.155-122.061 271.155-271.155s-121.242-271.155-271.155-271.155-271.155 121.242-271.155 271.155 121.242 271.155 271.155 271.155zM429.261 416.87c0-12.668-10.27-22.938-22.938-22.938s-22.938 10.27-22.938 22.938c0 12.668 10.27 22.938 22.938 22.938s22.938-10.27 22.938-22.938zM331.776 620.032c9.011 0 16.384 7.373 16.384 16.384 0 34.406 27.853 62.259 61.44 62.259s61.44-27.853 61.44-62.259c0-44.237-23.757-58.982-45.875-72.909-17.203-10.65-36.864-23.757-36.864-48.333 0-0.819 0-0.819 0-1.638s0-0.819 0-1.638v-27.034c0-9.011 7.373-16.384 16.384-16.384s16.384 7.373 16.384 16.384v26.214c0 0.819 0 0.819 0 1.638s0 0.819 0 1.638c0 6.554 6.554 11.469 22.118 21.299 24.576 15.565 61.44 38.502 61.44 100.762 0 52.429-42.598 95.027-94.208 95.027s-94.208-42.598-94.208-95.027c-0.819-9.83 6.554-16.384 15.565-16.384z" />
<glyph unicode="&#xe925;" glyph-name="punto" d="M0 448c0 282.778 229.222 512 512 512s512-229.222 512-512c0-282.778-229.222-512-512-512s-512 229.222-512 512z" />
<glyph unicode="&#xe926;" glyph-name="recargar" horiz-adv-x="1365" d="M959.869 888.559c66.196-47.627 148.946-134.946 173.773-166.696 16.543-23.814 57.919-79.383 57.919-103.196v-39.691h-24.821c-57.924 238.143-289.616 357.211-488.215 357.211-173.767 0-388.91-111.132-463.377-285.77-8.277-23.814-33.104-63.499-33.104-87.313v-39.691l16.555-15.878c41.37 31.755 74.468 63.505 99.294 95.255h24.821v-23.814c-49.647-47.627-140.669-142.882-165.495-142.882-16.543 0-107.571 95.255-157.218 142.882v23.814h24.821c24.826-31.75 74.473-95.255 99.3-95.255 41.375 0 49.653 103.191 49.653 111.132 24.826 31.75 33.098 79.383 49.641 103.196 115.849 174.632 297.893 238.137 455.111 238.137 91.028 0 215.148-23.814 281.344-71.441zM1365.333 317.025v-23.814h-24.821c-24.826 31.75-82.751 95.255-107.577 95.255-49.647 0-41.375-95.255-49.647-111.132-16.549-31.75-33.104-71.441-49.647-95.255-41.375-63.505-107.577-127.010-173.773-166.696-57.919-31.755-182.044-79.383-206.865-79.383h-148.946c-66.202 23.814-148.946 47.627-206.871 79.383-66.196 31.75-132.398 103.191-173.773 166.696-16.543 23.814-49.641 79.377-49.641 95.255v39.691c8.272 0 24.826-15.878 24.826-23.814 107.566-254.015 289.61-333.397 479.926-333.397 223.425 0 430.29 127.010 513.035 404.838l-24.821 23.814c-41.375-31.755-74.473-63.505-99.3-95.255h-24.821v23.814c49.647 47.627 140.669 142.882 157.218 142.882 24.826 0 115.849-95.255 165.495-142.882z" />
<glyph unicode="&#xe927;" glyph-name="tarjeta" horiz-adv-x="819" d="M557.056 394.752h-32.768v98.304h32.768v-98.304zM294.912 493.056h-32.768v-98.304h32.768v98.304zM770.048 779.776v-229.376c0-40.657-33.071-73.728-73.728-73.728h-73.728v-204.8c0-22.585-18.375-40.96-40.96-40.96h-344.064c-22.585 0-40.96 18.375-40.96 40.96v204.8h-73.728c-40.657 0-73.728 33.071-73.728 73.728v229.376c0 40.657 33.071 73.728 73.728 73.728h573.44c40.657 0 73.728-33.071 73.728-73.728zM303.104 689.664c0-54.206 47.776-98.304 106.496-98.304s106.496 44.098 106.496 98.304h-212.992zM270.336 689.664h-40.96v-319.488c0-4.44 3.752-8.192 8.192-8.192h344.064c4.44 0 8.192 3.752 8.192 8.192v319.488h-40.96c0-72.27-62.472-131.072-139.264-131.072s-139.264 58.802-139.264 131.072zM622.592 640.512h16.384v49.152h-16.384v-49.152zM229.376 321.024c0-4.44 3.752-8.192 8.192-8.192h344.064c4.44 0 8.192 3.752 8.192 8.192v9.028c-2.646-0.549-5.382-0.836-8.192-0.836h-344.064c-2.81 0-5.546 0.287-8.192 0.836v-9.028zM196.608 689.664h-16.384v-49.152h16.384v49.152zM589.824 271.872v9.028c-2.646-0.549-5.382-0.836-8.192-0.836h-344.064c-2.81 0-5.546 0.287-8.192 0.836v-9.028c0-4.44 3.752-8.192 8.192-8.192h344.064c4.44 0 8.192 3.752 8.192 8.192zM737.28 779.776c0 22.585-18.375 40.96-40.96 40.96h-573.44c-22.585 0-40.96-18.375-40.96-40.96v-229.376c0-22.585 18.375-40.96 40.96-40.96h73.728v98.304h-49.152v114.688h524.288v-114.688h-49.152v-98.304h73.728c22.585 0 40.96 18.375 40.96 40.96v229.376z" />
<glyph unicode="&#xe928;" glyph-name="teclado" horiz-adv-x="860" d="M778.24 179.306l-181.232 17.658-4.116-3.92 98.853-233.501c-20.595-7.848-43.25-17.658-63.844-23.544l-94.736 233.497-123.564-117.727v539.591l368.64-412.054zM453.784 939.708v-206.303c-6.775-6.767-13.545-23.675-23.704-23.675-13.545 0-23.704 16.908-23.704 20.292v209.687c3.383 10.146 10.158 20.292 23.704 20.292 10.158 0 23.704-13.529 23.704-20.292zM298.009 692.822c6.771-3.383 10.162-10.146 10.162-16.912 0-16.908-13.55-23.675-23.712-23.675-13.545 0-20.312 10.146-30.474 20.296-3.383 3.379-132.076 125.133-132.076 145.424 0 10.146 0 20.292 20.32 20.292 27.095 0 149.004-135.283 155.779-145.424zM738.251 817.955c0-20.292-142.238-152.191-149.004-158.953-3.391-3.383-6.775-6.767-16.937-6.767-16.929 0-20.32 13.529-20.32 23.675 0 6.767 10.162 23.675 20.32 30.441 0 3.379 121.917 131.895 145.621 131.895 16.929 0 20.32-10.146 20.32-20.292zM220.119 554.156c6.775 0 30.482-3.379 30.482-23.671 0-10.146-16.937-23.675-23.708-23.675h-206.574c-10.162 6.767-20.32 13.529-20.32 23.675s13.545 27.054 27.091 23.671h193.028zM829.682 554.156c6.775 0 30.478-3.379 30.478-23.671 0-10.146-16.929-23.675-23.704-23.675h-206.578c-10.158 6.767-20.32 13.529-20.32 23.675s13.55 27.054 27.095 23.671h193.028zM308.171 388.44c0-13.529-10.162-20.296-20.32-33.821-3.391 0-125.301-131.899-145.621-131.899s-20.32 13.529-20.32 20.292c0 23.675 142.238 158.958 145.621 158.958 3.383 3.379 10.158 6.762 16.929 6.762 16.937 0 23.712-10.146 23.712-20.292z" />
<glyph unicode="&#xe929;" glyph-name="telefono" horiz-adv-x="486" d="M454.396 960h-422.408l-31.988-38.4v-750.239l28.806-30.569h419.177l38.4 30.569v750.239l-31.988 38.4zM153.198 910.629h176.404v-28.126h-176.404v28.126zM243.2 171.361c-19.319 0-35.013 15.686-35.013 35.022 0 19.302 15.686 35.005 35.013 35.005 19.319 0 35.005-15.695 35.005-35.005 0-19.335-15.686-35.022-35.005-35.022zM425.59 281.575h-364.788v556.796h364.796v-556.796z" />
<glyph unicode="&#xe92a;" glyph-name="twitter" d="M762.519 650.374c6.744 0 53.985 18.25 80.976 29.645-6.747-18.233-26.991-52.437-53.982-68.395 2.247-2.284 0-2.284 4.491-2.284 6.756 0 42.743 11.392 65.234 15.963-15.744-20.517-42.735-47.892-62.982-63.846 0-20.52-2.253-41.045-4.497-61.562-33.738-230.295-206.945-342.027-373.407-342.027-58.485 0-146.216 22.812-193.456 59.275 9-2.267 20.25-2.267 24.747-2.267 44.985 0 121.469 22.804 161.957 59.287-40.488 0-103.475 36.48-119.216 86.642v6.838c15.741-2.284 33.741-2.284 49.49 0l4.491 4.554c-35.988 2.287-96.722 63.849-98.972 98.054 0 4.562-2.247 6.841-2.247 11.395v22.812c22.491-11.403 56.229-18.241 56.229-13.687 0 4.571-40.485 25.088-53.982 82.088-2.247 9.125-2.247 22.804-2.247 29.642 0 20.52 6.75 45.608 17.994 63.841 74.226-88.929 170.962-127.687 254.191-139.090 0 0 17.988 0 20.244 2.287-2.256 9.116-4.497 25.079-4.497 29.642 0 72.966 56.232 132.25 130.463 132.25 65.234 0 92.228-41.054 98.978-41.054zM-6.087 448c0-282.769 229.806-512 513.297-512 283.486 0 513.3 229.231 513.3 512 0 282.778-229.814 512-513.3 512-283.492 0-513.297-229.222-513.297-512z" />
<glyph unicode="&#xe92b;" glyph-name="youtube" d="M731.816 702.518c11.093-1.849 24.033-1.849 36.978-1.849 12.945-1.866 27.733-1.866 40.673-5.581 3.701 0 7.401-3.712 14.797-5.569 16.634-7.438 38.821-33.465 42.516-50.199 3.703-13.016 9.244-27.893 11.093-40.909 3.703-26.018 9.25-81.795 9.25-87.376v-141.286c-12.945-59.492 11.088-143.141-72.104-182.195-27.736-13.010-55.472-7.43-83.203-11.145l-107.233-3.712-290.27 3.712c-11.093 1.857-24.036 3.715-36.972 3.715-12.951 1.857-29.585 1.857-40.678 5.572-18.492 3.732-48.068 24.178-55.464 44.615-5.552 13.019-11.099 27.893-12.942 40.903-5.55 31.607-9.244 91.108-9.244 94.82v146.859c1.849 20.454 3.695 42.766 5.544 65.081 1.846 20.437 5.544 42.758 12.939 61.346 24.044 68.787 90.598 59.483 136.818 63.198l105.384 3.732 292.119-3.732zM-2.594 448c0-282.778 229.803-512 513.3-512 283.483 0 513.294 229.222 513.294 512s-229.811 512-513.294 512c-283.497 0-513.3-229.222-513.3-512zM818.714 657.911c-27.733 18.588-105.381 16.731-112.788 16.731h-347.571c-5.55 0-64.717-3.723-96.139-9.296-7.398 0-24.044-11.159-29.582-22.312-9.25-14.874-12.942-33.465-16.643-50.196-1.852-13.008-1.852-26.018-3.698-39.034-1.849-14.876-1.849-31.607-3.698-46.484v-135.714c0-35.322 7.396-152.445 53.621-156.16 12.937-1.857 25.879-3.715 36.972-5.572 18.489 0 36.972-3.732 55.47-5.589h354.975c5.541 0 38.824 5.589 57.31 5.589 103.541-3.732 77.65 111.536 90.601 165.447v128.284c0 5.581-3.703 53.911-7.398 78.071-3.698 26.038-3.698 57.643-31.431 76.234zM678.201 440.394l-232.951-148.733v293.74l232.951-145.007z" />
</font>
</defs>
</svg>
