<?xml version="1.0" standalone="no"?>
<!DOCTYPE svg PUBLIC "-//W3C//DTD SVG 1.1//EN" "http://www.w3.org/Graphics/SVG/1.1/DTD/svg11.dtd" >
<svg>
<metadata>
Created by FontForge 20120731 at Wed Jul 25 17:21:25 2018
 By www-data
Copyright (c) 2008 by Dino dos Santos _DSType. All rights reserved.
</metadata>
<defs>
<font id="PreloSlab-SemiBold" horiz-adv-x="581" >
  <font-face 
    font-family="Prelo Slab SemiBold"
    font-weight="600"
    font-stretch="normal"
    units-per-em="1000"
    panose-1="2 0 5 3 4 0 0 2 0 4"
    ascent="750"
    descent="-250"
    x-height="500"
    cap-height="680"
    bbox="-46 -270 1069 950"
    underline-thickness="50"
    underline-position="-50"
    stemh="91"
    stemv="110"
    unicode-range="U+0020-FB06"
  />
<missing-glyph horiz-adv-x="590" 
d="M70 500h450v-500h-450v500zM287 249l-206 236v-469zM304 249l205 -231v465zM93 488l203 -229l202 229h-405zM296 240l-201 -228h401z" />
    <glyph glyph-name=".notdef" horiz-adv-x="590" 
d="M70 500h450v-500h-450v500zM287 249l-206 236v-469zM304 249l205 -231v465zM93 488l203 -229l202 229h-405zM296 240l-201 -228h401z" />
    <glyph glyph-name="space" unicode=" " horiz-adv-x="180" 
 />
    <glyph glyph-name="exclam" unicode="!" horiz-adv-x="207" 
d="M49 137h110v-137h-110v137zM49 700h110l-7 -480h-97z" />
    <glyph glyph-name="quotedbl" unicode="&#x22;" horiz-adv-x="407" 
d="M49 680h110l-13 -163h-85zM249 680h110l-13 -163h-85z" />
    <glyph glyph-name="numbersign" unicode="#" horiz-adv-x="613" 
d="M192 500h78l-11 -109h125l11 109h79l-12 -109h100l-7 -72h-100l-15 -138h100l-7 -72h-100l-12 -109h-79l12 109h-125l-12 -109h-78l12 109h-100l7 72h100l15 138h-100l7 72h100zM251 319l-14 -138h125l14 138h-125z" />
    <glyph glyph-name="dollar" unicode="$" horiz-adv-x="620" 
d="M59 182h91v-74c69 -15 118 -21 160 -21c91 0 129 45 129 95c0 74 -88 93 -164 114c-114 31 -206 94 -206 209c0 125 97 179 220 184v91h48v-91c65 -2 130 -13 208 -35v-157h-91v79c-65 13 -103 16 -144 16c-85 0 -119 -37 -119 -84c0 -67 80 -96 159 -114
c114 -26 211 -81 211 -199c0 -131 -95 -197 -224 -204v-91h-48v91c-71 1 -150 11 -230 35v156z" />
    <glyph glyph-name="percent" unicode="%" horiz-adv-x="760" 
d="M601 680l-370 -680h-72l370 680h72zM181 392c-91 0 -140 55 -140 144c0 88 49 143 140 143s139 -55 139 -143c0 -89 -48 -144 -139 -144zM181 448c46 0 71 31 71 88s-25 88 -71 88c-47 0 -71 -31 -71 -88s24 -88 71 -88zM579 1c-91 0 -139 55 -139 143
c0 89 48 143 139 143s140 -54 140 -143c0 -88 -49 -143 -140 -143zM579 56c46 0 71 31 71 88s-25 88 -71 88s-71 -31 -71 -88s25 -88 71 -88z" />
    <glyph glyph-name="ampersand" unicode="&#x26;" horiz-adv-x="705" 
d="M506 529c0 -53 -28 -110 -146 -172l155 -150c29 40 50 90 57 143h104c-9 -69 -38 -150 -90 -217l80 -83l-72 -78l-86 90c-56 -44 -130 -72 -223 -72c-165 0 -238 78 -238 186c0 71 32 128 159 195c-40 49 -77 94 -77 152c0 113 97 167 196 167c112 0 181 -59 181 -161z
M295 84c51 0 103 14 145 49l-177 182c-60 -33 -100 -69 -100 -122c0 -52 37 -109 132 -109zM236 528c0 -42 25 -73 61 -111c64 35 105 70 105 116c0 66 -50 81 -80 81c-69 0 -86 -52 -86 -86z" />
    <glyph glyph-name="quotesingle" unicode="'" horiz-adv-x="207" 
d="M49 680h110l-13 -163h-85z" />
    <glyph glyph-name="parenleft" unicode="(" horiz-adv-x="330" 
d="M54 340c0 167 61 340 174 480h73c-97 -164 -137 -318 -137 -480c0 -160 40 -310 137 -480h-73c-113 140 -174 316 -174 480z" />
    <glyph glyph-name="parenright" unicode=")" horiz-adv-x="330" 
d="M276 340c0 -164 -61 -340 -174 -480h-73c97 170 137 320 137 480c0 162 -40 316 -137 480h73c113 -140 174 -313 174 -480z" />
    <glyph glyph-name="asterisk" unicode="*" horiz-adv-x="410" 
d="M181 555l-8 125h64l-8 -125l126 43l20 -63l-132 -17l87 -102l-50 -38l-76 118l-74 -118l-50 38l86 102l-131 17l18 63z" />
    <glyph glyph-name="plus" unicode="+" horiz-adv-x="500" 
d="M296 466v-155h155v-92h-155v-155h-92v155h-155v92h155v155h92z" />
    <glyph glyph-name="comma" unicode="," horiz-adv-x="207" 
d="M105 -130h-35l22 130h-43v137h110v-137z" />
    <glyph glyph-name="hyphen" unicode="-" horiz-adv-x="500" 
d="M49 311h402v-92h-402v92z" />
    <glyph glyph-name="period" unicode="." horiz-adv-x="207" 
d="M49 137h110v-137h-110v137z" />
    <glyph glyph-name="slash" unicode="/" horiz-adv-x="540" 
d="M504 680l-370 -680h-98l370 680h98z" />
    <glyph glyph-name="zero" unicode="0" horiz-adv-x="570" 
d="M285 599c-104 0 -130 -114 -130 -254s26 -264 130 -264s130 124 130 264s-26 254 -130 254zM285 -10c-198 0 -246 162 -246 355c0 191 48 345 246 345s246 -154 246 -345c0 -193 -48 -355 -246 -355z" />
    <glyph glyph-name="one" unicode="1" horiz-adv-x="390" 
d="M242 91h115v-91h-340v91h115v487l-111 -7v78l170 36h51v-594z" />
    <glyph glyph-name="two" unicode="2" horiz-adv-x="530" 
d="M406 156h91v-156h-468v106c275 178 326 282 326 356c0 114 -86 127 -130 127c-33 0 -65 -4 -105 -20v-57h-91v128c77 33 136 50 221 50c151 0 221 -92 221 -204c0 -140 -102 -257 -287 -387v-2h222v59z" />
    <glyph glyph-name="three" unicode="3" horiz-adv-x="520" 
d="M25 38v129h91v-65c38 -14 80 -21 126 -21c114 0 136 67 136 108c0 67 -48 105 -148 105h-88v92h83c103 0 137 59 137 113c0 42 -26 100 -120 100c-44 0 -80 -9 -115 -22v-65h-91v130c75 35 151 48 225 48c121 0 210 -63 210 -179c0 -79 -50 -132 -124 -158v-2
c95 -21 144 -89 144 -169c0 -123 -87 -192 -243 -192c-82 0 -149 11 -223 48z" />
    <glyph glyph-name="four" unicode="4" horiz-adv-x="570" 
d="M142 282h198v285h-2c-58 -110 -120 -195 -196 -285zM340 91v100h-311v91c110 120 213 243 284 403h137v-403h91v-91h-91v-100h61v-91h-232v91h61z" />
    <glyph glyph-name="five" unicode="5" horiz-adv-x="540" 
d="M477 680v-157h-91v59h-225l-11 -197l2 -1c33 32 78 56 143 56c127 0 206 -77 206 -218c0 -152 -96 -232 -251 -232c-76 0 -138 14 -215 50v121h91v-59c43 -16 79 -21 118 -21c92 0 141 55 141 135c0 60 -29 130 -129 130c-56 0 -89 -20 -125 -57l-79 7l14 384h411z" />
    <glyph glyph-name="six" unicode="6" horiz-adv-x="550" 
d="M149 377l2 -1c36 47 91 79 152 79c129 0 208 -85 208 -235c0 -144 -96 -230 -228 -230c-182 0 -244 150 -244 310c0 302 133 390 290 390c65 0 112 -10 162 -27v-139h-91v68c-21 4 -38 7 -62 7c-120 0 -189 -111 -189 -222zM158 292c-7 -105 11 -211 119 -211
c64 0 118 48 118 139c0 61 -23 139 -121 139c-48 0 -87 -29 -116 -67z" />
    <glyph glyph-name="seven" unicode="7" horiz-adv-x="490" 
d="M32 680h429v-79c-97 -165 -201 -359 -240 -601h-122c30 184 137 422 242 580v2h-217v-58h-92v156z" />
    <glyph glyph-name="eight" unicode="8" horiz-adv-x="550" 
d="M372 359v-2c91 -41 149 -92 149 -176c0 -129 -108 -191 -249 -191c-136 0 -243 57 -243 179c0 87 60 140 147 173v2c-76 35 -127 85 -127 168c0 117 106 178 229 178c118 0 223 -61 223 -172c0 -80 -49 -122 -129 -159zM142 181c0 -55 36 -109 137 -109
c96 0 129 47 129 99c0 77 -83 104 -149 130c-60 -22 -117 -57 -117 -120zM272 608c-52 0 -113 -28 -113 -94c0 -63 62 -98 129 -116c57 20 103 54 103 110c0 71 -62 100 -119 100z" />
    <glyph glyph-name="nine" unicode="9" horiz-adv-x="550" 
d="M401 303l-2 1c-36 -47 -91 -79 -152 -79c-130 0 -208 85 -208 235c0 144 96 230 228 230c182 0 244 -150 244 -310c0 -303 -133 -390 -290 -390c-65 0 -112 10 -162 27v139h91v-68c21 -5 38 -7 62 -7c120 0 189 111 189 222zM392 388c7 104 -11 211 -119 211
c-64 0 -118 -48 -118 -139c0 -61 22 -139 121 -139c48 0 87 29 116 67z" />
    <glyph glyph-name="colon" unicode=":" horiz-adv-x="207" 
d="M49 137h110v-137h-110v137zM49 460h110v-138h-110v138z" />
    <glyph glyph-name="semicolon" unicode=";" horiz-adv-x="207" 
d="M49 460h110v-138h-110v138zM105 -130h-35l22 130h-43v137h110v-137z" />
    <glyph glyph-name="less" unicode="&#x3c;" horiz-adv-x="480" 
d="M49 283l382 193v-97l-266 -129l266 -129v-97l-382 193v66z" />
    <glyph glyph-name="equal" unicode="=" horiz-adv-x="500" 
d="M49 411h402v-92h-402v92zM49 211h402v-92h-402v92z" />
    <glyph glyph-name="greater" unicode="&#x3e;" horiz-adv-x="480" 
d="M49 476l382 -193v-66l-382 -193v97l266 129l-266 129v97z" />
    <glyph glyph-name="question" unicode="?" horiz-adv-x="480" 
d="M39 497v154c57 23 133 39 202 39c162 0 200 -101 200 -179c0 -172 -179 -173 -179 -271v-30h-97v30c0 135 137 146 157 242c4 16 4 30 1 44c-12 54 -69 60 -106 60c-20 0 -51 -4 -87 -16v-73h-91zM159 137h110v-137h-110v137z" />
    <glyph glyph-name="at" unicode="@" horiz-adv-x="810" 
d="M258 440c51 14 109 21 155 21c97 0 149 -25 149 -129v-197c123 0 159 111 159 188c0 162 -133 266 -296 266c-196 0 -335 -136 -335 -336c0 -179 129 -312 306 -312l-7 -61c-216 0 -369 160 -369 373c0 233 171 399 404 399c202 0 366 -132 366 -326
c0 -142 -83 -260 -244 -260h-71v39h-1c-34 -33 -69 -46 -119 -46c-77 0 -122 49 -122 116c0 92 79 121 164 121h78v31c0 44 -23 63 -81 63c-17 0 -41 -3 -65 -9v-49h-71v108zM475 153v92h-73c-59 0 -82 -23 -82 -63c0 -37 28 -57 70 -57c37 0 69 16 85 28z" />
    <glyph glyph-name="A" unicode="A" horiz-adv-x="700" 
d="M181 680h253l194 -589h54v-91h-251v91h70l-36 116h-231l-40 -116h68v-91h-245v91h63l171 498h-70v91zM354 576h-1l-95 -284h186z" />
    <glyph glyph-name="B" unicode="B" horiz-adv-x="630" 
d="M464 352v-2c79 -21 127 -79 127 -166c0 -114 -72 -184 -211 -184h-363v91h62v498h-62v91h343c139 0 211 -66 211 -173c0 -75 -40 -133 -107 -155zM354 302h-159v-211h166c66 0 108 35 108 106c0 67 -42 105 -115 105zM449 491c0 58 -35 98 -102 98h-152v-195h152
c67 0 102 36 102 97z" />
    <glyph glyph-name="C" unicode="C" horiz-adv-x="610" 
d="M484 176h91v-150c-89 -26 -161 -36 -240 -36c-236 0 -296 160 -296 355c0 191 60 345 296 345c79 0 151 -10 240 -36v-150h-91v79c-61 13 -99 16 -140 16c-142 0 -183 -114 -183 -254c0 -150 41 -264 183 -264c41 0 79 2 140 16v79z" />
    <glyph glyph-name="D" unicode="D" horiz-adv-x="660" 
d="M17 680h310c228 0 294 -144 294 -335c0 -193 -66 -345 -294 -345h-310v91h62v498h-62v91zM195 91h132c140 0 172 114 172 254s-32 244 -172 244h-132v-498z" />
    <glyph glyph-name="E" unicode="E" horiz-adv-x="570" 
d="M17 680h514v-156h-91v65h-245v-192h286v-91h-286v-215h245v65h91v-156h-514v91h62v498h-62v91z" />
    <glyph glyph-name="F" unicode="F" horiz-adv-x="555" 
d="M17 680h504v-156h-91v65h-235v-212h276v-91h-276v-195h61v-91h-239v91h62v498h-62v91z" />
    <glyph glyph-name="G" unicode="G" horiz-adv-x="620" 
d="M161 345c0 -146 49 -258 183 -258c43 0 81 10 115 26v141h-118v91h234v-305c-76 -29 -147 -50 -240 -50c-228 0 -296 162 -296 355c0 191 60 345 296 345c79 0 151 -10 240 -36v-150h-91v79c-61 13 -99 16 -140 16c-142 0 -183 -114 -183 -254z" />
    <glyph glyph-name="H" unicode="H" horiz-adv-x="680" 
d="M424 91h61v215h-290v-215h61v-91h-239v91h62v498h-62v91h239v-91h-61v-192h290v192h-61v91h238v-91h-61v-498h61v-91h-238v91z" />
    <glyph glyph-name="I" unicode="I" horiz-adv-x="274" 
d="M17 91h62v498h-62v91h239v-91h-61v-498h61v-91h-239v91z" />
    <glyph glyph-name="J" unicode="J" horiz-adv-x="364" 
d="M107 680h239v-91h-61v-413c0 -136 -65 -186 -170 -186c-38 0 -72 3 -99 8l10 91c21 -3 38 -5 58 -5c52 0 85 23 85 92v413h-62v91z" />
    <glyph glyph-name="K" unicode="K" horiz-adv-x="680" 
d="M17 680h239v-91h-61v-262l251 262h-60v91h266v-91h-67l-193 -196l210 -302h60v-91h-272v91h64l-150 221l-109 -109v-112h61v-91h-239v91h62v498h-62v91z" />
    <glyph glyph-name="L" unicode="L" horiz-adv-x="550" 
d="M434 156h91v-156h-508v91h62v498h-62v91h239v-91h-61v-498h239v65z" />
    <glyph glyph-name="M" unicode="M" horiz-adv-x="840" 
d="M623 680h199v-91h-61v-498h61v-91h-238v91h61v378h-2l-186 -469h-75l-194 469h-2v-378h64v-91h-233v91h62v498h-62v91h203l206 -487h2z" />
    <glyph glyph-name="N" unicode="N" horiz-adv-x="690" 
d="M440 680h232v-91h-61v-589h-119l-304 469h-2v-378h64v-91h-233v91h62v498h-62v91h175l310 -485h2v394h-64v91z" />
    <glyph glyph-name="O" unicode="O" horiz-adv-x="670" 
d="M335 599c-148 0 -174 -114 -174 -254s26 -264 174 -264s174 124 174 264s-26 254 -174 254zM335 -10c-236 0 -296 162 -296 355c0 191 60 345 296 345s296 -154 296 -345c0 -193 -60 -355 -296 -355z" />
    <glyph glyph-name="P" unicode="P" horiz-adv-x="620" 
d="M17 680h347c138 0 217 -80 217 -206c0 -130 -79 -207 -217 -207h-169v-176h61v-91h-239v91h62v498h-62v91zM195 589v-230h156c66 0 111 38 111 115c0 73 -45 115 -111 115h-156z" />
    <glyph glyph-name="Q" unicode="Q" horiz-adv-x="670" 
d="M39 345c0 191 60 345 296 345s296 -154 296 -345c0 -181 -66 -304 -219 -314c14 -33 133 -37 203 -29v-105c-136 -15 -255 13 -305 93c-211 11 -271 169 -271 355zM335 599c-148 0 -174 -114 -174 -254s26 -264 174 -264s174 124 174 264s-26 254 -174 254z" />
    <glyph glyph-name="R" unicode="R" horiz-adv-x="650" 
d="M17 680h347c138 0 217 -81 217 -207c0 -94 -50 -168 -137 -188l141 -194h47v-91h-248v91h54l-121 175h-122v-175h61v-91h-239v91h62v498h-62v91zM195 589v-232h152c67 0 115 39 115 116c0 73 -45 116 -111 116h-156z" />
    <glyph glyph-name="S" unicode="S" horiz-adv-x="580" 
d="M39 182h91v-74c69 -15 118 -21 160 -21c91 0 129 45 129 95c0 74 -88 93 -164 114c-114 31 -213 94 -213 209c0 133 109 185 242 185c76 0 146 -10 235 -36v-157h-92v79c-64 13 -102 16 -143 16c-85 0 -119 -37 -119 -84c0 -67 86 -96 165 -114c114 -26 211 -81 211 -199
c0 -140 -109 -205 -251 -205c-76 0 -163 10 -251 36v156z" />
    <glyph glyph-name="T" unicode="T" horiz-adv-x="580" 
d="M32 680h515v-156h-91v65h-108v-498h61v-91h-238v91h61v498h-108v-65h-92v156z" />
    <glyph glyph-name="U" unicode="U" horiz-adv-x="680" 
d="M424 680h238v-91h-61v-349c0 -176 -99 -250 -261 -250s-261 74 -261 250v349h-62v91h239v-91h-61v-349c0 -74 19 -159 147 -159c122 0 143 85 143 159v349h-61v91z" />
    <glyph glyph-name="V" unicode="V" horiz-adv-x="690" 
d="M420 680h252v-91h-52l-199 -594h-149l-205 594h-50v91h259v-91h-81l157 -474h1l148 474h-81v91z" />
    <glyph glyph-name="W" unicode="W" horiz-adv-x="980" 
d="M17 680h259v-91h-79l110 -452h1l129 543h124l135 -543h1l105 452h-80v91h240v-91h-46l-150 -594h-156l-119 473h-2l-113 -473h-155l-156 594h-48v91z" />
    <glyph glyph-name="X" unicode="X" horiz-adv-x="700" 
d="M432 680h240v-91h-55l-179 -244l187 -254h57v-91h-280v91h69l-137 198l-137 -198h67v-91h-247v91h59l189 260l-175 238h-63v91h275v-91h-58l127 -180l124 180h-63v91z" />
    <glyph glyph-name="Y" unicode="Y" horiz-adv-x="660" 
d="M388 91h61v-91h-238v91h61v124l-196 374h-59v91h266v-91h-83l138 -265h2l138 265h-82v91h246v-91h-53l-201 -374v-124z" />
    <glyph glyph-name="Z" unicode="Z" horiz-adv-x="560" 
d="M51 680h464v-85l-337 -502v-2h259v65h92v-156h-494v85l341 502v2h-234v-65h-91v156z" />
    <glyph glyph-name="bracketleft" unicode="[" horiz-adv-x="300" 
d="M165 -74h106v-66h-222v960h222v-66h-106v-828z" />
    <glyph glyph-name="backslash" unicode="\" horiz-adv-x="540" 
d="M406 0l-370 680h98l370 -680h-98z" />
    <glyph glyph-name="bracketright" unicode="]" horiz-adv-x="300" 
d="M29 -74h106v828h-106v66h222v-960h-222v66z" />
    <glyph glyph-name="asciicircum" unicode="^" horiz-adv-x="380" 
d="M190 639l-81 -129h-60l106 190h69l107 -190h-60z" />
    <glyph glyph-name="underscore" unicode="_" horiz-adv-x="500" 
d="M49 -60h402v-66h-402v66z" />
    <glyph glyph-name="grave" unicode="`" horiz-adv-x="290" 
d="M146 560l-78 140h106l57 -140h-85z" />
    <glyph glyph-name="a" unicode="a" horiz-adv-x="535" 
d="M157 356h-91v132c69 14 141 22 199 22c124 0 191 -34 191 -166v-253h61v-91h-171v50h-2c-40 -39 -86 -60 -147 -60c-81 0 -163 46 -163 147c0 122 109 158 213 158h99v42c0 59 -32 82 -106 82c-21 0 -47 -2 -83 -8v-55zM346 112v117h-85c-79 0 -117 -21 -117 -79
c0 -48 37 -75 91 -75c49 0 91 21 111 37z" />
    <glyph glyph-name="b" unicode="b" horiz-adv-x="560" 
d="M17 609v91h172v-250h2c33 35 90 60 146 60c140 0 184 -116 184 -260s-50 -260 -190 -260c-54 0 -110 22 -147 57h-2l-19 -47h-146v91h62v518h-62zM405 250c0 92 -24 169 -111 169c-49 0 -87 -23 -105 -37v-264c18 -14 56 -37 105 -37c87 0 111 76 111 169z" />
    <glyph glyph-name="c" unicode="c" horiz-adv-x="487" 
d="M462 356h-91v55c-35 8 -61 8 -81 8c-91 0 -135 -64 -135 -169s44 -169 135 -169c36 0 71 0 153 20l19 -88c-60 -15 -109 -23 -172 -23c-188 0 -251 104 -251 260s63 260 251 260c63 0 112 -8 172 -23v-131z" />
    <glyph glyph-name="d" unicode="d" horiz-adv-x="560" 
d="M310 609v91h171v-609h61v-91h-171v50h-2c-33 -35 -90 -60 -147 -60c-140 0 -183 116 -183 260s50 260 190 260c53 0 107 -22 140 -57h2v156h-61zM155 250c0 -93 24 -169 111 -169c49 0 87 23 105 37v264c-18 14 -56 37 -105 37c-87 0 -111 -77 -111 -169z" />
    <glyph glyph-name="e" unicode="e" horiz-adv-x="530" 
d="M490 229h-335c3 -88 49 -148 154 -148c46 0 95 2 156 20l14 -88c-65 -18 -120 -23 -185 -23c-189 0 -255 104 -255 260s66 260 251 260c155 0 207 -80 207 -200c0 -21 -1 -46 -7 -81zM284 425c-87 0 -123 -53 -129 -127h227c2 14 4 23 4 36c0 49 -27 91 -102 91z" />
    <glyph glyph-name="f" unicode="f" horiz-adv-x="341" 
d="M27 0v91h62v330h-72v72l72 7v57c0 96 33 143 151 143c25 0 56 -3 84 -8l-10 -85c-20 3 -36 5 -49 5c-51 0 -66 -15 -66 -63v-49h112v-79h-112v-330h68v-91h-240z" />
    <glyph glyph-name="g" unicode="g" horiz-adv-x="555" 
d="M119 -61c0 -54 53 -73 135 -73c84 0 158 23 158 82c0 27 -19 49 -72 53l-175 10c-25 -21 -46 -37 -46 -72zM265 249c58 0 98 30 98 91c0 62 -40 94 -98 94c-64 0 -100 -32 -100 -94s40 -91 100 -91zM107 26v2c-63 38 -48 123 33 170v2c-50 25 -82 76 -82 140
c0 112 81 170 207 170c27 0 52 -4 71 -10h180v-66h-88v-2c32 -23 39 -58 39 -92c0 -114 -86 -166 -202 -166c-19 0 -46 3 -68 10c-30 -36 -34 -78 10 -81l168 -8c103 -4 153 -52 153 -126c0 -118 -91 -179 -293 -179c-141 0 -210 41 -210 130c0 44 25 77 82 106z" />
    <glyph glyph-name="h" unicode="h" horiz-adv-x="590" 
d="M346 0v91h55v228c0 61 -24 100 -90 100c-49 0 -95 -29 -122 -48v-280h55v-91h-227v91h62v518h-62v91h172v-268h2c45 47 103 78 170 78c100 0 150 -63 150 -166v-253h61v-91h-226z" />
    <glyph glyph-name="i" unicode="i" horiz-adv-x="267" 
d="M17 409v91h172v-409h61v-91h-233v91h62v318h-62zM79 700h110v-131h-110v131z" />
    <glyph glyph-name="j" unicode="j" horiz-adv-x="247" 
d="M17 409v91h182v-567c0 -96 -34 -143 -152 -143c-25 0 -56 3 -83 8l10 85c20 -3 35 -5 48 -5c51 0 67 15 67 64v467h-72zM89 700h110v-131h-110v131z" />
    <glyph glyph-name="k" unicode="k" horiz-adv-x="600" 
d="M17 609v91h172v-437l193 146h-50v91h240v-91h-66l-124 -94l147 -224h53v-91h-240v91h49l-102 164l-100 -77v-87h61v-91h-233v91h62v518h-62z" />
    <glyph glyph-name="l" unicode="l" horiz-adv-x="267" 
d="M17 609v91h172v-609h61v-91h-233v91h62v518h-62z" />
    <glyph glyph-name="m" unicode="m" horiz-adv-x="890" 
d="M335 0v91h55v232c-2 58 -28 96 -90 96c-46 0 -84 -28 -111 -48v-280h55v-91h-227v91h62v318h-62v91h172v-68h2c33 37 76 69 132 75c16 2 31 2 47 1c58 -5 97 -35 115 -83c50 54 109 85 176 85c100 0 150 -63 150 -166v-253h61v-91h-226v91h55v228c0 61 -27 100 -90 100
c-45 0 -85 -29 -113 -50c1 -14 2 -29 2 -45v-233h55v-91h-220z" />
    <glyph glyph-name="n" unicode="n" horiz-adv-x="590" 
d="M346 0v91h55v228c0 61 -24 100 -90 100c-49 0 -95 -29 -122 -48v-280h55v-91h-227v91h62v318h-62v91h172v-68h2c45 47 103 78 170 78c100 0 150 -63 150 -166v-253h61v-91h-226z" />
    <glyph glyph-name="o" unicode="o" horiz-adv-x="550" 
d="M275 419c-93 0 -120 -70 -120 -169s27 -169 120 -169s120 70 120 169s-27 169 -120 169zM275 -10c-172 0 -236 104 -236 260s64 260 236 260s236 -104 236 -260s-64 -260 -236 -260z" />
    <glyph glyph-name="p" unicode="p" horiz-adv-x="560" 
d="M17 409v91h172v-50h2c33 35 90 60 146 60c140 0 184 -116 184 -260s-50 -260 -190 -260c-54 0 -107 22 -140 57h-2v-156h61v-91h-233v91h62v518h-62zM405 250c0 92 -24 169 -111 169c-49 0 -87 -23 -105 -37v-264c18 -14 56 -37 105 -37c87 0 111 76 111 169z" />
    <glyph glyph-name="q" unicode="q" horiz-adv-x="530" 
d="M310 -200v91h61v159h-2c-33 -35 -90 -60 -147 -60c-140 0 -183 116 -183 260s50 260 190 260c53 0 110 -22 146 -57h2l20 50h84v-612h61v-91h-232zM155 250c0 -93 24 -169 111 -169c49 0 87 23 105 37v264c-18 14 -56 37 -105 37c-87 0 -111 -77 -111 -169z" />
    <glyph glyph-name="r" unicode="r" horiz-adv-x="400" 
d="M17 409v91h172v-80h2c36 45 100 90 180 90v-104c-71 0 -142 -25 -182 -48v-267h68v-91h-240v91h62v318h-62z" />
    <glyph glyph-name="s" unicode="s" horiz-adv-x="480" 
d="M434 356h-92v56c-44 9 -84 10 -107 10c-75 0 -88 -37 -88 -54c0 -28 17 -47 94 -64c100 -21 205 -48 205 -157c0 -105 -72 -157 -191 -157c-79 0 -161 8 -221 23v131h91v-56c47 -9 93 -10 117 -10c79 0 94 43 94 61c0 30 -25 48 -99 62c-110 20 -200 55 -200 164
c0 101 72 145 192 145c79 0 145 -8 205 -23v-131z" />
    <glyph glyph-name="t" unicode="t" horiz-adv-x="375" 
d="M89 144v277h-72v72l72 7l13 140h97v-140h132v-79h-132v-258c0 -55 20 -85 78 -85c14 0 29 2 49 5l10 -85c-27 -5 -71 -8 -96 -8c-108 0 -151 45 -151 154z" />
    <glyph glyph-name="u" unicode="u" horiz-adv-x="590" 
d="M17 409v91h172v-319c0 -61 27 -100 90 -100c49 0 95 29 122 48v280h-72v91h182v-409h61v-91h-171v67h-2c-45 -46 -103 -77 -170 -77c-100 0 -150 62 -150 166v253h-62z" />
    <glyph glyph-name="v" unicode="v" horiz-adv-x="579" 
d="M349 409v91h212v-91h-39l-166 -414h-132l-164 414h-43v91h230v-91h-64l117 -302h2l110 302h-63z" />
    <glyph glyph-name="w" unicode="w" horiz-adv-x="809" 
d="M579 409v91h212v-91h-42l-125 -414h-118l-101 317h-2l-92 -317h-117l-136 414h-41v91h230v-91h-71l87 -289h2l102 380h92l108 -386h2l74 295h-64z" />
    <glyph glyph-name="x" unicode="x" horiz-adv-x="608" 
d="M382 409v91h199v-91h-48l-149 -159l150 -159h57v-91h-257v91h49l-108 120l-105 -120h52v-91h-205v91h47l154 171l-139 147h-52v91h251v-91h-49l101 -111l97 111h-45z" />
    <glyph glyph-name="y" unicode="y" horiz-adv-x="579" 
d="M349 409v91h212v-91h-39l-174 -430c-44 -106 -106 -189 -210 -189c-25 0 -58 3 -81 8l10 88c16 -3 35 -5 47 -5c60 0 99 50 119 107l-172 421h-44v91h230v-91h-64l120 -312h2l107 312h-63z" />
    <glyph glyph-name="z" unicode="z" horiz-adv-x="470" 
d="M31 500h405v-85l-276 -328v-2h197v59h92v-144h-426v85l279 328v2h-180v-59h-91v144z" />
    <glyph glyph-name="braceleft" unicode="{" horiz-adv-x="340" 
d="M225 12c0 -104 41 -105 86 -105v-47c-113 0 -202 12 -202 146c0 61 10 130 10 189c0 64 0 106 -70 116v58c70 10 70 52 70 116c0 59 -10 128 -10 189c0 133 89 146 202 146v-48c-45 0 -86 0 -86 -105c0 -61 12 -146 12 -208c0 -79 -39 -104 -95 -118v-2
c56 -14 95 -39 95 -118c0 -62 -12 -148 -12 -209z" />
    <glyph glyph-name="bar" unicode="|" horiz-adv-x="170" 
d="M121 -100h-72v880h72v-880z" />
    <glyph glyph-name="braceright" unicode="}" horiz-adv-x="340" 
d="M115 667c0 105 -41 105 -86 105v48c112 0 202 -13 202 -146c0 -61 -10 -130 -10 -189c0 -64 0 -106 70 -116v-58c-70 -10 -70 -52 -70 -116c0 -59 10 -128 10 -189c0 -134 -90 -146 -202 -146v47c45 0 86 1 86 105c0 61 -13 147 -13 209c0 79 40 104 96 118v2
c-56 14 -96 39 -96 118c0 62 13 147 13 208z" />
    <glyph glyph-name="asciitilde" unicode="~" horiz-adv-x="460" 
d="M150 311c-20 0 -37 -5 -76 -45l-35 28c37 68 73 93 108 93c49 0 148 -48 182 -48c18 0 37 0 65 37l28 -33c-23 -47 -48 -72 -80 -76c-6 -1 -14 -1 -21 0c-41 6 -135 44 -171 44z" />
    <glyph glyph-name="Euro" unicode="&#x20ac;" horiz-adv-x="650" 
d="M21 294h59c-1 16 -1 33 -1 51v41h-58v54h64c20 144 95 250 290 250c79 0 151 -10 240 -36v-150h-91v79c-61 13 -99 16 -140 16c-110 0 -155 -69 -173 -159h168l-2 -54h-174c-2 -14 -2 -27 -2 -41c0 -18 1 -35 2 -51h176l-2 -54h-165c18 -92 64 -159 172 -159
c41 0 79 2 140 16v79h91v-150c-89 -26 -161 -36 -240 -36c-191 0 -267 105 -288 250h-66v54z" />
    <glyph glyph-name="quotesinglbase" unicode="&#x201a;" horiz-adv-x="207" 
d="M105 -130h-35l22 130h-43v137h110v-137z" />
    <glyph glyph-name="florin" unicode="&#x192;" horiz-adv-x="460" 
d="M164 -37v458h-72v72l72 7v46c0 109 43 154 151 154c25 0 56 -3 84 -8l-10 -85c-20 3 -36 5 -49 5c-53 0 -66 -30 -66 -85v-27h120v-79h-120v-459c0 -110 -34 -172 -152 -172c-25 0 -56 3 -83 8l10 85c20 -3 35 -5 48 -5c53 0 67 30 67 85z" />
    <glyph glyph-name="quotedblbase" unicode="&#x201e;" horiz-adv-x="427" 
d="M105 -130h-35l22 130h-43v137h110v-137zM325 -130h-35l22 130h-43v137h110v-137z" />
    <glyph glyph-name="ellipsis" unicode="&#x2026;" horiz-adv-x="647" 
d="M69 137h110v-137h-110v137zM269 137h110v-137h-110v137zM469 137h110v-137h-110v137z" />
    <glyph glyph-name="dagger" unicode="&#x2020;" horiz-adv-x="580" 
d="M531 396l-189 6l6 -402h-116l6 402l-189 -6v104l189 -6l-6 206h116l-6 -206l189 6v-104z" />
    <glyph glyph-name="daggerdbl" unicode="&#x2021;" horiz-adv-x="580" 
d="M238 277v145l-189 -6v104l189 -6l-6 186h116l-6 -186l189 6v-104l-189 6v-145l189 7v-104l-189 6l6 -186h-116l6 186l-189 -6v104z" />
    <glyph glyph-name="circumflex" unicode="&#x2c6;" horiz-adv-x="420" 
d="M210 630l-55 -70h-66l86 132h69l87 -132h-66z" />
    <glyph glyph-name="perthousand" unicode="&#x2030;" horiz-adv-x="1110" 
d="M601 680l-370 -680h-72l370 680h72zM181 392c-91 0 -140 55 -140 144c0 88 49 143 140 143s139 -55 139 -143c0 -89 -48 -144 -139 -144zM181 448c46 0 71 31 71 88s-25 88 -71 88c-47 0 -71 -31 -71 -88s24 -88 71 -88zM579 1c-91 0 -139 55 -139 143
c0 89 48 143 139 143s140 -54 140 -143c0 -88 -49 -143 -140 -143zM579 56c46 0 71 31 71 88s-25 88 -71 88s-71 -31 -71 -88s25 -88 71 -88zM929 1c-91 0 -139 55 -139 143c0 89 48 143 139 143s140 -54 140 -143c0 -88 -49 -143 -140 -143zM929 56c46 0 71 31 71 88
s-25 88 -71 88s-71 -31 -71 -88s25 -88 71 -88z" />
    <glyph glyph-name="Scaron" unicode="&#x160;" horiz-adv-x="580" 
d="M235 862l55 -69l55 69h66l-87 -132h-69l-86 132h66zM39 182h91v-74c69 -15 118 -21 160 -21c91 0 129 45 129 95c0 74 -88 93 -164 114c-114 31 -213 94 -213 209c0 133 109 185 242 185c76 0 146 -10 235 -36v-157h-92v79c-64 13 -102 16 -143 16
c-85 0 -119 -37 -119 -84c0 -67 86 -96 165 -114c114 -26 211 -81 211 -199c0 -140 -109 -205 -251 -205c-76 0 -163 10 -251 36v156z" />
    <glyph glyph-name="guilsinglleft" unicode="&#x2039;" horiz-adv-x="380" 
d="M49 283l282 182v-116l-166 -99l166 -99v-116l-282 182v66z" />
    <glyph glyph-name="OE" unicode="&#x152;" horiz-adv-x="1006" 
d="M335 599c-148 0 -174 -114 -174 -254s26 -264 174 -264s174 124 174 268c0 139 -28 250 -174 250zM967 0h-476v79c-27 -52 -72 -89 -156 -89c-236 0 -296 161 -296 355c0 191 60 345 296 345c85 0 131 -37 157 -87v77h475v-156h-91v65h-245v-192h286v-91h-286v-215h245
v65h91v-156z" />
    <glyph glyph-name="Zcaron" unicode="&#x17d;" horiz-adv-x="560" 
d="M234 862l55 -69l55 69h66l-87 -132h-69l-86 132h66zM51 680h464v-85l-337 -502v-2h259v65h92v-156h-494v85l341 502v2h-234v-65h-91v156z" />
    <glyph glyph-name="quoteleft" unicode="&#x2018;" horiz-adv-x="207" 
d="M102 680h35l-22 -130h44v-138h-110v138z" />
    <glyph glyph-name="quoteright" unicode="&#x2019;" horiz-adv-x="207" 
d="M105 412h-35l22 130h-43v138h110v-138z" />
    <glyph glyph-name="quotedblleft" unicode="&#x201c;" horiz-adv-x="427" 
d="M322 680h35l-22 -130h44v-138h-110v138zM102 680h35l-22 -130h44v-138h-110v138z" />
    <glyph glyph-name="quotedblright" unicode="&#x201d;" horiz-adv-x="427" 
d="M105 412h-35l22 130h-43v138h110v-138zM325 412h-35l22 130h-43v138h110v-138z" />
    <glyph glyph-name="bullet" unicode="&#x2022;" horiz-adv-x="230" 
d="M49 319h110v-138h-110v138z" />
    <glyph glyph-name="endash" unicode="&#x2013;" horiz-adv-x="600" 
d="M49 311h502v-92h-502v92z" />
    <glyph glyph-name="emdash" unicode="&#x2014;" horiz-adv-x="700" 
d="M49 311h602v-92h-602v92z" />
    <glyph glyph-name="tilde" unicode="&#x2dc;" horiz-adv-x="450" 
d="M170 605c-23 0 -37 -5 -76 -45l-35 40c37 68 73 87 108 87c49 0 98 -48 132 -48c18 0 37 6 65 43l28 -46c-18 -36 -46 -77 -93 -77c-38 0 -92 46 -129 46z" />
    <glyph glyph-name="trademark" unicode="&#x2122;" horiz-adv-x="800" 
d="M14 680h301v-93h-55v34h-62v-229h41v-56h-148v56h41v229h-62v-34h-56v93zM652 680h133v-56h-41v-232h41v-56h-148v56h37v177h-1l-91 -233h-48l-91 233h-1v-177h39v-56h-141v56h41v232h-41v56h134l90 -233h1z" />
    <glyph glyph-name="scaron" unicode="&#x161;" horiz-adv-x="480" 
d="M434 356h-92v56c-44 9 -84 10 -107 10c-75 0 -88 -37 -88 -54c0 -28 17 -47 94 -64c100 -21 205 -48 205 -157c0 -105 -72 -157 -191 -157c-79 0 -161 8 -221 23v131h91v-56c47 -9 93 -10 117 -10c79 0 94 43 94 61c0 30 -25 48 -99 62c-110 20 -200 55 -200 164
c0 101 72 145 192 145c79 0 145 -8 205 -23v-131zM194 692l55 -69l55 69h66l-87 -132h-69l-86 132h66z" />
    <glyph glyph-name="guilsinglright" unicode="&#x203a;" horiz-adv-x="380" 
d="M49 465l282 -182v-66l-282 -182v116l166 99l-166 99v116z" />
    <glyph glyph-name="oe" unicode="&#x153;" horiz-adv-x="887" 
d="M275 419c-93 0 -120 -70 -120 -169s27 -169 120 -169c92 0 120 68 120 169c0 99 -27 169 -120 169zM515 298h224c2 14 3 23 3 36c0 49 -26 91 -101 91c-87 0 -120 -53 -126 -127zM847 229h-332c3 -88 46 -148 151 -148c46 0 95 2 156 20l14 -88
c-65 -18 -120 -23 -185 -23c-103 0 -164 38 -197 98c-31 -60 -87 -98 -179 -98c-172 0 -236 104 -236 260s64 260 236 260c92 0 148 -39 179 -98c33 60 93 98 193 98c155 0 207 -80 207 -200c0 -21 -1 -46 -7 -81z" />
    <glyph glyph-name="zcaron" unicode="&#x17e;" horiz-adv-x="470" 
d="M31 500h405v-85l-276 -328v-2h197v59h92v-144h-426v85l279 328v2h-180v-59h-91v144zM197 692l55 -69l55 69h66l-87 -132h-69l-86 132h66z" />
    <glyph glyph-name="Ydieresis" unicode="&#x178;" horiz-adv-x="660" 
d="M208 832h79v-95h-79v95zM391 832h79v-95h-79v95zM388 91h61v-91h-238v91h61v124l-196 374h-59v91h266v-91h-83l138 -265h2l138 265h-82v91h246v-91h-53l-201 -374v-124z" />
    <glyph glyph-name="exclamdown" unicode="&#xa1;" horiz-adv-x="207" 
d="M159 362h-110v138h110v-138zM159 -200h-110l6 480h97z" />
    <glyph glyph-name="cent" unicode="&#xa2;" horiz-adv-x="510" 
d="M333 -100h-47v91c-148 5 -237 107 -237 259c0 151 89 254 237 259v91h47v-92c51 -3 90 -15 139 -36l-13 -85c-49 18 -83 28 -126 30v-335c43 2 77 12 126 31l13 -85c-49 -22 -88 -33 -139 -36v-92zM165 250c0 -93 44 -158 121 -166v332c-77 -8 -121 -74 -121 -166z" />
    <glyph glyph-name="sterling" unicode="&#xa3;" horiz-adv-x="580" 
d="M411 315h-222v-218h268v59h92v-156h-520v97h50v218h-50v54h50v136c0 133 102 185 235 185c82 0 153 -14 235 -44v-149h-92v72c-55 18 -101 23 -143 23c-92 0 -125 -40 -125 -95v-128h222v-54z" />
    <glyph glyph-name="currency" unicode="&#xa4;" horiz-adv-x="513" 
d="M100 249c0 45 18 85 48 114l-78 90l8 8l79 -90c27 22 62 36 100 36c37 0 72 -14 99 -36l78 90l9 -8l-78 -89c31 -29 50 -70 50 -115s-19 -86 -49 -114l76 -86l-9 -9l-77 87c-27 -22 -62 -35 -99 -35c-38 0 -73 13 -100 35l-76 -87l-9 9l76 86c-30 29 -48 69 -48 114z
M112 249c0 -79 66 -145 145 -145s146 66 146 145s-67 146 -146 146s-145 -67 -145 -146z" />
    <glyph glyph-name="yen" unicode="&#xa5;" horiz-adv-x="660" 
d="M388 91h61v-91h-238v91h61v119h-163v54h137l-176 325h-53v91h266v-91h-77l132 -253h2l131 253h-75v91h246v-91h-53l-175 -325h137v-54h-163v-119z" />
    <glyph glyph-name="brokenbar" unicode="&#xa6;" horiz-adv-x="170" 
d="M121 380h-72v400h72v-400zM121 -100h-72v400h72v-400z" />
    <glyph glyph-name="section" unicode="&#xa7;" horiz-adv-x="600" 
d="M551 345c0 -74 -33 -127 -86 -160c48 -35 80 -83 80 -150c0 -133 -109 -185 -241 -185c-95 0 -179 26 -235 62l45 91c70 -36 134 -49 190 -49c91 0 118 36 118 81c0 70 -104 97 -165 111c-114 27 -205 80 -205 199c0 74 33 127 86 159c-48 35 -79 84 -79 151
c0 133 108 185 241 185c95 0 179 -26 235 -63l-46 -90c-70 36 -134 49 -189 49c-91 0 -119 -37 -119 -81c0 -70 104 -97 165 -111c114 -27 205 -81 205 -199zM277 442c-15 1 -31 2 -47 5c-39 -21 -55 -59 -55 -96c0 -63 73 -85 121 -97c22 -5 46 -12 69 -20
c42 21 64 63 64 105c0 70 -95 90 -152 103z" />
    <glyph glyph-name="dieresis" unicode="&#xa8;" horiz-adv-x="480" 
d="M109 682h79v-95h-79v95zM292 682h79v-95h-79v95z" />
    <glyph glyph-name="copyright" unicode="&#xa9;" horiz-adv-x="765" 
d="M30 340c0 195 157 350 352 350s353 -155 353 -350s-158 -350 -353 -350s-352 155 -352 350zM81 340c0 -167 134 -303 301 -303c166 0 302 136 302 303c0 166 -136 299 -302 299c-167 0 -301 -133 -301 -299zM390 457c-68 0 -103 -36 -103 -113c0 -81 35 -123 103 -123
c27 0 64 6 100 30l24 -50c-25 -18 -66 -39 -128 -39c-108 0 -170 65 -170 182c0 111 62 172 170 172c62 0 103 -21 128 -39l-24 -51c-36 24 -73 31 -100 31z" />
    <glyph glyph-name="ordfeminine" unicode="&#xaa;" horiz-adv-x="278" 
d="M81 607h-48v66c35 8 72 12 102 12c62 0 96 -17 96 -83v-124h30v-48h-88v25h-1c-20 -18 -38 -27 -62 -29c-8 0 -15 -1 -24 0c-37 2 -61 26 -66 58c-1 8 -2 16 -2 24c3 55 56 70 104 70h51v21c0 28 -16 38 -52 38c-10 0 -22 -1 -40 -3v-27zM173 488v55h-41
c-38 0 -56 -9 -56 -38c0 -22 18 -36 44 -36c23 0 43 10 53 19z" />
    <glyph glyph-name="guillemotleft" unicode="&#xab;" horiz-adv-x="692" 
d="M74 283l263 182v-104l-147 -111l147 -111v-104l-263 182v66zM355 283l264 182v-104l-148 -111l148 -111v-104l-264 182v66z" />
    <glyph glyph-name="logicalnot" unicode="&#xac;" horiz-adv-x="590" 
d="M69 311h452v-197h-91v105h-361v92z" />
    <glyph glyph-name="uni00AD" unicode="&#xad;" horiz-adv-x="540" 
d="M69 311h402v-92h-402v92z" />
    <glyph glyph-name="registered" unicode="&#xae;" horiz-adv-x="765" 
d="M540 168h-83l-79 109h-59v-109h-67v344h141c84 0 134 -43 134 -116c0 -58 -30 -97 -78 -108zM319 453v-117h72c41 0 68 17 68 60c0 39 -27 57 -66 57h-74zM30 340c0 195 157 350 352 350s353 -155 353 -350s-158 -350 -353 -350s-352 155 -352 350zM81 340
c0 -167 134 -303 301 -303c166 0 302 136 302 303c0 166 -136 299 -302 299c-167 0 -301 -133 -301 -299z" />
    <glyph glyph-name="macron" unicode="&#xaf;" horiz-adv-x="380" 
d="M61 657h258v-78h-258v78z" />
    <glyph glyph-name="degree" unicode="&#xb0;" horiz-adv-x="260" 
d="M37 580c0 51 42 93 93 93s93 -42 93 -93s-42 -93 -93 -93s-93 42 -93 93zM79 580c0 -29 22 -51 51 -51s51 22 51 51s-22 51 -51 51s-51 -22 -51 -51z" />
    <glyph glyph-name="plusminus" unicode="&#xb1;" horiz-adv-x="500" 
d="M49 121h155v108h-155v91h155v156h92v-156h155v-91h-155v-108h155v-91h-402v91z" />
    <glyph glyph-name="twosuperior" unicode="&#xb2;" horiz-adv-x="271" 
d="M206 620h48v-80h-237v56c137 87 163 138 163 174c0 55 -43 62 -64 62c-17 0 -31 -2 -50 -10v-27h-49v65c40 17 69 25 112 25c76 0 112 -46 112 -102c0 -70 -51 -128 -141 -191v-1h106v29z" />
    <glyph glyph-name="threesuperior" unicode="&#xb3;" horiz-adv-x="270" 
d="M17 559v66h49v-32c18 -7 39 -10 61 -10c54 0 66 32 66 52c0 32 -23 51 -72 51h-44v48h41c51 0 67 29 67 55c0 21 -14 48 -58 48c-21 0 -39 -4 -56 -10v-32h-49v66c39 18 78 24 115 24c61 0 106 -31 106 -90c0 -39 -25 -65 -62 -78v-1c47 -11 72 -45 72 -85
c0 -61 -45 -96 -123 -96c-41 0 -74 6 -113 24z" />
    <glyph glyph-name="acute" unicode="&#xb4;" horiz-adv-x="290" 
d="M220 700l-78 -140h-85l58 140h105z" />
    <glyph glyph-name="mu" unicode="&#xb5;" horiz-adv-x="590" 
d="M17 409v91h172v-319c0 -61 27 -100 90 -100c49 0 95 29 122 48v280h-72v91h182v-409h61v-91h-171v67h-2c-32 -31 -71 -56 -114 -63c-41 -8 -74 -2 -96 19v-45c0 -113 -25 -181 -135 -187c-12 -1 -23 -1 -36 0c-20 1 -43 3 -64 7l10 85c20 -3 35 -5 48 -5
c53 0 67 30 67 85v446h-62z" />
    <glyph glyph-name="paragraph" unicode="&#xb6;" horiz-adv-x="565" 
d="M387 4v635h-64v-344h-92c-120 0 -201 78 -201 193c0 120 81 192 201 192h285v-41h-82v-598h82v-41h-128v4h-1z" />
    <glyph glyph-name="periodcentered" unicode="&#xb7;" horiz-adv-x="207" 
d="M49 319h110v-138h-110v138z" />
    <glyph glyph-name="cedilla" unicode="&#xb8;" horiz-adv-x="294" 
d="M110 -76v76h60v-48c29 -2 71 -25 71 -76c0 -49 -43 -81 -106 -81c-24 0 -45 4 -71 12l6 42c16 -4 28 -7 47 -7c39 0 50 20 50 37c0 20 -16 41 -57 45z" />
    <glyph glyph-name="onesuperior" unicode="&#xb9;" horiz-adv-x="207" 
d="M133 588h56v-48h-171v48h57v238l-56 -3v41l86 19h28v-295z" />
    <glyph glyph-name="ordmasculine" unicode="&#xba;" horiz-adv-x="273" 
d="M137 637c-45 0 -58 -34 -58 -82s13 -82 58 -82c44 0 58 34 58 82s-14 82 -58 82zM137 425c-87 0 -120 52 -120 130s33 130 120 130c86 0 119 -52 119 -130s-33 -130 -119 -130z" />
    <glyph glyph-name="guillemotright" unicode="&#xbb;" horiz-adv-x="692" 
d="M355 465l264 -182v-66l-264 -182v104l147 111l-147 111v104zM74 465l263 -182v-66l-263 -182v104l147 111l-147 111v104z" />
    <glyph glyph-name="onequarter" unicode="&#xbc;" horiz-adv-x="800" 
d="M623 680l-370 -680h-35l370 680h35zM183 388h56v-48h-171v48h57v238l-56 -3v41l86 19h28v-295zM534 143h95v137h-1c-28 -53 -57 -93 -94 -137zM629 48v47h-155v48c55 60 106 120 142 200h71v-200h45v-48h-45v-47h30v-48h-118v48h30z" />
    <glyph glyph-name="onehalf" unicode="&#xbd;" horiz-adv-x="800" 
d="M584 680l-370 -680h-35l370 680h35zM183 388h56v-48h-171v48h57v238l-56 -3v41l86 19h28v-295zM685 80h47v-80h-236v56c136 87 162 138 162 174c0 55 -42 62 -64 62c-16 0 -30 -2 -50 -10v-27h-48v65c40 17 69 25 112 25c76 0 111 -46 111 -102c0 -70 -51 -128 -141 -191
v-1h107v29z" />
    <glyph glyph-name="threequarters" unicode="&#xbe;" horiz-adv-x="800" 
d="M633 680l-370 -680h-35l370 680h35zM67 359v66h49v-32c18 -7 39 -10 61 -10c54 0 66 32 66 52c0 32 -23 51 -72 51h-44v48h41c51 0 67 29 67 55c0 21 -14 48 -58 48c-21 0 -39 -4 -56 -10v-32h-49v66c39 18 78 24 115 24c61 0 106 -31 106 -90c0 -39 -25 -65 -62 -78v-1
c47 -11 72 -45 72 -85c0 -61 -45 -96 -123 -96c-41 0 -74 6 -113 24zM534 143h95v137h-1c-28 -53 -57 -93 -94 -137zM629 48v47h-155v48c55 60 106 120 142 200h71v-200h45v-48h-45v-47h30v-48h-118v48h30z" />
    <glyph glyph-name="questiondown" unicode="&#xbf;" horiz-adv-x="500" 
d="M451 2v-153c-57 -23 -133 -39 -202 -39c-162 0 -200 101 -200 179c0 172 178 173 178 271v30h98v-30c0 -153 -163 -150 -163 -260c0 -79 70 -86 110 -86c21 0 52 4 88 16v72h91zM331 362h-110v138h110v-138z" />
    <glyph glyph-name="Agrave" unicode="&#xc0;" horiz-adv-x="700" 
d="M291 730l-78 140h106l57 -140h-85zM181 680h253l194 -589h54v-91h-251v91h70l-36 116h-231l-40 -116h68v-91h-245v91h63l171 498h-70v91zM354 576h-1l-95 -284h186z" />
    <glyph glyph-name="Aacute" unicode="&#xc1;" horiz-adv-x="700" 
d="M487 870l-78 -140h-85l58 140h105zM181 680h253l194 -589h54v-91h-251v91h70l-36 116h-231l-40 -116h68v-91h-245v91h63l171 498h-70v91zM354 576h-1l-95 -284h186z" />
    <glyph glyph-name="Acircumflex" unicode="&#xc2;" horiz-adv-x="700" 
d="M347 800l-55 -70h-66l86 132h69l87 -132h-66zM181 680h253l194 -589h54v-91h-251v91h70l-36 116h-231l-40 -116h68v-91h-245v91h63l171 498h-70v91zM354 576h-1l-95 -284h186z" />
    <glyph glyph-name="Atilde" unicode="&#xc3;" horiz-adv-x="700" 
d="M292 775c-23 0 -37 -5 -76 -45l-35 40c37 68 73 87 108 87c49 0 98 -48 132 -48c18 0 37 6 65 43l28 -46c-18 -36 -46 -77 -93 -77c-38 0 -92 46 -129 46zM181 680h253l194 -589h54v-91h-251v91h70l-36 116h-231l-40 -116h68v-91h-245v91h63l171 498h-70v91zM354 576h-1
l-95 -284h186z" />
    <glyph glyph-name="Adieresis" unicode="&#xc4;" horiz-adv-x="700" 
d="M221 832h79v-95h-79v95zM404 832h79v-95h-79v95zM181 680h253l194 -589h54v-91h-251v91h70l-36 116h-231l-40 -116h68v-91h-245v91h63l171 498h-70v91zM354 576h-1l-95 -284h186z" />
    <glyph glyph-name="Aring" unicode="&#xc5;" horiz-adv-x="700" 
d="M255 820c0 51 42 93 93 93s93 -42 93 -93s-42 -93 -93 -93s-93 42 -93 93zM297 820c0 -29 22 -51 51 -51s51 22 51 51s-22 51 -51 51s-51 -22 -51 -51zM181 680h253l194 -589h54v-91h-251v91h70l-36 116h-231l-40 -116h68v-91h-245v91h63l171 498h-70v91zM354 576h-1
l-95 -284h186z" />
    <glyph glyph-name="AE" unicode="&#xc6;" horiz-adv-x="916" 
d="M325 589h-71v91h623v-156h-91v65h-245v-192h286v-91h-286v-215h245v65h91v-156h-452v216h-172l-107 -216h-136v91h60zM423 575l-131 -268h133v268h-2z" />
    <glyph glyph-name="Ccedilla" unicode="&#xc7;" horiz-adv-x="610" 
d="M484 176h91v-150c-75 -22 -140 -32 -205 -35v-39c29 -2 71 -25 71 -76c0 -49 -43 -81 -106 -81c-24 0 -45 4 -71 12l6 42c16 -4 28 -7 47 -7c39 0 50 20 50 37c0 20 -16 41 -57 45v67c-215 10 -271 165 -271 354c0 191 60 345 296 345c79 0 151 -10 240 -36v-150h-91v79
c-61 13 -99 16 -140 16c-142 0 -183 -114 -183 -254c0 -150 41 -264 183 -264c41 0 79 2 140 16v79z" />
    <glyph glyph-name="Egrave" unicode="&#xc8;" horiz-adv-x="570" 
d="M265 730l-78 140h106l57 -140h-85zM17 680h514v-156h-91v65h-245v-192h286v-91h-286v-215h245v65h91v-156h-514v91h62v498h-62v91z" />
    <glyph glyph-name="Eacute" unicode="&#xc9;" horiz-adv-x="570" 
d="M419 870l-78 -140h-85l58 140h105zM17 680h514v-156h-91v65h-245v-192h286v-91h-286v-215h245v65h91v-156h-514v91h62v498h-62v91z" />
    <glyph glyph-name="Ecircumflex" unicode="&#xca;" horiz-adv-x="570" 
d="M311 800l-55 -70h-66l86 132h69l87 -132h-66zM17 680h514v-156h-91v65h-245v-192h286v-91h-286v-215h245v65h91v-156h-514v91h62v498h-62v91z" />
    <glyph glyph-name="Edieresis" unicode="&#xcb;" horiz-adv-x="570" 
d="M166 832h79v-95h-79v95zM349 832h79v-95h-79v95zM17 680h514v-156h-91v65h-245v-192h286v-91h-286v-215h245v65h91v-156h-514v91h62v498h-62v91z" />
    <glyph glyph-name="Igrave" unicode="&#xcc;" horiz-adv-x="274" 
d="M94 730l-78 140h106l57 -140h-85zM17 91h62v498h-62v91h239v-91h-61v-498h61v-91h-239v91z" />
    <glyph glyph-name="Iacute" unicode="&#xcd;" horiz-adv-x="274" 
d="M258 870l-78 -140h-85l58 140h105zM17 91h62v498h-62v91h239v-91h-61v-498h61v-91h-239v91z" />
    <glyph glyph-name="Icircumflex" unicode="&#xce;" horiz-adv-x="274" 
d="M137 800l-55 -70h-66l86 132h69l87 -132h-66zM17 91h62v498h-62v91h239v-91h-61v-498h61v-91h-239v91z" />
    <glyph glyph-name="Idieresis" unicode="&#xcf;" horiz-adv-x="274" 
d="M6 832h79v-95h-79v95zM189 832h79v-95h-79v95zM17 91h62v498h-62v91h239v-91h-61v-498h61v-91h-239v91z" />
    <glyph glyph-name="Eth" unicode="&#xd0;" horiz-adv-x="660" 
d="M17 680h310c228 0 294 -144 294 -335c0 -193 -66 -345 -294 -345h-310v91h62v221h-62v66h62v211h-62v91zM195 91h132c140 0 172 114 172 254s-32 244 -172 244h-132v-211h104v-66h-104v-221z" />
    <glyph glyph-name="Ntilde" unicode="&#xd1;" horiz-adv-x="690" 
d="M299 775c-23 0 -37 -5 -76 -45l-35 40c37 68 73 87 108 87c49 0 98 -48 132 -48c18 0 37 6 65 43l28 -46c-18 -36 -46 -77 -93 -77c-38 0 -92 46 -129 46zM440 680h232v-91h-61v-589h-119l-304 469h-2v-378h64v-91h-233v91h62v498h-62v91h175l310 -485h2v394h-64v91z" />
    <glyph glyph-name="Ograve" unicode="&#xd2;" horiz-adv-x="670" 
d="M304 730l-78 140h106l57 -140h-85zM335 599c-148 0 -174 -114 -174 -254s26 -264 174 -264s174 124 174 264s-26 254 -174 254zM335 -10c-236 0 -296 162 -296 355c0 191 60 345 296 345s296 -154 296 -345c0 -193 -60 -355 -296 -355z" />
    <glyph glyph-name="Oacute" unicode="&#xd3;" horiz-adv-x="670" 
d="M460 870l-78 -140h-85l58 140h105zM335 599c-148 0 -174 -114 -174 -254s26 -264 174 -264s174 124 174 264s-26 254 -174 254zM335 -10c-236 0 -296 162 -296 355c0 191 60 345 296 345s296 -154 296 -345c0 -193 -60 -355 -296 -355z" />
    <glyph glyph-name="Ocircumflex" unicode="&#xd4;" horiz-adv-x="670" 
d="M336 800l-55 -70h-66l86 132h69l87 -132h-66zM335 599c-148 0 -174 -114 -174 -254s26 -264 174 -264s174 124 174 264s-26 254 -174 254zM335 -10c-236 0 -296 162 -296 355c0 191 60 345 296 345s296 -154 296 -345c0 -193 -60 -355 -296 -355z" />
    <glyph glyph-name="Otilde" unicode="&#xd5;" horiz-adv-x="670" 
d="M278 775c-23 0 -37 -5 -76 -45l-35 40c37 68 73 87 108 87c49 0 98 -48 132 -48c18 0 37 6 65 43l28 -46c-18 -36 -46 -77 -93 -77c-38 0 -92 46 -129 46zM335 599c-148 0 -174 -114 -174 -254s26 -264 174 -264s174 124 174 264s-26 254 -174 254zM335 -10
c-236 0 -296 162 -296 355c0 191 60 345 296 345s296 -154 296 -345c0 -193 -60 -355 -296 -355z" />
    <glyph glyph-name="Odieresis" unicode="&#xd6;" horiz-adv-x="670" 
d="M208 832h79v-95h-79v95zM391 832h79v-95h-79v95zM335 599c-148 0 -174 -114 -174 -254s26 -264 174 -264s174 124 174 264s-26 254 -174 254zM335 -10c-236 0 -296 162 -296 355c0 191 60 345 296 345s296 -154 296 -345c0 -193 -60 -355 -296 -355z" />
    <glyph glyph-name="multiply" unicode="&#xd7;" horiz-adv-x="526" 
d="M466 403l-139 -138l139 -138l-65 -65l-138 138l-138 -138l-65 65l138 138l-138 138l65 65l138 -139l138 139z" />
    <glyph glyph-name="Oslash" unicode="&#xd8;" horiz-adv-x="670" 
d="M335 -10c-92 0 -156 25 -201 67l-72 -90l-35 27l76 95c-49 65 -64 156 -64 256c0 191 60 345 296 345c88 0 151 -23 196 -61l76 97l35 -28l-79 -99c51 -63 68 -153 68 -254c0 -193 -60 -355 -296 -355zM335 87c148 0 174 118 174 258c0 57 -5 112 -26 153l-279 -353
c26 -36 67 -58 131 -58zM335 592c-148 0 -174 -107 -174 -247c0 -56 4 -110 23 -153l279 351c-26 31 -67 49 -128 49z" />
    <glyph glyph-name="Ugrave" unicode="&#xd9;" horiz-adv-x="680" 
d="M289 730l-78 140h106l57 -140h-85zM424 680h238v-91h-61v-349c0 -176 -99 -250 -261 -250s-261 74 -261 250v349h-62v91h239v-91h-61v-349c0 -74 19 -159 147 -159c122 0 143 85 143 159v349h-61v91z" />
    <glyph glyph-name="Uacute" unicode="&#xda;" horiz-adv-x="680" 
d="M466 870l-78 -140h-85l58 140h105zM424 680h238v-91h-61v-349c0 -176 -99 -250 -261 -250s-261 74 -261 250v349h-62v91h239v-91h-61v-349c0 -74 19 -159 147 -159c122 0 143 85 143 159v349h-61v91z" />
    <glyph glyph-name="Ucircumflex" unicode="&#xdb;" horiz-adv-x="680" 
d="M343 800l-55 -70h-66l86 132h69l87 -132h-66zM424 680h238v-91h-61v-349c0 -176 -99 -250 -261 -250s-261 74 -261 250v349h-62v91h239v-91h-61v-349c0 -74 19 -159 147 -159c122 0 143 85 143 159v349h-61v91z" />
    <glyph glyph-name="Udieresis" unicode="&#xdc;" horiz-adv-x="680" 
d="M208 832h79v-95h-79v95zM391 832h79v-95h-79v95zM424 680h238v-91h-61v-349c0 -176 -99 -250 -261 -250s-261 74 -261 250v349h-62v91h239v-91h-61v-349c0 -74 19 -159 147 -159c122 0 143 85 143 159v349h-61v91z" />
    <glyph glyph-name="Yacute" unicode="&#xdd;" horiz-adv-x="660" 
d="M472 870l-78 -140h-85l58 140h105zM388 91h61v-91h-238v91h61v124l-196 374h-59v91h266v-91h-83l138 -265h2l138 265h-82v91h246v-91h-53l-201 -374v-124z" />
    <glyph glyph-name="Thorn" unicode="&#xde;" horiz-adv-x="620" 
d="M195 546h169c138 0 217 -80 217 -206c0 -130 -79 -206 -217 -206h-169v-134h-178v91h62v498h-62v91h178v-134zM195 455v-230h156c66 0 111 38 111 115c0 73 -45 115 -111 115h-156z" />
    <glyph glyph-name="germandbls" unicode="&#xdf;" horiz-adv-x="645" 
d="M89 91v330h-72v72l72 7c0 158 113 200 231 200c124 0 211 -43 211 -150c0 -113 -121 -138 -121 -187c0 -25 22 -36 45 -45c121 -44 156 -98 156 -166c0 -120 -103 -162 -207 -162c-50 0 -91 8 -129 20l14 85c43 -14 78 -20 111 -20c81 0 95 51 95 76
c0 67 -83 89 -114 105c-55 28 -75 47 -75 95c0 74 98 95 98 180c0 63 -51 81 -93 81c-87 0 -112 -58 -112 -138v-474h-172v91h62z" />
    <glyph glyph-name="agrave" unicode="&#xe0;" horiz-adv-x="535" 
d="M157 356h-91v132c69 14 141 22 199 22c124 0 191 -34 191 -166v-253h61v-91h-171v50h-2c-40 -39 -86 -60 -147 -60c-81 0 -163 46 -163 147c0 122 109 158 213 158h99v42c0 59 -32 82 -106 82c-21 0 -47 -2 -83 -8v-55zM346 112v117h-85c-79 0 -117 -21 -117 -79
c0 -48 37 -75 91 -75c49 0 91 21 111 37zM231 560l-78 140h106l57 -140h-85z" />
    <glyph glyph-name="aacute" unicode="&#xe1;" horiz-adv-x="535" 
d="M157 356h-91v132c69 14 141 22 199 22c124 0 191 -34 191 -166v-253h61v-91h-171v50h-2c-40 -39 -86 -60 -147 -60c-81 0 -163 46 -163 147c0 122 109 158 213 158h99v42c0 59 -32 82 -106 82c-21 0 -47 -2 -83 -8v-55zM346 112v117h-85c-79 0 -117 -21 -117 -79
c0 -48 37 -75 91 -75c49 0 91 21 111 37zM386 700l-78 -140h-85l58 140h105z" />
    <glyph glyph-name="acircumflex" unicode="&#xe2;" horiz-adv-x="535" 
d="M157 356h-91v132c69 14 141 22 199 22c124 0 191 -34 191 -166v-253h61v-91h-171v50h-2c-40 -39 -86 -60 -147 -60c-81 0 -163 46 -163 147c0 122 109 158 213 158h99v42c0 59 -32 82 -106 82c-21 0 -47 -2 -83 -8v-55zM346 112v117h-85c-79 0 -117 -21 -117 -79
c0 -48 37 -75 91 -75c49 0 91 21 111 37zM270 630l-55 -70h-66l86 132h69l87 -132h-66z" />
    <glyph glyph-name="atilde" unicode="&#xe3;" horiz-adv-x="535" 
d="M157 356h-91v132c69 14 141 22 199 22c124 0 191 -34 191 -166v-253h61v-91h-171v50h-2c-40 -39 -86 -60 -147 -60c-81 0 -163 46 -163 147c0 122 109 158 213 158h99v42c0 59 -32 82 -106 82c-21 0 -47 -2 -83 -8v-55zM346 112v117h-85c-79 0 -117 -21 -117 -79
c0 -48 37 -75 91 -75c49 0 91 21 111 37zM212 605c-23 0 -37 -5 -76 -45l-35 40c37 68 73 87 108 87c49 0 98 -48 132 -48c18 0 37 6 65 43l28 -46c-18 -36 -46 -77 -93 -77c-38 0 -92 46 -129 46z" />
    <glyph glyph-name="adieresis" unicode="&#xe4;" horiz-adv-x="535" 
d="M157 356h-91v132c69 14 141 22 199 22c124 0 191 -34 191 -166v-253h61v-91h-171v50h-2c-40 -39 -86 -60 -147 -60c-81 0 -163 46 -163 147c0 122 109 158 213 158h99v42c0 59 -32 82 -106 82c-21 0 -47 -2 -83 -8v-55zM346 112v117h-85c-79 0 -117 -21 -117 -79
c0 -48 37 -75 91 -75c49 0 91 21 111 37zM138 682h79v-95h-79v95zM321 682h79v-95h-79v95z" />
    <glyph glyph-name="aring" unicode="&#xe5;" horiz-adv-x="535" 
d="M157 356h-91v132c69 14 141 22 199 22c124 0 191 -34 191 -166v-253h61v-91h-171v50h-2c-40 -39 -86 -60 -147 -60c-81 0 -163 46 -163 147c0 122 109 158 213 158h99v42c0 59 -32 82 -106 82c-21 0 -47 -2 -83 -8v-55zM346 112v117h-85c-79 0 -117 -21 -117 -79
c0 -48 37 -75 91 -75c49 0 91 21 111 37zM177 650c0 51 42 93 93 93s93 -42 93 -93s-42 -93 -93 -93s-93 42 -93 93zM219 650c0 -29 22 -51 51 -51s51 22 51 51s-22 51 -51 51s-51 -22 -51 -51z" />
    <glyph glyph-name="ae" unicode="&#xe6;" horiz-adv-x="837" 
d="M235 75c49 0 95 21 123 47c-8 31 -12 66 -12 107h-96c-76 0 -106 -28 -106 -79c0 -48 37 -75 91 -75zM466 298h223c3 14 4 23 4 36c0 49 -26 91 -102 91c-86 0 -119 -53 -125 -127zM797 229h-331c3 -90 47 -148 151 -148c45 0 94 2 156 20l13 -88
c-64 -18 -120 -23 -185 -23c-110 0 -177 33 -215 93c-67 -75 -132 -93 -195 -93c-100 0 -157 64 -157 151c0 122 108 154 212 154h100v36c0 64 -27 88 -106 88c-21 0 -47 -2 -83 -8v-55h-91v132c50 10 128 22 192 22c86 0 133 -21 163 -81c33 50 89 81 176 81
c155 0 208 -80 208 -200c0 -21 -2 -46 -8 -81z" />
    <glyph glyph-name="ccedilla" unicode="&#xe7;" horiz-adv-x="487" 
d="M247 -76v68c-155 14 -208 113 -208 258c0 156 63 260 251 260c63 0 112 -8 172 -23v-131h-91v55c-35 8 -61 8 -81 8c-91 0 -135 -64 -135 -169c0 -104 44 -169 135 -169c36 0 71 0 153 20l19 -88c-54 -14 -99 -21 -155 -22v-39c29 -2 71 -25 71 -76
c0 -49 -43 -81 -106 -81c-24 0 -45 4 -71 12l7 42c16 -4 27 -7 47 -7c38 0 49 20 49 37c0 20 -16 41 -57 45z" />
    <glyph glyph-name="egrave" unicode="&#xe8;" horiz-adv-x="530" 
d="M490 229h-335c3 -88 49 -148 154 -148c46 0 95 2 156 20l14 -88c-65 -18 -120 -23 -185 -23c-189 0 -255 104 -255 260s66 260 251 260c155 0 207 -80 207 -200c0 -21 -1 -46 -7 -81zM284 425c-87 0 -123 -53 -129 -127h227c2 14 4 23 4 36c0 49 -27 91 -102 91zM241 560
l-78 140h106l57 -140h-85z" />
    <glyph glyph-name="eacute" unicode="&#xe9;" horiz-adv-x="530" 
d="M490 229h-335c3 -88 49 -148 154 -148c46 0 95 2 156 20l14 -88c-65 -18 -120 -23 -185 -23c-189 0 -255 104 -255 260s66 260 251 260c155 0 207 -80 207 -200c0 -21 -1 -46 -7 -81zM284 425c-87 0 -123 -53 -129 -127h227c2 14 4 23 4 36c0 49 -27 91 -102 91zM426 700
l-78 -140h-85l58 140h105z" />
    <glyph glyph-name="ecircumflex" unicode="&#xea;" horiz-adv-x="530" 
d="M490 229h-335c3 -88 49 -148 154 -148c46 0 95 2 156 20l14 -88c-65 -18 -120 -23 -185 -23c-189 0 -255 104 -255 260s66 260 251 260c155 0 207 -80 207 -200c0 -21 -1 -46 -7 -81zM284 425c-87 0 -123 -53 -129 -127h227c2 14 4 23 4 36c0 49 -27 91 -102 91zM289 630
l-55 -70h-66l86 132h69l87 -132h-66z" />
    <glyph glyph-name="edieresis" unicode="&#xeb;" horiz-adv-x="530" 
d="M490 229h-335c3 -88 49 -148 154 -148c46 0 95 2 156 20l14 -88c-65 -18 -120 -23 -185 -23c-189 0 -255 104 -255 260s66 260 251 260c155 0 207 -80 207 -200c0 -21 -1 -46 -7 -81zM284 425c-87 0 -123 -53 -129 -127h227c2 14 4 23 4 36c0 49 -27 91 -102 91zM153 682
h79v-95h-79v95zM336 682h79v-95h-79v95z" />
    <glyph glyph-name="igrave" unicode="&#xec;" horiz-adv-x="267" 
d="M17 409v91h172v-409h61v-91h-233v91h62v318h-62zM66 560l-78 140h106l57 -140h-85z" />
    <glyph glyph-name="iacute" unicode="&#xed;" horiz-adv-x="267" 
d="M17 409v91h172v-409h61v-91h-233v91h62v318h-62zM262 700l-78 -140h-85l58 140h105z" />
    <glyph glyph-name="icircumflex" unicode="&#xee;" horiz-adv-x="267" 
d="M121 630l-55 -70h-66l86 132h69l87 -132h-66zM17 409v91h172v-409h61v-91h-233v91h62v318h-62z" />
    <glyph glyph-name="idieresis" unicode="&#xef;" horiz-adv-x="267" 
d="M18 409v91h172v-409h61v-91h-233v91h62v318h-62zM-4 682h79v-95h-79v95zM179 682h79v-95h-79v95z" />
    <glyph glyph-name="eth" unicode="&#xf0;" horiz-adv-x="550" 
d="M373 648l75 74l38 -38l-69 -68c58 -59 94 -159 94 -316c0 -160 -62 -310 -244 -310c-132 0 -228 86 -228 230c0 150 78 235 208 235c61 0 116 -32 152 -79l2 1c-1 51 -12 123 -54 169l-61 -62l-38 39l51 50c-24 15 -54 26 -87 26c-42 0 -82 -6 -139 -27l-13 85
c56 23 96 33 161 33c55 0 108 -12 152 -42zM392 292c-29 38 -68 67 -116 67c-99 0 -121 -78 -121 -139c0 -91 54 -139 118 -139c108 0 126 106 119 211z" />
    <glyph glyph-name="ntilde" unicode="&#xf1;" horiz-adv-x="590" 
d="M346 0v91h55v228c0 61 -24 100 -90 100c-49 0 -95 -29 -122 -48v-280h55v-91h-227v91h62v318h-62v91h172v-68h2c45 47 103 78 170 78c100 0 150 -63 150 -166v-253h61v-91h-226zM242 605c-23 0 -37 -5 -76 -45l-35 40c37 68 73 87 108 87c49 0 98 -48 132 -48
c18 0 37 6 65 43l28 -46c-18 -36 -46 -77 -93 -77c-38 0 -92 46 -129 46z" />
    <glyph glyph-name="ograve" unicode="&#xf2;" horiz-adv-x="550" 
d="M275 419c-93 0 -120 -70 -120 -169s27 -169 120 -169s120 70 120 169s-27 169 -120 169zM275 -10c-172 0 -236 104 -236 260s64 260 236 260s236 -104 236 -260s-64 -260 -236 -260zM235 560l-78 140h106l57 -140h-85z" />
    <glyph glyph-name="oacute" unicode="&#xf3;" horiz-adv-x="550" 
d="M275 419c-93 0 -120 -70 -120 -169s27 -169 120 -169s120 70 120 169s-27 169 -120 169zM275 -10c-172 0 -236 104 -236 260s64 260 236 260s236 -104 236 -260s-64 -260 -236 -260zM403 700l-78 -140h-85l58 140h105z" />
    <glyph glyph-name="ocircumflex" unicode="&#xf4;" horiz-adv-x="550" 
d="M275 419c-93 0 -120 -70 -120 -169s27 -169 120 -169s120 70 120 169s-27 169 -120 169zM275 -10c-172 0 -236 104 -236 260s64 260 236 260s236 -104 236 -260s-64 -260 -236 -260zM275 630l-55 -70h-66l86 132h69l87 -132h-66z" />
    <glyph glyph-name="otilde" unicode="&#xf5;" horiz-adv-x="550" 
d="M275 419c-93 0 -120 -70 -120 -169s27 -169 120 -169s120 70 120 169s-27 169 -120 169zM275 -10c-172 0 -236 104 -236 260s64 260 236 260s236 -104 236 -260s-64 -260 -236 -260zM219 605c-23 0 -37 -5 -76 -45l-35 40c37 68 73 87 108 87c49 0 98 -48 132 -48
c18 0 37 6 65 43l28 -46c-18 -36 -46 -77 -93 -77c-38 0 -92 46 -129 46z" />
    <glyph glyph-name="odieresis" unicode="&#xf6;" horiz-adv-x="550" 
d="M275 419c-93 0 -120 -70 -120 -169s27 -169 120 -169s120 70 120 169s-27 169 -120 169zM275 -10c-172 0 -236 104 -236 260s64 260 236 260s236 -104 236 -260s-64 -260 -236 -260zM144 682h79v-95h-79v95zM327 682h79v-95h-79v95z" />
    <glyph glyph-name="divide" unicode="&#xf7;" horiz-adv-x="500" 
d="M49 298h402v-66h-402v66zM201 165h98v-125h-98v125zM201 490h98v-125h-98v125z" />
    <glyph glyph-name="oslash" unicode="&#xf8;" horiz-adv-x="550" 
d="M275 -10c-67 0 -117 17 -153 47l-60 -70l-35 27l61 72c-35 45 -49 108 -49 184c0 156 64 260 236 260c66 0 117 -17 152 -47l61 71l34 -28l-61 -72c35 -45 50 -109 50 -184c0 -156 -64 -260 -236 -260zM275 81c93 0 120 70 120 169c0 32 -5 63 -16 88l-190 -223
c19 -21 46 -34 86 -34zM275 419c-93 0 -120 -70 -120 -169c0 -33 4 -64 16 -88l189 222c-19 21 -46 35 -85 35z" />
    <glyph glyph-name="ugrave" unicode="&#xf9;" horiz-adv-x="590" 
d="M17 409v91h172v-319c0 -61 27 -100 90 -100c49 0 95 29 122 48v280h-72v91h182v-409h61v-91h-171v67h-2c-45 -46 -103 -77 -170 -77c-100 0 -150 62 -150 166v253h-62zM240 560l-78 140h106l57 -140h-85z" />
    <glyph glyph-name="uacute" unicode="&#xfa;" horiz-adv-x="590" 
d="M17 409v91h172v-319c0 -61 27 -100 90 -100c49 0 95 29 122 48v280h-72v91h182v-409h61v-91h-171v67h-2c-45 -46 -103 -77 -170 -77c-100 0 -150 62 -150 166v253h-62zM415 700l-78 -140h-85l58 140h105z" />
    <glyph glyph-name="ucircumflex" unicode="&#xfb;" horiz-adv-x="590" 
d="M17 409v91h172v-319c0 -61 27 -100 90 -100c49 0 95 29 122 48v280h-72v91h182v-409h61v-91h-171v67h-2c-45 -46 -103 -77 -170 -77c-100 0 -150 62 -150 166v253h-62zM288 630l-55 -70h-66l86 132h69l87 -132h-66z" />
    <glyph glyph-name="udieresis" unicode="&#xfc;" horiz-adv-x="590" 
d="M17 409v91h172v-319c0 -61 27 -100 90 -100c49 0 95 29 122 48v280h-72v91h182v-409h61v-91h-171v67h-2c-45 -46 -103 -77 -170 -77c-100 0 -150 62 -150 166v253h-62zM156 682h79v-95h-79v95zM339 682h79v-95h-79v95z" />
    <glyph glyph-name="yacute" unicode="&#xfd;" horiz-adv-x="580" 
d="M349 409v91h212v-91h-39l-174 -430c-44 -106 -106 -189 -210 -189c-25 0 -58 3 -81 8l10 88c16 -3 35 -5 47 -5c60 0 99 50 119 107l-172 421h-44v91h230v-91h-64l120 -312h2l107 312h-63zM428 700l-78 -140h-85l58 140h105z" />
    <glyph glyph-name="thorn" unicode="&#xfe;" horiz-adv-x="560" 
d="M17 609v91h172v-250h2c33 35 90 60 146 60c140 0 184 -116 184 -260s-50 -260 -190 -260c-54 0 -107 22 -140 57h-2v-156h61v-91h-233v91h62v718h-62zM405 250c0 92 -24 169 -111 169c-49 0 -87 -23 -105 -37v-264c18 -14 56 -37 105 -37c87 0 111 76 111 169z" />
    <glyph glyph-name="ydieresis" unicode="&#xff;" horiz-adv-x="580" 
d="M349 409v91h212v-91h-39l-174 -430c-44 -106 -106 -189 -210 -189c-25 0 -58 3 -81 8l10 88c16 -3 35 -5 47 -5c60 0 99 50 119 107l-172 421h-44v91h230v-91h-64l120 -312h2l107 312h-63zM169 682h79v-95h-79v95zM352 682h79v-95h-79v95z" />
    <glyph glyph-name="breve" unicode="&#x2d8;" horiz-adv-x="408" 
d="M204 635c54 0 73 35 85 75h58c-11 -88 -60 -139 -143 -139s-131 51 -143 139h58c13 -40 32 -75 85 -75z" />
    <glyph glyph-name="cyrbreve" horiz-adv-x="408" 
d="M204 635c54 0 73 35 85 75h58c-11 -88 -60 -139 -143 -139s-131 51 -143 139h58c13 -40 32 -75 85 -75z" />
    <glyph glyph-name="caron" unicode="&#x2c7;" horiz-adv-x="420" 
d="M155 692l55 -69l55 69h66l-87 -132h-69l-86 132h66z" />
    <glyph glyph-name="commaaccent" unicode="&#xf6c3;" horiz-adv-x="230" 
d="M105 -255h-35l22 104h-43v111h110v-111z" />
    <glyph glyph-name="undercommaaccent" unicode="&#xf005;" horiz-adv-x="230" 
d="M105 -255h-35l22 104h-43v111h110v-111z" />
    <glyph glyph-name="dieresisacute" unicode="&#xf6d7;" horiz-adv-x="630" 
d="M394 730l-101 -170h-60l62 170h99zM69 700h97v-125h-97v125zM449 700h97v-125h-97v125z" />
    <glyph glyph-name="dieresisgrave" unicode="&#xf6d8;" horiz-adv-x="630" 
d="M333 560l-101 170h99l62 -170h-60zM449 700h97v-125h-97v125zM69 700h97v-125h-97v125z" />
    <glyph glyph-name="dotaccent" unicode="&#x2d9;" horiz-adv-x="250" 
d="M69 700h97v-125h-97v125z" />
    <glyph glyph-name="hungarumlaut" unicode="&#x2dd;" horiz-adv-x="460" 
d="M214 700l-91 -140h-60l58 140h93zM384 700l-91 -140h-60l58 140h93z" />
    <glyph glyph-name="dblgrave" unicode="&#xf6d6;" horiz-adv-x="460" 
d="M336 560l-91 140h93l58 -140h-60zM166 560l-91 140h93l58 -140h-60z" />
    <glyph glyph-name="cyrflex" horiz-adv-x="420" 
d="M210 630l-55 -70h-66l86 132h69l87 -132h-66z" />
    <glyph glyph-name="uni02C9" unicode="&#x2c9;" horiz-adv-x="440" 
d="M61 657h318v-78h-318v78z" />
    <glyph glyph-name="ogonek" unicode="&#x2db;" horiz-adv-x="314" 
d="M250 -145l5 -27c-23 -18 -61 -29 -93 -29c-53 0 -95 28 -95 75c0 46 33 91 85 126h55c-39 -31 -66 -72 -66 -106s21 -53 58 -53c23 0 38 8 51 14z" />
    <glyph glyph-name="ring" unicode="&#x2da;" horiz-adv-x="300" 
d="M57 650c0 51 42 93 93 93s93 -42 93 -93s-42 -93 -93 -93s-93 42 -93 93zM99 650c0 -29 22 -51 51 -51s51 22 51 51s-22 51 -51 51s-51 -22 -51 -51z" />
    <glyph glyph-name="Acute" horiz-adv-x="290" 
d="M220 870l-78 -140h-85l58 140h105z" />
    <glyph glyph-name="Breve" horiz-adv-x="408" 
d="M204 805c54 0 73 35 85 75h58c-11 -88 -60 -139 -143 -139s-131 51 -143 139h58c13 -40 32 -75 85 -75z" />
    <glyph glyph-name="cyrBreve" horiz-adv-x="408" 
d="M204 805c54 0 73 35 85 75h58c-11 -88 -60 -139 -143 -139s-131 51 -143 139h58c13 -40 32 -75 85 -75z" />
    <glyph glyph-name="Caron" horiz-adv-x="420" 
d="M155 862l55 -69l55 69h66l-87 -132h-69l-86 132h66z" />
    <glyph glyph-name="Cedilla" horiz-adv-x="294" 
d="M110 -76v76h60v-48c29 -2 71 -25 71 -76c0 -49 -43 -81 -106 -81c-24 0 -45 4 -71 12l6 42c16 -4 28 -7 47 -7c39 0 50 20 50 37c0 20 -16 41 -57 45z" />
    <glyph glyph-name="Circumflex" horiz-adv-x="420" 
d="M210 800l-55 -70h-66l86 132h69l87 -132h-66z" />
    <glyph glyph-name="commaaccent.cap" horiz-adv-x="230" 
d="M105 -255h-35l22 104h-43v111h110v-111z" />
    <glyph glyph-name="Dieresis" horiz-adv-x="480" 
d="M109 832h79v-95h-79v95zM292 832h79v-95h-79v95z" />
    <glyph glyph-name="DieresisAcute" unicode="&#xf6cc;" horiz-adv-x="630" 
d="M394 900l-101 -170h-60l62 170h99zM69 870h97v-125h-97v125zM449 870h97v-125h-97v125z" />
    <glyph glyph-name="DieresisGrave" unicode="&#xf6cd;" horiz-adv-x="630" 
d="M333 730l-101 170h99l62 -170h-60zM449 870h97v-125h-97v125zM69 870h97v-125h-97v125z" />
    <glyph glyph-name="Dotaccent" horiz-adv-x="250" 
d="M69 870h97v-125h-97v125z" />
    <glyph glyph-name="Hungarumlaut" unicode="&#xf6cf;" horiz-adv-x="460" 
d="M214 870l-91 -140h-60l58 140h93zM384 870l-91 -140h-60l58 140h93z" />
    <glyph glyph-name="Grave" horiz-adv-x="290" 
d="M146 730l-78 140h106l57 -140h-85z" />
    <glyph glyph-name="dblGrave" unicode="&#xf6d3;" horiz-adv-x="460" 
d="M336 730l-91 140h93l58 -140h-60zM166 730l-91 140h93l58 -140h-60z" />
    <glyph glyph-name="cyrFlex" horiz-adv-x="420" 
d="M210 800l-55 -70h-66l86 132h69l87 -132h-66z" />
    <glyph glyph-name="Macron" unicode="&#xf6d0;" horiz-adv-x="380" 
d="M61 827h258v-78h-258v78z" />
    <glyph glyph-name="Ogonek" horiz-adv-x="314" 
d="M250 -145l5 -27c-23 -18 -61 -29 -93 -29c-53 0 -95 28 -95 75c0 46 33 91 85 126h55c-39 -31 -66 -72 -66 -106s21 -53 58 -53c23 0 38 8 51 14z" />
    <glyph glyph-name="Ring" horiz-adv-x="300" 
d="M57 820c0 51 42 93 93 93s93 -42 93 -93s-42 -93 -93 -93s-93 42 -93 93zM99 820c0 -29 22 -51 51 -51s51 22 51 51s-22 51 -51 51s-51 -22 -51 -51z" />
    <glyph glyph-name="Tilde" horiz-adv-x="450" 
d="M170 775c-23 0 -37 -5 -76 -45l-35 40c37 68 73 87 108 87c49 0 98 -48 132 -48c18 0 37 6 65 43l28 -46c-18 -36 -46 -77 -93 -77c-38 0 -92 46 -129 46z" />
    <glyph glyph-name="Acutesmall" horiz-adv-x="290" 
d="M220 780l-78 -140h-85l58 140h105z" />
    <glyph glyph-name="Brevesmall" unicode="&#xf6f4;" horiz-adv-x="408" 
d="M204 715c54 0 73 35 85 75h58c-11 -88 -60 -139 -143 -139s-131 51 -143 139h58c13 -40 32 -75 85 -75z" />
    <glyph glyph-name="Caronsmall" unicode="&#xf6f5;" horiz-adv-x="420" 
d="M155 772l55 -69l55 69h66l-87 -132h-69l-86 132h66z" />
    <glyph glyph-name="Cedillasmall" horiz-adv-x="294" 
d="M110 -76v76h60v-48c29 -2 71 -25 71 -76c0 -49 -43 -81 -106 -81c-24 0 -45 4 -71 12l6 42c16 -4 28 -7 47 -7c39 0 50 20 50 37c0 20 -16 41 -57 45z" />
    <glyph glyph-name="Circumflexsmall" unicode="&#xf6f6;" horiz-adv-x="420" 
d="M210 710l-55 -70h-66l86 132h69l87 -132h-66z" />
    <glyph glyph-name="commaaccent.small" horiz-adv-x="230" 
d="M105 -255h-35l22 104h-43v111h110v-111z" />
    <glyph glyph-name="Dieresissmall" unicode="&#xf7a8;" horiz-adv-x="480" 
d="M109 742h79v-95h-79v95zM292 742h79v-95h-79v95z" />
    <glyph glyph-name="DieresisAcute.small" horiz-adv-x="630" 
d="M394 810l-101 -170h-60l62 170h99zM69 780h97v-125h-97v125zM449 780h97v-125h-97v125z" />
    <glyph glyph-name="DieresisGrave.small" horiz-adv-x="630" 
d="M333 640l-101 170h99l62 -170h-60zM449 780h97v-125h-97v125zM69 780h97v-125h-97v125z" />
    <glyph glyph-name="Dotaccentsmall" unicode="&#xf6f7;" horiz-adv-x="250" 
d="M69 780h97v-125h-97v125z" />
    <glyph glyph-name="Hungarumlautsmall" unicode="&#xf6f8;" horiz-adv-x="460" 
d="M214 780l-91 -140h-60l58 140h93zM384 780l-91 -140h-60l58 140h93z" />
    <glyph glyph-name="Gravesmall" unicode="&#xf760;" horiz-adv-x="290" 
d="M146 640l-78 140h106l57 -140h-85z" />
    <glyph glyph-name="dblGrave.small" horiz-adv-x="460" 
d="M336 640l-91 140h93l58 -140h-60zM166 640l-91 140h93l58 -140h-60z" />
    <glyph glyph-name="Macronsmall" unicode="&#xf7af;" horiz-adv-x="380" 
d="M61 737h258v-78h-258v78z" />
    <glyph glyph-name="Ogoneksmall" unicode="&#xf6fb;" horiz-adv-x="314" 
d="M250 -145l5 -27c-23 -18 -61 -29 -93 -29c-53 0 -95 28 -95 75c0 46 33 91 85 126h55c-39 -31 -66 -72 -66 -106s21 -53 58 -53c23 0 38 8 51 14z" />
    <glyph glyph-name="Ringsmall" unicode="&#xf6fc;" horiz-adv-x="300" 
d="M57 730c0 51 42 93 93 93s93 -42 93 -93s-42 -93 -93 -93s-93 42 -93 93zM99 730c0 -29 22 -51 51 -51s51 22 51 51s-22 51 -51 51s-51 -22 -51 -51z" />
    <glyph glyph-name="Tildesmall" unicode="&#xf6fe;" horiz-adv-x="450" 
d="M170 685c-23 0 -37 -5 -76 -45l-35 40c37 68 73 87 108 87c49 0 98 -48 132 -48c18 0 37 6 65 43l28 -46c-18 -36 -46 -77 -93 -77c-38 0 -92 46 -129 46z" />
    <glyph glyph-name="middot" horiz-adv-x="250" 
d="M69 372h97v-125h-97v125z" />
    <glyph glyph-name="Abreve" unicode="&#x102;" horiz-adv-x="700" 
d="M347 805c54 0 73 35 85 75h58c-11 -88 -60 -139 -143 -139s-131 51 -143 139h58c13 -40 32 -75 85 -75zM181 680h253l194 -589h54v-91h-251v91h70l-36 116h-231l-40 -116h68v-91h-245v91h63l171 498h-70v91zM354 576h-1l-95 -284h186z" />
    <glyph glyph-name="Amacron" unicode="&#x100;" horiz-adv-x="700" 
d="M217 827h258v-78h-258v78zM181 680h253l194 -589h54v-91h-251v91h70l-36 116h-231l-40 -116h68v-91h-245v91h63l171 498h-70v91zM354 576h-1l-95 -284h186z" />
    <glyph glyph-name="Aogonek" unicode="&#x104;" horiz-adv-x="700" 
d="M639 -145l4 -27c-23 -18 -60 -29 -92 -29c-54 0 -96 28 -96 75c0 46 33 91 86 126h-110v91h70l-36 116h-231l-40 -116h68v-91h-245v91h63l171 498h-70v91h253l194 -589h54v-91h-87c-39 -31 -65 -72 -65 -106s21 -53 58 -53c22 0 37 8 51 14zM354 576h-1l-95 -284h186z
" />
    <glyph glyph-name="AEacute" unicode="&#x1fc;" horiz-adv-x="916" 
d="M618 870l-78 -140h-85l58 140h105zM325 589h-71v91h623v-156h-91v65h-245v-192h286v-91h-286v-215h245v65h91v-156h-452v216h-172l-107 -216h-136v91h60zM423 575l-131 -268h133v268h-2z" />
    <glyph glyph-name="Cacute" unicode="&#x106;" horiz-adv-x="610" 
d="M470 870l-78 -140h-85l58 140h105zM484 176h91v-150c-89 -26 -161 -36 -240 -36c-236 0 -296 160 -296 355c0 191 60 345 296 345c79 0 151 -10 240 -36v-150h-91v79c-61 13 -99 16 -140 16c-142 0 -183 -114 -183 -254c0 -150 41 -264 183 -264c41 0 79 2 140 16v79z
" />
    <glyph glyph-name="Ccaron" unicode="&#x10c;" horiz-adv-x="610" 
d="M293 862l55 -69l55 69h66l-87 -132h-69l-86 132h66zM484 176h91v-150c-89 -26 -161 -36 -240 -36c-236 0 -296 160 -296 355c0 191 60 345 296 345c79 0 151 -10 240 -36v-150h-91v79c-61 13 -99 16 -140 16c-142 0 -183 -114 -183 -254c0 -150 41 -264 183 -264
c41 0 79 2 140 16v79z" />
    <glyph glyph-name="Ccircumflex" unicode="&#x108;" horiz-adv-x="610" 
d="M357 800l-55 -70h-66l86 132h69l87 -132h-66zM484 176h91v-150c-89 -26 -161 -36 -240 -36c-236 0 -296 160 -296 355c0 191 60 345 296 345c79 0 151 -10 240 -36v-150h-91v79c-61 13 -99 16 -140 16c-142 0 -183 -114 -183 -254c0 -150 41 -264 183 -264
c41 0 79 2 140 16v79z" />
    <glyph glyph-name="Cdotaccent" unicode="&#x10a;" horiz-adv-x="610" 
d="M298 870h97v-125h-97v125zM484 176h91v-150c-89 -26 -161 -36 -240 -36c-236 0 -296 160 -296 355c0 191 60 345 296 345c79 0 151 -10 240 -36v-150h-91v79c-61 13 -99 16 -140 16c-142 0 -183 -114 -183 -254c0 -150 41 -264 183 -264c41 0 79 2 140 16v79z" />
    <glyph glyph-name="Dcaron" unicode="&#x10e;" horiz-adv-x="660" 
d="M256 862l55 -69l55 69h66l-87 -132h-69l-86 132h66zM17 680h310c228 0 294 -144 294 -335c0 -193 -66 -345 -294 -345h-310v91h62v498h-62v91zM195 91h132c140 0 172 114 172 254s-32 244 -172 244h-132v-498z" />
    <glyph glyph-name="Dcroat" unicode="&#x110;" horiz-adv-x="660" 
d="M17 680h310c228 0 294 -144 294 -335c0 -193 -66 -345 -294 -345h-310v91h62v221h-62v66h62v211h-62v91zM195 91h132c140 0 172 114 172 254s-32 244 -172 244h-132v-211h104v-66h-104v-221z" />
    <glyph glyph-name="Ebreve" unicode="&#x114;" horiz-adv-x="570" 
d="M316 805c54 0 73 35 85 75h58c-11 -88 -60 -139 -143 -139s-131 51 -143 139h58c13 -40 32 -75 85 -75zM17 680h514v-156h-91v65h-245v-192h286v-91h-286v-215h245v65h91v-156h-514v91h62v498h-62v91z" />
    <glyph glyph-name="Ecaron" unicode="&#x11a;" horiz-adv-x="570" 
d="M247 862l55 -69l55 69h66l-87 -132h-69l-86 132h66zM17 680h514v-156h-91v65h-245v-192h286v-91h-286v-215h245v65h91v-156h-514v91h62v498h-62v91z" />
    <glyph glyph-name="Edotaccent" unicode="&#x116;" horiz-adv-x="570" 
d="M247 870h97v-125h-97v125zM17 680h514v-156h-91v65h-245v-192h286v-91h-286v-215h245v65h91v-156h-514v91h62v498h-62v91z" />
    <glyph glyph-name="Emacron" unicode="&#x112;" horiz-adv-x="570" 
d="M165 827h258v-78h-258v78zM17 680h514v-156h-91v65h-245v-192h286v-91h-286v-215h245v65h91v-156h-514v91h62v498h-62v91z" />
    <glyph glyph-name="Eogonek" unicode="&#x118;" horiz-adv-x="570" 
d="M17 680h514v-156h-91v65h-245v-192h286v-91h-286v-215h245v65h91v-156c-39 -31 -66 -72 -66 -106s22 -53 59 -53c22 0 37 8 51 14l4 -27c-23 -18 -60 -29 -92 -29c-54 0 -96 28 -96 75c0 46 33 91 86 126h-460v91h62v498h-62v91z" />
    <glyph glyph-name="Gbreve" unicode="&#x11e;" horiz-adv-x="620" 
d="M350 805c54 0 73 35 85 75h58c-11 -88 -60 -139 -143 -139s-131 51 -143 139h58c13 -40 32 -75 85 -75zM161 345c0 -146 49 -258 183 -258c43 0 81 10 115 26v141h-118v91h234v-305c-76 -29 -147 -50 -240 -50c-228 0 -296 162 -296 355c0 191 60 345 296 345
c79 0 151 -10 240 -36v-150h-91v79c-61 13 -99 16 -140 16c-142 0 -183 -114 -183 -254z" />
    <glyph glyph-name="Gcircumflex" unicode="&#x11c;" horiz-adv-x="620" 
d="M359 800l-55 -70h-66l86 132h69l87 -132h-66zM161 345c0 -146 49 -258 183 -258c43 0 81 10 115 26v141h-118v91h234v-305c-76 -29 -147 -50 -240 -50c-228 0 -296 162 -296 355c0 191 60 345 296 345c79 0 151 -10 240 -36v-150h-91v79c-61 13 -99 16 -140 16
c-142 0 -183 -114 -183 -254z" />
    <glyph glyph-name="Gcommaaccent" unicode="&#x122;" horiz-adv-x="620" 
d="M161 345c0 -146 49 -258 183 -258c43 0 81 10 115 26v141h-118v91h234v-305c-76 -29 -147 -50 -240 -50c-228 0 -296 162 -296 355c0 191 60 345 296 345c79 0 151 -10 240 -36v-150h-91v79c-61 13 -99 16 -140 16c-142 0 -183 -114 -183 -254zM341 -255h-35l22 104h-43
v111h110v-111z" />
    <glyph glyph-name="Gdotaccent" unicode="&#x120;" horiz-adv-x="620" 
d="M299 870h97v-125h-97v125zM161 345c0 -146 49 -258 183 -258c43 0 81 10 115 26v141h-118v91h234v-305c-76 -29 -147 -50 -240 -50c-228 0 -296 162 -296 355c0 191 60 345 296 345c79 0 151 -10 240 -36v-150h-91v79c-61 13 -99 16 -140 16c-142 0 -183 -114 -183 -254z
" />
    <glyph glyph-name="Hbar" unicode="&#x126;" horiz-adv-x="680" 
d="M424 91h61v215h-290v-215h61v-91h-239v91h62v395h-58v35h58v68h-62v91h239v-91h-61v-68h290v68h-61v91h238v-91h-61v-68h58v-35h-58v-395h61v-91h-238v91zM195 397h290v89h-290v-89z" />
    <glyph glyph-name="Hcircumflex" unicode="&#x124;" horiz-adv-x="680" 
d="M340 800l-55 -70h-66l86 132h69l87 -132h-66zM424 91h61v215h-290v-215h61v-91h-239v91h62v498h-62v91h239v-91h-61v-192h290v192h-61v91h238v-91h-61v-498h61v-91h-238v91z" />
    <glyph glyph-name="Ibreve" unicode="&#x12c;" horiz-adv-x="274" 
d="M136 805c54 0 73 35 85 75h58c-11 -88 -60 -139 -143 -139s-131 51 -143 139h58c13 -40 32 -75 85 -75zM17 91h62v498h-62v91h239v-91h-61v-498h61v-91h-239v91z" />
    <glyph glyph-name="Idotaccent" unicode="&#x130;" horiz-adv-x="274" 
d="M88 870h97v-125h-97v125zM17 91h62v498h-62v91h239v-91h-61v-498h61v-91h-239v91z" />
    <glyph glyph-name="Imacron" unicode="&#x12a;" horiz-adv-x="274" 
d="M8 827h258v-78h-258v78zM17 91h62v498h-62v91h239v-91h-61v-498h61v-91h-239v91z" />
    <glyph glyph-name="Iogonek" unicode="&#x12e;" horiz-adv-x="274" 
d="M215 -145l5 -27c-23 -18 -61 -29 -93 -29c-53 0 -95 28 -95 75c0 46 33 91 85 126h-100v91h62v498h-62v91h239v-91h-61v-498h61v-91h-84c-39 -31 -66 -72 -66 -106s21 -53 58 -53c23 0 38 8 51 14z" />
    <glyph glyph-name="Itilde" unicode="&#x128;" horiz-adv-x="274" 
d="M81 775c-23 0 -37 -5 -76 -45l-35 40c37 68 73 87 108 87c49 0 98 -48 132 -48c18 0 37 6 65 43l28 -46c-18 -36 -46 -77 -93 -77c-38 0 -92 46 -129 46zM17 91h62v498h-62v91h239v-91h-61v-498h61v-91h-239v91z" />
    <glyph glyph-name="IJ" unicode="&#x132;" horiz-adv-x="630" 
d="M17 91h62v498h-62v91h239v-91h-61v-498h61v-91h-239v91zM374 680h238v-91h-61v-413c0 -136 -65 -186 -170 -186c-38 0 -72 3 -99 8l10 91c22 -3 38 -5 58 -5c52 0 85 23 85 92v413h-61v91z" />
    <glyph glyph-name="Jcircumflex" unicode="&#x134;" horiz-adv-x="364" 
d="M227 800l-55 -70h-66l86 132h69l87 -132h-66zM107 680h239v-91h-61v-413c0 -136 -65 -186 -170 -186c-38 0 -72 3 -99 8l10 91c21 -3 38 -5 58 -5c52 0 85 23 85 92v413h-62v91z" />
    <glyph glyph-name="Kcommaaccent" unicode="&#x136;" horiz-adv-x="680" 
d="M328 -248h-35l22 104h-43v111h110v-111zM17 680h239v-91h-61v-262l251 262h-60v91h266v-91h-67l-193 -196l210 -302h60v-91h-272v91h64l-150 221l-109 -109v-112h61v-91h-239v91h62v498h-62v91z" />
    <glyph glyph-name="Lacute" unicode="&#x139;" horiz-adv-x="550" 
d="M263 870l-78 -140h-85l58 140h105zM434 156h91v-156h-508v91h62v498h-62v91h239v-91h-61v-498h239v65z" />
    <glyph glyph-name="Lcaron" unicode="&#x13d;" horiz-adv-x="550" 
d="M370 465h-35l22 104h-43v111h110v-111zM434 156h91v-156h-508v91h62v498h-62v91h239v-91h-61v-498h239v65z" />
    <glyph glyph-name="Lcommaaccent" unicode="&#x13b;" horiz-adv-x="550" 
d="M291 -250h-35l22 104h-43v111h110v-111zM434 156h91v-156h-508v91h62v498h-62v91h239v-91h-61v-498h239v65z" />
    <glyph glyph-name="Ldot" unicode="&#x13f;" horiz-adv-x="550" 
d="M299 427h97v-125h-97v125zM434 156h91v-156h-508v91h62v498h-62v91h239v-91h-61v-498h239v65z" />
    <glyph glyph-name="Lslash" unicode="&#x141;" horiz-adv-x="550" 
d="M17 333l62 17v239h-62v91h239v-91h-61v-205l61 18v-54l-61 -18v-239h239v65h91v-156h-508v91h62v206l-62 -18v54z" />
    <glyph glyph-name="Nacute" unicode="&#x143;" horiz-adv-x="690" 
d="M472 870l-78 -140h-85l58 140h105zM440 680h232v-91h-61v-589h-119l-304 469h-2v-378h64v-91h-233v91h62v498h-62v91h175l310 -485h2v394h-64v91z" />
    <glyph glyph-name="Ncaron" unicode="&#x147;" horiz-adv-x="690" 
d="M294 862l55 -69l55 69h66l-87 -132h-69l-86 132h66zM440 680h232v-91h-61v-589h-119l-304 469h-2v-378h64v-91h-233v91h62v498h-62v91h175l310 -485h2v394h-64v91z" />
    <glyph glyph-name="Ncommaaccent" unicode="&#x145;" horiz-adv-x="690" 
d="M351 -255h-35l22 104h-43v111h110v-111zM440 680h232v-91h-61v-589h-119l-304 469h-2v-378h64v-91h-233v91h62v498h-62v91h175l310 -485h2v394h-64v91z" />
    <glyph glyph-name="Obreve" unicode="&#x14e;" horiz-adv-x="670" 
d="M335 805c54 0 73 35 85 75h58c-11 -88 -60 -139 -143 -139s-131 51 -143 139h58c13 -40 32 -75 85 -75zM335 599c-148 0 -174 -114 -174 -254s26 -264 174 -264s174 124 174 264s-26 254 -174 254zM335 -10c-236 0 -296 162 -296 355c0 191 60 345 296 345
s296 -154 296 -345c0 -193 -60 -355 -296 -355z" />
    <glyph glyph-name="Ohungarumlaut" unicode="&#x150;" horiz-adv-x="670" 
d="M365 870l-91 -140h-60l58 140h93zM535 870l-91 -140h-60l58 140h93zM335 599c-148 0 -174 -114 -174 -254s26 -264 174 -264s174 124 174 264s-26 254 -174 254zM335 -10c-236 0 -296 162 -296 355c0 191 60 345 296 345s296 -154 296 -345c0 -193 -60 -355 -296 -355z
" />
    <glyph glyph-name="Omacron" unicode="&#x14c;" horiz-adv-x="670" 
d="M208 827h258v-78h-258v78zM335 599c-148 0 -174 -114 -174 -254s26 -264 174 -264s174 124 174 264s-26 254 -174 254zM335 -10c-236 0 -296 162 -296 355c0 191 60 345 296 345s296 -154 296 -345c0 -193 -60 -355 -296 -355z" />
    <glyph glyph-name="Oslashacute" unicode="&#x1fe;" horiz-adv-x="670" 
d="M457 870l-78 -140h-85l58 140h105zM335 -10c-92 0 -156 25 -201 67l-72 -90l-35 27l76 95c-49 65 -64 156 -64 256c0 191 60 345 296 345c88 0 151 -23 196 -61l76 97l35 -28l-79 -99c51 -63 68 -153 68 -254c0 -193 -60 -355 -296 -355zM335 87c148 0 174 118 174 258
c0 57 -5 112 -26 153l-279 -353c26 -36 67 -58 131 -58zM335 592c-148 0 -174 -107 -174 -247c0 -56 4 -110 23 -153l279 351c-26 31 -67 49 -128 49z" />
    <glyph glyph-name="Racute" unicode="&#x154;" horiz-adv-x="650" 
d="M425 870l-78 -140h-85l58 140h105zM17 680h347c138 0 217 -81 217 -207c0 -94 -50 -168 -137 -188l141 -194h47v-91h-248v91h54l-121 175h-122v-175h61v-91h-239v91h62v498h-62v91zM195 589v-232h152c67 0 115 39 115 116c0 73 -45 116 -111 116h-156z" />
    <glyph glyph-name="Rcaron" unicode="&#x158;" horiz-adv-x="650" 
d="M258 862l55 -69l55 69h66l-87 -132h-69l-86 132h66zM17 680h347c138 0 217 -81 217 -207c0 -94 -50 -168 -137 -188l141 -194h47v-91h-248v91h54l-121 175h-122v-175h61v-91h-239v91h62v498h-62v91zM195 589v-232h152c67 0 115 39 115 116c0 73 -45 116 -111 116h-156z
" />
    <glyph glyph-name="Rcommaaccent" unicode="&#x156;" horiz-adv-x="650" 
d="M324 -249h-35l22 104h-43v111h110v-111zM17 680h347c138 0 217 -81 217 -207c0 -94 -50 -168 -137 -188l141 -194h47v-91h-248v91h54l-121 175h-122v-175h61v-91h-239v91h62v498h-62v91zM195 589v-232h152c67 0 115 39 115 116c0 73 -45 116 -111 116h-156z" />
    <glyph glyph-name="Sacute" unicode="&#x15a;" horiz-adv-x="580" 
d="M421 870l-78 -140h-85l58 140h105zM39 182h91v-74c69 -15 118 -21 160 -21c91 0 129 45 129 95c0 74 -88 93 -164 114c-114 31 -213 94 -213 209c0 133 109 185 242 185c76 0 146 -10 235 -36v-157h-92v79c-64 13 -102 16 -143 16c-85 0 -119 -37 -119 -84
c0 -67 86 -96 165 -114c114 -26 211 -81 211 -199c0 -140 -109 -205 -251 -205c-76 0 -163 10 -251 36v156z" />
    <glyph glyph-name="Scedilla" unicode="&#x15e;" horiz-adv-x="580" 
d="M254 -76v67c-68 3 -141 13 -215 35v156h91v-74c69 -15 118 -21 160 -21c91 0 129 45 129 95c0 74 -88 93 -164 114c-114 31 -213 94 -213 209c0 133 109 185 242 185c76 0 146 -10 235 -36v-157h-92v79c-64 13 -102 16 -143 16c-85 0 -119 -37 -119 -84
c0 -67 86 -96 165 -114c114 -26 211 -81 211 -199c0 -132 -97 -198 -227 -204v-39c29 -2 70 -25 70 -76c0 -49 -43 -81 -106 -81c-24 0 -45 4 -71 12l7 42c16 -4 27 -7 47 -7c38 0 49 20 49 37c0 20 -16 41 -56 45z" />
    <glyph glyph-name="Scircumflex" unicode="&#x15c;" horiz-adv-x="580" 
d="M299 800l-55 -70h-66l86 132h69l87 -132h-66zM39 182h91v-74c69 -15 118 -21 160 -21c91 0 129 45 129 95c0 74 -88 93 -164 114c-114 31 -213 94 -213 209c0 133 109 185 242 185c76 0 146 -10 235 -36v-157h-92v79c-64 13 -102 16 -143 16c-85 0 -119 -37 -119 -84
c0 -67 86 -96 165 -114c114 -26 211 -81 211 -199c0 -140 -109 -205 -251 -205c-76 0 -163 10 -251 36v156z" />
    <glyph glyph-name="Scommaaccent" unicode="&#x218;" horiz-adv-x="580" 
d="M294 -255h-35l22 104h-43v111h110v-111zM39 182h91v-74c69 -15 118 -21 160 -21c91 0 129 45 129 95c0 74 -88 93 -164 114c-114 31 -213 94 -213 209c0 133 109 185 242 185c76 0 146 -10 235 -36v-157h-92v79c-64 13 -102 16 -143 16c-85 0 -119 -37 -119 -84
c0 -67 86 -96 165 -114c114 -26 211 -81 211 -199c0 -140 -109 -205 -251 -205c-76 0 -163 10 -251 36v156z" />
    <glyph glyph-name="Tbar" unicode="&#x166;" horiz-adv-x="580" 
d="M32 680h515v-156h-91v65h-108v-246h81v-66h-81v-186h61v-91h-238v91h61v186h-81v66h81v246h-108v-65h-92v156z" />
    <glyph glyph-name="Tcaron" unicode="&#x164;" horiz-adv-x="580" 
d="M236 862l55 -69l55 69h66l-87 -132h-69l-86 132h66zM32 680h515v-156h-91v65h-108v-498h61v-91h-238v91h61v498h-108v-65h-92v156z" />
    <glyph glyph-name="Tcommaaccent" unicode="&#x162;" horiz-adv-x="580" 
d="M291 -255h-35l22 104h-43v111h110v-111zM32 680h515v-156h-91v65h-108v-498h61v-91h-238v91h61v498h-108v-65h-92v156z" />
    <glyph glyph-name="uni021A" unicode="&#x21a;" horiz-adv-x="580" 
d="M291 -252h-35l22 104h-43v111h110v-111zM32 680h515v-156h-91v65h-108v-498h61v-91h-238v91h61v498h-108v-65h-92v156z" />
    <glyph glyph-name="T_h" horiz-adv-x="1060" 
d="M32 680h627v-248h2c45 47 103 78 170 78c100 0 150 -63 150 -166v-253h61v-91h-226v91h55v228c0 61 -24 100 -90 100c-49 0 -95 -29 -122 -48v-280h55v-91h-227v91h62v498h-201v-498h61v-91h-238v91h61v498h-108v-65h-92v156z" />
    <glyph glyph-name="T_h.caron" horiz-adv-x="1060" 
d="M32 680h627v-248h2c45 47 103 78 170 78c100 0 150 -63 150 -166v-253h61v-91h-226v91h55v228c0 61 -24 100 -90 100c-49 0 -95 -29 -122 -48v-280h55v-91h-227v91h62v498h-201v-498h61v-91h-238v91h61v498h-108v-65h-92v156zM235 862l55 -69l55 69h66l-87 -132h-69
l-86 132h66z" />
    <glyph glyph-name="T_h.commaaccent" horiz-adv-x="1060" 
d="M32 680h627v-248h2c45 47 103 78 170 78c100 0 150 -63 150 -166v-253h61v-91h-226v91h55v228c0 61 -24 100 -90 100c-49 0 -95 -29 -122 -48v-280h55v-91h-227v91h62v498h-201v-498h61v-91h-238v91h61v498h-108v-65h-92v156zM292 -255h-35l22 104h-43v111h110v-111z" />
    <glyph glyph-name="Ubreve" unicode="&#x16c;" horiz-adv-x="680" 
d="M340 805c54 0 73 35 85 75h58c-11 -88 -60 -139 -143 -139s-131 51 -143 139h58c13 -40 32 -75 85 -75zM424 680h238v-91h-61v-349c0 -176 -99 -250 -261 -250s-261 74 -261 250v349h-62v91h239v-91h-61v-349c0 -74 19 -159 147 -159c122 0 143 85 143 159v349h-61v91z
" />
    <glyph glyph-name="Uhungarumlaut" unicode="&#x170;" horiz-adv-x="680" 
d="M370 870l-91 -140h-60l58 140h93zM540 870l-91 -140h-60l58 140h93zM424 680h238v-91h-61v-349c0 -176 -99 -250 -261 -250s-261 74 -261 250v349h-62v91h239v-91h-61v-349c0 -74 19 -159 147 -159c122 0 143 85 143 159v349h-61v91z" />
    <glyph glyph-name="Umacron" unicode="&#x16a;" horiz-adv-x="680" 
d="M211 827h258v-78h-258v78zM424 680h238v-91h-61v-349c0 -176 -99 -250 -261 -250s-261 74 -261 250v349h-62v91h239v-91h-61v-349c0 -74 19 -159 147 -159c122 0 143 85 143 159v349h-61v91z" />
    <glyph glyph-name="Uogonek" unicode="&#x172;" horiz-adv-x="680" 
d="M424 680h238v-91h-61v-349c0 -168 -89 -243 -239 -249c-32 -29 -54 -66 -54 -97c0 -34 21 -53 58 -53c23 0 38 8 51 14l5 -27c-23 -18 -60 -29 -92 -29c-54 0 -96 28 -96 75c0 43 27 84 74 118c-146 8 -229 84 -229 248v349h-62v91h239v-91h-61v-349
c0 -74 19 -159 147 -159c122 0 143 85 143 159v349h-61v91z" />
    <glyph glyph-name="Uring" unicode="&#x16e;" horiz-adv-x="680" 
d="M249 820c0 51 42 93 93 93s93 -42 93 -93s-42 -93 -93 -93s-93 42 -93 93zM291 820c0 -29 22 -51 51 -51s51 22 51 51s-22 51 -51 51s-51 -22 -51 -51zM424 680h238v-91h-61v-349c0 -176 -99 -250 -261 -250s-261 74 -261 250v349h-62v91h239v-91h-61v-349
c0 -74 19 -159 147 -159c122 0 143 85 143 159v349h-61v91z" />
    <glyph glyph-name="Utilde" unicode="&#x168;" horiz-adv-x="680" 
d="M284 775c-23 0 -37 -5 -76 -45l-35 40c37 68 73 87 108 87c49 0 98 -48 132 -48c18 0 37 6 65 43l28 -46c-18 -36 -46 -77 -93 -77c-38 0 -92 46 -129 46zM424 680h238v-91h-61v-349c0 -176 -99 -250 -261 -250s-261 74 -261 250v349h-62v91h239v-91h-61v-349
c0 -74 19 -159 147 -159c122 0 143 85 143 159v349h-61v91z" />
    <glyph glyph-name="Wacute" unicode="&#x1e82;" horiz-adv-x="980" 
d="M622 870l-78 -140h-85l58 140h105zM17 680h259v-91h-79l110 -452h1l129 543h124l135 -543h1l105 452h-80v91h240v-91h-46l-150 -594h-156l-119 473h-2l-113 -473h-155l-156 594h-48v91z" />
    <glyph glyph-name="Wcircumflex" unicode="&#x174;" horiz-adv-x="980" 
d="M489 800l-55 -70h-66l86 132h69l87 -132h-66zM17 680h259v-91h-79l110 -452h1l129 543h124l135 -543h1l105 452h-80v91h240v-91h-46l-150 -594h-156l-119 473h-2l-113 -473h-155l-156 594h-48v91z" />
    <glyph glyph-name="Wdieresis" unicode="&#x1e84;" horiz-adv-x="980" 
d="M368 832h79v-95h-79v95zM551 832h79v-95h-79v95zM17 680h259v-91h-79l110 -452h1l129 543h124l135 -543h1l105 452h-80v91h240v-91h-46l-150 -594h-156l-119 473h-2l-113 -473h-155l-156 594h-48v91z" />
    <glyph glyph-name="Wgrave" unicode="&#x1e80;" horiz-adv-x="980" 
d="M450 730l-78 140h106l57 -140h-85zM17 680h259v-91h-79l110 -452h1l129 543h124l135 -543h1l105 452h-80v91h240v-91h-46l-150 -594h-156l-119 473h-2l-113 -473h-155l-156 594h-48v91z" />
    <glyph glyph-name="Ycircumflex" unicode="&#x176;" horiz-adv-x="660" 
d="M341 800l-55 -70h-66l86 132h69l87 -132h-66zM388 91h61v-91h-238v91h61v124l-196 374h-59v91h266v-91h-83l138 -265h2l138 265h-82v91h246v-91h-53l-201 -374v-124z" />
    <glyph glyph-name="Ygrave" unicode="&#x1ef2;" horiz-adv-x="660" 
d="M295 730l-78 140h106l57 -140h-85zM388 91h61v-91h-238v91h61v124l-196 374h-59v91h266v-91h-83l138 -265h2l138 265h-82v91h246v-91h-53l-201 -374v-124z" />
    <glyph glyph-name="Zacute" unicode="&#x179;" horiz-adv-x="560" 
d="M404 870l-78 -140h-85l58 140h105zM51 680h464v-85l-337 -502v-2h259v65h92v-156h-494v85l341 502v2h-234v-65h-91v156z" />
    <glyph glyph-name="Zdotaccent" unicode="&#x17b;" horiz-adv-x="560" 
d="M228 870h97v-125h-97v125zM51 680h464v-85l-337 -502v-2h259v65h92v-156h-494v85l341 502v2h-234v-65h-91v156z" />
    <glyph glyph-name="Asmall" unicode="&#xf761;" horiz-adv-x="636" 
d="M158 585h241l170 -497h50v-88h-234v88h62l-31 90h-198l-33 -90h60v-88h-227v88h56l146 409h-62v88zM322 479h-2l-79 -219h155z" />
    <glyph glyph-name="Aacutesmall" unicode="&#xf7e1;" horiz-adv-x="636" 
d="M434 780l-78 -140h-85l58 140h105zM158 585h241l170 -497h50v-88h-234v88h62l-31 90h-198l-33 -90h60v-88h-227v88h56l146 409h-62v88zM322 479h-2l-79 -219h155z" />
    <glyph glyph-name="Abreve.small" unicode="&#xf66d;" horiz-adv-x="636" 
d="M321 715c54 0 73 35 85 75h58c-11 -88 -60 -139 -143 -139s-131 51 -143 139h58c13 -40 32 -75 85 -75zM158 585h241l170 -497h50v-88h-234v88h62l-31 90h-198l-33 -90h60v-88h-227v88h56l146 409h-62v88zM322 479h-2l-79 -219h155z" />
    <glyph glyph-name="Acircumflexsmall" unicode="&#xf7e2;" horiz-adv-x="636" 
d="M315 710l-55 -70h-66l86 132h69l87 -132h-66zM158 585h241l170 -497h50v-88h-234v88h62l-31 90h-198l-33 -90h60v-88h-227v88h56l146 409h-62v88zM322 479h-2l-79 -219h155z" />
    <glyph glyph-name="Adieresissmall" unicode="&#xf7e4;" horiz-adv-x="636" 
d="M191 742h79v-95h-79v95zM374 742h79v-95h-79v95zM158 585h241l170 -497h50v-88h-234v88h62l-31 90h-198l-33 -90h60v-88h-227v88h56l146 409h-62v88zM322 479h-2l-79 -219h155z" />
    <glyph glyph-name="Agravesmall" unicode="&#xf7e0;" horiz-adv-x="636" 
d="M253 640l-78 140h106l57 -140h-85zM158 585h241l170 -497h50v-88h-234v88h62l-31 90h-198l-33 -90h60v-88h-227v88h56l146 409h-62v88zM322 479h-2l-79 -219h155z" />
    <glyph glyph-name="Amacron.small" unicode="&#xf66e;" horiz-adv-x="636" 
d="M193 737h258v-78h-258v78zM158 585h241l170 -497h50v-88h-234v88h62l-31 90h-198l-33 -90h60v-88h-227v88h56l146 409h-62v88zM322 479h-2l-79 -219h155z" />
    <glyph glyph-name="Aogonek.small" horiz-adv-x="636" 
d="M576 -123l4 -26c-21 -15 -55 -25 -84 -25c-51 0 -89 26 -89 67c0 38 28 77 75 107h-97v88h62l-31 90h-198l-33 -90h60v-88h-227v88h56l146 409h-62v88h241l170 -497h50v-88h-82c-35 -26 -57 -59 -57 -88s19 -46 52 -46c19 0 32 6 44 11zM322 479h-2l-79 -219h155z" />
    <glyph glyph-name="Aringsmall" unicode="&#xf7e5;" horiz-adv-x="636" 
d="M229 730c0 51 42 93 93 93s93 -42 93 -93s-42 -93 -93 -93s-93 42 -93 93zM271 730c0 -29 22 -51 51 -51s51 22 51 51s-22 51 -51 51s-51 -22 -51 -51zM158 585h241l170 -497h50v-88h-234v88h62l-31 90h-198l-33 -90h60v-88h-227v88h56l146 409h-62v88zM322 479h-2
l-79 -219h155z" />
    <glyph glyph-name="Atildesmall" unicode="&#xf7e3;" horiz-adv-x="636" 
d="M265 685c-23 0 -37 -5 -76 -45l-35 40c37 68 73 87 108 87c49 0 98 -48 132 -48c18 0 37 6 65 43l28 -46c-18 -36 -46 -77 -93 -77c-38 0 -92 46 -129 46zM158 585h241l170 -497h50v-88h-234v88h62l-31 90h-198l-33 -90h60v-88h-227v88h56l146 409h-62v88zM322 479h-2
l-79 -219h155z" />
    <glyph glyph-name="AEsmall" unicode="&#xf7e6;" horiz-adv-x="831" 
d="M285 497h-63v88h573v-143h-89v55h-209v-151h253v-88h-253v-170h209v54h89v-142h-413v170h-157l-90 -170h-123v88h54zM381 484l-114 -226h115v226h-1z" />
    <glyph glyph-name="AEacute.small" unicode="&#xf670;" horiz-adv-x="831" 
d="M285 497h-63v88h573v-143h-89v55h-209v-151h253v-88h-253v-170h209v54h89v-142h-413v170h-157l-90 -170h-123v88h54zM381 484l-114 -226h115v226h-1zM577 780l-78 -140h-85l58 140h105z" />
    <glyph glyph-name="Bsmall" unicode="&#xf762;" horiz-adv-x="573" 
d="M425 303v-1c69 -19 113 -67 113 -142c0 -100 -67 -160 -193 -160h-327v88h53v409h-53v88h309c126 0 193 -55 193 -149c0 -64 -36 -113 -95 -133zM321 256h-136v-168h142c55 0 91 27 91 84c0 54 -36 84 -97 84zM400 420c0 45 -29 77 -85 77h-130v-153h130
c56 0 85 29 85 76z" />
    <glyph glyph-name="Csmall" unicode="&#xf763;" horiz-adv-x="555" 
d="M434 158h88v-136c-81 -23 -145 -32 -217 -32c-214 0 -270 139 -270 307c0 165 56 298 270 298c72 0 136 -8 217 -32v-136h-88v68c-53 10 -84 12 -120 12c-121 0 -159 -93 -159 -210c0 -126 38 -219 159 -219c36 0 67 2 120 14v66z" />
    <glyph glyph-name="Cacute.small" unicode="&#xf671;" horiz-adv-x="555" 
d="M434 158h88v-136c-81 -23 -145 -32 -217 -32c-214 0 -270 139 -270 307c0 165 56 298 270 298c72 0 136 -8 217 -32v-136h-88v68c-53 10 -84 12 -120 12c-121 0 -159 -93 -159 -210c0 -126 38 -219 159 -219c36 0 67 2 120 14v66zM446 780l-78 -140h-85l58 140h105z" />
    <glyph glyph-name="Ccaron.small" unicode="&#xf672;" horiz-adv-x="555" 
d="M434 158h88v-136c-81 -23 -145 -32 -217 -32c-214 0 -270 139 -270 307c0 165 56 298 270 298c72 0 136 -8 217 -32v-136h-88v68c-53 10 -84 12 -120 12c-121 0 -159 -93 -159 -210c0 -126 38 -219 159 -219c36 0 67 2 120 14v66zM272 772l55 -69l55 69h66l-87 -132h-69
l-86 132h66z" />
    <glyph glyph-name="Ccedillasmall" unicode="&#xf7e7;" horiz-adv-x="555" 
d="M434 158h88v-136c-70 -20 -129 -29 -190 -31v-39c29 -2 71 -25 71 -76c0 -49 -44 -81 -106 -81c-24 0 -46 4 -72 12l7 42c16 -4 28 -7 47 -7c39 0 49 20 49 37c0 20 -16 41 -56 45v68c-188 13 -237 146 -237 305c0 165 56 298 270 298c72 0 136 -8 217 -32v-136h-88v68
c-53 10 -84 12 -120 12c-121 0 -159 -93 -159 -210c0 -126 38 -219 159 -219c36 0 67 2 120 14v66z" />
    <glyph glyph-name="Ccircumflex.small" unicode="&#xf673;" horiz-adv-x="555" 
d="M434 158h88v-136c-81 -23 -145 -32 -217 -32c-214 0 -270 139 -270 307c0 165 56 298 270 298c72 0 136 -8 217 -32v-136h-88v68c-53 10 -84 12 -120 12c-121 0 -159 -93 -159 -210c0 -126 38 -219 159 -219c36 0 67 2 120 14v66zM318 710l-55 -70h-66l86 132h69l87 -132
h-66z" />
    <glyph glyph-name="Cdotaccent.small" unicode="&#xf674;" horiz-adv-x="555" 
d="M434 158h88v-136c-81 -23 -145 -32 -217 -32c-214 0 -270 139 -270 307c0 165 56 298 270 298c72 0 136 -8 217 -32v-136h-88v68c-53 10 -84 12 -120 12c-121 0 -159 -93 -159 -210c0 -126 38 -219 159 -219c36 0 67 2 120 14v66zM264 780h97v-125h-97v125z" />
    <glyph glyph-name="Dsmall" unicode="&#xf764;" horiz-adv-x="600" 
d="M18 585h279c207 0 268 -123 268 -288c0 -167 -61 -297 -268 -297h-279v88h53v409h-53v88zM185 88h112c121 0 148 91 148 209c0 117 -27 200 -148 200h-112v-409z" />
    <glyph glyph-name="Dcaron.small" unicode="&#xf675;" horiz-adv-x="600" 
d="M18 585h279c207 0 268 -123 268 -288c0 -167 -61 -297 -268 -297h-279v88h53v409h-53v88zM185 88h112c121 0 148 91 148 209c0 117 -27 200 -148 200h-112v-409zM236 772l55 -69l55 69h66l-87 -132h-69l-86 132h66z" />
    <glyph glyph-name="Dcroat.small" horiz-adv-x="600" 
d="M18 585h279c207 0 268 -123 268 -288c0 -167 -61 -297 -268 -297h-279v88h53v177h-53v64h53v168h-53v88zM185 88h112c121 0 148 91 148 209c0 117 -27 200 -148 200h-112v-168h93v-64h-93v-177z" />
    <glyph glyph-name="Esmall" unicode="&#xf765;" horiz-adv-x="519" 
d="M18 585h466v-143h-89v55h-210v-151h254v-88h-254v-170h210v55h89v-143h-466v88h53v409h-53v88z" />
    <glyph glyph-name="Eacutesmall" unicode="&#xf7e9;" horiz-adv-x="519" 
d="M18 585h466v-143h-89v55h-210v-151h254v-88h-254v-170h210v55h89v-143h-466v88h53v409h-53v88zM377 780l-78 -140h-85l58 140h105z" />
    <glyph glyph-name="Ebreve.small" unicode="&#xf677;" horiz-adv-x="519" 
d="M18 585h466v-143h-89v55h-210v-151h254v-88h-254v-170h210v55h89v-143h-466v88h53v409h-53v88zM273 715c54 0 73 35 85 75h58c-11 -88 -60 -139 -143 -139s-131 51 -143 139h58c13 -40 32 -75 85 -75z" />
    <glyph glyph-name="Ecaron.small" unicode="&#xf678;" horiz-adv-x="519" 
d="M18 585h466v-143h-89v55h-210v-151h254v-88h-254v-170h210v55h89v-143h-466v88h53v409h-53v88zM215 772l55 -69l55 69h66l-87 -132h-69l-86 132h66z" />
    <glyph glyph-name="Ecircumflexsmall" unicode="&#xf7ea;" horiz-adv-x="519" 
d="M18 585h466v-143h-89v55h-210v-151h254v-88h-254v-170h210v55h89v-143h-466v88h53v409h-53v88zM267 710l-55 -70h-66l86 132h69l87 -132h-66z" />
    <glyph glyph-name="Edieresissmall" unicode="&#xf7eb;" horiz-adv-x="519" 
d="M18 585h466v-143h-89v55h-210v-151h254v-88h-254v-170h210v55h89v-143h-466v88h53v409h-53v88zM137 742h79v-95h-79v95zM320 742h79v-95h-79v95z" />
    <glyph glyph-name="Edotaccent.small" unicode="&#xf679;" horiz-adv-x="519" 
d="M18 585h466v-143h-89v55h-210v-151h254v-88h-254v-170h210v55h89v-143h-466v88h53v409h-53v88zM209 780h97v-125h-97v125z" />
    <glyph glyph-name="Egravesmall" unicode="&#xf7e8;" horiz-adv-x="519" 
d="M18 585h466v-143h-89v55h-210v-151h254v-88h-254v-170h210v55h89v-143h-466v88h53v409h-53v88zM212 640l-78 140h106l57 -140h-85z" />
    <glyph glyph-name="Emacron.small" unicode="&#xf67a;" horiz-adv-x="519" 
d="M18 585h466v-143h-89v55h-210v-151h254v-88h-254v-170h210v55h89v-143h-466v88h53v409h-53v88zM143 737h258v-78h-258v78z" />
    <glyph glyph-name="Eogonek.small" horiz-adv-x="519" 
d="M18 585h466v-143h-89v55h-210v-151h254v-88h-254v-170h210v54h89v-142c-35 -26 -57 -59 -57 -88s19 -46 52 -46c19 0 32 6 44 11l4 -26c-20 -15 -56 -25 -84 -25c-51 0 -89 26 -89 67c0 38 29 77 77 107h-413v88h53v409h-53v88z" />
    <glyph glyph-name="Fsmall" unicode="&#xf766;" horiz-adv-x="505" 
d="M18 585h457v-143h-89v55h-201v-168h245v-88h-245v-153h53v-88h-220v88h53v409h-53v88z" />
    <glyph glyph-name="Gsmall" unicode="&#xf767;" horiz-adv-x="564" 
d="M155 297c0 -124 44 -212 159 -212c34 0 66 8 95 22v103h-100v89h213v-267c-72 -26 -135 -42 -217 -42c-208 0 -270 140 -270 307c0 165 56 298 270 298c72 0 136 -8 217 -32v-136h-88v68c-53 10 -84 12 -120 12c-121 0 -159 -93 -159 -210z" />
    <glyph glyph-name="Gbreve.small" unicode="&#xf67d;" horiz-adv-x="564" 
d="M155 297c0 -124 44 -212 159 -212c34 0 66 8 95 22v103h-100v89h213v-267c-72 -26 -135 -42 -217 -42c-208 0 -270 140 -270 307c0 165 56 298 270 298c72 0 136 -8 217 -32v-136h-88v68c-53 10 -84 12 -120 12c-121 0 -159 -93 -159 -210zM319 715c54 0 73 35 85 75h58
c-11 -88 -60 -139 -143 -139s-131 51 -143 139h58c13 -40 32 -75 85 -75z" />
    <glyph glyph-name="Gcircumflex.small" unicode="&#xf67e;" horiz-adv-x="564" 
d="M155 297c0 -124 44 -212 159 -212c34 0 66 8 95 22v103h-100v89h213v-267c-72 -26 -135 -42 -217 -42c-208 0 -270 140 -270 307c0 165 56 298 270 298c72 0 136 -8 217 -32v-136h-88v68c-53 10 -84 12 -120 12c-121 0 -159 -93 -159 -210zM319 710l-55 -70h-66l86 132
h69l87 -132h-66z" />
    <glyph glyph-name="Gcommaaccent.small" unicode="&#xf67f;" horiz-adv-x="564" 
d="M155 297c0 -124 44 -212 159 -212c34 0 66 8 95 22v103h-100v89h213v-267c-72 -26 -135 -42 -217 -42c-208 0 -270 140 -270 307c0 165 56 298 270 298c72 0 136 -8 217 -32v-136h-88v68c-53 10 -84 12 -120 12c-121 0 -159 -93 -159 -210zM315 -255h-35l22 104h-43v111
h110v-111z" />
    <glyph glyph-name="Gdotaccent.small" unicode="&#xf680;" horiz-adv-x="564" 
d="M155 297c0 -124 44 -212 159 -212c34 0 66 8 95 22v103h-100v89h213v-267c-72 -26 -135 -42 -217 -42c-208 0 -270 140 -270 307c0 165 56 298 270 298c72 0 136 -8 217 -32v-136h-88v68c-53 10 -84 12 -120 12c-121 0 -159 -93 -159 -210zM263 780h97v-125h-97v125z" />
    <glyph glyph-name="Hsmall" unicode="&#xf768;" horiz-adv-x="618" 
d="M380 88h53v170h-248v-170h53v-88h-220v88h53v409h-53v88h220v-88h-53v-151h248v151h-53v88h221v-88h-54v-409h54v-88h-221v88z" />
    <glyph glyph-name="Hbar.small" horiz-adv-x="618" 
d="M380 88h53v170h-248v-170h53v-88h-220v88h53v325h-50v28h50v56h-53v88h220v-88h-53v-56h248v56h-53v88h221v-88h-54v-56h50v-28h-50v-325h54v-88h-221v88zM185 334h248v79h-248v-79z" />
    <glyph glyph-name="Hcircumflex.small" unicode="&#xf682;" horiz-adv-x="618" 
d="M380 88h53v170h-248v-170h53v-88h-220v88h53v409h-53v88h220v-88h-53v-151h248v151h-53v88h221v-88h-54v-409h54v-88h-221v88zM317 710l-55 -70h-66l86 132h69l87 -132h-66z" />
    <glyph glyph-name="Ismall" unicode="&#xf769;" horiz-adv-x="256" 
d="M18 88h53v409h-53v88h220v-88h-53v-409h53v-88h-220v88z" />
    <glyph glyph-name="Iacutesmall" unicode="&#xf7ed;" horiz-adv-x="256" 
d="M18 88h53v409h-53v88h220v-88h-53v-409h53v-88h-220v88zM249 780l-78 -140h-85l58 140h105z" />
    <glyph glyph-name="Ibreve.small" unicode="&#xf683;" horiz-adv-x="256" 
d="M18 88h53v409h-53v88h220v-88h-53v-409h53v-88h-220v88zM127 715c54 0 73 35 85 75h58c-11 -88 -60 -139 -143 -139s-131 51 -143 139h58c13 -40 32 -75 85 -75z" />
    <glyph glyph-name="Icircumflexsmall" unicode="&#xf7ee;" horiz-adv-x="256" 
d="M18 88h53v409h-53v88h220v-88h-53v-409h53v-88h-220v88zM128 710l-55 -70h-66l86 132h69l87 -132h-66z" />
    <glyph glyph-name="Idieresissmall" unicode="&#xf7ef;" horiz-adv-x="256" 
d="M18 88h53v409h-53v88h220v-88h-53v-409h53v-88h-220v88zM-3 742h79v-95h-79v95zM180 742h79v-95h-79v95z" />
    <glyph glyph-name="Idotaccent.small" unicode="&#xf6ad;" horiz-adv-x="256" 
d="M18 88h53v409h-53v88h220v-88h-53v-409h53v-88h-220v88zM79 780h97v-125h-97v125z" />
    <glyph glyph-name="Igravesmall" unicode="&#xf7ec;" horiz-adv-x="256" 
d="M18 88h53v409h-53v88h220v-88h-53v-409h53v-88h-220v88zM87 640l-78 140h106l57 -140h-85z" />
    <glyph glyph-name="Imacron.small" unicode="&#xf685;" horiz-adv-x="256" 
d="M18 88h53v409h-53v88h220v-88h-53v-409h53v-88h-220v88zM-1 737h258v-78h-258v78z" />
    <glyph glyph-name="Iogonek.small" horiz-adv-x="256" 
d="M200 -123l5 -26c-21 -15 -56 -25 -85 -25c-50 0 -88 26 -88 67c0 38 27 77 75 107h-89v88h53v409h-53v88h220v-88h-53v-409h53v-88h-77c-34 -26 -57 -59 -57 -88s20 -46 53 -46c18 0 31 6 43 11z" />
    <glyph glyph-name="Itilde.small" unicode="&#xf687;" horiz-adv-x="256" 
d="M18 88h53v409h-53v88h220v-88h-53v-409h53v-88h-220v88zM72 685c-23 0 -37 -5 -76 -45l-35 40c37 68 73 87 108 87c49 0 98 -48 132 -48c18 0 37 6 65 43l28 -46c-18 -36 -46 -77 -93 -77c-38 0 -92 46 -129 46z" />
    <glyph glyph-name="IJ.small" 
d="M18 88h53v409h-53v88h220v-88h-53v-409h53v-88h-220v88zM344 585h220v-88h-53v-343c0 -118 -61 -164 -158 -164c-36 0 -67 3 -92 8l10 88c19 -3 34 -4 51 -4c45 0 74 16 74 72v343h-52v88z" />
    <glyph glyph-name="Jsmall" unicode="&#xf76a;" horiz-adv-x="337" 
d="M99 585h220v-88h-53v-343c0 -118 -61 -164 -158 -164c-35 0 -67 3 -92 8l10 88c19 -3 34 -4 52 -4c44 0 74 16 74 72v343h-53v88z" />
    <glyph glyph-name="Jcircumflex.small" unicode="&#xf688;" horiz-adv-x="337" 
d="M99 585h220v-88h-53v-343c0 -118 -61 -164 -158 -164c-35 0 -67 3 -92 8l10 88c19 -3 34 -4 52 -4c44 0 74 16 74 72v343h-53v88zM207 710l-55 -70h-66l86 132h69l87 -132h-66z" />
    <glyph glyph-name="Ksmall" unicode="&#xf76b;" horiz-adv-x="618" 
d="M18 585h220v-88h-53v-212l212 212h-50v88h245v-88h-59l-172 -163l188 -246h52v-88h-251v88h51l-126 171l-90 -88v-83h53v-88h-220v88h53v409h-53v88z" />
    <glyph glyph-name="Kcommaaccent.small" unicode="&#xf689;" horiz-adv-x="618" 
d="M18 585h220v-88h-53v-212l212 212h-50v88h245v-88h-59l-172 -163l188 -246h52v-88h-251v88h51l-126 171l-90 -88v-83h53v-88h-220v88h53v409h-53v88zM302 -255h-35l22 104h-43v111h110v-111z" />
    <glyph glyph-name="Lsmall" unicode="&#xf76c;" horiz-adv-x="501" 
d="M389 143h88v-143h-459v88h53v409h-53v88h220v-88h-53v-409h204v55z" />
    <glyph glyph-name="Lacute.small" unicode="&#xf68a;" horiz-adv-x="501" 
d="M389 143h88v-143h-459v88h53v409h-53v88h220v-88h-53v-409h204v55zM253 780l-78 -140h-85l58 140h105z" />
    <glyph glyph-name="Lcaron.small" unicode="&#xf68b;" horiz-adv-x="501" 
d="M389 143h88v-143h-459v88h53v409h-53v88h220v-88h-53v-409h204v55zM359 370h-35l22 104h-43v111h110v-111z" />
    <glyph glyph-name="Lcommaaccent.small" unicode="&#xf68c;" horiz-adv-x="501" 
d="M389 143h88v-143h-459v88h53v409h-53v88h220v-88h-53v-409h204v55zM267 -255h-35l22 104h-43v111h110v-111z" />
    <glyph glyph-name="Ldot.small" unicode="&#xf68d;" horiz-adv-x="501" 
d="M389 143h88v-143h-459v88h53v409h-53v88h220v-88h-53v-409h204v55zM283 396h97v-125h-97v125z" />
    <glyph glyph-name="Lslashsmall" unicode="&#xf6f9;" horiz-adv-x="501" 
d="M18 287l53 14v196h-53v88h220v-88h-53v-163l53 14v-51l-53 -15v-194h204v54h88v-142h-459v88h53v162l-53 -15v52z" />
    <glyph glyph-name="Msmall" unicode="&#xf76d;" horiz-adv-x="762" 
d="M558 585h187v-88h-54v-409h54v-88h-216v88h48v308h-1l-165 -396h-60l-173 396h-2v-308h51v-88h-209v88h53v409h-53v88h188l181 -411h2z" />
    <glyph glyph-name="Nsmall" unicode="&#xf76e;" horiz-adv-x="627" 
d="M395 585h215v-88h-54v-497h-101l-277 391l-2 -6v-297h56v-88h-214v88h53v409h-53v88h148l283 -403l2 6v309h-56v88z" />
    <glyph glyph-name="Nacute.small" unicode="&#xf68e;" horiz-adv-x="627" 
d="M395 585h215v-88h-54v-497h-101l-277 391l-2 -6v-297h56v-88h-214v88h53v409h-53v88h148l283 -403l2 6v309h-56v88zM454 780l-78 -140h-85l58 140h105z" />
    <glyph glyph-name="Ncaron.small" unicode="&#xf68f;" horiz-adv-x="627" 
d="M395 585h215v-88h-54v-497h-101l-277 391l-2 -6v-297h56v-88h-214v88h53v409h-53v88h148l283 -403l2 6v309h-56v88zM261 772l55 -69l55 69h66l-87 -132h-69l-86 132h66z" />
    <glyph glyph-name="Ncommaaccent.small" unicode="&#xf690;" horiz-adv-x="627" 
d="M395 585h215v-88h-54v-497h-101l-277 391l-2 -6v-297h56v-88h-214v88h53v409h-53v88h148l283 -403l2 6v309h-56v88zM316 -255h-35l22 104h-43v111h110v-111z" />
    <glyph glyph-name="Ntildesmall" unicode="&#xf7f1;" horiz-adv-x="627" 
d="M395 585h215v-88h-54v-497h-101l-277 391l-2 -6v-297h56v-88h-214v88h53v409h-53v88h148l283 -403l2 6v309h-56v88zM270 685c-23 0 -37 -5 -76 -45l-35 40c37 68 73 87 108 87c49 0 98 -48 132 -48c18 0 37 6 65 43l28 -46c-18 -36 -46 -77 -93 -77c-38 0 -92 46 -129 46
z" />
    <glyph glyph-name="Osmall" unicode="&#xf76f;" horiz-adv-x="609" 
d="M305 507c-128 0 -150 -93 -150 -210c0 -118 22 -219 150 -219c127 0 149 101 149 219c0 117 -22 210 -149 210zM305 -10c-214 0 -270 140 -270 307c0 165 56 298 270 298c213 0 269 -133 269 -298c0 -167 -56 -307 -269 -307z" />
    <glyph glyph-name="Oacutesmall" unicode="&#xf7f3;" horiz-adv-x="609" 
d="M305 507c-128 0 -150 -93 -150 -210c0 -118 22 -219 150 -219c127 0 149 101 149 219c0 117 -22 210 -149 210zM305 -10c-214 0 -270 140 -270 307c0 165 56 298 270 298c213 0 269 -133 269 -298c0 -167 -56 -307 -269 -307zM434 780l-78 -140h-85l58 140h105z" />
    <glyph glyph-name="Obreve.small" unicode="&#xf691;" horiz-adv-x="609" 
d="M305 507c-128 0 -150 -93 -150 -210c0 -118 22 -219 150 -219c127 0 149 101 149 219c0 117 -22 210 -149 210zM305 -10c-214 0 -270 140 -270 307c0 165 56 298 270 298c213 0 269 -133 269 -298c0 -167 -56 -307 -269 -307zM304 715c54 0 73 35 85 75h58
c-11 -88 -60 -139 -143 -139s-131 51 -143 139h58c13 -40 32 -75 85 -75z" />
    <glyph glyph-name="Ocircumflexsmall" unicode="&#xf7f4;" horiz-adv-x="609" 
d="M305 507c-128 0 -150 -93 -150 -210c0 -118 22 -219 150 -219c127 0 149 101 149 219c0 117 -22 210 -149 210zM305 -10c-214 0 -270 140 -270 307c0 165 56 298 270 298c213 0 269 -133 269 -298c0 -167 -56 -307 -269 -307zM304 710l-55 -70h-66l86 132h69l87 -132h-66
z" />
    <glyph glyph-name="Odieresissmall" unicode="&#xf7f6;" horiz-adv-x="609" 
d="M305 507c-128 0 -150 -93 -150 -210c0 -118 22 -219 150 -219c127 0 149 101 149 219c0 117 -22 210 -149 210zM305 -10c-214 0 -270 140 -270 307c0 165 56 298 270 298c213 0 269 -133 269 -298c0 -167 -56 -307 -269 -307zM173 742h79v-95h-79v95zM356 742h79v-95h-79
v95z" />
    <glyph glyph-name="Ogravesmall" unicode="&#xf7f2;" horiz-adv-x="609" 
d="M305 507c-128 0 -150 -93 -150 -210c0 -118 22 -219 150 -219c127 0 149 101 149 219c0 117 -22 210 -149 210zM305 -10c-214 0 -270 140 -270 307c0 165 56 298 270 298c213 0 269 -133 269 -298c0 -167 -56 -307 -269 -307zM250 640l-78 140h106l57 -140h-85z" />
    <glyph glyph-name="Ohungarumlaut.small" unicode="&#xf692;" horiz-adv-x="609" 
d="M305 507c-128 0 -150 -93 -150 -210c0 -118 22 -219 150 -219c127 0 149 101 149 219c0 117 -22 210 -149 210zM305 -10c-214 0 -270 140 -270 307c0 165 56 298 270 298c213 0 269 -133 269 -298c0 -167 -56 -307 -269 -307zM344 780l-91 -140h-60l58 140h93zM514 780
l-91 -140h-60l58 140h93z" />
    <glyph glyph-name="Omacron.small" unicode="&#xf693;" horiz-adv-x="609" 
d="M305 507c-128 0 -150 -93 -150 -210c0 -118 22 -219 150 -219c127 0 149 101 149 219c0 117 -22 210 -149 210zM305 -10c-214 0 -270 140 -270 307c0 165 56 298 270 298c213 0 269 -133 269 -298c0 -167 -56 -307 -269 -307zM175 737h258v-78h-258v78z" />
    <glyph glyph-name="Otildesmall" unicode="&#xf7f5;" horiz-adv-x="609" 
d="M305 507c-128 0 -150 -93 -150 -210c0 -118 22 -219 150 -219c127 0 149 101 149 219c0 117 -22 210 -149 210zM305 -10c-214 0 -270 140 -270 307c0 165 56 298 270 298c213 0 269 -133 269 -298c0 -167 -56 -307 -269 -307zM248 685c-23 0 -37 -5 -76 -45l-35 40
c37 68 73 87 108 87c49 0 98 -48 132 -48c18 0 37 6 65 43l28 -46c-18 -36 -46 -77 -93 -77c-38 0 -92 46 -129 46z" />
    <glyph glyph-name="Oslashsmall" unicode="&#xf7f8;" horiz-adv-x="609" 
d="M305 -10c-83 0 -140 22 -181 57l-64 -77l-33 26l66 80c-43 56 -58 135 -58 221c0 165 56 298 270 298c78 0 135 -21 175 -52l68 82l34 -26l-70 -84c46 -54 62 -131 62 -218c0 -167 -56 -307 -269 -307zM305 85c127 0 149 94 149 212c0 45 -4 88 -21 121l-241 -286
c23 -29 58 -47 113 -47zM305 501c-128 0 -150 -87 -150 -204c0 -44 3 -87 18 -121l241 284c-22 25 -57 41 -109 41z" />
    <glyph glyph-name="Oslashacute.small" unicode="&#xf694;" horiz-adv-x="609" 
d="M447 780l-78 -140h-85l58 140h105zM305 -10c-83 0 -140 22 -181 57l-64 -77l-33 26l66 80c-43 56 -58 135 -58 221c0 165 56 298 270 298c78 0 135 -21 175 -52l68 82l34 -26l-70 -84c46 -54 62 -131 62 -218c0 -167 -56 -307 -269 -307zM305 85c127 0 149 94 149 212
c0 45 -4 88 -21 121l-241 -286c23 -29 58 -47 113 -47zM305 501c-128 0 -150 -87 -150 -204c0 -44 3 -87 18 -121l241 284c-22 25 -57 41 -109 41z" />
    <glyph glyph-name="OEsmall" unicode="&#xf6fa;" horiz-adv-x="908" 
d="M305 505c-128 0 -150 -91 -150 -208c0 -118 22 -218 150 -218c127 0 149 100 149 220c0 117 -24 206 -149 206zM873 0h-399v76c-39 -51 -101 -85 -169 -85c-215 0 -270 138 -270 306c0 165 56 296 270 296c69 0 133 -31 169 -82v74h399v-143h-89v55h-210v-151h254v-88
h-254v-170h210v54h89v-142z" />
    <glyph glyph-name="Psmall" unicode="&#xf770;" horiz-adv-x="564" 
d="M18 585h312c127 0 199 -69 199 -181c0 -115 -72 -181 -199 -181h-145v-135h53v-88h-220v88h53v409h-53v88zM185 497v-186h133c55 0 94 30 94 93c0 60 -39 93 -94 93h-133z" />
    <glyph glyph-name="Qsmall" unicode="&#xf771;" horiz-adv-x="609" 
d="M35 297c0 165 56 298 270 298c213 0 269 -133 269 -298c0 -155 -62 -256 -194 -266c11 -25 119 -26 178 -20v-101c-124 -14 -232 12 -277 81c-190 11 -246 146 -246 306zM305 507c-128 0 -150 -93 -150 -210c0 -118 22 -218 150 -218c127 0 149 100 149 218
c0 117 -22 210 -149 210z" />
    <glyph glyph-name="Rsmall" unicode="&#xf772;" horiz-adv-x="591" 
d="M18 585h312c127 0 199 -68 199 -181c0 -80 -44 -143 -120 -162l123 -154h42v-88h-233v88h59l-103 136h-112v-136h52v-88h-219v88h53v409h-53v88zM185 497v-185h130c56 0 97 30 97 92c0 60 -39 93 -94 93h-133z" />
    <glyph glyph-name="Racute.small" unicode="&#xf695;" horiz-adv-x="591" 
d="M394 780l-78 -140h-85l58 140h105zM18 585h312c127 0 199 -68 199 -181c0 -80 -44 -143 -120 -162l123 -154h42v-88h-233v88h59l-103 136h-112v-136h52v-88h-219v88h53v409h-53v88zM185 497v-185h130c56 0 97 30 97 92c0 60 -39 93 -94 93h-133z" />
    <glyph glyph-name="Rcaron.small" unicode="&#xf696;" horiz-adv-x="591" 
d="M235 772l55 -69l55 69h66l-87 -132h-69l-86 132h66zM18 585h312c127 0 199 -68 199 -181c0 -80 -44 -143 -120 -162l123 -154h42v-88h-233v88h59l-103 136h-112v-136h52v-88h-219v88h53v409h-53v88zM185 497v-185h130c56 0 97 30 97 92c0 60 -39 93 -94 93h-133z" />
    <glyph glyph-name="Rcommaaccent.small" unicode="&#xf697;" horiz-adv-x="591" 
d="M297 -255h-35l22 104h-43v111h110v-111zM18 585h312c127 0 199 -68 199 -181c0 -80 -44 -143 -120 -162l123 -154h42v-88h-233v88h59l-103 136h-112v-136h52v-88h-219v88h53v409h-53v88zM185 497v-185h130c56 0 97 30 97 92c0 60 -39 93 -94 93h-133z" />
    <glyph glyph-name="Ssmall" unicode="&#xf773;" horiz-adv-x="528" 
d="M35 164h89v-62c61 -13 103 -18 140 -18c76 0 109 35 109 74c0 58 -75 72 -145 91c-104 28 -190 83 -190 182c0 117 100 164 220 164c69 0 132 -8 213 -32v-142h-89v67c-55 10 -88 13 -124 13c-70 0 -100 -30 -100 -67c0 -51 71 -73 144 -90c105 -23 191 -71 191 -173
c0 -124 -99 -181 -229 -181c-69 0 -147 10 -229 33v141z" />
    <glyph glyph-name="Sacute.small" unicode="&#xf698;" horiz-adv-x="528" 
d="M35 164h89v-62c61 -13 103 -18 140 -18c76 0 109 35 109 74c0 58 -75 72 -145 91c-104 28 -190 83 -190 182c0 117 100 164 220 164c69 0 132 -8 213 -32v-142h-89v67c-55 10 -88 13 -124 13c-70 0 -100 -30 -100 -67c0 -51 71 -73 144 -90c105 -23 191 -71 191 -173
c0 -124 -99 -181 -229 -181c-69 0 -147 10 -229 33v141zM389 780l-78 -140h-85l58 140h105z" />
    <glyph glyph-name="Scaronsmall" unicode="&#xf6fd;" horiz-adv-x="528" 
d="M35 164h89v-62c61 -13 103 -18 140 -18c76 0 109 35 109 74c0 58 -75 72 -145 91c-104 28 -190 83 -190 182c0 117 100 164 220 164c69 0 132 -8 213 -32v-142h-89v67c-55 10 -88 13 -124 13c-70 0 -100 -30 -100 -67c0 -51 71 -73 144 -90c105 -23 191 -71 191 -173
c0 -124 -99 -181 -229 -181c-69 0 -147 10 -229 33v141zM215 772l55 -69l55 69h66l-87 -132h-69l-86 132h66z" />
    <glyph glyph-name="Scedilla.small" horiz-adv-x="528" 
d="M223 -76v68c-59 3 -123 12 -188 31v141h89v-62c61 -13 103 -18 140 -18c76 0 109 35 109 74c0 58 -75 72 -145 91c-104 28 -190 83 -190 182c0 117 100 164 220 164c69 0 132 -8 213 -32v-142h-89v67c-55 10 -88 13 -124 13c-70 0 -100 -30 -100 -67
c0 -51 71 -73 144 -90c105 -23 191 -71 191 -173c0 -118 -90 -175 -210 -180v-39c29 -2 71 -25 71 -76c0 -49 -44 -81 -107 -81c-24 0 -45 4 -71 12l7 42c16 -4 27 -7 47 -7c39 0 49 20 49 37c0 20 -16 41 -56 45z" />
    <glyph glyph-name="Scircumflex.small" unicode="&#xf69a;" horiz-adv-x="528" 
d="M35 164h89v-62c61 -13 103 -18 140 -18c76 0 109 35 109 74c0 58 -75 72 -145 91c-104 28 -190 83 -190 182c0 117 100 164 220 164c69 0 132 -8 213 -32v-142h-89v67c-55 10 -88 13 -124 13c-70 0 -100 -30 -100 -67c0 -51 71 -73 144 -90c105 -23 191 -71 191 -173
c0 -124 -99 -181 -229 -181c-69 0 -147 10 -229 33v141zM277 710l-55 -70h-66l86 132h69l87 -132h-66z" />
    <glyph glyph-name="Scommaaccent.small" unicode="&#xf69b;" horiz-adv-x="528" 
d="M35 164h89v-62c61 -13 103 -18 140 -18c76 0 109 35 109 74c0 58 -75 72 -145 91c-104 28 -190 83 -190 182c0 117 100 164 220 164c69 0 132 -8 213 -32v-142h-89v67c-55 10 -88 13 -124 13c-70 0 -100 -30 -100 -67c0 -51 71 -73 144 -90c105 -23 191 -71 191 -173
c0 -124 -99 -181 -229 -181c-69 0 -147 10 -229 33v141zM272 -255h-35l22 104h-43v111h110v-111z" />
    <glyph glyph-name="Tsmall" unicode="&#xf774;" horiz-adv-x="528" 
d="M29 585h470v-143h-89v55h-89v-409h53v-88h-220v88h53v409h-88v-55h-90v143z" />
    <glyph glyph-name="Tcaron.small" unicode="&#xf69d;" horiz-adv-x="528" 
d="M29 585h470v-143h-89v55h-89v-409h53v-88h-220v88h53v409h-88v-55h-90v143zM209 772l55 -69l55 69h66l-87 -132h-69l-86 132h66z" />
    <glyph glyph-name="Tbar.small" horiz-adv-x="528" 
d="M29 585h470v-143h-89v55h-89v-198h71v-64h-71v-147h53v-88h-220v88h53v147h-71v64h71v198h-88v-55h-90v143z" />
    <glyph glyph-name="Tcommaaccent.small" unicode="&#xf69e;" horiz-adv-x="528" 
d="M29 585h470v-143h-89v55h-89v-409h53v-88h-220v88h53v409h-88v-55h-90v143zM265 -255h-35l22 104h-43v111h110v-111z" />
    <glyph glyph-name="Usmall" unicode="&#xf775;" horiz-adv-x="618" 
d="M380 585h221v-88h-54v-291c0 -152 -92 -216 -238 -216c-145 0 -238 64 -238 216v291h-53v88h220v-88h-53v-291c0 -62 18 -128 126 -128c102 0 122 66 122 128v291h-53v88z" />
    <glyph glyph-name="Uacutesmall" unicode="&#xf7fa;" horiz-adv-x="618" 
d="M380 585h221v-88h-54v-291c0 -152 -92 -216 -238 -216c-145 0 -238 64 -238 216v291h-53v88h220v-88h-53v-291c0 -62 18 -128 126 -128c102 0 122 66 122 128v291h-53v88zM449 780l-78 -140h-85l58 140h105z" />
    <glyph glyph-name="Ubreve.small" unicode="&#xf69f;" horiz-adv-x="618" 
d="M380 585h221v-88h-54v-291c0 -152 -92 -216 -238 -216c-145 0 -238 64 -238 216v291h-53v88h220v-88h-53v-291c0 -62 18 -128 126 -128c102 0 122 66 122 128v291h-53v88zM309 715c54 0 73 35 85 75h58c-11 -88 -60 -139 -143 -139s-131 51 -143 139h58
c13 -40 32 -75 85 -75z" />
    <glyph glyph-name="Ucircumflexsmall" unicode="&#xf7fb;" horiz-adv-x="618" 
d="M380 585h221v-88h-54v-291c0 -152 -92 -216 -238 -216c-145 0 -238 64 -238 216v291h-53v88h220v-88h-53v-291c0 -62 18 -128 126 -128c102 0 122 66 122 128v291h-53v88zM309 710l-55 -70h-66l86 132h69l87 -132h-66z" />
    <glyph glyph-name="Udieresissmall" unicode="&#xf7fc;" horiz-adv-x="618" 
d="M380 585h221v-88h-54v-291c0 -152 -92 -216 -238 -216c-145 0 -238 64 -238 216v291h-53v88h220v-88h-53v-291c0 -62 18 -128 126 -128c102 0 122 66 122 128v291h-53v88zM178 742h79v-95h-79v95zM361 742h79v-95h-79v95z" />
    <glyph glyph-name="Uhungarumlaut.small" unicode="&#xf6a0;" horiz-adv-x="618" 
d="M380 585h221v-88h-54v-291c0 -152 -92 -216 -238 -216c-145 0 -238 64 -238 216v291h-53v88h220v-88h-53v-291c0 -62 18 -128 126 -128c102 0 122 66 122 128v291h-53v88zM359 780l-91 -140h-60l58 140h93zM529 780l-91 -140h-60l58 140h93z" />
    <glyph glyph-name="Ugravesmall" unicode="&#xf7f9;" horiz-adv-x="618" 
d="M380 585h221v-88h-54v-291c0 -152 -92 -216 -238 -216c-145 0 -238 64 -238 216v291h-53v88h220v-88h-53v-291c0 -62 18 -128 126 -128c102 0 122 66 122 128v291h-53v88zM267 640l-78 140h106l57 -140h-85z" />
    <glyph glyph-name="Umacron.small" unicode="&#xf6a1;" horiz-adv-x="618" 
d="M380 585h221v-88h-54v-291c0 -152 -92 -216 -238 -216c-145 0 -238 64 -238 216v291h-53v88h220v-88h-53v-291c0 -62 18 -128 126 -128c102 0 122 66 122 128v291h-53v88zM180 737h258v-78h-258v78z" />
    <glyph glyph-name="Uogonek.small" horiz-adv-x="618" 
d="M380 585h221v-88h-54v-291c0 -144 -83 -209 -217 -215c-29 -24 -46 -54 -46 -79c0 -29 19 -46 52 -46c18 0 32 6 44 11l4 -26c-20 -15 -55 -25 -84 -25c-51 0 -89 26 -89 67c0 36 24 70 66 99c-129 8 -206 74 -206 214v291h-53v88h220v-88h-53v-291
c0 -62 18 -128 126 -128c102 0 122 66 122 128v291h-53v88z" />
    <glyph glyph-name="Uring.small" unicode="&#xf6a3;" horiz-adv-x="618" 
d="M380 585h221v-88h-54v-291c0 -152 -92 -216 -238 -216c-145 0 -238 64 -238 216v291h-53v88h220v-88h-53v-291c0 -62 18 -128 126 -128c102 0 122 66 122 128v291h-53v88zM216 730c0 51 42 93 93 93s93 -42 93 -93s-42 -93 -93 -93s-93 42 -93 93zM258 730
c0 -29 22 -51 51 -51s51 22 51 51s-22 51 -51 51s-51 -22 -51 -51z" />
    <glyph glyph-name="Utilde.small" unicode="&#xf6a4;" horiz-adv-x="618" 
d="M380 585h221v-88h-54v-291c0 -152 -92 -216 -238 -216c-145 0 -238 64 -238 216v291h-53v88h220v-88h-53v-291c0 -62 18 -128 126 -128c102 0 122 66 122 128v291h-53v88zM253 685c-23 0 -37 -5 -76 -45l-35 40c37 68 73 87 108 87c49 0 98 -48 132 -48c18 0 37 6 65 43
l28 -46c-18 -36 -46 -77 -93 -77c-38 0 -92 46 -129 46z" />
    <glyph glyph-name="Vsmall" unicode="&#xf776;" horiz-adv-x="627" 
d="M377 585h233v-88h-48l-174 -501h-143l-180 501h-47v88h238v-88h-70l135 -386h1l125 386h-70v88z" />
    <glyph glyph-name="Wsmall" unicode="&#xf777;" horiz-adv-x="888" 
d="M18 585h238v-88h-72l97 -365h1l111 453h121l116 -453h1l92 365h-73v88h221v-88h-45l-128 -501h-149l-103 389h-2l-98 -389h-149l-135 501h-44v88z" />
    <glyph glyph-name="Wacute.small" unicode="&#xf6a5;" horiz-adv-x="888" 
d="M18 585h238v-88h-72l97 -365h1l111 453h121l116 -453h1l92 365h-73v88h221v-88h-45l-128 -501h-149l-103 389h-2l-98 -389h-149l-135 501h-44v88zM576 780l-78 -140h-85l58 140h105z" />
    <glyph glyph-name="Wcircumflex.small" unicode="&#xf6a6;" horiz-adv-x="888" 
d="M18 585h238v-88h-72l97 -365h1l111 453h121l116 -453h1l92 365h-73v88h221v-88h-45l-128 -501h-149l-103 389h-2l-98 -389h-149l-135 501h-44v88zM444 710l-55 -70h-66l86 132h69l87 -132h-66z" />
    <glyph glyph-name="Wdieresis.small" unicode="&#xf6a7;" horiz-adv-x="888" 
d="M18 585h238v-88h-72l97 -365h1l111 453h121l116 -453h1l92 365h-73v88h221v-88h-45l-128 -501h-149l-103 389h-2l-98 -389h-149l-135 501h-44v88zM313 742h79v-95h-79v95zM496 742h79v-95h-79v95z" />
    <glyph glyph-name="Wgrave.small" unicode="&#xf6a8;" horiz-adv-x="888" 
d="M18 585h238v-88h-72l97 -365h1l111 453h121l116 -453h1l92 365h-73v88h221v-88h-45l-128 -501h-149l-103 389h-2l-98 -389h-149l-135 501h-44v88zM398 640l-78 140h106l57 -140h-85z" />
    <glyph glyph-name="Xsmall" unicode="&#xf778;" horiz-adv-x="636" 
d="M389 585h221v-88h-52l-157 -200l163 -209h55v-88h-261v88h58l-111 153l-114 -153h54v-88h-227v88h54l166 209l-154 200h-57v88h254v-88h-50l105 -141l103 141h-50v88z" />
    <glyph glyph-name="Ysmall" unicode="&#xf779;" horiz-adv-x="600" 
d="M357 88h53v-88h-220v88h53v97l-175 312h-50v88h245v-88h-68l113 -211h2l110 211h-65v88h228v-88h-49l-177 -312v-97z" />
    <glyph glyph-name="Yacutesmall" unicode="&#xf7fd;" horiz-adv-x="600" 
d="M357 88h53v-88h-220v88h53v97l-175 312h-50v88h245v-88h-68l113 -211h2l110 211h-65v88h228v-88h-49l-177 -312v-97zM437 780l-78 -140h-85l58 140h105z" />
    <glyph glyph-name="Ycircumflex.small" unicode="&#xf6a9;" horiz-adv-x="600" 
d="M357 88h53v-88h-220v88h53v97l-175 312h-50v88h245v-88h-68l113 -211h2l110 211h-65v88h228v-88h-49l-177 -312v-97zM300 710l-55 -70h-66l86 132h69l87 -132h-66z" />
    <glyph glyph-name="Ydieresissmall" unicode="&#xf7ff;" horiz-adv-x="600" 
d="M357 88h53v-88h-220v88h53v97l-175 312h-50v88h245v-88h-68l113 -211h2l110 211h-65v88h228v-88h-49l-177 -312v-97zM169 742h79v-95h-79v95zM352 742h79v-95h-79v95z" />
    <glyph glyph-name="Ygrave.small" unicode="&#xf6aa;" horiz-adv-x="600" 
d="M357 88h53v-88h-220v88h53v97l-175 312h-50v88h245v-88h-68l113 -211h2l110 211h-65v88h228v-88h-49l-177 -312v-97zM257 640l-78 140h106l57 -140h-85z" />
    <glyph glyph-name="Zsmall" unicode="&#xf77a;" horiz-adv-x="510" 
d="M48 585h420v-82l-296 -413v-2h219v54h89v-142h-447v82l300 413v1h-196v-54h-89v143z" />
    <glyph glyph-name="Zacute.small" unicode="&#xf6ab;" horiz-adv-x="510" 
d="M48 585h420v-82l-296 -413v-2h219v54h89v-142h-447v82l300 413v1h-196v-54h-89v143zM375 780l-78 -140h-85l58 140h105z" />
    <glyph glyph-name="Zcaronsmall" unicode="&#xf6ff;" horiz-adv-x="510" 
d="M48 585h420v-82l-296 -413v-2h219v54h89v-142h-447v82l300 413v1h-196v-54h-89v143zM200 772l55 -69l55 69h66l-87 -132h-69l-86 132h66z" />
    <glyph glyph-name="Zdotaccent.small" unicode="&#xf6ac;" horiz-adv-x="510" 
d="M48 585h420v-82l-296 -413v-2h219v54h89v-142h-447v82l300 413v1h-196v-54h-89v143zM207 780h97v-125h-97v125z" />
    <glyph glyph-name="abreve" unicode="&#x103;" horiz-adv-x="535" 
d="M157 356h-91v132c69 14 141 22 199 22c124 0 191 -34 191 -166v-253h61v-91h-171v50h-2c-40 -39 -86 -60 -147 -60c-81 0 -163 46 -163 147c0 122 109 158 213 158h99v42c0 59 -32 82 -106 82c-21 0 -47 -2 -83 -8v-55zM346 112v117h-85c-79 0 -117 -21 -117 -79
c0 -48 37 -75 91 -75c49 0 91 21 111 37zM272 635c54 0 73 35 85 75h58c-11 -88 -60 -139 -143 -139s-131 51 -143 139h58c13 -40 32 -75 85 -75z" />
    <glyph glyph-name="amacron" unicode="&#x101;" horiz-adv-x="535" 
d="M157 356h-91v132c69 14 141 22 199 22c124 0 191 -34 191 -166v-253h61v-91h-171v50h-2c-40 -39 -86 -60 -147 -60c-81 0 -163 46 -163 147c0 122 109 158 213 158h99v42c0 59 -32 82 -106 82c-21 0 -47 -2 -83 -8v-55zM346 112v117h-85c-79 0 -117 -21 -117 -79
c0 -48 37 -75 91 -75c49 0 91 21 111 37zM137 657h258v-78h-258v78z" />
    <glyph glyph-name="aogonek" unicode="&#x105;" horiz-adv-x="535" 
d="M445 -145l4 -27c-23 -18 -60 -29 -92 -29c-54 0 -96 28 -96 75c0 46 32 91 85 126v50h-2c-45 -43 -89 -60 -153 -60c-100 0 -157 64 -157 151c0 117 102 154 210 154h102v42c0 59 -32 82 -106 82c-21 0 -47 -2 -83 -8v-55h-91v132c69 14 141 22 199 22
c124 0 191 -34 191 -166v-253h61v-91h-116c-39 -31 -65 -72 -65 -106s21 -53 58 -53c22 0 37 8 51 14zM346 112v117h-96c-76 0 -106 -28 -106 -79c0 -48 37 -75 91 -75c49 0 91 21 111 37z" />
    <glyph glyph-name="aeacute" unicode="&#x1fd;" horiz-adv-x="837" 
d="M565 700l-78 -140h-85l58 140h105zM235 75c49 0 95 21 123 47c-8 31 -12 66 -12 107h-96c-76 0 -106 -28 -106 -79c0 -48 37 -75 91 -75zM466 298h223c3 14 4 23 4 36c0 49 -26 91 -102 91c-86 0 -119 -53 -125 -127zM797 229h-331c3 -90 47 -148 151 -148
c45 0 94 2 156 20l13 -88c-64 -18 -120 -23 -185 -23c-110 0 -177 33 -215 93c-67 -75 -132 -93 -195 -93c-100 0 -157 64 -157 151c0 122 108 154 212 154h100v36c0 64 -27 88 -106 88c-21 0 -47 -2 -83 -8v-55h-91v132c50 10 128 22 192 22c86 0 133 -21 163 -81
c33 50 89 81 176 81c155 0 208 -80 208 -200c0 -21 -2 -46 -8 -81z" />
    <glyph glyph-name="cacute" unicode="&#x107;" horiz-adv-x="487" 
d="M462 356h-91v55c-35 8 -61 8 -81 8c-91 0 -135 -64 -135 -169s44 -169 135 -169c36 0 71 0 153 20l19 -88c-60 -15 -109 -23 -172 -23c-188 0 -251 104 -251 260s63 260 251 260c63 0 112 -8 172 -23v-131zM404 700l-78 -140h-85l58 140h105z" />
    <glyph glyph-name="ccaron" unicode="&#x10d;" horiz-adv-x="487" 
d="M462 356h-91v55c-35 8 -61 8 -81 8c-91 0 -135 -64 -135 -169s44 -169 135 -169c36 0 71 0 153 20l19 -88c-60 -15 -109 -23 -172 -23c-188 0 -251 104 -251 260s63 260 251 260c63 0 112 -8 172 -23v-131zM234 692l55 -69l55 69h66l-87 -132h-69l-86 132h66z" />
    <glyph glyph-name="ccircumflex" unicode="&#x109;" horiz-adv-x="487" 
d="M462 356h-91v55c-35 8 -61 8 -81 8c-91 0 -135 -64 -135 -169s44 -169 135 -169c36 0 71 0 153 20l19 -88c-60 -15 -109 -23 -172 -23c-188 0 -251 104 -251 260s63 260 251 260c63 0 112 -8 172 -23v-131zM276 630l-55 -70h-66l86 132h69l87 -132h-66z" />
    <glyph glyph-name="cdotaccent" unicode="&#x10b;" horiz-adv-x="487" 
d="M462 356h-91v55c-35 8 -61 8 -81 8c-91 0 -135 -64 -135 -169s44 -169 135 -169c36 0 71 0 153 20l19 -88c-60 -15 -109 -23 -172 -23c-188 0 -251 104 -251 260s63 260 251 260c63 0 112 -8 172 -23v-131zM227 700h97v-125h-97v125z" />
    <glyph glyph-name="c_t" horiz-adv-x="865" 
d="M462 356h-91v55c-35 8 -61 8 -81 8c-91 0 -135 -64 -135 -169s44 -169 135 -169c36 0 71 0 153 20l19 -88c-60 -15 -109 -23 -172 -23c-188 0 -251 104 -251 260s63 260 251 260c63 0 112 -8 172 -23v-131zM579 144v277h-72v72l72 7l13 140h97v-140h132v-79h-132v-258
c0 -55 20 -85 78 -85c14 0 29 2 49 5l10 -85c-27 -5 -71 -8 -96 -8c-108 0 -151 45 -151 154z" />
    <glyph glyph-name="dcaron" unicode="&#x10f;" horiz-adv-x="659" 
d="M310 609v91h171v-609h61v-91h-171v50h-2c-33 -35 -90 -60 -147 -60c-140 0 -183 116 -183 260s50 260 190 260c53 0 107 -22 140 -57h2v156h-61zM155 250c0 -93 24 -169 111 -169c49 0 87 23 105 37v264c-18 14 -56 37 -105 37c-87 0 -111 -77 -111 -169zM595 485h-35
l22 104h-43v111h110v-111z" />
    <glyph glyph-name="dcroat" unicode="&#x111;" horiz-adv-x="560" 
d="M371 700h110v-77h58v-66h-58v-466h61v-91h-171v50h-2c-53 -47 -104 -60 -153 -60c-124 0 -177 114 -177 260c0 144 50 260 190 260c53 0 107 -22 140 -57h2v104h-76v66h76v77zM155 250c0 -93 24 -169 111 -169c49 0 87 23 105 37v264c-18 14 -56 37 -105 37
c-87 0 -111 -77 -111 -169z" />
    <glyph glyph-name="ebreve" unicode="&#x115;" horiz-adv-x="530" 
d="M490 229h-335c3 -88 49 -148 154 -148c46 0 95 2 156 20l14 -88c-65 -18 -120 -23 -185 -23c-189 0 -255 104 -255 260s66 260 251 260c155 0 207 -80 207 -200c0 -21 -1 -46 -7 -81zM284 425c-87 0 -123 -53 -129 -127h227c2 14 4 23 4 36c0 49 -27 91 -102 91zM286 635
c54 0 73 35 85 75h58c-11 -88 -60 -139 -143 -139s-131 51 -143 139h58c13 -40 32 -75 85 -75z" />
    <glyph glyph-name="ecaron" unicode="&#x11b;" horiz-adv-x="530" 
d="M490 229h-335c3 -88 49 -148 154 -148c46 0 95 2 156 20l14 -88c-65 -18 -120 -23 -185 -23c-189 0 -255 104 -255 260s66 260 251 260c155 0 207 -80 207 -200c0 -21 -1 -46 -7 -81zM284 425c-87 0 -123 -53 -129 -127h227c2 14 4 23 4 36c0 49 -27 91 -102 91zM227 692
l55 -69l55 69h66l-87 -132h-69l-86 132h66z" />
    <glyph glyph-name="edotaccent" unicode="&#x117;" horiz-adv-x="530" 
d="M490 229h-335c3 -88 49 -148 154 -148c46 0 95 2 156 20l14 -88c-65 -18 -120 -23 -185 -23c-189 0 -255 104 -255 260s66 260 251 260c155 0 207 -80 207 -200c0 -21 -1 -46 -7 -81zM284 425c-87 0 -123 -53 -129 -127h227c2 14 4 23 4 36c0 49 -27 91 -102 91zM229 700
h97v-125h-97v125z" />
    <glyph glyph-name="emacron" unicode="&#x113;" horiz-adv-x="530" 
d="M490 229h-335c3 -88 49 -148 154 -148c46 0 95 2 156 20l14 -88c-65 -18 -120 -23 -185 -23c-189 0 -255 104 -255 260s66 260 251 260c155 0 207 -80 207 -200c0 -21 -1 -46 -7 -81zM284 425c-87 0 -123 -53 -129 -127h227c2 14 4 23 4 36c0 49 -27 91 -102 91zM154 657
h258v-78h-258v78z" />
    <glyph glyph-name="eogonek" unicode="&#x119;" horiz-adv-x="530" 
d="M158 298h224c2 14 4 23 4 36c0 49 -27 91 -102 91c-87 0 -120 -53 -126 -127zM490 229h-332c3 -88 46 -148 151 -148c46 0 95 2 156 20l14 -88c-39 -31 -66 -72 -66 -106s21 -53 58 -53c22 0 38 8 51 14l5 -27c-23 -18 -61 -29 -93 -29c-53 0 -95 28 -95 75
c0 40 25 79 64 111c-36 -6 -69 -8 -109 -8c-189 0 -255 104 -255 260s66 260 251 260c155 0 207 -80 207 -200c0 -21 -1 -46 -7 -81z" />
    <glyph glyph-name="ff" unicode="&#xfb00;" horiz-adv-x="639" 
d="M387 91v330h-188v-330h62v-91h-234v91h62v330h-72v72l72 7v46c0 109 43 154 151 154c25 0 56 -3 84 -8l-10 -85c-20 3 -36 5 -49 5c-53 0 -66 -30 -66 -85v-27h188v46c0 109 43 154 151 154c26 0 56 -3 84 -8l-10 -85c-20 3 -36 5 -49 5c-52 0 -66 -30 -66 -85v-27h120
v-79h-120v-330h69v-91h-234v91h55z" />
    <glyph glyph-name="ffi" unicode="&#xfb03;" horiz-adv-x="874" 
d="M795 91h61v-91h-226v91h55v330h-188v-330h62v-91h-227v91h55v330h-188v-330h62v-91h-234v91h62v330h-72v72l72 7v46c0 109 43 154 151 154c25 0 56 -3 84 -8l-10 -85c-20 3 -36 5 -49 5c-53 0 -66 -30 -66 -85v-27h188v27c0 109 52 173 200 173c44 0 136 -13 182 -32
l-11 -79c-45 15 -114 23 -159 23c-83 0 -102 -36 -102 -85v-27h298v-409z" />
    <glyph glyph-name="f_f_j" horiz-adv-x="844" 
d="M685 421h-188v-330h62v-91h-227v91h55v330h-188v-330h62v-91h-234v91h62v330h-72v72l72 7v46c0 109 43 154 151 154c25 0 56 -3 84 -8l-10 -85c-20 3 -36 5 -49 5c-53 0 -66 -30 -66 -85v-27h188v27c0 109 52 173 200 173c44 0 136 -13 182 -32l-11 -79
c-45 15 -114 23 -159 23c-83 0 -102 -36 -102 -85v-27h298v-567c0 -96 -34 -143 -151 -143c-26 0 -57 3 -84 8l10 85c20 -3 35 -5 49 -5c50 0 66 15 66 64v479z" />
    <glyph glyph-name="ffl" unicode="&#xfb04;" horiz-adv-x="874" 
d="M387 421h-188v-330h62v-91h-234v91h62v330h-72v72l72 7v46c0 109 43 154 151 154c25 0 56 -3 84 -8l-10 -85c-20 3 -36 5 -49 5c-53 0 -66 -30 -66 -85v-27h188v27c0 109 52 173 200 173c37 0 87 -4 129 -19h79v-590h61v-91h-226v91h55v505c-39 14 -69 16 -86 16
c-83 0 -102 -35 -102 -85v-27h120v-79h-120v-330h62v-91h-227v91h55v330z" />
    <glyph glyph-name="fi" unicode="&#xfb01;" horiz-adv-x="576" 
d="M497 91h61v-91h-226v91h55v330h-188v-330h62v-91h-234v91h62v330h-72v72l72 7v27c0 109 52 173 200 173c44 0 136 -13 182 -32l-11 -79c-45 15 -114 23 -159 23c-84 0 -102 -36 -102 -85v-27h298v-409z" />
    <glyph glyph-name="f_j" horiz-adv-x="546" 
d="M387 421h-188v-330h62v-91h-234v91h62v330h-72v72l72 7v27c0 109 52 173 200 173c44 0 136 -13 182 -32l-11 -79c-45 15 -114 23 -159 23c-84 0 -102 -36 -102 -85v-27h298v-567c0 -96 -34 -143 -151 -143c-26 0 -57 3 -84 8l10 85c20 -3 35 -5 49 -5c50 0 66 15 66 64
v479z" />
    <glyph glyph-name="fl" unicode="&#xfb02;" horiz-adv-x="576" 
d="M497 91h61v-91h-226v91h55v505c-40 14 -69 16 -86 16c-84 0 -102 -35 -102 -85v-27h120v-79h-120v-330h62v-91h-234v91h62v330h-72v72l72 7v27c0 109 52 173 200 173c36 0 87 -4 129 -19h79v-590z" />
    <glyph glyph-name="gbreve" unicode="&#x11f;" horiz-adv-x="555" 
d="M119 -61c0 -54 53 -73 135 -73c84 0 158 23 158 82c0 27 -19 49 -72 53l-175 10c-25 -21 -46 -37 -46 -72zM265 249c58 0 98 30 98 91c0 62 -40 94 -98 94c-64 0 -100 -32 -100 -94s40 -91 100 -91zM107 26v2c-63 38 -48 123 33 170v2c-50 25 -82 76 -82 140
c0 112 81 170 207 170c27 0 52 -4 71 -10h180v-66h-88v-2c32 -23 39 -58 39 -92c0 -114 -86 -166 -202 -166c-19 0 -46 3 -68 10c-30 -36 -34 -78 10 -81l168 -8c103 -4 153 -52 153 -126c0 -118 -91 -179 -293 -179c-141 0 -210 41 -210 130c0 44 25 77 82 106zM286 635
c54 0 73 35 85 75h58c-11 -88 -60 -139 -143 -139s-131 51 -143 139h58c13 -40 32 -75 85 -75z" />
    <glyph glyph-name="gcircumflex" unicode="&#x11d;" horiz-adv-x="555" 
d="M119 -61c0 -54 53 -73 135 -73c84 0 158 23 158 82c0 27 -19 49 -72 53l-175 10c-25 -21 -46 -37 -46 -72zM265 249c58 0 98 30 98 91c0 62 -40 94 -98 94c-64 0 -100 -32 -100 -94s40 -91 100 -91zM107 26v2c-63 38 -48 123 33 170v2c-50 25 -82 76 -82 140
c0 112 81 170 207 170c27 0 52 -4 71 -10h180v-66h-88v-2c32 -23 39 -58 39 -92c0 -114 -86 -166 -202 -166c-19 0 -46 3 -68 10c-30 -36 -34 -78 10 -81l168 -8c103 -4 153 -52 153 -126c0 -118 -91 -179 -293 -179c-141 0 -210 41 -210 130c0 44 25 77 82 106zM280 630
l-55 -70h-66l86 132h69l87 -132h-66z" />
    <glyph glyph-name="gcommaaccent" unicode="&#x123;" horiz-adv-x="555" 
d="M119 -61c0 -54 53 -73 135 -73c84 0 158 23 158 82c0 27 -19 49 -72 53l-175 10c-25 -21 -46 -37 -46 -72zM265 249c58 0 98 30 98 91c0 62 -40 94 -98 94c-64 0 -100 -32 -100 -94s40 -91 100 -91zM107 26v2c-63 38 -48 123 33 170v2c-50 25 -82 76 -82 140
c0 112 81 170 207 170c27 0 52 -4 71 -10h180v-66h-88v-2c32 -23 39 -58 39 -92c0 -114 -86 -166 -202 -166c-19 0 -46 3 -68 10c-30 -36 -34 -78 10 -81l168 -8c103 -4 153 -52 153 -126c0 -118 -91 -179 -293 -179c-141 0 -210 41 -210 130c0 44 25 77 82 106zM264 850h35
l-22 -130h44v-138h-110v138z" />
    <glyph glyph-name="gdotaccent" unicode="&#x121;" horiz-adv-x="555" 
d="M119 -61c0 -54 53 -73 135 -73c84 0 158 23 158 82c0 27 -19 49 -72 53l-175 10c-25 -21 -46 -37 -46 -72zM265 249c58 0 98 30 98 91c0 62 -40 94 -98 94c-64 0 -100 -32 -100 -94s40 -91 100 -91zM107 26v2c-63 38 -48 123 33 170v2c-50 25 -82 76 -82 140
c0 112 81 170 207 170c27 0 52 -4 71 -10h180v-66h-88v-2c32 -23 39 -58 39 -92c0 -114 -86 -166 -202 -166c-19 0 -46 3 -68 10c-30 -36 -34 -78 10 -81l168 -8c103 -4 153 -52 153 -126c0 -118 -91 -179 -293 -179c-141 0 -210 41 -210 130c0 44 25 77 82 106zM215 700h97
v-125h-97v125z" />
    <glyph glyph-name="hbar" unicode="&#x127;" horiz-adv-x="590" 
d="M346 0v91h55v228c0 61 -24 100 -90 100c-49 0 -95 -29 -122 -48v-280h55v-91h-227v91h62v466h-58v66h58v77h110v-77h76v-66h-76v-125h2c39 40 88 69 143 75c15 2 30 3 44 1c89 -5 133 -67 133 -164v-253h61v-91h-226z" />
    <glyph glyph-name="hcircumflex" unicode="&#x125;" horiz-adv-x="590" 
d="M346 0v91h55v228c0 61 -24 100 -90 100c-49 0 -95 -29 -122 -48v-280h55v-91h-227v91h62v518h-62v91h172v-268h2c45 47 103 78 170 78c100 0 150 -63 150 -166v-253h61v-91h-226zM118 820l-55 -70h-66l86 132h69l87 -132h-66z" />
    <glyph glyph-name="ibreve" unicode="&#x12d;" horiz-adv-x="267" 
d="M17 409v91h172v-409h61v-91h-233v91h62v318h-62zM121 635c54 0 73 35 85 75h58c-11 -88 -60 -139 -143 -139s-131 51 -143 139h58c13 -40 32 -75 85 -75z" />
    <glyph glyph-name="imacron" unicode="&#x12b;" horiz-adv-x="267" 
d="M17 409v91h172v-409h61v-91h-233v91h62v318h-62zM-11 657h258v-78h-258v78z" />
    <glyph glyph-name="iogonek" unicode="&#x12f;" horiz-adv-x="267" 
d="M212 -145l4 -27c-23 -18 -60 -29 -92 -29c-54 0 -96 28 -96 75c0 46 33 91 86 126h-97v91h62v318h-62v91h172v-409h61v-91h-82c-39 -31 -66 -72 -66 -106s22 -53 59 -53c22 0 37 8 51 14zM79 700h110v-131h-110v131z" />
    <glyph glyph-name="itilde" unicode="&#x129;" horiz-adv-x="267" 
d="M17 409v91h172v-409h61v-91h-233v91h62v318h-62zM65 605c-23 0 -37 -5 -76 -45l-35 40c37 68 73 87 108 87c49 0 98 -48 132 -48c18 0 37 6 65 43l28 -46c-18 -36 -46 -77 -93 -77c-38 0 -92 46 -129 46z" />
    <glyph glyph-name="ij" unicode="&#x133;" horiz-adv-x="475" 
d="M17 409v91h172v-409h61v-91h-233v91h62v318h-62zM79 700h110v-131h-110v131zM245 409v91h181v-567c0 -96 -34 -143 -151 -143c-26 0 -56 3 -84 8l10 85c20 -3 36 -5 49 -5c51 0 66 15 66 64v467h-71zM316 700h110v-131h-110v131z" />
    <glyph glyph-name="dotlessi" unicode="&#x131;" horiz-adv-x="267" 
d="M17 409v91h172v-409h61v-91h-233v91h62v318h-62z" />
    <glyph glyph-name="jcircumflex" unicode="&#x135;" horiz-adv-x="247" 
d="M17 409v91h182v-567c0 -96 -34 -143 -152 -143c-25 0 -56 3 -83 8l10 85c20 -3 35 -5 48 -5c51 0 67 15 67 64v467h-72zM128 630l-55 -70h-66l86 132h69l87 -132h-66z" />
    <glyph glyph-name="dotlessj" unicode="&#x237;" horiz-adv-x="247" 
d="M17 409v91h182v-567c0 -96 -34 -143 -152 -143c-25 0 -56 3 -83 8l10 85c20 -3 35 -5 48 -5c51 0 67 15 67 64v467h-72z" />
    <glyph glyph-name="kcommaaccent" unicode="&#x137;" horiz-adv-x="600" 
d="M17 609v91h172v-437l193 146h-50v91h240v-91h-66l-124 -94l147 -224h53v-91h-240v91h49l-102 164l-100 -77v-87h61v-91h-233v91h62v518h-62zM303 -255h-35l22 104h-43v111h110v-111z" />
    <glyph glyph-name="kgreenlandic" unicode="&#x138;" horiz-adv-x="600" 
d="M17 409v91h172v-237l193 146h-43v91h233v-91h-66l-124 -94l147 -224h53v-91h-240v91h49l-102 164l-100 -77v-87h61v-91h-233v91h62v318h-62z" />
    <glyph glyph-name="lacute" unicode="&#x13a;" horiz-adv-x="290" 
d="M17 609v91h172v-609h61v-91h-233v91h62v518h-62zM256 890l-78 -140h-85l58 140h105z" />
    <glyph glyph-name="lcaron" unicode="&#x13e;" horiz-adv-x="351" 
d="M17 609v91h172v-609h61v-91h-233v91h62v518h-62zM287 485h-35l22 104h-43v111h110v-111z" />
    <glyph glyph-name="lcommaaccent" unicode="&#x13c;" horiz-adv-x="290" 
d="M17 609v91h172v-609h61v-91h-233v91h62v518h-62zM135 -255h-35l22 104h-43v111h110v-111z" />
    <glyph glyph-name="ldot" unicode="&#x140;" horiz-adv-x="339" 
d="M17 609v91h172v-609h61v-91h-233v91h62v518h-62zM231 422h97v-125h-97v125z" />
    <glyph glyph-name="lslash" unicode="&#x142;" horiz-adv-x="290" 
d="M17 609v91h172v-304l61 18v-53l-61 -19v-251h61v-91h-233v91h62v219l-62 -18v54l62 18v245h-62z" />
    <glyph glyph-name="nacute" unicode="&#x144;" horiz-adv-x="590" 
d="M346 0v91h55v228c0 61 -24 100 -90 100c-49 0 -95 -29 -122 -48v-280h55v-91h-227v91h62v318h-62v91h172v-68h2c45 47 103 78 170 78c100 0 150 -63 150 -166v-253h61v-91h-226zM411 700l-78 -140h-85l58 140h105z" />
    <glyph glyph-name="napostrophe" unicode="&#x149;" horiz-adv-x="590" 
d="M346 0v91h55v228c0 61 -24 100 -90 100c-49 0 -95 -29 -122 -48v-280h55v-91h-227v91h62v318h-62v91h172v-68h2c45 47 103 78 170 78c100 0 150 -63 150 -166v-253h61v-91h-226zM133 566h-35l22 104h-43v111h110v-111z" />
    <glyph glyph-name="ncaron" unicode="&#x148;" horiz-adv-x="590" 
d="M346 0v91h55v228c0 61 -24 100 -90 100c-49 0 -95 -29 -122 -48v-280h55v-91h-227v91h62v318h-62v91h172v-68h2c45 47 103 78 170 78c100 0 150 -63 150 -166v-253h61v-91h-226zM242 692l55 -69l55 69h66l-87 -132h-69l-86 132h66z" />
    <glyph glyph-name="ncommaaccent" unicode="&#x146;" horiz-adv-x="590" 
d="M346 0v91h55v228c0 61 -24 100 -90 100c-49 0 -95 -29 -122 -48v-280h55v-91h-227v91h62v318h-62v91h172v-68h2c45 47 103 78 170 78c100 0 150 -63 150 -166v-253h61v-91h-226zM299 -255h-35l22 104h-43v111h110v-111z" />
    <glyph glyph-name="obreve" unicode="&#x14f;" horiz-adv-x="550" 
d="M275 419c-93 0 -120 -70 -120 -169s27 -169 120 -169s120 70 120 169s-27 169 -120 169zM275 -10c-172 0 -236 104 -236 260s64 260 236 260s236 -104 236 -260s-64 -260 -236 -260zM275 635c54 0 73 35 85 75h58c-11 -88 -60 -139 -143 -139s-131 51 -143 139h58
c13 -40 32 -75 85 -75z" />
    <glyph glyph-name="ohungarumlaut" unicode="&#x151;" horiz-adv-x="550" 
d="M275 419c-93 0 -120 -70 -120 -169s27 -169 120 -169s120 70 120 169s-27 169 -120 169zM275 -10c-172 0 -236 104 -236 260s64 260 236 260s236 -104 236 -260s-64 -260 -236 -260zM302 700l-91 -140h-60l58 140h93zM472 700l-91 -140h-60l58 140h93z" />
    <glyph glyph-name="omacron" unicode="&#x14d;" horiz-adv-x="550" 
d="M275 419c-93 0 -120 -70 -120 -169s27 -169 120 -169s120 70 120 169s-27 169 -120 169zM275 -10c-172 0 -236 104 -236 260s64 260 236 260s236 -104 236 -260s-64 -260 -236 -260zM146 657h258v-78h-258v78z" />
    <glyph glyph-name="oslashacute" unicode="&#x1ff;" horiz-adv-x="550" 
d="M401 700l-78 -140h-85l58 140h105zM275 -10c-67 0 -117 17 -153 47l-60 -70l-35 27l61 72c-35 45 -49 108 -49 184c0 156 64 260 236 260c66 0 117 -17 152 -47l61 71l34 -28l-61 -72c35 -45 50 -109 50 -184c0 -156 -64 -260 -236 -260zM275 81c93 0 120 70 120 169
c0 32 -5 63 -16 88l-190 -223c19 -21 46 -34 86 -34zM275 419c-93 0 -120 -70 -120 -169c0 -33 4 -64 16 -88l189 222c-19 21 -46 35 -85 35z" />
    <glyph glyph-name="racute" unicode="&#x155;" horiz-adv-x="400" 
d="M17 409v91h172v-80h2c36 45 100 90 180 90v-104c-71 0 -142 -25 -182 -48v-267h68v-91h-240v91h62v318h-62zM269 700l-78 -140h-85l58 140h105z" />
    <glyph glyph-name="rcaron" unicode="&#x159;" horiz-adv-x="400" 
d="M17 409v91h172v-80h2c36 45 100 90 180 90v-104c-71 0 -142 -25 -182 -48v-267h68v-91h-240v91h62v318h-62zM151 692l55 -69l55 69h66l-87 -132h-69l-86 132h66z" />
    <glyph glyph-name="rcommaaccent" unicode="&#x157;" horiz-adv-x="400" 
d="M17 409v91h172v-80h2c36 45 100 90 180 90v-104c-71 0 -142 -25 -182 -48v-267h68v-91h-240v91h62v318h-62zM135 -255h-35l22 104h-43v111h110v-111z" />
    <glyph glyph-name="sacute" unicode="&#x15b;" horiz-adv-x="480" 
d="M434 356h-92v56c-44 9 -84 10 -107 10c-75 0 -88 -37 -88 -54c0 -28 17 -47 94 -64c100 -21 205 -48 205 -157c0 -105 -72 -157 -191 -157c-79 0 -161 8 -221 23v131h91v-56c47 -9 93 -10 117 -10c79 0 94 43 94 61c0 30 -25 48 -99 62c-110 20 -200 55 -200 164
c0 101 72 145 192 145c79 0 145 -8 205 -23v-131zM371 700l-78 -140h-85l58 140h105z" />
    <glyph glyph-name="scedilla" unicode="&#x15f;" horiz-adv-x="480" 
d="M213 -76v67c-66 2 -129 9 -179 22v131h91v-56c47 -9 93 -10 117 -10c79 0 94 43 94 61c0 30 -25 48 -99 62c-110 20 -200 55 -200 164c0 101 72 145 192 145c79 0 145 -8 205 -23v-131h-92v56c-44 9 -84 10 -107 10c-75 0 -88 -37 -88 -54c0 -28 17 -47 94 -64
c100 -21 205 -48 205 -157c0 -100 -64 -151 -173 -156v-39c29 -2 71 -25 71 -76c0 -49 -43 -81 -106 -81c-24 0 -45 4 -71 12l7 42c16 -4 27 -7 47 -7c38 0 49 20 49 37c0 20 -16 41 -57 45z" />
    <glyph glyph-name="scircumflex" unicode="&#x15d;" horiz-adv-x="480" 
d="M434 356h-92v56c-44 9 -84 10 -107 10c-75 0 -88 -37 -88 -54c0 -28 17 -47 94 -64c100 -21 205 -48 205 -157c0 -105 -72 -157 -191 -157c-79 0 -161 8 -221 23v131h91v-56c47 -9 93 -10 117 -10c79 0 94 43 94 61c0 30 -25 48 -99 62c-110 20 -200 55 -200 164
c0 101 72 145 192 145c79 0 145 -8 205 -23v-131zM246 630l-55 -70h-66l86 132h69l87 -132h-66z" />
    <glyph glyph-name="scommaaccent" unicode="&#x219;" horiz-adv-x="480" 
d="M434 356h-92v56c-44 9 -84 10 -107 10c-75 0 -88 -37 -88 -54c0 -28 17 -47 94 -64c100 -21 205 -48 205 -157c0 -105 -72 -157 -191 -157c-79 0 -161 8 -221 23v131h91v-56c47 -9 93 -10 117 -10c79 0 94 43 94 61c0 30 -25 48 -99 62c-110 20 -200 55 -200 164
c0 101 72 145 192 145c79 0 145 -8 205 -23v-131zM234 -255h-35l22 104h-43v111h110v-111z" />
    <glyph glyph-name="s_p" horiz-adv-x="1025" 
d="M434 356h-92v56c-44 9 -84 10 -107 10c-75 0 -88 -37 -88 -54c0 -28 17 -47 94 -64c100 -21 205 -48 205 -157c0 -105 -72 -157 -191 -157c-79 0 -161 8 -221 23v131h91v-56c47 -9 93 -10 117 -10c79 0 94 43 94 61c0 30 -25 48 -99 62c-110 20 -200 55 -200 164
c0 101 72 145 192 145c79 0 145 -8 205 -23v-131zM482 409v91h172v-50h2c33 35 90 60 146 60c140 0 184 -116 184 -260s-50 -260 -190 -260c-54 0 -107 22 -140 57h-2v-156h61v-91h-233v91h62v518h-62zM870 250c0 92 -24 169 -111 169c-49 0 -87 -23 -105 -37v-264
c18 -14 56 -37 105 -37c87 0 111 76 111 169z" />
    <glyph glyph-name="s_t" unicode="&#xfb06;" horiz-adv-x="860" 
d="M434 356h-92v56c-44 9 -84 10 -107 10c-75 0 -88 -37 -88 -54c0 -28 17 -47 94 -64c100 -21 205 -48 205 -157c0 -105 -72 -157 -191 -157c-79 0 -161 8 -221 23v131h91v-56c47 -9 93 -10 117 -10c79 0 94 43 94 61c0 30 -25 48 -99 62c-110 20 -200 55 -200 164
c0 101 72 145 192 145c79 0 145 -8 205 -23v-131zM574 144v277h-72v72l72 7l13 140h97v-140h132v-79h-132v-258c0 -55 20 -85 78 -85c14 0 29 2 49 5l10 -85c-27 -5 -71 -8 -96 -8c-108 0 -151 45 -151 154z" />
    <glyph glyph-name="tbar" unicode="&#x167;" horiz-adv-x="375" 
d="M89 239h-60v66h60v116h-72v72l72 7l13 140h97v-140h132v-79h-132v-116h122v-66h-122v-76c0 -55 20 -85 78 -85c14 0 29 2 49 5l10 -85c-27 -5 -71 -8 -96 -8c-108 0 -151 45 -151 154v95z" />
    <glyph glyph-name="tcaron" unicode="&#x165;" horiz-adv-x="375" 
d="M89 144v277h-72v72l72 7l13 140h97v-140h132v-79h-132v-258c0 -55 20 -85 78 -85c14 0 29 2 49 5l10 -85c-27 -5 -71 -8 -96 -8c-108 0 -151 45 -151 154zM315 595h-35l22 104h-43v111h110v-111z" />
    <glyph glyph-name="tcommaaccent" unicode="&#x163;" horiz-adv-x="375" 
d="M89 144v277h-72v72l72 7l13 140h97v-140h132v-79h-132v-258c0 -55 20 -85 78 -85c14 0 29 2 49 5l10 -85c-27 -5 -71 -8 -96 -8c-108 0 -151 45 -151 154zM193 -255h-35l22 104h-43v111h110v-111z" />
    <glyph glyph-name="uni021B" unicode="&#x21b;" horiz-adv-x="375" 
d="M89 144v277h-72v72l72 7l13 140h97v-140h132v-79h-132v-258c0 -55 20 -85 78 -85c14 0 29 2 49 5l10 -85c-27 -5 -71 -8 -96 -8c-108 0 -151 45 -151 154zM204 -257h-35l22 104h-43v111h110v-111z" />
    <glyph glyph-name="ubreve" unicode="&#x16d;" horiz-adv-x="590" 
d="M17 409v91h172v-319c0 -61 27 -100 90 -100c49 0 95 29 122 48v280h-72v91h182v-409h61v-91h-171v67h-2c-45 -46 -103 -77 -170 -77c-100 0 -150 62 -150 166v253h-62zM293 635c54 0 73 35 85 75h58c-11 -88 -60 -139 -143 -139s-131 51 -143 139h58
c13 -40 32 -75 85 -75z" />
    <glyph glyph-name="uhungarumlaut" unicode="&#x171;" horiz-adv-x="590" 
d="M17 409v91h172v-319c0 -61 27 -100 90 -100c49 0 95 29 122 48v280h-72v91h182v-409h61v-91h-171v67h-2c-45 -46 -103 -77 -170 -77c-100 0 -150 62 -150 166v253h-62zM326 700l-91 -140h-60l58 140h93zM496 700l-91 -140h-60l58 140h93z" />
    <glyph glyph-name="umacron" unicode="&#x16b;" horiz-adv-x="590" 
d="M17 409v91h172v-319c0 -61 27 -100 90 -100c49 0 95 29 122 48v280h-72v91h182v-409h61v-91h-171v67h-2c-45 -46 -103 -77 -170 -77c-100 0 -150 62 -150 166v253h-62zM156 657h258v-78h-258v78z" />
    <glyph glyph-name="uogonek" unicode="&#x173;" horiz-adv-x="590" 
d="M511 91h61v-91h-116c-39 -31 -65 -72 -65 -106s21 -53 58 -53c22 0 37 8 51 14l4 -27c-23 -18 -60 -29 -92 -29c-54 0 -96 28 -96 75c0 46 32 91 85 126v67h-2c-45 -46 -103 -77 -170 -77c-100 0 -150 62 -150 166v253h-62v91h172v-319c0 -61 27 -100 90 -100
c49 0 95 29 122 48v280h-72v91h182v-409z" />
    <glyph glyph-name="uring" unicode="&#x16f;" horiz-adv-x="590" 
d="M17 409v91h172v-319c0 -61 27 -100 90 -100c49 0 95 29 122 48v280h-72v91h182v-409h61v-91h-171v67h-2c-45 -46 -103 -77 -170 -77c-100 0 -150 62 -150 166v253h-62zM202 650c0 51 42 93 93 93s93 -42 93 -93s-42 -93 -93 -93s-93 42 -93 93zM244 650
c0 -29 22 -51 51 -51s51 22 51 51s-22 51 -51 51s-51 -22 -51 -51z" />
    <glyph glyph-name="utilde" unicode="&#x169;" horiz-adv-x="590" 
d="M17 409v91h172v-319c0 -61 27 -100 90 -100c49 0 95 29 122 48v280h-72v91h182v-409h61v-91h-171v67h-2c-45 -46 -103 -77 -170 -77c-100 0 -150 62 -150 166v253h-62zM238 605c-23 0 -37 -5 -76 -45l-35 40c37 68 73 87 108 87c49 0 98 -48 132 -48c18 0 37 6 65 43
l28 -46c-18 -36 -46 -77 -93 -77c-38 0 -92 46 -129 46z" />
    <glyph glyph-name="wacute" unicode="&#x1e83;" horiz-adv-x="810" 
d="M579 409v91h212v-91h-42l-125 -414h-118l-101 317h-2l-92 -317h-117l-136 414h-41v91h230v-91h-71l87 -289h2l102 380h92l108 -386h2l74 295h-64zM540 698l-78 -140h-85l58 140h105z" />
    <glyph glyph-name="wcircumflex" unicode="&#x175;" horiz-adv-x="810" 
d="M579 409v91h212v-91h-42l-125 -414h-118l-101 317h-2l-92 -317h-117l-136 414h-41v91h230v-91h-71l87 -289h2l102 380h92l108 -386h2l74 295h-64zM411 630l-55 -70h-66l86 132h69l87 -132h-66z" />
    <glyph glyph-name="wdieresis" unicode="&#x1e85;" horiz-adv-x="810" 
d="M579 409v91h212v-91h-42l-125 -414h-118l-101 317h-2l-92 -317h-117l-136 414h-41v91h230v-91h-71l87 -289h2l102 380h92l108 -386h2l74 295h-64zM280 682h79v-95h-79v95zM463 682h79v-95h-79v95z" />
    <glyph glyph-name="wgrave" unicode="&#x1e81;" horiz-adv-x="810" 
d="M579 409v91h212v-91h-42l-125 -414h-118l-101 317h-2l-92 -317h-117l-136 414h-41v91h230v-91h-71l87 -289h2l102 380h92l108 -386h2l74 295h-64zM358 560l-78 140h106l57 -140h-85z" />
    <glyph glyph-name="ycircumflex" unicode="&#x177;" horiz-adv-x="580" 
d="M349 409v91h212v-91h-39l-174 -430c-44 -106 -106 -189 -210 -189c-25 0 -58 3 -81 8l10 88c16 -3 35 -5 47 -5c60 0 99 50 119 107l-172 421h-44v91h230v-91h-64l120 -312h2l107 312h-63zM301 630l-55 -70h-66l86 132h69l87 -132h-66z" />
    <glyph glyph-name="ygrave" unicode="&#x1ef3;" horiz-adv-x="580" 
d="M349 409v91h212v-91h-39l-174 -430c-44 -106 -106 -189 -210 -189c-25 0 -58 3 -81 8l10 88c16 -3 35 -5 47 -5c60 0 99 50 119 107l-172 421h-44v91h230v-91h-64l120 -312h2l107 312h-63zM246 560l-78 140h106l57 -140h-85z" />
    <glyph glyph-name="zacute" unicode="&#x17a;" horiz-adv-x="470" 
d="M31 500h405v-85l-276 -328v-2h197v59h92v-144h-426v85l279 328v2h-180v-59h-91v144zM351 700l-78 -140h-85l58 140h105z" />
    <glyph glyph-name="zdotaccent" unicode="&#x17c;" horiz-adv-x="470" 
d="M31 500h405v-85l-276 -328v-2h197v59h92v-144h-426v85l279 328v2h-180v-59h-91v144zM186 700h97v-125h-97v125z" />
    <glyph glyph-name="asuperior" unicode="&#xf6e9;" horiz-adv-x="278" 
d="M81 607h-48v66c35 8 72 12 102 12c62 0 96 -17 96 -83v-124h30v-48h-88v25h-1c-20 -18 -38 -27 -62 -29c-8 0 -15 -1 -24 0c-37 2 -61 26 -66 58c-1 8 -2 16 -2 24c3 55 56 70 104 70h51v21c0 28 -16 38 -52 38c-10 0 -22 -1 -40 -3v-27zM173 488v55h-41
c-38 0 -56 -9 -56 -38c0 -22 18 -36 44 -36c23 0 43 10 53 19z" />
    <glyph glyph-name="bsuperior" unicode="&#xf6ea;" horiz-adv-x="288" 
d="M17 732v48h88v-125h1c17 18 44 30 72 30c70 0 92 -58 92 -130s-25 -130 -95 -130c-26 0 -54 11 -72 28h-1l-11 -23h-74v48h30v254h-30zM209 555c0 45 -11 82 -53 82c-24 0 -43 -11 -51 -18v-128c8 -7 27 -18 51 -18c42 0 53 37 53 82z" />
    <glyph glyph-name="dsuperior" unicode="&#xf6eb;" horiz-adv-x="288" 
d="M152 732v48h89v-302h29v-48h-87v25h-1c-17 -17 -45 -30 -73 -30c-70 0 -92 58 -92 130s25 130 95 130c27 0 53 -11 70 -28h1v75h-31zM79 555c0 -45 11 -82 53 -82c24 0 42 11 51 18v128c-9 7 -27 18 -51 18c-42 0 -53 -37 -53 -82z" />
    <glyph glyph-name="esuperior" unicode="&#xf6ec;" horiz-adv-x="266" 
d="M245 543h-165c2 -41 24 -70 74 -70c23 0 47 1 78 10l7 -46c-33 -10 -61 -12 -93 -12c-95 0 -129 52 -129 130s34 130 127 130c106 0 111 -76 101 -142zM141 640c-41 0 -57 -25 -61 -60h108c5 30 -2 60 -47 60z" />
    <glyph glyph-name="h.superior" horiz-adv-x="312" 
d="M181 430v48h26v110c0 30 -12 49 -43 49c-24 0 -46 -14 -59 -23v-136h27v-48h-115v48h30v254h-30v48h88v-134h1c22 24 51 39 84 39c50 0 75 -31 75 -83v-124h30v-48h-114z" />
    <glyph glyph-name="isuperior" unicode="&#xf6ed;" horiz-adv-x="153" 
d="M17 632v48h88v-202h30v-48h-118v48h30v154h-30zM47 780h58v-67h-58v67z" />
    <glyph glyph-name="lsuperior" unicode="&#xf6ee;" horiz-adv-x="153" 
d="M17 732v48h88v-302h30v-48h-118v48h30v254h-30z" />
    <glyph glyph-name="msuperior" unicode="&#xf6ef;" horiz-adv-x="462" 
d="M175 430v48h27v113c-1 28 -14 46 -43 46c-22 0 -41 -13 -54 -23v-136h27v-48h-115v48h30v154h-30v48h88v-34h1c17 18 38 35 65 37c8 1 15 2 23 1c29 -2 49 -17 59 -41c25 27 54 42 87 42c50 0 75 -31 75 -83v-124h30v-48h-114v48h26v110c0 30 -13 49 -43 49
c-22 0 -41 -14 -54 -23v-23v-113h27v-48h-112z" />
    <glyph glyph-name="nsuperior" unicode="&#x207f;" horiz-adv-x="312" 
d="M181 430v48h26v110c0 30 -12 49 -43 49c-24 0 -46 -14 -59 -23v-136h27v-48h-115v48h30v154h-30v48h88v-34h1c22 24 51 39 84 39c50 0 75 -31 75 -83v-124h30v-48h-114z" />
    <glyph glyph-name="osuperior" unicode="&#xf6f0;" horiz-adv-x="273" 
d="M137 637c-45 0 -58 -34 -58 -82s13 -82 58 -82c44 0 58 34 58 82s-14 82 -58 82zM137 425c-87 0 -120 52 -120 130s33 130 120 130c86 0 119 -52 119 -130s-33 -130 -119 -130z" />
    <glyph glyph-name="rsuperior" unicode="&#xf6f1;" horiz-adv-x="213" 
d="M17 632v48h88v-40h1c17 23 49 45 89 45v-55c-35 0 -70 -11 -90 -23v-129h33v-48h-121v48h30v154h-30z" />
    <glyph glyph-name="ssuperior" unicode="&#xf6f2;" horiz-adv-x="243" 
d="M219 607h-48v27c-22 4 -40 5 -51 5c-36 0 -42 -17 -42 -26c0 -13 8 -21 44 -30c50 -10 104 -23 104 -79c0 -53 -37 -79 -96 -79c-41 0 -83 4 -113 12v66h49v-27c23 -4 45 -5 56 -5c37 0 46 20 46 29c0 14 -13 22 -48 29c-55 10 -101 28 -101 82c0 52 37 74 97 74
c40 0 73 -4 103 -12v-66z" />
    <glyph glyph-name="tsuperior" unicode="&#xf6f3;" horiz-adv-x="195" 
d="M52 502v137h-35v37l35 4l7 70h51v-70h65v-41h-65v-127c0 -27 10 -41 38 -41c7 0 15 1 25 3l5 -45c-14 -2 -37 -4 -49 -4c-55 0 -77 23 -77 77z" />
    <glyph glyph-name="Ethsmall" horiz-adv-x="600" 
d="M18 585h279c207 0 268 -123 268 -288c0 -167 -61 -297 -268 -297h-279v88h53v177h-53v64h53v168h-53v88zM185 88h112c121 0 148 91 148 209c0 117 -27 200 -148 200h-112v-168h93v-64h-93v-177z" />
    <glyph glyph-name="Thornsmall" horiz-adv-x="559" 
d="M195 503h107c139 0 218 -80 218 -206c0 -130 -79 -206 -218 -206h-107v-91h-178v91h62v403h-62v91h178v-82zM195 412v-230h95c66 0 111 38 111 115c0 73 -45 115 -111 115h-95z" />
    <glyph glyph-name="Eng" unicode="&#x14a;" horiz-adv-x="690" 
d="M611 589v-614c0 -121 -45 -171 -129 -182c-14 -2 -30 -3 -46 -3c-42 1 -71 4 -94 8l10 98c22 -4 38 -5 58 -5c52 0 85 22 85 90l-18 45l-289 434h-2v-369h64v-91h-233v91h62v498h-62v91h178l307 -472h2v381h-64v91h232v-91h-61z" />
    <glyph glyph-name="Eng.small" horiz-adv-x="627" 
d="M556 -20v-26c0 -118 -62 -164 -159 -164c-35 0 -66 3 -91 8l9 88c20 -3 36 -5 53 -5c44 0 75 18 75 73v46l-265 385h-2v-297h56v-88h-214v88h53v409h-53v88h161l270 -397h2v309h-56v88h215v-88h-54v-517z" />
    <glyph glyph-name="eng" unicode="&#x14b;" horiz-adv-x="560" 
d="M401 -38v357c0 61 -24 100 -90 100c-49 0 -95 -29 -122 -48v-280h55v-91h-227v91h62v318h-62v91h172v-68h2c45 47 103 78 170 78c100 0 150 -63 150 -166v-382c0 -110 -34 -172 -151 -172c-26 0 -56 3 -84 8l10 85c20 -3 36 -5 49 -5c52 0 66 29 66 84z" />
    <glyph glyph-name="longs" unicode="&#x17f;" horiz-adv-x="309" 
d="M89 -37v583c0 109 43 154 151 154c25 0 56 -3 84 -8l-10 -85c-20 3 -36 5 -49 5c-53 0 -66 -30 -66 -85v-565c0 -110 -34 -172 -152 -172c-25 0 -56 3 -83 8l10 85c20 -3 35 -5 48 -5c53 0 67 30 67 85z" />
    <glyph glyph-name="longs_h" horiz-adv-x="900" 
d="M387 85v511c-40 14 -69 16 -86 16c-84 0 -102 -35 -102 -85v-565c0 -110 -34 -172 -152 -172c-25 0 -56 3 -83 8l10 85c20 -3 35 -5 48 -5c53 0 67 30 67 85v564c0 109 52 173 200 173c36 0 87 -4 129 -19h79v-255h2c45 47 103 78 170 78c100 0 150 -63 150 -167v-252h62
v-91h-227v91h55v227c0 62 -23 100 -90 100c-49 0 -95 -28 -122 -48v-279h55v-91h-226v91h61z" />
    <glyph glyph-name="longs_l" horiz-adv-x="600" 
d="M199 527v-565c0 -110 -34 -172 -152 -172c-25 0 -56 3 -83 8l10 85c20 -3 35 -5 48 -5c53 0 67 30 67 85v564c0 109 52 173 200 173c36 0 87 -4 129 -19h79v-590h61v-91h-226v91h55v505c-40 14 -69 16 -86 16c-84 0 -102 -35 -102 -85z" />
    <glyph glyph-name="longs_t" unicode="&#xfb05;" horiz-adv-x="651" 
d="M89 -37v583c0 109 43 154 151 154c25 0 56 -3 84 -8l-10 -85c-20 3 -36 5 -49 5c-53 0 -66 -30 -66 -85v-565c0 -110 -34 -172 -152 -172c-25 0 -56 3 -83 8l10 85c20 -3 35 -5 48 -5c53 0 67 30 67 85zM365 144v277h-71v72l71 7l13 140h97v-140h132v-79h-132v-258
c0 -55 20 -85 79 -85c13 0 28 2 48 5l10 -85c-27 -5 -70 -8 -96 -8c-108 0 -151 45 -151 154z" />
    <glyph glyph-name="longs_i" horiz-adv-x="595" 
d="M89 -37v583c0 109 43 154 151 154c25 0 56 -3 84 -8l-10 -85c-20 3 -36 5 -49 5c-53 0 -66 -30 -66 -85v-565c0 -110 -34 -172 -152 -172c-25 0 -56 3 -83 8l10 85c20 -3 35 -5 48 -5c53 0 67 30 67 85zM304 409v91h171v-409h61v-91h-232v91h61v318h-61z" />
    <glyph glyph-name="longs_longs" horiz-adv-x="579" 
d="M89 -37v583c0 109 43 154 151 154c25 0 56 -3 84 -8l-10 -85c-20 3 -36 5 -49 5c-53 0 -66 -30 -66 -85v-565c0 -110 -34 -172 -152 -172c-25 0 -56 3 -83 8l10 85c20 -3 35 -5 48 -5c53 0 67 30 67 85zM359 -37v583c0 109 43 154 151 154c25 0 56 -3 84 -8l-10 -85
c-20 3 -36 5 -49 5c-53 0 -66 -30 -66 -85v-565c0 -110 -34 -172 -152 -172c-25 0 -56 3 -83 8l10 85c20 -3 35 -5 48 -5c53 0 67 30 67 85z" />
    <glyph glyph-name="zero.slash" horiz-adv-x="590" 
d="M295 -10c-186 0 -246 162 -246 355c0 191 60 345 246 345s246 -154 246 -345c0 -193 -60 -355 -246 -355zM295 81c104 0 130 124 130 264c0 40 -4 80 -13 114l-226 -286c19 -56 52 -92 109 -92zM295 599c-104 0 -130 -114 -130 -254c0 -39 3 -79 12 -112l224 284
c-19 50 -52 82 -106 82z" />
    <glyph glyph-name="franc" unicode="&#x20a3;" horiz-adv-x="650" 
d="M21 294h59c-1 16 -1 33 -1 51v41h-58v54h64c20 144 95 250 290 250c79 0 151 -10 240 -36v-150h-91v79c-61 13 -99 16 -140 16c-110 0 -155 -69 -173 -159h168l-2 -54h-174c-2 -14 -2 -27 -2 -41c0 -18 1 -35 2 -51h176l-2 -54h-165c18 -92 64 -159 172 -159
c41 0 79 2 140 16v79h91v-150c-89 -26 -161 -36 -240 -36c-191 0 -267 105 -288 250h-66v54z" />
    <glyph glyph-name="lira" unicode="&#x20a4;" horiz-adv-x="650" 
d="M21 294h59c-1 16 -1 33 -1 51v41h-58v54h64c20 144 95 250 290 250c79 0 151 -10 240 -36v-150h-91v79c-61 13 -99 16 -140 16c-110 0 -155 -69 -173 -159h168l-2 -54h-174c-2 -14 -2 -27 -2 -41c0 -18 1 -35 2 -51h176l-2 -54h-165c18 -92 64 -159 172 -159
c41 0 79 2 140 16v79h91v-150c-89 -26 -161 -36 -240 -36c-191 0 -267 105 -288 250h-66v54z" />
    <glyph glyph-name="peseta" unicode="&#x20a7;" horiz-adv-x="650" 
d="M21 294h59c-1 16 -1 33 -1 51v41h-58v54h64c20 144 95 250 290 250c79 0 151 -10 240 -36v-150h-91v79c-61 13 -99 16 -140 16c-110 0 -155 -69 -173 -159h168l-2 -54h-174c-2 -14 -2 -27 -2 -41c0 -18 1 -35 2 -51h176l-2 -54h-165c18 -92 64 -159 172 -159
c41 0 79 2 140 16v79h91v-150c-89 -26 -161 -36 -240 -36c-191 0 -267 105 -288 250h-66v54z" />
    <glyph glyph-name="colonmonetary" unicode="&#x20a1;" horiz-adv-x="610" 
d="M484 176h91v-150c-45 -13 -86 -22 -125 -28v-98h-48v93c-22 -2 -45 -3 -67 -3c-10 0 -22 1 -35 2v-92h-48v98c-168 34 -213 176 -213 347c0 166 45 304 213 338v97h48v-93c10 2 22 3 35 3c22 0 45 -1 67 -3v93h48v-98c39 -6 80 -15 125 -28v-150h-91v79
c-61 13 -99 16 -140 16c-142 0 -183 -114 -183 -254c0 -150 41 -264 183 -264c41 0 79 2 140 16v79z" />
    <glyph glyph-name="rupiah" unicode="&#xf6dd;" horiz-adv-x="605" 
d="M47 500h338c-8 58 -51 89 -109 89h-229v91h510v-54h-108c33 -31 51 -74 56 -126h52v-54h-53c-9 -87 -59 -179 -215 -179h-97l281 -176h72v-91h-130l-368 224v135h229c56 0 97 30 108 87h-337v54z" />
    <glyph glyph-name="zero.fitted" 
d="M291 599c-110 0 -136 -114 -136 -254s26 -264 136 -264c109 0 135 124 135 264s-26 254 -135 254zM291 -10c-204 0 -253 162 -253 355c0 191 49 345 253 345c203 0 252 -154 252 -345c0 -193 -49 -355 -252 -355z" />
    <glyph glyph-name="one.fitted" 
d="M346 91h176v-91h-463v91h177v487l-167 -7v78l225 36h52v-594z" />
    <glyph glyph-name="two.fitted" 
d="M437 156h92v-156h-481v106c285 178 337 282 337 356c0 114 -89 127 -135 127c-35 0 -68 -4 -110 -20v-57h-92v128c79 33 140 50 227 50c155 0 227 -92 227 -204c0 -140 -105 -257 -297 -387v-2h232v59z" />
    <glyph glyph-name="three.fitted" 
d="M49 38v129h92v-65c39 -14 83 -21 131 -21c120 0 142 67 142 108c0 67 -50 105 -154 105h-90v92h85c106 0 142 59 142 113c0 42 -26 100 -125 100c-46 0 -83 -9 -120 -22v-65h-91v130c76 35 154 48 230 48c126 0 216 -63 216 -179c0 -79 -52 -132 -128 -158v-2
c98 -21 149 -89 149 -169c0 -123 -89 -192 -250 -192c-84 0 -153 11 -229 48z" />
    <glyph glyph-name="four.fitted" 
d="M141 282h208v285h-2c-61 -110 -126 -195 -206 -285zM349 91v100h-322v91c114 120 221 243 294 403h138v-403h95v-91h-95v-100h63v-91h-237v91h64z" />
    <glyph glyph-name="five.fitted" 
d="M503 680v-157h-92v59h-233l-12 -197l2 -1c34 32 80 56 148 56c130 0 212 -77 212 -218c0 -152 -99 -232 -258 -232c-78 0 -142 14 -221 50v121h92v-59c45 -16 82 -21 123 -21c95 0 147 55 147 135c0 60 -30 130 -134 130c-58 0 -93 -20 -130 -57l-80 7l15 384h421z" />
    <glyph glyph-name="six.fitted" 
d="M159 377l2 -1c38 47 94 79 158 79c133 0 214 -85 214 -235c0 -144 -98 -230 -234 -230c-187 0 -251 150 -251 310c0 302 137 390 298 390c67 0 115 -10 166 -27v-139h-92v68c-22 4 -39 7 -64 7c-127 0 -197 -111 -197 -222zM168 292c-7 -105 13 -211 124 -211
c67 0 124 48 124 139c0 61 -24 139 -126 139c-51 0 -92 -29 -122 -67z" />
    <glyph glyph-name="seven.fitted" 
d="M53 680h479v-79c-100 -165 -208 -359 -248 -601h-123c31 184 143 422 251 580v2h-268v-58h-91v156z" />
    <glyph glyph-name="eight.fitted" 
d="M389 359v-2c93 -41 154 -92 154 -176c0 -129 -110 -191 -256 -191c-140 0 -249 57 -249 179c0 87 63 140 153 173v2c-79 35 -132 85 -132 168c0 117 108 178 235 178c121 0 228 -61 228 -172c0 -80 -51 -122 -133 -159zM152 181c0 -55 37 -109 142 -109
c101 0 135 47 135 99c0 77 -86 104 -155 130c-62 -22 -122 -57 -122 -120zM287 608c-53 0 -118 -28 -118 -94c0 -63 65 -98 135 -116c59 20 108 54 108 110c0 71 -65 100 -125 100z" />
    <glyph glyph-name="nine.fitted" 
d="M422 303l-2 1c-37 -47 -94 -79 -158 -79c-133 0 -214 85 -214 235c0 144 98 230 235 230c187 0 250 -150 250 -310c0 -303 -137 -390 -298 -390c-67 0 -115 10 -166 27v139h92v-68c22 -5 39 -7 64 -7c127 0 197 111 197 222zM413 388c7 104 -12 211 -124 211
c-67 0 -124 -48 -124 -139c0 -61 24 -139 127 -139c50 0 91 29 121 67z" />
    <glyph glyph-name="zerooldstyle" horiz-adv-x="570" 
d="M285 419c-78 0 -130 -61 -130 -169s52 -169 130 -169c77 0 130 61 130 169s-53 169 -130 169zM285 -10c-153 0 -246 97 -246 260c0 162 93 260 246 260c152 0 246 -98 246 -260c0 -163 -94 -260 -246 -260z" />
    <glyph glyph-name="oneoldstyle" horiz-adv-x="390" 
d="M242 91h115v-91h-340v91h115v307l-111 -7v78l170 36h51v-414z" />
    <glyph glyph-name="twooldstyle" horiz-adv-x="530" 
d="M406 144h91v-144h-468v106c231 89 336 146 336 215c0 73 -66 88 -112 88c-34 0 -81 -6 -123 -23v-54h-91v134c49 21 133 44 227 44c152 0 215 -74 215 -159c0 -140 -137 -195 -297 -258v-2h222v53z" />
    <glyph glyph-name="threeoldstyle" horiz-adv-x="520" 
d="M25 -142v129h91v-65c38 -14 80 -21 126 -21c114 0 136 67 136 108c0 67 -48 105 -148 105h-88v92h83c103 0 137 59 137 113c0 42 -26 100 -120 100c-44 0 -80 -9 -115 -22v-65h-91v130c75 35 151 48 225 48c121 0 210 -63 210 -179c0 -79 -50 -132 -124 -158v-2
c95 -21 144 -89 144 -169c0 -123 -87 -192 -243 -192c-82 0 -149 11 -223 48z" />
    <glyph glyph-name="fouroldstyle" horiz-adv-x="570" 
d="M142 91h198v296h-2c-58 -110 -120 -206 -196 -296zM340 -89v89h-311v91c110 120 213 254 284 414h137v-414h91v-91h-91v-89h61v-91h-232v91h61z" />
    <glyph glyph-name="fiveoldstyle" horiz-adv-x="540" 
d="M477 500v-157h-91v59h-225l-11 -197l2 -1c33 32 78 56 143 56c127 0 206 -77 206 -218c0 -152 -96 -232 -251 -232c-76 0 -138 14 -215 50v121h91v-59c43 -16 79 -21 118 -21c92 0 141 55 141 135c0 60 -29 130 -129 130c-56 0 -89 -20 -125 -57l-79 7l14 384h411z" />
    <glyph glyph-name="sixoldstyle" horiz-adv-x="550" 
d="M149 377l2 -1c36 47 91 79 152 79c129 0 208 -85 208 -235c0 -144 -96 -230 -228 -230c-182 0 -244 150 -244 310c0 302 133 390 290 390c65 0 112 -10 162 -27v-139h-91v68c-21 4 -38 7 -62 7c-120 0 -189 -111 -189 -222zM158 292c-7 -105 11 -211 119 -211
c64 0 118 48 118 139c0 61 -23 139 -121 139c-48 0 -87 -29 -116 -67z" />
    <glyph glyph-name="sevenoldstyle" horiz-adv-x="490" 
d="M32 500h429v-79c-97 -165 -201 -359 -240 -601h-122c30 184 137 422 242 580v2h-217v-58h-92v156z" />
    <glyph glyph-name="eightoldstyle" horiz-adv-x="550" 
d="M372 359v-2c91 -41 149 -92 149 -176c0 -129 -108 -191 -249 -191c-136 0 -243 57 -243 179c0 87 60 140 147 173v2c-76 35 -127 85 -127 168c0 117 106 178 229 178c118 0 223 -61 223 -172c0 -80 -49 -122 -129 -159zM142 181c0 -55 36 -109 137 -109
c96 0 129 47 129 99c0 77 -83 104 -149 130c-60 -22 -117 -57 -117 -120zM272 608c-52 0 -113 -28 -113 -94c0 -63 62 -98 129 -116c57 20 103 54 103 110c0 71 -62 100 -119 100z" />
    <glyph glyph-name="nineoldstyle" horiz-adv-x="550" 
d="M401 123l-2 1c-36 -47 -91 -79 -152 -79c-130 0 -208 85 -208 235c0 144 96 230 228 230c182 0 244 -150 244 -310c0 -303 -133 -390 -290 -390c-65 0 -112 10 -162 27v139h91v-68c21 -5 38 -7 62 -7c120 0 189 111 189 222zM392 208c7 104 -11 211 -119 211
c-64 0 -118 -48 -118 -139c0 -61 22 -139 121 -139c48 0 87 29 116 67z" />
    <glyph glyph-name="centoldstyle" unicode="&#xf7a2;" horiz-adv-x="510" 
d="M325 -130h-60v100h60v-100zM325 530h-60v100h60v-100zM381 356v55c-25 4 -49 8 -81 8c-91 0 -135 -74 -135 -169c0 -104 51 -169 135 -169c40 0 70 1 153 26l19 -88c-59 -19 -107 -29 -172 -29c-181 0 -251 104 -251 260c0 152 67 260 251 260c65 0 120 -10 172 -23v-131
h-91z" />
    <glyph glyph-name="dollaroldstyle" unicode="&#xf724;" horiz-adv-x="510" 
d="M285 -130h-60v100h60v-100zM285 530h-60v100h60v-100zM439 356h-91v56c-45 9 -85 10 -107 10c-75 0 -88 -37 -88 -54c0 -28 17 -47 94 -64c100 -21 205 -48 205 -157c0 -105 -72 -157 -191 -157c-80 0 -162 8 -222 23v131h92v-56c47 -9 93 -10 117 -10c78 0 94 43 94 61
c0 30 -25 48 -100 62c-109 20 -199 55 -199 164c0 101 72 145 191 145c80 0 145 -8 205 -23v-131z" />
    <glyph glyph-name="zero.taboldstyle" 
d="M291 419c-78 0 -130 -61 -130 -169s52 -169 130 -169c77 0 130 61 130 169s-53 169 -130 169zM291 -10c-153 0 -247 97 -247 260c0 162 94 260 247 260c152 0 246 -98 246 -260c0 -163 -94 -260 -246 -260z" />
    <glyph glyph-name="one.taboldstyle" 
d="M346 91h176v-91h-463v91h177v307l-167 -7v78l225 36h52v-414z" />
    <glyph glyph-name="two.taboldstyle" 
d="M432 144h91v-144h-465v106c231 89 333 146 333 215c0 73 -67 88 -112 88c-35 0 -82 -6 -123 -23v-54h-92v134c50 21 133 44 227 44c153 0 216 -74 216 -159c0 -140 -134 -195 -293 -258v-2h218v53z" />
    <glyph glyph-name="three.taboldstyle" 
d="M49 -142v129h92v-65c39 -14 83 -21 131 -21c120 0 142 67 142 108c0 67 -50 105 -154 105h-90v92h85c106 0 142 59 142 113c0 42 -26 100 -125 100c-46 0 -83 -9 -120 -22v-65h-91v130c76 35 154 48 230 48c126 0 216 -63 216 -179c0 -79 -52 -132 -128 -158v-2
c98 -21 149 -89 149 -169c0 -123 -89 -192 -250 -192c-84 0 -153 11 -229 48z" />
    <glyph glyph-name="four.taboldstyle" 
d="M141 91h208v296h-2c-61 -110 -126 -206 -206 -296zM349 -89v89h-322v91c114 120 221 254 294 414h138v-414h95v-91h-95v-89h63v-91h-237v91h64z" />
    <glyph glyph-name="five.taboldstyle" 
d="M503 500v-157h-92v59h-233l-12 -197l2 -1c34 32 80 56 148 56c130 0 212 -77 212 -218c0 -152 -99 -232 -258 -232c-78 0 -142 14 -221 50v121h92v-59c45 -16 82 -21 123 -21c95 0 147 55 147 135c0 60 -30 130 -134 130c-58 0 -93 -20 -130 -57l-80 7l15 384h421z" />
    <glyph glyph-name="six.taboldstyle" 
d="M159 377l2 -1c38 47 94 79 158 79c133 0 214 -85 214 -235c0 -144 -98 -230 -234 -230c-187 0 -251 150 -251 310c0 302 137 390 298 390c67 0 115 -10 166 -27v-139h-92v68c-22 4 -39 7 -64 7c-127 0 -197 -111 -197 -222zM168 292c-7 -105 13 -211 124 -211
c67 0 124 48 124 139c0 61 -24 139 -126 139c-51 0 -92 -29 -122 -67z" />
    <glyph glyph-name="seven.taboldstyle" 
d="M53 500h479v-79c-100 -165 -208 -359 -248 -601h-123c31 184 143 422 251 580v2h-268v-58h-91v156z" />
    <glyph glyph-name="eight.taboldstyle" 
d="M389 359v-2c93 -41 154 -92 154 -176c0 -129 -110 -191 -256 -191c-140 0 -249 57 -249 179c0 87 63 140 153 173v2c-79 35 -132 85 -132 168c0 117 108 178 235 178c121 0 228 -61 228 -172c0 -80 -51 -122 -133 -159zM152 181c0 -55 37 -109 142 -109
c101 0 135 47 135 99c0 77 -86 104 -155 130c-62 -22 -122 -57 -122 -120zM287 608c-53 0 -118 -28 -118 -94c0 -63 65 -98 135 -116c59 20 108 54 108 110c0 71 -65 100 -125 100z" />
    <glyph glyph-name="nine.taboldstyle" 
d="M422 123l-2 1c-37 -47 -94 -79 -158 -79c-133 0 -214 85 -214 235c0 144 98 230 235 230c187 0 250 -150 250 -310c0 -303 -137 -390 -298 -390c-67 0 -115 10 -166 27v139h92v-68c22 -5 39 -7 64 -7c127 0 197 111 197 222zM413 208c7 104 -12 211 -124 211
c-67 0 -124 -48 -124 -139c0 -61 24 -139 127 -139c50 0 91 29 121 67z" />
    <glyph glyph-name="currency.taboldstyle" horiz-adv-x="513" 
d="M100 249c0 45 18 85 48 114l-78 90l8 8l79 -90c27 22 62 36 100 36c37 0 72 -14 99 -36l78 90l9 -8l-78 -89c31 -29 50 -70 50 -115s-19 -86 -49 -114l76 -86l-9 -9l-77 87c-27 -22 -62 -35 -99 -35c-38 0 -73 13 -100 35l-76 -87l-9 9l76 86c-30 29 -48 69 -48 114z
M112 249c0 -79 66 -145 145 -145s146 66 146 145s-67 146 -146 146s-145 -67 -145 -146z" />
    <glyph glyph-name="cent.taboldstyle" 
d="M355 -130h-60v100h60v-100zM355 530h-60v100h60v-100zM411 356v55c-25 4 -49 8 -81 8c-91 0 -135 -74 -135 -169c0 -104 51 -169 135 -169c40 0 70 1 153 26l19 -88c-59 -19 -107 -29 -172 -29c-181 0 -251 104 -251 260c0 152 67 260 251 260c65 0 120 -10 172 -23v-131
h-91z" />
    <glyph glyph-name="dollar.taboldstyle" 
d="M330 -130h-60v100h60v-100zM330 530h-60v100h60v-100zM484 356h-91v56c-45 9 -85 10 -107 10c-75 0 -88 -37 -88 -54c0 -28 17 -47 94 -64c100 -21 205 -48 205 -157c0 -105 -72 -157 -191 -157c-80 0 -162 8 -222 23v131h92v-56c47 -9 93 -10 117 -10c78 0 94 43 94 61
c0 30 -25 48 -100 62c-109 20 -199 55 -199 164c0 101 72 145 191 145c80 0 145 -8 205 -23v-131z" />
    <glyph glyph-name="Euro.taboldstyle" 
d="M221 222h125v-35h-118c13 -51 52 -106 127 -106c40 0 70 1 153 26l19 -88c-59 -19 -107 -29 -172 -29c-157 0 -230 78 -247 197h-54v35h50c-1 11 -2 38 0 55h-50v35h54c13 95 74 198 247 198c65 0 115 -11 172 -29v-125h-91v50c-22 6 -45 13 -81 13
c-82 0 -115 -66 -127 -107h118v-35h-125c-2 -16 -1 -44 0 -55z" />
    <glyph glyph-name="franc.taboldstyle" 
d="M221 222h125v-35h-118c13 -51 52 -106 127 -106c40 0 70 1 153 26l19 -88c-59 -19 -107 -29 -172 -29c-157 0 -230 78 -247 197h-54v35h50c-1 11 -2 38 0 55h-50v35h54c13 95 74 198 247 198c65 0 115 -11 172 -29v-125h-91v50c-22 6 -45 13 -81 13
c-82 0 -115 -66 -127 -107h118v-35h-125c-2 -16 -1 -44 0 -55z" />
    <glyph glyph-name="sterling.taboldstyle" 
d="M435 97v59h91v-156h-479v97h50v122h-50v66h50v57c0 119 96 168 224 168c93 0 164 -20 213 -35v-125h-92v49c-33 9 -76 20 -127 20c-70 0 -108 -32 -108 -80v-54h133v-66h-133v-122h228z" />
    <glyph glyph-name="yen.taboldstyle" horiz-adv-x="600" 
d="M354 91h65v-91h-240v91h65v84h-116v54h87l-126 180h-47v91h152l107 -215h2l109 215h146v-91h-56l-125 -180h87v-54h-110v-84z" />
    <glyph glyph-name="lira.taboldstyle" 
d="M221 222h125v-35h-118c13 -51 52 -106 127 -106c40 0 70 1 153 26l19 -88c-59 -19 -107 -29 -172 -29c-157 0 -230 78 -247 197h-54v35h50c-1 11 -2 38 0 55h-50v35h54c13 95 74 198 247 198c65 0 115 -11 172 -29v-125h-91v50c-22 6 -45 13 -81 13
c-82 0 -115 -66 -127 -107h118v-35h-125c-2 -16 -1 -44 0 -55z" />
    <glyph glyph-name="peseta.taboldstyle" 
d="M221 222h125v-35h-118c13 -51 52 -106 127 -106c40 0 70 1 153 26l19 -88c-59 -19 -107 -29 -172 -29c-157 0 -230 78 -247 197h-54v35h50c-1 11 -2 38 0 55h-50v35h54c13 95 74 198 247 198c65 0 115 -11 172 -29v-125h-91v50c-22 6 -45 13 -81 13
c-82 0 -115 -66 -127 -107h118v-35h-125c-2 -16 -1 -44 0 -55z" />
    <glyph glyph-name="colonmonetary.taboldstyle" 
d="M396 -130h-47v100h47v-100zM396 530h-47v100h47v-100zM411 356v55c-25 4 -49 8 -81 8c-91 0 -135 -74 -135 -169c0 -104 51 -169 135 -169c40 0 70 1 153 26l19 -88c-59 -19 -107 -29 -172 -29c-181 0 -251 104 -251 260c0 152 67 260 251 260c65 0 120 -10 172 -23v-131
h-91zM284 -130h-48v100h48v-100zM284 530h-48v100h48v-100z" />
    <glyph glyph-name="florin.taboldstyle" horiz-adv-x="600" 
d="M234 -37v258h-72v72l72 7v56c0 109 43 154 151 154c25 0 56 -3 84 -8l-10 -85c-20 3 -36 5 -49 5c-53 0 -66 -30 -66 -85v-37h120v-79h-120v-259c0 -110 -34 -172 -152 -172c-25 0 -56 3 -83 8l10 85c20 -3 35 -5 48 -5c53 0 67 30 67 85z" />
    <glyph glyph-name="numbersign.taboldstyle" horiz-adv-x="600" 
d="M185 500h78l-11 -109h125l11 109h79l-12 -109h100l-7 -72h-100l-15 -138h100l-7 -72h-100l-12 -109h-79l12 109h-125l-12 -109h-78l12 109h-100l7 72h100l15 138h-100l7 72h100zM244 319l-14 -138h125l14 138h-125z" />
    <glyph glyph-name="zerosuperior" unicode="&#x2070;" horiz-adv-x="283" 
d="M142 837c-51 0 -63 -56 -63 -124c0 -70 12 -130 63 -130c50 0 63 60 63 130c0 68 -13 124 -63 124zM142 535c-100 0 -125 81 -125 178c0 95 25 172 125 172c99 0 124 -77 124 -172c0 -97 -25 -178 -124 -178z" />
    <glyph glyph-name="foursuperior" unicode="&#x2074;" horiz-adv-x="293" 
d="M77 683h95v137h-1c-28 -53 -57 -93 -94 -137zM172 588v47h-155v48c55 60 106 120 142 200h72v-200h45v-48h-45v-47h30v-48h-119v48h30z" />
    <glyph glyph-name="fivesuperior" unicode="&#x2075;" horiz-adv-x="270" 
d="M241 880v-80h-48v29h-110l-5 -94l1 -1c16 15 38 26 70 26c64 0 104 -38 104 -109c0 -76 -49 -116 -127 -116c-37 0 -69 7 -109 25v62h49v-29c20 -8 38 -10 57 -10c44 0 68 27 68 65c0 29 -14 63 -62 63c-28 0 -44 -9 -61 -27l-42 4l7 192h208z" />
    <glyph glyph-name="sixsuperior" unicode="&#x2076;" horiz-adv-x="273" 
d="M75 730l1 -1c18 23 46 39 75 39c65 0 105 -43 105 -118c0 -72 -48 -115 -115 -115c-91 0 -124 75 -124 155c0 151 68 195 147 195c32 0 56 -5 81 -14v-71h-48v34c-9 2 -17 3 -29 3c-57 0 -92 -51 -93 -107zM80 685c-3 -50 5 -102 57 -102c31 0 58 23 58 67
c0 30 -12 67 -59 67c-23 0 -41 -14 -56 -32z" />
    <glyph glyph-name="sevensuperior" unicode="&#x2077;" horiz-adv-x="251" 
d="M17 880h217v-41c-48 -83 -99 -178 -119 -299h-64c15 91 67 209 119 288v1h-105v-29h-48v80z" />
    <glyph glyph-name="eightsuperior" unicode="&#x2078;" horiz-adv-x="283" 
d="M193 720v-1c44 -22 73 -46 73 -88c0 -65 -56 -96 -126 -96c-68 0 -123 28 -123 90c0 42 29 69 73 85v1c-38 18 -63 43 -63 84c0 60 55 90 116 90c59 0 113 -30 113 -87c0 -39 -24 -60 -63 -78zM77 631c0 -26 17 -53 67 -53c46 0 62 23 62 48c0 37 -41 50 -73 63
c-28 -11 -56 -28 -56 -58zM140 842c-25 0 -55 -15 -55 -45c0 -31 31 -48 63 -57c28 10 50 26 50 53c0 34 -29 49 -58 49z" />
    <glyph glyph-name="ninesuperior" unicode="&#x2079;" horiz-adv-x="273" 
d="M198 690l-1 1c-18 -23 -46 -38 -75 -38c-65 0 -105 42 -105 117c0 72 49 115 116 115c91 0 123 -75 123 -155c0 -151 -68 -195 -146 -195c-33 0 -57 5 -82 13v72h48v-34c9 -2 17 -3 29 -3c57 0 93 51 93 107zM193 735c3 50 -5 102 -57 102c-31 0 -57 -23 -57 -67
c0 -30 11 -67 58 -67c23 0 41 14 56 32z" />
    <glyph glyph-name="parenleftsuperior" unicode="&#x207d;" horiz-adv-x="161" 
d="M17 710c0 84 31 170 87 240h39c-48 -82 -68 -159 -68 -240c0 -80 20 -155 68 -240h-39c-56 70 -87 158 -87 240z" />
    <glyph glyph-name="parenrightsuperior" unicode="&#x207e;" horiz-adv-x="161" 
d="M143 710c0 -82 -30 -170 -87 -240h-39c49 85 68 160 68 240c0 81 -19 158 -68 240h39c57 -70 87 -156 87 -240z" />
    <glyph glyph-name="hyphensuperior" horiz-adv-x="238" 
d="M17 697h204v-49h-204v49z" />
    <glyph glyph-name="commasuperior" horiz-adv-x="94" 
d="M49 475h-18l11 65h-23v70h58v-70z" />
    <glyph glyph-name="periodsuperior" horiz-adv-x="93" 
d="M17 610h58v-70h-58v70z" />
    <glyph glyph-name="centsuperior" horiz-adv-x="305" 
d="M239 630h49v-77c-41 -12 -75 -17 -109 -18v-45h-25v46c-109 5 -137 82 -137 177c0 91 28 166 137 171v46h25v-45c34 -1 68 -7 109 -18v-77h-49v39c-29 6 -48 8 -68 8c-68 0 -89 -56 -89 -124c0 -75 21 -130 89 -130c20 0 39 1 68 8v39z" />
    <glyph glyph-name="dollarsuperior" horiz-adv-x="288" 
d="M17 633h49v-36c33 -8 58 -11 78 -11c44 0 62 21 62 45c0 35 -42 45 -81 56c-57 15 -103 47 -103 104c0 64 49 90 111 93v46h25v-46c33 -1 65 -6 105 -17v-80h-49v38c-31 7 -50 9 -70 9c-40 0 -57 -18 -57 -41c0 -31 38 -45 78 -55c57 -13 106 -41 106 -100
c0 -66 -48 -99 -113 -102v-46h-25v46c-35 1 -75 5 -116 17v80z" />
    <glyph glyph-name="zeroinferior" unicode="&#x2080;" horiz-adv-x="283" 
d="M142 97c-51 0 -63 -56 -63 -124c0 -70 12 -130 63 -130c50 0 63 60 63 130c0 68 -13 124 -63 124zM142 -205c-100 0 -125 81 -125 178c0 95 25 172 125 172c99 0 124 -77 124 -172c0 -97 -25 -178 -124 -178z" />
    <glyph glyph-name="oneinferior" unicode="&#x2081;" horiz-adv-x="207" 
d="M133 -152h56v-48h-171v48h57v238l-56 -3v41l86 19h28v-295z" />
    <glyph glyph-name="twoinferior" unicode="&#x2082;" horiz-adv-x="271" 
d="M206 -120h48v-80h-237v56c137 87 163 138 163 174c0 55 -43 62 -64 62c-17 0 -31 -2 -50 -10v-27h-49v65c40 17 69 25 112 25c76 0 112 -46 112 -102c0 -70 -51 -128 -141 -191v-1h106v29z" />
    <glyph glyph-name="threeinferior" unicode="&#x2083;" horiz-adv-x="270" 
d="M17 -181v66h49v-32c18 -7 39 -10 61 -10c54 0 66 32 66 52c0 32 -23 51 -72 51h-44v48h41c51 0 67 29 67 55c0 21 -14 48 -58 48c-21 0 -39 -4 -56 -10v-32h-49v66c39 18 78 24 115 24c61 0 106 -31 106 -90c0 -39 -25 -65 -62 -78v-1c47 -11 72 -45 72 -85
c0 -61 -45 -96 -123 -96c-41 0 -74 6 -113 24z" />
    <glyph glyph-name="fourinferior" unicode="&#x2084;" horiz-adv-x="293" 
d="M77 -57h95v137h-1c-28 -53 -57 -93 -94 -137zM172 -152v47h-155v48c55 60 106 120 142 200h72v-200h45v-48h-45v-47h30v-48h-119v48h30z" />
    <glyph glyph-name="fiveinferior" unicode="&#x2085;" horiz-adv-x="270" 
d="M241 140v-80h-48v29h-110l-5 -94l1 -1c16 15 38 26 70 26c64 0 104 -38 104 -109c0 -76 -49 -116 -127 -116c-37 0 -69 7 -109 25v62h49v-29c20 -8 38 -10 57 -10c44 0 68 27 68 65c0 29 -14 63 -62 63c-28 0 -44 -9 -61 -27l-42 4l7 192h208z" />
    <glyph glyph-name="sixinferior" unicode="&#x2086;" horiz-adv-x="273" 
d="M75 -10l1 -1c18 23 46 39 75 39c65 0 105 -43 105 -118c0 -72 -48 -115 -115 -115c-91 0 -124 75 -124 155c0 151 68 195 147 195c32 0 56 -5 81 -14v-71h-48v34c-9 2 -17 3 -29 3c-57 0 -92 -51 -93 -107zM80 -55c-3 -50 5 -102 57 -102c31 0 58 23 58 67
c0 30 -12 67 -59 67c-23 0 -41 -14 -56 -32z" />
    <glyph glyph-name="seveninferior" unicode="&#x2087;" horiz-adv-x="251" 
d="M17 140h217v-41c-48 -83 -99 -178 -119 -299h-64c15 91 67 209 119 288v1h-105v-29h-48v80z" />
    <glyph glyph-name="eightinferior" unicode="&#x2088;" horiz-adv-x="283" 
d="M193 -20v-1c44 -22 73 -46 73 -88c0 -65 -56 -96 -126 -96c-68 0 -123 28 -123 90c0 42 29 69 73 85v1c-38 18 -63 43 -63 84c0 60 55 90 116 90c59 0 113 -30 113 -87c0 -39 -24 -60 -63 -78zM77 -109c0 -26 17 -53 67 -53c46 0 62 23 62 48c0 37 -41 50 -73 63
c-28 -11 -56 -28 -56 -58zM140 102c-25 0 -55 -15 -55 -45c0 -31 31 -48 63 -57c28 10 50 26 50 53c0 34 -29 49 -58 49z" />
    <glyph glyph-name="nineinferior" unicode="&#x2089;" horiz-adv-x="273" 
d="M198 -50l-1 1c-18 -23 -46 -38 -75 -38c-65 0 -105 42 -105 117c0 72 49 115 116 115c91 0 123 -75 123 -155c0 -151 -68 -195 -146 -195c-33 0 -57 5 -82 13v72h48v-34c9 -2 17 -3 29 -3c57 0 93 51 93 107zM193 -5c3 50 -5 102 -57 102c-31 0 -57 -23 -57 -67
c0 -30 11 -67 58 -67c23 0 41 14 56 32z" />
    <glyph glyph-name="parenleftinferior" unicode="&#x208d;" horiz-adv-x="161" 
d="M17 -30c0 84 31 170 87 240h39c-48 -82 -68 -159 -68 -240c0 -80 20 -155 68 -240h-39c-56 70 -87 158 -87 240z" />
    <glyph glyph-name="parenrightinferior" unicode="&#x208e;" horiz-adv-x="161" 
d="M143 -30c0 -82 -30 -170 -87 -240h-39c49 85 68 160 68 240c0 81 -19 158 -68 240h39c57 -70 87 -156 87 -240z" />
    <glyph glyph-name="hypheninferior" horiz-adv-x="238" 
d="M17 -43h204v-49h-204v49z" />
    <glyph glyph-name="commainferior" horiz-adv-x="94" 
d="M49 -265h-18l11 65h-23v70h58v-70z" />
    <glyph glyph-name="periodinferior" horiz-adv-x="93" 
d="M17 -130h58v-70h-58v70z" />
    <glyph glyph-name="centinferior" horiz-adv-x="305" 
d="M239 -110h49v-77c-41 -12 -75 -17 -109 -18v-45h-25v46c-109 5 -137 82 -137 177c0 91 28 166 137 171v46h25v-45c34 -1 68 -7 109 -18v-77h-49v39c-29 6 -48 8 -68 8c-68 0 -89 -56 -89 -124c0 -75 21 -130 89 -130c20 0 39 1 68 8v39z" />
    <glyph glyph-name="dollarinferior" horiz-adv-x="288" 
d="M17 -107h49v-36c33 -8 58 -11 78 -11c44 0 62 21 62 45c0 35 -42 45 -81 56c-57 15 -103 47 -103 104c0 64 49 90 111 93v46h25v-46c33 -1 65 -6 105 -17v-80h-49v38c-31 7 -50 9 -70 9c-40 0 -57 -18 -57 -41c0 -31 38 -45 78 -55c57 -13 106 -41 106 -100
c0 -66 -48 -99 -113 -102v-46h-25v46c-35 1 -75 5 -116 17v80z" />
    <glyph glyph-name="zero.denominator" horiz-adv-x="283" 
d="M142 297c-51 0 -63 -56 -63 -124c0 -70 12 -130 63 -130c50 0 63 60 63 130c0 68 -13 124 -63 124zM142 -5c-100 0 -125 81 -125 178c0 95 25 172 125 172c99 0 124 -77 124 -172c0 -97 -25 -178 -124 -178z" />
    <glyph glyph-name="one.denominator" horiz-adv-x="207" 
d="M133 48h56v-48h-171v48h57v238l-56 -3v41l86 19h28v-295z" />
    <glyph glyph-name="two.denominator" horiz-adv-x="271" 
d="M206 80h48v-80h-237v56c137 87 163 138 163 174c0 55 -43 62 -64 62c-17 0 -31 -2 -50 -10v-27h-49v65c40 17 69 25 112 25c76 0 112 -46 112 -102c0 -70 -51 -128 -141 -191v-1h106v29z" />
    <glyph glyph-name="three.denominator" horiz-adv-x="270" 
d="M17 19v66h49v-32c18 -7 39 -10 61 -10c54 0 66 32 66 52c0 32 -23 51 -72 51h-44v48h41c51 0 67 29 67 55c0 21 -14 48 -58 48c-21 0 -39 -4 -56 -10v-32h-49v66c39 18 78 24 115 24c61 0 106 -31 106 -90c0 -39 -25 -65 -62 -78v-1c47 -11 72 -45 72 -85
c0 -61 -45 -96 -123 -96c-41 0 -74 6 -113 24z" />
    <glyph glyph-name="four.denominator" horiz-adv-x="293" 
d="M77 143h95v137h-1c-28 -53 -57 -93 -94 -137zM172 48v47h-155v48c55 60 106 120 142 200h72v-200h45v-48h-45v-47h30v-48h-119v48h30z" />
    <glyph glyph-name="five.denominator" horiz-adv-x="270" 
d="M241 340v-80h-48v29h-110l-5 -94l1 -1c16 15 38 26 70 26c64 0 104 -38 104 -109c0 -76 -49 -116 -127 -116c-37 0 -69 7 -109 25v62h49v-29c20 -8 38 -10 57 -10c44 0 68 27 68 65c0 29 -14 63 -62 63c-28 0 -44 -9 -61 -27l-42 4l7 192h208z" />
    <glyph glyph-name="six.denominator" horiz-adv-x="273" 
d="M75 190l1 -1c18 23 46 39 75 39c65 0 105 -43 105 -118c0 -72 -48 -115 -115 -115c-91 0 -124 75 -124 155c0 151 68 195 147 195c32 0 56 -5 81 -14v-71h-48v34c-9 2 -17 3 -29 3c-57 0 -92 -51 -93 -107zM80 145c-3 -50 5 -102 57 -102c31 0 58 23 58 67
c0 30 -12 67 -59 67c-23 0 -41 -14 -56 -32z" />
    <glyph glyph-name="seven.denominator" horiz-adv-x="251" 
d="M17 340h217v-41c-48 -83 -99 -178 -119 -299h-64c15 91 67 209 119 288v1h-105v-29h-48v80z" />
    <glyph glyph-name="eight.denominator" horiz-adv-x="283" 
d="M193 180v-1c44 -22 73 -46 73 -88c0 -65 -56 -96 -126 -96c-68 0 -123 28 -123 90c0 42 29 69 73 85v1c-38 18 -63 43 -63 84c0 60 55 90 116 90c59 0 113 -30 113 -87c0 -39 -24 -60 -63 -78zM77 91c0 -26 17 -53 67 -53c46 0 62 23 62 48c0 37 -41 50 -73 63
c-28 -11 -56 -28 -56 -58zM140 302c-25 0 -55 -15 -55 -45c0 -31 31 -48 63 -57c28 10 50 26 50 53c0 34 -29 49 -58 49z" />
    <glyph glyph-name="nine.denominator" horiz-adv-x="273" 
d="M198 150l-1 1c-18 -23 -46 -38 -75 -38c-65 0 -105 42 -105 117c0 72 49 115 116 115c91 0 123 -75 123 -155c0 -151 -68 -195 -146 -195c-33 0 -57 5 -82 13v72h48v-34c9 -2 17 -3 29 -3c57 0 93 51 93 107zM193 195c3 50 -5 102 -57 102c-31 0 -57 -23 -57 -67
c0 -30 11 -67 58 -67c23 0 41 14 56 32z" />
    <glyph glyph-name="parenleft.denominator" horiz-adv-x="161" 
d="M17 170c0 84 31 170 87 240h39c-48 -82 -68 -159 -68 -240c0 -80 20 -155 68 -240h-39c-56 70 -87 158 -87 240z" />
    <glyph glyph-name="parenright.denominator" horiz-adv-x="161" 
d="M143 170c0 -82 -30 -170 -87 -240h-39c49 85 68 160 68 240c0 81 -19 158 -68 240h39c57 -70 87 -156 87 -240z" />
    <glyph glyph-name="cent.denominator" horiz-adv-x="305" 
d="M239 90h49v-77c-41 -12 -75 -17 -109 -18v-45h-25v46c-109 5 -137 82 -137 177c0 91 28 166 137 171v46h25v-45c34 -1 68 -7 109 -18v-77h-49v39c-29 6 -48 8 -68 8c-68 0 -89 -56 -89 -124c0 -75 21 -130 89 -130c20 0 39 1 68 8v39z" />
    <glyph glyph-name="dollar.denominator" horiz-adv-x="288" 
d="M17 93h49v-36c33 -8 58 -11 78 -11c44 0 62 21 62 45c0 35 -42 45 -81 56c-57 15 -103 47 -103 104c0 64 49 90 111 93v46h25v-46c33 -1 65 -6 105 -17v-80h-49v38c-31 7 -50 9 -70 9c-40 0 -57 -18 -57 -41c0 -31 38 -45 78 -55c57 -13 106 -41 106 -100
c0 -66 -48 -99 -113 -102v-46h-25v46c-35 1 -75 5 -116 17v80z" />
    <glyph glyph-name="hyphen.denominator" horiz-adv-x="238" 
d="M17 157h204v-49h-204v49z" />
    <glyph glyph-name="comma.denominator" horiz-adv-x="94" 
d="M49 -65h-18l11 65h-23v70h58v-70z" />
    <glyph glyph-name="period.denominator" horiz-adv-x="93" 
d="M17 70h58v-70h-58v70z" />
    <glyph glyph-name="zero.numerator" horiz-adv-x="283" 
d="M142 637c-51 0 -63 -56 -63 -124c0 -70 12 -130 63 -130c50 0 63 60 63 130c0 68 -13 124 -63 124zM142 335c-100 0 -125 81 -125 178c0 95 25 172 125 172c99 0 124 -77 124 -172c0 -97 -25 -178 -124 -178z" />
    <glyph glyph-name="one.numerator" horiz-adv-x="207" 
d="M133 388h56v-48h-171v48h57v238l-56 -3v41l86 19h28v-295z" />
    <glyph glyph-name="two.numerator" horiz-adv-x="271" 
d="M206 420h48v-80h-237v56c137 87 163 138 163 174c0 55 -43 62 -64 62c-17 0 -31 -2 -50 -10v-27h-49v65c40 17 69 25 112 25c76 0 112 -46 112 -102c0 -70 -51 -128 -141 -191v-1h106v29z" />
    <glyph glyph-name="three.numerator" horiz-adv-x="270" 
d="M17 359v66h49v-32c18 -7 39 -10 61 -10c54 0 66 32 66 52c0 32 -23 51 -72 51h-44v48h41c51 0 67 29 67 55c0 21 -14 48 -58 48c-21 0 -39 -4 -56 -10v-32h-49v66c39 18 78 24 115 24c61 0 106 -31 106 -90c0 -39 -25 -65 -62 -78v-1c47 -11 72 -45 72 -85
c0 -61 -45 -96 -123 -96c-41 0 -74 6 -113 24z" />
    <glyph glyph-name="four.numerator" horiz-adv-x="293" 
d="M77 483h95v137h-1c-28 -53 -57 -93 -94 -137zM172 388v47h-155v48c55 60 106 120 142 200h72v-200h45v-48h-45v-47h30v-48h-119v48h30z" />
    <glyph glyph-name="five.numerator" horiz-adv-x="270" 
d="M241 680v-80h-48v29h-110l-5 -94l1 -1c16 15 38 26 70 26c64 0 104 -38 104 -109c0 -76 -49 -116 -127 -116c-37 0 -69 7 -109 25v62h49v-29c20 -8 38 -10 57 -10c44 0 68 27 68 65c0 29 -14 63 -62 63c-28 0 -44 -9 -61 -27l-42 4l7 192h208z" />
    <glyph glyph-name="six.numerator" horiz-adv-x="273" 
d="M75 530l1 -1c18 23 46 39 75 39c65 0 105 -43 105 -118c0 -72 -48 -115 -115 -115c-91 0 -124 75 -124 155c0 151 68 195 147 195c32 0 56 -5 81 -14v-71h-48v34c-9 2 -17 3 -29 3c-57 0 -92 -51 -93 -107zM80 485c-3 -50 5 -102 57 -102c31 0 58 23 58 67
c0 30 -12 67 -59 67c-23 0 -41 -14 -56 -32z" />
    <glyph glyph-name="seven.numerator" horiz-adv-x="251" 
d="M17 680h217v-41c-48 -83 -99 -178 -119 -299h-64c15 91 67 209 119 288v1h-105v-29h-48v80z" />
    <glyph glyph-name="eight.numerator" horiz-adv-x="283" 
d="M193 520v-1c44 -22 73 -46 73 -88c0 -65 -56 -96 -126 -96c-68 0 -123 28 -123 90c0 42 29 69 73 85v1c-38 18 -63 43 -63 84c0 60 55 90 116 90c59 0 113 -30 113 -87c0 -39 -24 -60 -63 -78zM77 431c0 -26 17 -53 67 -53c46 0 62 23 62 48c0 37 -41 50 -73 63
c-28 -11 -56 -28 -56 -58zM140 642c-25 0 -55 -15 -55 -45c0 -31 31 -48 63 -57c28 10 50 26 50 53c0 34 -29 49 -58 49z" />
    <glyph glyph-name="nine.numerator" horiz-adv-x="273" 
d="M198 490l-1 1c-18 -23 -46 -38 -75 -38c-65 0 -105 42 -105 117c0 72 49 115 116 115c91 0 123 -75 123 -155c0 -151 -68 -195 -146 -195c-33 0 -57 5 -82 13v72h48v-34c9 -2 17 -3 29 -3c57 0 93 51 93 107zM193 535c3 50 -5 102 -57 102c-31 0 -57 -23 -57 -67
c0 -30 11 -67 58 -67c23 0 41 14 56 32z" />
    <glyph glyph-name="parenleft.numerator" horiz-adv-x="161" 
d="M17 510c0 84 31 170 87 240h39c-48 -82 -68 -159 -68 -240c0 -80 20 -155 68 -240h-39c-56 70 -87 158 -87 240z" />
    <glyph glyph-name="parenright.numerator" horiz-adv-x="161" 
d="M143 510c0 -82 -30 -170 -87 -240h-39c49 85 68 160 68 240c0 81 -19 158 -68 240h39c57 -70 87 -156 87 -240z" />
    <glyph glyph-name="cent.numerator" horiz-adv-x="305" 
d="M239 430h49v-77c-41 -12 -75 -17 -109 -18v-45h-25v46c-109 5 -137 82 -137 177c0 91 28 166 137 171v46h25v-45c34 -1 68 -7 109 -18v-77h-49v39c-29 6 -48 8 -68 8c-68 0 -89 -56 -89 -124c0 -75 21 -130 89 -130c20 0 39 1 68 8v39z" />
    <glyph glyph-name="dollar.numerator" horiz-adv-x="288" 
d="M17 433h49v-36c33 -8 58 -11 78 -11c44 0 62 21 62 45c0 35 -42 45 -81 56c-57 15 -103 47 -103 104c0 64 49 90 111 93v46h25v-46c33 -1 65 -6 105 -17v-80h-49v38c-31 7 -50 9 -70 9c-40 0 -57 -18 -57 -41c0 -31 38 -45 78 -55c57 -13 106 -41 106 -100
c0 -66 -48 -99 -113 -102v-46h-25v46c-35 1 -75 5 -116 17v80z" />
    <glyph glyph-name="hyphen.numerator" horiz-adv-x="238" 
d="M17 497h204v-49h-204v49z" />
    <glyph glyph-name="comma.numerator" horiz-adv-x="94" 
d="M49 275h-18l11 65h-23v70h58v-70z" />
    <glyph glyph-name="period.numerator" horiz-adv-x="93" 
d="M17 410h58v-70h-58v70z" />
    <glyph glyph-name="onethird" unicode="&#x2153;" horiz-adv-x="800" 
d="M589 680l-370 -680h-35l370 680h35zM183 388h56v-48h-171v48h57v238l-56 -3v41l86 19h28v-295zM497 19v66h49v-32c18 -7 39 -10 61 -10c54 0 66 32 66 52c0 32 -24 51 -72 51h-44v48h41c51 0 67 29 67 55c0 21 -14 48 -58 48c-21 0 -39 -4 -56 -10v-32h-49v66
c39 18 78 24 115 24c60 0 105 -31 105 -90c0 -39 -24 -65 -61 -78v-1c47 -11 71 -45 71 -85c0 -61 -44 -96 -122 -96c-42 0 -75 6 -113 24z" />
    <glyph glyph-name="oneeighth" unicode="&#x215b;" horiz-adv-x="800" 
d="M589 680l-370 -680h-35l370 680h35zM183 388h56v-48h-171v48h57v238l-56 -3v41l86 19h28v-295zM660 180v-1c44 -22 72 -46 72 -88c0 -65 -55 -96 -125 -96c-68 0 -123 28 -123 90c0 42 29 69 72 85v1c-37 18 -62 43 -62 84c0 60 54 90 116 90c58 0 112 -30 112 -87
c0 -39 -23 -60 -62 -78zM544 91c0 -26 17 -53 67 -53c46 0 62 23 62 48c0 37 -41 50 -73 63c-29 -11 -56 -28 -56 -58zM607 302c-26 0 -55 -15 -55 -45c0 -31 31 -48 63 -57c27 10 49 26 49 53c0 34 -29 49 -57 49z" />
    <glyph glyph-name="twothirds" unicode="&#x2154;" horiz-adv-x="800" 
d="M609 680l-370 -680h-35l370 680h35zM497 19v66h49v-32c18 -7 39 -10 61 -10c54 0 66 32 66 52c0 32 -24 51 -72 51h-44v48h41c51 0 67 29 67 55c0 21 -14 48 -58 48c-21 0 -39 -4 -56 -10v-32h-49v66c39 18 78 24 115 24c60 0 105 -31 105 -90c0 -39 -24 -65 -61 -78v-1
c47 -11 71 -45 71 -85c0 -61 -44 -96 -122 -96c-42 0 -75 6 -113 24zM256 420h48v-80h-237v56c137 87 163 138 163 174c0 55 -43 62 -64 62c-17 0 -31 -2 -50 -10v-27h-49v65c40 17 69 25 112 25c76 0 112 -46 112 -102c0 -70 -51 -128 -141 -191v-1h106v29z" />
    <glyph glyph-name="threeeighths" unicode="&#x215c;" horiz-adv-x="800" 
d="M599 680l-370 -680h-35l370 680h35zM660 180v-1c44 -22 72 -46 72 -88c0 -65 -55 -96 -125 -96c-68 0 -123 28 -123 90c0 42 29 69 72 85v1c-37 18 -62 43 -62 84c0 60 54 90 116 90c58 0 112 -30 112 -87c0 -39 -23 -60 -62 -78zM544 91c0 -26 17 -53 67 -53
c46 0 62 23 62 48c0 37 -41 50 -73 63c-29 -11 -56 -28 -56 -58zM607 302c-26 0 -55 -15 -55 -45c0 -31 31 -48 63 -57c27 10 49 26 49 53c0 34 -29 49 -57 49zM67 359v66h49v-32c18 -7 39 -10 61 -10c54 0 66 32 66 52c0 32 -23 51 -72 51h-44v48h41c51 0 67 29 67 55
c0 21 -14 48 -58 48c-21 0 -39 -4 -56 -10v-32h-49v66c39 18 78 24 115 24c61 0 106 -31 106 -90c0 -39 -25 -65 -62 -78v-1c47 -11 72 -45 72 -85c0 -61 -45 -96 -123 -96c-41 0 -74 6 -113 24z" />
    <glyph glyph-name="fiveeighths" unicode="&#x215d;" horiz-adv-x="800" 
d="M599 680l-370 -680h-35l370 680h35zM660 180v-1c44 -22 72 -46 72 -88c0 -65 -55 -96 -125 -96c-68 0 -123 28 -123 90c0 42 29 69 72 85v1c-37 18 -62 43 -62 84c0 60 54 90 116 90c58 0 112 -30 112 -87c0 -39 -23 -60 -62 -78zM544 91c0 -26 17 -53 67 -53
c46 0 62 23 62 48c0 37 -41 50 -73 63c-29 -11 -56 -28 -56 -58zM607 302c-26 0 -55 -15 -55 -45c0 -31 31 -48 63 -57c27 10 49 26 49 53c0 34 -29 49 -57 49zM291 680v-80h-48v29h-110l-5 -94l1 -1c16 15 38 26 70 26c64 0 104 -38 104 -109c0 -76 -49 -116 -127 -116
c-37 0 -69 7 -109 25v62h49v-29c20 -8 38 -10 57 -10c44 0 68 27 68 65c0 29 -14 63 -62 63c-28 0 -44 -9 -61 -27l-42 4l7 192h208z" />
    <glyph glyph-name="seveneighths" unicode="&#x215e;" horiz-adv-x="800" 
d="M556 680l-370 -680h-35l370 680h35zM660 180v-1c44 -22 72 -46 72 -88c0 -65 -55 -96 -125 -96c-68 0 -123 28 -123 90c0 42 29 69 72 85v1c-37 18 -62 43 -62 84c0 60 54 90 116 90c58 0 112 -30 112 -87c0 -39 -23 -60 -62 -78zM544 91c0 -26 17 -53 67 -53
c46 0 62 23 62 48c0 37 -41 50 -73 63c-29 -11 -56 -28 -56 -58zM607 302c-26 0 -55 -15 -55 -45c0 -31 31 -48 63 -57c27 10 49 26 49 53c0 34 -29 49 -57 49zM67 680h217v-41c-48 -83 -99 -178 -119 -299h-64c15 91 67 209 119 288v1h-105v-29h-48v80z" />
    <glyph glyph-name="exclamsmall" unicode="&#xf721;" horiz-adv-x="207" 
d="M49 137h110v-137h-110v137zM49 600h110l-7 -380h-97z" />
    <glyph glyph-name="exclamdownsmall" unicode="&#xf7a1;" horiz-adv-x="207" 
d="M159 462h-110v138h110v-138zM159 0h-110l6 380h97z" />
    <glyph glyph-name="exclamdbl" unicode="&#x203c;" horiz-adv-x="407" 
d="M49 137h110v-137h-110v137zM49 700h110l-7 -480h-97zM249 137h110v-137h-110v137zM249 700h110l-7 -480h-97z" />
    <glyph glyph-name="ampersandsmall" unicode="&#xf726;" horiz-adv-x="905" 
d="M609 144v85h-441c8 -89 58 -148 151 -148c50 0 95 12 150 32l13 -85c-60 -26 -111 -38 -178 -38c-156 0 -255 104 -255 260s97 260 251 260c160 0 203 -114 204 -212h105l13 202h97v-202h132v-69h-132v-66c0 -55 20 -85 78 -85c14 0 29 2 49 5l10 -85
c-27 -5 -71 -8 -96 -8c-108 0 -151 45 -151 154zM294 425c-72 0 -120 -53 -126 -127h224c12 63 -14 127 -98 127z" />
    <glyph glyph-name="fraction" unicode="&#x2044;" horiz-adv-x="540" 
d="M504 680l-370 -680h-98l370 680h98z" />
    <glyph glyph-name="uni2215" unicode="&#x2215;" horiz-adv-x="540" 
d="M504 680l-370 -680h-98l370 680h98z" />
    <glyph glyph-name="uni2219" unicode="&#x2219;" horiz-adv-x="207" 
d="M49 319h110v-138h-110v138z" />
    <glyph glyph-name="at.cap" horiz-adv-x="810" 
d="M562 412v-197c123 0 159 111 159 188c0 162 -133 266 -296 266c-196 0 -335 -136 -335 -336c0 -179 129 -312 306 -312l-7 -61c-216 0 -369 160 -369 373c0 233 171 399 404 399c202 0 366 -132 366 -326c0 -142 -83 -260 -244 -260h-71v39h-1c-34 -33 -69 -46 -119 -46
c-77 0 -122 49 -122 116c0 92 79 121 164 121h78v26c0 48 -20 68 -81 68c-6 0 -13 -1 -20 -2c-10 -28 -71 -20 -115 -26l-1 78c51 14 109 21 155 21c95 0 149 -24 149 -129zM475 233v92h-65c-61 0 -90 -18 -90 -63c0 -37 28 -57 70 -57c37 0 69 16 85 28z" />
    <glyph glyph-name="parenleft.cap" horiz-adv-x="330" 
d="M54 340c0 167 61 340 174 480h73c-97 -164 -137 -318 -137 -480c0 -160 40 -310 137 -480h-73c-113 140 -174 316 -174 480z" />
    <glyph glyph-name="parenright.cap" horiz-adv-x="330" 
d="M276 340c0 -164 -61 -340 -174 -480h-73c97 170 137 320 137 480c0 162 -40 316 -137 480h73c113 -140 174 -313 174 -480z" />
    <glyph glyph-name="bracketleft.cap" horiz-adv-x="300" 
d="M165 -74h106v-66h-222v960h222v-66h-106v-828z" />
    <glyph glyph-name="bracketright.cap" horiz-adv-x="300" 
d="M29 -74h106v828h-106v66h222v-960h-222v66z" />
    <glyph glyph-name="braceleft.cap" horiz-adv-x="340" 
d="M225 12c0 -104 41 -105 86 -105v-47c-113 0 -202 12 -202 146c0 61 10 130 10 189c0 64 0 106 -70 116v58c70 10 70 52 70 116c0 59 -10 128 -10 189c0 133 89 146 202 146v-48c-45 0 -86 0 -86 -105c0 -61 12 -146 12 -208c0 -79 -39 -104 -95 -118v-2
c56 -14 95 -39 95 -118c0 -62 -12 -148 -12 -209z" />
    <glyph glyph-name="braceright.cap" horiz-adv-x="340" 
d="M115 667c0 105 -41 105 -86 105v48c112 0 202 -13 202 -146c0 -61 -10 -130 -10 -189c0 -64 0 -106 70 -116v-58c-70 -10 -70 -52 -70 -116c0 -59 10 -128 10 -189c0 -134 -90 -146 -202 -146v47c45 0 86 1 86 105c0 61 -13 147 -13 209c0 79 40 104 96 118v2
c-56 14 -96 39 -96 118c0 62 13 147 13 208z" />
    <glyph glyph-name="exclamdown.cap" horiz-adv-x="207" 
d="M159 542h-110v138h110v-138zM159 0h-110l6 470h97z" />
    <glyph glyph-name="questiondown.cap" horiz-adv-x="480" 
d="M441 186v-157c-59 -24 -132 -39 -204 -39c-153 0 -198 94 -198 179c0 171 178 174 178 271v30h98v-30c0 -153 -163 -149 -163 -261c0 -69 58 -85 107 -85c38 0 72 11 91 16v76h91zM321 680v-138h-110v138h110z" />
    <glyph glyph-name="guillemotleft.cap" horiz-adv-x="730" 
d="M49 343l282 182v-116l-166 -99l166 -99v-116l-282 182v66zM399 343l282 182v-116l-166 -99l166 -99v-116l-282 182v66z" />
    <glyph glyph-name="guillemotright.cap" horiz-adv-x="730" 
d="M49 525l282 -182v-66l-282 -182v116l166 99l-166 99v116zM399 525l282 -182v-66l-282 -182v116l166 99l-166 99v116z" />
    <glyph glyph-name="guilsinglleft.cap" horiz-adv-x="380" 
d="M49 343l282 182v-116l-166 -99l166 -99v-116l-282 182v66z" />
    <glyph glyph-name="guilsinglright.cap" horiz-adv-x="380" 
d="M49 525l282 -182v-66l-282 -182v116l166 99l-166 99v116z" />
    <glyph glyph-name="hyphen.cap" horiz-adv-x="500" 
d="M49 371h402v-92h-402v92z" />
    <glyph glyph-name="endash.cap" horiz-adv-x="600" 
d="M49 371h502v-92h-502v92z" />
    <glyph glyph-name="emdash.cap" horiz-adv-x="700" 
d="M49 371h602v-92h-602v92z" />
    <glyph glyph-name="periodcentered.cap" horiz-adv-x="207" 
d="M49 319h110v-138h-110v138z" />
    <glyph glyph-name="lessequal" unicode="&#x2264;" horiz-adv-x="480" 
d="M49 333l382 162v-79l-266 -110l266 -110v-79l-382 162v54zM49 85h382v-66h-382v66z" />
    <glyph glyph-name="approxequal" unicode="&#x2248;" horiz-adv-x="500" 
d="M170 351c-20 0 -37 -5 -76 -45l-35 28c37 68 73 93 108 93c49 0 148 -48 182 -48c18 0 37 0 65 37l28 -33c-23 -47 -48 -72 -80 -76c-6 -1 -14 -1 -21 0c-41 6 -135 44 -171 44zM170 151c-20 0 -37 -5 -76 -45l-35 28c37 68 73 93 108 93c49 0 148 -48 182 -48
c18 0 37 0 65 37l28 -33c-23 -47 -48 -72 -80 -76c-6 -1 -14 -1 -21 0c-41 6 -135 44 -171 44z" />
    <glyph glyph-name="notequal" unicode="&#x2260;" horiz-adv-x="500" 
d="M49 211h147l60 108h-207v92h256l106 194h48l-106 -194h98v-92h-148l-59 -108h207v-92h-257l-105 -194h-48l106 194h-98v92z" />
    <glyph glyph-name="estimated" unicode="&#x212e;" horiz-adv-x="736" 
d="M706 349h-528v-235c54 -52 118 -78 190 -78c108 0 193 53 252 157l46 -26c-43 -61 -87 -106 -130 -134c-45 -29 -100 -43 -168 -43c-101 0 -183 34 -244 103c-63 67 -94 152 -94 256c0 106 31 191 94 259s144 102 244 102c91 0 169 -31 234 -91c64 -61 100 -150 104 -270
zM178 397h380v189c-54 51 -118 77 -191 77c-75 0 -137 -26 -189 -77v-189z" />
    <glyph glyph-name="partialdiff" unicode="&#x2202;" horiz-adv-x="573" 
d="M423 376l3 1c15 111 -38 222 -159 222c-42 0 -82 -6 -142 -27l-1 85c59 23 101 33 166 33c157 0 277 -88 235 -390c-22 -160 -106 -310 -288 -310c-132 0 -216 86 -195 230c21 150 111 235 241 235c61 0 111 -32 140 -79zM405 292c-24 38 -59 67 -107 67
c-98 0 -132 -78 -140 -139c-13 -91 35 -139 98 -139c108 0 141 106 149 211z" />
    <glyph glyph-name="greaterequal" unicode="&#x2265;" horiz-adv-x="480" 
d="M49 495l382 -162v-54l-382 -162v79l266 110l-266 110v79zM49 85h382v-66h-382v66z" />
    <glyph glyph-name="questionsmall" unicode="&#xf73f;" horiz-adv-x="480" 
d="M130 495v-48h-91v112c51 25 133 51 204 51c154 0 198 -77 198 -149c0 -168 -179 -129 -179 -227v-24h-97v30c0 153 163 105 163 206c0 44 -44 66 -109 66c-40 0 -81 -15 -89 -17zM159 0v137h110v-137h-110z" />
    <glyph glyph-name="questiondownsmall" unicode="&#xf7bf;" horiz-adv-x="480" 
d="M350 105v48h91v-112c-51 -25 -133 -51 -204 -51c-154 0 -198 77 -198 149c0 168 178 129 178 227v24h98v-30c0 -154 -163 -105 -163 -206c0 -44 44 -67 109 -67c40 0 81 16 89 18zM321 600v-138h-110v138h110z" />
    <glyph glyph-name="percent.oldstyle" horiz-adv-x="760" 
d="M601 580l-370 -580h-72l370 580h72zM181 292c-91 0 -140 55 -140 144c0 88 49 143 140 143s139 -55 139 -143c0 -89 -48 -144 -139 -144zM181 348c46 0 71 31 71 88s-25 88 -71 88c-47 0 -71 -31 -71 -88s24 -88 71 -88zM579 1c-91 0 -139 55 -139 143
c0 89 48 143 139 143s140 -54 140 -143c0 -88 -49 -143 -140 -143zM579 56c46 0 71 31 71 88s-25 88 -71 88s-71 -31 -71 -88s25 -88 71 -88z" />
    <glyph glyph-name="perthousand.oldstyle" horiz-adv-x="1110" 
d="M601 580l-370 -580h-72l370 580h72zM181 292c-91 0 -140 55 -140 144c0 88 49 143 140 143s139 -55 139 -143c0 -89 -48 -144 -139 -144zM181 348c46 0 71 31 71 88s-25 88 -71 88c-47 0 -71 -31 -71 -88s24 -88 71 -88zM579 1c-91 0 -139 55 -139 143
c0 89 48 143 139 143s140 -54 140 -143c0 -88 -49 -143 -140 -143zM579 56c46 0 71 31 71 88s-25 88 -71 88s-71 -31 -71 -88s25 -88 71 -88zM930 1c-91 0 -140 55 -140 143c0 89 49 143 140 143s139 -54 139 -143c0 -88 -48 -143 -139 -143zM930 56c46 0 71 31 71 88
s-25 88 -71 88s-71 -31 -71 -88s25 -88 71 -88z" />
    <glyph glyph-name="figuredash" unicode="&#x2012;" horiz-adv-x="600" 
d="M49 311h502v-92h-502v92z" />
    <glyph glyph-name="threequartersemdash" unicode="&#xf6de;" horiz-adv-x="700" 
d="M49 311h602v-92h-602v92z" />
    <glyph glyph-name="minus" unicode="&#x2212;" horiz-adv-x="500" 
d="M49 311h402v-92h-402v92z" />
    <glyph glyph-name="overscore" horiz-adv-x="400" 
d="M41 657h318v-78h-318v78z" />
    <glyph glyph-name="uni03BC" unicode="&#x3bc;" horiz-adv-x="590" 
d="M17 409v91h172v-319c0 -61 27 -100 90 -100c49 0 95 29 122 48v280h-72v91h182v-409h61v-91h-171v67h-2c-32 -31 -71 -56 -114 -63c-41 -8 -74 -2 -96 19v-45c0 -113 -25 -181 -135 -187c-12 -1 -23 -1 -36 0c-20 1 -43 3 -64 7l10 85c20 -3 35 -5 48 -5
c53 0 67 30 67 85v446h-62z" />
    <glyph glyph-name="onedotenleader" unicode="&#x2024;" horiz-adv-x="207" 
d="M49 137h110v-137h-110v137z" />
    <glyph glyph-name="twodotenleader" unicode="&#x2025;" horiz-adv-x="407" 
d="M49 137h110v-137h-110v137zM249 137h110v-137h-110v137z" />
    <glyph glyph-name="afii61352" unicode="&#x2116;" horiz-adv-x="1044" 
d="M867 350c-109 0 -167 65 -167 170s58 170 167 170s167 -65 167 -170s-58 -170 -167 -170zM700 305h334v-66h-334v66zM867 411c58 0 90 39 90 109s-32 109 -90 109s-90 -39 -90 -109s32 -109 90 -109zM440 680h232v-91h-61v-589h-122l-301 460h-2v-369h64v-91h-233v91h62
v498h-62v91h178l307 -472h2v381h-64v91z" />
    <glyph glyph-name="product" unicode="&#x220f;" horiz-adv-x="680" 
d="M424 91h61v498h-290v-498h61v-91h-239v91h62v498h-62v91h645v-91h-61v-498h61v-91h-238v91z" />
    <glyph glyph-name="summation" unicode="&#x2211;" horiz-adv-x="520" 
d="M485 156v-156h-460v85l166 254l-166 256v85h460v-156h-91v65h-224v-2l167 -247l-166 -247v-2h223v65h91z" />
    <glyph glyph-name="radical" unicode="&#x221a;" horiz-adv-x="800" 
d="M69 324v66h261l91 -273h2l195 583h117l-249 -705h-134l-122 329h-161z" />
    <glyph glyph-name="infinity" unicode="&#x221e;" horiz-adv-x="679" 
d="M178 165c56 0 100 49 119 83c-21 38 -71 83 -117 83c-60 0 -86 -40 -86 -82s23 -84 84 -84zM336 203c-27 -46 -86 -100 -168 -100c-88 0 -144 60 -144 147c0 85 57 147 156 147c79 0 127 -49 164 -100c32 48 82 100 167 100c88 0 144 -60 144 -147
c0 -80 -57 -147 -154 -147c-58 0 -116 25 -165 100zM501 334c-54 0 -97 -46 -120 -85c20 -40 72 -80 119 -80c59 0 85 40 85 82c0 40 -23 83 -84 83z" />
    <glyph glyph-name="integral" unicode="&#x222b;" horiz-adv-x="360" 
d="M125 -37v586c0 110 43 155 151 155c26 0 57 -4 84 -8l-10 -85c-20 3 -35 5 -49 5c-52 0 -66 -30 -66 -85v-569c0 -110 -34 -172 -151 -172c-26 0 -57 3 -84 8l10 85c20 -3 35 -5 49 -5c52 0 66 30 66 85z" />
    <glyph glyph-name="lozenge" unicode="&#x25ca;" horiz-adv-x="472" 
d="M229 -30l-199 374l199 374h14l199 -374l-199 -374h-14zM120 344l116 -217l116 217l-116 217z" />
    <glyph glyph-name="uni037E" unicode="&#x37e;" horiz-adv-x="207" 
d="M49 319h110v-138h-110v138z" />
    <glyph glyph-name="litre" unicode="&#x2113;" horiz-adv-x="449" 
d="M42 156l-12 11l94 99v243c0 67 13 118 40 151c27 32 60 50 100 50c59 0 96 -39 96 -99c0 -34 -10 -71 -31 -112c-20 -41 -63 -100 -129 -176v-168c0 -51 8 -86 23 -106s35 -29 60 -29c22 0 44 9 64 29c21 19 39 53 54 103h18c-14 -55 -36 -97 -68 -127
c-24 -23 -54 -35 -89 -35c-58 0 -107 35 -127 90c-7 21 -11 56 -11 107v52zM200 543v-193c89 103 134 183 134 242c0 57 -30 89 -67 89c-19 0 -35 -9 -48 -28s-19 -55 -19 -110z" />
    <glyph glyph-name="tonos" unicode="&#x384;" horiz-adv-x="290" 
d="M214 680l-91 -140h-60l58 140h93z" />
    <glyph glyph-name="dieresistonos" unicode="&#x385;" horiz-adv-x="615" 
d="M394 730l-101 -170h-60l62 170h99zM69 700h97v-125h-97v125zM449 700h97v-125h-97v125z" />
    <glyph glyph-name="anoteleia" unicode="&#x387;" horiz-adv-x="480" 
d="M69 700h97v-125h-97v125zM314 700h97v-125h-97v125z" />
    <glyph glyph-name="Delta" unicode="&#x2206;" horiz-adv-x="628" 
d="M294 710l284 -710h-528zM274 538l-168 -491h358z" />
    <glyph glyph-name="Omega" unicode="&#x2126;" horiz-adv-x="670" 
d="M335 690c203 0 296 -134 296 -300c0 -112 -57 -226 -182 -256v-55h182v-79h-260v182c92 12 138 87 138 208c0 115 -46 202 -174 202s-174 -87 -174 -202c0 -121 46 -196 138 -208v-182h-260v79h182v55c-125 30 -182 144 -182 256c0 166 93 300 296 300z" />
    <glyph glyph-name="pi" unicode="&#x3c0;" horiz-adv-x="590" 
d="M346 91h55v318h-212v-318h55v-91h-227v91h62v318h-62v91h555v-91h-61v-318h61v-91h-226v91z" />
    <glyph glyph-name="ampersand.alt" horiz-adv-x="840" 
d="M544 212h-262c-41 0 -105 -13 -105 -63c0 -44 34 -68 107 -68c40 0 89 5 154 30l14 -84c-70 -28 -127 -37 -192 -37c-134 0 -211 50 -211 140c0 75 55 110 128 123v2c-63 15 -108 55 -108 125c0 100 89 130 201 130c65 0 129 -13 182 -36l-13 -85c-65 25 -116 30 -153 30
c-48 0 -101 -11 -101 -64c0 -20 14 -64 97 -64h262l13 209h97v-209h132v-69h-132v-59c0 -55 20 -85 78 -85c14 0 29 2 49 5l10 -85c-27 -5 -71 -8 -96 -8c-108 0 -151 45 -151 154v68z" />
    <glyph glyph-name="sigma" unicode="&#x3c3;" horiz-adv-x="513" 
d="M100 249c0 45 18 85 48 114l-78 90l8 8l79 -90c27 22 62 36 100 36c37 0 72 -14 99 -36l78 90l9 -8l-78 -89c31 -29 50 -70 50 -115s-19 -86 -49 -114l76 -86l-9 -9l-77 87c-27 -22 -62 -35 -99 -35c-38 0 -73 13 -100 35l-76 -87l-9 9l76 86c-30 29 -48 69 -48 114z
M112 249c0 -79 66 -145 145 -145s146 66 146 145s-67 146 -146 146s-145 -67 -145 -146z" />
    <glyph glyph-name="uni03C2" unicode="&#x3c2;" horiz-adv-x="513" 
d="M100 249c0 45 18 85 48 114l-78 90l8 8l79 -90c27 22 62 36 100 36c37 0 72 -14 99 -36l78 90l9 -8l-78 -89c31 -29 50 -70 50 -115s-19 -86 -49 -114l76 -86l-9 -9l-77 87c-27 -22 -62 -35 -99 -35c-38 0 -73 13 -100 35l-76 -87l-9 9l76 86c-30 29 -48 69 -48 114z
M112 249c0 -79 66 -145 145 -145s146 66 146 145s-67 146 -146 146s-145 -67 -145 -146z" />
  </font>
</defs>
</svg>
