<?xml version="1.0" standalone="no"?>
<!DOCTYPE svg PUBLIC "-//W3C//DTD SVG 1.1//EN" "http://www.w3.org/Graphics/SVG/1.1/DTD/svg11.dtd" >
<svg>
<metadata>
Created by FontForge 20120731 at Wed Jul 25 17:19:54 2018
 By www-data
Copyright (c) 2008 by Dino dos Santos _DSType. All rights reserved.
</metadata>
<defs>
<font id="PreloSlab-Book" horiz-adv-x="569" >
  <font-face 
    font-family="Prelo Slab Book"
    font-weight="400"
    font-stretch="normal"
    units-per-em="1000"
    panose-1="2 0 5 3 4 0 0 2 0 4"
    ascent="750"
    descent="-250"
    x-height="500"
    cap-height="680"
    bbox="-54 -270 1062 950"
    underline-thickness="50"
    underline-position="-50"
    stemh="59"
    stemv="70"
    unicode-range="U+0020-FB06"
  />
<missing-glyph horiz-adv-x="590" 
d="M70 500h450v-500h-450v500zM287 249l-206 236v-469zM304 249l205 -231v465zM93 488l203 -229l202 229h-405zM296 240l-201 -228h401z" />
    <glyph glyph-name=".notdef" horiz-adv-x="590" 
d="M70 500h450v-500h-450v500zM287 249l-206 236v-469zM304 249l205 -231v465zM93 488l203 -229l202 229h-405zM296 240l-201 -228h401z" />
    <glyph glyph-name="space" unicode=" " horiz-adv-x="180" 
 />
    <glyph glyph-name="exclam" unicode="!" horiz-adv-x="192" 
d="M61 122h70v-122h-70v122zM61 700h70l-4 -480h-62z" />
    <glyph glyph-name="quotedbl" unicode="&#x22;" horiz-adv-x="392" 
d="M61 680h70l-7 -138h-55zM261 680h70l-7 -138h-55z" />
    <glyph glyph-name="numbersign" unicode="#" horiz-adv-x="613" 
d="M204 500h51l-13 -121h155l13 121h52l-13 -121h100l-5 -48h-100l-17 -162h100l-5 -48h-100l-13 -121h-52l14 121h-155l-14 -121h-51l13 121h-100l5 48h100l17 162h-100l5 48h100zM238 331l-18 -162h155l18 162h-155z" />
    <glyph glyph-name="dollar" unicode="$" horiz-adv-x="620" 
d="M71 157h59v-81c79 -19 131 -24 180 -24c119 0 161 65 161 125c0 92 -106 118 -176 137c-107 27 -214 86 -214 201c0 120 93 171 215 175v90h32v-90c67 -2 133 -13 207 -34v-134h-59v84c-76 18 -118 21 -166 21c-115 0 -151 -52 -151 -110c0 -88 109 -124 181 -141
c107 -24 209 -74 209 -191c0 -124 -93 -189 -221 -194v-91h-32v90c-71 2 -150 11 -225 34v133z" />
    <glyph glyph-name="percent" unicode="%" horiz-adv-x="760" 
d="M589 680l-370 -680h-48l370 680h48zM181 399c-86 0 -132 53 -132 136c0 84 46 136 132 136s133 -52 133 -136c0 -83 -47 -136 -133 -136zM181 435c58 0 88 37 88 100s-30 100 -88 100s-88 -37 -88 -100s30 -100 88 -100zM579 9c-86 0 -133 52 -133 136
c0 83 47 135 133 135s132 -52 132 -135c0 -84 -46 -136 -132 -136zM579 45c57 0 88 37 88 100s-31 100 -88 100c-58 0 -88 -37 -88 -100s30 -100 88 -100z" />
    <glyph glyph-name="ampersand" unicode="&#x26;" horiz-adv-x="705" 
d="M494 540c0 -58 -33 -118 -167 -181l195 -193c37 46 64 108 75 184h67c-10 -74 -39 -162 -97 -231l87 -89l-47 -50l-89 93c-56 -50 -132 -83 -233 -83c-154 0 -227 75 -227 182c0 74 37 134 170 197c-35 40 -87 92 -87 161c0 111 93 160 184 160c104 0 169 -54 169 -150z
M295 51c61 0 127 18 180 68l-210 213c-72 -35 -133 -74 -133 -150c0 -52 31 -131 163 -131zM209 534c0 -53 35 -92 77 -136c78 36 141 80 141 144c0 86 -74 99 -104 99c-95 0 -114 -73 -114 -107z" />
    <glyph glyph-name="quotesingle" unicode="'" horiz-adv-x="192" 
d="M61 680h70l-7 -138h-55z" />
    <glyph glyph-name="parenleft" unicode="(" horiz-adv-x="330" 
d="M71 340c0 166 62 340 169 480h49c-102 -166 -148 -319 -148 -480c0 -160 46 -310 148 -480h-49c-107 140 -169 316 -169 480z" />
    <glyph glyph-name="parenright" unicode=")" horiz-adv-x="330" 
d="M259 340c0 -164 -62 -340 -169 -480h-49c102 170 148 320 148 480c0 161 -46 314 -148 480h49c107 -140 169 -314 169 -480z" />
    <glyph glyph-name="asterisk" unicode="*" horiz-adv-x="410" 
d="M189 550l-5 130h42l-5 -130l137 38l13 -42l-141 -22l92 -113l-33 -26l-85 123l-84 -123l-33 26l92 113l-141 22l12 42z" />
    <glyph glyph-name="plus" unicode="+" horiz-adv-x="500" 
d="M279 454v-160h160v-58h-160v-160h-58v160h-160v58h160v160h58z" />
    <glyph glyph-name="comma" unicode="," horiz-adv-x="192" 
d="M95 -130h-25l17 130h-26v122h70v-122z" />
    <glyph glyph-name="hyphen" unicode="-" horiz-adv-x="500" 
d="M61 294h378v-58h-378v58z" />
    <glyph glyph-name="period" unicode="." horiz-adv-x="192" 
d="M61 122h70v-122h-70v122z" />
    <glyph glyph-name="slash" unicode="/" horiz-adv-x="540" 
d="M486 680l-370 -680h-62l370 680h62z" />
    <glyph glyph-name="zero" unicode="0" horiz-adv-x="570" 
d="M285 631c-131 0 -160 -136 -160 -286s29 -296 160 -296s160 146 160 296s-29 286 -160 286zM285 -10c-187 0 -234 163 -234 355c0 189 47 345 234 345s234 -156 234 -345c0 -192 -47 -355 -234 -355z" />
    <glyph glyph-name="one" unicode="1" horiz-adv-x="390" 
d="M217 59h125v-59h-320v59h125v558l-118 -11v50l155 29h33v-626z" />
    <glyph glyph-name="two" unicode="2" horiz-adv-x="530" 
d="M424 134h58v-134h-441v69c298 200 344 328 344 404c0 136 -104 153 -150 153c-43 0 -83 -6 -135 -31v-68h-59v113c69 31 127 50 209 50c144 0 209 -93 209 -201c0 -140 -103 -273 -318 -425v-2h283v72z" />
    <glyph glyph-name="three" unicode="3" horiz-adv-x="520" 
d="M35 37v115h59v-75c41 -19 93 -28 149 -28c147 0 164 88 164 132c0 75 -54 130 -177 130h-83v58h80c112 0 162 69 162 137c0 46 -23 125 -146 125c-52 0 -96 -12 -135 -29v-75h-59v116c64 33 137 47 205 47c128 0 205 -66 205 -177c0 -86 -60 -142 -135 -165v-2
c97 -17 155 -82 155 -169c0 -118 -78 -187 -232 -187c-78 0 -148 12 -212 47z" />
    <glyph glyph-name="four" unicode="4" horiz-adv-x="570" 
d="M114 257h246v351h-2c-64 -128 -151 -245 -244 -351zM360 59v140h-319v58c110 120 229 267 301 428h88v-428h99v-58h-99v-140h69v-59h-208v59h69z" />
    <glyph glyph-name="five" unicode="5" horiz-adv-x="540" 
d="M462 680v-134h-58v71h-260l-15 -259l2 -1c34 42 85 73 156 73c126 0 202 -78 202 -213c0 -146 -94 -227 -239 -227c-76 0 -136 17 -205 50v109h59v-70c53 -24 96 -30 142 -30c103 0 169 62 169 165c0 72 -36 155 -151 155c-63 0 -106 -25 -145 -75l-53 5l18 381h378z" />
    <glyph glyph-name="six" unicode="6" horiz-adv-x="550" 
d="M121 359l2 -1c41 58 101 97 169 97c129 0 207 -85 207 -235c0 -144 -93 -230 -216 -230c-182 0 -232 152 -232 310c0 297 127 390 278 390c65 0 106 -11 149 -24v-120h-59v74c-28 7 -51 11 -84 11c-164 0 -211 -171 -214 -272zM127 301c-5 -129 19 -252 151 -252
c78 0 147 59 147 171c0 76 -28 174 -151 174c-60 0 -112 -41 -147 -93z" />
    <glyph glyph-name="seven" unicode="7" horiz-adv-x="490" 
d="M47 680h402v-51c-102 -167 -222 -392 -260 -629h-78c30 194 156 457 261 615v2h-266v-71h-59v134z" />
    <glyph glyph-name="eight" unicode="8" horiz-adv-x="550" 
d="M339 359v-2c97 -40 170 -88 170 -183c0 -117 -91 -184 -236 -184c-142 0 -232 64 -232 178c0 95 77 147 169 180v2c-86 33 -149 82 -149 170c0 108 92 170 216 170c120 0 212 -62 212 -167c0 -86 -60 -126 -150 -164zM113 174c0 -66 42 -131 164 -131
c120 0 160 61 160 126c0 89 -92 123 -172 153c-75 -26 -152 -67 -152 -148zM273 637c-55 0 -142 -25 -142 -116c0 -75 70 -113 152 -136c75 26 136 62 136 132c0 94 -87 120 -146 120z" />
    <glyph glyph-name="nine" unicode="9" horiz-adv-x="550" 
d="M429 321l-2 1c-41 -58 -101 -97 -169 -97c-130 0 -207 85 -207 235c0 144 93 230 216 230c182 0 232 -152 232 -310c0 -298 -127 -390 -278 -390c-65 0 -106 11 -149 24v120h59v-74c28 -8 51 -11 84 -11c164 0 211 171 214 272zM423 379c5 128 -19 252 -151 252
c-78 0 -147 -59 -147 -171c0 -76 27 -174 151 -174c60 0 112 41 147 93z" />
    <glyph glyph-name="colon" unicode=":" horiz-adv-x="192" 
d="M61 122h70v-122h-70v122zM61 460h70v-123h-70v123z" />
    <glyph glyph-name="semicolon" unicode=";" horiz-adv-x="192" 
d="M61 460h70v-123h-70v123zM95 -130h-25l17 130h-26v122h70v-122z" />
    <glyph glyph-name="less" unicode="&#x3c;" horiz-adv-x="480" 
d="M61 272l358 182v-63l-284 -141l284 -141v-63l-358 182v44z" />
    <glyph glyph-name="equal" unicode="=" horiz-adv-x="500" 
d="M61 394h378v-58h-378v58zM61 194h378v-58h-378v58z" />
    <glyph glyph-name="greater" unicode="&#x3e;" horiz-adv-x="480" 
d="M61 454l358 -182v-44l-358 -182v63l284 141l-284 141v63z" />
    <glyph glyph-name="question" unicode="?" horiz-adv-x="480" 
d="M51 522v130c55 22 122 38 188 38c153 0 190 -94 190 -171c0 -180 -192 -173 -192 -279v-30h-62v30c0 131 166 130 178 261c2 21 1 38 -4 54c-20 62 -89 69 -127 69c-25 0 -64 -7 -112 -24v-78h-59zM171 122h70v-122h-70v122z" />
    <glyph glyph-name="at" unicode="@" horiz-adv-x="810" 
d="M266 440c46 13 102 21 144 21c91 0 139 -26 139 -128v-222c156 0 195 131 195 213c0 175 -146 286 -320 286c-208 0 -358 -144 -358 -357c0 -194 138 -332 327 -332l-4 -41c-216 0 -369 160 -369 373c0 233 171 399 404 399c202 0 366 -132 366 -326
c0 -142 -84 -260 -247 -260h-49v39h-2c-35 -32 -74 -46 -126 -46c-77 0 -126 42 -126 111c0 85 65 119 164 119h90v41c0 56 -24 84 -95 84c-21 0 -54 -4 -87 -12v-63h-46v101zM494 140v114h-87c-85 0 -111 -30 -111 -79c0 -44 32 -72 91 -72c51 0 88 21 107 37z" />
    <glyph glyph-name="A" unicode="A" horiz-adv-x="700" 
d="M214 680h193l216 -621h54v-59h-218v59h84l-52 149h-278l-55 -149h79v-59h-215v59h64l204 562h-76v59zM357 614h-1l-127 -351h249z" />
    <glyph glyph-name="B" unicode="B" horiz-adv-x="630" 
d="M444 349v-2c87 -18 135 -81 135 -166c0 -111 -68 -181 -199 -181h-358v59h69v562h-69v59h338c131 0 199 -69 199 -172c0 -79 -41 -138 -115 -159zM356 317h-191v-258h204c83 0 132 45 132 129c0 78 -49 129 -145 129zM481 499c0 72 -45 122 -129 122h-187v-245h187
c84 0 129 44 129 123z" />
    <glyph glyph-name="C" unicode="C" horiz-adv-x="610" 
d="M506 154h59v-130c-81 -24 -154 -34 -230 -34c-229 0 -284 160 -284 355c0 189 55 345 284 345c76 0 149 -10 230 -34v-130h-59v84c-74 17 -118 21 -165 21c-174 0 -212 -136 -212 -286c0 -160 38 -296 212 -296c47 0 91 3 165 21v84z" />
    <glyph glyph-name="D" unicode="D" horiz-adv-x="660" 
d="M22 680h306c217 0 281 -146 281 -335c0 -192 -64 -345 -281 -345h-306v59h69v562h-69v59zM165 59h163c164 0 203 136 203 286s-39 276 -203 276h-163v-562z" />
    <glyph glyph-name="E" unicode="E" horiz-adv-x="570" 
d="M22 680h497v-134h-59v75h-295v-239h304v-58h-304v-265h295v75h59v-134h-497v59h69v562h-69v59z" />
    <glyph glyph-name="F" unicode="F" horiz-adv-x="555" 
d="M22 680h487v-134h-59v75h-285v-259h294v-58h-294v-245h69v-59h-212v59h69v562h-69v59z" />
    <glyph glyph-name="G" unicode="G" horiz-adv-x="620" 
d="M129 345c0 -154 51 -293 212 -293c57 0 109 16 150 42v182h-142v59h216v-288c-61 -28 -131 -57 -230 -57c-217 0 -284 163 -284 355c0 189 55 345 284 345c76 0 149 -10 230 -34v-130h-59v84c-74 17 -118 21 -165 21c-174 0 -212 -136 -212 -286z" />
    <glyph glyph-name="H" unicode="H" horiz-adv-x="680" 
d="M446 59h69v265h-350v-265h69v-59h-212v59h69v562h-69v59h212v-59h-69v-239h350v239h-69v59h211v-59h-68v-562h68v-59h-211v59z" />
    <glyph glyph-name="I" unicode="I" horiz-adv-x="256" 
d="M22 59h69v562h-69v59h212v-59h-69v-562h69v-59h-212v59z" />
    <glyph glyph-name="J" unicode="J" horiz-adv-x="346" 
d="M112 680h212v-59h-69v-456c0 -132 -55 -175 -150 -175c-30 0 -60 3 -86 7l7 59c24 -4 41 -5 60 -5c68 0 95 34 95 114v456h-69v59z" />
    <glyph glyph-name="K" unicode="K" horiz-adv-x="680" 
d="M22 680h212v-59h-69v-329l316 329h-77v59h243v-59h-78l-216 -222l231 -340h73v-59h-247v59h81l-194 288l-132 -135v-153h69v-59h-212v59h69v562h-69v59z" />
    <glyph glyph-name="L" unicode="L" horiz-adv-x="550" 
d="M456 134h59v-134h-493v59h69v562h-69v59h212v-59h-69v-562h291v75z" />
    <glyph glyph-name="M" unicode="M" horiz-adv-x="840" 
d="M662 680h155v-59h-68v-562h68v-59h-211v59h69v482h-2l-229 -541h-49l-234 541h-2v-482h71v-59h-208v59h69v562h-69v59h158l243 -558h2z" />
    <glyph glyph-name="N" unicode="N" horiz-adv-x="690" 
d="M460 680h207v-59h-68v-621h-76l-362 545h-2v-486h71v-59h-208v59h69v562h-69v59h141l366 -554h2v495h-71v59z" />
    <glyph glyph-name="O" unicode="O" horiz-adv-x="670" 
d="M335 631c-177 0 -206 -136 -206 -286s29 -296 206 -296s206 146 206 296s-29 286 -206 286zM335 -10c-229 0 -284 163 -284 355c0 189 55 345 284 345s284 -156 284 -345c0 -192 -55 -355 -284 -355z" />
    <glyph glyph-name="P" unicode="P" horiz-adv-x="620" 
d="M22 680h344c131 0 203 -80 203 -194c0 -120 -72 -194 -203 -194h-201v-233h69v-59h-212v59h69v562h-69v59zM165 621v-270h194c83 0 134 47 134 135c0 82 -51 135 -134 135h-194z" />
    <glyph glyph-name="Q" unicode="Q" horiz-adv-x="670" 
d="M51 345c0 189 55 345 284 345s284 -156 284 -345c0 -184 -58 -323 -236 -331c24 -41 133 -54 222 -45v-67c-123 -14 -239 11 -288 88c-212 8 -266 168 -266 355zM335 631c-177 0 -206 -136 -206 -286s29 -296 206 -296s206 146 206 296s-29 286 -206 286z" />
    <glyph glyph-name="R" unicode="R" horiz-adv-x="650" 
d="M22 680h344c131 0 203 -84 203 -198c0 -98 -58 -174 -155 -187l162 -236h51v-59h-220v59h76l-150 225h-168v-225h69v-59h-212v59h69v562h-69v59zM165 621v-279h187c84 0 141 52 141 140c0 82 -51 139 -134 139h-194z" />
    <glyph glyph-name="S" unicode="S" horiz-adv-x="580" 
d="M51 157h59v-81c79 -19 131 -24 180 -24c119 0 161 65 161 125c0 92 -106 118 -176 137c-107 27 -218 86 -218 201c0 126 102 175 229 175c74 0 144 -10 225 -34v-134h-59v84c-75 18 -118 21 -166 21c-115 0 -151 -52 -151 -110c0 -88 113 -124 185 -141
c107 -24 209 -74 209 -191c0 -130 -102 -195 -239 -195c-74 0 -158 10 -239 34v133z" />
    <glyph glyph-name="T" unicode="T" horiz-adv-x="580" 
d="M47 680h485v-134h-58v75h-147v-562h69v-59h-212v59h69v562h-147v-75h-59v134z" />
    <glyph glyph-name="U" unicode="U" horiz-adv-x="680" 
d="M446 680h211v-59h-68v-381c0 -174 -86 -250 -249 -250s-249 76 -249 250v381h-69v59h212v-59h-69v-381c0 -76 11 -191 178 -191c158 0 172 115 172 191v381h-69v59z" />
    <glyph glyph-name="V" unicode="V" horiz-adv-x="690" 
d="M440 680h227v-59h-53l-218 -626h-95l-227 626h-52v59h232v-59h-99l196 -549h1l187 549h-99v59z" />
    <glyph glyph-name="W" unicode="W" horiz-adv-x="980" 
d="M22 680h232v-59h-98l143 -533h1l156 592h80l159 -592h1l140 533h-99v59h220v-59h-49l-169 -626h-99l-149 552h-2l-145 -552h-100l-172 626h-50v59z" />
    <glyph glyph-name="X" unicode="X" horiz-adv-x="700" 
d="M447 680h220v-59h-66l-194 -270l211 -292h59v-59h-244v59h88l-179 255l-178 -255h82v-59h-224v59h64l212 296l-191 266h-75v59h241v-59h-68l160 -227l158 227h-76v59z" />
    <glyph glyph-name="Y" unicode="Y" horiz-adv-x="660" 
d="M367 59h69v-59h-212v59h69v166l-213 396h-58v59h236v-59h-99l176 -325h2l174 325h-98v59h224v-59h-54l-216 -396v-166z" />
    <glyph glyph-name="Z" unicode="Z" horiz-adv-x="560" 
d="M59 680h446v-55l-368 -564v-2h325v75h59v-134h-476v55l371 564v2h-299v-75h-58v134z" />
    <glyph glyph-name="bracketleft" unicode="[" horiz-adv-x="300" 
d="M135 -96h124v-44h-198v960h198v-44h-124v-872z" />
    <glyph glyph-name="backslash" unicode="\" horiz-adv-x="540" 
d="M424 0l-370 680h62l370 -680h-62z" />
    <glyph glyph-name="bracketright" unicode="]" horiz-adv-x="300" 
d="M41 -96h124v872h-124v44h198v-960h-198v44z" />
    <glyph glyph-name="asciicircum" unicode="^" horiz-adv-x="380" 
d="M189 660l-88 -150h-40l105 190h48l105 -190h-40z" />
    <glyph glyph-name="underscore" unicode="_" horiz-adv-x="500" 
d="M61 -60h378v-44h-378v44z" />
    <glyph glyph-name="grave" unicode="`" horiz-adv-x="290" 
d="M164 560l-77 140h69l63 -140h-55z" />
    <glyph glyph-name="a" unicode="a" horiz-adv-x="535" 
d="M138 374h-59v116c66 13 133 20 186 20c116 0 179 -36 179 -164v-287h68v-59h-138v50h-2c-48 -39 -95 -60 -160 -60c-80 0 -166 42 -166 142c0 120 106 153 212 153h116v57c0 73 -34 109 -124 109c-26 0 -61 -2 -112 -11v-66zM374 93v148h-108c-111 0 -150 -35 -150 -101
c0 -57 43 -95 119 -95c66 0 114 28 139 48z" />
    <glyph glyph-name="b" unicode="b" horiz-adv-x="560" 
d="M22 641v59h139v-250h2c38 35 97 60 159 60c140 0 187 -114 187 -260s-50 -260 -190 -260c-61 0 -120 23 -160 58h-2l-12 -48h-123v59h69v582h-69zM435 250c0 107 -31 201 -139 201c-61 0 -112 -29 -135 -48v-306c23 -19 74 -48 135 -48c108 0 139 93 139 201z" />
    <glyph glyph-name="c" unicode="c" horiz-adv-x="492" 
d="M457 374h-58v66c-50 11 -86 11 -109 11c-119 0 -165 -86 -165 -201s46 -201 165 -201c34 0 76 0 154 20l13 -57c-60 -15 -105 -22 -167 -22c-177 0 -239 106 -239 260s62 260 239 260c62 0 107 -7 167 -22v-114z" />
    <glyph glyph-name="d" unicode="d" horiz-adv-x="560" 
d="M330 641v59h139v-641h68v-59h-138v50h-2c-38 -35 -97 -60 -160 -60c-140 0 -186 114 -186 260s50 260 190 260c60 0 118 -23 156 -58h2v189h-69zM125 250c0 -108 31 -201 139 -201c61 0 112 29 135 48v306c-23 19 -74 48 -135 48c-108 0 -139 -94 -139 -201z" />
    <glyph glyph-name="e" unicode="e" horiz-adv-x="530" 
d="M478 241h-353c2 -112 50 -192 181 -192c51 0 100 3 156 20l9 -57c-60 -17 -110 -22 -175 -22c-181 0 -245 106 -245 260s64 260 239 260c151 0 196 -88 196 -191c0 -24 -2 -50 -8 -78zM286 455c-114 0 -154 -75 -161 -168h285c3 16 5 30 5 46c0 64 -32 122 -129 122z" />
    <glyph glyph-name="f" unicode="f" horiz-adv-x="339" 
d="M32 0v59h69v390h-79v46l79 5v68c0 94 36 132 139 132c22 0 51 -3 76 -7l-7 -55c-23 4 -38 5 -54 5c-64 0 -84 -21 -84 -82v-61h128v-51h-128v-390h81v-59h-220z" />
    <glyph glyph-name="g" unicode="g" horiz-adv-x="555" 
d="M96 -69c0 -56 45 -92 155 -92c107 0 192 35 192 110c0 33 -21 61 -93 65l-184 10c-40 -26 -70 -49 -70 -93zM265 226c77 0 127 43 127 114c0 73 -51 121 -127 121c-86 0 -130 -48 -130 -121s50 -114 130 -114zM126 35v2c-62 33 -44 115 25 161v2c-51 25 -84 74 -84 140
c0 107 74 170 198 170c28 0 50 -5 68 -10h171v-44h-105v-1c50 -29 59 -79 59 -115c0 -110 -84 -164 -193 -164c-21 0 -53 4 -76 13c-41 -42 -48 -102 7 -105l176 -8c105 -6 145 -52 145 -115c0 -107 -86 -171 -282 -171c-129 0 -200 41 -200 130c0 46 28 82 91 115z" />
    <glyph glyph-name="h" unicode="h" horiz-adv-x="590" 
d="M364 0v59h65v272c0 69 -27 120 -110 120c-66 0 -125 -41 -158 -67v-325h65v-59h-204v59h69v582h-69v59h139v-273h2c51 49 113 83 186 83c100 0 150 -58 150 -164v-287h68v-59h-203z" />
    <glyph glyph-name="i" unicode="i" horiz-adv-x="252" 
d="M22 441v59h139v-441h69v-59h-208v59h69v382h-69zM91 700h70v-119h-70v119z" />
    <glyph glyph-name="j" unicode="j" horiz-adv-x="232" 
d="M22 441v59h149v-578c0 -94 -36 -132 -139 -132c-22 0 -50 3 -76 7l7 55c23 -4 39 -5 54 -5c65 0 84 21 84 82v512h-79zM101 700h70v-119h-70v119z" />
    <glyph glyph-name="k" unicode="k" horiz-adv-x="600" 
d="M22 641v59h139v-448l249 189h-63v59h220v-59h-76l-152 -115l172 -267h66v-59h-220v59h66l-143 229l-119 -91v-138h69v-59h-208v59h69v582h-69z" />
    <glyph glyph-name="l" unicode="l" horiz-adv-x="252" 
d="M22 641v59h139v-641h69v-59h-208v59h69v582h-69z" />
    <glyph glyph-name="m" unicode="m" horiz-adv-x="890" 
d="M345 0v59h65v275c-1 67 -29 117 -110 117c-59 0 -106 -40 -139 -67v-325h65v-59h-204v59h69v382h-69v59h139v-73h2c38 38 85 78 151 81c17 1 33 1 49 -2c54 -7 89 -37 105 -86c46 49 109 90 181 90c100 0 150 -58 150 -164v-287h68v-59h-203v59h65v272
c0 69 -28 120 -110 120c-59 0 -109 -41 -142 -69c2 -14 3 -31 3 -48v-275h65v-59h-200z" />
    <glyph glyph-name="n" unicode="n" horiz-adv-x="590" 
d="M364 0v59h65v272c0 69 -27 120 -110 120c-66 0 -125 -41 -158 -67v-325h65v-59h-204v59h69v382h-69v59h139v-73h2c51 49 113 83 186 83c100 0 150 -58 150 -164v-287h68v-59h-203z" />
    <glyph glyph-name="o" unicode="o" horiz-adv-x="550" 
d="M275 451c-116 0 -150 -90 -150 -201s34 -201 150 -201s150 90 150 201s-34 201 -150 201zM275 -10c-163 0 -224 106 -224 260s61 260 224 260s224 -106 224 -260s-61 -260 -224 -260z" />
    <glyph glyph-name="p" unicode="p" horiz-adv-x="560" 
d="M22 441v59h139v-50h2c38 35 97 60 159 60c140 0 187 -114 187 -260s-50 -260 -190 -260c-61 0 -118 23 -156 58h-2v-189h69v-59h-208v59h69v582h-69zM435 250c0 107 -31 201 -139 201c-61 0 -112 -29 -135 -48v-306c23 -19 74 -48 135 -48c108 0 139 93 139 201z" />
    <glyph glyph-name="q" unicode="q" horiz-adv-x="530" 
d="M330 -200v59h69v191h-2c-38 -35 -97 -60 -160 -60c-140 0 -186 114 -186 260s50 260 190 260c60 0 120 -23 159 -58h2l13 50h54v-643h68v-59h-207zM125 250c0 -108 31 -201 139 -201c61 0 112 29 135 48v306c-23 19 -74 48 -135 48c-108 0 -139 -94 -139 -201z" />
    <glyph glyph-name="r" unicode="r" horiz-adv-x="400" 
d="M22 441v59h139v-80h2c45 45 116 90 196 90v-66c-79 0 -158 -39 -198 -67v-318h81v-59h-220v59h69v382h-69z" />
    <glyph glyph-name="s" unicode="s" horiz-adv-x="480" 
d="M426 374h-59v66c-56 13 -107 13 -132 13c-105 0 -113 -59 -113 -76c0 -37 18 -69 120 -90c110 -23 192 -53 192 -149c0 -95 -63 -148 -179 -148c-76 0 -149 7 -209 22v114h59v-66c58 -13 116 -13 142 -13c107 0 117 67 117 87c0 37 -22 67 -126 88
c-102 19 -186 52 -186 153c0 89 64 135 179 135c76 0 135 -7 195 -22v-114z" />
    <glyph glyph-name="t" unicode="t" horiz-adv-x="375" 
d="M101 147v302h-79v46l79 5l9 140h61v-140h148v-51h-148v-291c0 -73 20 -111 91 -111c16 0 32 1 55 5l7 -55c-26 -4 -62 -7 -84 -7c-97 0 -139 40 -139 157z" />
    <glyph glyph-name="u" unicode="u" horiz-adv-x="590" 
d="M22 441v59h139v-331c0 -69 28 -120 110 -120c66 0 125 41 158 67v325h-88v59h158v-441h68v-59h-138v72h-2c-51 -48 -113 -82 -186 -82c-100 0 -150 57 -150 164v287h-69z" />
    <glyph glyph-name="v" unicode="v" horiz-adv-x="579" 
d="M362 441v59h195v-59h-46l-179 -446h-83l-179 446h-48v59h206v-59h-80l147 -372h2l144 372h-79z" />
    <glyph glyph-name="w" unicode="w" horiz-adv-x="809" 
d="M592 441v59h195v-59h-47l-138 -446h-75l-122 385h-2l-114 -385h-75l-146 446h-46v59h206v-59h-85l114 -363h2l121 422h59l127 -426h2l104 367h-80z" />
    <glyph glyph-name="x" unicode="x" horiz-adv-x="609" 
d="M389 441v59h187v-59h-61l-161 -187l169 -195h63v-59h-221v59h62l-142 169l-138 -169h66v-59h-191v59h56l171 203l-157 179h-60v59h219v-59h-63l130 -155l127 155h-56z" />
    <glyph glyph-name="y" unicode="y" horiz-adv-x="579" 
d="M362 441v59h195v-59h-46l-187 -475c-42 -106 -99 -176 -189 -176c-22 0 -48 3 -67 7l7 57c17 -4 32 -5 46 -5c76 0 113 77 137 138l-188 454h-48v59h206v-59h-80l153 -381h2l138 381h-79z" />
    <glyph glyph-name="z" unicode="z" horiz-adv-x="470" 
d="M39 500h390v-55l-309 -388v-2h262v71h59v-126h-409v55l311 388v2h-246v-71h-58v126z" />
    <glyph glyph-name="braceleft" unicode="{" horiz-adv-x="340" 
d="M195 7c0 -114 54 -115 104 -115v-32c-106 0 -178 19 -178 146c0 61 10 130 10 189c0 64 0 114 -70 124v42c70 10 70 60 70 124c0 59 -10 128 -10 189c0 126 72 146 178 146v-33c-50 0 -104 0 -104 -115c0 -61 11 -151 11 -213c0 -79 -34 -106 -85 -118v-2
c51 -12 85 -39 85 -118c0 -62 -11 -153 -11 -214z" />
    <glyph glyph-name="bar" unicode="|" horiz-adv-x="170" 
d="M109 -100h-48v880h48v-880z" />
    <glyph glyph-name="braceright" unicode="}" horiz-adv-x="340" 
d="M145 672c0 115 -54 115 -104 115v33c105 0 178 -20 178 -146c0 -61 -10 -130 -10 -189c0 -64 0 -114 70 -124v-42c-70 -10 -70 -60 -70 -124c0 -59 10 -128 10 -189c0 -127 -73 -146 -178 -146v32c50 0 104 1 104 115c0 61 -12 152 -12 214c0 79 35 106 86 118v2
c-51 12 -86 39 -86 118c0 62 12 152 12 213z" />
    <glyph glyph-name="asciitilde" unicode="~" horiz-adv-x="460" 
d="M153 329c-19 0 -37 -4 -84 -52l-23 19c41 60 70 82 105 82c48 0 147 -57 181 -57c18 0 39 3 65 45l20 -22c-21 -42 -42 -67 -76 -70c-6 -1 -14 1 -21 2c-43 9 -132 53 -167 53z" />
    <glyph glyph-name="Euro" unicode="&#x20ac;" horiz-adv-x="650" 
d="M29 286h64c-1 19 -2 39 -2 59c0 16 0 32 1 49h-63v36h67c17 148 85 260 279 260c76 0 149 -10 230 -34v-130h-59v84c-74 17 -118 21 -165 21c-142 0 -191 -91 -205 -201h195l-3 -36h-198c-1 -17 -1 -33 -1 -49c0 -20 0 -40 1 -59h201l-3 -36h-191
c15 -113 64 -201 204 -201c47 0 91 3 165 21v84h59v-130c-81 -24 -154 -34 -230 -34c-190 0 -260 110 -278 260h-68v36z" />
    <glyph glyph-name="quotesinglbase" unicode="&#x201a;" horiz-adv-x="192" 
d="M95 -130h-25l17 130h-26v122h70v-122z" />
    <glyph glyph-name="florin" unicode="&#x192;" horiz-adv-x="460" 
d="M176 -42v491h-79v46l79 5v43c0 117 42 157 139 157c22 0 51 -3 76 -7l-7 -55c-23 4 -38 5 -54 5c-68 0 -84 -38 -84 -111v-32h140v-51h-140v-492c0 -116 -36 -167 -139 -167c-22 0 -50 3 -76 7l7 55c23 -4 39 -5 54 -5c68 0 84 38 84 111z" />
    <glyph glyph-name="quotedblbase" unicode="&#x201e;" horiz-adv-x="412" 
d="M95 -130h-25l17 130h-26v122h70v-122zM315 -130h-25l17 130h-26v122h70v-122z" />
    <glyph glyph-name="ellipsis" unicode="&#x2026;" horiz-adv-x="632" 
d="M81 122h70v-122h-70v122zM281 122h70v-122h-70v122zM481 122h70v-122h-70v122z" />
    <glyph glyph-name="dagger" unicode="&#x2020;" horiz-adv-x="580" 
d="M519 434l-196 3l4 -437h-74l4 437l-196 -3v66l196 -4l-4 204h74l-4 -204l196 4v-66z" />
    <glyph glyph-name="daggerdbl" unicode="&#x2021;" horiz-adv-x="580" 
d="M257 262v175l-196 -3v66l196 -4l-4 204h74l-4 -204l196 4v-66l-196 3v-175l196 4v-66l-196 4l4 -204h-74l4 204l-196 -4v66z" />
    <glyph glyph-name="circumflex" unicode="&#x2c6;" horiz-adv-x="420" 
d="M209 644l-64 -84h-44l85 127h48l85 -127h-44z" />
    <glyph glyph-name="perthousand" unicode="&#x2030;" horiz-adv-x="1110" 
d="M589 680l-370 -680h-48l370 680h48zM181 399c-86 0 -132 53 -132 136c0 84 46 136 132 136s133 -52 133 -136c0 -83 -47 -136 -133 -136zM181 435c58 0 88 37 88 100s-30 100 -88 100s-88 -37 -88 -100s30 -100 88 -100zM579 9c-86 0 -133 52 -133 136
c0 83 47 135 133 135s132 -52 132 -135c0 -84 -46 -136 -132 -136zM579 45c57 0 88 37 88 100s-31 100 -88 100c-58 0 -88 -37 -88 -100s30 -100 88 -100zM929 9c-86 0 -133 52 -133 136c0 83 47 135 133 135s132 -52 132 -135c0 -84 -46 -136 -132 -136zM929 45
c57 0 88 37 88 100s-31 100 -88 100c-58 0 -88 -37 -88 -100s30 -100 88 -100z" />
    <glyph glyph-name="Scaron" unicode="&#x160;" horiz-adv-x="580" 
d="M225 857l64 -84l66 84h44l-85 -127h-48l-85 127h44zM51 157h59v-81c79 -19 131 -24 180 -24c119 0 161 65 161 125c0 92 -106 118 -176 137c-107 27 -218 86 -218 201c0 126 102 175 229 175c74 0 144 -10 225 -34v-134h-59v84c-75 18 -118 21 -166 21
c-115 0 -151 -52 -151 -110c0 -88 113 -124 185 -141c107 -24 209 -74 209 -191c0 -130 -102 -195 -239 -195c-74 0 -158 10 -239 34v133z" />
    <glyph glyph-name="guilsinglleft" unicode="&#x2039;" horiz-adv-x="380" 
d="M61 272l258 163v-74l-184 -111l184 -111v-74l-258 163v44z" />
    <glyph glyph-name="OE" unicode="&#x152;" horiz-adv-x="1024" 
d="M335 631c-177 0 -206 -136 -206 -286s29 -296 206 -296s206 146 206 303c0 148 -33 279 -206 279zM972 0h-442v132c-25 -83 -79 -142 -195 -142c-230 0 -284 163 -284 355c0 189 55 345 284 345c118 0 171 -59 196 -139v129h441v-134h-58v75h-295v-239h303v-58h-303v-265
h295v75h58v-134z" />
    <glyph glyph-name="Zcaron" unicode="&#x17d;" horiz-adv-x="560" 
d="M225 857l64 -84l66 84h44l-85 -127h-48l-85 127h44zM59 680h446v-55l-368 -564v-2h325v75h59v-134h-476v55l371 564v2h-299v-75h-58v134z" />
    <glyph glyph-name="quoteleft" unicode="&#x2018;" horiz-adv-x="192" 
d="M97 680h25l-17 -130h26v-123h-70v123z" />
    <glyph glyph-name="quoteright" unicode="&#x2019;" horiz-adv-x="192" 
d="M95 427h-25l17 130h-26v123h70v-123z" />
    <glyph glyph-name="quotedblleft" unicode="&#x201c;" horiz-adv-x="412" 
d="M317 680h25l-17 -130h26v-123h-70v123zM97 680h25l-17 -130h26v-123h-70v123z" />
    <glyph glyph-name="quotedblright" unicode="&#x201d;" horiz-adv-x="412" 
d="M95 427h-25l17 130h-26v123h70v-123zM315 427h-25l17 130h-26v123h70v-123z" />
    <glyph glyph-name="bullet" unicode="&#x2022;" horiz-adv-x="230" 
d="M61 311h70v-122h-70v122z" />
    <glyph glyph-name="endash" unicode="&#x2013;" horiz-adv-x="600" 
d="M61 294h478v-58h-478v58z" />
    <glyph glyph-name="emdash" unicode="&#x2014;" horiz-adv-x="700" 
d="M61 294h578v-58h-578v58z" />
    <glyph glyph-name="tilde" unicode="&#x2dc;" horiz-adv-x="450" 
d="M173 625c-24 0 -37 -3 -84 -51l-23 26c41 60 70 78 105 78c48 0 97 -57 131 -57c18 0 39 7 65 49l20 -29c-17 -36 -42 -71 -85 -71c-36 0 -91 55 -129 55z" />
    <glyph glyph-name="trademark" unicode="&#x2122;" horiz-adv-x="800" 
d="M19 680h291v-84h-37v44h-86v-267h49v-37h-142v37h49v267h-86v-44h-38v84zM673 680h107v-37h-48v-270h48v-37h-141v37h47v229h-2l-109 -266h-32l-107 266h-2v-229h48v-37h-137v37h49v270h-49v37h108l109 -271h1z" />
    <glyph glyph-name="scaron" unicode="&#x161;" horiz-adv-x="480" 
d="M426 374h-59v66c-56 13 -107 13 -132 13c-105 0 -113 -59 -113 -76c0 -37 18 -69 120 -90c110 -23 192 -53 192 -149c0 -95 -63 -148 -179 -148c-76 0 -149 7 -209 22v114h59v-66c58 -13 116 -13 142 -13c107 0 117 67 117 87c0 37 -22 67 -126 88
c-102 19 -186 52 -186 153c0 89 64 135 179 135c76 0 135 -7 195 -22v-114zM184 687l64 -84l66 84h44l-85 -127h-48l-85 127h44z" />
    <glyph glyph-name="guilsinglright" unicode="&#x203a;" horiz-adv-x="380" 
d="M61 435l258 -163v-44l-258 -163v74l184 111l-184 111v74z" />
    <glyph glyph-name="oe" unicode="&#x153;" horiz-adv-x="904" 
d="M275 451c-116 0 -150 -90 -150 -201s34 -201 150 -201c113 0 150 86 150 201c0 111 -34 201 -150 201zM501 287h283c4 16 5 30 5 46c0 64 -32 122 -129 122c-113 0 -152 -75 -159 -168zM852 241h-351c2 -112 48 -192 179 -192c51 0 100 3 156 20l9 -57
c-60 -17 -110 -22 -175 -22c-118 0 -181 54 -207 134c-25 -80 -83 -134 -188 -134c-163 0 -224 106 -224 260s61 260 224 260c105 0 163 -54 188 -135c26 81 88 135 201 135c151 0 197 -88 197 -191c0 -24 -3 -50 -9 -78z" />
    <glyph glyph-name="zcaron" unicode="&#x17e;" horiz-adv-x="470" 
d="M39 500h390v-55l-309 -388v-2h262v71h59v-126h-409v55l311 388v2h-246v-71h-58v126zM187 687l64 -84l66 84h44l-85 -127h-48l-85 127h44z" />
    <glyph glyph-name="Ydieresis" unicode="&#x178;" horiz-adv-x="660" 
d="M222 827h51v-85h-51v85zM399 827h51v-85h-51v85zM367 59h69v-59h-212v59h69v166l-213 396h-58v59h236v-59h-99l176 -325h2l174 325h-98v59h224v-59h-54l-216 -396v-166z" />
    <glyph glyph-name="exclamdown" unicode="&#xa1;" horiz-adv-x="192" 
d="M131 377h-70v123h70v-123zM131 -200h-70l4 480h62z" />
    <glyph glyph-name="cent" unicode="&#xa2;" horiz-adv-x="510" 
d="M322 -100h-33v90c-143 5 -228 110 -228 260s85 255 228 260v90h33v-91c57 -2 97 -15 145 -36l-8 -55c-52 19 -85 31 -137 32v-401c52 1 85 13 137 33l8 -55c-48 -22 -88 -34 -145 -36v-91zM135 250c0 -107 54 -193 154 -200v399c-100 -6 -154 -93 -154 -199z" />
    <glyph glyph-name="sterling" unicode="&#xa3;" horiz-adv-x="580" 
d="M399 325h-238v-263h321v72h59v-134h-500v62h50v263h-50v36h50v154c0 126 98 175 225 175c84 0 156 -16 225 -46v-122h-59v72c-60 26 -115 33 -166 33c-119 0 -155 -54 -155 -117v-149h238v-36z" />
    <glyph glyph-name="currency" unicode="&#xa4;" horiz-adv-x="513" 
d="M100 249c0 45 18 85 48 114l-78 90l8 8l79 -90c27 22 62 36 100 36c37 0 72 -14 99 -36l78 90l9 -8l-78 -89c31 -29 50 -70 50 -115s-19 -86 -49 -114l76 -86l-9 -9l-77 87c-27 -22 -62 -35 -99 -35c-38 0 -73 13 -100 35l-76 -87l-9 9l76 86c-30 29 -48 69 -48 114z
M112 249c0 -79 66 -145 145 -145s146 66 146 145s-67 146 -146 146s-145 -67 -145 -146z" />
    <glyph glyph-name="yen" unicode="&#xa5;" horiz-adv-x="660" 
d="M367 59h69v-59h-212v59h69v161h-172v36h155l-200 365h-54v59h236v-59h-95l172 -317h2l171 317h-95v59h224v-59h-54l-200 -365h156v-36h-172v-161z" />
    <glyph glyph-name="brokenbar" unicode="&#xa6;" horiz-adv-x="170" 
d="M109 380h-48v400h48v-400zM109 -100h-48v400h48v-400z" />
    <glyph glyph-name="section" unicode="&#xa7;" horiz-adv-x="600" 
d="M539 335c0 -76 -37 -130 -95 -160c52 -34 91 -82 91 -150c0 -126 -101 -175 -229 -175c-91 0 -171 24 -225 57l30 59c70 -38 136 -50 195 -50c118 0 151 51 151 109c0 89 -124 124 -185 139c-106 25 -205 73 -205 191c0 75 36 129 96 160c-53 33 -92 82 -92 150
c0 126 101 175 229 175c91 0 171 -24 225 -58l-29 -58c-70 38 -137 50 -196 50c-118 0 -151 -52 -151 -109c0 -89 124 -124 185 -139c107 -25 205 -74 205 -191zM292 461c-22 3 -47 9 -69 17c-57 -25 -78 -75 -78 -119c0 -86 97 -114 150 -126c27 -7 56 -15 83 -27
c59 25 83 77 83 125c0 90 -110 116 -169 130z" />
    <glyph glyph-name="dieresis" unicode="&#xa8;" horiz-adv-x="480" 
d="M126 677h51v-85h-51v85zM303 677h51v-85h-51v85z" />
    <glyph glyph-name="copyright" unicode="&#xa9;" horiz-adv-x="765" 
d="M30 340c0 195 157 350 352 350s353 -155 353 -350s-158 -350 -353 -350s-352 155 -352 350zM64 340c0 -176 142 -318 318 -318c175 0 319 142 319 318c0 175 -144 316 -319 316c-176 0 -318 -141 -318 -316zM387 477c-84 0 -119 -49 -119 -133c0 -89 35 -143 119 -143
c33 0 70 7 104 30l17 -33c-24 -16 -63 -36 -123 -36c-108 0 -164 66 -164 182c0 110 56 172 164 172c60 0 99 -20 123 -36l-16 -35c-35 23 -72 32 -105 32z" />
    <glyph glyph-name="ordfeminine" unicode="&#xaa;" horiz-adv-x="279" 
d="M70 616h-31v58c33 7 67 11 94 11c58 0 90 -18 90 -82v-141h34v-32h-72v25h-1c-23 -19 -43 -28 -72 -29c-9 -1 -17 -1 -25 0c-37 5 -60 27 -63 61c-1 8 -1 16 0 24c5 46 49 62 103 62h58v28c0 35 -17 52 -60 52c-13 0 -30 -1 -55 -5v-32zM185 478v72h-52
c-54 0 -73 -17 -73 -50c0 -27 21 -46 58 -46c31 0 55 14 67 24z" />
    <glyph glyph-name="guillemotleft" unicode="&#xab;" horiz-adv-x="667" 
d="M76 272l246 163v-66l-172 -119l172 -119v-66l-246 163v44zM345 272l246 163v-66l-172 -119l172 -119v-66l-246 163v44z" />
    <glyph glyph-name="logicalnot" unicode="&#xac;" horiz-adv-x="590" 
d="M81 294h428v-168h-59v110h-369v58z" />
    <glyph glyph-name="uni00AD" unicode="&#xad;" horiz-adv-x="540" 
d="M81 294h378v-58h-378v58z" />
    <glyph glyph-name="registered" unicode="&#xae;" horiz-adv-x="765" 
d="M531 168h-54l-96 118h-77v-118h-44v344h136c80 0 124 -43 124 -111c0 -62 -34 -101 -91 -108zM304 472v-146h89c52 0 82 24 82 75c0 45 -30 71 -79 71h-92zM30 340c0 195 157 350 352 350s353 -155 353 -350s-158 -350 -353 -350s-352 155 -352 350zM64 340
c0 -176 142 -318 318 -318c175 0 319 142 319 318c0 175 -144 316 -319 316c-176 0 -318 -141 -318 -316z" />
    <glyph glyph-name="macron" unicode="&#xaf;" horiz-adv-x="380" 
d="M69 642h242v-51h-242v51z" />
    <glyph glyph-name="degree" unicode="&#xb0;" horiz-adv-x="260" 
d="M42 580c0 49 39 88 88 88s88 -39 88 -88s-39 -88 -88 -88s-88 39 -88 88zM70 580c0 -34 26 -60 60 -60s60 26 60 60s-26 60 -60 60s-60 -26 -60 -60z" />
    <glyph glyph-name="plusminus" unicode="&#xb1;" horiz-adv-x="500" 
d="M61 109h160v132h-160v59h160v159h58v-159h160v-59h-160v-132h160v-59h-378v59z" />
    <glyph glyph-name="twosuperior" unicode="&#xb2;" horiz-adv-x="268" 
d="M214 608h31v-68h-223v37c148 99 171 161 171 199c0 66 -51 75 -74 75c-21 0 -39 -4 -65 -16v-32h-32v57c36 16 65 25 106 25c73 0 105 -46 105 -101c0 -70 -52 -136 -157 -209v-1h138v34z" />
    <glyph glyph-name="threesuperior" unicode="&#xb3;" horiz-adv-x="269" 
d="M22 559v58h32v-37c21 -9 46 -13 73 -13c71 0 80 42 80 64c0 37 -26 63 -86 63h-42v32h40c56 0 80 33 80 66c0 24 -12 61 -72 61c-25 0 -46 -5 -66 -14v-36h-32v58c33 17 70 24 105 24c63 0 102 -33 102 -89c0 -42 -29 -70 -66 -82v-1c47 -8 76 -41 76 -84
c0 -60 -39 -94 -116 -94c-40 0 -75 6 -108 24z" />
    <glyph glyph-name="acute" unicode="&#xb4;" horiz-adv-x="290" 
d="M201 700l-77 -140h-55l62 140h70z" />
    <glyph glyph-name="mu" unicode="&#xb5;" horiz-adv-x="590" 
d="M22 441v59h139v-331c0 -69 28 -120 110 -120c66 0 125 41 158 67v325h-88v59h158v-441h68v-59h-138v72h-2c-43 -38 -94 -69 -152 -74c-55 -4 -93 10 -114 47v-61c0 -122 -20 -182 -112 -192c-12 -1 -24 -2 -38 -2c-19 1 -43 3 -65 7l7 55c23 -4 39 -5 54 -5
c67 0 84 38 84 111v483h-69z" />
    <glyph glyph-name="paragraph" unicode="&#xb6;" horiz-adv-x="565" 
d="M389 6v645h-66v-356h-92c-120 0 -201 78 -201 193c0 120 81 192 201 192h273v-29h-82v-622h82v-29h-147v6h32z" />
    <glyph glyph-name="periodcentered" unicode="&#xb7;" horiz-adv-x="192" 
d="M61 311h70v-122h-70v122z" />
    <glyph glyph-name="cedilla" unicode="&#xb8;" horiz-adv-x="294" 
d="M117 -74v74h40v-53c35 -2 76 -23 76 -74c0 -47 -40 -78 -99 -78c-24 0 -42 4 -68 12l5 29c16 -4 30 -9 53 -9c50 0 60 30 60 49c0 20 -13 49 -67 50z" />
    <glyph glyph-name="onesuperior" unicode="&#xb9;" horiz-adv-x="206" 
d="M122 572h62v-32h-161v32h61v274l-58 -6v27l78 16h18v-311z" />
    <glyph glyph-name="ordmasculine" unicode="&#xba;" horiz-adv-x="271" 
d="M136 653c-57 0 -74 -43 -74 -98s17 -98 74 -98c56 0 72 43 72 98s-16 98 -72 98zM136 425c-83 0 -114 53 -114 130s31 130 114 130c82 0 112 -53 112 -130s-30 -130 -112 -130z" />
    <glyph glyph-name="guillemotright" unicode="&#xbb;" horiz-adv-x="667" 
d="M345 435l246 -163v-44l-246 -163v66l172 119l-172 119v66zM76 435l246 -163v-44l-246 -163v66l173 119l-173 119v66z" />
    <glyph glyph-name="onequarter" unicode="&#xbc;" horiz-adv-x="800" 
d="M621 680l-370 -680h-25l370 680h25zM172 372h62v-32h-161v32h61v274l-58 -6v27l78 16h18v-311zM521 131h120v170h-1c-32 -62 -74 -119 -119 -170zM641 32v67h-159v32c55 60 113 131 149 212h47v-212h49v-32h-49v-67h34v-32h-105v32h34z" />
    <glyph glyph-name="onehalf" unicode="&#xbd;" horiz-adv-x="800" 
d="M579 680l-370 -680h-25l370 680h25zM172 372h62v-32h-161v32h61v274l-58 -6v27l78 16h18v-311zM696 68h31v-68h-222v37c148 99 171 161 171 199c0 66 -51 75 -74 75c-21 0 -40 -4 -65 -16v-32h-32v57c35 16 64 25 105 25c73 0 106 -46 106 -101c0 -70 -52 -136 -157 -209
v-1h137v34z" />
    <glyph glyph-name="threequarters" unicode="&#xbe;" horiz-adv-x="800" 
d="M631 680l-370 -680h-25l370 680h25zM72 359v58h32v-37c21 -9 46 -13 73 -13c71 0 80 42 80 64c0 37 -26 63 -86 63h-42v32h40c56 0 80 33 80 66c0 24 -12 61 -72 61c-25 0 -46 -5 -66 -14v-36h-32v58c33 17 70 24 105 24c63 0 102 -33 102 -89c0 -42 -29 -70 -66 -82v-1
c47 -8 76 -41 76 -84c0 -60 -39 -94 -116 -94c-40 0 -75 6 -108 24zM521 131h120v170h-1c-32 -62 -74 -119 -119 -170zM641 32v67h-159v32c55 60 113 131 149 212h47v-212h49v-32h-49v-67h34v-32h-105v32h34z" />
    <glyph glyph-name="questiondown" unicode="&#xbf;" horiz-adv-x="500" 
d="M439 -23v-129c-55 -22 -122 -38 -188 -38c-153 0 -190 94 -190 171c0 180 191 173 191 279v30h63v-30c0 -141 -182 -133 -182 -272c0 -104 90 -112 134 -112c26 0 65 7 113 24v77h59zM319 377h-70v123h70v-123z" />
    <glyph glyph-name="Agrave" unicode="&#xc0;" horiz-adv-x="700" 
d="M312 730l-77 140h69l63 -140h-55zM214 680h193l216 -621h54v-59h-218v59h84l-52 149h-278l-55 -149h79v-59h-215v59h64l204 562h-76v59zM357 614h-1l-127 -351h249z" />
    <glyph glyph-name="Aacute" unicode="&#xc1;" horiz-adv-x="700" 
d="M468 870l-77 -140h-55l62 140h70zM214 680h193l216 -621h54v-59h-218v59h84l-52 149h-278l-55 -149h79v-59h-215v59h64l204 562h-76v59zM357 614h-1l-127 -351h249z" />
    <glyph glyph-name="Acircumflex" unicode="&#xc2;" horiz-adv-x="700" 
d="M349 814l-64 -84h-44l85 127h48l85 -127h-44zM214 680h193l216 -621h54v-59h-218v59h84l-52 149h-278l-55 -149h79v-59h-215v59h64l204 562h-76v59zM357 614h-1l-127 -351h249z" />
    <glyph glyph-name="Atilde" unicode="&#xc3;" horiz-adv-x="700" 
d="M299 795c-24 0 -37 -3 -84 -51l-23 26c41 60 70 78 105 78c48 0 97 -57 131 -57c18 0 39 7 65 49l20 -29c-17 -36 -42 -71 -85 -71c-36 0 -91 55 -129 55zM214 680h193l216 -621h54v-59h-218v59h84l-52 149h-278l-55 -149h79v-59h-215v59h64l204 562h-76v59zM357 614h-1
l-127 -351h249z" />
    <glyph glyph-name="Adieresis" unicode="&#xc4;" horiz-adv-x="700" 
d="M241 827h51v-85h-51v85zM418 827h51v-85h-51v85zM214 680h193l216 -621h54v-59h-218v59h84l-52 149h-278l-55 -149h79v-59h-215v59h64l204 562h-76v59zM357 614h-1l-127 -351h249z" />
    <glyph glyph-name="Aring" unicode="&#xc5;" horiz-adv-x="700" 
d="M264 820c0 49 39 88 88 88s88 -39 88 -88s-39 -88 -88 -88s-88 39 -88 88zM292 820c0 -34 26 -60 60 -60s60 26 60 60s-26 60 -60 60s-60 -26 -60 -60zM214 680h193l216 -621h54v-59h-218v59h84l-52 149h-278l-55 -149h79v-59h-215v59h64l204 562h-76v59zM357 614h-1
l-127 -351h249z" />
    <glyph glyph-name="AE" unicode="&#xc6;" horiz-adv-x="916" 
d="M372 621h-76v59h569v-134h-59v75h-295v-239h304v-58h-304v-265h295v75h59v-134h-428v269h-177l-143 -269h-107v59h59zM435 613l-149 -285h151v285h-2z" />
    <glyph glyph-name="Ccedilla" unicode="&#xc7;" horiz-adv-x="610" 
d="M506 154h59v-130c-73 -21 -142 -32 -208 -33v-44c35 -2 76 -23 76 -74c0 -47 -40 -78 -99 -78c-24 0 -42 4 -68 12l5 29c16 -4 30 -9 53 -9c50 0 60 30 60 49c0 20 -13 49 -67 50v65c-215 8 -266 164 -266 354c0 189 55 345 284 345c76 0 149 -10 230 -34v-130h-59v84
c-74 17 -118 21 -165 21c-174 0 -212 -136 -212 -286c0 -160 38 -296 212 -296c47 0 91 3 165 21v84z" />
    <glyph glyph-name="Egrave" unicode="&#xc8;" horiz-adv-x="570" 
d="M278 730l-77 140h69l63 -140h-55zM22 680h497v-134h-59v75h-295v-239h304v-58h-304v-265h295v75h59v-134h-497v59h69v562h-69v59z" />
    <glyph glyph-name="Eacute" unicode="&#xc9;" horiz-adv-x="570" 
d="M403 870l-77 -140h-55l62 140h70zM22 680h497v-134h-59v75h-295v-239h304v-58h-304v-265h295v75h59v-134h-497v59h69v562h-69v59z" />
    <glyph glyph-name="Ecircumflex" unicode="&#xca;" horiz-adv-x="570" 
d="M307 814l-64 -84h-44l85 127h48l85 -127h-44zM22 680h497v-134h-59v75h-295v-239h304v-58h-304v-265h295v75h59v-134h-497v59h69v562h-69v59z" />
    <glyph glyph-name="Edieresis" unicode="&#xcb;" horiz-adv-x="570" 
d="M180 827h51v-85h-51v85zM357 827h51v-85h-51v85zM22 680h497v-134h-59v75h-295v-239h304v-58h-304v-265h295v75h59v-134h-497v59h69v562h-69v59z" />
    <glyph glyph-name="Igrave" unicode="&#xcc;" horiz-adv-x="256" 
d="M101 730l-77 140h69l63 -140h-55zM22 59h69v562h-69v59h212v-59h-69v-562h69v-59h-212v59z" />
    <glyph glyph-name="Iacute" unicode="&#xcd;" horiz-adv-x="256" 
d="M234 870l-77 -140h-55l62 140h70zM22 59h69v562h-69v59h212v-59h-69v-562h69v-59h-212v59z" />
    <glyph glyph-name="Icircumflex" unicode="&#xce;" horiz-adv-x="256" 
d="M127 814l-64 -84h-44l85 127h48l85 -127h-44zM22 59h69v562h-69v59h212v-59h-69v-562h69v-59h-212v59z" />
    <glyph glyph-name="Idieresis" unicode="&#xcf;" horiz-adv-x="256" 
d="M14 827h51v-85h-51v85zM191 827h51v-85h-51v85zM22 59h69v562h-69v59h212v-59h-69v-562h69v-59h-212v59z" />
    <glyph glyph-name="Eth" unicode="&#xd0;" horiz-adv-x="660" 
d="M22 680h306c217 0 281 -146 281 -335c0 -192 -64 -345 -281 -345h-306v59h69v264h-69v44h69v254h-69v59zM165 59h163c164 0 203 136 203 286s-39 276 -203 276h-163v-254h106v-44h-106v-264z" />
    <glyph glyph-name="Ntilde" unicode="&#xd1;" horiz-adv-x="690" 
d="M301 795c-24 0 -37 -3 -84 -51l-23 26c41 60 70 78 105 78c48 0 97 -57 131 -57c18 0 39 7 65 49l20 -29c-17 -36 -42 -71 -85 -71c-36 0 -91 55 -129 55zM460 680h207v-59h-68v-621h-76l-362 545h-2v-486h71v-59h-208v59h69v562h-69v59h141l366 -554h2v495h-71v59z" />
    <glyph glyph-name="Ograve" unicode="&#xd2;" horiz-adv-x="670" 
d="M320 730l-77 140h69l63 -140h-55zM335 631c-177 0 -206 -136 -206 -286s29 -296 206 -296s206 146 206 296s-29 286 -206 286zM335 -10c-229 0 -284 163 -284 355c0 189 55 345 284 345s284 -156 284 -345c0 -192 -55 -355 -284 -355z" />
    <glyph glyph-name="Oacute" unicode="&#xd3;" horiz-adv-x="670" 
d="M444 870l-77 -140h-55l62 140h70zM335 631c-177 0 -206 -136 -206 -286s29 -296 206 -296s206 146 206 296s-29 286 -206 286zM335 -10c-229 0 -284 163 -284 355c0 189 55 345 284 345s284 -156 284 -345c0 -192 -55 -355 -284 -355z" />
    <glyph glyph-name="Ocircumflex" unicode="&#xd4;" horiz-adv-x="670" 
d="M335 814l-64 -84h-44l85 127h48l85 -127h-44zM335 631c-177 0 -206 -136 -206 -286s29 -296 206 -296s206 146 206 296s-29 286 -206 286zM335 -10c-229 0 -284 163 -284 355c0 189 55 345 284 345s284 -156 284 -345c0 -192 -55 -355 -284 -355z" />
    <glyph glyph-name="Otilde" unicode="&#xd5;" horiz-adv-x="670" 
d="M281 795c-24 0 -37 -3 -84 -51l-23 26c41 60 70 78 105 78c48 0 97 -57 131 -57c18 0 39 7 65 49l20 -29c-17 -36 -42 -71 -85 -71c-36 0 -91 55 -129 55zM335 631c-177 0 -206 -136 -206 -286s29 -296 206 -296s206 146 206 296s-29 286 -206 286zM335 -10
c-229 0 -284 163 -284 355c0 189 55 345 284 345s284 -156 284 -345c0 -192 -55 -355 -284 -355z" />
    <glyph glyph-name="Odieresis" unicode="&#xd6;" horiz-adv-x="670" 
d="M224 827h51v-85h-51v85zM401 827h51v-85h-51v85zM335 631c-177 0 -206 -136 -206 -286s29 -296 206 -296s206 146 206 296s-29 286 -206 286zM335 -10c-229 0 -284 163 -284 355c0 189 55 345 284 345s284 -156 284 -345c0 -192 -55 -355 -284 -355z" />
    <glyph glyph-name="multiply" unicode="&#xd7;" horiz-adv-x="526" 
d="M445 406l-141 -141l141 -141l-41 -41l-141 140l-141 -140l-41 41l140 141l-140 141l41 41l141 -141l141 141z" />
    <glyph glyph-name="Oslash" unicode="&#xd8;" horiz-adv-x="670" 
d="M335 -10c-96 0 -160 29 -203 76l-75 -95l-25 20l79 98c-46 65 -60 157 -60 256c0 189 55 345 284 345c92 0 155 -27 197 -70l81 101l24 -19l-82 -103c48 -64 64 -154 64 -254c0 -192 -55 -355 -284 -355zM335 52c177 0 206 143 206 293c0 70 -7 139 -37 190l-327 -412
c31 -44 80 -71 158 -71zM335 627c-177 0 -206 -132 -206 -282c0 -69 6 -138 34 -190l326 410c-31 38 -79 62 -154 62z" />
    <glyph glyph-name="Ugrave" unicode="&#xd9;" horiz-adv-x="680" 
d="M304 730l-77 140h69l63 -140h-55zM446 680h211v-59h-68v-381c0 -174 -86 -250 -249 -250s-249 76 -249 250v381h-69v59h212v-59h-69v-381c0 -76 11 -191 178 -191c158 0 172 115 172 191v381h-69v59z" />
    <glyph glyph-name="Uacute" unicode="&#xda;" horiz-adv-x="680" 
d="M449 870l-77 -140h-55l62 140h70zM446 680h211v-59h-68v-381c0 -174 -86 -250 -249 -250s-249 76 -249 250v381h-69v59h212v-59h-69v-381c0 -76 11 -191 178 -191c158 0 172 115 172 191v381h-69v59z" />
    <glyph glyph-name="Ucircumflex" unicode="&#xdb;" horiz-adv-x="680" 
d="M345 814l-64 -84h-44l85 127h48l85 -127h-44zM446 680h211v-59h-68v-381c0 -174 -86 -250 -249 -250s-249 76 -249 250v381h-69v59h212v-59h-69v-381c0 -76 11 -191 178 -191c158 0 172 115 172 191v381h-69v59z" />
    <glyph glyph-name="Udieresis" unicode="&#xdc;" horiz-adv-x="680" 
d="M226 827h51v-85h-51v85zM403 827h51v-85h-51v85zM446 680h211v-59h-68v-381c0 -174 -86 -250 -249 -250s-249 76 -249 250v381h-69v59h212v-59h-69v-381c0 -76 11 -191 178 -191c158 0 172 115 172 191v381h-69v59z" />
    <glyph glyph-name="Yacute" unicode="&#xdd;" horiz-adv-x="660" 
d="M452 870l-77 -140h-55l62 140h70zM367 59h69v-59h-212v59h69v166l-213 396h-58v59h236v-59h-99l176 -325h2l174 325h-98v59h224v-59h-54l-216 -396v-166z" />
    <glyph glyph-name="Thorn" unicode="&#xde;" horiz-adv-x="620" 
d="M165 534h201c131 0 203 -80 203 -194c0 -120 -72 -194 -203 -194h-201v-146h-143v59h69v562h-69v59h143v-146zM165 475v-270h194c83 0 134 47 134 135c0 82 -51 135 -134 135h-194z" />
    <glyph glyph-name="germandbls" unicode="&#xdf;" horiz-adv-x="645" 
d="M101 59v390h-79v46l79 5c0 158 106 200 219 200c124 0 199 -52 199 -150c0 -122 -128 -143 -128 -192c0 -25 26 -36 48 -44c117 -41 160 -90 160 -165c0 -118 -98 -159 -195 -159c-50 0 -91 8 -129 20l9 55c43 -14 83 -20 116 -20c116 0 125 79 125 104
c0 86 -100 109 -132 124c-52 23 -69 41 -69 78c0 67 115 84 115 187c0 88 -77 105 -125 105c-123 0 -143 -87 -143 -167v-476h-139v59h69z" />
    <glyph glyph-name="agrave" unicode="&#xe0;" horiz-adv-x="535" 
d="M138 374h-59v116c66 13 133 20 186 20c116 0 179 -36 179 -164v-287h68v-59h-138v50h-2c-48 -39 -95 -60 -160 -60c-80 0 -166 42 -166 142c0 120 106 153 212 153h116v57c0 73 -34 109 -124 109c-26 0 -61 -2 -112 -11v-66zM374 93v148h-108c-111 0 -150 -35 -150 -101
c0 -57 43 -95 119 -95c66 0 114 28 139 48zM249 560l-77 140h69l63 -140h-55z" />
    <glyph glyph-name="aacute" unicode="&#xe1;" horiz-adv-x="535" 
d="M138 374h-59v116c66 13 133 20 186 20c116 0 179 -36 179 -164v-287h68v-59h-138v50h-2c-48 -39 -95 -60 -160 -60c-80 0 -166 42 -166 142c0 120 106 153 212 153h116v57c0 73 -34 109 -124 109c-26 0 -61 -2 -112 -11v-66zM374 93v148h-108c-111 0 -150 -35 -150 -101
c0 -57 43 -95 119 -95c66 0 114 28 139 48zM367 700l-77 -140h-55l62 140h70z" />
    <glyph glyph-name="acircumflex" unicode="&#xe2;" horiz-adv-x="535" 
d="M138 374h-59v116c66 13 133 20 186 20c116 0 179 -36 179 -164v-287h68v-59h-138v50h-2c-48 -39 -95 -60 -160 -60c-80 0 -166 42 -166 142c0 120 106 153 212 153h116v57c0 73 -34 109 -124 109c-26 0 -61 -2 -112 -11v-66zM374 93v148h-108c-111 0 -150 -35 -150 -101
c0 -57 43 -95 119 -95c66 0 114 28 139 48zM269 644l-64 -84h-44l85 127h48l85 -127h-44z" />
    <glyph glyph-name="atilde" unicode="&#xe3;" horiz-adv-x="535" 
d="M138 374h-59v116c66 13 133 20 186 20c116 0 179 -36 179 -164v-287h68v-59h-138v50h-2c-48 -39 -95 -60 -160 -60c-80 0 -166 42 -166 142c0 120 106 153 212 153h116v57c0 73 -34 109 -124 109c-26 0 -61 -2 -112 -11v-66zM374 93v148h-108c-111 0 -150 -35 -150 -101
c0 -57 43 -95 119 -95c66 0 114 28 139 48zM216 625c-24 0 -37 -3 -84 -51l-23 26c41 60 70 78 105 78c48 0 97 -57 131 -57c18 0 39 7 65 49l20 -29c-17 -36 -42 -71 -85 -71c-36 0 -91 55 -129 55z" />
    <glyph glyph-name="adieresis" unicode="&#xe4;" horiz-adv-x="535" 
d="M138 374h-59v116c66 13 133 20 186 20c116 0 179 -36 179 -164v-287h68v-59h-138v50h-2c-48 -39 -95 -60 -160 -60c-80 0 -166 42 -166 142c0 120 106 153 212 153h116v57c0 73 -34 109 -124 109c-26 0 -61 -2 -112 -11v-66zM374 93v148h-108c-111 0 -150 -35 -150 -101
c0 -57 43 -95 119 -95c66 0 114 28 139 48zM155 677h51v-85h-51v85zM332 677h51v-85h-51v85z" />
    <glyph glyph-name="aring" unicode="&#xe5;" horiz-adv-x="535" 
d="M138 374h-59v116c66 13 133 20 186 20c116 0 179 -36 179 -164v-287h68v-59h-138v50h-2c-48 -39 -95 -60 -160 -60c-80 0 -166 42 -166 142c0 120 106 153 212 153h116v57c0 73 -34 109 -124 109c-26 0 -61 -2 -112 -11v-66zM374 93v148h-108c-111 0 -150 -35 -150 -101
c0 -57 43 -95 119 -95c66 0 114 28 139 48zM182 650c0 49 39 88 88 88s88 -39 88 -88s-39 -88 -88 -88s-88 39 -88 88zM210 650c0 -34 26 -60 60 -60s60 26 60 60s-26 60 -60 60s-60 -26 -60 -60z" />
    <glyph glyph-name="ae" unicode="&#xe6;" horiz-adv-x="852" 
d="M235 45c65 0 121 28 159 66c-15 35 -20 78 -20 130h-114c-109 0 -144 -39 -144 -101c0 -57 43 -95 119 -95zM449 287h283c4 16 6 30 6 46c0 64 -33 122 -129 122c-114 0 -153 -75 -160 -168zM800 241h-351c2 -115 51 -192 179 -192c51 0 101 3 156 20l10 -57
c-61 -17 -110 -22 -175 -22c-106 0 -170 34 -207 94c-66 -74 -138 -94 -203 -94c-100 0 -163 56 -163 144c0 117 94 151 215 151h113v54c0 76 -31 112 -124 112c-26 0 -61 -1 -112 -11v-66h-59v116c52 10 121 20 182 20c97 0 143 -30 161 -114c29 69 89 114 190 114
c152 0 197 -88 197 -191c0 -24 -3 -50 -9 -78z" />
    <glyph glyph-name="ccedilla" unicode="&#xe7;" horiz-adv-x="492" 
d="M260 -74v65c-154 10 -209 113 -209 259c0 154 62 260 239 260c62 0 107 -7 167 -22v-114h-58v66c-50 11 -86 11 -109 11c-119 0 -165 -86 -165 -201c0 -114 46 -201 165 -201c34 0 76 0 154 20l13 -57c-56 -14 -99 -21 -157 -22v-43c35 -2 77 -23 77 -74
c0 -47 -40 -78 -99 -78c-24 0 -42 4 -68 12l5 29c16 -4 30 -9 53 -9c50 0 60 30 60 49c0 20 -13 49 -68 50z" />
    <glyph glyph-name="egrave" unicode="&#xe8;" horiz-adv-x="530" 
d="M478 241h-353c2 -112 50 -192 181 -192c51 0 100 3 156 20l9 -57c-60 -17 -110 -22 -175 -22c-181 0 -245 106 -245 260s64 260 239 260c151 0 196 -88 196 -191c0 -24 -2 -50 -8 -78zM286 455c-114 0 -154 -75 -161 -168h285c3 16 5 30 5 46c0 64 -32 122 -129 122z
M259 560l-77 140h69l63 -140h-55z" />
    <glyph glyph-name="eacute" unicode="&#xe9;" horiz-adv-x="530" 
d="M478 241h-353c2 -112 50 -192 181 -192c51 0 100 3 156 20l9 -57c-60 -17 -110 -22 -175 -22c-181 0 -245 106 -245 260s64 260 239 260c151 0 196 -88 196 -191c0 -24 -2 -50 -8 -78zM286 455c-114 0 -154 -75 -161 -168h285c3 16 5 30 5 46c0 64 -32 122 -129 122z
M407 700l-77 -140h-55l62 140h70z" />
    <glyph glyph-name="ecircumflex" unicode="&#xea;" horiz-adv-x="530" 
d="M478 241h-353c2 -112 50 -192 181 -192c51 0 100 3 156 20l9 -57c-60 -17 -110 -22 -175 -22c-181 0 -245 106 -245 260s64 260 239 260c151 0 196 -88 196 -191c0 -24 -2 -50 -8 -78zM286 455c-114 0 -154 -75 -161 -168h285c3 16 5 30 5 46c0 64 -32 122 -129 122z
M288 644l-64 -84h-44l85 127h48l85 -127h-44z" />
    <glyph glyph-name="edieresis" unicode="&#xeb;" horiz-adv-x="530" 
d="M478 241h-353c2 -112 50 -192 181 -192c51 0 100 3 156 20l9 -57c-60 -17 -110 -22 -175 -22c-181 0 -245 106 -245 260s64 260 239 260c151 0 196 -88 196 -191c0 -24 -2 -50 -8 -78zM286 455c-114 0 -154 -75 -161 -168h285c3 16 5 30 5 46c0 64 -32 122 -129 122z
M170 677h51v-85h-51v85zM347 677h51v-85h-51v85z" />
    <glyph glyph-name="igrave" unicode="&#xec;" horiz-adv-x="252" 
d="M22 441v59h139v-441h69v-59h-208v59h69v382h-69zM80 560l-77 140h69l63 -140h-55z" />
    <glyph glyph-name="iacute" unicode="&#xed;" horiz-adv-x="252" 
d="M22 441v59h139v-441h69v-59h-208v59h69v382h-69zM236 700l-77 -140h-55l62 140h70z" />
    <glyph glyph-name="icircumflex" unicode="&#xee;" horiz-adv-x="252" 
d="M118 644l-64 -84h-44l85 127h48l85 -127h-44zM22 441v59h139v-441h69v-59h-208v59h69v382h-69z" />
    <glyph glyph-name="idieresis" unicode="&#xef;" horiz-adv-x="252" 
d="M22 441v59h139v-441h69v-59h-208v59h69v382h-69zM8 677h51v-85h-51v85zM185 677h51v-85h-51v85z" />
    <glyph glyph-name="eth" unicode="&#xf0;" horiz-adv-x="550" 
d="M377 640l76 77l26 -26l-73 -73c57 -60 93 -160 93 -318s-50 -310 -232 -310c-123 0 -216 86 -216 230c0 150 77 235 207 235c68 0 128 -39 169 -97l2 1c-2 54 -13 152 -67 213l-75 -75l-26 27l68 68c-29 23 -66 39 -114 39c-45 0 -82 -6 -133 -24l-10 55
c48 17 84 28 149 28c58 0 112 -15 156 -50zM423 301c-35 52 -87 93 -147 93c-124 0 -151 -98 -151 -174c0 -112 69 -171 147 -171c132 0 156 123 151 252z" />
    <glyph glyph-name="ntilde" unicode="&#xf1;" horiz-adv-x="590" 
d="M364 0v59h65v272c0 69 -27 120 -110 120c-66 0 -125 -41 -158 -67v-325h65v-59h-204v59h69v382h-69v59h139v-73h2c51 49 113 83 186 83c100 0 150 -58 150 -164v-287h68v-59h-203zM245 625c-24 0 -37 -3 -84 -51l-23 26c41 60 70 78 105 78c48 0 97 -57 131 -57
c18 0 39 7 65 49l20 -29c-17 -36 -42 -71 -85 -71c-36 0 -91 55 -129 55z" />
    <glyph glyph-name="ograve" unicode="&#xf2;" horiz-adv-x="550" 
d="M275 451c-116 0 -150 -90 -150 -201s34 -201 150 -201s150 90 150 201s-34 201 -150 201zM275 -10c-163 0 -224 106 -224 260s61 260 224 260s224 -106 224 -260s-61 -260 -224 -260zM253 560l-77 140h69l63 -140h-55z" />
    <glyph glyph-name="oacute" unicode="&#xf3;" horiz-adv-x="550" 
d="M275 451c-116 0 -150 -90 -150 -201s34 -201 150 -201s150 90 150 201s-34 201 -150 201zM275 -10c-163 0 -224 106 -224 260s61 260 224 260s224 -106 224 -260s-61 -260 -224 -260zM384 700l-77 -140h-55l62 140h70z" />
    <glyph glyph-name="ocircumflex" unicode="&#xf4;" horiz-adv-x="550" 
d="M275 451c-116 0 -150 -90 -150 -201s34 -201 150 -201s150 90 150 201s-34 201 -150 201zM275 -10c-163 0 -224 106 -224 260s61 260 224 260s224 -106 224 -260s-61 -260 -224 -260zM274 644l-64 -84h-44l85 127h48l85 -127h-44z" />
    <glyph glyph-name="otilde" unicode="&#xf5;" horiz-adv-x="550" 
d="M275 451c-116 0 -150 -90 -150 -201s34 -201 150 -201s150 90 150 201s-34 201 -150 201zM275 -10c-163 0 -224 106 -224 260s61 260 224 260s224 -106 224 -260s-61 -260 -224 -260zM222 625c-24 0 -37 -3 -84 -51l-23 26c41 60 70 78 105 78c48 0 97 -57 131 -57
c18 0 39 7 65 49l20 -29c-17 -36 -42 -71 -85 -71c-36 0 -91 55 -129 55z" />
    <glyph glyph-name="odieresis" unicode="&#xf6;" horiz-adv-x="550" 
d="M275 451c-116 0 -150 -90 -150 -201s34 -201 150 -201s150 90 150 201s-34 201 -150 201zM275 -10c-163 0 -224 106 -224 260s61 260 224 260s224 -106 224 -260s-61 -260 -224 -260zM161 677h51v-85h-51v85zM338 677h51v-85h-51v85z" />
    <glyph glyph-name="divide" unicode="&#xf7;" horiz-adv-x="500" 
d="M61 287h378v-44h-378v44zM219 165h62v-115h-62v115zM219 480h62v-115h-62v115z" />
    <glyph glyph-name="oslash" unicode="&#xf8;" horiz-adv-x="550" 
d="M275 -10c-69 0 -119 21 -154 56l-64 -75l-25 20l66 76c-33 46 -47 109 -47 183c0 154 61 260 224 260c69 0 119 -21 153 -56l65 75l24 -19l-66 -77c33 -46 48 -109 48 -183c0 -154 -61 -260 -224 -260zM275 49c116 0 150 90 150 201c0 45 -7 88 -26 121l-235 -275
c24 -29 59 -47 111 -47zM275 451c-116 0 -150 -90 -150 -201c0 -45 7 -89 25 -121l235 274c-23 29 -59 48 -110 48z" />
    <glyph glyph-name="ugrave" unicode="&#xf9;" horiz-adv-x="590" 
d="M22 441v59h139v-331c0 -69 28 -120 110 -120c66 0 125 41 158 67v325h-88v59h158v-441h68v-59h-138v72h-2c-51 -48 -113 -82 -186 -82c-100 0 -150 57 -150 164v287h-69zM258 560l-77 140h69l63 -140h-55z" />
    <glyph glyph-name="uacute" unicode="&#xfa;" horiz-adv-x="590" 
d="M22 441v59h139v-331c0 -69 28 -120 110 -120c66 0 125 41 158 67v325h-88v59h158v-441h68v-59h-138v72h-2c-51 -48 -113 -82 -186 -82c-100 0 -150 57 -150 164v287h-69zM391 700l-77 -140h-55l62 140h70z" />
    <glyph glyph-name="ucircumflex" unicode="&#xfb;" horiz-adv-x="590" 
d="M22 441v59h139v-331c0 -69 28 -120 110 -120c66 0 125 41 158 67v325h-88v59h158v-441h68v-59h-138v72h-2c-51 -48 -113 -82 -186 -82c-100 0 -150 57 -150 164v287h-69zM282 644l-64 -84h-44l85 127h48l85 -127h-44z" />
    <glyph glyph-name="udieresis" unicode="&#xfc;" horiz-adv-x="590" 
d="M22 441v59h139v-331c0 -69 28 -120 110 -120c66 0 125 41 158 67v325h-88v59h158v-441h68v-59h-138v72h-2c-51 -48 -113 -82 -186 -82c-100 0 -150 57 -150 164v287h-69zM168 677h51v-85h-51v85zM345 677h51v-85h-51v85z" />
    <glyph glyph-name="yacute" unicode="&#xfd;" horiz-adv-x="580" 
d="M362 441v59h195v-59h-46l-187 -475c-42 -106 -99 -176 -189 -176c-22 0 -48 3 -67 7l7 57c17 -4 32 -5 46 -5c76 0 113 77 137 138l-188 454h-48v59h206v-59h-80l153 -381h2l138 381h-79zM407 700l-77 -140h-55l62 140h70z" />
    <glyph glyph-name="thorn" unicode="&#xfe;" horiz-adv-x="560" 
d="M22 641v59h139v-250h2c38 35 97 60 159 60c140 0 187 -114 187 -260s-50 -260 -190 -260c-61 0 -118 23 -156 58h-2v-189h69v-59h-208v59h69v782h-69zM435 250c0 107 -31 201 -139 201c-61 0 -112 -29 -135 -48v-306c23 -19 74 -48 135 -48c108 0 139 93 139 201z" />
    <glyph glyph-name="ydieresis" unicode="&#xff;" horiz-adv-x="580" 
d="M362 441v59h195v-59h-46l-187 -475c-42 -106 -99 -176 -189 -176c-22 0 -48 3 -67 7l7 57c17 -4 32 -5 46 -5c76 0 113 77 137 138l-188 454h-48v59h206v-59h-80l153 -381h2l138 381h-79zM184 677h51v-85h-51v85zM361 677h51v-85h-51v85z" />
    <glyph glyph-name="breve" unicode="&#x2d8;" horiz-adv-x="408" 
d="M204 621c67 0 87 49 98 89h38c-13 -90 -66 -131 -136 -131c-69 0 -122 41 -135 131h39c10 -40 30 -89 96 -89z" />
    <glyph glyph-name="cyrbreve" horiz-adv-x="408" 
d="M204 621c67 0 87 49 98 89h38c-13 -90 -66 -131 -136 -131c-69 0 -122 41 -135 131h39c10 -40 30 -89 96 -89z" />
    <glyph glyph-name="caron" unicode="&#x2c7;" horiz-adv-x="420" 
d="M145 687l64 -84l66 84h44l-85 -127h-48l-85 127h44z" />
    <glyph glyph-name="commaaccent" unicode="&#xf6c3;" horiz-adv-x="230" 
d="M95 -245h-25l17 106h-26v99h70v-99z" />
    <glyph glyph-name="undercommaaccent" unicode="&#xf005;" horiz-adv-x="230" 
d="M95 -245h-25l17 106h-26v99h70v-99z" />
    <glyph glyph-name="dieresisacute" unicode="&#xf6d7;" horiz-adv-x="630" 
d="M377 730l-95 -170h-40l69 170h66zM81 700h63v-115h-63v115zM461 700h63v-115h-63v115z" />
    <glyph glyph-name="dieresisgrave" unicode="&#xf6d8;" horiz-adv-x="630" 
d="M341 560l-94 170h65l69 -170h-40zM461 700h63v-115h-63v115zM81 700h63v-115h-63v115z" />
    <glyph glyph-name="dotaccent" unicode="&#x2d9;" horiz-adv-x="250" 
d="M81 700h63v-115h-63v115z" />
    <glyph glyph-name="hungarumlaut" unicode="&#x2dd;" horiz-adv-x="460" 
d="M197 700l-85 -140h-40l63 140h62zM367 700l-85 -140h-40l63 140h62z" />
    <glyph glyph-name="dblgrave" unicode="&#xf6d6;" horiz-adv-x="460" 
d="M346 560l-84 140h62l62 -140h-40zM176 560l-84 140h62l62 -140h-40z" />
    <glyph glyph-name="cyrflex" horiz-adv-x="420" 
d="M209 644l-64 -84h-44l85 127h48l85 -127h-44z" />
    <glyph glyph-name="uni02C9" unicode="&#x2c9;" horiz-adv-x="440" 
d="M69 642h302v-51h-302v51z" />
    <glyph glyph-name="ogonek" unicode="&#x2db;" horiz-adv-x="314" 
d="M245 -150l4 -20c-23 -18 -56 -29 -88 -29c-42 0 -83 22 -83 69c0 49 36 94 85 130h38c-41 -31 -74 -78 -74 -115c0 -34 20 -55 57 -55c29 0 47 12 61 20z" />
    <glyph glyph-name="ring" unicode="&#x2da;" horiz-adv-x="300" 
d="M62 650c0 49 39 88 88 88s88 -39 88 -88s-39 -88 -88 -88s-88 39 -88 88zM90 650c0 -34 26 -60 60 -60s60 26 60 60s-26 60 -60 60s-60 -26 -60 -60z" />
    <glyph glyph-name="Acute" horiz-adv-x="290" 
d="M201 870l-77 -140h-55l62 140h70z" />
    <glyph glyph-name="Breve" horiz-adv-x="408" 
d="M204 791c67 0 87 49 98 89h38c-13 -90 -66 -131 -136 -131c-69 0 -122 41 -135 131h39c10 -40 30 -89 96 -89z" />
    <glyph glyph-name="cyrBreve" horiz-adv-x="408" 
d="M204 791c67 0 87 49 98 89h38c-13 -90 -66 -131 -136 -131c-69 0 -122 41 -135 131h39c10 -40 30 -89 96 -89z" />
    <glyph glyph-name="Caron" horiz-adv-x="420" 
d="M145 857l64 -84l66 84h44l-85 -127h-48l-85 127h44z" />
    <glyph glyph-name="Cedilla" horiz-adv-x="294" 
d="M117 -74v74h40v-53c35 -2 76 -23 76 -74c0 -47 -40 -78 -99 -78c-24 0 -42 4 -68 12l5 29c16 -4 30 -9 53 -9c50 0 60 30 60 49c0 20 -13 49 -67 50z" />
    <glyph glyph-name="Circumflex" horiz-adv-x="420" 
d="M209 814l-64 -84h-44l85 127h48l85 -127h-44z" />
    <glyph glyph-name="commaaccent.cap" horiz-adv-x="230" 
d="M95 -245h-25l17 106h-26v99h70v-99z" />
    <glyph glyph-name="Dieresis" horiz-adv-x="480" 
d="M126 827h51v-85h-51v85zM303 827h51v-85h-51v85z" />
    <glyph glyph-name="DieresisAcute" unicode="&#xf6cc;" horiz-adv-x="630" 
d="M377 900l-95 -170h-40l69 170h66zM81 870h63v-115h-63v115zM461 870h63v-115h-63v115z" />
    <glyph glyph-name="DieresisGrave" unicode="&#xf6cd;" horiz-adv-x="630" 
d="M341 730l-94 170h65l69 -170h-40zM461 870h63v-115h-63v115zM81 870h63v-115h-63v115z" />
    <glyph glyph-name="Dotaccent" horiz-adv-x="250" 
d="M81 870h63v-115h-63v115z" />
    <glyph glyph-name="Hungarumlaut" unicode="&#xf6cf;" horiz-adv-x="460" 
d="M197 870l-85 -140h-40l63 140h62zM367 870l-85 -140h-40l63 140h62z" />
    <glyph glyph-name="Grave" horiz-adv-x="290" 
d="M164 730l-77 140h69l63 -140h-55z" />
    <glyph glyph-name="dblGrave" unicode="&#xf6d3;" horiz-adv-x="460" 
d="M346 730l-84 140h62l62 -140h-40zM176 730l-84 140h62l62 -140h-40z" />
    <glyph glyph-name="cyrFlex" horiz-adv-x="420" 
d="M209 814l-64 -84h-44l85 127h48l85 -127h-44z" />
    <glyph glyph-name="Macron" unicode="&#xf6d0;" horiz-adv-x="380" 
d="M69 812h242v-51h-242v51z" />
    <glyph glyph-name="Ogonek" horiz-adv-x="314" 
d="M245 -150l4 -20c-23 -18 -56 -29 -88 -29c-42 0 -83 22 -83 69c0 49 36 94 85 130h38c-41 -31 -74 -78 -74 -115c0 -34 20 -55 57 -55c29 0 47 12 61 20z" />
    <glyph glyph-name="Ring" horiz-adv-x="300" 
d="M62 820c0 49 39 88 88 88s88 -39 88 -88s-39 -88 -88 -88s-88 39 -88 88zM90 820c0 -34 26 -60 60 -60s60 26 60 60s-26 60 -60 60s-60 -26 -60 -60z" />
    <glyph glyph-name="Tilde" horiz-adv-x="450" 
d="M173 795c-24 0 -37 -3 -84 -51l-23 26c41 60 70 78 105 78c48 0 97 -57 131 -57c18 0 39 7 65 49l20 -29c-17 -36 -42 -71 -85 -71c-36 0 -91 55 -129 55z" />
    <glyph glyph-name="Acutesmall" horiz-adv-x="290" 
d="M201 780l-77 -140h-55l62 140h70z" />
    <glyph glyph-name="Brevesmall" unicode="&#xf6f4;" horiz-adv-x="408" 
d="M204 701c67 0 87 49 98 89h38c-13 -90 -66 -131 -136 -131c-69 0 -122 41 -135 131h39c10 -40 30 -89 96 -89z" />
    <glyph glyph-name="Caronsmall" unicode="&#xf6f5;" horiz-adv-x="420" 
d="M145 767l64 -84l66 84h44l-85 -127h-48l-85 127h44z" />
    <glyph glyph-name="Cedillasmall" horiz-adv-x="294" 
d="M117 -74v74h40v-53c35 -2 76 -23 76 -74c0 -47 -40 -78 -99 -78c-24 0 -42 4 -68 12l5 29c16 -4 30 -9 53 -9c50 0 60 30 60 49c0 20 -13 49 -67 50z" />
    <glyph glyph-name="Circumflexsmall" unicode="&#xf6f6;" horiz-adv-x="420" 
d="M209 724l-64 -84h-44l85 127h48l85 -127h-44z" />
    <glyph glyph-name="commaaccent.small" horiz-adv-x="230" 
d="M95 -245h-25l17 106h-26v99h70v-99z" />
    <glyph glyph-name="Dieresissmall" unicode="&#xf7a8;" horiz-adv-x="480" 
d="M126 737h51v-85h-51v85zM303 737h51v-85h-51v85z" />
    <glyph glyph-name="DieresisAcute.small" horiz-adv-x="630" 
d="M377 810l-95 -170h-40l69 170h66zM81 780h63v-115h-63v115zM461 780h63v-115h-63v115z" />
    <glyph glyph-name="DieresisGrave.small" horiz-adv-x="630" 
d="M341 640l-94 170h65l69 -170h-40zM461 780h63v-115h-63v115zM81 780h63v-115h-63v115z" />
    <glyph glyph-name="Dotaccentsmall" unicode="&#xf6f7;" horiz-adv-x="250" 
d="M81 780h63v-115h-63v115z" />
    <glyph glyph-name="Hungarumlautsmall" unicode="&#xf6f8;" horiz-adv-x="460" 
d="M197 780l-85 -140h-40l63 140h62zM367 780l-85 -140h-40l63 140h62z" />
    <glyph glyph-name="Gravesmall" unicode="&#xf760;" horiz-adv-x="290" 
d="M164 640l-77 140h69l63 -140h-55z" />
    <glyph glyph-name="dblGrave.small" horiz-adv-x="460" 
d="M346 640l-84 140h62l62 -140h-40zM176 640l-84 140h62l62 -140h-40z" />
    <glyph glyph-name="Macronsmall" unicode="&#xf7af;" horiz-adv-x="380" 
d="M69 722h242v-51h-242v51z" />
    <glyph glyph-name="Ogoneksmall" unicode="&#xf6fb;" horiz-adv-x="314" 
d="M245 -150l4 -20c-23 -18 -56 -29 -88 -29c-42 0 -83 22 -83 69c0 49 36 94 85 130h38c-41 -31 -74 -78 -74 -115c0 -34 20 -55 57 -55c29 0 47 12 61 20z" />
    <glyph glyph-name="Ringsmall" unicode="&#xf6fc;" horiz-adv-x="300" 
d="M62 730c0 49 39 88 88 88s88 -39 88 -88s-39 -88 -88 -88s-88 39 -88 88zM90 730c0 -34 26 -60 60 -60s60 26 60 60s-26 60 -60 60s-60 -26 -60 -60z" />
    <glyph glyph-name="Tildesmall" unicode="&#xf6fe;" horiz-adv-x="450" 
d="M173 705c-24 0 -37 -3 -84 -51l-23 26c41 60 70 78 105 78c48 0 97 -57 131 -57c18 0 39 7 65 49l20 -29c-17 -36 -42 -71 -85 -71c-36 0 -91 55 -129 55z" />
    <glyph glyph-name="middot" horiz-adv-x="250" 
d="M81 367h63v-115h-63v115z" />
    <glyph glyph-name="Abreve" unicode="&#x102;" horiz-adv-x="700" 
d="M351 791c67 0 87 49 98 89h38c-13 -90 -66 -131 -136 -131c-69 0 -122 41 -135 131h39c10 -40 30 -89 96 -89zM214 680h193l216 -621h54v-59h-218v59h84l-52 149h-278l-55 -149h79v-59h-215v59h64l204 562h-76v59zM357 614h-1l-127 -351h249z" />
    <glyph glyph-name="Amacron" unicode="&#x100;" horiz-adv-x="700" 
d="M230 812h242v-51h-242v51zM214 680h193l216 -621h54v-59h-218v59h84l-52 149h-278l-55 -149h79v-59h-215v59h64l204 562h-76v59zM357 614h-1l-127 -351h249z" />
    <glyph glyph-name="Aogonek" unicode="&#x104;" horiz-adv-x="700" 
d="M648 -150l4 -20c-23 -18 -55 -29 -87 -29c-43 0 -83 22 -83 69c0 49 36 94 85 130h-108v59h84l-52 149h-278l-55 -149h79v-59h-215v59h64l204 562h-76v59h193l216 -621h54v-59h-73c-41 -31 -74 -78 -74 -115c0 -34 20 -55 57 -55c30 0 47 12 61 20zM357 614h-1l-127 -351
h249z" />
    <glyph glyph-name="AEacute" unicode="&#x1fc;" horiz-adv-x="916" 
d="M592 870l-77 -140h-55l62 140h70zM372 621h-76v59h569v-134h-59v75h-295v-239h304v-58h-304v-265h295v75h59v-134h-428v269h-177l-143 -269h-107v59h59zM435 613l-149 -285h151v285h-2z" />
    <glyph glyph-name="Cacute" unicode="&#x106;" horiz-adv-x="610" 
d="M456 870l-77 -140h-55l62 140h70zM506 154h59v-130c-81 -24 -154 -34 -230 -34c-229 0 -284 160 -284 355c0 189 55 345 284 345c76 0 149 -10 230 -34v-130h-59v84c-74 17 -118 21 -165 21c-174 0 -212 -136 -212 -286c0 -160 38 -296 212 -296c47 0 91 3 165 21v84z
" />
    <glyph glyph-name="Ccaron" unicode="&#x10c;" horiz-adv-x="610" 
d="M283 857l64 -84l66 84h44l-85 -127h-48l-85 127h44zM506 154h59v-130c-81 -24 -154 -34 -230 -34c-229 0 -284 160 -284 355c0 189 55 345 284 345c76 0 149 -10 230 -34v-130h-59v84c-74 17 -118 21 -165 21c-174 0 -212 -136 -212 -286c0 -160 38 -296 212 -296
c47 0 91 3 165 21v84z" />
    <glyph glyph-name="Ccircumflex" unicode="&#x108;" horiz-adv-x="610" 
d="M356 814l-64 -84h-44l85 127h48l85 -127h-44zM506 154h59v-130c-81 -24 -154 -34 -230 -34c-229 0 -284 160 -284 355c0 189 55 345 284 345c76 0 149 -10 230 -34v-130h-59v84c-74 17 -118 21 -165 21c-174 0 -212 -136 -212 -286c0 -160 38 -296 212 -296
c47 0 91 3 165 21v84z" />
    <glyph glyph-name="Cdotaccent" unicode="&#x10a;" horiz-adv-x="610" 
d="M315 870h63v-115h-63v115zM506 154h59v-130c-81 -24 -154 -34 -230 -34c-229 0 -284 160 -284 355c0 189 55 345 284 345c76 0 149 -10 230 -34v-130h-59v84c-74 17 -118 21 -165 21c-174 0 -212 -136 -212 -286c0 -160 38 -296 212 -296c47 0 91 3 165 21v84z" />
    <glyph glyph-name="Dcaron" unicode="&#x10e;" horiz-adv-x="660" 
d="M246 857l64 -84l66 84h44l-85 -127h-48l-85 127h44zM22 680h306c217 0 281 -146 281 -335c0 -192 -64 -345 -281 -345h-306v59h69v562h-69v59zM165 59h163c164 0 203 136 203 286s-39 276 -203 276h-163v-562z" />
    <glyph glyph-name="Dcroat" unicode="&#x110;" horiz-adv-x="660" 
d="M22 680h306c217 0 281 -146 281 -335c0 -192 -64 -345 -281 -345h-306v59h69v264h-69v44h69v254h-69v59zM165 59h163c164 0 203 136 203 286s-39 276 -203 276h-163v-254h106v-44h-106v-264z" />
    <glyph glyph-name="Ebreve" unicode="&#x114;" horiz-adv-x="570" 
d="M311 791c67 0 87 49 98 89h38c-13 -90 -66 -131 -136 -131c-69 0 -122 41 -135 131h39c10 -40 30 -89 96 -89zM22 680h497v-134h-59v75h-295v-239h304v-58h-304v-265h295v75h59v-134h-497v59h69v562h-69v59z" />
    <glyph glyph-name="Ecaron" unicode="&#x11a;" horiz-adv-x="570" 
d="M234 857l64 -84l66 84h44l-85 -127h-48l-85 127h44zM22 680h497v-134h-59v75h-295v-239h304v-58h-304v-265h295v75h59v-134h-497v59h69v562h-69v59z" />
    <glyph glyph-name="Edotaccent" unicode="&#x116;" horiz-adv-x="570" 
d="M262 870h63v-115h-63v115zM22 680h497v-134h-59v75h-295v-239h304v-58h-304v-265h295v75h59v-134h-497v59h69v562h-69v59z" />
    <glyph glyph-name="Emacron" unicode="&#x112;" horiz-adv-x="570" 
d="M172 812h242v-51h-242v51zM22 680h497v-134h-59v75h-295v-239h304v-58h-304v-265h295v75h59v-134h-497v59h69v562h-69v59z" />
    <glyph glyph-name="Eogonek" unicode="&#x118;" horiz-adv-x="570" 
d="M22 680h497v-134h-59v75h-295v-239h304v-58h-304v-265h295v75h59v-134c-41 -31 -75 -78 -75 -115c0 -34 20 -55 57 -55c30 0 48 12 61 20l5 -20c-23 -18 -56 -29 -88 -29c-42 0 -83 22 -83 69c0 49 36 94 85 130h-459v59h69v562h-69v59z" />
    <glyph glyph-name="Gbreve" unicode="&#x11e;" horiz-adv-x="620" 
d="M347 791c67 0 87 49 98 89h38c-13 -90 -66 -131 -136 -131c-69 0 -122 41 -135 131h39c10 -40 30 -89 96 -89zM129 345c0 -154 51 -293 212 -293c57 0 109 16 150 42v182h-142v59h216v-288c-61 -28 -131 -57 -230 -57c-217 0 -284 163 -284 355c0 189 55 345 284 345
c76 0 149 -10 230 -34v-130h-59v84c-74 17 -118 21 -165 21c-174 0 -212 -136 -212 -286z" />
    <glyph glyph-name="Gcircumflex" unicode="&#x11c;" horiz-adv-x="620" 
d="M355 814l-64 -84h-44l85 127h48l85 -127h-44zM129 345c0 -154 51 -293 212 -293c57 0 109 16 150 42v182h-142v59h216v-288c-61 -28 -131 -57 -230 -57c-217 0 -284 163 -284 355c0 189 55 345 284 345c76 0 149 -10 230 -34v-130h-59v84c-74 17 -118 21 -165 21
c-174 0 -212 -136 -212 -286z" />
    <glyph glyph-name="Gcommaaccent" unicode="&#x122;" horiz-adv-x="620" 
d="M129 345c0 -154 51 -293 212 -293c57 0 109 16 150 42v182h-142v59h216v-288c-61 -28 -131 -57 -230 -57c-217 0 -284 163 -284 355c0 189 55 345 284 345c76 0 149 -10 230 -34v-130h-59v84c-74 17 -118 21 -165 21c-174 0 -212 -136 -212 -286zM336 -245h-25l17 106
h-26v99h70v-99z" />
    <glyph glyph-name="Gdotaccent" unicode="&#x120;" horiz-adv-x="620" 
d="M315 870h63v-115h-63v115zM129 345c0 -154 51 -293 212 -293c57 0 109 16 150 42v182h-142v59h216v-288c-61 -28 -131 -57 -230 -57c-217 0 -284 163 -284 355c0 189 55 345 284 345c76 0 149 -10 230 -34v-130h-59v84c-74 17 -118 21 -165 21
c-174 0 -212 -136 -212 -286z" />
    <glyph glyph-name="Hbar" unicode="&#x126;" horiz-adv-x="680" 
d="M446 59h69v265h-350v-265h69v-59h-212v59h69v450h-62v25h62v87h-69v59h212v-59h-69v-87h350v87h-69v59h211v-59h-68v-87h62v-25h-62v-450h68v-59h-211v59zM165 382h350v127h-350v-127z" />
    <glyph glyph-name="Hcircumflex" unicode="&#x124;" horiz-adv-x="680" 
d="M339 814l-64 -84h-44l85 127h48l85 -127h-44zM446 59h69v265h-350v-265h69v-59h-212v59h69v562h-69v59h212v-59h-69v-239h350v239h-69v59h211v-59h-68v-562h68v-59h-211v59z" />
    <glyph glyph-name="Ibreve" unicode="&#x12c;" horiz-adv-x="256" 
d="M127 791c67 0 87 49 98 89h38c-13 -90 -66 -131 -136 -131c-69 0 -122 41 -135 131h39c10 -40 30 -89 96 -89zM22 59h69v562h-69v59h212v-59h-69v-562h69v-59h-212v59z" />
    <glyph glyph-name="Idotaccent" unicode="&#x130;" horiz-adv-x="256" 
d="M97 870h63v-115h-63v115zM22 59h69v562h-69v59h212v-59h-69v-562h69v-59h-212v59z" />
    <glyph glyph-name="Imacron" unicode="&#x12a;" horiz-adv-x="256" 
d="M7 812h242v-51h-242v51zM22 59h69v562h-69v59h212v-59h-69v-562h69v-59h-212v59z" />
    <glyph glyph-name="Iogonek" unicode="&#x12e;" horiz-adv-x="256" 
d="M200 -150l4 -20c-23 -18 -56 -29 -88 -29c-42 0 -83 22 -83 69c0 49 36 94 85 130h-96v59h69v562h-69v59h212v-59h-69v-562h69v-59h-78c-41 -31 -74 -78 -74 -115c0 -34 20 -55 57 -55c29 0 47 12 61 20z" />
    <glyph glyph-name="Itilde" unicode="&#x128;" horiz-adv-x="256" 
d="M75 795c-24 0 -37 -3 -84 -51l-23 26c41 60 70 78 105 78c48 0 97 -57 131 -57c18 0 39 7 65 49l20 -29c-17 -36 -42 -71 -85 -71c-36 0 -91 55 -129 55zM22 59h69v562h-69v59h212v-59h-69v-562h69v-59h-212v59z" />
    <glyph glyph-name="IJ" unicode="&#x132;" horiz-adv-x="590" 
d="M22 59h69v562h-69v59h212v-59h-69v-562h69v-59h-212v59zM356 680h211v-59h-68v-456c0 -132 -55 -175 -150 -175c-30 0 -60 3 -86 7l7 59c24 -4 41 -5 60 -5c67 0 95 34 95 114v456h-69v59z" />
    <glyph glyph-name="Jcircumflex" unicode="&#x134;" horiz-adv-x="346" 
d="M217 814l-64 -84h-44l85 127h48l85 -127h-44zM112 680h212v-59h-69v-456c0 -132 -55 -175 -150 -175c-30 0 -60 3 -86 7l7 59c24 -4 41 -5 60 -5c68 0 95 34 95 114v456h-69v59z" />
    <glyph glyph-name="Kcommaaccent" unicode="&#x136;" horiz-adv-x="680" 
d="M327 -238h-25l17 106h-26v99h70v-99zM22 680h212v-59h-69v-329l316 329h-77v59h243v-59h-78l-216 -222l231 -340h73v-59h-247v59h81l-194 288l-132 -135v-153h69v-59h-212v59h69v562h-69v59z" />
    <glyph glyph-name="Lacute" unicode="&#x139;" horiz-adv-x="550" 
d="M239 870l-77 -140h-55l62 140h70zM456 134h59v-134h-493v59h69v562h-69v59h212v-59h-69v-562h291v75z" />
    <glyph glyph-name="Lcaron" unicode="&#x13d;" horiz-adv-x="550" 
d="M340 475h-25l17 106h-26v99h70v-99zM456 134h59v-134h-493v59h69v562h-69v59h212v-59h-69v-562h291v75z" />
    <glyph glyph-name="Lcommaaccent" unicode="&#x13b;" horiz-adv-x="550" 
d="M290 -242h-25l17 106h-26v99h70v-99zM456 134h59v-134h-493v59h69v562h-69v59h212v-59h-69v-562h291v75z" />
    <glyph glyph-name="Ldot" unicode="&#x13f;" horiz-adv-x="550" 
d="M291 412h63v-115h-63v115zM456 134h59v-134h-493v59h69v562h-69v59h212v-59h-69v-562h291v75z" />
    <glyph glyph-name="Lslash" unicode="&#x141;" horiz-adv-x="550" 
d="M22 332l69 19v270h-69v59h212v-59h-69v-248l69 20v-36l-69 -20v-278h291v75h59v-134h-493v59h69v256l-69 -19v36z" />
    <glyph glyph-name="Nacute" unicode="&#x143;" horiz-adv-x="690" 
d="M456 870l-77 -140h-55l62 140h70zM460 680h207v-59h-68v-621h-76l-362 545h-2v-486h71v-59h-208v59h69v562h-69v59h141l366 -554h2v495h-71v59z" />
    <glyph glyph-name="Ncaron" unicode="&#x147;" horiz-adv-x="690" 
d="M281 857l64 -84l66 84h44l-85 -127h-48l-85 127h44zM460 680h207v-59h-68v-621h-76l-362 545h-2v-486h71v-59h-208v59h69v562h-69v59h141l366 -554h2v495h-71v59z" />
    <glyph glyph-name="Ncommaaccent" unicode="&#x145;" horiz-adv-x="690" 
d="M345 -245h-25l17 106h-26v99h70v-99zM460 680h207v-59h-68v-621h-76l-362 545h-2v-486h71v-59h-208v59h69v562h-69v59h141l366 -554h2v495h-71v59z" />
    <glyph glyph-name="Obreve" unicode="&#x14e;" horiz-adv-x="670" 
d="M335 791c67 0 87 49 98 89h38c-13 -90 -66 -131 -136 -131c-69 0 -122 41 -135 131h39c10 -40 30 -89 96 -89zM335 631c-177 0 -206 -136 -206 -286s29 -296 206 -296s206 146 206 296s-29 286 -206 286zM335 -10c-229 0 -284 163 -284 355c0 189 55 345 284 345
s284 -156 284 -345c0 -192 -55 -355 -284 -355z" />
    <glyph glyph-name="Ohungarumlaut" unicode="&#x150;" horiz-adv-x="670" 
d="M347 870l-85 -140h-40l63 140h62zM517 870l-85 -140h-40l63 140h62zM335 631c-177 0 -206 -136 -206 -286s29 -296 206 -296s206 146 206 296s-29 286 -206 286zM335 -10c-229 0 -284 163 -284 355c0 189 55 345 284 345s284 -156 284 -345c0 -192 -55 -355 -284 -355z
" />
    <glyph glyph-name="Omacron" unicode="&#x14c;" horiz-adv-x="670" 
d="M215 812h242v-51h-242v51zM335 631c-177 0 -206 -136 -206 -286s29 -296 206 -296s206 146 206 296s-29 286 -206 286zM335 -10c-229 0 -284 163 -284 355c0 189 55 345 284 345s284 -156 284 -345c0 -192 -55 -355 -284 -355z" />
    <glyph glyph-name="Oslashacute" unicode="&#x1fe;" horiz-adv-x="670" 
d="M438 870l-77 -140h-55l62 140h70zM335 -10c-96 0 -160 29 -203 76l-75 -95l-25 20l79 98c-46 65 -60 157 -60 256c0 189 55 345 284 345c92 0 155 -27 197 -70l81 101l24 -19l-82 -103c48 -64 64 -154 64 -254c0 -192 -55 -355 -284 -355zM335 52c177 0 206 143 206 293
c0 70 -7 139 -37 190l-327 -412c31 -44 80 -71 158 -71zM335 627c-177 0 -206 -132 -206 -282c0 -69 6 -138 34 -190l326 410c-31 38 -79 62 -154 62z" />
    <glyph glyph-name="Racute" unicode="&#x154;" horiz-adv-x="650" 
d="M402 870l-77 -140h-55l62 140h70zM22 680h344c131 0 203 -84 203 -198c0 -98 -58 -174 -155 -187l162 -236h51v-59h-220v59h76l-150 225h-168v-225h69v-59h-212v59h69v562h-69v59zM165 621v-279h187c84 0 141 52 141 140c0 82 -51 139 -134 139h-194z" />
    <glyph glyph-name="Rcaron" unicode="&#x158;" horiz-adv-x="650" 
d="M248 857l64 -84l66 84h44l-85 -127h-48l-85 127h44zM22 680h344c131 0 203 -84 203 -198c0 -98 -58 -174 -155 -187l162 -236h51v-59h-220v59h76l-150 225h-168v-225h69v-59h-212v59h69v562h-69v59zM165 621v-279h187c84 0 141 52 141 140c0 82 -51 139 -134 139h-194z
" />
    <glyph glyph-name="Rcommaaccent" unicode="&#x156;" horiz-adv-x="650" 
d="M320 -239h-25l17 106h-26v99h70v-99zM22 680h344c131 0 203 -84 203 -198c0 -98 -58 -174 -155 -187l162 -236h51v-59h-220v59h76l-150 225h-168v-225h69v-59h-212v59h69v562h-69v59zM165 621v-279h187c84 0 141 52 141 140c0 82 -51 139 -134 139h-194z" />
    <glyph glyph-name="Sacute" unicode="&#x15a;" horiz-adv-x="580" 
d="M409 870l-77 -140h-55l62 140h70zM51 157h59v-81c79 -19 131 -24 180 -24c119 0 161 65 161 125c0 92 -106 118 -176 137c-107 27 -218 86 -218 201c0 126 102 175 229 175c74 0 144 -10 225 -34v-134h-59v84c-75 18 -118 21 -166 21c-115 0 -151 -52 -151 -110
c0 -88 113 -124 185 -141c107 -24 209 -74 209 -191c0 -130 -102 -195 -239 -195c-74 0 -158 10 -239 34v133z" />
    <glyph glyph-name="Scedilla" unicode="&#x15e;" horiz-adv-x="580" 
d="M265 -74v65c-68 2 -143 11 -214 33v133h59v-81c79 -19 131 -24 180 -24c119 0 161 65 161 125c0 92 -106 118 -176 137c-107 27 -218 86 -218 201c0 126 102 175 229 175c74 0 144 -10 225 -34v-134h-59v84c-75 18 -118 21 -166 21c-115 0 -151 -52 -151 -110
c0 -88 113 -124 185 -141c107 -24 209 -74 209 -191c0 -125 -94 -190 -224 -194v-44c35 -2 76 -23 76 -74c0 -47 -39 -78 -98 -78c-24 0 -42 4 -68 12l5 29c16 -4 30 -9 53 -9c49 0 60 30 60 49c0 20 -13 49 -68 50z" />
    <glyph glyph-name="Scircumflex" unicode="&#x15c;" horiz-adv-x="580" 
d="M297 814l-64 -84h-44l85 127h48l85 -127h-44zM51 157h59v-81c79 -19 131 -24 180 -24c119 0 161 65 161 125c0 92 -106 118 -176 137c-107 27 -218 86 -218 201c0 126 102 175 229 175c74 0 144 -10 225 -34v-134h-59v84c-75 18 -118 21 -166 21
c-115 0 -151 -52 -151 -110c0 -88 113 -124 185 -141c107 -24 209 -74 209 -191c0 -130 -102 -195 -239 -195c-74 0 -158 10 -239 34v133z" />
    <glyph glyph-name="Scommaaccent" unicode="&#x218;" horiz-adv-x="580" 
d="M292 -245h-25l17 106h-26v99h70v-99zM51 157h59v-81c79 -19 131 -24 180 -24c119 0 161 65 161 125c0 92 -106 118 -176 137c-107 27 -218 86 -218 201c0 126 102 175 229 175c74 0 144 -10 225 -34v-134h-59v84c-75 18 -118 21 -166 21c-115 0 -151 -52 -151 -110
c0 -88 113 -124 185 -141c107 -24 209 -74 209 -191c0 -130 -102 -195 -239 -195c-74 0 -158 10 -239 34v133z" />
    <glyph glyph-name="Tbar" unicode="&#x166;" horiz-adv-x="580" 
d="M47 680h485v-134h-58v75h-147v-289h89v-44h-89v-229h69v-59h-212v59h69v229h-89v44h89v289h-147v-75h-59v134z" />
    <glyph glyph-name="Tcaron" unicode="&#x164;" horiz-adv-x="580" 
d="M226 857l64 -84l66 84h44l-85 -127h-48l-85 127h44zM47 680h485v-134h-58v75h-147v-562h69v-59h-212v59h69v562h-147v-75h-59v134z" />
    <glyph glyph-name="Tcommaaccent" unicode="&#x162;" horiz-adv-x="580" 
d="M289 -245h-25l17 106h-26v99h70v-99zM47 680h485v-134h-58v75h-147v-562h69v-59h-212v59h69v562h-147v-75h-59v134z" />
    <glyph glyph-name="uni021A" unicode="&#x21a;" horiz-adv-x="580" 
d="M288 -242h-25l17 106h-26v99h70v-99zM47 680h485v-134h-58v75h-147v-562h69v-59h-212v59h69v562h-147v-75h-59v134z" />
    <glyph glyph-name="T_h" horiz-adv-x="1060" 
d="M47 680h584v-253h2c51 49 113 83 186 83c100 0 150 -58 150 -164v-287h68v-59h-203v59h65v272c0 69 -27 120 -110 120c-66 0 -125 -41 -158 -67v-325h65v-59h-204v59h69v562h-234v-562h69v-59h-212v59h69v562h-147v-75h-59v134z" />
    <glyph glyph-name="T_h.caron" horiz-adv-x="1060" 
d="M47 680h584v-253h2c51 49 113 83 186 83c100 0 150 -58 150 -164v-287h68v-59h-203v59h65v272c0 69 -27 120 -110 120c-66 0 -125 -41 -158 -67v-325h65v-59h-204v59h69v562h-234v-562h69v-59h-212v59h69v562h-147v-75h-59v134zM226 857l64 -84l66 84h44l-85 -127h-48
l-85 127h44z" />
    <glyph glyph-name="T_h.commaaccent" horiz-adv-x="1060" 
d="M47 680h584v-253h2c51 49 113 83 186 83c100 0 150 -58 150 -164v-287h68v-59h-203v59h65v272c0 69 -27 120 -110 120c-66 0 -125 -41 -158 -67v-325h65v-59h-204v59h69v562h-234v-562h69v-59h-212v59h69v562h-147v-75h-59v134zM289 -245h-25l17 106h-26v99h70v-99z" />
    <glyph glyph-name="Ubreve" unicode="&#x16c;" horiz-adv-x="680" 
d="M340 791c67 0 87 49 98 89h38c-13 -90 -66 -131 -136 -131c-69 0 -122 41 -135 131h39c10 -40 30 -89 96 -89zM446 680h211v-59h-68v-381c0 -174 -86 -250 -249 -250s-249 76 -249 250v381h-69v59h212v-59h-69v-381c0 -76 11 -191 178 -191c158 0 172 115 172 191v381
h-69v59z" />
    <glyph glyph-name="Uhungarumlaut" unicode="&#x170;" horiz-adv-x="680" 
d="M355 870l-85 -140h-40l63 140h62zM525 870l-85 -140h-40l63 140h62zM446 680h211v-59h-68v-381c0 -174 -86 -250 -249 -250s-249 76 -249 250v381h-69v59h212v-59h-69v-381c0 -76 11 -191 178 -191c158 0 172 115 172 191v381h-69v59z" />
    <glyph glyph-name="Umacron" unicode="&#x16a;" horiz-adv-x="680" 
d="M219 812h242v-51h-242v51zM446 680h211v-59h-68v-381c0 -174 -86 -250 -249 -250s-249 76 -249 250v381h-69v59h212v-59h-69v-381c0 -76 11 -191 178 -191c158 0 172 115 172 191v381h-69v59z" />
    <glyph glyph-name="Uogonek" unicode="&#x172;" horiz-adv-x="680" 
d="M446 680h211v-59h-68v-381c0 -167 -79 -244 -232 -250c-36 -30 -62 -72 -62 -105c0 -34 19 -55 56 -55c30 0 48 12 61 20l5 -20c-23 -18 -56 -29 -88 -29c-42 0 -83 22 -83 69c0 45 30 87 73 121c-152 6 -228 83 -228 249v381h-69v59h212v-59h-69v-381
c0 -76 11 -191 178 -191c158 0 172 115 172 191v381h-69v59z" />
    <glyph glyph-name="Uring" unicode="&#x16e;" horiz-adv-x="680" 
d="M254 820c0 49 39 88 88 88s88 -39 88 -88s-39 -88 -88 -88s-88 39 -88 88zM282 820c0 -34 26 -60 60 -60s60 26 60 60s-26 60 -60 60s-60 -26 -60 -60zM446 680h211v-59h-68v-381c0 -174 -86 -250 -249 -250s-249 76 -249 250v381h-69v59h212v-59h-69v-381
c0 -76 11 -191 178 -191c158 0 172 115 172 191v381h-69v59z" />
    <glyph glyph-name="Utilde" unicode="&#x168;" horiz-adv-x="680" 
d="M285 795c-24 0 -37 -3 -84 -51l-23 26c41 60 70 78 105 78c48 0 97 -57 131 -57c18 0 39 7 65 49l20 -29c-17 -36 -42 -71 -85 -71c-36 0 -91 55 -129 55zM446 680h211v-59h-68v-381c0 -174 -86 -250 -249 -250s-249 76 -249 250v381h-69v59h212v-59h-69v-381
c0 -76 11 -191 178 -191c158 0 172 115 172 191v381h-69v59z" />
    <glyph glyph-name="Wacute" unicode="&#x1e82;" horiz-adv-x="980" 
d="M604 870l-77 -140h-55l62 140h70zM22 680h232v-59h-98l143 -533h1l156 592h80l159 -592h1l140 533h-99v59h220v-59h-49l-169 -626h-99l-149 552h-2l-145 -552h-100l-172 626h-50v59z" />
    <glyph glyph-name="Wcircumflex" unicode="&#x174;" horiz-adv-x="980" 
d="M487 814l-64 -84h-44l85 127h48l85 -127h-44zM22 680h232v-59h-98l143 -533h1l156 592h80l159 -592h1l140 533h-99v59h220v-59h-49l-169 -626h-99l-149 552h-2l-145 -552h-100l-172 626h-50v59z" />
    <glyph glyph-name="Wdieresis" unicode="&#x1e84;" horiz-adv-x="980" 
d="M381 827h51v-85h-51v85zM558 827h51v-85h-51v85zM22 680h232v-59h-98l143 -533h1l156 592h80l159 -592h1l140 533h-99v59h220v-59h-49l-169 -626h-99l-149 552h-2l-145 -552h-100l-172 626h-50v59z" />
    <glyph glyph-name="Wgrave" unicode="&#x1e80;" horiz-adv-x="980" 
d="M464 730l-77 140h69l63 -140h-55zM22 680h232v-59h-98l143 -533h1l156 592h80l159 -592h1l140 533h-99v59h220v-59h-49l-169 -626h-99l-149 552h-2l-145 -552h-100l-172 626h-50v59z" />
    <glyph glyph-name="Ycircumflex" unicode="&#x176;" horiz-adv-x="660" 
d="M337 814l-64 -84h-44l85 127h48l85 -127h-44zM367 59h69v-59h-212v59h69v166l-213 396h-58v59h236v-59h-99l176 -325h2l174 325h-98v59h224v-59h-54l-216 -396v-166z" />
    <glyph glyph-name="Ygrave" unicode="&#x1ef2;" horiz-adv-x="660" 
d="M310 730l-77 140h69l63 -140h-55zM367 59h69v-59h-212v59h69v166l-213 396h-58v59h236v-59h-99l176 -325h2l174 325h-98v59h224v-59h-54l-216 -396v-166z" />
    <glyph glyph-name="Zacute" unicode="&#x179;" horiz-adv-x="560" 
d="M387 870l-77 -140h-55l62 140h70zM59 680h446v-55l-368 -564v-2h325v75h59v-134h-476v55l371 564v2h-299v-75h-58v134z" />
    <glyph glyph-name="Zdotaccent" unicode="&#x17b;" horiz-adv-x="560" 
d="M245 870h63v-115h-63v115zM59 680h446v-55l-368 -564v-2h325v75h59v-134h-476v55l371 564v2h-299v-75h-58v134z" />
    <glyph glyph-name="Asmall" unicode="&#xf761;" horiz-adv-x="634" 
d="M190 585h182l192 -528h48v-57h-201v57h74l-44 122h-244l-47 -122h69v-57h-198v57h57l179 471h-67v57zM323 517h-2l-109 -285h215z" />
    <glyph glyph-name="Aacutesmall" unicode="&#xf7e1;" horiz-adv-x="634" 
d="M424 780l-77 -140h-55l62 140h70zM190 585h182l192 -528h48v-57h-201v57h74l-44 122h-244l-47 -122h69v-57h-198v57h57l179 471h-67v57zM323 517h-2l-109 -285h215z" />
    <glyph glyph-name="Abreve.small" unicode="&#xf66d;" horiz-adv-x="634" 
d="M322 701c67 0 87 49 98 89h38c-13 -90 -66 -131 -136 -131c-69 0 -122 41 -135 131h39c10 -40 30 -89 96 -89zM190 585h182l192 -528h48v-57h-201v57h74l-44 122h-244l-47 -122h69v-57h-198v57h57l179 471h-67v57zM323 517h-2l-109 -285h215z" />
    <glyph glyph-name="Acircumflexsmall" unicode="&#xf7e2;" horiz-adv-x="634" 
d="M314 724l-64 -84h-44l85 127h48l85 -127h-44zM190 585h182l192 -528h48v-57h-201v57h74l-44 122h-244l-47 -122h69v-57h-198v57h57l179 471h-67v57zM323 517h-2l-109 -285h215z" />
    <glyph glyph-name="Adieresissmall" unicode="&#xf7e4;" horiz-adv-x="634" 
d="M209 737h51v-85h-51v85zM386 737h51v-85h-51v85zM190 585h182l192 -528h48v-57h-201v57h74l-44 122h-244l-47 -122h69v-57h-198v57h57l179 471h-67v57zM323 517h-2l-109 -285h215z" />
    <glyph glyph-name="Agravesmall" unicode="&#xf7e0;" horiz-adv-x="634" 
d="M275 640l-77 140h69l63 -140h-55zM190 585h182l192 -528h48v-57h-201v57h74l-44 122h-244l-47 -122h69v-57h-198v57h57l179 471h-67v57zM323 517h-2l-109 -285h215z" />
    <glyph glyph-name="Amacron.small" unicode="&#xf66e;" horiz-adv-x="634" 
d="M202 722h242v-51h-242v51zM190 585h182l192 -528h48v-57h-201v57h74l-44 122h-244l-47 -122h69v-57h-198v57h57l179 471h-67v57zM323 517h-2l-109 -285h215z" />
    <glyph glyph-name="Aogonek.small" horiz-adv-x="634" 
d="M584 -128l4 -18c-21 -16 -51 -25 -80 -25c-40 0 -76 20 -76 60c0 41 29 80 73 111h-94v57h74l-44 122h-244l-47 -122h69v-57h-198v57h57l179 471h-67v57h182l192 -528h48v-57h-67c-37 -27 -66 -66 -66 -97c0 -30 18 -47 51 -47c26 0 42 10 54 16zM323 517h-2l-109 -285
h215z" />
    <glyph glyph-name="Aringsmall" unicode="&#xf7e5;" horiz-adv-x="634" 
d="M235 730c0 49 39 88 88 88s88 -39 88 -88s-39 -88 -88 -88s-88 39 -88 88zM263 730c0 -34 26 -60 60 -60s60 26 60 60s-26 60 -60 60s-60 -26 -60 -60zM190 585h182l192 -528h48v-57h-201v57h74l-44 122h-244l-47 -122h69v-57h-198v57h57l179 471h-67v57zM323 517h-2
l-109 -285h215z" />
    <glyph glyph-name="Atildesmall" unicode="&#xf7e3;" horiz-adv-x="634" 
d="M269 705c-24 0 -37 -3 -84 -51l-23 26c41 60 70 78 105 78c48 0 97 -57 131 -57c18 0 39 7 65 49l20 -29c-17 -36 -42 -71 -85 -71c-36 0 -91 55 -129 55zM190 585h182l192 -528h48v-57h-201v57h74l-44 122h-244l-47 -122h69v-57h-198v57h57l179 471h-67v57zM323 517h-2
l-109 -285h215z" />
    <glyph glyph-name="AEsmall" unicode="&#xf7e6;" horiz-adv-x="828" 
d="M330 528h-68v57h520v-122h-57v65h-259v-196h271v-57h-271v-218h259v64h57v-121h-389v222h-160l-126 -222h-96v57h52zM392 521l-132 -242h133v242h-1z" />
    <glyph glyph-name="AEacute.small" unicode="&#xf670;" horiz-adv-x="828" 
d="M330 528h-68v57h520v-122h-57v65h-259v-196h271v-57h-271v-218h259v64h57v-121h-389v222h-160l-126 -222h-96v57h52zM392 521l-132 -242h133v242h-1zM558 780l-77 -140h-55l62 140h70z" />
    <glyph glyph-name="Bsmall" unicode="&#xf762;" horiz-adv-x="571" 
d="M404 301v-2c78 -16 120 -70 120 -143c0 -96 -61 -156 -180 -156h-323v57h61v471h-61v57h305c119 0 180 -59 180 -148c0 -68 -36 -118 -102 -136zM322 270h-167v-213h178c72 0 116 37 116 107c0 64 -44 106 -127 106zM431 427c0 60 -40 101 -113 101h-163v-201h163
c73 0 113 36 113 100z" />
    <glyph glyph-name="Csmall" unicode="&#xf763;" horiz-adv-x="553" 
d="M454 137h57v-117c-73 -21 -139 -30 -207 -30c-208 0 -258 139 -258 307c0 163 50 298 258 298c68 0 134 -8 207 -29v-118h-57v73c-64 14 -103 17 -145 17c-151 0 -187 -114 -187 -241c0 -136 36 -250 187 -250c42 0 81 3 145 18v72z" />
    <glyph glyph-name="Cacute.small" unicode="&#xf671;" horiz-adv-x="553" 
d="M454 137h57v-117c-73 -21 -139 -30 -207 -30c-208 0 -258 139 -258 307c0 163 50 298 258 298c68 0 134 -8 207 -29v-118h-57v73c-64 14 -103 17 -145 17c-151 0 -187 -114 -187 -241c0 -136 36 -250 187 -250c42 0 81 3 145 18v72zM427 780l-77 -140h-55l62 140h70z" />
    <glyph glyph-name="Ccaron.small" unicode="&#xf672;" horiz-adv-x="553" 
d="M454 137h57v-117c-73 -21 -139 -30 -207 -30c-208 0 -258 139 -258 307c0 163 50 298 258 298c68 0 134 -8 207 -29v-118h-57v73c-64 14 -103 17 -145 17c-151 0 -187 -114 -187 -241c0 -136 36 -250 187 -250c42 0 81 3 145 18v72zM262 767l64 -84l66 84h44l-85 -127
h-48l-85 127h44z" />
    <glyph glyph-name="Ccedillasmall" unicode="&#xf7e7;" horiz-adv-x="553" 
d="M454 137h57v-117c-67 -19 -129 -28 -190 -30v-43c35 -2 76 -23 76 -74c0 -47 -39 -78 -99 -78c-24 0 -42 4 -67 12l5 29c16 -4 29 -9 53 -9c49 0 60 30 60 49c0 20 -14 49 -68 50v65c-190 10 -235 144 -235 306c0 163 50 298 258 298c68 0 134 -8 207 -29v-118h-57v73
c-64 14 -103 17 -145 17c-151 0 -187 -114 -187 -241c0 -136 36 -250 187 -250c42 0 81 3 145 18v72z" />
    <glyph glyph-name="Ccircumflex.small" unicode="&#xf673;" horiz-adv-x="553" 
d="M454 137h57v-117c-73 -21 -139 -30 -207 -30c-208 0 -258 139 -258 307c0 163 50 298 258 298c68 0 134 -8 207 -29v-118h-57v73c-64 14 -103 17 -145 17c-151 0 -187 -114 -187 -241c0 -136 36 -250 187 -250c42 0 81 3 145 18v72zM317 724l-64 -84h-44l85 127h48
l85 -127h-44z" />
    <glyph glyph-name="Cdotaccent.small" unicode="&#xf674;" horiz-adv-x="553" 
d="M454 137h57v-117c-73 -21 -139 -30 -207 -30c-208 0 -258 139 -258 307c0 163 50 298 258 298c68 0 134 -8 207 -29v-118h-57v73c-64 14 -103 17 -145 17c-151 0 -187 -114 -187 -241c0 -136 36 -250 187 -250c42 0 81 3 145 18v72zM276 780h63v-115h-63v115z" />
    <glyph glyph-name="Dsmall" unicode="&#xf764;" horiz-adv-x="598" 
d="M21 585h276c196 0 254 -125 254 -288c0 -166 -58 -297 -254 -297h-276v57h61v471h-61v57zM155 57h142c144 0 179 113 179 240s-35 231 -179 231h-142v-471z" />
    <glyph glyph-name="Dcaron.small" unicode="&#xf675;" horiz-adv-x="598" 
d="M21 585h276c196 0 254 -125 254 -288c0 -166 -58 -297 -254 -297h-276v57h61v471h-61v57zM155 57h142c144 0 179 113 179 240s-35 231 -179 231h-142v-471zM226 767l64 -84l66 84h44l-85 -127h-48l-85 127h44z" />
    <glyph glyph-name="Dcroat.small" horiz-adv-x="598" 
d="M21 585h276c196 0 254 -125 254 -288c0 -166 -58 -297 -254 -297h-276v57h61v219h-61v42h61v210h-61v57zM155 57h142c144 0 179 113 179 240s-35 231 -179 231h-142v-210h95v-42h-95v-219z" />
    <glyph glyph-name="Esmall" unicode="&#xf765;" horiz-adv-x="517" 
d="M21 585h449v-122h-57v65h-258v-196h270v-57h-270v-218h258v65h57v-122h-449v57h61v471h-61v57z" />
    <glyph glyph-name="Eacutesmall" unicode="&#xf7e9;" horiz-adv-x="517" 
d="M21 585h449v-122h-57v65h-258v-196h270v-57h-270v-218h258v65h57v-122h-449v57h61v471h-61v57zM358 780l-77 -140h-55l62 140h70z" />
    <glyph glyph-name="Ebreve.small" unicode="&#xf677;" horiz-adv-x="517" 
d="M21 585h449v-122h-57v65h-258v-196h270v-57h-270v-218h258v65h57v-122h-449v57h61v471h-61v57zM273 701c67 0 87 49 98 89h38c-13 -90 -66 -131 -136 -131c-69 0 -122 41 -135 131h39c10 -40 30 -89 96 -89z" />
    <glyph glyph-name="Ecaron.small" unicode="&#xf678;" horiz-adv-x="517" 
d="M21 585h449v-122h-57v65h-258v-196h270v-57h-270v-218h258v65h57v-122h-449v57h61v471h-61v57zM205 767l64 -84l66 84h44l-85 -127h-48l-85 127h44z" />
    <glyph glyph-name="Ecircumflexsmall" unicode="&#xf7ea;" horiz-adv-x="517" 
d="M21 585h449v-122h-57v65h-258v-196h270v-57h-270v-218h258v65h57v-122h-449v57h61v471h-61v57zM266 724l-64 -84h-44l85 127h48l85 -127h-44z" />
    <glyph glyph-name="Edieresissmall" unicode="&#xf7eb;" horiz-adv-x="517" 
d="M21 585h449v-122h-57v65h-258v-196h270v-57h-270v-218h258v65h57v-122h-449v57h61v471h-61v57zM154 737h51v-85h-51v85zM331 737h51v-85h-51v85z" />
    <glyph glyph-name="Edotaccent.small" unicode="&#xf679;" horiz-adv-x="517" 
d="M21 585h449v-122h-57v65h-258v-196h270v-57h-270v-218h258v65h57v-122h-449v57h61v471h-61v57zM221 780h63v-115h-63v115z" />
    <glyph glyph-name="Egravesmall" unicode="&#xf7e8;" horiz-adv-x="517" 
d="M21 585h449v-122h-57v65h-258v-196h270v-57h-270v-218h258v65h57v-122h-449v57h61v471h-61v57zM230 640l-77 140h69l63 -140h-55z" />
    <glyph glyph-name="Emacron.small" unicode="&#xf67a;" horiz-adv-x="517" 
d="M21 585h449v-122h-57v65h-258v-196h270v-57h-270v-218h258v65h57v-122h-449v57h61v471h-61v57zM151 722h242v-51h-242v51z" />
    <glyph glyph-name="Eogonek.small" horiz-adv-x="517" 
d="M21 585h449v-122h-57v65h-258v-196h270v-57h-270v-218h258v64h57v-121c-36 -27 -65 -66 -65 -97c0 -30 18 -47 51 -47c26 0 41 10 54 16l4 -18c-21 -16 -51 -25 -80 -25c-39 0 -76 20 -76 60c0 41 31 80 76 111h-413v57h61v471h-61v57z" />
    <glyph glyph-name="Fsmall" unicode="&#xf766;" horiz-adv-x="503" 
d="M21 585h440v-122h-57v65h-249v-213h261v-57h-261v-201h60v-57h-194v57h61v471h-61v57z" />
    <glyph glyph-name="Gsmall" unicode="&#xf767;" horiz-adv-x="562" 
d="M122 297c0 -131 46 -246 187 -246c50 0 94 13 131 35v146h-125v57h196v-251c-56 -25 -119 -48 -207 -48c-198 0 -258 141 -258 307c0 163 50 298 258 298c68 0 134 -8 207 -29v-118h-57v73c-64 14 -103 17 -145 17c-151 0 -187 -114 -187 -241z" />
    <glyph glyph-name="Gbreve.small" unicode="&#xf67d;" horiz-adv-x="562" 
d="M122 297c0 -131 46 -246 187 -246c50 0 94 13 131 35v146h-125v57h196v-251c-56 -25 -119 -48 -207 -48c-198 0 -258 141 -258 307c0 163 50 298 258 298c68 0 134 -8 207 -29v-118h-57v73c-64 14 -103 17 -145 17c-151 0 -187 -114 -187 -241zM319 701c67 0 87 49 98 89
h38c-13 -90 -66 -131 -136 -131c-69 0 -122 41 -135 131h39c10 -40 30 -89 96 -89z" />
    <glyph glyph-name="Gcircumflex.small" unicode="&#xf67e;" horiz-adv-x="562" 
d="M122 297c0 -131 46 -246 187 -246c50 0 94 13 131 35v146h-125v57h196v-251c-56 -25 -119 -48 -207 -48c-198 0 -258 141 -258 307c0 163 50 298 258 298c68 0 134 -8 207 -29v-118h-57v73c-64 14 -103 17 -145 17c-151 0 -187 -114 -187 -241zM318 724l-64 -84h-44
l85 127h48l85 -127h-44z" />
    <glyph glyph-name="Gcommaaccent.small" unicode="&#xf67f;" horiz-adv-x="562" 
d="M122 297c0 -131 46 -246 187 -246c50 0 94 13 131 35v146h-125v57h196v-251c-56 -25 -119 -48 -207 -48c-198 0 -258 141 -258 307c0 163 50 298 258 298c68 0 134 -8 207 -29v-118h-57v73c-64 14 -103 17 -145 17c-151 0 -187 -114 -187 -241zM313 -245h-25l17 106h-26
v99h70v-99z" />
    <glyph glyph-name="Gdotaccent.small" unicode="&#xf680;" horiz-adv-x="562" 
d="M122 297c0 -131 46 -246 187 -246c50 0 94 13 131 35v146h-125v57h196v-251c-56 -25 -119 -48 -207 -48c-198 0 -258 141 -258 307c0 163 50 298 258 298c68 0 134 -8 207 -29v-118h-57v73c-64 14 -103 17 -145 17c-151 0 -187 -114 -187 -241zM275 780h63v-115h-63v115z
" />
    <glyph glyph-name="Hsmall" unicode="&#xf768;" horiz-adv-x="616" 
d="M400 57h61v218h-306v-218h60v-57h-194v57h61v471h-61v57h194v-57h-60v-196h306v196h-61v57h194v-57h-61v-471h61v-57h-194v57z" />
    <glyph glyph-name="Hbar.small" horiz-adv-x="616" 
d="M400 57h61v218h-306v-218h60v-57h-194v57h61v378h-55v20h55v73h-61v57h194v-57h-60v-73h306v73h-61v57h194v-57h-61v-73h56v-20h-56v-378h61v-57h-194v57zM155 324h306v111h-306v-111z" />
    <glyph glyph-name="Hcircumflex.small" unicode="&#xf682;" horiz-adv-x="616" 
d="M400 57h61v218h-306v-218h60v-57h-194v57h61v471h-61v57h194v-57h-60v-196h306v196h-61v57h194v-57h-61v-471h61v-57h-194v57zM316 724l-64 -84h-44l85 127h48l85 -127h-44z" />
    <glyph glyph-name="Ismall" unicode="&#xf769;" horiz-adv-x="237" 
d="M21 57h61v471h-61v57h194v-57h-60v-471h60v-57h-194v57z" />
    <glyph glyph-name="Iacutesmall" unicode="&#xf7ed;" horiz-adv-x="237" 
d="M21 57h61v471h-61v57h194v-57h-60v-471h60v-57h-194v57zM225 780l-77 -140h-55l62 140h70z" />
    <glyph glyph-name="Ibreve.small" unicode="&#xf683;" horiz-adv-x="237" 
d="M21 57h61v471h-61v57h194v-57h-60v-471h60v-57h-194v57zM118 701c67 0 87 49 98 89h38c-13 -90 -66 -131 -136 -131c-69 0 -122 41 -135 131h39c10 -40 30 -89 96 -89z" />
    <glyph glyph-name="Icircumflexsmall" unicode="&#xf7ee;" horiz-adv-x="237" 
d="M21 57h61v471h-61v57h194v-57h-60v-471h60v-57h-194v57zM117 724l-64 -84h-44l85 127h48l85 -127h-44z" />
    <glyph glyph-name="Idieresissmall" unicode="&#xf7ef;" horiz-adv-x="237" 
d="M21 57h61v471h-61v57h194v-57h-60v-471h60v-57h-194v57zM4 737h51v-85h-51v85zM181 737h51v-85h-51v85z" />
    <glyph glyph-name="Idotaccent.small" unicode="&#xf6ad;" horiz-adv-x="237" 
d="M21 57h61v471h-61v57h194v-57h-60v-471h60v-57h-194v57zM87 780h63v-115h-63v115z" />
    <glyph glyph-name="Igravesmall" unicode="&#xf7ec;" horiz-adv-x="237" 
d="M21 57h61v471h-61v57h194v-57h-60v-471h60v-57h-194v57zM93 640l-77 140h69l63 -140h-55z" />
    <glyph glyph-name="Imacron.small" unicode="&#xf685;" horiz-adv-x="237" 
d="M21 57h61v471h-61v57h194v-57h-60v-471h60v-57h-194v57zM-3 722h242v-51h-242v51z" />
    <glyph glyph-name="Iogonek.small" horiz-adv-x="237" 
d="M184 -128l4 -18c-21 -16 -51 -25 -80 -25c-39 0 -77 20 -77 60c0 41 31 80 75 111h-85v57h61v471h-61v57h194v-57h-60v-471h60v-57h-71c-36 -27 -65 -66 -65 -97c0 -30 18 -47 51 -47c26 0 41 10 54 16z" />
    <glyph glyph-name="Itilde.small" unicode="&#xf687;" horiz-adv-x="237" 
d="M21 57h61v471h-61v57h194v-57h-60v-471h60v-57h-194v57zM65 705c-24 0 -37 -3 -84 -51l-23 26c41 60 70 78 105 78c48 0 97 -57 131 -57c18 0 39 7 65 49l20 -29c-17 -36 -42 -71 -85 -71c-36 0 -91 55 -129 55z" />
    <glyph glyph-name="IJ.small" horiz-adv-x="540" 
d="M21 57h61v471h-61v57h194v-57h-60v-471h60v-57h-194v57zM325 585h194v-57h-61v-383c0 -115 -50 -155 -138 -155c-28 0 -55 3 -79 7l7 56c21 -2 36 -4 54 -4c58 0 83 28 83 96v383h-60v57z" />
    <glyph glyph-name="Jsmall" unicode="&#xf76a;" horiz-adv-x="318" 
d="M102 585h194v-57h-60v-384c0 -115 -51 -154 -139 -154c-27 0 -55 3 -78 7l6 56c22 -2 37 -4 54 -4c58 0 84 28 84 95v384h-61v57z" />
    <glyph glyph-name="Jcircumflex.small" unicode="&#xf688;" horiz-adv-x="318" 
d="M102 585h194v-57h-60v-384c0 -115 -51 -154 -139 -154c-27 0 -55 3 -78 7l6 56c22 -2 37 -4 54 -4c58 0 84 28 84 95v384h-61v57zM197 724l-64 -84h-44l85 127h48l85 -127h-44z" />
    <glyph glyph-name="Ksmall" unicode="&#xf76b;" horiz-adv-x="616" 
d="M21 585h194v-57h-60v-274l274 274h-67v57h223v-57h-69l-193 -188l207 -283h64v-57h-226v57h68l-167 235l-114 -112v-123h60v-57h-194v57h61v471h-61v57z" />
    <glyph glyph-name="Kcommaaccent.small" unicode="&#xf689;" horiz-adv-x="616" 
d="M21 585h194v-57h-60v-274l274 274h-67v57h223v-57h-69l-193 -188l207 -283h64v-57h-226v57h68l-167 235l-114 -112v-123h60v-57h-194v57h61v471h-61v57zM300 -245h-25l17 106h-26v99h70v-99z" />
    <glyph glyph-name="Lsmall" unicode="&#xf76c;" horiz-adv-x="499" 
d="M409 122h57v-122h-445v57h61v471h-61v57h194v-57h-60v-471h254v65z" />
    <glyph glyph-name="Lacute.small" unicode="&#xf68a;" horiz-adv-x="499" 
d="M409 122h57v-122h-445v57h61v471h-61v57h194v-57h-60v-471h254v65zM226 780l-77 -140h-55l62 140h70z" />
    <glyph glyph-name="Lcaron.small" unicode="&#xf68b;" horiz-adv-x="499" 
d="M409 122h57v-122h-445v57h61v471h-61v57h194v-57h-60v-471h254v65zM331 380h-25l17 106h-26v99h70v-99z" />
    <glyph glyph-name="Lcommaaccent.small" unicode="&#xf68c;" horiz-adv-x="499" 
d="M409 122h57v-122h-445v57h61v471h-61v57h194v-57h-60v-471h254v65zM259 -245h-25l17 106h-26v99h70v-99z" />
    <glyph glyph-name="Ldot.small" unicode="&#xf68d;" horiz-adv-x="499" 
d="M409 122h57v-122h-445v57h61v471h-61v57h194v-57h-60v-471h254v65zM277 394h63v-115h-63v115z" />
    <glyph glyph-name="Lslashsmall" unicode="&#xf6f9;" horiz-adv-x="499" 
d="M21 286l61 16v226h-61v57h194v-57h-60v-205l60 17v-35l-60 -17v-231h254v64h57v-121h-445v57h61v210l-61 -16v35z" />
    <glyph glyph-name="Msmall" unicode="&#xf76d;" horiz-adv-x="760" 
d="M593 585h145v-57h-61v-471h61v-57h-191v57h58v404h-2l-203 -461h-40l-209 461h-2v-404h59v-57h-187v57h61v471h-61v57h147l215 -475h2z" />
    <glyph glyph-name="Nsmall" unicode="&#xf76e;" horiz-adv-x="625" 
d="M413 585h190v-57h-61v-528h-64l-327 461l-2 -4v-400h63v-57h-191v57h61v471h-61v57h122l331 -468l2 4v407h-63v57z" />
    <glyph glyph-name="Nacute.small" unicode="&#xf68e;" horiz-adv-x="625" 
d="M413 585h190v-57h-61v-528h-64l-327 461l-2 -4v-400h63v-57h-191v57h61v471h-61v57h122l331 -468l2 4v407h-63v57zM435 780l-77 -140h-55l62 140h70z" />
    <glyph glyph-name="Ncaron.small" unicode="&#xf68f;" horiz-adv-x="625" 
d="M413 585h190v-57h-61v-528h-64l-327 461l-2 -4v-400h63v-57h-191v57h61v471h-61v57h122l331 -468l2 4v407h-63v57zM251 767l64 -84l66 84h44l-85 -127h-48l-85 127h44z" />
    <glyph glyph-name="Ncommaaccent.small" unicode="&#xf690;" horiz-adv-x="625" 
d="M413 585h190v-57h-61v-528h-64l-327 461l-2 -4v-400h63v-57h-191v57h61v471h-61v57h122l331 -468l2 4v407h-63v57zM316 -245h-25l17 106h-26v99h70v-99z" />
    <glyph glyph-name="Ntildesmall" unicode="&#xf7f1;" horiz-adv-x="625" 
d="M413 585h190v-57h-61v-528h-64l-327 461l-2 -4v-400h63v-57h-191v57h61v471h-61v57h122l331 -468l2 4v407h-63v57zM273 705c-24 0 -37 -3 -84 -51l-23 26c41 60 70 78 105 78c48 0 97 -57 131 -57c18 0 39 7 65 49l20 -29c-17 -36 -42 -71 -85 -71c-36 0 -91 55 -129 55z
" />
    <glyph glyph-name="Osmall" unicode="&#xf76f;" horiz-adv-x="607" 
d="M304 538c-156 0 -182 -114 -182 -241s26 -250 182 -250c154 0 181 123 181 250s-27 241 -181 241zM304 -10c-208 0 -258 141 -258 307c0 163 50 298 258 298c207 0 256 -135 256 -298c0 -166 -49 -307 -256 -307z" />
    <glyph glyph-name="Oacutesmall" unicode="&#xf7f3;" horiz-adv-x="607" 
d="M304 538c-156 0 -182 -114 -182 -241s26 -250 182 -250c154 0 181 123 181 250s-27 241 -181 241zM304 -10c-208 0 -258 141 -258 307c0 163 50 298 258 298c207 0 256 -135 256 -298c0 -166 -49 -307 -256 -307zM415 780l-77 -140h-55l62 140h70z" />
    <glyph glyph-name="Obreve.small" unicode="&#xf691;" horiz-adv-x="607" 
d="M304 538c-156 0 -182 -114 -182 -241s26 -250 182 -250c154 0 181 123 181 250s-27 241 -181 241zM304 -10c-208 0 -258 141 -258 307c0 163 50 298 258 298c207 0 256 -135 256 -298c0 -166 -49 -307 -256 -307zM302 701c67 0 87 49 98 89h38
c-13 -90 -66 -131 -136 -131c-69 0 -122 41 -135 131h39c10 -40 30 -89 96 -89z" />
    <glyph glyph-name="Ocircumflexsmall" unicode="&#xf7f4;" horiz-adv-x="607" 
d="M304 538c-156 0 -182 -114 -182 -241s26 -250 182 -250c154 0 181 123 181 250s-27 241 -181 241zM304 -10c-208 0 -258 141 -258 307c0 163 50 298 258 298c207 0 256 -135 256 -298c0 -166 -49 -307 -256 -307zM302 724l-64 -84h-44l85 127h48l85 -127h-44z" />
    <glyph glyph-name="Odieresissmall" unicode="&#xf7f6;" horiz-adv-x="607" 
d="M304 538c-156 0 -182 -114 -182 -241s26 -250 182 -250c154 0 181 123 181 250s-27 241 -181 241zM304 -10c-208 0 -258 141 -258 307c0 163 50 298 258 298c207 0 256 -135 256 -298c0 -166 -49 -307 -256 -307zM189 737h51v-85h-51v85zM366 737h51v-85h-51v85z" />
    <glyph glyph-name="Ogravesmall" unicode="&#xf7f2;" horiz-adv-x="607" 
d="M304 538c-156 0 -182 -114 -182 -241s26 -250 182 -250c154 0 181 123 181 250s-27 241 -181 241zM304 -10c-208 0 -258 141 -258 307c0 163 50 298 258 298c207 0 256 -135 256 -298c0 -166 -49 -307 -256 -307zM268 640l-77 140h69l63 -140h-55z" />
    <glyph glyph-name="Ohungarumlaut.small" unicode="&#xf692;" horiz-adv-x="607" 
d="M304 538c-156 0 -182 -114 -182 -241s26 -250 182 -250c154 0 181 123 181 250s-27 241 -181 241zM304 -10c-208 0 -258 141 -258 307c0 163 50 298 258 298c207 0 256 -135 256 -298c0 -166 -49 -307 -256 -307zM327 780l-85 -140h-40l63 140h62zM497 780l-85 -140h-40
l63 140h62z" />
    <glyph glyph-name="Omacron.small" unicode="&#xf693;" horiz-adv-x="607" 
d="M304 538c-156 0 -182 -114 -182 -241s26 -250 182 -250c154 0 181 123 181 250s-27 241 -181 241zM304 -10c-208 0 -258 141 -258 307c0 163 50 298 258 298c207 0 256 -135 256 -298c0 -166 -49 -307 -256 -307zM182 722h242v-51h-242v51z" />
    <glyph glyph-name="Otildesmall" unicode="&#xf7f5;" horiz-adv-x="607" 
d="M304 538c-156 0 -182 -114 -182 -241s26 -250 182 -250c154 0 181 123 181 250s-27 241 -181 241zM304 -10c-208 0 -258 141 -258 307c0 163 50 298 258 298c207 0 256 -135 256 -298c0 -166 -49 -307 -256 -307zM250 705c-24 0 -37 -3 -84 -51l-23 26
c41 60 70 78 105 78c48 0 97 -57 131 -57c18 0 39 7 65 49l20 -29c-17 -36 -42 -71 -85 -71c-36 0 -91 55 -129 55z" />
    <glyph glyph-name="Oslashsmall" unicode="&#xf7f8;" horiz-adv-x="607" 
d="M304 -10c-86 0 -144 25 -183 65l-67 -80l-24 18l70 83c-41 56 -54 135 -54 221c0 163 50 298 258 298c82 0 138 -24 177 -60l72 86l23 -18l-74 -88c45 -55 58 -132 58 -218c0 -166 -49 -307 -256 -307zM304 51c154 0 181 119 181 246c0 58 -7 114 -33 156l-287 -343
c27 -36 70 -59 139 -59zM304 535c-156 0 -182 -111 -182 -238c0 -56 5 -113 30 -156l286 341c-27 31 -70 53 -134 53z" />
    <glyph glyph-name="Oslashacute.small" unicode="&#xf694;" horiz-adv-x="607" 
d="M428 780l-77 -140h-55l62 140h70zM304 -10c-86 0 -144 25 -183 65l-67 -80l-24 18l70 83c-41 56 -54 135 -54 221c0 163 50 298 258 298c82 0 138 -24 177 -60l72 86l23 -18l-74 -88c45 -55 58 -132 58 -218c0 -166 -49 -307 -256 -307zM304 51c154 0 181 119 181 246
c0 58 -7 114 -33 156l-287 -343c27 -36 70 -59 139 -59zM304 535c-156 0 -182 -111 -182 -238c0 -56 5 -113 30 -156l286 341c-27 31 -70 53 -134 53z" />
    <glyph glyph-name="OEsmall" unicode="&#xf6fa;" horiz-adv-x="923" 
d="M304 536c-156 0 -182 -112 -182 -239s26 -249 182 -249c154 0 181 122 181 254c0 126 -30 234 -181 234zM876 0h-380v114c-31 -69 -92 -123 -192 -123c-209 0 -258 140 -258 306c0 163 50 296 258 296c101 0 163 -50 192 -119v111h380v-122h-57v65h-259v-196h271v-57
h-271v-218h259v64h57v-121z" />
    <glyph glyph-name="Psmall" unicode="&#xf770;" horiz-adv-x="562" 
d="M21 585h310c119 0 184 -69 184 -169c0 -105 -65 -170 -184 -170h-176v-189h60v-57h-194v57h61v471h-61v57zM155 528v-224h169c72 0 117 38 117 112c0 68 -45 112 -117 112h-169z" />
    <glyph glyph-name="Qsmall" unicode="&#xf771;" horiz-adv-x="607" 
d="M46 297c0 163 50 298 258 298c207 0 256 -135 256 -298c0 -158 -52 -274 -209 -281c20 -34 120 -44 196 -36v-65c-112 -12 -217 10 -260 76c-192 8 -241 145 -241 306zM304 538c-156 0 -182 -114 -182 -241s26 -249 182 -249c154 0 181 122 181 249s-27 241 -181 241z
" />
    <glyph glyph-name="Rsmall" unicode="&#xf772;" horiz-adv-x="589" 
d="M21 585h310c119 0 184 -72 184 -172c0 -84 -50 -149 -137 -161l144 -195h45v-57h-204v57h75l-131 184h-152v-184h59v-57h-193v57h61v471h-61v57zM155 528v-230h163c73 0 123 41 123 115c0 68 -45 115 -117 115h-169z" />
    <glyph glyph-name="Racute.small" unicode="&#xf695;" horiz-adv-x="589" 
d="M374 780l-77 -140h-55l62 140h70zM21 585h310c119 0 184 -72 184 -172c0 -84 -50 -149 -137 -161l144 -195h45v-57h-204v57h75l-131 184h-152v-184h59v-57h-193v57h61v471h-61v57zM155 528v-230h163c73 0 123 41 123 115c0 68 -45 115 -117 115h-169z" />
    <glyph glyph-name="Rcaron.small" unicode="&#xf696;" horiz-adv-x="589" 
d="M225 767l64 -84l66 84h44l-85 -127h-48l-85 127h44zM21 585h310c119 0 184 -72 184 -172c0 -84 -50 -149 -137 -161l144 -195h45v-57h-204v57h75l-131 184h-152v-184h59v-57h-193v57h61v471h-61v57zM155 528v-230h163c73 0 123 41 123 115c0 68 -45 115 -117 115h-169z
" />
    <glyph glyph-name="Rcommaaccent.small" unicode="&#xf697;" horiz-adv-x="589" 
d="M298 -245h-25l17 106h-26v99h70v-99zM21 585h310c119 0 184 -72 184 -172c0 -84 -50 -149 -137 -161l144 -195h45v-57h-204v57h75l-131 184h-152v-184h59v-57h-193v57h61v471h-61v57zM155 528v-230h163c73 0 123 41 123 115c0 68 -45 115 -117 115h-169z" />
    <glyph glyph-name="Ssmall" unicode="&#xf773;" horiz-adv-x="526" 
d="M46 141h58v-70c69 -15 116 -20 159 -20c103 0 141 53 141 102c0 76 -94 96 -157 113c-98 24 -196 76 -196 175c0 110 93 154 208 154c67 0 130 -8 204 -29v-122h-58v73c-66 14 -104 18 -146 18c-99 0 -131 -45 -131 -92c0 -72 98 -101 163 -116c98 -21 188 -65 188 -166
c0 -114 -92 -171 -216 -171c-67 0 -143 10 -217 31v120z" />
    <glyph glyph-name="Sacute.small" unicode="&#xf698;" horiz-adv-x="526" 
d="M46 141h58v-70c69 -15 116 -20 159 -20c103 0 141 53 141 102c0 76 -94 96 -157 113c-98 24 -196 76 -196 175c0 110 93 154 208 154c67 0 130 -8 204 -29v-122h-58v73c-66 14 -104 18 -146 18c-99 0 -131 -45 -131 -92c0 -72 98 -101 163 -116c98 -21 188 -65 188 -166
c0 -114 -92 -171 -216 -171c-67 0 -143 10 -217 31v120zM370 780l-77 -140h-55l62 140h70z" />
    <glyph glyph-name="Scaronsmall" unicode="&#xf6fd;" horiz-adv-x="526" 
d="M46 141h58v-70c69 -15 116 -20 159 -20c103 0 141 53 141 102c0 76 -94 96 -157 113c-98 24 -196 76 -196 175c0 110 93 154 208 154c67 0 130 -8 204 -29v-122h-58v73c-66 14 -104 18 -146 18c-99 0 -131 -45 -131 -92c0 -72 98 -101 163 -116c98 -21 188 -65 188 -166
c0 -114 -92 -171 -216 -171c-67 0 -143 10 -217 31v120zM205 767l64 -84l66 84h44l-85 -127h-48l-85 127h44z" />
    <glyph glyph-name="Scedilla.small" horiz-adv-x="526" 
d="M235 -74v65c-60 2 -126 12 -189 30v120h58v-70c69 -15 116 -20 159 -20c103 0 141 53 141 102c0 76 -94 96 -157 113c-98 24 -196 76 -196 175c0 110 93 154 208 154c67 0 130 -8 204 -29v-122h-58v73c-66 14 -104 18 -146 18c-99 0 -131 -45 -131 -92
c0 -72 98 -101 163 -116c98 -21 188 -65 188 -166c0 -110 -85 -167 -204 -171v-43c35 -2 76 -23 76 -74c0 -47 -39 -78 -99 -78c-24 0 -41 4 -67 12l5 29c16 -4 29 -9 53 -9c49 0 60 30 60 49c0 20 -13 49 -68 50z" />
    <glyph glyph-name="Scircumflex.small" unicode="&#xf69a;" horiz-adv-x="526" 
d="M46 141h58v-70c69 -15 116 -20 159 -20c103 0 141 53 141 102c0 76 -94 96 -157 113c-98 24 -196 76 -196 175c0 110 93 154 208 154c67 0 130 -8 204 -29v-122h-58v73c-66 14 -104 18 -146 18c-99 0 -131 -45 -131 -92c0 -72 98 -101 163 -116c98 -21 188 -65 188 -166
c0 -114 -92 -171 -216 -171c-67 0 -143 10 -217 31v120zM276 724l-64 -84h-44l85 127h48l85 -127h-44z" />
    <glyph glyph-name="Scommaaccent.small" unicode="&#xf69b;" horiz-adv-x="526" 
d="M46 141h58v-70c69 -15 116 -20 159 -20c103 0 141 53 141 102c0 76 -94 96 -157 113c-98 24 -196 76 -196 175c0 110 93 154 208 154c67 0 130 -8 204 -29v-122h-58v73c-66 14 -104 18 -146 18c-99 0 -131 -45 -131 -92c0 -72 98 -101 163 -116c98 -21 188 -65 188 -166
c0 -114 -92 -171 -216 -171c-67 0 -143 10 -217 31v120zM267 -245h-25l17 106h-26v99h70v-99z" />
    <glyph glyph-name="Tsmall" unicode="&#xf774;" horiz-adv-x="526" 
d="M42 585h442v-122h-59v65h-126v-471h61v-57h-194v57h61v471h-127v-65h-58v122z" />
    <glyph glyph-name="Tcaron.small" unicode="&#xf69d;" horiz-adv-x="526" 
d="M42 585h442v-122h-59v65h-126v-471h61v-57h-194v57h61v471h-127v-65h-58v122zM198 767l64 -84l66 84h44l-85 -127h-48l-85 127h44z" />
    <glyph glyph-name="Tbar.small" horiz-adv-x="526" 
d="M42 585h442v-122h-59v65h-126v-240h79v-42h-79v-189h61v-57h-194v57h61v189h-79v42h79v240h-127v-65h-58v122z" />
    <glyph glyph-name="Tcommaaccent.small" unicode="&#xf69e;" horiz-adv-x="526" 
d="M42 585h442v-122h-59v65h-126v-471h61v-57h-194v57h61v471h-127v-65h-58v122zM262 -245h-25l17 106h-26v99h70v-99z" />
    <glyph glyph-name="Usmall" unicode="&#xf775;" horiz-adv-x="616" 
d="M400 585h194v-57h-61v-322c0 -150 -79 -216 -225 -216c-147 0 -226 66 -226 216v322h-61v57h194v-57h-60v-322c0 -65 11 -159 155 -159c137 0 151 94 151 159v322h-61v57z" />
    <glyph glyph-name="Uacutesmall" unicode="&#xf7fa;" horiz-adv-x="616" 
d="M400 585h194v-57h-61v-322c0 -150 -79 -216 -225 -216c-147 0 -226 66 -226 216v322h-61v57h194v-57h-60v-322c0 -65 11 -159 155 -159c137 0 151 94 151 159v322h-61v57zM430 780l-77 -140h-55l62 140h70z" />
    <glyph glyph-name="Ubreve.small" unicode="&#xf69f;" horiz-adv-x="616" 
d="M400 585h194v-57h-61v-322c0 -150 -79 -216 -225 -216c-147 0 -226 66 -226 216v322h-61v57h194v-57h-60v-322c0 -65 11 -159 155 -159c137 0 151 94 151 159v322h-61v57zM307 701c67 0 87 49 98 89h38c-13 -90 -66 -131 -136 -131c-69 0 -122 41 -135 131h39
c10 -40 30 -89 96 -89z" />
    <glyph glyph-name="Ucircumflexsmall" unicode="&#xf7fb;" horiz-adv-x="616" 
d="M400 585h194v-57h-61v-322c0 -150 -79 -216 -225 -216c-147 0 -226 66 -226 216v322h-61v57h194v-57h-60v-322c0 -65 11 -159 155 -159c137 0 151 94 151 159v322h-61v57zM307 724l-64 -84h-44l85 127h48l85 -127h-44z" />
    <glyph glyph-name="Udieresissmall" unicode="&#xf7fc;" horiz-adv-x="616" 
d="M400 585h194v-57h-61v-322c0 -150 -79 -216 -225 -216c-147 0 -226 66 -226 216v322h-61v57h194v-57h-60v-322c0 -65 11 -159 155 -159c137 0 151 94 151 159v322h-61v57zM194 737h51v-85h-51v85zM371 737h51v-85h-51v85z" />
    <glyph glyph-name="Uhungarumlaut.small" unicode="&#xf6a0;" horiz-adv-x="616" 
d="M400 585h194v-57h-61v-322c0 -150 -79 -216 -225 -216c-147 0 -226 66 -226 216v322h-61v57h194v-57h-60v-322c0 -65 11 -159 155 -159c137 0 151 94 151 159v322h-61v57zM342 780l-85 -140h-40l63 140h62zM512 780l-85 -140h-40l63 140h62z" />
    <glyph glyph-name="Ugravesmall" unicode="&#xf7f9;" horiz-adv-x="616" 
d="M400 585h194v-57h-61v-322c0 -150 -79 -216 -225 -216c-147 0 -226 66 -226 216v322h-61v57h194v-57h-60v-322c0 -65 11 -159 155 -159c137 0 151 94 151 159v322h-61v57zM285 640l-77 140h69l63 -140h-55z" />
    <glyph glyph-name="Umacron.small" unicode="&#xf6a1;" horiz-adv-x="616" 
d="M400 585h194v-57h-61v-322c0 -150 -79 -216 -225 -216c-147 0 -226 66 -226 216v322h-61v57h194v-57h-60v-322c0 -65 11 -159 155 -159c137 0 151 94 151 159v322h-61v57zM187 722h242v-51h-242v51z" />
    <glyph glyph-name="Uogonek.small" horiz-adv-x="616" 
d="M400 585h194v-57h-61v-322c0 -143 -72 -210 -210 -216c-31 -25 -54 -59 -54 -87c0 -30 18 -47 52 -47c25 0 40 10 53 16l4 -18c-21 -16 -51 -25 -80 -25c-40 0 -76 20 -76 60c0 38 26 73 66 102c-137 6 -206 73 -206 215v322h-61v57h194v-57h-60v-322
c0 -65 11 -159 155 -159c137 0 151 94 151 159v322h-61v57z" />
    <glyph glyph-name="Uring.small" unicode="&#xf6a3;" horiz-adv-x="616" 
d="M400 585h194v-57h-61v-322c0 -150 -79 -216 -225 -216c-147 0 -226 66 -226 216v322h-61v57h194v-57h-60v-322c0 -65 11 -159 155 -159c137 0 151 94 151 159v322h-61v57zM220 730c0 49 39 88 88 88s88 -39 88 -88s-39 -88 -88 -88s-88 39 -88 88zM248 730
c0 -34 26 -60 60 -60s60 26 60 60s-26 60 -60 60s-60 -26 -60 -60z" />
    <glyph glyph-name="Utilde.small" unicode="&#xf6a4;" horiz-adv-x="616" 
d="M400 585h194v-57h-61v-322c0 -150 -79 -216 -225 -216c-147 0 -226 66 -226 216v322h-61v57h194v-57h-60v-322c0 -65 11 -159 155 -159c137 0 151 94 151 159v322h-61v57zM255 705c-24 0 -37 -3 -84 -51l-23 26c41 60 70 78 105 78c48 0 97 -57 131 -57c18 0 39 7 65 49
l20 -29c-17 -36 -42 -71 -85 -71c-36 0 -91 55 -129 55z" />
    <glyph glyph-name="Vsmall" unicode="&#xf776;" horiz-adv-x="625" 
d="M395 585h208v-57h-47l-195 -532h-91l-201 532h-48v57h212v-57h-86l171 -458h1l163 458h-87v57z" />
    <glyph glyph-name="Wsmall" unicode="&#xf777;" horiz-adv-x="886" 
d="M21 585h212v-57h-88l127 -442h1l136 499h78l140 -499h1l124 442h-89v57h201v-57h-45l-148 -532h-96l-130 462h-2l-129 -462h-96l-151 532h-46v57z" />
    <glyph glyph-name="Wacute.small" unicode="&#xf6a5;" horiz-adv-x="886" 
d="M21 585h212v-57h-88l127 -442h1l136 499h78l140 -499h1l124 442h-89v57h201v-57h-45l-148 -532h-96l-130 462h-2l-129 -462h-96l-151 532h-46v57zM555 780l-77 -140h-55l62 140h70z" />
    <glyph glyph-name="Wcircumflex.small" unicode="&#xf6a6;" horiz-adv-x="886" 
d="M21 585h212v-57h-88l127 -442h1l136 499h78l140 -499h1l124 442h-89v57h201v-57h-45l-148 -532h-96l-130 462h-2l-129 -462h-96l-151 532h-46v57zM442 724l-64 -84h-44l85 127h48l85 -127h-44z" />
    <glyph glyph-name="Wdieresis.small" unicode="&#xf6a7;" horiz-adv-x="886" 
d="M21 585h212v-57h-88l127 -442h1l136 499h78l140 -499h1l124 442h-89v57h201v-57h-45l-148 -532h-96l-130 462h-2l-129 -462h-96l-151 532h-46v57zM329 737h51v-85h-51v85zM506 737h51v-85h-51v85z" />
    <glyph glyph-name="Wgrave.small" unicode="&#xf6a8;" horiz-adv-x="886" 
d="M21 585h212v-57h-88l127 -442h1l136 499h78l140 -499h1l124 442h-89v57h201v-57h-45l-148 -532h-96l-130 462h-2l-129 -462h-96l-151 532h-46v57zM417 640l-77 140h69l63 -140h-55z" />
    <glyph glyph-name="Xsmall" unicode="&#xf778;" horiz-adv-x="634" 
d="M402 585h201v-57h-60l-172 -226l187 -245h54v-57h-225v57h76l-153 208l-153 -208h69v-57h-205v57h59l187 245l-170 226h-67v57h222v-57h-60l137 -186l137 186h-64v57z" />
    <glyph glyph-name="Ysmall" unicode="&#xf779;" horiz-adv-x="598" 
d="M335 57h61v-57h-194v57h61v137l-192 334h-50v57h217v-57h-85l150 -268h2l148 268h-82v57h205v-57h-49l-192 -334v-137z" />
    <glyph glyph-name="Yacutesmall" unicode="&#xf7fd;" horiz-adv-x="598" 
d="M335 57h61v-57h-194v57h61v137l-192 334h-50v57h217v-57h-85l150 -268h2l148 268h-82v57h205v-57h-49l-192 -334v-137zM418 780l-77 -140h-55l62 140h70z" />
    <glyph glyph-name="Ycircumflex.small" unicode="&#xf6a9;" horiz-adv-x="598" 
d="M335 57h61v-57h-194v57h61v137l-192 334h-50v57h217v-57h-85l150 -268h2l148 268h-82v57h205v-57h-49l-192 -334v-137zM298 724l-64 -84h-44l85 127h48l85 -127h-44z" />
    <glyph glyph-name="Ydieresissmall" unicode="&#xf7ff;" horiz-adv-x="598" 
d="M335 57h61v-57h-194v57h61v137l-192 334h-50v57h217v-57h-85l150 -268h2l148 268h-82v57h205v-57h-49l-192 -334v-137zM185 737h51v-85h-51v85zM362 737h51v-85h-51v85z" />
    <glyph glyph-name="Ygrave.small" unicode="&#xf6aa;" horiz-adv-x="598" 
d="M335 57h61v-57h-194v57h61v137l-192 334h-50v57h217v-57h-85l150 -268h2l148 268h-82v57h205v-57h-49l-192 -334v-137zM275 640l-77 140h69l63 -140h-55z" />
    <glyph glyph-name="Zsmall" unicode="&#xf77a;" horiz-adv-x="508" 
d="M54 585h403v-53l-326 -473v-2h283v64h58v-121h-431v53l330 473v1h-260v-64h-57v122z" />
    <glyph glyph-name="Zacute.small" unicode="&#xf6ab;" horiz-adv-x="508" 
d="M54 585h403v-53l-326 -473v-2h283v64h58v-121h-431v53l330 473v1h-260v-64h-57v122zM356 780l-77 -140h-55l62 140h70z" />
    <glyph glyph-name="Zcaronsmall" unicode="&#xf6ff;" horiz-adv-x="508" 
d="M54 585h403v-53l-326 -473v-2h283v64h58v-121h-431v53l330 473v1h-260v-64h-57v122zM189 767l64 -84l66 84h44l-85 -127h-48l-85 127h44z" />
    <glyph glyph-name="Zdotaccent.small" unicode="&#xf6ac;" horiz-adv-x="508" 
d="M54 585h403v-53l-326 -473v-2h283v64h58v-121h-431v53l330 473v1h-260v-64h-57v122zM222 780h63v-115h-63v115z" />
    <glyph glyph-name="abreve" unicode="&#x103;" horiz-adv-x="535" 
d="M138 374h-59v116c66 13 133 20 186 20c116 0 179 -36 179 -164v-287h68v-59h-138v50h-2c-48 -39 -95 -60 -160 -60c-80 0 -166 42 -166 142c0 120 106 153 212 153h116v57c0 73 -34 109 -124 109c-26 0 -61 -2 -112 -11v-66zM374 93v148h-108c-111 0 -150 -35 -150 -101
c0 -57 43 -95 119 -95c66 0 114 28 139 48zM272 621c67 0 87 49 98 89h38c-13 -90 -66 -131 -136 -131c-69 0 -122 41 -135 131h39c10 -40 30 -89 96 -89z" />
    <glyph glyph-name="amacron" unicode="&#x101;" horiz-adv-x="535" 
d="M138 374h-59v116c66 13 133 20 186 20c116 0 179 -36 179 -164v-287h68v-59h-138v50h-2c-48 -39 -95 -60 -160 -60c-80 0 -166 42 -166 142c0 120 106 153 212 153h116v57c0 73 -34 109 -124 109c-26 0 -61 -2 -112 -11v-66zM374 93v148h-108c-111 0 -150 -35 -150 -101
c0 -57 43 -95 119 -95c66 0 114 28 139 48zM145 642h242v-51h-242v51z" />
    <glyph glyph-name="aogonek" unicode="&#x105;" horiz-adv-x="535" 
d="M456 -150l4 -20c-23 -18 -55 -29 -87 -29c-43 0 -83 22 -83 69c0 49 34 94 84 130v50h-2c-51 -42 -97 -60 -163 -60c-100 0 -163 56 -163 144c0 107 83 151 210 151h118v57c0 74 -34 109 -124 109c-26 0 -61 -1 -112 -11v-66h-59v116c66 13 133 20 186 20
c116 0 179 -36 179 -164v-287h68v-59h-100c-41 -31 -74 -78 -74 -115c0 -34 20 -55 57 -55c30 0 47 12 61 20zM374 93v148h-114c-109 0 -144 -39 -144 -101c0 -57 43 -95 119 -95c66 0 114 28 139 48z" />
    <glyph glyph-name="aeacute" unicode="&#x1fd;" horiz-adv-x="852" 
d="M547 700l-77 -140h-55l62 140h70zM235 45c65 0 121 28 159 66c-15 35 -20 78 -20 130h-114c-109 0 -144 -39 -144 -101c0 -57 43 -95 119 -95zM449 287h283c4 16 6 30 6 46c0 64 -33 122 -129 122c-114 0 -153 -75 -160 -168zM800 241h-351c2 -115 51 -192 179 -192
c51 0 101 3 156 20l10 -57c-61 -17 -110 -22 -175 -22c-106 0 -170 34 -207 94c-66 -74 -138 -94 -203 -94c-100 0 -163 56 -163 144c0 117 94 151 215 151h113v54c0 76 -31 112 -124 112c-26 0 -61 -1 -112 -11v-66h-59v116c52 10 121 20 182 20c97 0 143 -30 161 -114
c29 69 89 114 190 114c152 0 197 -88 197 -191c0 -24 -3 -50 -9 -78z" />
    <glyph glyph-name="cacute" unicode="&#x107;" horiz-adv-x="492" 
d="M457 374h-58v66c-50 11 -86 11 -109 11c-119 0 -165 -86 -165 -201s46 -201 165 -201c34 0 76 0 154 20l13 -57c-60 -15 -105 -22 -167 -22c-177 0 -239 106 -239 260s62 260 239 260c62 0 107 -7 167 -22v-114zM385 700l-77 -140h-55l62 140h70z" />
    <glyph glyph-name="ccaron" unicode="&#x10d;" horiz-adv-x="492" 
d="M457 374h-58v66c-50 11 -86 11 -109 11c-119 0 -165 -86 -165 -201s46 -201 165 -201c34 0 76 0 154 20l13 -57c-60 -15 -105 -22 -167 -22c-177 0 -239 106 -239 260s62 260 239 260c62 0 107 -7 167 -22v-114zM224 687l64 -84l66 84h44l-85 -127h-48l-85 127h44z" />
    <glyph glyph-name="ccircumflex" unicode="&#x109;" horiz-adv-x="492" 
d="M457 374h-58v66c-50 11 -86 11 -109 11c-119 0 -165 -86 -165 -201s46 -201 165 -201c34 0 76 0 154 20l13 -57c-60 -15 -105 -22 -167 -22c-177 0 -239 106 -239 260s62 260 239 260c62 0 107 -7 167 -22v-114zM275 644l-64 -84h-44l85 127h48l85 -127h-44z" />
    <glyph glyph-name="cdotaccent" unicode="&#x10b;" horiz-adv-x="492" 
d="M457 374h-58v66c-50 11 -86 11 -109 11c-119 0 -165 -86 -165 -201s46 -201 165 -201c34 0 76 0 154 20l13 -57c-60 -15 -105 -22 -167 -22c-177 0 -239 106 -239 260s62 260 239 260c62 0 107 -7 167 -22v-114zM239 700h63v-115h-63v115z" />
    <glyph glyph-name="c_t" horiz-adv-x="865" 
d="M457 374h-58v66c-50 11 -86 11 -109 11c-119 0 -165 -86 -165 -201s46 -201 165 -201c34 0 76 0 154 20l13 -57c-60 -15 -105 -22 -167 -22c-177 0 -239 106 -239 260s62 260 239 260c62 0 107 -7 167 -22v-114zM591 147v302h-79v46l79 5l9 140h61v-140h148v-51h-148
v-291c0 -73 20 -111 91 -111c16 0 32 1 55 5l7 -55c-26 -4 -62 -7 -84 -7c-97 0 -139 40 -139 157z" />
    <glyph glyph-name="dcaron" unicode="&#x10f;" horiz-adv-x="631" 
d="M330 641v59h139v-641h68v-59h-138v50h-2c-38 -35 -97 -60 -160 -60c-140 0 -186 114 -186 260s50 260 190 260c60 0 118 -23 156 -58h2v189h-69zM125 250c0 -108 31 -201 139 -201c61 0 112 29 135 48v306c-23 19 -74 48 -135 48c-108 0 -139 -94 -139 -201zM585 495h-25
l17 106h-26v99h70v-99z" />
    <glyph glyph-name="dcroat" unicode="&#x111;" horiz-adv-x="560" 
d="M399 700h70v-88h62v-44h-62v-509h68v-59h-138v50h-2c-56 -46 -112 -60 -163 -60c-127 0 -183 107 -183 260c0 146 50 260 190 260c60 0 118 -23 156 -58h2v116h-94v44h94v88zM125 250c0 -108 31 -201 139 -201c61 0 112 29 135 48v306c-23 19 -74 48 -135 48
c-108 0 -139 -94 -139 -201z" />
    <glyph glyph-name="ebreve" unicode="&#x115;" horiz-adv-x="530" 
d="M478 241h-353c2 -112 50 -192 181 -192c51 0 100 3 156 20l9 -57c-60 -17 -110 -22 -175 -22c-181 0 -245 106 -245 260s64 260 239 260c151 0 196 -88 196 -191c0 -24 -2 -50 -8 -78zM286 455c-114 0 -154 -75 -161 -168h285c3 16 5 30 5 46c0 64 -32 122 -129 122z
M286 621c67 0 87 49 98 89h38c-13 -90 -66 -131 -136 -131c-69 0 -122 41 -135 131h39c10 -40 30 -89 96 -89z" />
    <glyph glyph-name="ecaron" unicode="&#x11b;" horiz-adv-x="530" 
d="M478 241h-353c2 -112 50 -192 181 -192c51 0 100 3 156 20l9 -57c-60 -17 -110 -22 -175 -22c-181 0 -245 106 -245 260s64 260 239 260c151 0 196 -88 196 -191c0 -24 -2 -50 -8 -78zM286 455c-114 0 -154 -75 -161 -168h285c3 16 5 30 5 46c0 64 -32 122 -129 122z
M217 687l64 -84l66 84h44l-85 -127h-48l-85 127h44z" />
    <glyph glyph-name="edotaccent" unicode="&#x117;" horiz-adv-x="530" 
d="M478 241h-353c2 -112 50 -192 181 -192c51 0 100 3 156 20l9 -57c-60 -17 -110 -22 -175 -22c-181 0 -245 106 -245 260s64 260 239 260c151 0 196 -88 196 -191c0 -24 -2 -50 -8 -78zM286 455c-114 0 -154 -75 -161 -168h285c3 16 5 30 5 46c0 64 -32 122 -129 122z
M241 700h63v-115h-63v115z" />
    <glyph glyph-name="emacron" unicode="&#x113;" horiz-adv-x="530" 
d="M478 241h-353c2 -112 50 -192 181 -192c51 0 100 3 156 20l9 -57c-60 -17 -110 -22 -175 -22c-181 0 -245 106 -245 260s64 260 239 260c151 0 196 -88 196 -191c0 -24 -2 -50 -8 -78zM286 455c-114 0 -154 -75 -161 -168h285c3 16 5 30 5 46c0 64 -32 122 -129 122z
M162 642h242v-51h-242v51z" />
    <glyph glyph-name="eogonek" unicode="&#x119;" horiz-adv-x="530" 
d="M127 287h283c3 16 5 30 5 46c0 64 -32 122 -129 122c-114 0 -152 -75 -159 -168zM478 241h-351c2 -112 48 -192 179 -192c51 0 100 3 156 20l9 -57c-41 -31 -74 -78 -74 -116c0 -34 20 -54 57 -54c30 0 47 12 61 20l4 -20c-23 -18 -55 -29 -87 -29c-43 0 -84 22 -84 69
c0 44 30 86 71 119c-41 -8 -76 -11 -123 -11c-181 0 -245 106 -245 260s64 260 239 260c151 0 196 -88 196 -191c0 -24 -2 -50 -8 -78z" />
    <glyph glyph-name="ff" unicode="&#xfb00;" horiz-adv-x="636" 
d="M398 59v390h-227v-390h78v-59h-217v59h69v390h-79v46l79 5v43c0 117 42 157 139 157c22 0 51 -3 76 -7l-7 -55c-23 4 -38 5 -54 5c-68 0 -84 -38 -84 -111v-32h227v43c0 117 42 157 139 157c22 0 50 -3 76 -7l-7 -55c-23 4 -39 5 -54 5c-68 0 -84 -38 -84 -111v-32h140
v-51h-140v-390h81v-59h-216v59h65z" />
    <glyph glyph-name="ffi" unicode="&#xfb03;" horiz-adv-x="856" 
d="M765 59h69v-59h-204v59h65v390h-227v-390h78v-59h-213v59h65v390h-227v-390h78v-59h-217v59h69v390h-79v46l79 5v43c0 117 42 157 139 157c22 0 51 -3 76 -7l-7 -55c-23 4 -38 5 -54 5c-68 0 -84 -38 -84 -111v-32h227v32c0 117 59 168 180 168c34 0 114 -10 168 -33
l-9 -51c-58 22 -117 27 -151 27c-91 0 -118 -42 -118 -111v-32h297v-441z" />
    <glyph glyph-name="f_f_j" horiz-adv-x="826" 
d="M695 449h-227v-390h78v-59h-213v59h65v390h-227v-390h78v-59h-217v59h69v390h-79v46l79 5v43c0 117 42 157 139 157c22 0 51 -3 76 -7l-7 -55c-23 4 -38 5 -54 5c-68 0 -84 -38 -84 -111v-32h227v32c0 117 59 168 180 168c34 0 114 -10 168 -33l-9 -51
c-58 22 -117 27 -151 27c-91 0 -118 -42 -118 -111v-32h297v-578c0 -94 -36 -132 -139 -132c-22 0 -50 3 -76 7l7 55c23 -4 39 -5 54 -5c65 0 84 21 84 82v520z" />
    <glyph glyph-name="ffl" unicode="&#xfb04;" horiz-adv-x="856" 
d="M398 449h-227v-390h78v-59h-217v59h69v390h-79v46l79 5v43c0 117 42 157 139 157c22 0 51 -3 76 -7l-7 -55c-23 4 -38 5 -54 5c-68 0 -84 -38 -84 -111v-32h227v32c0 117 59 168 180 168c29 0 84 -5 136 -26h51v-615h69v-59h-204v59h65v560c-56 22 -92 24 -109 24
c-91 0 -118 -42 -118 -111v-32h140v-51h-140v-390h78v-59h-213v59h65v390z" />
    <glyph glyph-name="fi" unicode="&#xfb01;" horiz-adv-x="559" 
d="M468 59h69v-59h-204v59h65v390h-227v-390h78v-59h-217v59h69v390h-79v46l79 5v32c0 117 59 168 180 168c34 0 114 -10 168 -33l-9 -51c-58 22 -117 27 -151 27c-91 0 -118 -42 -118 -111v-32h297v-441z" />
    <glyph glyph-name="f_j" horiz-adv-x="529" 
d="M398 449h-227v-390h78v-59h-217v59h69v390h-79v46l79 5v32c0 117 59 168 180 168c34 0 114 -10 168 -33l-9 -51c-58 22 -117 27 -151 27c-91 0 -118 -42 -118 -111v-32h297v-578c0 -94 -36 -132 -139 -132c-22 0 -50 3 -76 7l7 55c23 -4 39 -5 54 -5c65 0 84 21 84 82
v520z" />
    <glyph glyph-name="fl" unicode="&#xfb02;" horiz-adv-x="559" 
d="M468 59h69v-59h-204v59h65v560c-56 22 -92 24 -109 24c-91 0 -118 -42 -118 -111v-32h140v-51h-140v-390h78v-59h-217v59h69v390h-79v46l79 5v32c0 117 59 168 180 168c29 0 84 -5 136 -26h51v-615z" />
    <glyph glyph-name="gbreve" unicode="&#x11f;" horiz-adv-x="555" 
d="M96 -69c0 -56 45 -92 155 -92c107 0 192 35 192 110c0 33 -21 61 -93 65l-184 10c-40 -26 -70 -49 -70 -93zM265 226c77 0 127 43 127 114c0 73 -51 121 -127 121c-86 0 -130 -48 -130 -121s50 -114 130 -114zM126 35v2c-62 33 -44 115 25 161v2c-51 25 -84 74 -84 140
c0 107 74 170 198 170c28 0 50 -5 68 -10h171v-44h-105v-1c50 -29 59 -79 59 -115c0 -110 -84 -164 -193 -164c-21 0 -53 4 -76 13c-41 -42 -48 -102 7 -105l176 -8c105 -6 145 -52 145 -115c0 -107 -86 -171 -282 -171c-129 0 -200 41 -200 130c0 46 28 82 91 115zM286 621
c67 0 87 49 98 89h38c-13 -90 -66 -131 -136 -131c-69 0 -122 41 -135 131h39c10 -40 30 -89 96 -89z" />
    <glyph glyph-name="gcircumflex" unicode="&#x11d;" horiz-adv-x="555" 
d="M96 -69c0 -56 45 -92 155 -92c107 0 192 35 192 110c0 33 -21 61 -93 65l-184 10c-40 -26 -70 -49 -70 -93zM265 226c77 0 127 43 127 114c0 73 -51 121 -127 121c-86 0 -130 -48 -130 -121s50 -114 130 -114zM126 35v2c-62 33 -44 115 25 161v2c-51 25 -84 74 -84 140
c0 107 74 170 198 170c28 0 50 -5 68 -10h171v-44h-105v-1c50 -29 59 -79 59 -115c0 -110 -84 -164 -193 -164c-21 0 -53 4 -76 13c-41 -42 -48 -102 7 -105l176 -8c105 -6 145 -52 145 -115c0 -107 -86 -171 -282 -171c-129 0 -200 41 -200 130c0 46 28 82 91 115zM279 644
l-64 -84h-44l85 127h48l85 -127h-44z" />
    <glyph glyph-name="gcommaaccent" unicode="&#x123;" horiz-adv-x="555" 
d="M96 -69c0 -56 45 -92 155 -92c107 0 192 35 192 110c0 33 -21 61 -93 65l-184 10c-40 -26 -70 -49 -70 -93zM265 226c77 0 127 43 127 114c0 73 -51 121 -127 121c-86 0 -130 -48 -130 -121s50 -114 130 -114zM126 35v2c-62 33 -44 115 25 161v2c-51 25 -84 74 -84 140
c0 107 74 170 198 170c28 0 50 -5 68 -10h171v-44h-105v-1c50 -29 59 -79 59 -115c0 -110 -84 -164 -193 -164c-21 0 -53 4 -76 13c-41 -42 -48 -102 7 -105l176 -8c105 -6 145 -52 145 -115c0 -107 -86 -171 -282 -171c-129 0 -200 41 -200 130c0 46 28 82 91 115zM259 850
h25l-17 -130h26v-123h-70v123z" />
    <glyph glyph-name="gdotaccent" unicode="&#x121;" horiz-adv-x="555" 
d="M96 -69c0 -56 45 -92 155 -92c107 0 192 35 192 110c0 33 -21 61 -93 65l-184 10c-40 -26 -70 -49 -70 -93zM265 226c77 0 127 43 127 114c0 73 -51 121 -127 121c-86 0 -130 -48 -130 -121s50 -114 130 -114zM126 35v2c-62 33 -44 115 25 161v2c-51 25 -84 74 -84 140
c0 107 74 170 198 170c28 0 50 -5 68 -10h171v-44h-105v-1c50 -29 59 -79 59 -115c0 -110 -84 -164 -193 -164c-21 0 -53 4 -76 13c-41 -42 -48 -102 7 -105l176 -8c105 -6 145 -52 145 -115c0 -107 -86 -171 -282 -171c-129 0 -200 41 -200 130c0 46 28 82 91 115zM227 700
h63v-115h-63v115z" />
    <glyph glyph-name="hbar" unicode="&#x127;" horiz-adv-x="590" 
d="M364 0v59h65v272c0 69 -27 120 -110 120c-66 0 -125 -41 -158 -67v-325h65v-59h-204v59h69v509h-62v44h62v88h70v-88h94v-44h-94v-141h2c47 44 104 78 170 81c15 1 30 1 44 -1c81 -8 122 -66 122 -161v-287h68v-59h-203z" />
    <glyph glyph-name="hcircumflex" unicode="&#x125;" horiz-adv-x="590" 
d="M364 0v59h65v272c0 69 -27 120 -110 120c-66 0 -125 -41 -158 -67v-325h65v-59h-204v59h69v582h-69v59h139v-273h2c51 49 113 83 186 83c100 0 150 -58 150 -164v-287h68v-59h-203zM116 834l-64 -84h-44l85 127h48l85 -127h-44z" />
    <glyph glyph-name="ibreve" unicode="&#x12d;" horiz-adv-x="252" 
d="M22 441v59h139v-441h69v-59h-208v59h69v382h-69zM118 621c67 0 87 49 98 89h38c-13 -90 -66 -131 -136 -131c-69 0 -122 41 -135 131h39c10 -40 30 -89 96 -89z" />
    <glyph glyph-name="imacron" unicode="&#x12b;" horiz-adv-x="252" 
d="M22 441v59h139v-441h69v-59h-208v59h69v382h-69zM-4 642h242v-51h-242v51z" />
    <glyph glyph-name="iogonek" unicode="&#x12f;" horiz-adv-x="252" 
d="M193 -150l5 -20c-23 -18 -56 -29 -88 -29c-42 0 -83 22 -83 69c0 49 36 94 85 130h-90v59h69v382h-69v59h139v-441h69v-59h-80c-41 -31 -75 -78 -75 -115c0 -34 20 -55 57 -55c30 0 48 12 61 20zM91 700h70v-119h-70v119z" />
    <glyph glyph-name="itilde" unicode="&#x129;" horiz-adv-x="252" 
d="M22 441v59h139v-441h69v-59h-208v59h69v382h-69zM65 625c-24 0 -37 -3 -84 -51l-23 26c41 60 70 78 105 78c48 0 97 -57 131 -57c18 0 39 7 65 49l20 -29c-17 -36 -42 -71 -85 -71c-36 0 -91 55 -129 55z" />
    <glyph glyph-name="ij" unicode="&#x133;" horiz-adv-x="445" 
d="M22 441v59h139v-441h69v-59h-208v59h69v382h-69zM91 700h70v-119h-70v119zM235 441v59h149v-578c0 -94 -37 -132 -139 -132c-23 0 -51 3 -76 7l7 55c23 -4 38 -5 54 -5c64 0 84 21 84 82v512h-79zM314 700h70v-119h-70v119z" />
    <glyph glyph-name="dotlessi" unicode="&#x131;" horiz-adv-x="252" 
d="M22 441v59h139v-441h69v-59h-208v59h69v382h-69z" />
    <glyph glyph-name="jcircumflex" unicode="&#x135;" horiz-adv-x="232" 
d="M22 441v59h149v-578c0 -94 -36 -132 -139 -132c-22 0 -50 3 -76 7l7 55c23 -4 39 -5 54 -5c65 0 84 21 84 82v512h-79zM126 644l-64 -84h-44l85 127h48l85 -127h-44z" />
    <glyph glyph-name="dotlessj" unicode="&#x237;" horiz-adv-x="232" 
d="M22 441v59h149v-578c0 -94 -36 -132 -139 -132c-22 0 -50 3 -76 7l7 55c23 -4 39 -5 54 -5c65 0 84 21 84 82v512h-79z" />
    <glyph glyph-name="kcommaaccent" unicode="&#x137;" horiz-adv-x="600" 
d="M22 641v59h139v-448l249 189h-63v59h220v-59h-76l-152 -115l172 -267h66v-59h-220v59h66l-143 229l-119 -91v-138h69v-59h-208v59h69v582h-69zM302 -245h-25l17 106h-26v99h70v-99z" />
    <glyph glyph-name="kgreenlandic" unicode="&#x138;" horiz-adv-x="600" 
d="M22 441v59h139v-248l249 189h-59v59h216v-59h-76l-152 -115l172 -267h66v-59h-220v59h66l-143 229l-119 -91v-138h69v-59h-208v59h69v382h-69z" />
    <glyph glyph-name="lacute" unicode="&#x13a;" horiz-adv-x="290" 
d="M22 641v59h139v-641h69v-59h-208v59h69v582h-69zM228 890l-77 -140h-55l62 140h70z" />
    <glyph glyph-name="lcaron" unicode="&#x13e;" horiz-adv-x="299" 
d="M22 641v59h139v-641h69v-59h-208v59h69v582h-69zM252 495h-25l17 106h-26v99h70v-99z" />
    <glyph glyph-name="lcommaaccent" unicode="&#x13c;" horiz-adv-x="290" 
d="M22 641v59h139v-641h69v-59h-208v59h69v582h-69zM125 -245h-25l17 106h-26v99h70v-99z" />
    <glyph glyph-name="ldot" unicode="&#x140;" horiz-adv-x="291" 
d="M22 641v59h139v-641h69v-59h-208v59h69v582h-69zM218 417h63v-115h-63v115z" />
    <glyph glyph-name="lslash" unicode="&#x142;" horiz-adv-x="290" 
d="M22 641v59h139v-320l69 21v-37l-69 -20v-285h69v-59h-208v59h69v264l-69 -20v36l69 20v282h-69z" />
    <glyph glyph-name="nacute" unicode="&#x144;" horiz-adv-x="590" 
d="M364 0v59h65v272c0 69 -27 120 -110 120c-66 0 -125 -41 -158 -67v-325h65v-59h-204v59h69v382h-69v59h139v-73h2c51 49 113 83 186 83c100 0 150 -58 150 -164v-287h68v-59h-203zM392 700l-77 -140h-55l62 140h70z" />
    <glyph glyph-name="napostrophe" unicode="&#x149;" horiz-adv-x="590" 
d="M364 0v59h65v272c0 69 -27 120 -110 120c-66 0 -125 -41 -158 -67v-325h65v-59h-204v59h69v382h-69v59h139v-73h2c51 49 113 83 186 83c100 0 150 -58 150 -164v-287h68v-59h-203zM123 576h-25l17 106h-26v99h70v-99z" />
    <glyph glyph-name="ncaron" unicode="&#x148;" horiz-adv-x="590" 
d="M364 0v59h65v272c0 69 -27 120 -110 120c-66 0 -125 -41 -158 -67v-325h65v-59h-204v59h69v382h-69v59h139v-73h2c51 49 113 83 186 83c100 0 150 -58 150 -164v-287h68v-59h-203zM232 687l64 -84l66 84h44l-85 -127h-48l-85 127h44z" />
    <glyph glyph-name="ncommaaccent" unicode="&#x146;" horiz-adv-x="590" 
d="M364 0v59h65v272c0 69 -27 120 -110 120c-66 0 -125 -41 -158 -67v-325h65v-59h-204v59h69v382h-69v59h139v-73h2c51 49 113 83 186 83c100 0 150 -58 150 -164v-287h68v-59h-203zM297 -245h-25l17 106h-26v99h70v-99z" />
    <glyph glyph-name="obreve" unicode="&#x14f;" horiz-adv-x="550" 
d="M275 451c-116 0 -150 -90 -150 -201s34 -201 150 -201s150 90 150 201s-34 201 -150 201zM275 -10c-163 0 -224 106 -224 260s61 260 224 260s224 -106 224 -260s-61 -260 -224 -260zM274 621c67 0 87 49 98 89h38c-13 -90 -66 -131 -136 -131c-69 0 -122 41 -135 131h39
c10 -40 30 -89 96 -89z" />
    <glyph glyph-name="ohungarumlaut" unicode="&#x151;" horiz-adv-x="550" 
d="M275 451c-116 0 -150 -90 -150 -201s34 -201 150 -201s150 90 150 201s-34 201 -150 201zM275 -10c-163 0 -224 106 -224 260s61 260 224 260s224 -106 224 -260s-61 -260 -224 -260zM290 700l-85 -140h-40l63 140h62zM460 700l-85 -140h-40l63 140h62z" />
    <glyph glyph-name="omacron" unicode="&#x14d;" horiz-adv-x="550" 
d="M275 451c-116 0 -150 -90 -150 -201s34 -201 150 -201s150 90 150 201s-34 201 -150 201zM275 -10c-163 0 -224 106 -224 260s61 260 224 260s224 -106 224 -260s-61 -260 -224 -260zM154 642h242v-51h-242v51z" />
    <glyph glyph-name="oslashacute" unicode="&#x1ff;" horiz-adv-x="550" 
d="M382 700l-77 -140h-55l62 140h70zM275 -10c-69 0 -119 21 -154 56l-64 -75l-25 20l66 76c-33 46 -47 109 -47 183c0 154 61 260 224 260c69 0 119 -21 153 -56l65 75l24 -19l-66 -77c33 -46 48 -109 48 -183c0 -154 -61 -260 -224 -260zM275 49c116 0 150 90 150 201
c0 45 -7 88 -26 121l-235 -275c24 -29 59 -47 111 -47zM275 451c-116 0 -150 -90 -150 -201c0 -45 7 -89 25 -121l235 274c-23 29 -59 48 -110 48z" />
    <glyph glyph-name="racute" unicode="&#x155;" horiz-adv-x="400" 
d="M22 441v59h139v-80h2c45 45 116 90 196 90v-66c-79 0 -158 -39 -198 -67v-318h81v-59h-220v59h69v382h-69zM250 700l-77 -140h-55l62 140h70z" />
    <glyph glyph-name="rcaron" unicode="&#x159;" horiz-adv-x="400" 
d="M22 441v59h139v-80h2c45 45 116 90 196 90v-66c-79 0 -158 -39 -198 -67v-318h81v-59h-220v59h69v382h-69zM139 687l64 -84l66 84h44l-85 -127h-48l-85 127h44z" />
    <glyph glyph-name="rcommaaccent" unicode="&#x157;" horiz-adv-x="400" 
d="M22 441v59h139v-80h2c45 45 116 90 196 90v-66c-79 0 -158 -39 -198 -67v-318h81v-59h-220v59h69v382h-69zM125 -245h-25l17 106h-26v99h70v-99z" />
    <glyph glyph-name="sacute" unicode="&#x15b;" horiz-adv-x="480" 
d="M426 374h-59v66c-56 13 -107 13 -132 13c-105 0 -113 -59 -113 -76c0 -37 18 -69 120 -90c110 -23 192 -53 192 -149c0 -95 -63 -148 -179 -148c-76 0 -149 7 -209 22v114h59v-66c58 -13 116 -13 142 -13c107 0 117 67 117 87c0 37 -22 67 -126 88
c-102 19 -186 52 -186 153c0 89 64 135 179 135c76 0 135 -7 195 -22v-114zM357 700l-77 -140h-55l62 140h70z" />
    <glyph glyph-name="scedilla" unicode="&#x15f;" horiz-adv-x="480" 
d="M226 -74v65c-66 1 -127 8 -180 21v114h59v-66c58 -13 116 -13 142 -13c107 0 117 67 117 87c0 37 -22 67 -126 88c-102 19 -186 52 -186 153c0 89 64 135 179 135c76 0 135 -7 195 -22v-114h-59v66c-56 13 -107 13 -132 13c-105 0 -113 -59 -113 -76
c0 -37 18 -69 120 -90c110 -23 192 -53 192 -149c0 -92 -59 -144 -168 -148v-43c35 -2 77 -23 77 -74c0 -47 -40 -78 -99 -78c-24 0 -42 4 -68 12l5 29c16 -4 30 -9 53 -9c50 0 60 30 60 49c0 20 -13 49 -68 50z" />
    <glyph glyph-name="scircumflex" unicode="&#x15d;" horiz-adv-x="480" 
d="M426 374h-59v66c-56 13 -107 13 -132 13c-105 0 -113 -59 -113 -76c0 -37 18 -69 120 -90c110 -23 192 -53 192 -149c0 -95 -63 -148 -179 -148c-76 0 -149 7 -209 22v114h59v-66c58 -13 116 -13 142 -13c107 0 117 67 117 87c0 37 -22 67 -126 88
c-102 19 -186 52 -186 153c0 89 64 135 179 135c76 0 135 -7 195 -22v-114zM245 644l-64 -84h-44l85 127h48l85 -127h-44z" />
    <glyph glyph-name="scommaaccent" unicode="&#x219;" horiz-adv-x="480" 
d="M426 374h-59v66c-56 13 -107 13 -132 13c-105 0 -113 -59 -113 -76c0 -37 18 -69 120 -90c110 -23 192 -53 192 -149c0 -95 -63 -148 -179 -148c-76 0 -149 7 -209 22v114h59v-66c58 -13 116 -13 142 -13c107 0 117 67 117 87c0 37 -22 67 -126 88
c-102 19 -186 52 -186 153c0 89 64 135 179 135c76 0 135 -7 195 -22v-114zM224 -245h-25l17 106h-26v99h70v-99z" />
    <glyph glyph-name="s_p" horiz-adv-x="1025" 
d="M426 374h-59v66c-56 13 -107 13 -132 13c-105 0 -113 -59 -113 -76c0 -37 18 -69 120 -90c110 -23 192 -53 192 -149c0 -95 -63 -148 -179 -148c-76 0 -149 7 -209 22v114h59v-66c58 -13 116 -13 142 -13c107 0 117 67 117 87c0 37 -22 67 -126 88
c-102 19 -186 52 -186 153c0 89 64 135 179 135c76 0 135 -7 195 -22v-114zM487 441v59h139v-50h2c38 35 97 60 159 60c140 0 187 -114 187 -260s-50 -260 -190 -260c-61 0 -118 23 -156 58h-2v-189h69v-59h-208v59h69v582h-69zM900 250c0 107 -31 201 -139 201
c-61 0 -112 -29 -135 -48v-306c23 -19 74 -48 135 -48c108 0 139 93 139 201z" />
    <glyph glyph-name="s_t" unicode="&#xfb06;" horiz-adv-x="860" 
d="M426 374h-59v66c-56 13 -107 13 -132 13c-105 0 -113 -59 -113 -76c0 -37 18 -69 120 -90c110 -23 192 -53 192 -149c0 -95 -63 -148 -179 -148c-76 0 -149 7 -209 22v114h59v-66c58 -13 116 -13 142 -13c107 0 117 67 117 87c0 37 -22 67 -126 88
c-102 19 -186 52 -186 153c0 89 64 135 179 135c76 0 135 -7 195 -22v-114zM586 147v302h-79v46l79 5l9 140h61v-140h148v-51h-148v-291c0 -73 20 -111 91 -111c16 0 32 1 55 5l7 -55c-26 -4 -62 -7 -84 -7c-97 0 -139 40 -139 157z" />
    <glyph glyph-name="tbar" unicode="&#x167;" horiz-adv-x="375" 
d="M101 251h-60v44h60v154h-79v46l79 5l9 140h61v-140h148v-51h-148v-154h138v-44h-138v-93c0 -73 20 -111 91 -111c16 0 32 1 55 5l7 -55c-26 -4 -62 -7 -84 -7c-97 0 -139 40 -139 157v104z" />
    <glyph glyph-name="tcaron" unicode="&#x165;" horiz-adv-x="375" 
d="M101 147v302h-79v46l79 5l9 140h61v-140h148v-51h-148v-291c0 -73 20 -111 91 -111c16 0 32 1 55 5l7 -55c-26 -4 -62 -7 -84 -7c-97 0 -139 40 -139 157zM305 605h-25l17 106h-26v99h70v-99z" />
    <glyph glyph-name="tcommaaccent" unicode="&#x163;" horiz-adv-x="375" 
d="M101 147v302h-79v46l79 5l9 140h61v-140h148v-51h-148v-291c0 -73 20 -111 91 -111c16 0 32 1 55 5l7 -55c-26 -4 -62 -7 -84 -7c-97 0 -139 40 -139 157zM183 -245h-25l17 106h-26v99h70v-99z" />
    <glyph glyph-name="uni021B" unicode="&#x21b;" horiz-adv-x="375" 
d="M101 147v302h-79v46l79 5l9 140h61v-140h148v-51h-148v-291c0 -73 20 -111 91 -111c16 0 32 1 55 5l7 -55c-26 -4 -62 -7 -84 -7c-97 0 -139 40 -139 157zM194 -247h-25l17 106h-26v99h70v-99z" />
    <glyph glyph-name="ubreve" unicode="&#x16d;" horiz-adv-x="590" 
d="M22 441v59h139v-331c0 -69 28 -120 110 -120c66 0 125 41 158 67v325h-88v59h158v-441h68v-59h-138v72h-2c-51 -48 -113 -82 -186 -82c-100 0 -150 57 -150 164v287h-69zM293 621c67 0 87 49 98 89h38c-13 -90 -66 -131 -136 -131c-69 0 -122 41 -135 131h39
c10 -40 30 -89 96 -89z" />
    <glyph glyph-name="uhungarumlaut" unicode="&#x171;" horiz-adv-x="590" 
d="M22 441v59h139v-331c0 -69 28 -120 110 -120c66 0 125 41 158 67v325h-88v59h158v-441h68v-59h-138v72h-2c-51 -48 -113 -82 -186 -82c-100 0 -150 57 -150 164v287h-69zM309 700l-85 -140h-40l63 140h62zM479 700l-85 -140h-40l63 140h62z" />
    <glyph glyph-name="umacron" unicode="&#x16b;" horiz-adv-x="590" 
d="M22 441v59h139v-331c0 -69 28 -120 110 -120c66 0 125 41 158 67v325h-88v59h158v-441h68v-59h-138v72h-2c-51 -48 -113 -82 -186 -82c-100 0 -150 57 -150 164v287h-69zM164 642h242v-51h-242v51z" />
    <glyph glyph-name="uogonek" unicode="&#x173;" horiz-adv-x="590" 
d="M499 59h68v-59h-100c-41 -31 -74 -78 -74 -115c0 -34 20 -55 57 -55c30 0 47 12 61 20l4 -20c-23 -18 -55 -29 -87 -29c-43 0 -83 22 -83 69c0 49 34 94 84 130v72h-2c-51 -48 -113 -82 -186 -82c-100 0 -150 57 -150 164v287h-69v59h139v-331c0 -69 28 -120 110 -120
c66 0 125 41 158 67v325h-88v59h158v-441z" />
    <glyph glyph-name="uring" unicode="&#x16f;" horiz-adv-x="590" 
d="M22 441v59h139v-331c0 -69 28 -120 110 -120c66 0 125 41 158 67v325h-88v59h158v-441h68v-59h-138v72h-2c-51 -48 -113 -82 -186 -82c-100 0 -150 57 -150 164v287h-69zM207 650c0 49 39 88 88 88s88 -39 88 -88s-39 -88 -88 -88s-88 39 -88 88zM235 650
c0 -34 26 -60 60 -60s60 26 60 60s-26 60 -60 60s-60 -26 -60 -60z" />
    <glyph glyph-name="utilde" unicode="&#x169;" horiz-adv-x="590" 
d="M22 441v59h139v-331c0 -69 28 -120 110 -120c66 0 125 41 158 67v325h-88v59h158v-441h68v-59h-138v72h-2c-51 -48 -113 -82 -186 -82c-100 0 -150 57 -150 164v287h-69zM241 625c-24 0 -37 -3 -84 -51l-23 26c41 60 70 78 105 78c48 0 97 -57 131 -57c18 0 39 7 65 49
l20 -29c-17 -36 -42 -71 -85 -71c-36 0 -91 55 -129 55z" />
    <glyph glyph-name="wacute" unicode="&#x1e83;" horiz-adv-x="810" 
d="M592 441v59h195v-59h-47l-138 -446h-75l-122 385h-2l-114 -385h-75l-146 446h-46v59h206v-59h-85l114 -363h2l121 422h59l127 -426h2l104 367h-80zM519 698l-77 -140h-55l62 140h70z" />
    <glyph glyph-name="wcircumflex" unicode="&#x175;" horiz-adv-x="810" 
d="M592 441v59h195v-59h-47l-138 -446h-75l-122 385h-2l-114 -385h-75l-146 446h-46v59h206v-59h-85l114 -363h2l121 422h59l127 -426h2l104 367h-80zM408 644l-64 -84h-44l85 127h48l85 -127h-44z" />
    <glyph glyph-name="wdieresis" unicode="&#x1e85;" horiz-adv-x="810" 
d="M592 441v59h195v-59h-47l-138 -446h-75l-122 385h-2l-114 -385h-75l-146 446h-46v59h206v-59h-85l114 -363h2l121 422h59l127 -426h2l104 367h-80zM295 677h51v-85h-51v85zM472 677h51v-85h-51v85z" />
    <glyph glyph-name="wgrave" unicode="&#x1e81;" horiz-adv-x="810" 
d="M592 441v59h195v-59h-47l-138 -446h-75l-122 385h-2l-114 -385h-75l-146 446h-46v59h206v-59h-85l114 -363h2l121 422h59l127 -426h2l104 367h-80zM374 560l-77 140h69l63 -140h-55z" />
    <glyph glyph-name="ycircumflex" unicode="&#x177;" horiz-adv-x="580" 
d="M362 441v59h195v-59h-46l-187 -475c-42 -106 -99 -176 -189 -176c-22 0 -48 3 -67 7l7 57c17 -4 32 -5 46 -5c76 0 113 77 137 138l-188 454h-48v59h206v-59h-80l153 -381h2l138 381h-79zM298 644l-64 -84h-44l85 127h48l85 -127h-44z" />
    <glyph glyph-name="ygrave" unicode="&#x1ef3;" horiz-adv-x="580" 
d="M362 441v59h195v-59h-46l-187 -475c-42 -106 -99 -176 -189 -176c-22 0 -48 3 -67 7l7 57c17 -4 32 -5 46 -5c76 0 113 77 137 138l-188 454h-48v59h206v-59h-80l153 -381h2l138 381h-79zM262 560l-77 140h69l63 -140h-55z" />
    <glyph glyph-name="zacute" unicode="&#x17a;" horiz-adv-x="470" 
d="M39 500h390v-55l-309 -388v-2h262v71h59v-126h-409v55l311 388v2h-246v-71h-58v126zM332 700l-77 -140h-55l62 140h70z" />
    <glyph glyph-name="zdotaccent" unicode="&#x17c;" horiz-adv-x="470" 
d="M39 500h390v-55l-309 -388v-2h262v71h59v-126h-409v55l311 388v2h-246v-71h-58v126zM198 700h63v-115h-63v115z" />
    <glyph glyph-name="asuperior" unicode="&#xf6e9;" horiz-adv-x="279" 
d="M70 616h-31v58c33 7 67 11 94 11c58 0 90 -18 90 -82v-141h34v-32h-72v25h-1c-23 -19 -43 -28 -72 -29c-9 -1 -17 -1 -25 0c-37 5 -60 27 -63 61c-1 8 -1 16 0 24c5 46 49 62 103 62h58v28c0 35 -17 52 -60 52c-13 0 -30 -1 -55 -5v-32zM185 478v72h-52
c-54 0 -73 -17 -73 -50c0 -27 21 -46 58 -46c31 0 55 14 67 24z" />
    <glyph glyph-name="bsuperior" unicode="&#xf6ea;" horiz-adv-x="289" 
d="M22 748v32h72v-125h1c18 18 48 30 78 30c70 0 94 -57 94 -130s-25 -130 -95 -130c-30 0 -60 11 -79 29h-1l-7 -24h-63v32h34v286h-34zM227 555c0 53 -15 98 -68 98c-29 0 -55 -14 -65 -23v-150c10 -9 36 -23 65 -23c53 0 68 45 68 98z" />
    <glyph glyph-name="dsuperior" unicode="&#xf6eb;" horiz-adv-x="289" 
d="M161 748v32h72v-318h34v-32h-72v25h-1c-18 -17 -48 -30 -78 -30c-70 0 -94 57 -94 130s25 130 95 130c30 0 59 -11 77 -29h1v92h-34zM62 555c0 -53 15 -98 68 -98c29 0 55 14 65 23v150c-10 9 -36 23 -65 23c-53 0 -68 -45 -68 -98z" />
    <glyph glyph-name="esuperior" unicode="&#xf6ec;" horiz-adv-x="265" 
d="M238 550h-175c2 -55 24 -93 88 -93c25 0 50 1 78 10l5 -31c-31 -9 -56 -11 -88 -11c-92 0 -124 53 -124 130s32 130 121 130c104 0 105 -82 95 -135zM141 655c-55 0 -74 -36 -78 -81h138c7 38 -2 81 -60 81z" />
    <glyph glyph-name="h.superior" horiz-adv-x="317" 
d="M192 430v32h32v133c0 34 -14 58 -54 58c-31 0 -61 -19 -76 -32v-159h31v-32h-103v32h34v286h-34v32h72v-136h1c24 24 55 41 92 41c50 0 75 -29 75 -82v-141h33v-32h-103z" />
    <glyph glyph-name="isuperior" unicode="&#xf6ed;" horiz-adv-x="150" 
d="M22 648v32h72v-218h34v-32h-106v32h34v186h-34zM56 780h38v-60h-38v60z" />
    <glyph glyph-name="lsuperior" unicode="&#xf6ee;" horiz-adv-x="150" 
d="M22 748v32h72v-318h34v-32h-106v32h34v286h-34z" />
    <glyph glyph-name="msuperior" unicode="&#xf6ef;" horiz-adv-x="467" 
d="M183 430v32h32v134c-1 33 -14 57 -54 57c-28 0 -52 -19 -67 -32v-159h31v-32h-103v32h34v186h-34v32h72v-36h1c18 19 42 38 74 40c8 1 16 0 24 -1c27 -4 45 -19 54 -43c23 25 54 45 90 45c50 0 75 -29 75 -82v-141h33v-32h-103v32h32v133c0 34 -15 58 -54 58
c-28 0 -53 -19 -69 -33c1 -7 2 -15 2 -24v-134h32v-32h-102z" />
    <glyph glyph-name="nsuperior" unicode="&#x207f;" horiz-adv-x="317" 
d="M192 430v32h32v133c0 34 -14 58 -54 58c-31 0 -61 -19 -76 -32v-159h31v-32h-103v32h34v186h-34v32h72v-36h1c24 24 55 41 92 41c50 0 75 -29 75 -82v-141h33v-32h-103z" />
    <glyph glyph-name="osuperior" unicode="&#xf6f0;" horiz-adv-x="271" 
d="M136 653c-57 0 -74 -43 -74 -98s17 -98 74 -98c56 0 72 43 72 98s-16 98 -72 98zM136 425c-83 0 -114 53 -114 130s31 130 114 130c82 0 112 -53 112 -130s-30 -130 -112 -130z" />
    <glyph glyph-name="rsuperior" unicode="&#xf6f1;" horiz-adv-x="214" 
d="M22 648v32h72v-40h1c21 23 57 45 97 45v-36c-39 0 -78 -18 -98 -32v-155h39v-32h-111v32h34v186h-34z" />
    <glyph glyph-name="ssuperior" unicode="&#xf6f2;" horiz-adv-x="240" 
d="M214 616h-32v32c-27 6 -52 6 -64 6c-51 0 -55 -28 -55 -36c0 -18 9 -33 58 -43c54 -11 97 -27 97 -75c0 -49 -32 -75 -90 -75c-38 0 -76 4 -106 11v58h32v-32c28 -6 57 -6 69 -6c52 0 57 32 57 41c0 18 -11 33 -61 42c-52 10 -93 27 -93 77c0 46 31 69 89 69
c39 0 69 -4 99 -11v-58z" />
    <glyph glyph-name="tsuperior" unicode="&#xf6f3;" horiz-adv-x="196" 
d="M61 503v149h-39v25l39 3l4 70h34v-70h73v-28h-73v-143c0 -35 10 -53 44 -53c8 0 16 0 27 2l4 -29c-13 -3 -32 -4 -43 -4c-49 0 -70 20 -70 78z" />
    <glyph glyph-name="Ethsmall" horiz-adv-x="598" 
d="M21 585h276c196 0 254 -125 254 -288c0 -166 -58 -297 -254 -297h-276v57h61v219h-61v42h61v210h-61v57zM155 57h142c144 0 179 113 179 240s-35 231 -179 231h-142v-210h95v-42h-95v-219z" />
    <glyph glyph-name="Thornsmall" horiz-adv-x="551" 
d="M165 492h132c132 0 203 -80 203 -194c0 -120 -71 -194 -203 -194h-132v-104h-143v59h69v467h-69v59h143v-93zM165 433v-270h125c84 0 134 47 134 135c0 82 -50 135 -134 135h-125z" />
    <glyph glyph-name="Eng" unicode="&#x14a;" horiz-adv-x="690" 
d="M599 621v-656c0 -123 -43 -167 -126 -173c-12 -1 -26 -2 -40 -1c-29 0 -52 2 -70 6l7 62c24 -3 41 -5 60 -5c67 0 95 34 95 115l-11 47l-353 523h-2v-480h71v-59h-208v59h69v562h-69v59h143l364 -547h2v488h-71v59h207v-59h-68z" />
    <glyph glyph-name="Eng.small" horiz-adv-x="625" 
d="M542 -12v-44c0 -115 -52 -154 -139 -154c-28 0 -55 3 -78 7l7 56c21 -2 38 -4 55 -4c59 0 83 29 83 95v56l-319 457h-2v-400h63v-57h-191v57h61v471h-61v57h130l323 -464h2v407h-63v57h190v-57h-61v-540z" />
    <glyph glyph-name="eng" unicode="&#x14b;" horiz-adv-x="560" 
d="M429 -43v374c0 69 -27 120 -110 120c-66 0 -125 -41 -158 -67v-325h65v-59h-204v59h69v382h-69v59h139v-73h2c51 49 113 83 186 83c100 0 150 -58 150 -164v-389c0 -116 -37 -167 -139 -167c-23 0 -51 3 -76 7l7 55c23 -4 38 -5 54 -5c67 0 84 38 84 110z" />
    <glyph glyph-name="longs" unicode="&#x17f;" horiz-adv-x="291" 
d="M101 -42v585c0 117 42 157 139 157c22 0 51 -3 76 -7l-7 -55c-23 4 -38 5 -54 5c-68 0 -84 -38 -84 -111v-575c0 -116 -36 -167 -139 -167c-22 0 -50 3 -76 7l7 55c23 -4 39 -5 54 -5c68 0 84 38 84 111z" />
    <glyph glyph-name="longs_h" horiz-adv-x="900" 
d="M398 55v564c-56 22 -92 24 -109 24c-91 0 -118 -42 -118 -111v-575c0 -116 -36 -167 -139 -167c-22 0 -50 3 -76 7l7 55c23 -4 39 -5 54 -5c68 0 84 38 84 111v574c0 117 59 168 180 168c29 0 84 -5 136 -26h51v-250h2c51 48 113 82 186 82c100 0 150 -57 150 -164v-287
h68v-59h-203v59h65v272c0 69 -27 120 -110 120c-66 0 -125 -41 -158 -66v-326h65v-59h-204v59h69z" />
    <glyph glyph-name="longs_l" horiz-adv-x="600" 
d="M171 532v-575c0 -116 -36 -167 -139 -167c-22 0 -50 3 -76 7l7 55c23 -4 39 -5 54 -5c68 0 84 38 84 111v574c0 117 59 168 180 168c29 0 84 -5 136 -26h51v-615h69v-59h-204v59h65v560c-56 22 -92 24 -109 24c-91 0 -118 -42 -118 -111z" />
    <glyph glyph-name="longs_t" unicode="&#xfb05;" horiz-adv-x="639" 
d="M101 -42v585c0 117 42 157 139 157c22 0 51 -3 76 -7l-7 -55c-23 4 -38 5 -54 5c-68 0 -84 -38 -84 -111v-575c0 -116 -36 -167 -139 -167c-22 0 -50 3 -76 7l7 55c23 -4 39 -5 54 -5c68 0 84 38 84 111zM365 147v302h-79v46l79 5l9 140h61v-140h147v-51h-147v-291
c0 -73 20 -111 91 -111c16 0 31 1 55 5l6 -55c-25 -4 -61 -7 -83 -7c-97 0 -139 40 -139 157z" />
    <glyph glyph-name="longs_i" horiz-adv-x="595" 
d="M101 -42v585c0 117 42 157 139 157c22 0 51 -3 76 -7l-7 -55c-23 4 -38 5 -54 5c-68 0 -84 -38 -84 -111v-575c0 -116 -36 -167 -139 -167c-22 0 -50 3 -76 7l7 55c23 -4 39 -5 54 -5c68 0 84 38 84 111zM296 441v59h139v-441h69v-59h-208v59h69v382h-69z" />
    <glyph glyph-name="longs_longs" horiz-adv-x="551" 
d="M101 -42v585c0 117 42 157 139 157c22 0 51 -3 76 -7l-7 -55c-23 4 -38 5 -54 5c-68 0 -84 -38 -84 -111v-575c0 -116 -36 -167 -139 -167c-22 0 -50 3 -76 7l7 55c23 -4 39 -5 54 -5c68 0 84 38 84 111zM361 -42v585c0 117 42 157 139 157c22 0 51 -3 76 -7l-7 -55
c-23 4 -38 5 -54 5c-68 0 -84 -38 -84 -111v-575c0 -116 -36 -167 -139 -167c-22 0 -50 3 -76 7l7 55c23 -4 39 -5 54 -5c68 0 84 38 84 111z" />
    <glyph glyph-name="zero.slash" horiz-adv-x="590" 
d="M295 -10c-179 0 -234 163 -234 355c0 189 55 345 234 345s234 -156 234 -345c0 -192 -55 -355 -234 -355zM295 49c131 0 160 146 160 296c0 54 -5 108 -20 153l-274 -346c23 -62 64 -103 134 -103zM295 631c-131 0 -160 -136 -160 -286c0 -53 4 -107 19 -152l272 344
c-23 57 -63 94 -131 94z" />
    <glyph glyph-name="franc" unicode="&#x20a3;" horiz-adv-x="650" 
d="M29 286h64c-1 19 -2 39 -2 59c0 16 0 32 1 49h-63v36h67c17 148 85 260 279 260c76 0 149 -10 230 -34v-130h-59v84c-74 17 -118 21 -165 21c-142 0 -191 -91 -205 -201h195l-3 -36h-198c-1 -17 -1 -33 -1 -49c0 -20 0 -40 1 -59h201l-3 -36h-191
c15 -113 64 -201 204 -201c47 0 91 3 165 21v84h59v-130c-81 -24 -154 -34 -230 -34c-190 0 -260 110 -278 260h-68v36z" />
    <glyph glyph-name="lira" unicode="&#x20a4;" horiz-adv-x="650" 
d="M29 286h64c-1 19 -2 39 -2 59c0 16 0 32 1 49h-63v36h67c17 148 85 260 279 260c76 0 149 -10 230 -34v-130h-59v84c-74 17 -118 21 -165 21c-142 0 -191 -91 -205 -201h195l-3 -36h-198c-1 -17 -1 -33 -1 -49c0 -20 0 -40 1 -59h201l-3 -36h-191
c15 -113 64 -201 204 -201c47 0 91 3 165 21v84h59v-130c-81 -24 -154 -34 -230 -34c-190 0 -260 110 -278 260h-68v36z" />
    <glyph glyph-name="peseta" unicode="&#x20a7;" horiz-adv-x="650" 
d="M29 286h64c-1 19 -2 39 -2 59c0 16 0 32 1 49h-63v36h67c17 148 85 260 279 260c76 0 149 -10 230 -34v-130h-59v84c-74 17 -118 21 -165 21c-142 0 -191 -91 -205 -201h195l-3 -36h-198c-1 -17 -1 -33 -1 -49c0 -20 0 -40 1 -59h201l-3 -36h-191
c15 -113 64 -201 204 -201c47 0 91 3 165 21v84h59v-130c-81 -24 -154 -34 -230 -34c-190 0 -260 110 -278 260h-68v36z" />
    <glyph glyph-name="colonmonetary" unicode="&#x20a1;" horiz-adv-x="610" 
d="M506 154h59v-130c-43 -13 -85 -22 -125 -27v-97h-33v93c-24 -2 -48 -3 -72 -3c-15 0 -30 1 -45 3v-93h-33v98c-164 32 -206 175 -206 347c0 165 42 305 206 338v97h33v-94c13 2 29 4 45 4c24 0 48 -1 72 -3v93h33v-97c40 -6 82 -15 125 -27v-130h-59v84
c-74 17 -118 21 -165 21c-174 0 -212 -136 -212 -286c0 -160 38 -296 212 -296c47 0 91 3 165 21v84z" />
    <glyph glyph-name="rupiah" unicode="&#xf6dd;" horiz-adv-x="615" 
d="M52 500h375c-5 75 -54 121 -133 121h-242v59h510v-36h-131c45 -32 70 -82 73 -144h58v-36h-59c-8 -90 -60 -172 -202 -172h-155l343 -233h66v-59h-104l-399 266v85h242c75 0 124 40 132 113h-374v36z" />
    <glyph glyph-name="zero.fitted" 
d="M284 631c-133 0 -163 -136 -163 -286s30 -296 163 -296c134 0 164 146 164 296s-30 286 -164 286zM284 -10c-190 0 -237 163 -237 355c0 189 47 345 237 345s238 -156 238 -345c0 -192 -48 -355 -238 -355z" />
    <glyph glyph-name="one.fitted" 
d="M320 59h189v-59h-450v59h190v558l-179 -11v50l216 29h34v-626z" />
    <glyph glyph-name="two.fitted" 
d="M446 134h59v-134h-448v69c304 200 350 328 350 404c0 136 -106 153 -153 153c-44 0 -85 -6 -138 -31v-68h-59v113c70 31 129 50 212 50c147 0 212 -93 212 -201c0 -140 -105 -273 -324 -425v-2h289v72z" />
    <glyph glyph-name="three.fitted" 
d="M56 37v115h59v-75c42 -19 95 -28 152 -28c150 0 168 88 168 132c0 75 -55 130 -181 130h-84v58h81c114 0 166 69 166 137c0 46 -24 125 -150 125c-53 0 -98 -12 -138 -29v-75h-59v116c65 33 138 47 208 47c130 0 208 -66 208 -177c0 -86 -61 -142 -136 -165v-2
c97 -17 157 -82 157 -169c0 -118 -80 -187 -236 -187c-79 0 -151 12 -215 47z" />
    <glyph glyph-name="four.fitted" 
d="M110 257h251v351h-2c-66 -128 -154 -245 -249 -351zM361 59v140h-325v58c112 120 234 267 307 428h89v-428h100v-58h-100v-140h69v-59h-210v59h70z" />
    <glyph glyph-name="five.fitted" 
d="M480 680v-134h-59v71h-265l-16 -259l2 -1c35 42 87 73 159 73c129 0 206 -78 206 -213c0 -146 -96 -227 -243 -227c-78 0 -139 17 -208 50v109h59v-70c54 -24 98 -30 145 -30c106 0 173 62 173 165c0 72 -37 155 -155 155c-64 0 -108 -25 -148 -75l-53 5l18 381h385z" />
    <glyph glyph-name="six.fitted" 
d="M127 359l2 -1c41 58 103 97 172 97c132 0 211 -85 211 -235c0 -144 -95 -230 -220 -230c-185 0 -235 152 -235 310c0 297 129 390 282 390c67 0 108 -11 152 -24v-120h-59v74c-29 7 -53 11 -87 11c-168 0 -215 -171 -218 -272zM133 301c-5 -129 19 -252 154 -252
c81 0 151 59 151 171c0 76 -29 174 -155 174c-61 0 -114 -41 -150 -93z" />
    <glyph glyph-name="seven.fitted" 
d="M64 680h447v-51c-104 -167 -225 -392 -265 -629h-78c31 194 159 457 266 615v2h-311v-71h-59v134z" />
    <glyph glyph-name="eight.fitted" 
d="M349 359v-2c98 -40 173 -88 173 -183c0 -117 -92 -184 -240 -184c-144 0 -235 64 -235 178c0 95 78 147 172 180v2c-88 33 -152 82 -152 170c0 108 93 170 219 170c123 0 215 -62 215 -167c0 -86 -60 -126 -152 -164zM119 174c0 -66 43 -131 168 -131
c122 0 163 61 163 126c0 89 -94 123 -175 153c-78 -26 -156 -67 -156 -148zM282 637c-56 0 -144 -25 -144 -116c0 -75 70 -113 154 -136c78 26 139 62 139 132c0 94 -89 120 -149 120z" />
    <glyph glyph-name="nine.fitted" 
d="M441 321l-2 1c-41 -58 -102 -97 -172 -97c-131 0 -210 85 -210 235c0 144 94 230 219 230c185 0 236 -152 236 -310c0 -298 -129 -390 -283 -390c-66 0 -107 11 -151 24v120h59v-74c29 -8 53 -11 87 -11c167 0 215 171 217 272zM436 379c5 128 -20 252 -155 252
c-80 0 -150 -59 -150 -171c0 -76 28 -174 154 -174c62 0 115 41 151 93z" />
    <glyph glyph-name="zerooldstyle" horiz-adv-x="570" 
d="M285 451c-103 0 -160 -84 -160 -201s57 -201 160 -201c102 0 160 84 160 201s-58 201 -160 201zM285 -10c-148 0 -234 102 -234 260c0 157 86 260 234 260c147 0 234 -103 234 -260c0 -158 -87 -260 -234 -260z" />
    <glyph glyph-name="oneoldstyle" horiz-adv-x="390" 
d="M217 59h125v-59h-320v59h125v378l-118 -11v50l155 29h33v-446z" />
    <glyph glyph-name="twooldstyle" horiz-adv-x="530" 
d="M424 126h58v-126h-441v69c274 114 354 187 354 260c0 99 -92 117 -139 117c-44 0 -93 -8 -146 -33v-66h-59v117c52 24 125 46 212 46c143 0 206 -77 206 -161c0 -140 -136 -206 -328 -288v-2h283v67z" />
    <glyph glyph-name="threeoldstyle" horiz-adv-x="520" 
d="M35 -143v115h59v-75c41 -19 93 -28 149 -28c147 0 164 88 164 132c0 75 -54 130 -177 130h-83v58h80c112 0 162 69 162 137c0 46 -23 125 -146 125c-52 0 -96 -12 -135 -29v-75h-59v116c64 33 137 47 205 47c128 0 205 -66 205 -177c0 -86 -60 -142 -135 -165v-2
c97 -17 155 -82 155 -169c0 -118 -78 -187 -232 -187c-78 0 -148 12 -212 47z" />
    <glyph glyph-name="fouroldstyle" horiz-adv-x="570" 
d="M114 59h246v369h-2c-64 -128 -151 -264 -244 -369zM360 -121v121h-319v59c110 120 229 285 301 446h88v-446h99v-59h-99v-121h69v-59h-208v59h69z" />
    <glyph glyph-name="fiveoldstyle" horiz-adv-x="540" 
d="M462 500v-134h-58v71h-260l-15 -259l2 -1c34 42 85 73 156 73c126 0 202 -78 202 -213c0 -146 -94 -227 -239 -227c-76 0 -136 17 -205 50v109h59v-70c53 -24 96 -30 142 -30c103 0 169 62 169 165c0 72 -36 155 -151 155c-63 0 -106 -25 -145 -75l-53 5l18 381h378z" />
    <glyph glyph-name="sixoldstyle" horiz-adv-x="550" 
d="M121 359l2 -1c41 58 101 97 169 97c129 0 207 -85 207 -235c0 -144 -93 -230 -216 -230c-182 0 -232 152 -232 310c0 297 127 390 278 390c65 0 106 -11 149 -24v-120h-59v74c-28 7 -51 11 -84 11c-164 0 -211 -171 -214 -272zM127 301c-5 -129 19 -252 151 -252
c78 0 147 59 147 171c0 76 -28 174 -151 174c-60 0 -112 -41 -147 -93z" />
    <glyph glyph-name="sevenoldstyle" horiz-adv-x="490" 
d="M47 500h402v-51c-102 -167 -222 -392 -260 -629h-78c30 194 156 457 261 615v2h-266v-71h-59v134z" />
    <glyph glyph-name="eightoldstyle" horiz-adv-x="550" 
d="M339 359v-2c97 -40 170 -88 170 -183c0 -117 -91 -184 -236 -184c-142 0 -232 64 -232 178c0 95 77 147 169 180v2c-86 33 -149 82 -149 170c0 108 92 170 216 170c120 0 212 -62 212 -167c0 -86 -60 -126 -150 -164zM113 174c0 -66 42 -131 164 -131
c120 0 160 61 160 126c0 89 -92 123 -172 153c-75 -26 -152 -67 -152 -148zM273 637c-55 0 -142 -25 -142 -116c0 -75 70 -113 152 -136c75 26 136 62 136 132c0 94 -87 120 -146 120z" />
    <glyph glyph-name="nineoldstyle" horiz-adv-x="550" 
d="M429 141l-2 1c-41 -58 -101 -97 -169 -97c-130 0 -207 85 -207 235c0 144 93 230 216 230c182 0 232 -152 232 -310c0 -298 -127 -390 -278 -390c-65 0 -106 11 -149 24v120h59v-74c28 -8 51 -11 84 -11c164 0 211 171 214 272zM423 199c5 128 -19 252 -151 252
c-78 0 -147 -59 -147 -171c0 -76 27 -174 151 -174c60 0 112 41 147 93z" />
    <glyph glyph-name="centoldstyle" unicode="&#xf7a2;" horiz-adv-x="510" 
d="M315 -130h-40v100h40v-100zM315 530h-40v100h40v-100zM409 374v64c-32 8 -64 13 -109 13c-118 0 -165 -103 -165 -201c0 -114 58 -201 165 -201c40 0 73 2 155 29l12 -57c-59 -21 -102 -31 -167 -31c-164 0 -239 107 -239 260c0 147 68 260 239 260c65 0 120 -9 167 -22
v-114h-58z" />
    <glyph glyph-name="dollaroldstyle" unicode="&#xf724;" horiz-adv-x="510" 
d="M275 -130h-40v100h40v-100zM275 530h-40v100h40v-100zM436 374h-59v66c-56 13 -107 13 -133 13c-105 0 -112 -59 -112 -76c0 -37 17 -69 120 -90c109 -23 191 -53 191 -149c0 -95 -63 -148 -179 -148c-75 0 -148 7 -208 22v114h58v-66c58 -13 117 -13 143 -13
c107 0 116 67 116 87c0 37 -22 67 -126 88c-102 19 -185 52 -185 153c0 89 63 135 179 135c75 0 135 -7 195 -22v-114z" />
    <glyph glyph-name="zero.taboldstyle" 
d="M284 451c-102 0 -160 -84 -160 -201s58 -201 160 -201c103 0 160 84 160 201s-57 201 -160 201zM284 -10c-147 0 -233 102 -233 260c0 157 86 260 233 260c148 0 234 -103 234 -260c0 -158 -86 -260 -234 -260z" />
    <glyph glyph-name="one.taboldstyle" 
d="M320 59h189v-59h-450v59h190v378l-179 -11v50l216 29h34v-446z" />
    <glyph glyph-name="two.taboldstyle" 
d="M443 126h59v-126h-435v69c274 114 347 187 347 260c0 99 -91 117 -139 117c-43 0 -93 -8 -146 -33v-66h-58v117c52 24 125 46 212 46c142 0 205 -77 205 -161c0 -140 -129 -206 -322 -288v-2h277v67z" />
    <glyph glyph-name="three.taboldstyle" 
d="M56 -143v115h59v-75c42 -19 95 -28 152 -28c150 0 168 88 168 132c0 75 -55 130 -181 130h-84v58h81c114 0 166 69 166 137c0 46 -24 125 -150 125c-53 0 -98 -12 -138 -29v-75h-59v116c65 33 138 47 208 47c130 0 208 -66 208 -177c0 -86 -61 -142 -136 -165v-2
c97 -17 157 -82 157 -169c0 -118 -80 -187 -236 -187c-79 0 -151 12 -215 47z" />
    <glyph glyph-name="four.taboldstyle" 
d="M110 59h251v369h-2c-66 -128 -154 -264 -249 -369zM361 -121v121h-325v59c112 120 234 285 307 446h89v-446h100v-59h-100v-121h69v-59h-210v59h70z" />
    <glyph glyph-name="five.taboldstyle" 
d="M480 500v-134h-59v71h-265l-16 -259l2 -1c35 42 87 73 159 73c129 0 206 -78 206 -213c0 -146 -96 -227 -243 -227c-78 0 -139 17 -208 50v109h59v-70c54 -24 98 -30 145 -30c106 0 173 62 173 165c0 72 -37 155 -155 155c-64 0 -108 -25 -148 -75l-53 5l18 381h385z" />
    <glyph glyph-name="six.taboldstyle" 
d="M127 359l2 -1c41 58 103 97 172 97c132 0 211 -85 211 -235c0 -144 -95 -230 -220 -230c-185 0 -235 152 -235 310c0 297 129 390 282 390c67 0 108 -11 152 -24v-120h-59v74c-29 7 -53 11 -87 11c-168 0 -215 -171 -218 -272zM133 301c-5 -129 19 -252 154 -252
c81 0 151 59 151 171c0 76 -29 174 -155 174c-61 0 -114 -41 -150 -93z" />
    <glyph glyph-name="seven.taboldstyle" 
d="M64 500h447v-51c-104 -167 -225 -392 -265 -629h-78c31 194 159 457 266 615v2h-311v-71h-59v134z" />
    <glyph glyph-name="eight.taboldstyle" 
d="M349 359v-2c98 -40 173 -88 173 -183c0 -117 -92 -184 -240 -184c-144 0 -235 64 -235 178c0 95 78 147 172 180v2c-88 33 -152 82 -152 170c0 108 93 170 219 170c123 0 215 -62 215 -167c0 -86 -60 -126 -152 -164zM119 174c0 -66 43 -131 168 -131
c122 0 163 61 163 126c0 89 -94 123 -175 153c-78 -26 -156 -67 -156 -148zM282 637c-56 0 -144 -25 -144 -116c0 -75 70 -113 154 -136c78 26 139 62 139 132c0 94 -89 120 -149 120z" />
    <glyph glyph-name="nine.taboldstyle" 
d="M441 141l-2 1c-41 -58 -102 -97 -172 -97c-131 0 -210 85 -210 235c0 144 94 230 219 230c185 0 236 -152 236 -310c0 -298 -129 -390 -283 -390c-66 0 -107 11 -151 24v120h59v-74c29 -8 53 -11 87 -11c167 0 215 171 217 272zM436 199c5 128 -20 252 -155 252
c-80 0 -150 -59 -150 -171c0 -76 28 -174 154 -174c62 0 115 41 151 93z" />
    <glyph glyph-name="currency.taboldstyle" horiz-adv-x="513" 
d="M100 249c0 45 18 85 48 114l-78 90l8 8l79 -90c27 22 62 36 100 36c37 0 72 -14 99 -36l78 90l9 -8l-78 -89c31 -29 50 -70 50 -115s-19 -86 -49 -114l76 -86l-9 -9l-77 87c-27 -22 -62 -35 -99 -35c-38 0 -73 13 -100 35l-76 -87l-9 9l76 86c-30 29 -48 69 -48 114z
M112 249c0 -79 66 -145 145 -145s146 66 146 145s-67 146 -146 146s-145 -67 -145 -146z" />
    <glyph glyph-name="cent.taboldstyle" 
d="M335 -130h-40v100h40v-100zM335 530h-40v100h40v-100zM429 374v64c-32 8 -64 13 -109 13c-118 0 -165 -103 -165 -201c0 -114 58 -201 165 -201c40 0 73 2 155 29l12 -57c-59 -21 -102 -31 -167 -31c-164 0 -239 107 -239 260c0 147 68 260 239 260c65 0 120 -9 167 -22
v-114h-58z" />
    <glyph glyph-name="dollar.taboldstyle" 
d="M310 -130h-40v100h40v-100zM310 530h-40v100h40v-100zM471 374h-59v66c-56 13 -107 13 -133 13c-105 0 -112 -59 -112 -76c0 -37 17 -69 120 -90c109 -23 191 -53 191 -149c0 -95 -63 -148 -179 -148c-75 0 -148 7 -208 22v114h58v-66c58 -13 117 -13 143 -13
c107 0 116 67 116 87c0 37 -22 67 -126 88c-102 19 -185 52 -185 153c0 89 63 135 179 135c75 0 135 -7 195 -22v-114z" />
    <glyph glyph-name="Euro.taboldstyle" 
d="M181 217h143v-25h-138c12 -61 57 -143 159 -143c40 0 73 2 155 29l12 -57c-58 -21 -102 -31 -167 -31c-146 0 -218 83 -235 202h-54v25h51c-1 11 -2 44 0 65h-51v25h54c10 80 63 203 235 203c65 0 112 -11 167 -31v-105h-58v57c-29 9 -58 20 -109 20
c-113 0 -150 -99 -159 -144h138v-25h-143c-3 -19 -1 -54 0 -65z" />
    <glyph glyph-name="franc.taboldstyle" 
d="M181 217h143v-25h-138c12 -61 57 -143 159 -143c40 0 73 2 155 29l12 -57c-58 -21 -102 -31 -167 -31c-146 0 -218 83 -235 202h-54v25h51c-1 11 -2 44 0 65h-51v25h54c10 80 63 203 235 203c65 0 112 -11 167 -31v-105h-58v57c-29 9 -58 20 -109 20
c-113 0 -150 -99 -159 -144h138v-25h-143c-3 -19 -1 -54 0 -65z" />
    <glyph glyph-name="sterling.taboldstyle" 
d="M445 62v72h59v-134h-452v62h50v169h-50v44h50v78c0 109 87 157 207 157c88 0 158 -20 207 -35v-105h-59v56c-32 9 -88 25 -152 25c-77 0 -133 -32 -133 -100v-76h148v-44h-148v-169h273z" />
    <glyph glyph-name="yen.taboldstyle" horiz-adv-x="600" 
d="M333 59h75v-59h-220v59h75v116h-124v36h105l-154 230h-47v59h112l143 -252h2l145 252h112v-59h-56l-154 -230h106v-36h-120v-116z" />
    <glyph glyph-name="lira.taboldstyle" 
d="M181 217h143v-25h-138c12 -61 57 -143 159 -143c40 0 73 2 155 29l12 -57c-58 -21 -102 -31 -167 -31c-146 0 -218 83 -235 202h-54v25h51c-1 11 -2 44 0 65h-51v25h54c10 80 63 203 235 203c65 0 112 -11 167 -31v-105h-58v57c-29 9 -58 20 -109 20
c-113 0 -150 -99 -159 -144h138v-25h-143c-3 -19 -1 -54 0 -65z" />
    <glyph glyph-name="peseta.taboldstyle" 
d="M181 217h143v-25h-138c12 -61 57 -143 159 -143c40 0 73 2 155 29l12 -57c-58 -21 -102 -31 -167 -31c-146 0 -218 83 -235 202h-54v25h51c-1 11 -2 44 0 65h-51v25h54c10 80 63 203 235 203c65 0 112 -11 167 -31v-105h-58v57c-29 9 -58 20 -109 20
c-113 0 -150 -99 -159 -144h138v-25h-143c-3 -19 -1 -54 0 -65z" />
    <glyph glyph-name="colonmonetary.taboldstyle" 
d="M384 -130h-33v100h33v-100zM384 530h-33v100h33v-100zM429 374v64c-32 8 -64 13 -109 13c-118 0 -165 -103 -165 -201c0 -114 58 -201 165 -201c40 0 73 2 155 29l12 -57c-59 -21 -102 -31 -167 -31c-164 0 -239 107 -239 260c0 147 68 260 239 260c65 0 120 -9 167 -22
v-114h-58zM276 -130h-32v100h32v-100zM276 530h-32v100h32v-100z" />
    <glyph glyph-name="florin.taboldstyle" horiz-adv-x="600" 
d="M246 -42v291h-79v46l79 5v53c0 117 42 157 139 157c22 0 51 -3 76 -7l-7 -55c-23 4 -38 5 -54 5c-68 0 -84 -38 -84 -111v-42h140v-51h-140v-292c0 -116 -36 -167 -139 -167c-22 0 -50 3 -76 7l7 55c23 -4 39 -5 54 -5c68 0 84 38 84 111z" />
    <glyph glyph-name="numbersign.taboldstyle" horiz-adv-x="600" 
d="M197 500h51l-13 -121h155l13 121h52l-13 -121h100l-5 -48h-100l-17 -162h100l-5 -48h-100l-13 -121h-52l14 121h-155l-14 -121h-51l13 121h-100l5 48h100l17 162h-100l5 48h100zM231 331l-18 -162h155l18 162h-155z" />
    <glyph glyph-name="zerosuperior" unicode="&#x2070;" horiz-adv-x="281" 
d="M141 853c-64 0 -79 -67 -79 -140c0 -75 15 -146 79 -146c63 0 77 71 77 146c0 73 -14 140 -77 140zM141 535c-95 0 -119 81 -119 178c0 94 24 172 119 172c93 0 117 -78 117 -172c0 -97 -24 -178 -117 -178z" />
    <glyph glyph-name="foursuperior" unicode="&#x2074;" horiz-adv-x="291" 
d="M62 671h119v170h-1c-31 -62 -73 -119 -118 -170zM181 572v67h-159v32c55 60 114 131 150 212h47v-212h49v-32h-49v-67h34v-32h-106v32h34z" />
    <glyph glyph-name="fivesuperior" unicode="&#x2075;" horiz-adv-x="269" 
d="M233 880v-69h-31v35h-127l-8 -125h1c17 19 42 34 77 34c63 0 101 -38 101 -106c0 -74 -47 -114 -120 -114c-38 0 -68 8 -104 25v55h32v-34c27 -11 47 -14 70 -14c50 0 82 30 82 80c0 35 -17 76 -74 76c-31 0 -51 -12 -71 -36l-28 2l9 191h191z" />
    <glyph glyph-name="sixsuperior" unicode="&#x2076;" horiz-adv-x="271" 
d="M60 721l1 -1c20 29 50 48 83 48c65 0 104 -43 104 -118c0 -72 -47 -115 -108 -115c-91 0 -118 76 -118 155c0 149 65 195 141 195c32 0 53 -5 75 -13v-60h-32v36c-13 3 -24 5 -41 5c-79 0 -104 -81 -105 -132zM63 690c-2 -63 9 -123 74 -123c38 0 71 29 71 83
c0 37 -13 84 -73 84c-29 0 -54 -19 -72 -44z" />
    <glyph glyph-name="sevensuperior" unicode="&#x2077;" horiz-adv-x="248" 
d="M22 880h203v-28c-51 -83 -109 -193 -129 -312h-42c15 96 77 226 129 305v1h-129v-34h-32v68z" />
    <glyph glyph-name="eightsuperior" unicode="&#x2078;" horiz-adv-x="281" 
d="M175 720v-1c47 -21 83 -45 83 -91c0 -60 -47 -93 -119 -93c-70 0 -117 31 -117 89c0 47 37 73 83 89v1c-42 18 -73 42 -73 85c0 55 47 86 110 86c59 0 106 -31 106 -84c0 -42 -29 -63 -73 -81zM62 628c0 -33 19 -64 80 -64c58 0 77 29 77 61c0 43 -45 60 -84 74
c-37 -12 -73 -32 -73 -71zM139 856c-27 0 -69 -12 -69 -56c0 -37 35 -56 75 -67c36 13 65 31 65 65c0 45 -42 58 -71 58z" />
    <glyph glyph-name="ninesuperior" unicode="&#x2079;" horiz-adv-x="271" 
d="M210 699l-1 1c-19 -29 -49 -47 -83 -47c-64 0 -104 42 -104 117c0 72 47 115 110 115c91 0 116 -76 116 -155c0 -149 -64 -195 -139 -195c-33 0 -54 5 -76 12v61h32v-36c13 -3 24 -5 40 -5c79 0 104 81 105 132zM207 730c3 63 -8 123 -73 123c-38 0 -72 -29 -72 -83
c0 -37 14 -84 74 -84c29 0 54 19 71 44z" />
    <glyph glyph-name="parenleftsuperior" unicode="&#x207d;" horiz-adv-x="156" 
d="M22 710c0 83 32 170 85 240h27c-51 -83 -74 -159 -74 -240c0 -80 23 -155 74 -240h-27c-53 70 -85 158 -85 240z" />
    <glyph glyph-name="parenrightsuperior" unicode="&#x207e;" horiz-adv-x="156" 
d="M134 710c0 -82 -32 -170 -85 -240h-27c51 85 74 160 74 240c0 81 -23 157 -74 240h27c53 -70 85 -157 85 -240z" />
    <glyph glyph-name="hyphensuperior" horiz-adv-x="236" 
d="M22 688h191v-31h-191v31z" />
    <glyph glyph-name="commasuperior" horiz-adv-x="85" 
d="M44 475h-14l9 65h-14v62h38v-62z" />
    <glyph glyph-name="periodsuperior" horiz-adv-x="83" 
d="M22 602h38v-62h-38v62z" />
    <glyph glyph-name="centsuperior" horiz-adv-x="304" 
d="M250 618h31v-66c-38 -11 -73 -16 -107 -17v-45h-18v45c-108 5 -134 82 -134 178c0 91 26 167 134 172v45h18v-45c34 -1 69 -6 107 -17v-66h-31v41c-37 8 -58 10 -82 10c-84 0 -103 -67 -103 -140c0 -80 19 -146 103 -146c24 0 45 1 82 10v41z" />
    <glyph glyph-name="dollarsuperior" horiz-adv-x="286" 
d="M22 621h32v-41c39 -9 65 -11 89 -11c57 0 78 31 78 60c0 44 -52 57 -87 67c-54 13 -107 43 -107 100c0 61 47 86 108 89v45h18v-45c33 -1 66 -7 103 -17v-69h-31v42c-37 8 -58 10 -82 10c-56 0 -73 -25 -73 -53c0 -43 52 -60 88 -69c55 -12 105 -37 105 -96
c0 -62 -46 -95 -110 -98v-45h-18v45c-35 1 -74 6 -113 17v69z" />
    <glyph glyph-name="zeroinferior" unicode="&#x2080;" horiz-adv-x="281" 
d="M141 113c-64 0 -79 -67 -79 -140c0 -75 15 -146 79 -146c63 0 77 71 77 146c0 73 -14 140 -77 140zM141 -205c-95 0 -119 81 -119 178c0 94 24 172 119 172c93 0 117 -78 117 -172c0 -97 -24 -178 -117 -178z" />
    <glyph glyph-name="oneinferior" unicode="&#x2081;" horiz-adv-x="206" 
d="M122 -168h62v-32h-161v32h61v274l-58 -6v27l78 16h18v-311z" />
    <glyph glyph-name="twoinferior" unicode="&#x2082;" horiz-adv-x="268" 
d="M214 -132h31v-68h-223v37c148 99 171 161 171 199c0 66 -51 75 -74 75c-21 0 -39 -4 -65 -16v-32h-32v57c36 16 65 25 106 25c73 0 105 -46 105 -101c0 -70 -52 -136 -157 -209v-1h138v34z" />
    <glyph glyph-name="threeinferior" unicode="&#x2083;" horiz-adv-x="269" 
d="M22 -181v58h32v-37c21 -9 46 -13 73 -13c71 0 80 42 80 64c0 37 -26 63 -86 63h-42v32h40c56 0 80 33 80 66c0 24 -12 61 -72 61c-25 0 -46 -5 -66 -14v-36h-32v58c33 17 70 24 105 24c63 0 102 -33 102 -89c0 -42 -29 -70 -66 -82v-1c47 -8 76 -41 76 -84
c0 -60 -39 -94 -116 -94c-40 0 -75 6 -108 24z" />
    <glyph glyph-name="fourinferior" unicode="&#x2084;" horiz-adv-x="291" 
d="M62 -69h119v170h-1c-31 -62 -73 -119 -118 -170zM181 -168v67h-159v32c55 60 114 131 150 212h47v-212h49v-32h-49v-67h34v-32h-106v32h34z" />
    <glyph glyph-name="fiveinferior" unicode="&#x2085;" horiz-adv-x="269" 
d="M233 140v-69h-31v35h-127l-8 -125h1c17 19 42 34 77 34c63 0 101 -38 101 -106c0 -74 -47 -114 -120 -114c-38 0 -68 8 -104 25v55h32v-34c27 -11 47 -14 70 -14c50 0 82 30 82 80c0 35 -17 76 -74 76c-31 0 -51 -12 -71 -36l-28 2l9 191h191z" />
    <glyph glyph-name="sixinferior" unicode="&#x2086;" horiz-adv-x="271" 
d="M60 -19l1 -1c20 29 50 48 83 48c65 0 104 -43 104 -118c0 -72 -47 -115 -108 -115c-91 0 -118 76 -118 155c0 149 65 195 141 195c32 0 53 -5 75 -13v-60h-32v36c-13 3 -24 5 -41 5c-79 0 -104 -81 -105 -132zM63 -50c-2 -63 9 -123 74 -123c38 0 71 29 71 83
c0 37 -13 84 -73 84c-29 0 -54 -19 -72 -44z" />
    <glyph glyph-name="seveninferior" unicode="&#x2087;" horiz-adv-x="248" 
d="M22 140h203v-28c-51 -83 -109 -193 -129 -312h-42c15 96 77 226 129 305v1h-129v-34h-32v68z" />
    <glyph glyph-name="eightinferior" unicode="&#x2088;" horiz-adv-x="281" 
d="M175 -20v-1c47 -21 83 -45 83 -91c0 -60 -47 -93 -119 -93c-70 0 -117 31 -117 89c0 47 37 73 83 89v1c-42 18 -73 42 -73 85c0 55 47 86 110 86c59 0 106 -31 106 -84c0 -42 -29 -63 -73 -81zM62 -112c0 -33 19 -64 80 -64c58 0 77 29 77 61c0 43 -45 60 -84 74
c-37 -12 -73 -32 -73 -71zM139 116c-27 0 -69 -12 -69 -56c0 -37 35 -56 75 -67c36 13 65 31 65 65c0 45 -42 58 -71 58z" />
    <glyph glyph-name="nineinferior" unicode="&#x2089;" horiz-adv-x="271" 
d="M210 -41l-1 1c-19 -29 -49 -47 -83 -47c-64 0 -104 42 -104 117c0 72 47 115 110 115c91 0 116 -76 116 -155c0 -149 -64 -195 -139 -195c-33 0 -54 5 -76 12v61h32v-36c13 -3 24 -5 40 -5c79 0 104 81 105 132zM207 -10c3 63 -8 123 -73 123c-38 0 -72 -29 -72 -83
c0 -37 14 -84 74 -84c29 0 54 19 71 44z" />
    <glyph glyph-name="parenleftinferior" unicode="&#x208d;" horiz-adv-x="156" 
d="M22 -30c0 83 32 170 85 240h27c-51 -83 -74 -159 -74 -240c0 -80 23 -155 74 -240h-27c-53 70 -85 158 -85 240z" />
    <glyph glyph-name="parenrightinferior" unicode="&#x208e;" horiz-adv-x="156" 
d="M134 -30c0 -82 -32 -170 -85 -240h-27c51 85 74 160 74 240c0 81 -23 157 -74 240h27c53 -70 85 -157 85 -240z" />
    <glyph glyph-name="hypheninferior" horiz-adv-x="236" 
d="M22 -52h191v-31h-191v31z" />
    <glyph glyph-name="commainferior" horiz-adv-x="85" 
d="M44 -265h-14l9 65h-14v62h38v-62z" />
    <glyph glyph-name="periodinferior" horiz-adv-x="83" 
d="M22 -138h38v-62h-38v62z" />
    <glyph glyph-name="centinferior" horiz-adv-x="304" 
d="M250 -122h31v-66c-38 -11 -73 -16 -107 -17v-45h-18v45c-108 5 -134 82 -134 178c0 91 26 167 134 172v45h18v-45c34 -1 69 -6 107 -17v-66h-31v41c-37 8 -58 10 -82 10c-84 0 -103 -67 -103 -140c0 -80 19 -146 103 -146c24 0 45 1 82 10v41z" />
    <glyph glyph-name="dollarinferior" horiz-adv-x="286" 
d="M22 -119h32v-41c39 -9 65 -11 89 -11c57 0 78 31 78 60c0 44 -52 57 -87 67c-54 13 -107 43 -107 100c0 61 47 86 108 89v45h18v-45c33 -1 66 -7 103 -17v-69h-31v42c-37 8 -58 10 -82 10c-56 0 -73 -25 -73 -53c0 -43 52 -60 88 -69c55 -12 105 -37 105 -96
c0 -62 -46 -95 -110 -98v-45h-18v45c-35 1 -74 6 -113 17v69z" />
    <glyph glyph-name="zero.denominator" horiz-adv-x="281" 
d="M141 313c-64 0 -79 -67 -79 -140c0 -75 15 -146 79 -146c63 0 77 71 77 146c0 73 -14 140 -77 140zM141 -5c-95 0 -119 81 -119 178c0 94 24 172 119 172c93 0 117 -78 117 -172c0 -97 -24 -178 -117 -178z" />
    <glyph glyph-name="one.denominator" horiz-adv-x="206" 
d="M122 32h62v-32h-161v32h61v274l-58 -6v27l78 16h18v-311z" />
    <glyph glyph-name="two.denominator" horiz-adv-x="268" 
d="M214 68h31v-68h-223v37c148 99 171 161 171 199c0 66 -51 75 -74 75c-21 0 -39 -4 -65 -16v-32h-32v57c36 16 65 25 106 25c73 0 105 -46 105 -101c0 -70 -52 -136 -157 -209v-1h138v34z" />
    <glyph glyph-name="three.denominator" horiz-adv-x="269" 
d="M22 19v58h32v-37c21 -9 46 -13 73 -13c71 0 80 42 80 64c0 37 -26 63 -86 63h-42v32h40c56 0 80 33 80 66c0 24 -12 61 -72 61c-25 0 -46 -5 -66 -14v-36h-32v58c33 17 70 24 105 24c63 0 102 -33 102 -89c0 -42 -29 -70 -66 -82v-1c47 -8 76 -41 76 -84
c0 -60 -39 -94 -116 -94c-40 0 -75 6 -108 24z" />
    <glyph glyph-name="four.denominator" horiz-adv-x="291" 
d="M62 131h119v170h-1c-31 -62 -73 -119 -118 -170zM181 32v67h-159v32c55 60 114 131 150 212h47v-212h49v-32h-49v-67h34v-32h-106v32h34z" />
    <glyph glyph-name="five.denominator" horiz-adv-x="269" 
d="M233 340v-69h-31v35h-127l-8 -125h1c17 19 42 34 77 34c63 0 101 -38 101 -106c0 -74 -47 -114 -120 -114c-38 0 -68 8 -104 25v55h32v-34c27 -11 47 -14 70 -14c50 0 82 30 82 80c0 35 -17 76 -74 76c-31 0 -51 -12 -71 -36l-28 2l9 191h191z" />
    <glyph glyph-name="six.denominator" horiz-adv-x="271" 
d="M60 181l1 -1c20 29 50 48 83 48c65 0 104 -43 104 -118c0 -72 -47 -115 -108 -115c-91 0 -118 76 -118 155c0 149 65 195 141 195c32 0 53 -5 75 -13v-60h-32v36c-13 3 -24 5 -41 5c-79 0 -104 -81 -105 -132zM63 150c-2 -63 9 -123 74 -123c38 0 71 29 71 83
c0 37 -13 84 -73 84c-29 0 -54 -19 -72 -44z" />
    <glyph glyph-name="seven.denominator" horiz-adv-x="248" 
d="M22 340h203v-28c-51 -83 -109 -193 -129 -312h-42c15 96 77 226 129 305v1h-129v-34h-32v68z" />
    <glyph glyph-name="eight.denominator" horiz-adv-x="281" 
d="M175 180v-1c47 -21 83 -45 83 -91c0 -60 -47 -93 -119 -93c-70 0 -117 31 -117 89c0 47 37 73 83 89v1c-42 18 -73 42 -73 85c0 55 47 86 110 86c59 0 106 -31 106 -84c0 -42 -29 -63 -73 -81zM62 88c0 -33 19 -64 80 -64c58 0 77 29 77 61c0 43 -45 60 -84 74
c-37 -12 -73 -32 -73 -71zM139 316c-27 0 -69 -12 -69 -56c0 -37 35 -56 75 -67c36 13 65 31 65 65c0 45 -42 58 -71 58z" />
    <glyph glyph-name="nine.denominator" horiz-adv-x="271" 
d="M210 159l-1 1c-19 -29 -49 -47 -83 -47c-64 0 -104 42 -104 117c0 72 47 115 110 115c91 0 116 -76 116 -155c0 -149 -64 -195 -139 -195c-33 0 -54 5 -76 12v61h32v-36c13 -3 24 -5 40 -5c79 0 104 81 105 132zM207 190c3 63 -8 123 -73 123c-38 0 -72 -29 -72 -83
c0 -37 14 -84 74 -84c29 0 54 19 71 44z" />
    <glyph glyph-name="parenleft.denominator" horiz-adv-x="156" 
d="M22 170c0 83 32 170 85 240h27c-51 -83 -74 -159 -74 -240c0 -80 23 -155 74 -240h-27c-53 70 -85 158 -85 240z" />
    <glyph glyph-name="parenright.denominator" horiz-adv-x="156" 
d="M134 170c0 -82 -32 -170 -85 -240h-27c51 85 74 160 74 240c0 81 -23 157 -74 240h27c53 -70 85 -157 85 -240z" />
    <glyph glyph-name="cent.denominator" horiz-adv-x="304" 
d="M250 78h31v-66c-38 -11 -73 -16 -107 -17v-45h-18v45c-108 5 -134 82 -134 178c0 91 26 167 134 172v45h18v-45c34 -1 69 -6 107 -17v-66h-31v41c-37 8 -58 10 -82 10c-84 0 -103 -67 -103 -140c0 -80 19 -146 103 -146c24 0 45 1 82 10v41z" />
    <glyph glyph-name="dollar.denominator" horiz-adv-x="286" 
d="M22 81h32v-41c39 -9 65 -11 89 -11c57 0 78 31 78 60c0 44 -52 57 -87 67c-54 13 -107 43 -107 100c0 61 47 86 108 89v45h18v-45c33 -1 66 -7 103 -17v-69h-31v42c-37 8 -58 10 -82 10c-56 0 -73 -25 -73 -53c0 -43 52 -60 88 -69c55 -12 105 -37 105 -96
c0 -62 -46 -95 -110 -98v-45h-18v45c-35 1 -74 6 -113 17v69z" />
    <glyph glyph-name="hyphen.denominator" horiz-adv-x="236" 
d="M22 148h191v-31h-191v31z" />
    <glyph glyph-name="comma.denominator" horiz-adv-x="85" 
d="M44 -65h-14l9 65h-14v62h38v-62z" />
    <glyph glyph-name="period.denominator" horiz-adv-x="83" 
d="M22 62h38v-62h-38v62z" />
    <glyph glyph-name="zero.numerator" horiz-adv-x="281" 
d="M141 653c-64 0 -79 -67 -79 -140c0 -75 15 -146 79 -146c63 0 77 71 77 146c0 73 -14 140 -77 140zM141 335c-95 0 -119 81 -119 178c0 94 24 172 119 172c93 0 117 -78 117 -172c0 -97 -24 -178 -117 -178z" />
    <glyph glyph-name="one.numerator" horiz-adv-x="206" 
d="M122 372h62v-32h-161v32h61v274l-58 -6v27l78 16h18v-311z" />
    <glyph glyph-name="two.numerator" horiz-adv-x="268" 
d="M214 408h31v-68h-223v37c148 99 171 161 171 199c0 66 -51 75 -74 75c-21 0 -39 -4 -65 -16v-32h-32v57c36 16 65 25 106 25c73 0 105 -46 105 -101c0 -70 -52 -136 -157 -209v-1h138v34z" />
    <glyph glyph-name="three.numerator" horiz-adv-x="269" 
d="M22 359v58h32v-37c21 -9 46 -13 73 -13c71 0 80 42 80 64c0 37 -26 63 -86 63h-42v32h40c56 0 80 33 80 66c0 24 -12 61 -72 61c-25 0 -46 -5 -66 -14v-36h-32v58c33 17 70 24 105 24c63 0 102 -33 102 -89c0 -42 -29 -70 -66 -82v-1c47 -8 76 -41 76 -84
c0 -60 -39 -94 -116 -94c-40 0 -75 6 -108 24z" />
    <glyph glyph-name="four.numerator" horiz-adv-x="291" 
d="M62 471h119v170h-1c-31 -62 -73 -119 -118 -170zM181 372v67h-159v32c55 60 114 131 150 212h47v-212h49v-32h-49v-67h34v-32h-106v32h34z" />
    <glyph glyph-name="five.numerator" horiz-adv-x="269" 
d="M233 680v-69h-31v35h-127l-8 -125h1c17 19 42 34 77 34c63 0 101 -38 101 -106c0 -74 -47 -114 -120 -114c-38 0 -68 8 -104 25v55h32v-34c27 -11 47 -14 70 -14c50 0 82 30 82 80c0 35 -17 76 -74 76c-31 0 -51 -12 -71 -36l-28 2l9 191h191z" />
    <glyph glyph-name="six.numerator" horiz-adv-x="271" 
d="M60 521l1 -1c20 29 50 48 83 48c65 0 104 -43 104 -118c0 -72 -47 -115 -108 -115c-91 0 -118 76 -118 155c0 149 65 195 141 195c32 0 53 -5 75 -13v-60h-32v36c-13 3 -24 5 -41 5c-79 0 -104 -81 -105 -132zM63 490c-2 -63 9 -123 74 -123c38 0 71 29 71 83
c0 37 -13 84 -73 84c-29 0 -54 -19 -72 -44z" />
    <glyph glyph-name="seven.numerator" horiz-adv-x="248" 
d="M22 680h203v-28c-51 -83 -109 -193 -129 -312h-42c15 96 77 226 129 305v1h-129v-34h-32v68z" />
    <glyph glyph-name="eight.numerator" horiz-adv-x="281" 
d="M175 520v-1c47 -21 83 -45 83 -91c0 -60 -47 -93 -119 -93c-70 0 -117 31 -117 89c0 47 37 73 83 89v1c-42 18 -73 42 -73 85c0 55 47 86 110 86c59 0 106 -31 106 -84c0 -42 -29 -63 -73 -81zM62 428c0 -33 19 -64 80 -64c58 0 77 29 77 61c0 43 -45 60 -84 74
c-37 -12 -73 -32 -73 -71zM139 656c-27 0 -69 -12 -69 -56c0 -37 35 -56 75 -67c36 13 65 31 65 65c0 45 -42 58 -71 58z" />
    <glyph glyph-name="nine.numerator" horiz-adv-x="271" 
d="M210 499l-1 1c-19 -29 -49 -47 -83 -47c-64 0 -104 42 -104 117c0 72 47 115 110 115c91 0 116 -76 116 -155c0 -149 -64 -195 -139 -195c-33 0 -54 5 -76 12v61h32v-36c13 -3 24 -5 40 -5c79 0 104 81 105 132zM207 530c3 63 -8 123 -73 123c-38 0 -72 -29 -72 -83
c0 -37 14 -84 74 -84c29 0 54 19 71 44z" />
    <glyph glyph-name="parenleft.numerator" horiz-adv-x="156" 
d="M22 510c0 83 32 170 85 240h27c-51 -83 -74 -159 -74 -240c0 -80 23 -155 74 -240h-27c-53 70 -85 158 -85 240z" />
    <glyph glyph-name="parenright.numerator" horiz-adv-x="156" 
d="M134 510c0 -82 -32 -170 -85 -240h-27c51 85 74 160 74 240c0 81 -23 157 -74 240h27c53 -70 85 -157 85 -240z" />
    <glyph glyph-name="cent.numerator" horiz-adv-x="304" 
d="M250 418h31v-66c-38 -11 -73 -16 -107 -17v-45h-18v45c-108 5 -134 82 -134 178c0 91 26 167 134 172v45h18v-45c34 -1 69 -6 107 -17v-66h-31v41c-37 8 -58 10 -82 10c-84 0 -103 -67 -103 -140c0 -80 19 -146 103 -146c24 0 45 1 82 10v41z" />
    <glyph glyph-name="dollar.numerator" horiz-adv-x="286" 
d="M22 421h32v-41c39 -9 65 -11 89 -11c57 0 78 31 78 60c0 44 -52 57 -87 67c-54 13 -107 43 -107 100c0 61 47 86 108 89v45h18v-45c33 -1 66 -7 103 -17v-69h-31v42c-37 8 -58 10 -82 10c-56 0 -73 -25 -73 -53c0 -43 52 -60 88 -69c55 -12 105 -37 105 -96
c0 -62 -46 -95 -110 -98v-45h-18v45c-35 1 -74 6 -113 17v69z" />
    <glyph glyph-name="hyphen.numerator" horiz-adv-x="236" 
d="M22 488h191v-31h-191v31z" />
    <glyph glyph-name="comma.numerator" horiz-adv-x="85" 
d="M44 275h-14l9 65h-14v62h38v-62z" />
    <glyph glyph-name="period.numerator" horiz-adv-x="83" 
d="M22 402h38v-62h-38v62z" />
    <glyph glyph-name="onethird" unicode="&#x2153;" horiz-adv-x="800" 
d="M584 680l-370 -680h-25l370 680h25zM172 372h62v-32h-161v32h61v274l-58 -6v27l78 16h18v-311zM504 19v58h31v-37c21 -9 46 -13 73 -13c72 0 80 42 80 64c0 37 -26 63 -86 63h-42v32h41c55 0 79 33 79 66c0 24 -12 61 -72 61c-25 0 -46 -5 -66 -14v-36h-31v58
c32 17 69 24 104 24c63 0 102 -33 102 -89c0 -42 -29 -70 -66 -82v-1c48 -8 76 -41 76 -84c0 -60 -39 -94 -116 -94c-40 0 -75 6 -107 24z" />
    <glyph glyph-name="oneeighth" unicode="&#x215b;" horiz-adv-x="800" 
d="M584 680l-370 -680h-25l370 680h25zM172 372h62v-32h-161v32h61v274l-58 -6v27l78 16h18v-311zM644 180v-1c48 -21 83 -45 83 -91c0 -60 -46 -93 -119 -93c-70 0 -116 31 -116 89c0 47 37 73 83 89v1c-43 18 -73 42 -73 85c0 55 47 86 109 86c60 0 106 -31 106 -84
c0 -42 -29 -63 -73 -81zM531 88c0 -33 20 -64 80 -64c58 0 77 29 77 61c0 43 -45 60 -84 74c-36 -12 -73 -32 -73 -71zM608 316c-26 0 -68 -12 -68 -56c0 -37 34 -56 74 -67c37 13 65 31 65 65c0 45 -41 58 -71 58z" />
    <glyph glyph-name="twothirds" unicode="&#x2154;" horiz-adv-x="800" 
d="M604 680l-370 -680h-25l370 680h25zM504 19v58h31v-37c21 -9 46 -13 73 -13c72 0 80 42 80 64c0 37 -26 63 -86 63h-42v32h41c55 0 79 33 79 66c0 24 -12 61 -72 61c-25 0 -46 -5 -66 -14v-36h-31v58c32 17 69 24 104 24c63 0 102 -33 102 -89c0 -42 -29 -70 -66 -82v-1
c48 -8 76 -41 76 -84c0 -60 -39 -94 -116 -94c-40 0 -75 6 -107 24zM264 408h31v-68h-223v37c148 99 171 161 171 199c0 66 -51 75 -74 75c-21 0 -39 -4 -65 -16v-32h-32v57c36 16 65 25 106 25c73 0 105 -46 105 -101c0 -70 -52 -136 -157 -209v-1h138v34z" />
    <glyph glyph-name="threeeighths" unicode="&#x215c;" horiz-adv-x="800" 
d="M594 680l-370 -680h-25l370 680h25zM644 180v-1c48 -21 83 -45 83 -91c0 -60 -46 -93 -119 -93c-70 0 -116 31 -116 89c0 47 37 73 83 89v1c-43 18 -73 42 -73 85c0 55 47 86 109 86c60 0 106 -31 106 -84c0 -42 -29 -63 -73 -81zM531 88c0 -33 20 -64 80 -64
c58 0 77 29 77 61c0 43 -45 60 -84 74c-36 -12 -73 -32 -73 -71zM608 316c-26 0 -68 -12 -68 -56c0 -37 34 -56 74 -67c37 13 65 31 65 65c0 45 -41 58 -71 58zM72 359v58h32v-37c21 -9 46 -13 73 -13c71 0 80 42 80 64c0 37 -26 63 -86 63h-42v32h40c56 0 80 33 80 66
c0 24 -12 61 -72 61c-25 0 -46 -5 -66 -14v-36h-32v58c33 17 70 24 105 24c63 0 102 -33 102 -89c0 -42 -29 -70 -66 -82v-1c47 -8 76 -41 76 -84c0 -60 -39 -94 -116 -94c-40 0 -75 6 -108 24z" />
    <glyph glyph-name="fiveeighths" unicode="&#x215d;" horiz-adv-x="800" 
d="M594 680l-370 -680h-25l370 680h25zM644 180v-1c48 -21 83 -45 83 -91c0 -60 -46 -93 -119 -93c-70 0 -116 31 -116 89c0 47 37 73 83 89v1c-43 18 -73 42 -73 85c0 55 47 86 109 86c60 0 106 -31 106 -84c0 -42 -29 -63 -73 -81zM531 88c0 -33 20 -64 80 -64
c58 0 77 29 77 61c0 43 -45 60 -84 74c-36 -12 -73 -32 -73 -71zM608 316c-26 0 -68 -12 -68 -56c0 -37 34 -56 74 -67c37 13 65 31 65 65c0 45 -41 58 -71 58zM283 680v-69h-31v35h-127l-8 -125h1c17 19 42 34 77 34c63 0 101 -38 101 -106c0 -74 -47 -114 -120 -114
c-38 0 -68 8 -104 25v55h32v-34c27 -11 47 -14 70 -14c50 0 82 30 82 80c0 35 -17 76 -74 76c-31 0 -51 -12 -71 -36l-28 2l9 191h191z" />
    <glyph glyph-name="seveneighths" unicode="&#x215e;" horiz-adv-x="800" 
d="M548 680l-370 -680h-25l370 680h25zM644 180v-1c48 -21 83 -45 83 -91c0 -60 -46 -93 -119 -93c-70 0 -116 31 -116 89c0 47 37 73 83 89v1c-43 18 -73 42 -73 85c0 55 47 86 109 86c60 0 106 -31 106 -84c0 -42 -29 -63 -73 -81zM531 88c0 -33 20 -64 80 -64
c58 0 77 29 77 61c0 43 -45 60 -84 74c-36 -12 -73 -32 -73 -71zM608 316c-26 0 -68 -12 -68 -56c0 -37 34 -56 74 -67c37 13 65 31 65 65c0 45 -41 58 -71 58zM72 680h203v-28c-51 -83 -109 -193 -129 -312h-42c15 96 77 226 129 305v1h-129v-34h-32v68z" />
    <glyph glyph-name="exclamsmall" unicode="&#xf721;" horiz-adv-x="192" 
d="M61 122h70v-122h-70v122zM61 600h70l-4 -380h-62z" />
    <glyph glyph-name="exclamdownsmall" unicode="&#xf7a1;" horiz-adv-x="192" 
d="M131 477h-70v123h70v-123zM131 0h-70l4 380h62z" />
    <glyph glyph-name="exclamdbl" unicode="&#x203c;" horiz-adv-x="392" 
d="M61 122h70v-122h-70v122zM61 700h70l-4 -480h-62zM261 122h70v-122h-70v122zM261 700h70l-4 -480h-62z" />
    <glyph glyph-name="ampersandsmall" unicode="&#xf726;" horiz-adv-x="905" 
d="M621 147v94h-484c4 -113 66 -192 179 -192c57 0 100 13 152 33l9 -55c-54 -24 -103 -37 -171 -37c-149 0 -245 106 -245 260s93 260 239 260c168 0 198 -136 191 -223h130l9 213h61v-213h148v-46h-148v-83c0 -73 20 -111 91 -111c16 0 32 1 55 5l7 -55
c-26 -4 -62 -7 -84 -7c-97 0 -139 40 -139 157zM296 455c-96 0 -152 -75 -159 -168h283c16 77 -13 168 -124 168z" />
    <glyph glyph-name="fraction" unicode="&#x2044;" horiz-adv-x="540" 
d="M486 680l-370 -680h-62l370 680h62z" />
    <glyph glyph-name="uni2215" unicode="&#x2215;" horiz-adv-x="540" 
d="M486 680l-370 -680h-62l370 680h62z" />
    <glyph glyph-name="uni2219" unicode="&#x2219;" horiz-adv-x="192" 
d="M61 311h70v-122h-70v122z" />
    <glyph glyph-name="at.cap" horiz-adv-x="810" 
d="M549 413v-222c156 0 195 131 195 213c0 175 -146 286 -320 286c-208 0 -358 -144 -358 -357c0 -194 138 -332 327 -332l-4 -41c-216 0 -369 160 -369 373c0 233 171 399 404 399c202 0 366 -132 366 -326c0 -142 -84 -260 -247 -260h-49v39h-2c-35 -32 -74 -46 -126 -46
c-77 0 -126 42 -126 111c0 85 65 119 164 119h90v38c0 58 -22 87 -95 87c-4 0 -7 0 -12 -1c-18 -17 -74 -14 -119 -24l-2 51c46 13 102 21 144 21c91 0 139 -26 139 -128zM494 220v114h-82c-86 0 -116 -27 -116 -79c0 -44 32 -72 91 -72c51 0 88 21 107 37z" />
    <glyph glyph-name="parenleft.cap" horiz-adv-x="330" 
d="M71 340c0 166 62 340 169 480h49c-102 -166 -148 -319 -148 -480c0 -160 46 -310 148 -480h-49c-107 140 -169 316 -169 480z" />
    <glyph glyph-name="parenright.cap" horiz-adv-x="330" 
d="M259 340c0 -164 -62 -340 -169 -480h-49c102 170 148 320 148 480c0 161 -46 314 -148 480h49c107 -140 169 -314 169 -480z" />
    <glyph glyph-name="bracketleft.cap" horiz-adv-x="300" 
d="M135 -96h124v-44h-198v960h198v-44h-124v-872z" />
    <glyph glyph-name="bracketright.cap" horiz-adv-x="300" 
d="M41 -96h124v872h-124v44h198v-960h-198v44z" />
    <glyph glyph-name="braceleft.cap" horiz-adv-x="340" 
d="M195 7c0 -114 54 -115 104 -115v-32c-106 0 -178 19 -178 146c0 61 10 130 10 189c0 64 0 114 -70 124v42c70 10 70 60 70 124c0 59 -10 128 -10 189c0 126 72 146 178 146v-33c-50 0 -104 0 -104 -115c0 -61 11 -151 11 -213c0 -79 -34 -106 -85 -118v-2
c51 -12 85 -39 85 -118c0 -62 -11 -153 -11 -214z" />
    <glyph glyph-name="braceright.cap" horiz-adv-x="340" 
d="M145 672c0 115 -54 115 -104 115v33c105 0 178 -20 178 -146c0 -61 -10 -130 -10 -189c0 -64 0 -114 70 -124v-42c-70 -10 -70 -60 -70 -124c0 -59 10 -128 10 -189c0 -127 -73 -146 -178 -146v32c50 0 104 1 104 115c0 61 -12 152 -12 214c0 79 35 106 86 118v2
c-51 12 -86 39 -86 118c0 62 12 152 12 213z" />
    <glyph glyph-name="exclamdown.cap" horiz-adv-x="192" 
d="M131 557h-70v123h70v-123zM131 0h-70l4 470h62z" />
    <glyph glyph-name="questiondown.cap" horiz-adv-x="480" 
d="M429 164v-136c-59 -23 -121 -38 -191 -38c-138 0 -187 83 -187 171c0 179 191 174 191 279v30h63v-30c0 -142 -182 -132 -182 -273c0 -87 69 -111 128 -111c54 0 100 18 119 23v85h59zM309 680v-123h-70v123h70z" />
    <glyph glyph-name="guillemotleft.cap" horiz-adv-x="730" 
d="M61 332l258 163v-74l-184 -111l184 -111v-74l-258 163v44zM411 332l258 163v-74l-184 -111l184 -111v-74l-258 163v44z" />
    <glyph glyph-name="guillemotright.cap" horiz-adv-x="730" 
d="M61 495l258 -163v-44l-258 -163v74l184 111l-184 111v74zM411 495l258 -163v-44l-258 -163v74l184 111l-184 111v74z" />
    <glyph glyph-name="guilsinglleft.cap" horiz-adv-x="380" 
d="M61 332l258 163v-74l-184 -111l184 -111v-74l-258 163v44z" />
    <glyph glyph-name="guilsinglright.cap" horiz-adv-x="380" 
d="M61 495l258 -163v-44l-258 -163v74l184 111l-184 111v74z" />
    <glyph glyph-name="hyphen.cap" horiz-adv-x="500" 
d="M61 354h378v-58h-378v58z" />
    <glyph glyph-name="endash.cap" horiz-adv-x="600" 
d="M61 354h478v-58h-478v58z" />
    <glyph glyph-name="emdash.cap" horiz-adv-x="700" 
d="M61 354h578v-58h-578v58z" />
    <glyph glyph-name="periodcentered.cap" horiz-adv-x="192" 
d="M61 311h70v-122h-70v122z" />
    <glyph glyph-name="lessequal" unicode="&#x2264;" horiz-adv-x="480" 
d="M61 322l358 163v-51l-284 -130l284 -130v-52l-358 164v36zM61 75h358v-44h-358v44z" />
    <glyph glyph-name="approxequal" unicode="&#x2248;" horiz-adv-x="500" 
d="M173 369c-19 0 -37 -4 -84 -52l-23 19c41 60 70 82 105 82c48 0 147 -57 181 -57c18 0 39 3 65 45l20 -22c-21 -42 -42 -67 -76 -70c-6 -1 -14 1 -21 2c-43 9 -132 53 -167 53zM173 169c-19 0 -37 -4 -84 -52l-23 19c41 60 70 82 105 82c48 0 147 -57 181 -57
c18 0 39 3 65 45l20 -22c-21 -42 -42 -67 -76 -70c-6 -1 -14 1 -21 2c-43 9 -132 53 -167 53z" />
    <glyph glyph-name="notequal" unicode="&#x2260;" horiz-adv-x="500" 
d="M61 194h134l77 142h-211v58h243l115 211h32l-115 -211h103v-58h-135l-77 -142h212v-58h-243l-115 -211h-32l114 211h-102v58z" />
    <glyph glyph-name="estimated" unicode="&#x212e;" horiz-adv-x="736" 
d="M706 349h-528v-235c54 -52 118 -78 190 -78c108 0 193 53 252 157l46 -26c-43 -61 -87 -106 -130 -134c-45 -29 -100 -43 -168 -43c-101 0 -183 34 -244 103c-63 67 -94 152 -94 256c0 106 31 191 94 259s144 102 244 102c91 0 169 -31 234 -91c64 -61 100 -150 104 -270
zM178 397h380v189c-54 51 -118 77 -191 77c-75 0 -137 -26 -189 -77v-189z" />
    <glyph glyph-name="partialdiff" unicode="&#x2202;" horiz-adv-x="573" 
d="M448 358l3 1c11 101 -12 272 -175 272c-46 0 -84 -6 -138 -24l-1 55c50 17 88 28 153 28c151 0 264 -93 223 -390c-23 -158 -94 -310 -276 -310c-123 0 -203 86 -183 230c21 150 110 235 240 235c68 0 123 -39 154 -97zM437 301c-28 52 -74 93 -134 93
c-124 0 -165 -98 -175 -174c-16 -112 44 -171 123 -171c132 0 173 123 186 252z" />
    <glyph glyph-name="greaterequal" unicode="&#x2265;" horiz-adv-x="480" 
d="M61 485l358 -163v-36l-358 -164v52l284 130l-284 130v51zM61 75h358v-44h-358v44z" />
    <glyph glyph-name="questionsmall" unicode="&#xf73f;" horiz-adv-x="480" 
d="M110 524v-56h-59v96c51 24 123 46 191 46c139 0 187 -69 187 -141c0 -171 -192 -125 -192 -233v-26h-62v30c0 142 182 92 182 219c0 55 -47 88 -131 88c-53 0 -108 -21 -116 -23zM171 0v122h70v-122h-70z" />
    <glyph glyph-name="questiondownsmall" unicode="&#xf7bf;" horiz-adv-x="480" 
d="M370 76v56h59v-96c-51 -24 -123 -46 -191 -46c-139 0 -187 69 -187 141c0 171 191 125 191 233v26h63v-30c0 -143 -182 -92 -182 -219c0 -55 47 -89 131 -89c53 0 108 22 116 24zM309 600v-123h-70v123h70z" />
    <glyph glyph-name="percent.oldstyle" horiz-adv-x="760" 
d="M589 580l-370 -580h-48l370 580h48zM181 299c-86 0 -132 53 -132 136c0 84 46 136 132 136s133 -52 133 -136c0 -83 -47 -136 -133 -136zM181 335c58 0 88 37 88 100s-30 100 -88 100s-88 -37 -88 -100s30 -100 88 -100zM579 9c-86 0 -133 52 -133 136
c0 83 47 135 133 135s132 -52 132 -135c0 -84 -46 -136 -132 -136zM579 45c57 0 88 37 88 100s-31 100 -88 100c-58 0 -88 -37 -88 -100s30 -100 88 -100z" />
    <glyph glyph-name="perthousand.oldstyle" horiz-adv-x="1110" 
d="M589 580l-370 -580h-48l370 580h48zM181 299c-86 0 -132 53 -132 136c0 84 46 136 132 136s133 -52 133 -136c0 -83 -47 -136 -133 -136zM181 335c58 0 88 37 88 100s-30 100 -88 100s-88 -37 -88 -100s30 -100 88 -100zM579 9c-86 0 -133 52 -133 136
c0 83 47 135 133 135s132 -52 132 -135c0 -84 -46 -136 -132 -136zM579 45c57 0 88 37 88 100s-31 100 -88 100c-58 0 -88 -37 -88 -100s30 -100 88 -100zM930 9c-86 0 -133 52 -133 136c0 83 47 135 133 135s132 -52 132 -135c0 -84 -46 -136 -132 -136zM930 45
c58 0 88 37 88 100s-30 100 -88 100s-88 -37 -88 -100s30 -100 88 -100z" />
    <glyph glyph-name="figuredash" unicode="&#x2012;" horiz-adv-x="600" 
d="M61 294h478v-58h-478v58z" />
    <glyph glyph-name="threequartersemdash" unicode="&#xf6de;" horiz-adv-x="700" 
d="M61 294h578v-58h-578v58z" />
    <glyph glyph-name="minus" unicode="&#x2212;" horiz-adv-x="500" 
d="M61 294h378v-58h-378v58z" />
    <glyph glyph-name="overscore" horiz-adv-x="400" 
d="M49 642h302v-51h-302v51z" />
    <glyph glyph-name="uni03BC" unicode="&#x3bc;" horiz-adv-x="590" 
d="M22 441v59h139v-331c0 -69 28 -120 110 -120c66 0 125 41 158 67v325h-88v59h158v-441h68v-59h-138v72h-2c-43 -38 -94 -69 -152 -74c-55 -4 -93 10 -114 47v-61c0 -122 -20 -182 -112 -192c-12 -1 -24 -2 -38 -2c-19 1 -43 3 -65 7l7 55c23 -4 39 -5 54 -5
c67 0 84 38 84 111v483h-69z" />
    <glyph glyph-name="onedotenleader" unicode="&#x2024;" horiz-adv-x="192" 
d="M61 122h70v-122h-70v122z" />
    <glyph glyph-name="twodotenleader" unicode="&#x2025;" horiz-adv-x="392" 
d="M61 122h70v-122h-70v122zM261 122h70v-122h-70v122z" />
    <glyph glyph-name="afii61352" unicode="&#x2116;" horiz-adv-x="1044" 
d="M867 350c-109 0 -167 65 -167 170s58 170 167 170s167 -65 167 -170s-58 -170 -167 -170zM700 295h334v-44h-334v44zM867 391c76 0 117 48 117 129s-41 129 -117 129s-117 -48 -117 -129s41 -129 117 -129zM460 680h207v-59h-68v-621h-78l-360 539h-2v-480h71v-59h-208
v59h69v562h-69v59h143l364 -547h2v488h-71v59z" />
    <glyph glyph-name="product" unicode="&#x220f;" horiz-adv-x="680" 
d="M446 59h69v562h-350v-562h69v-59h-212v59h69v562h-69v59h635v-59h-68v-562h68v-59h-211v59z" />
    <glyph glyph-name="summation" unicode="&#x2211;" horiz-adv-x="520" 
d="M475 134v-134h-440v55l183 284l-183 286v55h440v-134h-59v75h-289v-2l183 -280l-181 -278v-2h287v75h59z" />
    <glyph glyph-name="radical" unicode="&#x221a;" horiz-adv-x="800" 
d="M81 346v44h224l115 -315h2l228 625h75l-263 -705h-85l-136 351h-160z" />
    <glyph glyph-name="infinity" unicode="&#x221e;" horiz-adv-x="680" 
d="M177 146c66 0 114 61 133 101c-21 50 -76 104 -131 104c-76 0 -108 -50 -108 -102c0 -51 29 -103 106 -103zM336 217c-26 -53 -85 -112 -168 -112c-88 0 -143 58 -143 145c0 85 58 145 155 145c79 0 130 -60 162 -115c31 55 84 115 169 115c88 0 144 -58 144 -145
c0 -80 -56 -145 -153 -145c-59 0 -124 35 -166 112zM503 353c-65 0 -115 -62 -136 -105c21 -50 79 -100 135 -100c74 0 107 50 107 102c0 51 -29 103 -106 103z" />
    <glyph glyph-name="integral" unicode="&#x222b;" horiz-adv-x="360" 
d="M145 -42v592c0 116 42 156 139 156c22 0 50 -3 76 -7l-7 -55c-23 4 -39 5 -54 5c-68 0 -84 -38 -84 -111v-581c0 -116 -36 -167 -139 -167c-22 0 -50 3 -76 7l7 55c23 -4 39 -5 54 -5c68 0 84 38 84 111z" />
    <glyph glyph-name="lozenge" unicode="&#x25ca;" horiz-adv-x="472" 
d="M229 -30l-199 374l199 374h14l199 -374l-199 -374h-14zM88 344l148 -277l147 277l-147 277z" />
    <glyph glyph-name="uni037E" unicode="&#x37e;" horiz-adv-x="192" 
d="M61 311h70v-122h-70v122z" />
    <glyph glyph-name="litre" unicode="&#x2113;" horiz-adv-x="449" 
d="M42 156l-12 11l94 99v243c0 67 13 118 40 151c27 32 60 50 100 50c59 0 96 -39 96 -99c0 -34 -10 -71 -31 -112c-20 -41 -63 -100 -129 -176v-168c0 -51 8 -86 23 -106s35 -29 60 -29c22 0 44 9 64 29c21 19 39 53 54 103h18c-14 -55 -36 -97 -68 -127
c-24 -23 -54 -35 -89 -35c-58 0 -107 35 -127 90c-7 21 -11 56 -11 107v52zM200 543v-193c89 103 134 183 134 242c0 57 -30 89 -67 89c-19 0 -35 -9 -48 -28s-19 -55 -19 -110z" />
    <glyph glyph-name="tonos" unicode="&#x384;" horiz-adv-x="290" 
d="M197 680l-85 -140h-40l63 140h62z" />
    <glyph glyph-name="dieresistonos" unicode="&#x385;" horiz-adv-x="605" 
d="M377 730l-95 -170h-40l69 170h66zM81 700h63v-115h-63v115zM461 700h63v-115h-63v115z" />
    <glyph glyph-name="anoteleia" unicode="&#x387;" horiz-adv-x="480" 
d="M81 700h63v-115h-63v115zM336 700h63v-115h-63v115z" />
    <glyph glyph-name="Delta" unicode="&#x2206;" horiz-adv-x="628" 
d="M294 710l284 -710h-528zM282 597l-193 -565h415z" />
    <glyph glyph-name="Omega" unicode="&#x2126;" horiz-adv-x="670" 
d="M335 690c202 0 284 -136 284 -300c0 -122 -64 -240 -193 -259v-80h193v-51h-245v163c118 8 167 108 167 227c0 125 -49 237 -206 237s-206 -112 -206 -237c0 -119 49 -219 167 -227v-163h-245v51h193v80c-129 19 -193 137 -193 259c0 164 82 300 284 300z" />
    <glyph glyph-name="pi" unicode="&#x3c0;" horiz-adv-x="590" 
d="M364 59h65v382h-268v-382h65v-59h-204v59h69v382h-69v59h545v-59h-68v-382h68v-59h-203v59z" />
    <glyph glyph-name="ampersand.alt" horiz-adv-x="840" 
d="M556 227h-279c-43 0 -135 -15 -135 -86c0 -56 40 -92 134 -92c43 0 96 5 161 30l10 -55c-70 -26 -122 -34 -187 -34c-129 0 -199 50 -199 140c0 75 60 111 131 123v2c-66 15 -111 55 -111 125c0 100 90 130 189 130c65 0 125 -12 177 -34l-9 -55c-65 25 -122 30 -159 30
c-52 0 -124 -14 -124 -86c0 -20 11 -86 122 -86h279l9 221h61v-221h148v-46h-148v-75c0 -73 20 -111 91 -111c16 0 32 1 55 5l7 -55c-26 -4 -62 -7 -84 -7c-97 0 -139 40 -139 157v80z" />
    <glyph glyph-name="sigma" unicode="&#x3c3;" horiz-adv-x="513" 
d="M100 249c0 45 18 85 48 114l-78 90l8 8l79 -90c27 22 62 36 100 36c37 0 72 -14 99 -36l78 90l9 -8l-78 -89c31 -29 50 -70 50 -115s-19 -86 -49 -114l76 -86l-9 -9l-77 87c-27 -22 -62 -35 -99 -35c-38 0 -73 13 -100 35l-76 -87l-9 9l76 86c-30 29 -48 69 -48 114z
M112 249c0 -79 66 -145 145 -145s146 66 146 145s-67 146 -146 146s-145 -67 -145 -146z" />
    <glyph glyph-name="uni03C2" unicode="&#x3c2;" horiz-adv-x="513" 
d="M100 249c0 45 18 85 48 114l-78 90l8 8l79 -90c27 22 62 36 100 36c37 0 72 -14 99 -36l78 90l9 -8l-78 -89c31 -29 50 -70 50 -115s-19 -86 -49 -114l76 -86l-9 -9l-77 87c-27 -22 -62 -35 -99 -35c-38 0 -73 13 -100 35l-76 -87l-9 9l76 86c-30 29 -48 69 -48 114z
M112 249c0 -79 66 -145 145 -145s146 66 146 145s-67 146 -146 146s-145 -67 -145 -146z" />
  </font>
</defs>
</svg>
